<svg width="15" height="11" viewBox="0 0 15 11" fill="none" xmlns="http://www.w3.org/2000/svg">
<path d="M13.125 0H1.875C1.37788 0.00049632 0.901278 0.18503 0.549762 0.513111C0.198247 0.841192 0.000531772 1.28602 0 1.75V9.25C0.000531772 9.71398 0.198247 10.1588 0.549762 10.4869C0.901278 10.815 1.37788 10.9995 1.875 11H13.125C13.6221 10.9995 14.0987 10.815 14.4502 10.4869C14.8018 10.1588 14.9995 9.71398 15 9.25V1.75C14.9995 1.28602 14.8018 0.841192 14.4502 0.513111C14.0987 0.18503 13.6221 0.00049632 13.125 0ZM12.6502 2.89469L7.82879 6.39469C7.73478 6.4629 7.61909 6.49994 7.5 6.49994C7.38091 6.49994 7.26522 6.4629 7.17121 6.39469L2.34978 2.89469C2.29313 2.85476 2.24555 2.80472 2.2098 2.74749C2.17405 2.69025 2.15085 2.62695 2.14153 2.56127C2.13222 2.49559 2.13699 2.42884 2.15556 2.36489C2.17413 2.30094 2.20613 2.24108 2.2497 2.18878C2.29327 2.13647 2.34754 2.09277 2.40937 2.06022C2.47119 2.02766 2.53933 2.00689 2.60983 1.99913C2.68032 1.99136 2.75177 1.99675 2.82002 2.01498C2.88826 2.03321 2.95195 2.06391 3.00737 2.10531L7.5 5.36656L11.9926 2.10531C12.105 2.02613 12.2462 1.9914 12.3858 2.00864C12.5253 2.02587 12.652 2.09369 12.7384 2.19741C12.8248 2.30114 12.864 2.43244 12.8475 2.56293C12.831 2.69341 12.7601 2.81259 12.6502 2.89469Z" fill="#0AB1B1"/>
</svg>
