<svg width="15" height="11" viewBox="0 0 15 11" fill="none" xmlns="http://www.w3.org/2000/svg">
<mask id="path-1-inside-1" fill="white">
<path d="M14.9047 5.20819C14.7707 5.02488 11.5778 0.719727 7.49993 0.719727C3.42206 0.719727 0.229043 5.02488 0.0951857 5.20802C-0.0317286 5.38192 -0.0317286 5.61779 0.0951857 5.7917C0.229043 5.97501 3.42206 10.2802 7.49993 10.2802C11.5778 10.2802 14.7707 5.97498 14.9047 5.79185C15.0318 5.61797 15.0318 5.38192 14.9047 5.20819ZM7.49993 9.29116C4.49614 9.29116 1.89454 6.43374 1.12442 5.49961C1.89355 4.56466 4.4897 1.70873 7.49993 1.70873C10.5036 1.70873 13.105 4.56565 13.8754 5.50028C13.1063 6.43521 10.5102 9.29116 7.49993 9.29116Z"/>
</mask>
<path d="M14.9047 5.20819C14.7707 5.02488 11.5778 0.719727 7.49993 0.719727C3.42206 0.719727 0.229043 5.02488 0.0951857 5.20802C-0.0317286 5.38192 -0.0317286 5.61779 0.0951857 5.7917C0.229043 5.97501 3.42206 10.2802 7.49993 10.2802C11.5778 10.2802 14.7707 5.97498 14.9047 5.79185C15.0318 5.61797 15.0318 5.38192 14.9047 5.20819ZM7.49993 9.29116C4.49614 9.29116 1.89454 6.43374 1.12442 5.49961C1.89355 4.56466 4.4897 1.70873 7.49993 1.70873C10.5036 1.70873 13.105 4.56565 13.8754 5.50028C13.1063 6.43521 10.5102 9.29116 7.49993 9.29116Z" fill="white"/>
<path d="M14.9047 5.20819L14.0974 5.79834L14.0976 5.79861L14.9047 5.20819ZM0.0951857 5.20802L-0.712146 4.61792L-0.712584 4.61852L0.0951857 5.20802ZM0.0951857 5.7917L-0.712584 6.3812L-0.712416 6.38143L0.0951857 5.7917ZM14.9047 5.79185L15.7117 6.38236L15.712 6.38194L14.9047 5.79185ZM1.12442 5.49961L0.35215 4.86431L-0.171042 5.5003L0.352828 6.13573L1.12442 5.49961ZM13.8754 5.50028L14.6477 6.13559L15.1709 5.49964L14.6471 4.8642L13.8754 5.50028ZM15.712 4.61804C15.6208 4.49336 14.7334 3.29864 13.3198 2.12565C11.924 0.967476 9.88211 -0.280273 7.49993 -0.280273V1.71973C9.19561 1.71973 10.7891 2.62455 12.0427 3.66478C13.2785 4.6902 14.0545 5.73971 14.0974 5.79834L15.712 4.61804ZM7.49993 -0.280273C5.11775 -0.280273 3.07578 0.967471 1.68 2.12562C0.266365 3.29857 -0.621016 4.49324 -0.712146 4.61792L0.902518 5.79811C0.945245 5.73966 1.7213 4.69018 2.95711 3.66477C4.21076 2.62456 5.80424 1.71973 7.49993 1.71973V-0.280273ZM-0.712584 4.61852C-1.09581 5.14363 -1.09581 5.85608 -0.712584 6.3812L0.902956 5.2022C1.03235 5.3795 1.03235 5.62021 0.902956 5.79751L-0.712584 4.61852ZM-0.712416 6.38143C-0.62101 6.5066 0.266401 7.7013 1.67999 8.87424C3.07578 10.0324 5.11775 11.2802 7.49993 11.2802V9.28016C5.80424 9.28016 4.21076 8.37533 2.95711 7.3351C1.72126 6.30964 0.945239 5.26011 0.902787 5.20197L-0.712416 6.38143ZM7.49993 11.2802C9.88211 11.2802 11.924 10.0324 13.3198 8.87425C14.7335 7.70124 15.6208 6.50655 15.7117 6.38236L14.0976 5.20133C14.0545 5.26028 13.2784 6.30974 12.0427 7.33511C10.789 8.37533 9.19561 9.28016 7.49993 9.28016V11.2802ZM15.712 6.38194C16.0959 5.85675 16.0962 5.14325 15.7118 4.61777L14.0976 5.79861C13.9673 5.6206 13.9676 5.37918 14.0973 5.20175L15.712 6.38194ZM7.49993 8.29116C6.3065 8.29116 5.11496 7.71625 4.06974 6.94209C3.03818 6.17807 2.254 5.29772 1.896 4.86349L0.352828 6.13573C0.76496 6.63563 1.66664 7.65106 2.87937 8.54927C4.07841 9.43736 5.68957 10.2912 7.49993 10.2912V8.29116ZM1.89668 6.13491C2.25407 5.70047 3.03649 4.82058 4.06705 4.05707C5.11098 3.28366 6.30287 2.70873 7.49993 2.70873V0.708732C5.68675 0.708732 4.07545 1.56177 2.87647 2.45005C1.66412 3.34824 0.763895 4.3638 0.35215 4.86431L1.89668 6.13491ZM7.49993 2.70873C8.69331 2.70873 9.88478 3.28354 10.93 4.05763C11.9615 4.82159 12.7457 5.70193 13.1038 6.13636L14.6471 4.8642C14.2347 4.36401 13.333 3.34857 12.1203 2.45042C10.9212 1.56238 9.31018 0.708732 7.49993 0.708732V2.70873ZM13.1032 4.86497C12.7458 5.29941 11.9634 6.17929 10.9328 6.94281C9.88887 7.71623 8.69698 8.29116 7.49993 8.29116V10.2912C9.3131 10.2912 10.9244 9.43811 12.1234 8.54982C13.3357 7.65163 14.236 6.63608 14.6477 6.13559L13.1032 4.86497Z" fill="white" mask="url(#path-1-inside-1)"/>
</svg>
