<svg width="24" height="24" viewBox="0 0 24 24" fill="none" xmlns="http://www.w3.org/2000/svg">
<g clip-path="url(#clip0)">
<path d="M14.1219 10.4594C13.6461 9.79322 12.8658 9.35547 11.9903 9.35547C11.1148 9.35547 10.3344 9.79322 9.85861 10.4594C9.55409 10.8971 9.36377 11.43 9.36377 12.001C9.36377 13.4475 10.5438 14.6275 11.9903 14.6275C13.4367 14.6275 14.6167 13.4475 14.6167 12.001C14.6167 11.43 14.4264 10.8971 14.1219 10.4594Z" fill="white"/>
<path d="M15.7775 10.4766C15.9679 10.8572 16.0821 11.4663 16.0821 11.9992C16.0821 14.245 14.2549 16.0912 11.9901 16.0912C9.72519 16.0912 7.89807 14.264 7.89807 11.9992C7.89807 11.4472 8.01227 10.8572 8.20259 10.4766H5.89966V16.586C5.89966 17.3854 6.60386 18.0896 7.40323 18.0896H16.5769C17.3763 18.0896 18.0805 17.3854 18.0805 16.586V10.4766H15.7775Z" fill="white"/>
<path d="M17.3955 6.25145H15.1877V8.78278H17.7V6.57501V6.23242L17.3955 6.25145Z" fill="white"/>
<path d="M17.9664 0.00976562H6.01403C2.70237 0.00976562 -0.000244141 2.71238 -0.000244141 6.02404V17.9955C-0.000244141 21.2881 2.70237 23.9907 6.01403 23.9907H17.9855C21.2971 23.9907 23.9998 21.2881 23.9998 17.9765V6.02404C23.9807 2.71238 21.2781 0.00976562 17.9664 0.00976562ZM19.4129 10.4586V16.5871C19.4129 18.1858 18.1758 19.4229 16.5771 19.4229H7.4034C5.80467 19.4229 4.56756 18.1858 4.56756 16.5871V10.4586V7.41341C4.56756 5.81468 5.80467 4.57757 7.4034 4.57757H16.5771C18.1758 4.57757 19.4129 5.81468 19.4129 7.41341V10.4586Z" fill="white"/>
</g>
<defs>
<clipPath id="clip0">
<rect width="24" height="24" fill="white"/>
</clipPath>
</defs>
</svg>
