<svg width="14" height="14" viewBox="0 0 14 14" fill="none" xmlns="http://www.w3.org/2000/svg">
<path d="M12.0339 0.65924C11.2461 -0.128601 9.96882 -0.128601 9.18098 0.65924L1.18315 8.65707C1.12834 8.71188 1.08876 8.77983 1.0681 8.85443L0.0163586 12.6514C-0.0268947 12.8071 0.0170591 12.9738 0.131234 13.0882C0.245584 13.2023 0.412293 13.2463 0.56797 13.2032L4.36498 12.1513C4.43958 12.1306 4.50752 12.0911 4.56233 12.0363L12.56 4.03825C13.3466 3.24988 13.3466 1.97365 12.56 1.18528L12.0339 0.65924ZM2.15994 8.94846L8.70555 2.40268L10.8166 4.51369L4.27077 11.0595L2.15994 8.94846ZM1.73826 9.79462L3.42479 11.4813L1.09191 12.1277L1.73826 9.79462ZM11.9261 3.40434L11.4506 3.87977L9.33946 1.76859L9.81507 1.29315C10.2527 0.855543 10.9622 0.855543 11.3999 1.29315L11.9261 1.8192C12.363 2.25733 12.363 2.96637 11.9261 3.40434Z" fill="white"/>
</svg>
