<?xml version="1.0" standalone="no"?>
<!DOCTYPE svg PUBLIC "-//W3C//DTD SVG 1.1//EN" "http://www.w3.org/Graphics/SVG/1.1/DTD/svg11.dtd" >
<svg xmlns="http://www.w3.org/2000/svg" xmlns:xlink="http://www.w3.org/1999/xlink" version="1.1">
<metadata>
Created by FontForge 20170731 at Tue Mar 20 17:35:42 2018
 By Aleksey,,,
Digitized data copyright 2012-2018 for FiraGO, bBox Type GmbH and HERE Europe B.V. All rights reserved, with Reserved Font Name "Fira" / Digitized data copyright 2012-2018 for Fira Sans The Mozilla Foundation, Telefonica S.A., Carrois Corporate GbR and bBox Type GmbH, with Reserved Font Name "Fira"
</metadata>
<defs>
<font id="FiraGO-ExtraLight" horiz-adv-x="0" >
  <font-face 
    font-family="FiraGO ExtraLight"
    font-weight="200"
    font-stretch="normal"
    units-per-em="1000"
    panose-1="2 11 4 3 5 0 0 2 0 4"
    ascent="800"
    descent="-200"
    x-height="522"
    cap-height="684"
    bbox="-726 -704 2411 1261"
    underline-thickness="50"
    underline-position="-200"
    unicode-range="U+000D-FEFF"
  />
<missing-glyph horiz-adv-x="666" 
d="M543 1050v-1400h-420v1400h420zM489 998h-311v-1296h311v1296zM324 451q111 0 111 -115q0 -104 -95 -118v-45q0 -11 -7.5 -17.5t-17.5 -6.5t-17.5 6.5t-7.5 17.5v84q53 3 72 19.5t19 57.5q0 33 -13 51t-48 18q-29 0 -52 -11q-8 -3 -13 -3q-24 0 -24 23q0 19 29.5 29
t63.5 10zM315 120q15 0 25 -10t10 -25q0 -16 -10 -26.5t-25 -10.5t-25 10.5t-10 26.5q0 15 10 25t25 10z" />
    <glyph glyph-name="fi" unicode="fi" horiz-adv-x="558" 
d="M254 741q76 0 148 -37l-17 -35q-68 32 -129 32q-50 0 -74 -21t-24 -73v-85h291v-522h-46v483h-245v-483h-46v483h-87v39h87v90q0 63 37 96t105 33z" />
    <glyph glyph-name="fl" unicode="fl" horiz-adv-x="589" 
d="M532 37l13 -35q-30 -13 -56 -13q-85 0 -85 96v593q-73 23 -140 23q-54 0 -80 -21.5t-26 -69.5v-88h141l-6 -39h-135v-483h-46v483h-87v39h87v90q0 61 38.5 95t110.5 34q66 0 143 -25v1l46 6v-639q0 -54 46 -54q17 0 36 7z" />
    <glyph glyph-name="uniFDF2" unicode="&#x627;&#xfedf;&#xfee0;&#xfeea;" horiz-adv-x="1091" arabic-form="isolated" 
d="M573 904v-162h-32v159zM502 588q-25 0 -43.5 18.5t-18.5 54.5q0 28 11 61l26 -7q-7 -23 -7 -48q0 -46 35 -46q18 0 28.5 14t10.5 36v42h27v-44q0 -20 9.5 -33t26.5 -13q37 0 37 49q0 31 -14 64l27 10q18 -45 18 -82q0 -35 -17.5 -54t-46.5 -19q-38 0 -54 33
q-16 -36 -55 -36zM964 739l42 5v-744h-42v739zM758 151v482l42 5v-488q0 -150 -127 -150q-87 0 -114 69q-22 -69 -110 -69q-110 0 -127 113q-21 -33 -60 -54t-89 -21q-68 0 -107 35.5t-39 92.5q0 76 75.5 128t213.5 65v94l42 5v-288q0 -68 21 -96.5t70 -28.5q46 0 67.5 24.5
t21.5 82.5v385l42 5v-390q0 -57 22 -82t69 -25q45 0 66 25t21 81zM316 157v163q-121 -8 -184.5 -49.5t-63.5 -101.5q0 -41 28 -66t81 -25q93 0 139 79z" />
    <glyph glyph-name="uniFEF5" unicode="&#xfedf;&#xfe82;" horiz-adv-x="622" arabic-form="isolated" 
d="M230 741q-36 -29 -66 -29q-20 0 -45 14.5t-41 14.5q-27 0 -46 -44l-27 8q10 30 29.5 49.5t43.5 19.5q23 0 48 -15t44 -15q17 0 46 20zM448 319q95 -101 95 -182q0 -70 -51 -103.5t-160 -33.5h-229l3 42q113 76 183.5 139.5t110.5 130.5l-10 10l-308 298l51 8l286 -280
q51 102 51 260v132l42 4v-139q0 -165 -64 -286zM329 44q93 0 134.5 21t41.5 72q0 64 -78 147q-78 -123 -259 -240h161z" />
    <glyph glyph-name="uniFEF6" unicode="&#xfee0;&#xfe82;" horiz-adv-x="655" arabic-form="final" 
d="M659 45l16 -22l-20 -23q-112 0 -129 102q-23 -55 -81.5 -78.5t-161.5 -23.5h-196l-5 45h207q92 0 141 20l-289 485l47 7l166 -285q61 -105 103 -193q55 37 55 137v524l43 5v-566q0 -75 25 -104.5t79 -29.5zM133 681q-27 0 -46 -44l-27 8q10 30 29.5 49.5t43.5 19.5
q23 0 48 -15t44 -15q17 0 46 20l14 -23q-36 -29 -66 -29q-20 0 -45 14.5t-41 14.5z" />
    <glyph glyph-name="uniFEF7" unicode="&#xfedf;&#xfe84;" horiz-adv-x="622" arabic-form="isolated" 
d="M207 744l4 -28l-193 -32l-4 29l70 11q-51 37 -51 78q0 33 24 55t69 22q33 0 65 -17l-15 -26q-28 14 -52 14q-60 0 -60 -49q0 -36 54 -71zM448 319q95 -101 95 -182q0 -70 -51 -103.5t-160 -33.5h-229l3 42q113 76 183.5 139.5t110.5 130.5l-10 10l-308 298l51 8l286 -280
q51 102 51 260v132l42 4v-139q0 -165 -64 -286zM329 44q93 0 134.5 21t41.5 72q0 64 -78 147q-78 -123 -259 -240h161z" />
    <glyph glyph-name="uniFEF8" unicode="&#xfee0;&#xfe84;" horiz-adv-x="655" arabic-form="final" 
d="M262 684l4 -28l-193 -32l-4 29l70 11q-51 37 -51 78q0 33 24 55t69 22q33 0 65 -17l-15 -26q-28 14 -52 14q-60 0 -60 -49q0 -36 54 -71zM659 45l16 -22l-20 -23q-112 0 -129 102q-23 -55 -81.5 -78.5t-161.5 -23.5h-196l-5 45h207q92 0 141 20l-289 485l47 7l166 -285
q61 -105 103 -193q55 37 55 137v524l43 5v-566q0 -75 25 -104.5t79 -29.5z" />
    <glyph glyph-name="uniFEF9" unicode="&#xfedf;&#xfe88;" horiz-adv-x="622" arabic-form="isolated" 
d="M448 319q95 -101 95 -182q0 -70 -51 -103.5t-160 -33.5h-229l3 42q113 76 183.5 139.5t110.5 130.5l-10 10l-308 298l51 8l286 -280q51 102 51 260v132l42 4v-139q0 -165 -64 -286zM329 44q93 0 134.5 21t41.5 72q0 64 -78 147q-78 -123 -259 -240h161zM197 -203l88 15
l4 -29l-193 -31l-3 28l70 12q-51 35 -51 77q0 34 24 56t69 22q33 0 65 -18l-16 -26q-28 15 -51 15q-31 0 -46 -14.5t-15 -34.5q0 -37 55 -72z" />
    <glyph glyph-name="uniFEFA" unicode="&#xfee0;&#xfe88;" horiz-adv-x="655" arabic-form="final" 
d="M659 45l16 -22l-20 -23q-112 0 -129 102q-23 -55 -81.5 -78.5t-161.5 -23.5h-196l-5 45h207q92 0 141 20l-289 485l47 7l166 -285q61 -105 103 -193q55 37 55 137v524l43 5v-566q0 -75 25 -104.5t79 -29.5zM197 -203l89 15l4 -29l-193 -31l-4 28l70 12q-51 35 -51 77
q0 33 24.5 55.5t68.5 22.5q33 0 65 -18l-15 -26q-28 15 -51 15q-32 0 -46.5 -14t-14.5 -35q0 -37 54 -72z" />
    <glyph glyph-name="uniFEFB" unicode="&#xfedf;&#xfe8e;" horiz-adv-x="622" arabic-form="isolated" 
d="M448 319q95 -101 95 -182q0 -70 -51 -103.5t-160 -33.5h-229l3 42q113 76 183.5 139.5t110.5 130.5l-10 10l-308 298l51 8l286 -280q51 102 51 260v132l42 4v-139q0 -165 -64 -286zM329 44q93 0 134.5 21t41.5 72q0 64 -78 147q-78 -123 -259 -240h161z" />
    <glyph glyph-name="uniFEFC" unicode="&#xfee0;&#xfe8e;" horiz-adv-x="655" arabic-form="final" 
d="M659 45l16 -22l-20 -23q-112 0 -129 102q-23 -55 -81.5 -78.5t-161.5 -23.5h-196l-5 45h207q92 0 141 20l-289 485l47 7l166 -285q61 -105 103 -193q55 37 55 137v524l43 5v-566q0 -75 25 -104.5t79 -29.5z" />
    <glyph glyph-name="f_f" unicode="ff" horiz-adv-x="598" 
d="M537 701q-95 0 -95 -91v-88h141l-6 -39h-135v-483h-46v483h-238v-483h-46v483h-87v39h87v80q0 61 38.5 95t110.5 34q77 0 161 -36q37 46 112 46q64 0 120 -28l-16 -35q-52 23 -101 23zM396 522v90q0 27 8 51q-72 28 -140 28q-54 0 -80 -21.5t-26 -69.5v-78h238z" />
    <glyph glyph-name="f_f_i" unicode="ffi" horiz-adv-x="842" 
d="M442 522h291v-522h-46v483h-245v-483h-46v483h-238v-483h-46v483h-87v39h87v80q0 61 38.5 95t110.5 34q76 0 161 -36q35 46 117 46q75 0 147 -37l-17 -35q-66 32 -129 32q-50 0 -74 -21t-24 -73v-85zM396 522v90q0 27 8 51q-72 28 -140 28q-54 0 -80 -21.5t-26 -69.5v-78
h238z" />
    <glyph glyph-name="f_f_j" unicode="ffj" horiz-adv-x="842" 
d="M733 522v-507q0 -96 -29 -138t-102 -76l-13 33q56 28 77 63t21 117v469h-245v-483h-46v483h-238v-483h-46v483h-87v39h87v80q0 61 38.5 95t110.5 34q76 0 161 -36q35 46 117 46q75 0 147 -37l-17 -35q-66 32 -129 32q-50 0 -74 -21t-24 -73v-85h291zM396 522v90
q0 27 8 51q-72 28 -140 28q-54 0 -80 -21.5t-26 -69.5v-78h238z" />
    <glyph glyph-name="f_f_l" unicode="ffl" horiz-adv-x="873" 
d="M817 37l13 -35q-32 -13 -57 -13q-85 0 -85 96v593q-72 23 -139 23q-55 0 -81 -21.5t-26 -69.5v-88h141l-6 -39h-135v-483h-46v483h-238v-483h-46v483h-87v39h87v80q0 61 38.5 95t110.5 34q77 0 162 -36q38 46 122 46q66 0 143 -25v1l46 6v-639q0 -54 46 -54q16 0 37 7z
M396 522v90q0 27 8 51q-72 28 -140 28q-54 0 -80 -21.5t-26 -69.5v-78h238z" />
    <glyph glyph-name="f_j" unicode="fj" horiz-adv-x="558" 
d="M449 522v-507q0 -66 -15.5 -107t-41 -62.5t-74.5 -44.5l-13 33q56 28 77 63t21 117v469h-245v-483h-46v483h-87v39h87v90q0 63 37 96t105 33q76 0 148 -37l-17 -35q-68 32 -129 32q-50 0 -74 -21t-24 -73v-85h291z" />
    <glyph glyph-name="uni0E240E45" unicode="&#xe24;&#xe45;" horiz-adv-x="917" 
d="M612 580q102 0 150 -40.5t48 -122.5v-602l-46 7v592q0 65 -36 95t-120 30q-65 0 -140 -21q50 -48 50 -137v-576l-46 7v566q0 152 -160 152q-113 0 -190 -87q79 -11 150 -44v-39q-63 -6 -92.5 -38t-29.5 -97v-139q0 -56 54 -56q20 0 54 12l11 -35q-43 -18 -72 -18
q-43 0 -67.5 24.5t-24.5 73.5v138q0 67 32.5 107.5t90.5 48.5q-79 30 -152 36v34q93 119 237 119q76 0 123 -28q93 38 176 38z" />
    <glyph glyph-name="uni0E260E45" unicode="&#xe26;&#xe45;" horiz-adv-x="909" 
d="M605 580q102 0 149.5 -40.5t47.5 -122.5v-602l-46 7v592q0 65 -35.5 95t-120.5 30q-64 0 -138 -21q49 -47 49 -137v-576l-46 7v566q0 152 -158 152q-112 0 -187 -87q79 -11 150 -44v-39q-51 -9 -77 -41.5t-26 -100.5v-103q0 -62 -17 -91.5t-69 -29.5q-11 0 -21 1l-1 35
h11q16 0 26 4.5t15 9t7.5 20t2.5 23.5v35v103q0 131 111 154q-86 32 -158 38v34q93 119 234 119q73 0 121 -27q94 37 176 37z" />
    <glyph glyph-name="uni06440671" unicode="&#xfedf;&#xfb51;" horiz-adv-x="622" 
d="M134 711q-30 0 -87 17l-17 -41l-26 9l23 67q8 -3 34 -10q44 96 112 96q30 0 48.5 -17.5t18.5 -45.5q0 -37 -29 -56t-77 -19zM170 819q-47 0 -86 -72q30 -6 56 -6q71 0 71 42q0 36 -41 36zM448 319q95 -101 95 -182q0 -70 -51 -103.5t-160 -33.5h-229l3 42
q113 76 183.5 139.5t110.5 130.5l-10 10l-308 298l51 8l286 -280q51 102 51 260v132l42 4v-139q0 -165 -64 -286zM329 44q93 0 134.5 21t41.5 72q0 64 -78 147q-78 -123 -259 -240h161z" />
    <glyph glyph-name="uni06440671.fina" unicode="&#xfee0;&#xfb51;" horiz-adv-x="655" 
d="M102 668l-17 -41l-26 9l23 67q8 -3 34 -10q44 96 112 96q30 0 48.5 -17.5t18.5 -45.5q0 -37 -29 -56t-77 -19q-30 0 -87 17zM225 759q-47 0 -86 -72q30 -6 56 -6q71 0 71 42q0 36 -41 36zM659 45l16 -22l-20 -23q-112 0 -129 102q-23 -55 -81.5 -78.5t-161.5 -23.5h-196
l-5 45h207q92 0 141 20l-289 485l47 7l166 -285q61 -105 103 -193q55 37 55 137v524l43 5v-566q0 -75 25 -104.5t79 -29.5z" />
    <glyph glyph-name="uni0E1B0E31" unicode="&#xe1b;&#xe31;" horiz-adv-x="607" 
d="M637 692q-69 -20 -137 -26v-464q0 -97 -50 -154t-151 -57q-97 0 -145.5 56t-48.5 155v203q0 85 -27 152l44 6q29 -61 29 -125v-233q0 -83 36.5 -129t111.5 -46q155 0 155 175v457q-11 -1 -29 -1q-65 0 -96 18.5t-31 60.5q0 22 8 51h37q-6 -21 -6 -44q0 -28 20 -40t75 -12
q14 0 22 1v84l46 -6v-74q67 7 129 24z" />
    <glyph glyph-name="uni0E1B0E49" unicode="&#xe1b;&#xe49;" horiz-adv-x="607" 
d="M454 780l46 -6v-572q0 -97 -50 -154t-151 -57q-97 0 -145.5 56t-48.5 155v203q0 85 -27 152l44 6q29 -61 29 -125v-233q0 -83 36.5 -129t111.5 -46q155 0 155 175v525q-38 -38 -98 -54t-160 -18l-10 17q30 39 30 68q0 47 -49 47q-19 0 -37 -5l-4 30q24 8 49 8
q35 0 58 -18.5t23 -53.5q0 -32 -20 -60q86 3 135.5 23.5t81.5 65.5h1z" />
    <glyph glyph-name="uni0E1B0E4A" unicode="&#xe1b;&#xe4a;" horiz-adv-x="607" 
d="M454 780l46 -6v-572q0 -97 -50 -154t-151 -57q-97 0 -145.5 56t-48.5 155v203q0 85 -27 152l44 6q29 -61 29 -125v-233q0 -83 36.5 -129t111.5 -46q155 0 155 175v515q-46 -59 -143 -59q-21 0 -33 2q8 29 8 66q0 61 -50 61q-28 0 -45 -24t-17 -64v-24l-39 -4v28
q0 41 -15 64.5t-44 23.5q-51 0 -51 -62q0 -27 8 -65h-37q-10 28 -10 67q0 42 22.5 67.5t63.5 25.5q67 0 83 -70q5 28 26 49t60 21q40 0 62 -24.5t22 -62.5q0 -22 -7 -46q99 2 136 90z" />
    <glyph glyph-name="uni0E1B0E4B" unicode="&#xe1b;&#xe4b;" horiz-adv-x="607" 
d="M284 663l1 68l-77 -1l4 33h73l-1 58l39 5v-63h73v-33l-73 1v-68h-39zM454 780l46 -6v-572q0 -97 -50 -154t-151 -57q-97 0 -145.5 56t-48.5 155v203q0 85 -27 152l44 6q29 -61 29 -125v-233q0 -83 36.5 -129t111.5 -46q155 0 155 175v575z" />
    <glyph glyph-name="uni0E1B0E4C" unicode="&#xe1b;&#xe4c;" horiz-adv-x="607" 
d="M590 746v-34h-90v-510q0 -97 -50 -154t-151 -57q-97 0 -145.5 56t-48.5 155v203q0 85 -27 152l44 6q29 -61 29 -125v-233q0 -83 36.5 -129t111.5 -46q155 0 155 175v507h-71q-26 0 -37 -12t-11 -37q0 -20 3 -41h-39q-4 28 -4 48q0 76 85 76h74v34l46 -6v-28h90z" />
    <glyph glyph-name="uni0E1B0E4D" unicode="&#xe1b;&#xe4d;" horiz-adv-x="607" 
d="M311 659q-38 0 -61.5 23t-23.5 60q0 38 23.5 61t61.5 23t62 -23.5t24 -60.5t-24 -60t-62 -23zM311 794q-48 0 -48 -52q0 -51 48 -51q49 0 49 51q0 52 -49 52zM454 780l46 -6v-572q0 -97 -50 -154t-151 -57q-97 0 -145.5 56t-48.5 155v203q0 85 -27 152l44 6
q29 -61 29 -125v-233q0 -83 36.5 -129t111.5 -46q155 0 155 175v575z" />
    <glyph glyph-name="uni0E1D0E31" unicode="&#xe1d;&#xe31;" horiz-adv-x="730" 
d="M760 692q-69 -20 -137 -26v-461q0 -216 -142 -216q-110 0 -124 122q-20 -122 -128 -122q-64 0 -101.5 53t-37.5 165v96q0 149 36 208t110 59q31 0 57 -13l-8 -33q-24 8 -45 8q-51 0 -77.5 -52t-26.5 -177v-95q0 -179 99 -179q98 0 98 150v120l46 5v-126q0 -149 97 -149
q101 0 101 175v458q-11 -1 -29 -1q-65 0 -96 18.5t-31 60.5q0 22 8 51h37q-6 -21 -6 -44q0 -28 20 -40t75 -12q14 0 22 1v84l46 -6v-75q71 9 129 25z" />
    <glyph glyph-name="uni0E1D0E49" unicode="&#xe1d;&#xe49;" horiz-adv-x="730" 
d="M577 780l46 -6v-569q0 -216 -142 -216q-110 0 -124 122q-20 -122 -128 -122q-64 0 -101.5 53t-37.5 165v96q0 149 36 208t110 59q31 0 57 -13l-8 -33q-24 8 -45 8q-51 0 -77.5 -52t-26.5 -177v-95q0 -179 99 -179q98 0 98 150v120l46 5v-126q0 -149 97 -149
q101 0 101 175v526q-38 -38 -98 -54t-160 -18l-10 17q30 39 30 68q0 47 -49 47q-19 0 -37 -5l-4 30q24 8 49 8q35 0 58 -18.5t23 -53.5q0 -32 -20 -60q86 3 135.5 23.5t81.5 65.5h1z" />
    <glyph glyph-name="uni0E1D0E4A" unicode="&#xe1d;&#xe4a;" horiz-adv-x="730" 
d="M577 780l46 -6v-569q0 -216 -142 -216q-110 0 -124 122q-20 -122 -128 -122q-64 0 -101.5 53t-37.5 165v96q0 149 36 208t110 59q31 0 57 -13l-8 -33q-24 8 -45 8q-51 0 -77.5 -52t-26.5 -177v-95q0 -179 99 -179q98 0 98 150v120l46 5v-126q0 -149 97 -149
q101 0 101 175v516q-46 -59 -143 -59q-21 0 -33 2q8 29 8 66q0 61 -50 61q-28 0 -45 -24t-17 -64v-24l-39 -4v28q0 41 -15 64.5t-44 23.5q-51 0 -51 -62q0 -27 8 -65h-37q-10 28 -10 67q0 42 22.5 67.5t63.5 25.5q67 0 83 -70q5 28 26 49t60 21q40 0 62 -24.5t22 -62.5
q0 -22 -7 -46q99 2 136 90z" />
    <glyph glyph-name="uni0E1D0E4B" unicode="&#xe1d;&#xe4b;" horiz-adv-x="730" 
d="M407 663l1 68l-77 -1l4 33h73l-1 58l39 5v-63h73v-33l-73 1v-68h-39zM577 780l46 -6v-569q0 -216 -142 -216q-110 0 -124 122q-20 -122 -128 -122q-64 0 -101.5 53t-37.5 165v96q0 149 36 208t110 59q31 0 57 -13l-8 -33q-24 8 -45 8q-51 0 -77.5 -52t-26.5 -177v-95
q0 -179 99 -179q98 0 98 150v120l46 5v-126q0 -149 97 -149q101 0 101 175v576z" />
    <glyph glyph-name="uni0E1D0E4C" unicode="&#xe1d;&#xe4c;" horiz-adv-x="730" 
d="M713 746v-34h-90v-507q0 -216 -142 -216q-110 0 -124 122q-20 -122 -128 -122q-64 0 -101.5 53t-37.5 165v96q0 149 36 208t110 59q31 0 57 -13l-8 -33q-24 8 -45 8q-51 0 -77.5 -52t-26.5 -177v-95q0 -179 99 -179q98 0 98 150v120l46 5v-126q0 -149 97 -149
q101 0 101 175v508h-71q-26 0 -37 -12t-11 -37q0 -20 3 -41h-39q-4 28 -4 48q0 76 85 76h74v34l46 -6v-28h90z" />
    <glyph glyph-name="uni0E1D0E4D" unicode="&#xe1d;&#xe4d;" horiz-adv-x="730" 
d="M434 659q-38 0 -61.5 23t-23.5 60q0 38 23.5 61t61.5 23t62 -23.5t24 -60.5t-24 -60t-62 -23zM434 794q-48 0 -48 -52q0 -51 48 -51q49 0 49 51q0 52 -49 52zM577 780l46 -6v-569q0 -216 -142 -216q-110 0 -124 122q-20 -122 -128 -122q-64 0 -101.5 53t-37.5 165v96
q0 149 36 208t110 59q31 0 57 -13l-8 -33q-24 8 -45 8q-51 0 -77.5 -52t-26.5 -177v-95q0 -179 99 -179q98 0 98 150v120l46 5v-126q0 -149 97 -149q101 0 101 175v576z" />
    <glyph glyph-name="uni0E1F0E31" unicode="&#xe1f;&#xe31;" horiz-adv-x="764" 
d="M864 692q-74 -21 -154 -28l-19 -103l-103 -561h-57l-151 511l-152 -511h-55l-70 403q-19 104 -59 155l41 10q43 -46 61 -162l59 -362l150 517h51l152 -517l89 517l18 100h-13q-65 0 -96 18.5t-31 60.5q0 25 7 51h38q-7 -25 -7 -44q0 -28 20 -40t75 -12h13l15 85h45
l-15 -82q81 10 140 26z" />
    <glyph glyph-name="uni0E1F0E49" unicode="&#xe1f;&#xe49;" horiz-adv-x="754" 
d="M686 780h45l-40 -219l-103 -561h-57l-151 511l-152 -511h-55l-70 403q-19 104 -59 155l41 10q43 -46 61 -162l59 -362l150 517h51l152 -517l89 517l16 92q8 42 15 71q-70 -63 -244 -66l-10 17q30 41 30 68q0 48 -49 48q-9 0 -37 -5l-4 29q24 8 49 8q35 0 58 -18.5
t23 -54.5q0 -31 -20 -59q80 3 129.5 23.5t82.5 65.5z" />
    <glyph glyph-name="uni0E1F0E4A" unicode="&#xe1f;&#xe4a;" horiz-adv-x="754" 
d="M686 780h45l-40 -219l-103 -561h-57l-151 511l-152 -511h-55l-70 403q-19 104 -59 155l41 10q43 -46 61 -162l59 -362l150 517h51l152 -517l89 517l15 85q5 29 14 62q-43 -47 -129 -47q-21 0 -33 2q8 29 8 66q0 61 -50 61q-28 0 -45 -24t-17 -64v-24l-39 -4v28
q0 41 -15 64.5t-44 23.5q-51 0 -51 -62q0 -27 8 -65h-37q-10 28 -10 67q0 42 22.5 67.5t63.5 25.5q67 0 83 -70q5 28 26 49t60 21q40 0 62 -24.5t22 -62.5q0 -22 -7 -46q97 2 132 90z" />
    <glyph glyph-name="uni0E1F0E4B" unicode="&#xe1f;&#xe4b;" horiz-adv-x="754" 
d="M509 663l1 68l-77 -1l4 33h73l-1 58l39 5v-63h73v-33l-73 1v-68h-39zM686 780h45l-40 -219l-103 -561h-57l-151 511l-152 -511h-55l-70 403q-19 104 -59 155l41 10q43 -46 61 -162l59 -362l150 517h51l152 -517l89 517z" />
    <glyph glyph-name="uni0E1F0E4C" unicode="&#xe1f;&#xe4c;" horiz-adv-x="764" 
d="M817 746v-34h-98l-28 -151l-103 -561h-57l-151 511l-152 -511h-55l-70 403q-19 104 -59 155l41 10q43 -46 61 -162l59 -362l150 517h51l152 -517l89 517l27 151h-64q-27 0 -37.5 -11.5t-10.5 -37.5q0 -20 3 -41h-39q-4 28 -4 48q0 76 85 76h73l6 34h45l-6 -34h92z" />
    <glyph glyph-name="uni0E1F0E4D" unicode="&#xe1f;&#xe4d;" horiz-adv-x="754" 
d="M536 659q-38 0 -61.5 23t-23.5 60q0 38 23.5 61t61.5 23t62 -23.5t24 -60.5t-24 -60t-62 -23zM536 794q-48 0 -48 -52q0 -51 48 -51q49 0 49 51q0 52 -49 52zM686 780h45l-40 -219l-103 -561h-57l-151 511l-152 -511h-55l-70 403q-19 104 -59 155l41 10q43 -46 61 -162
l59 -362l150 517h51l152 -517l89 517z" />
    <glyph glyph-name="uni0E310E4A" unicode="&#xe31;&#xe4a;" 
d="M-63 974l33 -9q-28 -65 -70 -91t-102 -26q-20 0 -30 2q7 28 7 60q0 54 -45 54q-25 0 -40.5 -21.5t-15.5 -56.5v-23l-35 -3v26q0 36 -13.5 57t-39.5 21q-46 0 -46 -55q0 -25 8 -59h-34q-9 23 -9 60q0 38 20.5 61t57.5 23q60 0 74 -63q5 25 23.5 44t53.5 19
q37 0 56.5 -21.5t19.5 -56.5q0 -21 -7 -42q96 2 134 100zM-358 696q90 0 186 34l9 -34q-104 -36 -201 -36q-64 0 -94.5 18.5t-30.5 63.5q0 27 8 49h38q-7 -25 -7 -44q0 -28 19.5 -39.5t72.5 -11.5z" />
    <glyph glyph-name="uni0620.init" unicode="&#x620;" horiz-adv-x="261" 
d="M159 40q23 -8 37 -27t14 -45q0 -33 -21.5 -55t-56.5 -22q-34 0 -56 22.5t-22 54.5q0 19 8 35q-27 -3 -62 -3l-20 23l24 22q91 0 120.5 26.5t29.5 93.5q0 88 -43 209l44 14q40 -120 40 -225q0 -88 -36 -123zM132 -80q24 0 36.5 13t12.5 35q0 21 -13.5 33.5t-35.5 12.5
t-35.5 -12.5t-13.5 -33.5q0 -22 13 -35t36 -13z" />
    <glyph glyph-name="uni0620.medi" unicode="&#x620;" horiz-adv-x="320" 
d="M320 0q-123 0 -159 89q-11 -27 -27 -45q25 -7 40.5 -27t15.5 -47q0 -32 -21.5 -54t-56.5 -22q-33 0 -55.5 22t-22.5 54q0 19 7 32q-26 -2 -41 -2l-20 23l25 22q75 0 104 30t29 91v149h43v-149q0 -121 143 -121l16 -22zM161 -30q0 22 -13.5 34.5t-35.5 12.5t-35.5 -12.5
t-13.5 -34.5q0 -21 13 -34t36 -13q24 0 36.5 12.5t12.5 34.5z" />
    <glyph glyph-name="uni0620.fina" unicode="&#x620;" horiz-adv-x="717" 
d="M737 23l-20 -23q-53 0 -102 22q12 -18 12 -41q0 -65 -68.5 -115t-196.5 -61q17 -20 17 -49q0 -32 -21.5 -54t-56.5 -22q-34 0 -56.5 22t-22.5 54q0 30 19 51q-185 27 -185 217q0 91 40 179l32 -10q-31 -80 -31 -164q0 -180 207 -180q135 0 209.5 42t74.5 94
q0 28 -34.5 49t-145.5 57l19 39q42 -14 92.5 -33t75.5 -28.5t58.5 -16.5t67.5 -7zM301 -291q23 0 36 12.5t13 34.5t-13.5 34.5t-35.5 12.5t-35.5 -12.5t-13.5 -34.5q0 -21 13 -34t36 -13z" />
    <glyph glyph-name="uni063B.init" unicode="&#x63b;" horiz-adv-x="457" 
d="M6 737q0 -12 -8 -20.5t-20 -8.5t-20.5 8.5t-8.5 20.5q0 11 8.5 20t20.5 9t20 -8.5t8 -20.5zM110 708q-12 0 -20 8.5t-8 20.5t8 20.5t20 8.5t20.5 -9t8.5 -20q0 -12 -8.5 -20.5t-20.5 -8.5zM401 750l-4 -48l-346 -231q155 -66 219 -127t64 -135q0 -104 -89 -156.5
t-245 -52.5l-20 23l24 22q289 0 289 167q0 59 -65 115.5t-224 120.5l9 42z" />
    <glyph glyph-name="uni063B.medi" unicode="&#x63b;" horiz-adv-x="541" 
d="M25 708q-12 0 -20.5 8.5t-8.5 20.5q0 11 8.5 20t20.5 9t20 -8.5t8 -20.5t-8 -20.5t-20 -8.5zM157 708q-12 0 -20 8.5t-8 20.5t8 20.5t20 8.5t20.5 -9t8.5 -20q0 -12 -8.5 -20.5t-20.5 -8.5zM545 45l16 -21l-20 -24q-82 0 -142 43t-153 171q2 -10 2 -27q0 -87 -63 -137
t-185 -50l-20 23l24 22q104 0 155 39.5t51 110.5q0 63 -50 125l-104 128l10 42l387 260l-2 -48l-355 -236l157 -195q84 -106 121.5 -146t76.5 -60t94 -20z" />
    <glyph glyph-name="uni063B.fina" unicode="&#x63b;" horiz-adv-x="978" 
d="M456 708q-12 0 -20.5 8.5t-8.5 20.5q0 11 8.5 20t20.5 9t20 -8.5t8 -20.5t-8 -20.5t-20 -8.5zM588 708q-12 0 -20 8.5t-8 20.5t8 20.5t20 8.5t20.5 -9t8.5 -20q0 -12 -8.5 -20.5t-20.5 -8.5zM982 45l16 -21l-20 -24q-82 0 -142 43t-154 171q2 -10 2 -27q0 -96 -80 -147.5
t-274 -52.5q-143 0 -208.5 45t-65.5 138q0 78 36 151l32 -11q-27 -67 -27 -135q0 -74 56 -108t182 -34q120 0 191 21.5t96 55t25 85.5q0 61 -50 125l-104 128l9 42l389 260l-4 -48l-355 -236l157 -195q119 -149 167 -187.5t126 -38.5z" />
    <glyph glyph-name="uni063C.init" unicode="&#x63c;" horiz-adv-x="457" 
d="M401 750l-4 -48l-346 -231q155 -66 219 -127t64 -135q0 -104 -89 -156.5t-245 -52.5l-20 23l24 22q289 0 289 167q0 59 -65 115.5t-224 120.5l9 42zM155 -138q1 0 1 -2h-1h-2q0 2 2 2zM83 -169q2 0 2 -2q-1 -1 -2 -1l-1 1q0 2 1 2zM152 -207q1 0 1 -2q0 -1 -1 -1l-2 1
q0 2 2 2z" />
    <glyph glyph-name="uni063C.medi" unicode="&#x63c;" horiz-adv-x="541" 
d="M545 45l16 -21l-20 -24q-82 0 -142 43t-153 171q2 -10 2 -27q0 -87 -63 -137t-185 -50l-20 23l24 22q104 0 155 39.5t51 110.5q0 63 -50 125l-104 128l10 42l387 260l-2 -48l-355 -236l157 -195q84 -106 121.5 -146t76.5 -60t94 -20zM300 -138q1 0 1 -2h-1h-2q0 2 2 2z
M228 -169q2 0 2 -2q-1 -1 -2 -1l-1 1q0 2 1 2zM297 -207q1 0 1 -2q0 -1 -1 -1l-2 1q0 2 2 2z" />
    <glyph glyph-name="uni063C.fina" unicode="&#x63c;" horiz-adv-x="978" 
d="M982 45l16 -21l-20 -24q-82 0 -142 43t-154 171q2 -10 2 -27q0 -96 -80 -147.5t-274 -52.5q-143 0 -208.5 45t-65.5 138q0 78 36 151l32 -11q-27 -67 -27 -135q0 -74 56 -108t182 -34q120 0 191 21.5t96 55t25 85.5q0 61 -50 125l-104 128l9 42l389 260l-4 -48l-355 -236
l157 -195q119 -149 167 -187.5t126 -38.5zM397 -138q1 0 1 -2h-1h-2q0 2 2 2zM325 -169q2 0 2 -2q-1 -1 -2 -1l-1 1q0 2 1 2zM394 -207q1 0 1 -2q0 -1 -1 -1l-2 1q0 2 2 2z" />
    <glyph glyph-name="uni066E.init" unicode="&#x66e;" horiz-adv-x="261" 
d="M4 45q91 0 120.5 26.5t29.5 93.5q0 88 -43 209l44 14q40 -120 40 -225q0 -91 -40.5 -127t-154.5 -36l-20 23z" />
    <glyph glyph-name="uni066E.medi" unicode="&#x66e;" horiz-adv-x="320" 
d="M324 45l16 -22l-20 -23q-123 0 -159 89q-33 -89 -161 -89l-20 23l25 22q75 0 104 30t29 91v149h43v-149q0 -121 143 -121z" />
    <glyph glyph-name="uni066E.fina" unicode="&#x66e;" horiz-adv-x="896" 
d="M900 45l16 -21l-20 -24q-110 0 -158 84q-146 -97 -408 -97q-143 0 -208.5 45t-65.5 138q0 78 36 151l32 -11q-27 -67 -27 -135q0 -74 56 -108t181 -34q256 0 387 91v191h41v-157q0 -113 138 -113z" />
    <glyph glyph-name="uni066F.init" unicode="&#x66f;" horiz-adv-x="454" 
d="M211 538q79 0 128 -69.5t49 -194.5q0 -74 -16 -122t-58 -84t-118.5 -52t-195.5 -16l-20 24l24 21q103 0 170 11t103.5 35.5t51.5 55.5t19 78q-46 -40 -128 -40q-81 0 -130 47.5t-49 122.5q0 74 49 128.5t121 54.5zM233 227q65 0 116 30v11q0 111 -37 168t-102 57
q-56 0 -92.5 -40t-36.5 -96q0 -60 39.5 -95t112.5 -35z" />
    <glyph glyph-name="uni066F.medi" unicode="&#x66f;" horiz-adv-x="488" 
d="M492 45l16 -22l-20 -23h-33q-106 0 -204 46q-99 -46 -224 -46h-27l-20 23l24 22h28q98 0 173 26q-125 78 -125 193q0 78 48 134t116 56q78 0 125.5 -55.5t47.5 -136.5q0 -52 -32 -102.5t-90 -88.5q76 -26 160 -26h37zM120 264q0 -110 131 -175q60 30 93 74.5t33 98.5
q0 64 -35.5 105t-95.5 41q-55 0 -90.5 -41t-35.5 -103z" />
    <glyph glyph-name="uni066F.fina" unicode="&#x66f;" horiz-adv-x="758" 
d="M778 23l-20 -23h-104q-13 -117 -81 -179t-222 -62q-162 0 -228.5 57.5t-66.5 163.5q0 89 40 179l32 -11q-31 -80 -31 -164q0 -86 57.5 -133t201.5 -47q71 0 121 14.5t78 42.5t41.5 61t18.5 78h-97q-97 0 -152 48.5t-55 124.5q0 75 49 129t121 54q80 0 128.5 -70.5
t48.5 -200.5q0 -27 -1 -40h105zM351 176q0 -60 44 -95.5t123 -35.5h100q1 11 1 34q0 116 -36.5 174t-102.5 58q-56 0 -92.5 -39.5t-36.5 -95.5z" />
    <glyph glyph-name="uni0676.fina" unicode="&#x676;" horiz-adv-x="523" 
d="M212 519l-3 28l70 12q-51 35 -51 77q0 34 24 56t69 22q33 0 65 -18l-16 -26q-29 15 -51 15q-31 0 -46 -14.5t-15 -34.5q0 -37 55 -72l88 15l4 -29zM543 23l-20 -23h-110q-23 -100 -105.5 -163t-238.5 -89l-13 44q142 24 217.5 75.5t97.5 132.5h-87q-101 0 -155 46.5
t-54 123.5q0 74 49 128.5t121 54.5q79 0 128 -69t49 -192q0 -17 -2 -47h107zM115 173q0 -128 176 -128h89q2 28 2 42q0 108 -36.5 164.5t-101.5 56.5q-56 0 -92.5 -40t-36.5 -95z" />
    <glyph glyph-name="uni0677.fina" unicode="&#x677;" horiz-adv-x="523" 
d="M176 629l-12 26q53 19 90 47q-73 24 -73 81q0 35 22.5 55.5t53.5 20.5q36 0 55 -22t19 -56q0 -43 -42.5 -84.5t-112.5 -67.5zM209 782q0 -42 67 -61q27 29 27 58q0 21 -12 35.5t-35 14.5q-20 0 -33.5 -13t-13.5 -34zM347 445l-193 -32l-4 29l70 11q-51 37 -51 78
q0 33 24 55t69 22q33 0 65 -17l-15 -26q-28 14 -52 14q-60 0 -60 -49q0 -36 54 -71l89 14zM543 23l-20 -23h-110q-23 -100 -105.5 -163t-238.5 -89l-13 44q142 24 217.5 75.5t97.5 132.5h-87q-101 0 -155 46.5t-54 123.5q0 74 49 128.5t121 54.5q79 0 128 -69t49 -192
q0 -17 -2 -47h107zM115 173q0 -128 176 -128h89q2 28 2 42q0 108 -36.5 164.5t-101.5 56.5q-56 0 -92.5 -40t-36.5 -95z" />
    <glyph glyph-name="uni0678.init" unicode="&#x678;" horiz-adv-x="261" 
d="M247 619l4 -29l-193 -31l-4 28l71 12q-52 36 -52 77q0 33 24.5 55.5t69.5 22.5q33 0 64 -18l-15 -26q-28 15 -51 15q-31 0 -46 -14.5t-15 -34.5q0 -37 54 -72zM4 45q91 0 120.5 26.5t29.5 93.5q0 88 -43 209l44 14q40 -120 40 -225q0 -91 -40.5 -127t-154.5 -36l-20 23z
" />
    <glyph glyph-name="uni0678.medi" unicode="&#x678;" horiz-adv-x="320" 
d="M101 489l-3 28l70 12q-51 35 -51 77q0 34 24 56t69 22q34 0 65 -18l-16 -26q-29 15 -51 15q-31 0 -46 -14.5t-15 -34.5q0 -37 55 -72l88 15l4 -29zM324 45l16 -22l-20 -23q-123 0 -159 89q-33 -89 -161 -89l-20 23l25 22q75 0 104 30t29 91v149h43v-149q0 -121 143 -121z
" />
    <glyph glyph-name="uni0678.fina" unicode="&#x678;" horiz-adv-x="717" 
d="M386 270l-4 28l70 12q-51 35 -51 77q0 33 24.5 55.5t68.5 22.5q34 0 65 -18l-15 -26q-29 15 -51 15q-32 0 -46.5 -14t-14.5 -35q0 -37 54 -72l89 15l4 -29zM737 23l-20 -23q-53 0 -102 22q12 -18 12 -41q0 -73 -85 -125.5t-242 -52.5q-126 0 -185 59t-59 162q0 91 40 179
l32 -10q-31 -80 -31 -164q0 -180 207 -180q135 0 209.5 42t74.5 94q0 28 -34.5 49t-145.5 57l19 39q42 -14 92.5 -33t75.5 -28.5t58.5 -16.5t67.5 -7z" />
    <glyph glyph-name="uni067C.init" unicode="&#x67c;" horiz-adv-x="270" 
d="M52 493q-12 0 -20.5 8.5t-8.5 20.5q0 11 8.5 20t20.5 9t20 -8.5t8 -20.5t-8 -20.5t-20 -8.5zM184 551q12 0 20.5 -9t8.5 -20q0 -12 -8.5 -20.5t-20.5 -8.5t-20 8.5t-8 20.5t8 20.5t20 8.5zM195 163q0 -95 -44 -130q39 -19 39 -67q0 -33 -21.5 -54.5t-56.5 -21.5
q-34 0 -56 22t-22 54q0 19 8 35q-13 -1 -42 -1l-20 23l24 22q91 0 120.5 26.5t29.5 93.5q0 88 -43 209l44 14q40 -120 40 -225zM112 13h-1q-9 -3 -27 -7q-21 -11 -21 -40q0 -21 13 -34t36 -13q24 0 36.5 12.5t12.5 34.5t-13.5 34.5t-35.5 12.5z" />
    <glyph glyph-name="uni067C.medi" unicode="&#x67c;" horiz-adv-x="320" 
d="M94 420q-12 0 -20.5 8.5t-8.5 20.5q0 11 8.5 20t20.5 9t20 -8.5t8 -20.5t-8 -20.5t-20 -8.5zM226 420q-12 0 -20 8.5t-8 20.5t8 20.5t20 8.5t20.5 -9t8.5 -20q0 -12 -8.5 -20.5t-20.5 -8.5zM324 45l16 -22l-20 -23q-123 0 -159 89q-11 -28 -28 -45q25 -8 40 -28t15 -46
q0 -32 -21.5 -54t-56.5 -22q-34 0 -56.5 22t-22.5 54q0 18 7 32q-24 -2 -38 -2l-20 23l25 22q75 0 104 30t29 91v149h43v-149q0 -121 143 -121zM159 -30q0 22 -13.5 34.5t-35.5 12.5t-35.5 -12.5t-13.5 -34.5q0 -21 13 -34t36 -13q24 0 36.5 12.5t12.5 34.5z" />
    <glyph glyph-name="uni067C.fina" unicode="&#x67c;" horiz-adv-x="896" 
d="M348 399q-12 0 -20.5 8.5t-8.5 20.5q0 11 8.5 20t20.5 9t20 -8.5t8 -20.5t-8 -20.5t-20 -8.5zM480 399q-12 0 -20 8.5t-8 20.5t8 20.5t20 8.5t20.5 -9t8.5 -20q0 -12 -8.5 -20.5t-20.5 -8.5zM900 45l16 -21l-20 -24q-110 0 -158 84q-125 -82 -322 -94q17 -20 17 -50
q0 -33 -21.5 -54.5t-56.5 -21.5q-34 0 -56.5 22t-22.5 54q0 27 16 48q-123 6 -179.5 50.5t-56.5 131.5q0 78 36 151l32 -11q-27 -67 -27 -135q0 -74 56 -108t181 -34q256 0 387 91v191h41v-157q0 -113 138 -113zM355 -107q23 0 36 12.5t13 34.5t-13.5 34.5t-35.5 12.5
t-35.5 -12.5t-13.5 -34.5q0 -21 13 -34t36 -13z" />
    <glyph glyph-name="uni067D.init" unicode="&#x67d;" horiz-adv-x="261" 
d="M143 600l-2 1q0 2 2 2q1 0 1 -2q0 -1 -1 -1zM71 569q-1 0 -1 1t1 1q2 0 2 -1t-2 -1zM140 530q-2 0 -2 2t2 2q1 0 1 -2t-1 -2zM4 45q91 0 120.5 26.5t29.5 93.5q0 88 -43 209l44 14q40 -120 40 -225q0 -91 -40.5 -127t-154.5 -36l-20 23z" />
    <glyph glyph-name="uni067D.medi" unicode="&#x67d;" horiz-adv-x="320" 
d="M186 528q0 -1 -1 -1l-2 1q0 2 2 2q1 0 1 -2zM113 496q-1 0 -1 1t1 1q2 0 2 -1t-2 -1zM182 457q-2 0 -2 2t2 2q1 0 1 -2t-1 -2zM324 45l16 -22l-20 -23q-123 0 -159 89q-33 -89 -161 -89l-20 23l25 22q75 0 104 30t29 91v149h43v-149q0 -121 143 -121z" />
    <glyph glyph-name="uni067D.fina" unicode="&#x67d;" horiz-adv-x="896" 
d="M440 507q0 -1 -1 -1l-2 1q0 2 2 2q1 0 1 -2zM367 475q-1 0 -1 1t1 1q2 0 2 -1t-2 -1zM436 436q-2 0 -2 2t2 2q1 0 1 -2t-1 -2zM900 45l16 -21l-20 -24q-110 0 -158 84q-146 -97 -408 -97q-143 0 -208.5 45t-65.5 138q0 78 36 151l32 -11q-27 -67 -27 -135q0 -74 56 -108
t181 -34q256 0 387 91v191h41v-157q0 -113 138 -113z" />
    <glyph glyph-name="uni0681.init" unicode="&#x681;" horiz-adv-x="691" 
d="M125 486l-4 29l71 11q-52 35 -52 78q0 33 24 55t69 22q33 0 65 -17l-15 -26q-28 14 -52 14q-60 0 -60 -49q0 -38 55 -71l88 14l4 -28zM220 432q53 0 93.5 -17t71.5 -44.5t62 -56.5t82 -59.5t116 -48.5l-7 -40l-53 -5q-70 -3 -136.5 -20.5t-119 -40.5t-103.5 -46
t-109 -38.5t-117 -15.5l-20 23l24 24q66 0 136 22t123.5 49t134.5 52t164 30q-50 18 -92 44.5t-68 50t-52 45t-58.5 34t-73.5 12.5q-57 0 -116 -35l-22 40q69 41 140 41z" />
    <glyph glyph-name="uni0681.medi" unicode="&#x681;" horiz-adv-x="733" 
d="M125 487l-4 29l71 11q-52 35 -52 78q0 33 24 55t69 22q33 0 65 -17l-15 -26q-28 14 -52 14q-60 0 -60 -49q0 -38 55 -71l88 14l4 -28zM737 45l16 -22l-20 -23q-203 0 -234 189q-55 -14 -123 -47.5t-119.5 -63.5t-121.5 -54t-135 -24l-20 23l24 22q66 0 138 26.5t126 59
t130 63.5t148 39q-59 19 -107.5 48t-74.5 51t-63 38.5t-82 16.5q-57 0 -120 -34l-21 39q73 40 141 40q50 0 87.5 -13.5t67 -35.5t60 -46.5t82.5 -51.5t118 -44l-6 -40l-51 -1q-28 -2 -44 -4q18 -85 67.5 -118t136.5 -33z" />
    <glyph glyph-name="uni0681.fina" unicode="&#x681;" horiz-adv-x="687" 
d="M130 486l-4 29l71 11q-52 35 -52 78q0 33 24 55t69 22q33 0 65 -17l-15 -26q-28 14 -52 14q-60 0 -60 -49q0 -38 55 -71l88 14l4 -28zM459 202q-172 -21 -261 -94t-89 -188q0 -100 72 -162t208 -62q125 0 215 46l17 -40q-93 -52 -236 -52q-154 0 -234.5 74t-80.5 191
q0 144 112 229.5t322 98.5q-46 18 -87.5 45.5t-65 47.5t-57 35t-71.5 15q-65 0 -123 -35l-21 40q68 41 147 41q42 0 77.5 -14.5t63.5 -37.5t57 -47.5t72.5 -48t95.5 -35.5l-5 -40l-46 -1l-47 -3q17 -91 64 -125.5t134 -34.5l15 -22l-20 -23q-98 0 -155.5 47.5t-72.5 154.5z
" />
    <glyph glyph-name="uni0682.init" unicode="&#x682;" horiz-adv-x="691" 
d="M220 623q-12 0 -20.5 8t-8.5 21q0 12 8.5 20.5t20.5 8.5q11 0 19.5 -8.5t8.5 -20.5t-8 -20.5t-20 -8.5zM220 492q-12 0 -20.5 8.5t-8.5 20.5q0 13 8.5 21t20.5 8t20 -8t8 -21q0 -12 -8.5 -20.5t-19.5 -8.5zM220 432q53 0 93.5 -17t71.5 -44.5t62 -56.5t82 -59.5
t116 -48.5l-7 -40l-53 -5q-70 -3 -136.5 -20.5t-119 -40.5t-103.5 -46t-109 -38.5t-117 -15.5l-20 23l24 24q66 0 136 22t123.5 49t134.5 52t164 30q-50 18 -92 44.5t-68 50t-52 45t-58.5 34t-73.5 12.5q-57 0 -116 -35l-22 40q69 41 140 41z" />
    <glyph glyph-name="uni0682.medi" unicode="&#x682;" horiz-adv-x="733" 
d="M221 624q-12 0 -20.5 8t-8.5 21q0 12 8.5 20.5t20.5 8.5q11 0 19.5 -8.5t8.5 -20.5q0 -13 -8.5 -21t-19.5 -8zM221 493q-12 0 -20.5 8.5t-8.5 20.5q0 13 8.5 21t20.5 8q11 0 19.5 -8.5t8.5 -20.5t-8.5 -20.5t-19.5 -8.5zM737 45l16 -22l-20 -23q-203 0 -234 189
q-55 -14 -123 -47.5t-119.5 -63.5t-121.5 -54t-135 -24l-20 23l24 22q66 0 138 26.5t126 59t130 63.5t148 39q-59 19 -107.5 48t-74.5 51t-63 38.5t-82 16.5q-57 0 -120 -34l-21 39q73 40 141 40q50 0 87.5 -13.5t67 -35.5t60 -46.5t82.5 -51.5t118 -44l-6 -40l-51 -1
q-28 -2 -44 -4q18 -85 67.5 -118t136.5 -33z" />
    <glyph glyph-name="uni0682.fina" unicode="&#x682;" horiz-adv-x="687" 
d="M225 623q-12 0 -20.5 8t-8.5 21q0 12 8.5 20.5t20.5 8.5q11 0 19.5 -8.5t8.5 -20.5t-8.5 -20.5t-19.5 -8.5zM225 492q-12 0 -20.5 8.5t-8.5 20.5q0 13 8.5 21t20.5 8q11 0 19.5 -8t8.5 -21q0 -12 -8.5 -20.5t-19.5 -8.5zM459 202q-172 -21 -261 -94t-89 -188
q0 -100 72 -162t208 -62q125 0 215 46l17 -40q-93 -52 -236 -52q-154 0 -234.5 74t-80.5 191q0 144 112 229.5t322 98.5q-46 18 -87.5 45.5t-65 47.5t-57 35t-71.5 15q-65 0 -123 -35l-21 40q68 41 147 41q42 0 77.5 -14.5t63.5 -37.5t57 -47.5t72.5 -48t95.5 -35.5l-5 -40
l-46 -1l-47 -3q17 -91 64 -125.5t134 -34.5l15 -22l-20 -23q-98 0 -155.5 47.5t-72.5 154.5z" />
    <glyph glyph-name="uni0685.init" unicode="&#x685;" horiz-adv-x="691" 
d="M220 593q-11 0 -19.5 8t-8.5 20q0 11 8.5 19.5t19.5 8.5t19.5 -8.5t8.5 -19.5q0 -12 -8.5 -20t-19.5 -8zM152 492q-12 0 -20.5 8.5t-8.5 19.5t8.5 19t20.5 8q11 0 19.5 -8t8.5 -19t-8.5 -19.5t-19.5 -8.5zM288 492q-11 0 -19.5 8.5t-8.5 19.5t8.5 19t19.5 8q12 0 20.5 -8
t8.5 -19t-8.5 -19.5t-20.5 -8.5zM220 432q53 0 93.5 -17t71.5 -44.5t62 -56.5t82 -59.5t116 -48.5l-7 -40l-53 -5q-70 -3 -136.5 -20.5t-119 -40.5t-103.5 -46t-109 -38.5t-117 -15.5l-20 23l24 24q66 0 136 22t123.5 49t134.5 52t164 30q-50 18 -92 44.5t-68 50t-52 45
t-58.5 34t-73.5 12.5q-57 0 -116 -35l-22 40q69 41 140 41z" />
    <glyph glyph-name="uni0685.medi" unicode="&#x685;" horiz-adv-x="733" 
d="M220 594q-11 0 -19.5 8t-8.5 20q0 11 8.5 19.5t19.5 8.5t19.5 -8.5t8.5 -19.5q0 -12 -8.5 -20t-19.5 -8zM152 493q-12 0 -20.5 8.5t-8.5 19.5t8.5 19t20.5 8q11 0 19.5 -8t8.5 -19t-8.5 -19.5t-19.5 -8.5zM288 493q-11 0 -19.5 8.5t-8.5 19.5t8.5 19t19.5 8q12 0 20.5 -8
t8.5 -19t-8.5 -19.5t-20.5 -8.5zM737 45l16 -22l-20 -23q-203 0 -234 189q-55 -14 -123 -47.5t-119.5 -63.5t-121.5 -54t-135 -24l-20 23l24 22q66 0 138 26.5t126 59t130 63.5t148 39q-59 19 -107.5 48t-74.5 51t-63 38.5t-82 16.5q-57 0 -120 -34l-21 39q73 40 141 40
q50 0 87.5 -13.5t67 -35.5t60 -46.5t82.5 -51.5t118 -44l-6 -40l-51 -1q-28 -2 -44 -4q18 -85 67.5 -118t136.5 -33z" />
    <glyph glyph-name="uni0685.fina" unicode="&#x685;" horiz-adv-x="687" 
d="M225 593q-11 0 -19.5 8t-8.5 20q0 11 8.5 19.5t19.5 8.5t19.5 -8.5t8.5 -19.5q0 -12 -8.5 -20t-19.5 -8zM157 492q-12 0 -20.5 8.5t-8.5 19.5t8.5 19t20.5 8q11 0 19.5 -8t8.5 -19t-8.5 -19.5t-19.5 -8.5zM293 492q-11 0 -19.5 8.5t-8.5 19.5t8.5 19t19.5 8q12 0 20.5 -8
t8.5 -19t-8.5 -19.5t-20.5 -8.5zM459 202q-172 -21 -261 -94t-89 -188q0 -100 72 -162t208 -62q125 0 215 46l17 -40q-93 -52 -236 -52q-154 0 -234.5 74t-80.5 191q0 144 112 229.5t322 98.5q-46 18 -87.5 45.5t-65 47.5t-57 35t-71.5 15q-65 0 -123 -35l-21 40
q68 41 147 41q42 0 77.5 -14.5t63.5 -37.5t57 -47.5t72.5 -48t95.5 -35.5l-5 -40l-46 -1l-47 -3q17 -91 64 -125.5t134 -34.5l15 -22l-20 -23q-98 0 -155.5 47.5t-72.5 154.5z" />
    <glyph glyph-name="uni0689.fina" unicode="&#x689;" horiz-adv-x="513" 
d="M516 45l17 -22l-20 -23q-94 0 -130 80q-43 -64 -127 -84q23 -23 23 -55q0 -33 -21.5 -55t-56.5 -22q-34 0 -56.5 22t-22.5 55q0 28 17 48q-53 5 -112 25l14 45q73 -25 142 -25q119 0 185 77l-149 359l45 21l134 -347q21 -55 45.5 -77t72.5 -22zM201 -107q24 0 36.5 13
t12.5 35q0 21 -13.5 33.5t-35.5 12.5t-35.5 -12.5t-13.5 -33.5q0 -22 13 -35t36 -13z" />
    <glyph glyph-name="uni068A.fina" unicode="&#x68a;" horiz-adv-x="513" 
d="M516 45l17 -22l-20 -23q-94 0 -130 80q-63 -93 -203 -93q-74 0 -153 27l14 45q73 -25 142 -25q119 0 185 77l-149 359l45 21l134 -347q21 -55 45.5 -77t72.5 -22zM205 -111q13 0 22 -8.5t9 -21.5t-9 -22t-22 -9t-22 9t-9 22t9 21.5t22 8.5z" />
    <glyph glyph-name="uni068B.fina" unicode="&#x68b;" horiz-adv-x="513" 
d="M298 644q0 -30 -23 -53.5t-69 -23.5h-145l3 28h22q3 7 16 27v147h28v-107q47 59 96 59q32 0 52 -22t20 -55zM114 595h86q70 0 70 50q0 47 -47 47q-54 0 -109 -97zM516 45l17 -22l-20 -23q-94 0 -130 80q-63 -93 -203 -93q-74 0 -153 27l14 45q73 -25 142 -25
q119 0 185 77l-149 359l45 21l134 -347q21 -55 45.5 -77t72.5 -22zM205 -111q13 0 22 -8.5t9 -21.5t-9 -22t-22 -9t-22 9t-9 22t9 21.5t22 8.5z" />
    <glyph glyph-name="uni068F.fina" unicode="&#x68f;" horiz-adv-x="513" 
d="M206 708q0 -1 -1 -1l-2 1q0 2 2 2q1 0 1 -2zM133 676q-1 0 -1 1t1 1q2 0 2 -1t-2 -1zM202 637q-2 0 -2 2t2 2q1 0 1 -2t-1 -2zM516 45l17 -22l-20 -23q-94 0 -130 80q-63 -93 -203 -93q-74 0 -153 27l14 45q73 -25 142 -25q119 0 185 77l-149 359l45 21l134 -347
q21 -55 45.5 -77t72.5 -22z" />
    <glyph glyph-name="uni0690.fina" unicode="&#x690;" horiz-adv-x="513" 
d="M115 679q-12 0 -19.5 7.5t-7.5 18.5q0 12 7.5 20.5t19.5 8.5t20 -8.5t8 -20.5q0 -11 -8 -18.5t-20 -7.5zM245 679q-11 0 -19 7.5t-8 18.5q0 12 8 20.5t19 8.5q12 0 20 -8.5t8 -20.5q0 -11 -8 -18.5t-20 -7.5zM115 557q-12 0 -19.5 8t-7.5 19q0 12 7.5 20t19.5 8t20 -8
t8 -20q0 -11 -8 -19t-20 -8zM245 557q-11 0 -19 8t-8 19q0 12 8 20t19 8q12 0 20 -8t8 -20q0 -11 -8 -19t-20 -8zM516 45l17 -22l-20 -23q-94 0 -130 80q-63 -93 -203 -93q-74 0 -153 27l14 45q73 -25 142 -25q119 0 185 77l-149 359l45 21l134 -347q21 -55 45.5 -77
t72.5 -22z" />
    <glyph glyph-name="uni0692.fina" unicode="&#x692;" horiz-adv-x="371" 
d="M206 405h-29l-76 139l25 10l66 -113l66 113l25 -10zM376 45l15 -22l-20 -23q-76 0 -100 58q-6 -112 -73.5 -186t-205.5 -117l-18 43q138 43 199.5 112t61.5 165q0 93 -51 230l45 15q20 -67 35 -156q11 -63 37 -91t75 -28z" />
    <glyph glyph-name="uni0693.fina" unicode="&#x693;" horiz-adv-x="371" 
d="M376 45l15 -22l-20 -23q-76 0 -100 58q-8 -122 -88 -200q10 3 22 3q33 0 55.5 -22t22.5 -55q0 -32 -21.5 -54t-56.5 -22q-34 0 -56.5 22t-22.5 54q0 20 9 36q-57 -38 -143 -65l-18 43q138 43 199.5 112t61.5 165q0 93 -51 230l45 15q20 -67 35 -156q11 -63 37 -91t75 -28
zM254 -216q0 22 -13.5 34.5t-35.5 12.5t-35.5 -12.5t-13.5 -34.5q0 -21 13 -34t36 -13t36 12.5t13 34.5z" />
    <glyph glyph-name="uni0694.fina" unicode="&#x694;" horiz-adv-x="371" 
d="M376 45l15 -22l-20 -23q-76 0 -100 58q-6 -112 -73.5 -186t-205.5 -117l-18 43q138 43 199.5 112t61.5 165q0 93 -51 230l45 15q20 -67 35 -156q11 -63 37 -91t75 -28zM199 -281q13 0 22 -8.5t9 -21.5t-9 -22t-22 -9t-22 9t-9 22t9 21.5t22 8.5z" />
    <glyph glyph-name="uni0695.fina" unicode="&#x695;" horiz-adv-x="371" 
d="M376 45l15 -22l-20 -23q-76 0 -100 58q-6 -112 -73.5 -186t-205.5 -117l-18 43q138 43 199.5 112t61.5 165q0 93 -51 230l45 15q20 -67 35 -156q11 -63 37 -91t75 -28zM199 -352l66 114l25 -11l-77 -139h-29l-76 139l25 11z" />
    <glyph glyph-name="uni0696.fina" unicode="&#x696;" horiz-adv-x="371" 
d="M192 422q-13 0 -22 8.5t-9 21.5t9 22t22 9t22 -9t9 -22t-9 -21.5t-22 -8.5zM376 45l15 -22l-20 -23q-76 0 -100 58q-6 -112 -73.5 -186t-205.5 -117l-18 43q138 43 199.5 112t61.5 165q0 93 -51 230l45 15q20 -67 35 -156q11 -63 37 -91t75 -28zM199 -281q13 0 22 -8.5
t9 -21.5t-9 -22t-22 -9t-22 9t-9 22t9 21.5t22 8.5z" />
    <glyph glyph-name="uni0697.fina" unicode="&#x697;" horiz-adv-x="371" 
d="M126 450q-12 0 -20.5 8.5t-8.5 20.5q0 11 8.5 20t20.5 9t20 -8.5t8 -20.5t-8 -20.5t-20 -8.5zM258 450q-12 0 -20 8.5t-8 20.5t8 20.5t20 8.5t20.5 -9t8.5 -20q0 -12 -8.5 -20.5t-20.5 -8.5zM376 45l15 -22l-20 -23q-76 0 -100 58q-6 -112 -73.5 -186t-205.5 -117l-18 43
q138 43 199.5 112t61.5 165q0 93 -51 230l45 15q20 -67 35 -156q11 -63 37 -91t75 -28z" />
    <glyph glyph-name="uni0699.fina" unicode="&#x699;" horiz-adv-x="371" 
d="M127 529q-12 0 -19.5 7.5t-7.5 18.5q0 12 7.5 20.5t19.5 8.5t20 -8.5t8 -20.5q0 -11 -8 -18.5t-20 -7.5zM257 529q-11 0 -19 7.5t-8 18.5q0 12 8 20.5t19 8.5q12 0 20 -8.5t8 -20.5q0 -11 -8 -18.5t-20 -7.5zM127 407q-12 0 -19.5 8t-7.5 19q0 12 7.5 20t19.5 8t20 -8
t8 -20q0 -11 -8 -19t-20 -8zM257 407q-11 0 -19 8t-8 19q0 12 8 20t19 8q12 0 20 -8t8 -20q0 -11 -8 -19t-20 -8zM376 45l15 -22l-20 -23q-76 0 -100 58q-6 -112 -73.5 -186t-205.5 -117l-18 43q138 43 199.5 112t61.5 165q0 93 -51 230l45 15q20 -67 35 -156q11 -63 37 -91
t75 -28z" />
    <glyph glyph-name="uni069A.init" unicode="&#x69a;" horiz-adv-x="805" 
d="M449 392q-13 0 -22 8.5t-9 21.5t9 22t22 9t22 -9t9 -22t-9 -21.5t-22 -8.5zM699 387q40 -110 40 -218q0 -85 -39 -127t-111 -42q-50 0 -86 22t-51 61q-35 -83 -134 -83q-108 0 -137 81q-37 -81 -181 -81l-20 23l24 22q157 0 157 112v158h41v-147q0 -65 29.5 -94t87.5 -29
q53 0 81.5 31.5t28.5 90.5v148h42v-147q0 -123 121 -123q105 0 105 119q0 96 -39 209zM456 -111q13 0 22 -8.5t9 -21.5t-9 -22t-22 -9t-22 9t-9 22t9 21.5t22 8.5z" />
    <glyph glyph-name="uni069A.medi" unicode="&#x69a;" horiz-adv-x="925" 
d="M462 392q-13 0 -22 8.5t-9 21.5t9 22t22 9t22 -9t9 -22t-9 -21.5t-22 -8.5zM929 45l16 -22l-20 -23q-151 0 -181 80q-36 -80 -140 -80q-106 0 -140 82q-32 -82 -135 -82q-51 0 -88.5 22t-50.5 60q-38 -82 -190 -82l-20 23l25 22q164 0 164 112v158h42v-147
q0 -123 119 -123q112 0 112 122v148h42v-147q0 -123 121 -123q111 0 111 114v207h43v-189q0 -74 37.5 -103t132.5 -29zM463 -111q13 0 22 -8.5t9 -21.5t-9 -22t-22 -9t-22 9t-9 22t9 21.5t22 8.5z" />
    <glyph glyph-name="uni069A.fina" unicode="&#x69a;" horiz-adv-x="1299" 
d="M838 392q-13 0 -22 8.5t-9 21.5t9 22t22 9t22 -9t9 -22t-9 -21.5t-22 -8.5zM1303 45l16 -22l-20 -23q-151 0 -181 81q-35 -81 -141 -81q-102 0 -136 82q-31 -82 -134 -82q-77 0 -113 47q-3 -153 -73.5 -220.5t-220.5 -67.5q-126 0 -185 59t-59 162q0 89 40 179l32 -11
q-31 -80 -31 -164q0 -180 207 -180q136 0 192.5 58.5t56.5 190.5q0 81 -56 223l45 20q29 -93 42 -148q15 -54 44 -78.5t83 -24.5q107 0 107 122v148h42v-147q0 -123 119 -123q54 0 83 29t29 85l-1 197h43v-179q0 -74 37.5 -103t132.5 -29zM840 -111q13 0 22 -8.5t9 -21.5
t-9 -22t-22 -9t-21.5 9t-8.5 22t8.5 21.5t21.5 8.5z" />
    <glyph glyph-name="uni069B.init" unicode="&#x69b;" horiz-adv-x="805" 
d="M699 387q40 -110 40 -218q0 -85 -39 -127t-111 -42q-50 0 -86 22t-51 61q-35 -83 -134 -83q-108 0 -137 81q-37 -81 -181 -81l-20 23l24 22q157 0 157 112v158h41v-147q0 -65 29.5 -94t87.5 -29q53 0 81.5 31.5t28.5 90.5v148h42v-147q0 -123 121 -123q105 0 105 119
q0 96 -39 209zM481 -138q1 0 1 -2h-1h-2q0 2 2 2zM409 -169q2 0 2 -2q-1 -1 -2 -1l-1 1q0 2 1 2zM478 -207q1 0 1 -2q0 -1 -1 -1l-2 1q0 2 2 2z" />
    <glyph glyph-name="uni069B.medi" unicode="&#x69b;" horiz-adv-x="925" 
d="M929 45l16 -22l-20 -23q-151 0 -181 80q-36 -80 -140 -80q-106 0 -140 82q-32 -82 -135 -82q-51 0 -88.5 22t-50.5 60q-38 -82 -190 -82l-20 23l25 22q164 0 164 112v158h42v-147q0 -123 119 -123q112 0 112 122v148h42v-147q0 -123 121 -123q111 0 111 114v207h43v-189
q0 -74 37.5 -103t132.5 -29zM488 -138q1 0 1 -2h-1h-2q0 2 2 2zM416 -169q2 0 2 -2q-1 -1 -2 -1l-1 1q0 2 1 2zM485 -207q1 0 1 -2q0 -1 -1 -1l-2 1q0 2 2 2z" />
    <glyph glyph-name="uni069B.fina" unicode="&#x69b;" horiz-adv-x="1299" 
d="M1303 45l16 -22l-20 -23q-151 0 -181 81q-35 -81 -141 -81q-102 0 -136 82q-31 -82 -134 -82q-77 0 -113 47q-3 -153 -73.5 -220.5t-220.5 -67.5q-126 0 -185 59t-59 162q0 89 40 179l32 -11q-31 -80 -31 -164q0 -180 207 -180q136 0 192.5 58.5t56.5 190.5q0 81 -56 223
l45 20q29 -93 42 -148q15 -54 44 -78.5t83 -24.5q107 0 107 122v148h42v-147q0 -123 119 -123q54 0 83 29t29 85l-1 197h43v-179q0 -74 37.5 -103t132.5 -29zM865 -138q2 0 2 -2h-2h-1q0 2 1 2zM793 -169q2 0 2 -2q0 -1 -2 -1l-1 1q0 2 1 2zM862 -207q2 0 2 -2q-1 -1 -2 -1
l-2 1q0 2 2 2z" />
    <glyph glyph-name="uni069C.init" unicode="&#x69c;" horiz-adv-x="805" 
d="M449 489q-11 0 -19.5 8t-8.5 20q0 11 8.5 19.5t19.5 8.5t19.5 -8.5t8.5 -19.5q0 -12 -8.5 -20t-19.5 -8zM381 388q-12 0 -20.5 8.5t-8.5 19.5t8.5 19t20.5 8q11 0 19.5 -8t8.5 -19t-8.5 -19.5t-19.5 -8.5zM517 388q-11 0 -19.5 8.5t-8.5 19.5t8.5 19t19.5 8q12 0 20.5 -8
t8.5 -19t-8.5 -19.5t-20.5 -8.5zM699 387q40 -110 40 -218q0 -85 -39 -127t-111 -42q-50 0 -86 22t-51 61q-35 -83 -134 -83q-108 0 -137 81q-37 -81 -181 -81l-20 23l24 22q157 0 157 112v158h41v-147q0 -65 29.5 -94t87.5 -29q53 0 81.5 31.5t28.5 90.5v148h42v-147
q0 -123 121 -123q105 0 105 119q0 96 -39 209zM481 -138q1 0 1 -2h-1h-2q0 2 2 2zM409 -169q2 0 2 -2q-1 -1 -2 -1l-1 1q0 2 1 2zM478 -207q1 0 1 -2q0 -1 -1 -1l-2 1q0 2 2 2z" />
    <glyph glyph-name="uni069C.medi" unicode="&#x69c;" horiz-adv-x="925" 
d="M463 489q-11 0 -19.5 8t-8.5 20q0 11 8.5 19.5t19.5 8.5t19.5 -8.5t8.5 -19.5q0 -12 -8.5 -20t-19.5 -8zM395 388q-12 0 -20.5 8.5t-8.5 19.5t8.5 19t20.5 8q11 0 19.5 -8t8.5 -19t-8.5 -19.5t-19.5 -8.5zM531 388q-11 0 -19.5 8.5t-8.5 19.5t8.5 19t19.5 8q12 0 20.5 -8
t8.5 -19t-8.5 -19.5t-20.5 -8.5zM929 45l16 -22l-20 -23q-151 0 -181 80q-36 -80 -140 -80q-106 0 -140 82q-32 -82 -135 -82q-51 0 -88.5 22t-50.5 60q-38 -82 -190 -82l-20 23l25 22q164 0 164 112v158h42v-147q0 -123 119 -123q112 0 112 122v148h42v-147
q0 -123 121 -123q111 0 111 114v207h43v-189q0 -74 37.5 -103t132.5 -29zM488 -138q1 0 1 -2h-1h-2q0 2 2 2zM416 -169q2 0 2 -2q-1 -1 -2 -1l-1 1q0 2 1 2zM485 -207q1 0 1 -2q0 -1 -1 -1l-2 1q0 2 2 2z" />
    <glyph glyph-name="uni069C.fina" unicode="&#x69c;" horiz-adv-x="1299" 
d="M839 489q-11 0 -19.5 8t-8.5 20q0 11 8.5 19.5t19.5 8.5t19.5 -8.5t8.5 -19.5q0 -12 -8.5 -20t-19.5 -8zM771 388q-12 0 -20.5 8.5t-8.5 19.5t8.5 19t20.5 8q11 0 19.5 -8t8.5 -19t-8.5 -19.5t-19.5 -8.5zM907 388q-11 0 -19.5 8.5t-8.5 19.5t8.5 19t19.5 8q12 0 20.5 -8
t8.5 -19t-8.5 -19.5t-20.5 -8.5zM1303 45l16 -22l-20 -23q-151 0 -181 81q-35 -81 -141 -81q-102 0 -136 82q-31 -82 -134 -82q-77 0 -113 47q-3 -153 -73.5 -220.5t-220.5 -67.5q-126 0 -185 59t-59 162q0 89 40 179l32 -11q-31 -80 -31 -164q0 -180 207 -180
q136 0 192.5 58.5t56.5 190.5q0 81 -56 223l45 20q29 -93 42 -148q15 -54 44 -78.5t83 -24.5q107 0 107 122v148h42v-147q0 -123 119 -123q54 0 83 29t29 85l-1 197h43v-179q0 -74 37.5 -103t132.5 -29zM865 -138q1 0 1 -2h-1h-2q0 2 2 2zM793 -169q2 0 2 -2q-1 -1 -2 -1
l-1 1q0 2 1 2zM862 -207q1 0 1 -2q0 -1 -1 -1l-2 1q0 2 2 2z" />
    <glyph glyph-name="uni069D.init" unicode="&#x69d;" horiz-adv-x="919" 
d="M652 429q96 0 148.5 -58t52.5 -162q0 -126 -85.5 -167.5t-316.5 -41.5h-142q-118 0 -154 86q-31 -86 -155 -86l-20 23l25 22q72 0 100 29t28 89v211h42v-211q0 -108 115 -117q55 176 151.5 279.5t210.5 103.5zM451 45q207 0 284.5 33.5t77.5 131.5q0 172 -158 172
q-200 0 -326 -337h122zM89 -113q12 0 20 -8.5t8 -20.5q0 -11 -8 -19.5t-20 -8.5t-20.5 8.5t-8.5 19.5q0 12 8.5 20.5t20.5 8.5zM221 -113q12 0 20.5 -8.5t8.5 -20.5q0 -11 -8.5 -19.5t-20.5 -8.5t-20 8t-8 20t8 20.5t20 8.5z" />
    <glyph glyph-name="uni069D.medi" unicode="&#x69d;" horiz-adv-x="953" 
d="M958 45l15 -22l-20 -23q-88 0 -141 74q-39 -42 -123.5 -58t-237.5 -16h-142q-118 0 -154 86q-31 -86 -155 -86l-20 23l25 22q72 0 100 29t28 89v211h42v-211q0 -108 115 -117q55 176 151.5 279.5t210.5 103.5q96 0 148.5 -58t52.5 -162q0 -64 -20 -103q46 -61 125 -61z
M451 45q207 0 284.5 33.5t77.5 131.5q0 172 -158 172q-200 0 -326 -337h122zM88 -113q12 0 20 -8.5t8 -20.5q0 -11 -8 -19.5t-20 -8.5t-20.5 8.5t-8.5 19.5q0 12 8.5 20.5t20.5 8.5zM220 -113q12 0 20.5 -8.5t8.5 -20.5q0 -11 -8.5 -19.5t-20.5 -8.5t-20 8t-8 20t8 20.5
t20 8.5z" />
    <glyph glyph-name="uni069D.fina" unicode="&#x69d;" horiz-adv-x="1351" 
d="M1355 45l16 -22l-20 -23q-88 0 -142 75q-39 -43 -123 -59t-237 -16h-142v3q-77 0 -113 47q-3 -153 -73.5 -220.5t-220.5 -67.5q-126 0 -185 59t-59 162q0 89 40 179l32 -11q-31 -80 -31 -164q0 -180 207 -180q136 0 192.5 58.5t56.5 190.5q0 81 -56 223l45 20
q29 -93 42 -148q14 -49 38.5 -73.5t66.5 -28.5q55 175 151 277.5t209 102.5q97 0 149 -58t52 -162q0 -64 -20 -103q46 -61 125 -61zM849 45q206 0 283.5 33.5t77.5 131.5q0 172 -158 172q-201 0 -325 -337h122zM249 -339q12 0 20 -8.5t8 -20.5q0 -11 -8 -19.5t-20 -8.5
t-20.5 8.5t-8.5 19.5q0 12 8.5 20.5t20.5 8.5zM381 -339q12 0 20.5 -8.5t8.5 -20.5q0 -11 -8.5 -19.5t-20.5 -8.5t-20 8t-8 20t8 20.5t20 8.5z" />
    <glyph glyph-name="uni069E.init" unicode="&#x69e;" horiz-adv-x="919" 
d="M619 575q-11 0 -19.5 8.5t-8.5 19.5t8.5 19.5t19.5 8.5t19.5 -8.5t8.5 -19.5t-8.5 -19.5t-19.5 -8.5zM550 475q-11 0 -19.5 8t-8.5 20q0 11 8.5 19t19.5 8t19.5 -8t8.5 -19q0 -12 -8.5 -20t-19.5 -8zM687 475q-11 0 -19.5 8t-8.5 20q0 11 8.5 19t19.5 8q12 0 20 -8t8 -19
q0 -12 -8 -20t-20 -8zM652 429q96 0 148.5 -58t52.5 -162q0 -126 -85.5 -167.5t-316.5 -41.5h-142q-118 0 -154 86q-31 -86 -155 -86l-20 23l25 22q72 0 100 29t28 89v211h42v-211q0 -108 115 -117q55 176 151.5 279.5t210.5 103.5zM451 45q207 0 284.5 33.5t77.5 131.5
q0 172 -158 172q-200 0 -326 -337h122z" />
    <glyph glyph-name="uni069E.medi" unicode="&#x69e;" horiz-adv-x="953" 
d="M619 575q-11 0 -19.5 8.5t-8.5 19.5t8.5 19.5t19.5 8.5t19.5 -8.5t8.5 -19.5t-8.5 -19.5t-19.5 -8.5zM550 475q-11 0 -19.5 8t-8.5 20q0 11 8.5 19t19.5 8t19.5 -8t8.5 -19q0 -12 -8.5 -20t-19.5 -8zM687 475q-11 0 -19.5 8t-8.5 20q0 11 8.5 19t19.5 8q12 0 20 -8t8 -19
q0 -12 -8 -20t-20 -8zM958 45l15 -22l-20 -23q-88 0 -141 74q-39 -42 -123.5 -58t-237.5 -16h-142q-118 0 -154 86q-31 -86 -155 -86l-20 23l25 22q72 0 100 29t28 89v211h42v-211q0 -108 115 -117q55 176 151.5 279.5t210.5 103.5q96 0 148.5 -58t52.5 -162q0 -64 -20 -103
q46 -61 125 -61zM451 45q207 0 284.5 33.5t77.5 131.5q0 172 -158 172q-200 0 -326 -337h122z" />
    <glyph glyph-name="uni069E.fina" unicode="&#x69e;" horiz-adv-x="1351" 
d="M1016 575q-11 0 -19.5 8t-8.5 20q0 11 8.5 19.5t19.5 8.5t19.5 -8.5t8.5 -19.5q0 -12 -8.5 -20t-19.5 -8zM948 474q-12 0 -20.5 8.5t-8.5 19.5t8.5 19t20.5 8q11 0 19.5 -8t8.5 -19t-8.5 -19.5t-19.5 -8.5zM1084 474q-11 0 -19.5 8.5t-8.5 19.5t8.5 19t19.5 8
q12 0 20.5 -8t8.5 -19t-8.5 -19.5t-20.5 -8.5zM1355 45l16 -22l-20 -23q-88 0 -142 75q-39 -43 -123 -59t-237 -16h-142v3q-77 0 -113 47q-3 -153 -73.5 -220.5t-220.5 -67.5q-126 0 -185 59t-59 162q0 89 40 179l32 -11q-31 -80 -31 -164q0 -180 207 -180q136 0 192.5 58.5
t56.5 190.5q0 81 -56 223l45 20q29 -93 42 -148q14 -49 38.5 -73.5t66.5 -28.5q55 175 151 277.5t209 102.5q97 0 149 -58t52 -162q0 -64 -20 -103q46 -61 125 -61zM849 45q206 0 283.5 33.5t77.5 131.5q0 172 -158 172q-201 0 -325 -337h122z" />
    <glyph glyph-name="uni069F.init" unicode="&#x69f;" horiz-adv-x="802" 
d="M536 429q97 0 149 -58t52 -162q0 -126 -85.5 -167.5t-315.5 -41.5h-336l-20 23l24 22h170q19 57 35 94v600l42 6v-522q57 98 130.5 152t154.5 54zM494 575q-11 0 -19.5 8.5t-8.5 19.5t8.5 19.5t19.5 8.5t19.5 -8.5t8.5 -19.5t-8.5 -19.5t-19.5 -8.5zM425 475
q-11 0 -19.5 8t-8.5 20q0 11 8.5 19t19.5 8t19.5 -8t8.5 -19q0 -12 -8.5 -20t-19.5 -8zM562 475q-11 0 -19.5 8t-8.5 20q0 11 8.5 19t19.5 8q12 0 20 -8t8 -19q0 -12 -8 -20t-20 -8zM336 45q207 0 284.5 33.5t77.5 131.5q0 172 -159 172q-201 0 -325 -337h122z" />
    <glyph glyph-name="uni069F.medi" unicode="&#x69f;" horiz-adv-x="837" 
d="M842 45l16 -22l-20 -23q-88 0 -142 75q-39 -43 -123 -59t-237 -16h-336l-20 23l24 22h170q19 57 35 94v600l42 6v-522q57 98 130.5 152t154.5 54q97 0 149 -58t52 -162q0 -63 -19 -102q45 -62 124 -62zM494 575q-11 0 -19.5 8.5t-8.5 19.5t8.5 19.5t19.5 8.5t19.5 -8.5
t8.5 -19.5t-8.5 -19.5t-19.5 -8.5zM425 475q-11 0 -19.5 8t-8.5 20q0 11 8.5 19t19.5 8t19.5 -8t8.5 -19q0 -12 -8.5 -20t-19.5 -8zM562 475q-11 0 -19.5 8t-8.5 20q0 11 8.5 19t19.5 8q12 0 20 -8t8 -19q0 -12 -8 -20t-20 -8zM336 45q207 0 284.5 33.5t77.5 131.5
q0 172 -159 172q-201 0 -325 -337h122z" />
    <glyph glyph-name="uni069F.fina" unicode="&#x69f;" horiz-adv-x="824" 
d="M828 45l16 -22l-20 -23q-88 0 -142 75q-39 -43 -123 -59t-237 -16h-285l9 45h114q19 57 35 94v600l42 6v-522q57 98 130.5 152t154.5 54q97 0 149 -58t52 -162q0 -63 -19 -102q45 -62 124 -62zM480 575q-11 0 -19.5 8t-8.5 20q0 11 8.5 19.5t19.5 8.5t19.5 -8.5
t8.5 -19.5q0 -12 -8.5 -20t-19.5 -8zM412 474q-12 0 -20.5 8.5t-8.5 19.5t8.5 19t20.5 8q11 0 19.5 -8t8.5 -19t-8.5 -19.5t-19.5 -8.5zM548 474q-11 0 -19.5 8.5t-8.5 19.5t8.5 19t19.5 8q12 0 20.5 -8t8.5 -19t-8.5 -19.5t-20.5 -8.5zM322 45q207 0 284.5 33.5t77.5 131.5
q0 172 -159 172q-201 0 -325 -337h122z" />
    <glyph glyph-name="uni06A0.init" unicode="&#x6a0;" horiz-adv-x="539" 
d="M272 580q-11 0 -19.5 8t-8.5 20q0 11 8.5 19.5t19.5 8.5t19.5 -8.5t8.5 -19.5q0 -12 -8.5 -20t-19.5 -8zM204 479q-12 0 -20.5 8.5t-8.5 19.5t8.5 19t20.5 8q11 0 19.5 -8t8.5 -19t-8.5 -19.5t-19.5 -8.5zM340 479q-11 0 -19.5 8.5t-8.5 19.5t8.5 19t19.5 8q12 0 20.5 -8
t8.5 -19t-8.5 -19.5t-20.5 -8.5zM511 97l5 -45q-129 -31 -215 -41.5t-209 -10.5h-92l-20 23l24 22h79q72 0 127 3q-136 75 -136 196q0 72 52 123.5t146 51.5q76 0 143 -37l-20 -42q-61 33 -123 33q-77 0 -116.5 -38t-39.5 -94q0 -108 157 -189q92 10 238 45z" />
    <glyph glyph-name="uni06A0.medi" unicode="&#x6a0;" horiz-adv-x="549" 
d="M274 572q-11 0 -19.5 8t-8.5 20q0 11 8.5 19.5t19.5 8.5t19.5 -8.5t8.5 -19.5q0 -12 -8.5 -20t-19.5 -8zM206 471q-12 0 -20.5 8.5t-8.5 19.5t8.5 19t20.5 8q11 0 19.5 -8t8.5 -19t-8.5 -19.5t-19.5 -8.5zM342 471q-11 0 -19.5 8.5t-8.5 19.5t8.5 19t19.5 8q12 0 20.5 -8
t8.5 -19t-8.5 -19.5t-20.5 -8.5zM554 45l15 -23l-20 -22h-22q-125 0 -222 80q-69 -37 -146 -58.5t-134 -21.5h-25l-20 22l24 23h13q119 0 255 64q-17 17 -55 57t-76 75t-87 70l5 45q110 46 215 46q97 0 147.5 -33t50.5 -90q0 -93 -127 -175q43 -32 84.5 -45.5t105.5 -13.5
h19zM100 325q51 -37 122 -107.5t91 -87.5q120 69 120 145q0 83 -159 83q-87 0 -174 -33z" />
    <glyph glyph-name="uni06A0.fina" unicode="&#x6a0;" horiz-adv-x="556" 
d="M279 571q-11 0 -19.5 8t-8.5 20q0 11 8.5 19.5t19.5 8.5t19.5 -8.5t8.5 -19.5q0 -12 -8.5 -20t-19.5 -8zM211 470q-12 0 -20.5 8.5t-8.5 19.5t8.5 19t20.5 8q11 0 19.5 -8t8.5 -19t-8.5 -19.5t-19.5 -8.5zM347 470q-11 0 -19.5 8.5t-8.5 19.5t8.5 19t19.5 8q12 0 20.5 -8
t8.5 -19t-8.5 -19.5t-20.5 -8.5zM343 -304q115 0 200 44l18 -41q-90 -49 -223 -49q-137 0 -211 65.5t-74 164.5q0 172 188 253q-7 7 -32.5 33.5t-42.5 43t-49.5 45.5t-68.5 56l5 45q110 46 225 46q192 0 192 -118q0 -50 -36.5 -87.5t-114.5 -73.5q56 -46 98.5 -62t114.5 -16
h27l17 -22l-20 -23h-31q-71 0 -128 24t-123 79q-93 -41 -137 -93t-44 -125q0 -82 65.5 -135.5t184.5 -53.5zM93 324q50 -37 117.5 -101.5t74.5 -70.5q76 32 110.5 61t34.5 67q0 78 -152 78q-96 0 -185 -34z" />
    <glyph glyph-name="uni06A1.init" unicode="&#x6a1;" horiz-adv-x="454" 
d="M211 538q79 0 128 -69.5t49 -194.5q0 -74 -16 -122t-58 -84t-118.5 -52t-195.5 -16l-20 24l24 21q103 0 170 11t103.5 35.5t51.5 55.5t19 78q-46 -40 -128 -40q-81 0 -130 47.5t-49 122.5q0 74 49 128.5t121 54.5zM233 227q65 0 116 30v11q0 111 -37 168t-102 57
q-56 0 -92.5 -40t-36.5 -96q0 -60 39.5 -95t112.5 -35z" />
    <glyph glyph-name="uni06A1.medi" unicode="&#x6a1;" horiz-adv-x="488" 
d="M492 45l16 -22l-20 -23h-33q-106 0 -204 46q-99 -46 -224 -46h-27l-20 23l24 22h28q98 0 173 26q-125 78 -125 193q0 78 48 134t116 56q78 0 125.5 -55.5t47.5 -136.5q0 -52 -32 -102.5t-90 -88.5q76 -26 160 -26h37zM120 264q0 -110 131 -175q60 30 93 74.5t33 98.5
q0 64 -35.5 105t-95.5 41q-55 0 -90.5 -41t-35.5 -103z" />
    <glyph glyph-name="uni06A1.fina" unicode="&#x6a1;" horiz-adv-x="957" 
d="M960 45l17 -22l-20 -23h-33q-110 0 -211 49q-146 -62 -383 -62q-143 0 -208.5 45t-65.5 138q0 78 36 151l32 -11q-27 -67 -27 -135q0 -74 56 -108t181 -34q205 0 334 42q-119 77 -119 189q0 78 47.5 134t116.5 56q78 0 125.5 -55.5t47.5 -136.5q0 -114 -127 -189
q79 -28 165 -28h36zM589 264q0 -108 124 -171q133 60 133 169q0 64 -35.5 105t-95.5 41q-55 0 -90.5 -40.5t-35.5 -103.5z" />
    <glyph glyph-name="uni06A2.init" unicode="&#x6a2;" horiz-adv-x="454" 
d="M211 538q79 0 128 -69.5t49 -194.5q0 -74 -16 -122t-58 -84t-118.5 -52t-195.5 -16l-20 24l24 21q103 0 170 11t103.5 35.5t51.5 55.5t19 78q-46 -40 -128 -40q-81 0 -130 47.5t-49 122.5q0 74 49 128.5t121 54.5zM233 227q65 0 116 30v11q0 111 -37 168t-102 57
q-56 0 -92.5 -40t-36.5 -96q0 -60 39.5 -95t112.5 -35zM201 -111q13 0 22 -8.5t9 -21.5t-9 -22t-22 -9t-22 9t-9 22t9 21.5t22 8.5z" />
    <glyph glyph-name="uni06A2.medi" unicode="&#x6a2;" horiz-adv-x="488" 
d="M492 45l16 -22l-20 -23h-33q-106 0 -204 46q-99 -46 -224 -46h-27l-20 23l24 22h28q98 0 173 26q-125 78 -125 193q0 78 48 134t116 56q78 0 125.5 -55.5t47.5 -136.5q0 -52 -32 -102.5t-90 -88.5q76 -26 160 -26h37zM120 264q0 -110 131 -175q60 30 93 74.5t33 98.5
q0 64 -35.5 105t-95.5 41q-55 0 -90.5 -41t-35.5 -103zM249 -111q13 0 22 -8.5t9 -21.5t-9 -22t-22 -9t-22 9t-9 22t9 21.5t22 8.5z" />
    <glyph glyph-name="uni06A2.fina" unicode="&#x6a2;" horiz-adv-x="957" 
d="M960 45l17 -22l-20 -23h-33q-110 0 -211 49q-146 -62 -383 -62q-143 0 -208.5 45t-65.5 138q0 78 36 151l32 -11q-27 -67 -27 -135q0 -74 56 -108t181 -34q205 0 334 42q-119 77 -119 189q0 78 47.5 134t116.5 56q78 0 125.5 -55.5t47.5 -136.5q0 -114 -127 -189
q79 -28 165 -28h36zM589 264q0 -108 124 -171q133 60 133 169q0 64 -35.5 105t-95.5 41q-55 0 -90.5 -40.5t-35.5 -103.5zM721 -111q13 0 22 -8.5t9 -21.5t-9 -22t-22 -9t-22 9t-9 22t9 21.5t22 8.5z" />
    <glyph glyph-name="uni06A3.init" unicode="&#x6a3;" horiz-adv-x="454" 
d="M209 606q-13 0 -22 8.5t-9 21.5t9 22t22 9t22 -9t9 -22t-9 -21.5t-22 -8.5zM211 538q79 0 128 -69.5t49 -194.5q0 -74 -16 -122t-58 -84t-118.5 -52t-195.5 -16l-20 24l24 21q103 0 170 11t103.5 35.5t51.5 55.5t19 78q-46 -40 -128 -40q-81 0 -130 47.5t-49 122.5
q0 74 49 128.5t121 54.5zM233 227q65 0 116 30v11q0 111 -37 168t-102 57q-56 0 -92.5 -40t-36.5 -96q0 -60 39.5 -95t112.5 -35zM211 -111q13 0 22 -8.5t9 -21.5t-9 -22t-22 -9t-22 9t-9 22t9 21.5t22 8.5z" />
    <glyph glyph-name="uni06A3.medi" unicode="&#x6a3;" horiz-adv-x="488" 
d="M244 518q-13 0 -22 8.5t-9 21.5t9 22t22 9t22 -9t9 -22t-9 -21.5t-22 -8.5zM492 45l16 -22l-20 -23h-33q-106 0 -204 46q-99 -46 -224 -46h-27l-20 23l24 22h28q98 0 173 26q-125 78 -125 193q0 78 48 134t116 56q78 0 125.5 -55.5t47.5 -136.5q0 -52 -32 -102.5
t-90 -88.5q76 -26 160 -26h37zM120 264q0 -110 131 -175q60 30 93 74.5t33 98.5q0 64 -35.5 105t-95.5 41q-55 0 -90.5 -41t-35.5 -103zM251 -111q13 0 22 -8.5t9 -21.5t-9 -22t-22 -9t-22 9t-9 22t9 21.5t22 8.5z" />
    <glyph glyph-name="uni06A3.fina" unicode="&#x6a3;" horiz-adv-x="957" 
d="M713 520q-13 0 -22 8.5t-9 21.5t9 22t22 9t22 -9t9 -22t-9 -21.5t-22 -8.5zM960 45l17 -22l-20 -23h-33q-110 0 -211 49q-146 -62 -383 -62q-143 0 -208.5 45t-65.5 138q0 78 36 151l32 -11q-27 -67 -27 -135q0 -74 56 -108t181 -34q205 0 334 42q-119 77 -119 189
q0 78 47.5 134t116.5 56q78 0 125.5 -55.5t47.5 -136.5q0 -114 -127 -189q79 -28 165 -28h36zM589 264q0 -108 124 -171q133 60 133 169q0 64 -35.5 105t-95.5 41q-55 0 -90.5 -40.5t-35.5 -103.5zM712 -111q13 0 22 -8.5t9 -21.5t-9 -22t-22 -9t-22 9t-9 22t9 21.5t22 8.5z
" />
    <glyph glyph-name="uni06A5.init" unicode="&#x6a5;" horiz-adv-x="454" 
d="M211 538q79 0 128 -69.5t49 -194.5q0 -74 -16 -122t-58 -84t-118.5 -52t-195.5 -16l-20 24l24 21q103 0 170 11t103.5 35.5t51.5 55.5t19 78q-46 -40 -128 -40q-81 0 -130 47.5t-49 122.5q0 74 49 128.5t121 54.5zM233 227q65 0 116 30v11q0 111 -37 168t-102 57
q-56 0 -92.5 -40t-36.5 -96q0 -60 39.5 -95t112.5 -35zM226 -138q1 0 1 -2h-1h-2q0 2 2 2zM154 -169q2 0 2 -2q-1 -1 -2 -1l-1 1q0 2 1 2zM223 -207q1 0 1 -2q0 -1 -1 -1l-2 1q0 2 2 2z" />
    <glyph glyph-name="uni06A5.medi" unicode="&#x6a5;" horiz-adv-x="488" 
d="M492 45l16 -22l-20 -23h-33q-106 0 -204 46q-99 -46 -224 -46h-27l-20 23l24 22h28q98 0 173 26q-125 78 -125 193q0 78 48 134t116 56q78 0 125.5 -55.5t47.5 -136.5q0 -52 -32 -102.5t-90 -88.5q76 -26 160 -26h37zM120 264q0 -110 131 -175q60 30 93 74.5t33 98.5
q0 64 -35.5 105t-95.5 41q-55 0 -90.5 -41t-35.5 -103zM274 -138q1 0 1 -2h-1h-2q0 2 2 2zM202 -169q2 0 2 -2q-1 -1 -2 -1l-1 1q0 2 1 2zM271 -207q1 0 1 -2q0 -1 -1 -1l-2 1q0 2 2 2z" />
    <glyph glyph-name="uni06A5.fina" unicode="&#x6a5;" horiz-adv-x="957" 
d="M960 45l17 -22l-20 -23h-33q-110 0 -211 49q-146 -62 -383 -62q-143 0 -208.5 45t-65.5 138q0 78 36 151l32 -11q-27 -67 -27 -135q0 -74 56 -108t181 -34q205 0 334 42q-119 77 -119 189q0 78 47.5 134t116.5 56q78 0 125.5 -55.5t47.5 -136.5q0 -114 -127 -189
q79 -28 165 -28h36zM589 264q0 -108 124 -171q133 60 133 169q0 64 -35.5 105t-95.5 41q-55 0 -90.5 -40.5t-35.5 -103.5zM746 -138q1 0 1 -2h-1h-2q0 2 2 2zM674 -169q2 0 2 -2q-1 -1 -2 -1l-1 1q0 2 1 2zM743 -207q1 0 1 -2q0 -1 -1 -1l-2 1q0 2 2 2z" />
    <glyph glyph-name="uni06A7.init" unicode="&#x6a7;" horiz-adv-x="454" 
d="M209 606q-13 0 -22 8.5t-9 21.5t9 22t22 9t22 -9t9 -22t-9 -21.5t-22 -8.5zM211 538q79 0 128 -69.5t49 -194.5q0 -74 -16 -122t-58 -84t-118.5 -52t-195.5 -16l-20 24l24 21q103 0 170 11t103.5 35.5t51.5 55.5t19 78q-46 -40 -128 -40q-81 0 -130 47.5t-49 122.5
q0 74 49 128.5t121 54.5zM233 227q65 0 116 30v11q0 111 -37 168t-102 57q-56 0 -92.5 -40t-36.5 -96q0 -60 39.5 -95t112.5 -35z" />
    <glyph glyph-name="uni06A7.medi" unicode="&#x6a7;" horiz-adv-x="488" 
d="M244 518q-13 0 -22 8.5t-9 21.5t9 22t22 9t22 -9t9 -22t-9 -21.5t-22 -8.5zM492 45l16 -22l-20 -23h-33q-106 0 -204 46q-99 -46 -224 -46h-27l-20 23l24 22h28q98 0 173 26q-125 78 -125 193q0 78 48 134t116 56q78 0 125.5 -55.5t47.5 -136.5q0 -52 -32 -102.5
t-90 -88.5q76 -26 160 -26h37zM120 264q0 -110 131 -175q60 30 93 74.5t33 98.5q0 64 -35.5 105t-95.5 41q-55 0 -90.5 -41t-35.5 -103z" />
    <glyph glyph-name="uni06A7.fina" unicode="&#x6a7;" horiz-adv-x="758" 
d="M481 420q-13 0 -22 8.5t-9 21.5t9 22t22 9t22 -9t9 -22t-9 -21.5t-22 -8.5zM778 23l-20 -23h-104q-13 -117 -81 -179t-222 -62q-162 0 -228.5 57.5t-66.5 163.5q0 89 40 179l32 -11q-31 -80 -31 -164q0 -86 57.5 -133t201.5 -47q71 0 121 14.5t78 42.5t41.5 61t18.5 78
h-97q-97 0 -152 48.5t-55 124.5q0 75 49 129t121 54q80 0 128.5 -70.5t48.5 -200.5q0 -27 -1 -40h105zM351 176q0 -60 44 -95.5t123 -35.5h100q1 11 1 34q0 116 -36.5 174t-102.5 58q-56 0 -92.5 -39.5t-36.5 -95.5z" />
    <glyph glyph-name="uni06A8.init" unicode="&#x6a8;" horiz-adv-x="454" 
d="M210 703q-11 0 -19.5 8t-8.5 20q0 11 8.5 19.5t19.5 8.5t19.5 -8.5t8.5 -19.5q0 -12 -8.5 -20t-19.5 -8zM142 602q-12 0 -20.5 8.5t-8.5 19.5t8.5 19t20.5 8q11 0 19.5 -8t8.5 -19t-8.5 -19.5t-19.5 -8.5zM278 602q-11 0 -19.5 8.5t-8.5 19.5t8.5 19t19.5 8q12 0 20.5 -8
t8.5 -19t-8.5 -19.5t-20.5 -8.5zM211 538q79 0 128 -69.5t49 -194.5q0 -74 -16 -122t-58 -84t-118.5 -52t-195.5 -16l-20 24l24 21q103 0 170 11t103.5 35.5t51.5 55.5t19 78q-46 -40 -128 -40q-81 0 -130 47.5t-49 122.5q0 74 49 128.5t121 54.5zM233 227q65 0 116 30v11
q0 111 -37 168t-102 57q-56 0 -92.5 -40t-36.5 -96q0 -60 39.5 -95t112.5 -35z" />
    <glyph glyph-name="uni06A8.medi" unicode="&#x6a8;" horiz-adv-x="488" 
d="M245 615q-11 0 -19.5 8t-8.5 20q0 11 8.5 19.5t19.5 8.5t19.5 -8.5t8.5 -19.5q0 -12 -8.5 -20t-19.5 -8zM177 514q-12 0 -20.5 8.5t-8.5 19.5t8.5 19t20.5 8q11 0 19.5 -8t8.5 -19t-8.5 -19.5t-19.5 -8.5zM313 514q-11 0 -19.5 8.5t-8.5 19.5t8.5 19t19.5 8q12 0 20.5 -8
t8.5 -19t-8.5 -19.5t-20.5 -8.5zM492 45l16 -22l-20 -23h-33q-106 0 -204 46q-99 -46 -224 -46h-27l-20 23l24 22h28q98 0 173 26q-125 78 -125 193q0 78 48 134t116 56q78 0 125.5 -55.5t47.5 -136.5q0 -52 -32 -102.5t-90 -88.5q76 -26 160 -26h37zM120 264
q0 -110 131 -175q60 30 93 74.5t33 98.5q0 64 -35.5 105t-95.5 41q-55 0 -90.5 -41t-35.5 -103z" />
    <glyph glyph-name="uni06A8.fina" unicode="&#x6a8;" horiz-adv-x="758" 
d="M482 517q-11 0 -19.5 8t-8.5 20q0 11 8.5 19.5t19.5 8.5t19.5 -8.5t8.5 -19.5q0 -12 -8.5 -20t-19.5 -8zM414 416q-12 0 -20.5 8.5t-8.5 19.5t8.5 19t20.5 8q11 0 19.5 -8t8.5 -19t-8.5 -19.5t-19.5 -8.5zM550 416q-11 0 -19.5 8.5t-8.5 19.5t8.5 19t19.5 8q12 0 20.5 -8
t8.5 -19t-8.5 -19.5t-20.5 -8.5zM778 23l-20 -23h-104q-13 -117 -81 -179t-222 -62q-162 0 -228.5 57.5t-66.5 163.5q0 89 40 179l32 -11q-31 -80 -31 -164q0 -86 57.5 -133t201.5 -47q71 0 121 14.5t78 42.5t41.5 61t18.5 78h-97q-97 0 -152 48.5t-55 124.5q0 75 49 129
t121 54q80 0 128.5 -70.5t48.5 -200.5q0 -27 -1 -40h105zM351 176q0 -60 44 -95.5t123 -35.5h100q1 11 1 34q0 116 -36.5 174t-102.5 58q-56 0 -92.5 -39.5t-36.5 -95.5z" />
    <glyph glyph-name="uni06AA.init" unicode="&#x6aa;" horiz-adv-x="1161" 
d="M807 327q288 0 288 -155q0 -71 -101 -111q-159 -61 -590 -61h-404l-20 23l24 22h392q660 0 660 127q0 51 -60 83t-189 31q-101 -1 -257.5 -12t-238.5 -11q-137 0 -216 14l5 38q28 100 110.5 178.5t204.5 108.5l-7 -45q-100 -26 -173 -91t-99 -151q79 -11 182 -11
q81 0 236.5 11.5t252.5 11.5z" />
    <glyph glyph-name="uni06AA.medi" unicode="&#x6aa;" horiz-adv-x="1260" 
d="M1265 45l15 -22l-20 -23q-176 0 -188 111q-25 -29 -78 -50q-159 -61 -590 -61h-404l-20 23l24 22h392q660 0 660 127q0 51 -60 83t-189 31q-101 -1 -257.5 -12t-238.5 -11q-137 0 -216 14l5 38q28 100 110.5 178.5t204.5 108.5l-7 -45q-100 -26 -173 -91t-99 -151
q79 -11 182 -11q81 0 236.5 11.5t252.5 11.5q288 0 288 -155q0 -7 -1 -11q4 -65 42 -90.5t129 -25.5z" />
    <glyph glyph-name="uni06AA.fina" unicode="&#x6aa;" horiz-adv-x="1335" 
d="M1340 45l15 -22l-20 -23q-176 0 -188 112q-26 -30 -78 -51q-159 -61 -590 -61h-420l-13 45h424q661 0 661 127q0 51 -60 83t-189 31q-101 -1 -258 -12t-238 -11q-138 0 -216 14l5 38q28 101 110 179.5t205 107.5l-7 -45q-101 -26 -173.5 -91t-98.5 -151q77 -11 181 -11
q82 0 237.5 11.5t252.5 11.5q282 0 287 -150q0 -74 37.5 -103t133.5 -29z" />
    <glyph glyph-name="uni06AB.init" unicode="&#x6ab;" horiz-adv-x="457" 
d="M401 750l-4 -48l-81 -54q27 -5 44 -25.5t17 -49.5q0 -33 -21.5 -54.5t-56.5 -21.5q-34 0 -56.5 22t-22.5 54q0 8 1 11l-170 -113q155 -66 219 -127t64 -135q0 -104 -89 -156.5t-245 -52.5l-20 23l24 22q289 0 289 167q0 59 -65 115.5t-224 120.5l9 42zM348 573
q0 22 -13.5 34.5t-35.5 12.5t-35.5 -12.5t-13.5 -34.5q0 -21 13 -34t36 -13t36 13t13 34z" />
    <glyph glyph-name="uni06AB.medi" unicode="&#x6ab;" horiz-adv-x="541" 
d="M545 45l16 -21l-20 -24q-82 0 -142 43t-153 171q2 -10 2 -27q0 -87 -63 -137t-185 -50l-20 23l24 22q104 0 155 39.5t51 110.5q0 63 -50 125l-104 128l10 42l387 260l-2 -48l-82 -54q25 -7 41 -27t16 -48q0 -33 -21 -54.5t-56 -21.5q-34 0 -56.5 22t-22.5 54v9l-174 -116
l157 -195q84 -106 121.5 -146t76.5 -60t94 -20zM397 573q0 22 -13.5 34.5t-34.5 12.5q-22 0 -35.5 -12.5t-13.5 -34.5q0 -21 13 -34t36 -13t35.5 13t12.5 34z" />
    <glyph glyph-name="uni06AB.fina" unicode="&#x6ab;" horiz-adv-x="978" 
d="M982 45l16 -21l-20 -24q-82 0 -142 43t-154 171q2 -10 2 -27q0 -96 -80 -147.5t-274 -52.5q-143 0 -208.5 45t-65.5 138q0 78 36 151l32 -11q-27 -67 -27 -135q0 -74 56 -108t182 -34q120 0 191 21.5t96 55t25 85.5q0 61 -50 125l-104 128l9 42l389 260l-4 -48l-83 -55
q25 -7 40.5 -27t15.5 -47q0 -33 -21.5 -54.5t-56.5 -21.5q-34 0 -56 22t-22 54v7l-172 -114l157 -195q119 -149 167 -187.5t126 -38.5zM831 573q0 22 -13.5 34.5t-35.5 12.5t-35 -12.5t-13 -34.5q0 -21 12.5 -34t35.5 -13q24 0 36.5 13t12.5 34z" />
    <glyph glyph-name="uni06AC.init" unicode="&#x6ac;" horiz-adv-x="457" 
d="M401 750l-4 -48l-346 -231q155 -66 219 -127t64 -135q0 -104 -89 -156.5t-245 -52.5l-20 23l24 22q289 0 289 167q0 59 -65 115.5t-224 120.5l9 42zM43 680q-13 0 -22 8.5t-9 21.5t9 22t22 9t22 -9t9 -22t-9 -21.5t-22 -8.5z" />
    <glyph glyph-name="uni06AC.medi" unicode="&#x6ac;" horiz-adv-x="541" 
d="M545 45l16 -21l-20 -24q-82 0 -142 43t-153 171q2 -10 2 -27q0 -87 -63 -137t-185 -50l-20 23l24 22q104 0 155 39.5t51 110.5q0 63 -50 125l-104 128l10 42l387 260l-2 -48l-355 -236l157 -195q84 -106 121.5 -146t76.5 -60t94 -20zM90 680q-13 0 -22 8.5t-9 21.5t9 22
t22 9t22 -9t9 -22t-9 -21.5t-22 -8.5z" />
    <glyph glyph-name="uni06AC.fina" unicode="&#x6ac;" horiz-adv-x="832" 
d="M706 816q-13 0 -22 8.5t-9 21.5t9 22t22 9t22 -9t9 -22t-9 -21.5t-22 -8.5zM836 45l16 -21l-20 -24q-90 0 -132 83q-133 -96 -370 -96q-143 0 -208.5 45t-65.5 138q0 78 36 151l32 -11q-27 -67 -27 -135q0 -74 56 -108t182 -34q224 0 350 93v614l42 5v-593q0 -43 25 -75
t84 -32zM299 310q156 0 156 50q0 20 -27 35.5t-97 29.5l7 34l157 92l-2 -36l-121 -69q62 -16 88.5 -36t26.5 -50q0 -82 -183 -82z" />
    <glyph glyph-name="uni06AE.init" unicode="&#x6ae;" horiz-adv-x="457" 
d="M401 750l-4 -48l-346 -231q155 -66 219 -127t64 -135q0 -104 -89 -156.5t-245 -52.5l-20 23l24 22q289 0 289 167q0 59 -65 115.5t-224 120.5l9 42zM155 -138q1 0 1 -2h-1h-2q0 2 2 2zM83 -169q2 0 2 -2q-1 -1 -2 -1l-1 1q0 2 1 2zM152 -207q1 0 1 -2q0 -1 -1 -1l-2 1
q0 2 2 2z" />
    <glyph glyph-name="uni06AE.medi" unicode="&#x6ae;" horiz-adv-x="541" 
d="M545 45l16 -21l-20 -24q-82 0 -142 43t-153 171q2 -10 2 -27q0 -87 -63 -137t-185 -50l-20 23l24 22q104 0 155 39.5t51 110.5q0 63 -50 125l-104 128l10 42l387 260l-2 -48l-355 -236l157 -195q84 -106 121.5 -146t76.5 -60t94 -20zM300 -138q1 0 1 -2h-1h-2q0 2 2 2z
M228 -169q2 0 2 -2q-1 -1 -2 -1l-1 1q0 2 1 2zM297 -207q1 0 1 -2q0 -1 -1 -1l-2 1q0 2 2 2z" />
    <glyph glyph-name="uni06AE.fina" unicode="&#x6ae;" horiz-adv-x="832" 
d="M836 45l16 -21l-20 -24q-90 0 -132 83q-133 -96 -370 -96q-143 0 -208.5 45t-65.5 138q0 78 36 151l32 -11q-27 -67 -27 -135q0 -74 56 -108t182 -34q224 0 350 93v614l42 5v-593q0 -43 25 -75t84 -32zM299 310q156 0 156 50q0 20 -27 35.5t-97 29.5l7 34l157 92l-2 -36
l-121 -69q62 -16 88.5 -36t26.5 -50q0 -82 -183 -82zM416 -138q1 0 1 -2h-1h-2q0 2 2 2zM344 -169q2 0 2 -2q-1 -1 -2 -1l-1 1q0 2 1 2zM413 -207q1 0 1 -2q0 -1 -1 -1l-2 1q0 2 2 2z" />
    <glyph glyph-name="uni06B0.init" unicode="&#x6b0;" horiz-adv-x="457" 
d="M390 872l-3 -40l-382 -257l9 42zM401 750l-4 -48l-68 -46q25 -6 40.5 -26t15.5 -48q0 -33 -21.5 -55t-56.5 -22q-33 0 -55.5 22.5t-22.5 54.5v8l-178 -119q155 -66 219 -127t64 -135q0 -104 -89 -156.5t-245 -52.5l-20 23l24 22q289 0 289 167q0 59 -65 115.5t-224 120.5
l9 42zM356 582q0 22 -13.5 34.5t-35.5 12.5t-35 -12.5t-13 -34.5q0 -21 12.5 -34t35.5 -13t36 12.5t13 34.5z" />
    <glyph glyph-name="uni06B0.medi" unicode="&#x6b0;" horiz-adv-x="541" 
d="M452 872l-2 -40l-382 -257l9 42zM545 45l16 -21l-20 -24q-82 0 -142 43t-153 171q2 -10 2 -27q0 -87 -63 -137t-185 -50l-20 23l24 22q104 0 155 39.5t51 110.5q0 63 -50 125l-104 128l10 42l387 260l-2 -48l-69 -46q24 -7 39 -27t15 -47q0 -33 -21 -55t-56 -22
q-34 0 -56.5 22t-22.5 55v6l-184 -122l157 -195q84 -106 121.5 -146t76.5 -60t94 -20zM407 582q0 21 -13.5 34t-34.5 13q-22 0 -35.5 -12.5t-13.5 -34.5q0 -21 13 -34t36 -13t35.5 13t12.5 34z" />
    <glyph glyph-name="uni06B0.fina" unicode="&#x6b0;" horiz-adv-x="978" 
d="M883 872l-2 -40l-382 -257l9 42zM982 45l16 -21l-20 -24q-82 0 -142 43t-154 171q2 -10 2 -27q0 -96 -80 -147.5t-274 -52.5q-143 0 -208.5 45t-65.5 138q0 78 36 151l32 -11q-27 -67 -27 -135q0 -74 56 -108t182 -34q120 0 191 21.5t96 55t25 85.5q0 61 -50 125
l-104 128l9 42l389 260l-4 -48l-81 -54q24 -7 39.5 -26.5t15.5 -46.5q0 -33 -21.5 -55t-56.5 -22q-34 0 -56.5 22.5t-22.5 54.5v5l-172 -114l157 -195q119 -149 167 -187.5t126 -38.5zM783 621q-15 0 -27 -6l-7 -5q-15 -13 -15 -35t13 -35t36 -13q24 0 36.5 13t12.5 35
q0 21 -13.5 33.5t-35.5 12.5z" />
    <glyph glyph-name="uni06B2.init" unicode="&#x6b2;" horiz-adv-x="457" 
d="M390 872l-3 -40l-382 -257l9 42zM401 750l-4 -48l-346 -231q155 -66 219 -127t64 -135q0 -104 -89 -156.5t-245 -52.5l-20 23l24 22q289 0 289 167q0 59 -65 115.5t-224 120.5l9 42zM64 -113q12 0 20 -8.5t8 -20.5q0 -11 -8 -19.5t-20 -8.5t-20.5 8.5t-8.5 19.5
q0 12 8.5 20.5t20.5 8.5zM196 -113q12 0 20.5 -8.5t8.5 -20.5q0 -11 -8.5 -19.5t-20.5 -8.5t-20 8t-8 20t8 20.5t20 8.5z" />
    <glyph glyph-name="uni06B2.medi" unicode="&#x6b2;" horiz-adv-x="541" 
d="M452 872l-2 -40l-382 -257l9 42zM545 45l16 -21l-20 -24q-82 0 -142 43t-153 171q2 -10 2 -27q0 -87 -63 -137t-185 -50l-20 23l24 22q104 0 155 39.5t51 110.5q0 63 -50 125l-104 128l10 42l387 260l-2 -48l-355 -236l157 -195q84 -106 121.5 -146t76.5 -60t94 -20z
M209 -113q12 0 20 -8.5t8 -20.5q0 -11 -8 -19.5t-20 -8.5t-20.5 8.5t-8.5 19.5q0 12 8.5 20.5t20.5 8.5zM341 -113q12 0 20.5 -8.5t8.5 -20.5q0 -11 -8.5 -19.5t-20.5 -8.5t-20 8t-8 20t8 20.5t20 8.5z" />
    <glyph glyph-name="uni06B2.fina" unicode="&#x6b2;" horiz-adv-x="977" 
d="M883 872l-2 -40l-382 -257l9 42zM982 45l16 -21l-20 -24q-82 0 -142 43t-154 171q2 -10 2 -27q0 -96 -80 -147.5t-274 -52.5q-143 0 -208.5 45t-65.5 138q0 78 36 151l32 -11q-27 -67 -27 -135q0 -74 56 -108t182 -34q120 0 191 21.5t96 55t25 85.5q0 61 -50 125
l-104 128l9 42l389 260l-4 -48l-355 -236l157 -195q119 -149 167 -187.5t126 -38.5zM305 -113q13 0 21 -8.5t8 -20.5t-8 -20t-21 -8q-12 0 -20.5 8.5t-8.5 19.5q0 12 8.5 20.5t20.5 8.5zM437 -113q13 0 21 -8.5t8 -20.5t-8 -20t-21 -8q-12 0 -20 8.5t-8 19.5q0 12 8 20.5
t20 8.5z" />
    <glyph glyph-name="uni06B4.init" unicode="&#x6b4;" horiz-adv-x="457" 
d="M17 831q-11 0 -19.5 8t-8.5 20q0 11 8.5 19.5t19.5 8.5t19.5 -8.5t8.5 -19.5q0 -12 -8.5 -20t-19.5 -8zM5 575l9 42l376 255l-3 -40zM-51 785q11 0 19.5 -8t8.5 -19t-8.5 -19.5t-19.5 -8.5q-12 0 -20.5 8.5t-8.5 19.5t8.5 19t20.5 8zM85 730q-11 0 -19.5 8.5t-8.5 19.5
t8.5 19t19.5 8q12 0 20.5 -8t8.5 -19t-8.5 -19.5t-20.5 -8.5zM401 750l-4 -48l-346 -231q155 -66 219 -127t64 -135q0 -104 -89 -156.5t-245 -52.5l-20 23l24 22q289 0 289 167q0 59 -65 115.5t-224 120.5l9 42z" />
    <glyph glyph-name="uni06B4.medi" unicode="&#x6b4;" horiz-adv-x="541" 
d="M80 831q-11 0 -19.5 8t-8.5 20q0 11 8.5 19.5t19.5 8.5t19.5 -8.5t8.5 -19.5q0 -12 -8.5 -20t-19.5 -8zM68 575l9 42l375 255l-2 -40zM12 730q-12 0 -20.5 8.5t-8.5 19.5t8.5 19t20.5 8q11 0 19.5 -8t8.5 -19t-8.5 -19.5t-19.5 -8.5zM148 730q-11 0 -19.5 8.5t-8.5 19.5
t8.5 19t19.5 8q12 0 20.5 -8t8.5 -19t-8.5 -19.5t-20.5 -8.5zM545 45l16 -21l-20 -24q-82 0 -142 43t-153 171q2 -10 2 -27q0 -87 -63 -137t-185 -50l-20 23l24 22q104 0 155 39.5t51 110.5q0 63 -50 125l-104 128l10 42l387 260l-2 -48l-355 -236l157 -195
q84 -106 121.5 -146t76.5 -60t94 -20z" />
    <glyph glyph-name="uni06B4.fina" unicode="&#x6b4;" horiz-adv-x="977" 
d="M509 830q-11 0 -19.5 8.5t-8.5 19.5q0 12 8.5 20t19.5 8t19.5 -8t8.5 -20q0 -11 -8.5 -19.5t-19.5 -8.5zM499 575l9 42l375 255l-2 -40zM441 730q-12 0 -20.5 8t-8.5 20q0 11 8.5 19t20.5 8q11 0 19.5 -8t8.5 -19q0 -12 -8.5 -20t-19.5 -8zM578 730q-12 0 -20 8t-8 20
q0 11 8 19t20 8q11 0 19.5 -8t8.5 -19q0 -12 -8.5 -20t-19.5 -8zM982 45l16 -21l-20 -24q-82 0 -142 43t-154 171q2 -10 2 -27q0 -96 -80 -147.5t-274 -52.5q-143 0 -208.5 45t-65.5 138q0 78 36 151l32 -11q-27 -67 -27 -135q0 -74 56 -108t182 -34q120 0 191 21.5t96 55
t25 85.5q0 61 -50 125l-104 128l9 42l389 260l-4 -48l-355 -236l157 -195q119 -149 167 -187.5t126 -38.5z" />
    <glyph glyph-name="uni06B5.init" unicode="&#x6b5;" horiz-adv-x="228" 
d="M57 948l66 -113l66 113l25 -10l-77 -139h-29l-76 139zM0 0l-20 23l24 22q97 0 97 112v582l42 5v-590q0 -85 -37.5 -119.5t-105.5 -34.5z" />
    <glyph glyph-name="uni06B5.medi" unicode="&#x6b5;" horiz-adv-x="241" 
d="M135 800h-29l-77 139l25 10l67 -113l66 113l25 -10zM245 45l17 -22l-21 -23q-89 0 -120 69q-30 -69 -121 -69l-20 23l24 22q51 0 73.5 26t22.5 80v589l42 5v-594q0 -106 103 -106z" />
    <glyph glyph-name="uni06B5.fina" unicode="&#x6b5;" horiz-adv-x="702" 
d="M574 798h-29l-76 139l25 10l66 -113l66 113l25 -10zM706 45l16 -22l-20 -23q-89 0 -123 54q-7 -131 -78 -188.5t-201 -57.5q-126 0 -185 59t-59 162q0 90 40 178l32 -10q-31 -80 -31 -164q0 -180 207 -180q124 0 179 55t55 173v658l42 5v-564q0 -75 28 -105t98 -30z" />
    <glyph glyph-name="uni06B6.init" unicode="&#x6b6;" horiz-adv-x="228" 
d="M122 816q-13 0 -22 8.5t-9 21.5t9 22t22 9t22 -9t9 -22t-9 -21.5t-22 -8.5zM0 0l-20 23l24 22q97 0 97 112v582l42 5v-590q0 -85 -37.5 -119.5t-105.5 -34.5z" />
    <glyph glyph-name="uni06B6.medi" unicode="&#x6b6;" horiz-adv-x="241" 
d="M120 817q-13 0 -21.5 8.5t-8.5 21.5t8.5 22t21.5 9t22 -9t9 -22t-9 -21.5t-22 -8.5zM245 45l17 -22l-21 -23q-89 0 -120 69q-30 -69 -121 -69l-20 23l24 22q51 0 73.5 26t22.5 80v589l42 5v-594q0 -106 103 -106z" />
    <glyph glyph-name="uni06B6.fina" unicode="&#x6b6;" horiz-adv-x="702" 
d="M559 815q-13 0 -22 8.5t-9 21.5t9 22t22 9t22 -9t9 -22t-9 -21.5t-22 -8.5zM706 45l16 -22l-20 -23q-89 0 -123 54q-7 -131 -78 -188.5t-201 -57.5q-126 0 -185 59t-59 162q0 90 40 178l32 -10q-31 -80 -31 -164q0 -180 207 -180q124 0 179 55t55 173v658l42 5v-564
q0 -75 28 -105t98 -30z" />
    <glyph glyph-name="uni06B7.init" unicode="&#x6b7;" horiz-adv-x="228" 
d="M123 913q-11 0 -19.5 8t-8.5 20q0 11 8.5 19.5t19.5 8.5t19.5 -8.5t8.5 -19.5q0 -12 -8.5 -20t-19.5 -8zM55 812q-12 0 -20.5 8.5t-8.5 19.5t8.5 19t20.5 8q11 0 19.5 -8t8.5 -19t-8.5 -19.5t-19.5 -8.5zM191 812q-11 0 -19.5 8.5t-8.5 19.5t8.5 19t19.5 8q12 0 20.5 -8
t8.5 -19t-8.5 -19.5t-20.5 -8.5zM0 0l-20 23l24 22q97 0 97 112v582l42 5v-590q0 -85 -37.5 -119.5t-105.5 -34.5z" />
    <glyph glyph-name="uni06B7.medi" unicode="&#x6b7;" horiz-adv-x="241" 
d="M121 914q-11 0 -19.5 8t-8.5 20q0 11 8.5 19.5t19.5 8.5t19.5 -8.5t8.5 -19.5q0 -12 -8.5 -20t-19.5 -8zM52 813q-11 0 -19.5 8.5t-8.5 19.5t8.5 19t19.5 8q12 0 20 -8t8 -19t-8 -19.5t-20 -8.5zM189 813q-11 0 -19.5 8.5t-8.5 19.5t8.5 19t19.5 8q12 0 20 -8t8 -19
t-8 -19.5t-20 -8.5zM245 45l17 -22l-21 -23q-89 0 -120 69q-30 -69 -121 -69l-20 23l24 22q51 0 73.5 26t22.5 80v589l42 5v-594q0 -106 103 -106z" />
    <glyph glyph-name="uni06B7.fina" unicode="&#x6b7;" horiz-adv-x="702" 
d="M560 912q-11 0 -19.5 8t-8.5 20q0 11 8.5 19.5t19.5 8.5t19.5 -8.5t8.5 -19.5q0 -12 -8.5 -20t-19.5 -8zM492 811q-12 0 -20.5 8.5t-8.5 19.5t8.5 19t20.5 8q11 0 19.5 -8t8.5 -19t-8.5 -19.5t-19.5 -8.5zM628 811q-11 0 -19.5 8.5t-8.5 19.5t8.5 19t19.5 8q12 0 20.5 -8
t8.5 -19t-8.5 -19.5t-20.5 -8.5zM706 45l16 -22l-20 -23q-89 0 -123 54q-7 -131 -78 -188.5t-201 -57.5q-126 0 -185 59t-59 162q0 90 40 178l32 -10q-31 -80 -31 -164q0 -180 207 -180q124 0 179 55t55 173v658l42 5v-564q0 -75 28 -105t98 -30z" />
    <glyph glyph-name="uni06B8.init" unicode="&#x6b8;" horiz-adv-x="228" 
d="M0 0l-20 23l24 22q97 0 97 112v582l42 5v-590q0 -85 -37.5 -119.5t-105.5 -34.5zM146 -140h-2q0 2 2 2q1 0 1 -2h-1zM74 -172l-1 1q0 2 1 2q2 0 2 -2q-1 -1 -2 -1zM143 -210l-2 1q0 2 2 2q1 0 1 -2q0 -1 -1 -1z" />
    <glyph glyph-name="uni06B8.medi" unicode="&#x6b8;" horiz-adv-x="241" 
d="M245 45l17 -22l-21 -23q-89 0 -120 69q-30 -69 -121 -69l-20 23l24 22q51 0 73.5 26t22.5 80v589l42 5v-594q0 -106 103 -106zM146 -138q1 0 1 -2h-1h-2q0 2 2 2zM74 -169q2 0 2 -2q-1 -1 -2 -1l-2 1q0 2 2 2zM142 -207q2 0 2 -2q0 -1 -2 -1l-1 1z" />
    <glyph glyph-name="uni06B8.fina" unicode="&#x6b8;" horiz-adv-x="702" 
d="M706 45l16 -22l-20 -23q-89 0 -123 54q-7 -131 -78 -188.5t-201 -57.5q-126 0 -185 59t-59 162q0 90 40 178l32 -10q-31 -80 -31 -164q0 -180 207 -180q124 0 179 55t55 173v658l42 5v-564q0 -75 28 -105t98 -30zM324 -328q1 0 1 -2h-1h-2q0 2 2 2zM252 -359q2 0 2 -2
q-1 -1 -2 -1l-1 1q0 2 1 2zM321 -397q1 0 1 -2q0 -1 -1 -1l-2 1q0 2 2 2z" />
    <glyph glyph-name="uni06B9.init" unicode="&#x6b9;" horiz-adv-x="261" 
d="M117 465q-13 0 -22 8.5t-9 21.5t9 22t22 9t22 -9t9 -22t-9 -21.5t-22 -8.5zM4 45q91 0 120.5 26.5t29.5 93.5q0 88 -43 209l44 14q40 -120 40 -225q0 -91 -40.5 -127t-154.5 -36l-20 23zM117 -172q-13 0 -22 9t-9 22t9 21.5t22 8.5t22 -8.5t9 -21.5t-9 -22t-22 -9z" />
    <glyph glyph-name="uni06B9.medi" unicode="&#x6b9;" horiz-adv-x="320" 
d="M159 392q-13 0 -22 8.5t-9 21.5t9 22t22 9t22 -9t9 -22t-9 -21.5t-22 -8.5zM324 45l16 -22l-20 -23q-123 0 -159 89q-33 -89 -161 -89l-20 23l25 22q75 0 104 30t29 91v149h43v-149q0 -121 143 -121zM160 -111q13 0 22 -8.5t9 -21.5t-9 -22t-22 -9t-22 9t-9 22t9 21.5
t22 8.5z" />
    <glyph glyph-name="uni06B9.fina" unicode="&#x6b9;" horiz-adv-x="707" 
d="M314 315q-13 0 -22 8.5t-9 21.5t9 22t22 9t22 -9t9 -22t-9 -21.5t-22 -8.5zM711 45l16 -22l-20 -23q-77 0 -113 47q-3 -153 -73.5 -220.5t-220.5 -67.5q-126 0 -185 59t-59 162q0 89 40 179l32 -11q-31 -80 -31 -164q0 -180 207 -180q136 0 192.5 58.5t56.5 190.5
q0 81 -56 223l45 20q29 -93 42 -148q15 -54 44 -78.5t83 -24.5zM314 -340q13 0 22 -8.5t9 -21.5t-9 -22t-22 -9t-22 9t-9 22t9 21.5t22 8.5z" />
    <glyph glyph-name="uni06BC.init" unicode="&#x6bc;" horiz-adv-x="261" 
d="M117 465q-13 0 -22 8.5t-9 21.5t9 22t22 9t22 -9t9 -22t-9 -21.5t-22 -8.5zM151 33q39 -19 39 -67q0 -33 -21.5 -54.5t-56.5 -21.5q-34 0 -56 22t-22 54q0 19 8 35q-13 -1 -42 -1l-20 23l24 22q91 0 120.5 26.5t29.5 93.5q0 88 -43 209l44 14q40 -120 40 -225
q0 -95 -44 -130zM112 -81q24 0 36.5 12.5t12.5 34.5t-13.5 34.5t-35.5 12.5h-1q-9 -3 -27 -7q-21 -11 -21 -40q0 -21 13 -34t36 -13z" />
    <glyph glyph-name="uni06BC.medi" unicode="&#x6bc;" horiz-adv-x="320" 
d="M159 392q-13 0 -22 8.5t-9 21.5t9 22t22 9t22 -9t9 -22t-9 -21.5t-22 -8.5zM324 45l16 -22l-20 -23q-123 0 -159 89q-11 -28 -28 -45q25 -8 40 -28t15 -46q0 -32 -21.5 -54t-56.5 -22q-34 0 -56.5 22t-22.5 54q0 18 7 32q-24 -2 -38 -2l-20 23l25 22q75 0 104 30t29 91
v149h43v-149q0 -121 143 -121zM159 -30q0 22 -13.5 34.5t-35.5 12.5t-35.5 -12.5t-13.5 -34.5q0 -21 13 -34t36 -13q24 0 36.5 12.5t12.5 34.5z" />
    <glyph glyph-name="uni06BC.fina" unicode="&#x6bc;" horiz-adv-x="707" 
d="M314 315q-13 0 -22 8.5t-9 21.5t9 22t22 9t22 -9t9 -22t-9 -21.5t-22 -8.5zM711 45l16 -22l-20 -23q-77 0 -113 47q-2 -140 -60 -207.5t-180 -78.5q13 -19 13 -44q0 -33 -21.5 -55t-56.5 -22q-34 0 -56.5 22t-22.5 55q0 28 17 48q-171 32 -171 215q0 89 40 179l32 -11
q-31 -80 -31 -164q0 -180 207 -180q136 0 192.5 58.5t56.5 190.5q0 81 -56 223l45 20q29 -93 42 -148q15 -54 44 -78.5t83 -24.5zM338 -283q0 30 -25 42h-13q-22 0 -33 1q-27 -12 -27 -43q0 -21 13 -34t36 -13t36 13t13 34z" />
    <glyph glyph-name="uni06BD.init" unicode="&#x6bd;" horiz-adv-x="261" 
d="M118 562q-11 0 -19.5 8t-8.5 20q0 11 8.5 19.5t19.5 8.5t19.5 -8.5t8.5 -19.5q0 -12 -8.5 -20t-19.5 -8zM50 461q-12 0 -20.5 8.5t-8.5 19.5t8.5 19t20.5 8q11 0 19.5 -8t8.5 -19t-8.5 -19.5t-19.5 -8.5zM186 461q-11 0 -19.5 8.5t-8.5 19.5t8.5 19t19.5 8q12 0 20.5 -8
t8.5 -19t-8.5 -19.5t-20.5 -8.5zM4 45q91 0 120.5 26.5t29.5 93.5q0 88 -43 209l44 14q40 -120 40 -225q0 -91 -40.5 -127t-154.5 -36l-20 23z" />
    <glyph glyph-name="uni06BD.medi" unicode="&#x6bd;" horiz-adv-x="320" 
d="M160 489q-11 0 -19.5 8t-8.5 20q0 11 8.5 19.5t19.5 8.5t19.5 -8.5t8.5 -19.5q0 -12 -8.5 -20t-19.5 -8zM92 388q-12 0 -20.5 8.5t-8.5 19.5t8.5 19t20.5 8q11 0 19.5 -8t8.5 -19t-8.5 -19.5t-19.5 -8.5zM228 388q-11 0 -19.5 8.5t-8.5 19.5t8.5 19t19.5 8q12 0 20.5 -8
t8.5 -19t-8.5 -19.5t-20.5 -8.5zM324 45l16 -22l-20 -23q-123 0 -159 89q-33 -89 -161 -89l-20 23l25 22q75 0 104 30t29 91v149h43v-149q0 -121 143 -121z" />
    <glyph glyph-name="uni06BD.fina" unicode="&#x6bd;" horiz-adv-x="707" 
d="M315 412q-11 0 -19.5 8t-8.5 20q0 11 8.5 19.5t19.5 8.5t19.5 -8.5t8.5 -19.5q0 -12 -8.5 -20t-19.5 -8zM247 311q-12 0 -20.5 8.5t-8.5 19.5t8.5 19t20.5 8q11 0 19.5 -8t8.5 -19t-8.5 -19.5t-19.5 -8.5zM383 311q-11 0 -19.5 8.5t-8.5 19.5t8.5 19t19.5 8q12 0 20.5 -8
t8.5 -19t-8.5 -19.5t-20.5 -8.5zM711 45l16 -22l-20 -23q-77 0 -113 47q-3 -153 -73.5 -220.5t-220.5 -67.5q-126 0 -185 59t-59 162q0 89 40 179l32 -11q-31 -80 -31 -164q0 -180 207 -180q136 0 192.5 58.5t56.5 190.5q0 81 -56 223l45 20q29 -93 42 -148q15 -54 44 -78.5
t83 -24.5z" />
    <glyph glyph-name="uni06BF.init" unicode="&#x6bf;" horiz-adv-x="691" 
d="M219 496q-13 0 -22 8.5t-9 21.5t9 22t22 9t22 -9t9 -22t-9 -21.5t-22 -8.5zM220 432q53 0 93.5 -17t71.5 -44.5t62 -56.5t82 -59.5t116 -48.5l-7 -40l-53 -5q-70 -3 -136.5 -20.5t-119 -40.5t-103.5 -46t-109 -38.5t-117 -15.5l-20 23l24 24q66 0 136 22t123.5 49
t134.5 52t164 30q-50 18 -92 44.5t-68 50t-52 45t-58.5 34t-73.5 12.5q-57 0 -116 -35l-22 40q69 41 140 41zM320 -138q1 0 1 -2h-1h-2q0 2 2 2zM248 -169q2 0 2 -2q-1 -1 -2 -1l-1 1q0 2 1 2zM317 -207q1 0 1 -2q0 -1 -1 -1l-2 1q0 2 2 2z" />
    <glyph glyph-name="uni06BF.medi" unicode="&#x6bf;" horiz-adv-x="733" 
d="M219 497q-13 0 -22 8.5t-9 21.5t9 22t22 9t22 -9t9 -22t-9 -21.5t-22 -8.5zM737 45l16 -22l-20 -23q-203 0 -234 189q-55 -14 -123 -47.5t-119.5 -63.5t-121.5 -54t-135 -24l-20 23l24 22q66 0 138 26.5t126 59t130 63.5t148 39q-59 19 -107.5 48t-74.5 51t-63 38.5
t-82 16.5q-57 0 -120 -34l-21 39q73 40 141 40q50 0 87.5 -13.5t67 -35.5t60 -46.5t82.5 -51.5t118 -44l-6 -40l-51 -1q-28 -2 -44 -4q18 -86 67 -118.5t137 -32.5zM405 -88q1 0 1 -2h-1h-2q0 2 2 2zM333 -119q2 0 2 -2q-1 -1 -2 -1l-1 1q0 2 1 2zM402 -157q1 0 1 -2
q0 -1 -1 -1l-2 1q0 2 2 2z" />
    <glyph glyph-name="uni06BF.fina" unicode="&#x6bf;" horiz-adv-x="687" 
d="M224 496q-13 0 -22 8.5t-9 21.5t9 22t22 9t22 -9t9 -22t-9 -21.5t-22 -8.5zM687 0q-98 0 -155.5 47.5t-72.5 154.5q-172 -21 -261 -94t-89 -188q0 -100 72 -162t208 -62q125 0 215 46l17 -40q-93 -52 -236 -52q-154 0 -234.5 74t-80.5 191q0 144 112 229.5t322 98.5
q-46 18 -87.5 45.5t-65 47.5t-57 35t-71.5 15q-65 0 -123 -35l-21 40q68 41 147 41q42 0 77.5 -14.5t63.5 -37.5t57 -47.5t72.5 -48t95.5 -35.5l-5 -40l-46 -1l-47 -3q17 -91 64 -125.5t134 -34.5l15 -22zM383 -24q1 1 2 1l1 -1q0 -1 -1 -1q-2 0 -2 1zM312 -56q0 2 1 2
q2 0 2 -2q-1 -1 -2 -1zM380 -93q1 1 2 1l1 -1q0 -2 -1 -2q-2 0 -2 2z" />
    <glyph glyph-name="uni06C2.fina" unicode="&#x6c2;" horiz-adv-x="568" 
d="M157 307l-4 29l71 11q-52 35 -52 78q0 33 24 55t69 22q33 0 65 -17l-15 -26q-28 14 -52 14q-60 0 -60 -49q0 -38 55 -71l88 14l4 -28zM572 45l16 -22l-20 -23q-62 0 -107.5 21t-70 51.5t-43.5 61t-42 51.5t-53 21q-107 0 -180 -241l-45 9q41 142 99 210t126 68
q36 0 63 -15.5t43 -38.5t35.5 -49.5t39.5 -49.5t56 -38.5t83 -15.5z" />
    <glyph glyph-name="uni06C3.fina" unicode="&#x6c3;" horiz-adv-x="568" 
d="M186 345q-12 0 -20.5 8.5t-8.5 20.5q0 11 8.5 20t20.5 9t20 -8.5t8 -20.5t-8 -20.5t-20 -8.5zM318 345q-12 0 -20 8.5t-8 20.5t8 20.5t20 8.5t20.5 -9t8.5 -20q0 -12 -8.5 -20.5t-20.5 -8.5zM72 -35l-45 9q41 142 99 210t126 68q36 0 63 -15.5t43 -38.5t35.5 -49.5
t39.5 -49.5t56 -38.5t83 -15.5l16 -22l-20 -23q-62 0 -107.5 21t-70 51.5t-43.5 61t-42 51.5t-53 21q-107 0 -180 -241z" />
    <glyph glyph-name="uni06C4.fina" unicode="&#x6c4;" horiz-adv-x="523" 
d="M543 23l-20 -23h-110q-23 -100 -105.5 -163t-238.5 -89l-13 44l61 12q-37 23 -37 66q0 33 22.5 55t56.5 22q33 0 55.5 -22t22.5 -55q0 -14 -4 -25q110 54 138 155h-87q-101 0 -155 46.5t-54 123.5q0 74 49 128.5t121 54.5q79 0 128 -69t49 -192q0 -17 -2 -47h107z
M115 173q0 -128 176 -128h89q2 28 2 42q0 108 -36.5 164.5t-101.5 56.5q-56 0 -92.5 -40t-36.5 -95zM159 -83q-22 0 -35.5 -12.5t-13.5 -34.5t13 -35t36 -13q24 0 36.5 13t12.5 35t-13.5 34.5t-35.5 12.5z" />
    <glyph glyph-name="uni06CA.fina" unicode="&#x6ca;" horiz-adv-x="523" 
d="M183 451q-12 0 -20.5 8.5t-8.5 20.5q0 11 8.5 20t20.5 9t20 -8.5t8 -20.5t-8 -20.5t-20 -8.5zM315 451q-12 0 -20 8.5t-8 20.5t8 20.5t20 8.5t20.5 -9t8.5 -20q0 -12 -8.5 -20.5t-20.5 -8.5zM543 23l-20 -23h-110q-23 -100 -105.5 -163t-238.5 -89l-13 44
q142 24 217.5 75.5t97.5 132.5h-87q-101 0 -155 46.5t-54 123.5q0 74 49 128.5t121 54.5q79 0 128 -69t49 -192q0 -17 -2 -47h107zM115 173q0 -128 176 -128h89q2 28 2 42q0 108 -36.5 164.5t-101.5 56.5q-56 0 -92.5 -40t-36.5 -95z" />
    <glyph glyph-name="uni06CD.fina" unicode="&#x6cd;" horiz-adv-x="743" 
d="M763 23l-20 -23q-53 0 -102 22q12 -18 12 -41q0 -73 -85 -125.5t-242 -52.5q-126 0 -185 59t-59 162q0 60 18 121q-43 -24 -97 -34l-4 25q73 19 123 67l32 -10q-31 -80 -31 -164q0 -180 207 -180q135 0 209.5 42t74.5 94q0 28 -35 49t-145 57l19 39q42 -14 92.5 -33
t75.5 -28.5t58.5 -16.5t67.5 -7z" />
    <glyph glyph-name="uni06CE.init" unicode="&#x6ce;" horiz-adv-x="261" 
d="M51 597l66 -113l66 113l25 -10l-77 -139h-29l-76 139zM4 45q91 0 120.5 26.5t29.5 93.5q0 88 -43 209l44 14q40 -120 40 -225q0 -91 -40.5 -127t-154.5 -36l-20 23zM51 -170q-12 0 -20.5 8.5t-8.5 19.5q0 12 8.5 20.5t20.5 8.5t20 -8.5t8 -20.5q0 -11 -8 -19.5t-20 -8.5z
M183 -170q-12 0 -20 8t-8 20t8 20.5t20 8.5t20.5 -8.5t8.5 -20.5q0 -11 -8.5 -19.5t-20.5 -8.5z" />
    <glyph glyph-name="uni06CE.medi" unicode="&#x6ce;" horiz-adv-x="320" 
d="M174 375h-29l-76 139l25 10l66 -113l66 113l25 -10zM324 45l16 -22l-20 -23q-123 0 -159 89q-33 -89 -161 -89l-20 23l25 22q75 0 104 30t29 91v149h43v-149q0 -121 143 -121zM94 -113q12 0 20 -8.5t8 -20.5q0 -11 -8 -19.5t-20 -8.5t-20.5 8.5t-8.5 19.5q0 12 8.5 20.5
t20.5 8.5zM226 -113q12 0 20.5 -8.5t8.5 -20.5q0 -11 -8.5 -19.5t-20.5 -8.5t-20 8t-8 20t8 20.5t20 8.5z" />
    <glyph glyph-name="uni06CE.fina" unicode="&#x6ce;" horiz-adv-x="717" 
d="M154 294h-29l-76 139l25 10l66 -113l66 113l25 -10zM737 23l-20 -23q-53 0 -102 22q12 -18 12 -41q0 -73 -85 -125.5t-242 -52.5q-126 0 -185 59t-59 162q0 91 40 179l32 -10q-31 -80 -31 -164q0 -180 207 -180q135 0 209.5 42t74.5 94q0 28 -34.5 49t-145.5 57l19 39
q42 -14 92.5 -33t75.5 -28.5t58.5 -16.5t67.5 -7z" />
    <glyph glyph-name="uni06CF.fina" unicode="&#x6cf;" horiz-adv-x="523" 
d="M248 423q-13 0 -22 8.5t-9 21.5t9 22t22 9t22 -9t9 -22t-9 -21.5t-22 -8.5zM543 23l-20 -23h-110q-23 -100 -105.5 -163t-238.5 -89l-13 44q142 24 217.5 75.5t97.5 132.5h-87q-101 0 -155 46.5t-54 123.5q0 74 49 128.5t121 54.5q79 0 128 -69t49 -192q0 -17 -2 -47h107
zM115 173q0 -128 176 -128h89q2 28 2 42q0 108 -36.5 164.5t-101.5 56.5q-56 0 -92.5 -40t-36.5 -95z" />
    <glyph glyph-name="uni06D1.init" unicode="&#x6d1;" horiz-adv-x="261" 
d="M4 45q91 0 120.5 26.5t29.5 93.5q0 88 -43 209l44 14q40 -120 40 -225q0 -91 -40.5 -127t-154.5 -36l-20 23zM142 -140h-2q0 2 2 2q1 0 1 -2h-1zM70 -172l-1 1q0 2 1 2q2 0 2 -2q-1 -1 -2 -1zM139 -210l-2 1q0 2 2 2q1 0 1 -2q0 -1 -1 -1z" />
    <glyph glyph-name="uni06D1.medi" unicode="&#x6d1;" horiz-adv-x="320" 
d="M324 45l16 -22l-20 -23q-123 0 -159 89q-33 -89 -161 -89l-20 23l25 22q75 0 104 30t29 91v149h43v-149q0 -121 143 -121zM185 -138q1 0 1 -2h-1h-2q0 2 2 2zM113 -169q2 0 2 -2q-1 -1 -2 -1l-1 1q0 2 1 2zM182 -207q1 0 1 -2q0 -1 -1 -1l-2 1q0 2 2 2z" />
    <glyph glyph-name="uni06D1.fina" unicode="&#x6d1;" horiz-adv-x="717" 
d="M737 23l-20 -23q-53 0 -102 22q12 -18 12 -41q0 -73 -85 -125.5t-242 -52.5q-126 0 -185 59t-59 162q0 91 40 179l32 -10q-31 -80 -31 -164q0 -180 207 -180q135 0 209.5 42t74.5 94q0 28 -34.5 49t-145.5 57l19 39q42 -14 92.5 -33t75.5 -28.5t58.5 -16.5t67.5 -7z
M329 -324q1 0 1 -2h-1h-2q0 2 2 2zM257 -355q2 0 2 -2q-1 -1 -2 -1l-1 1q0 2 1 2zM326 -393q1 0 1 -2q0 -1 -1 -1l-2 1q0 2 2 2z" />
    <glyph glyph-name="uni06D5.fina" unicode="&#x6d5;" horiz-adv-x="493" 
d="M497 45l16 -23l-20 -22h-14q-113 0 -136 115q-26 -35 -69 -56t-92 -21q-72 0 -113.5 37.5t-41.5 97.5q0 85 81 141.5t229 64.5v110l42 6v-320q0 -69 26 -99.5t78 -30.5h14zM188 82q48 0 87 20.5t62 53.5v179q-133 -4 -201 -47.5t-68 -110.5q0 -43 30 -69t90 -26z" />
    <glyph glyph-name="uni06EE.fina" unicode="&#x6ee;" horiz-adv-x="513" 
d="M180 682l-66 -113l-25 10l76 139h29l77 -139l-25 -10zM516 45l17 -22l-20 -23q-94 0 -130 80q-63 -93 -203 -93q-74 0 -153 27l14 45q73 -25 142 -25q119 0 185 77l-149 359l45 21l134 -347q21 -55 45.5 -77t72.5 -22z" />
    <glyph glyph-name="uni06FA.init" unicode="&#x6fa;" horiz-adv-x="805" 
d="M449 489q-11 0 -19.5 8t-8.5 20q0 11 8.5 19.5t19.5 8.5t19.5 -8.5t8.5 -19.5q0 -12 -8.5 -20t-19.5 -8zM381 388q-12 0 -20.5 8.5t-8.5 19.5t8.5 19t20.5 8q11 0 19.5 -8t8.5 -19t-8.5 -19.5t-19.5 -8.5zM517 388q-11 0 -19.5 8.5t-8.5 19.5t8.5 19t19.5 8q12 0 20.5 -8
t8.5 -19t-8.5 -19.5t-20.5 -8.5zM699 387q40 -110 40 -218q0 -85 -39 -127t-111 -42q-50 0 -86 22t-51 61q-35 -83 -134 -83q-108 0 -137 81q-37 -81 -181 -81l-20 23l24 22q157 0 157 112v158h41v-147q0 -65 29.5 -94t87.5 -29q53 0 81.5 31.5t28.5 90.5v148h42v-147
q0 -123 121 -123q105 0 105 119q0 96 -39 209zM456 -111q13 0 22 -8.5t9 -21.5t-9 -22t-22 -9t-22 9t-9 22t9 21.5t22 8.5z" />
    <glyph glyph-name="uni06FA.medi" unicode="&#x6fa;" horiz-adv-x="925" 
d="M463 489q-11 0 -19.5 8t-8.5 20q0 11 8.5 19.5t19.5 8.5t19.5 -8.5t8.5 -19.5q0 -12 -8.5 -20t-19.5 -8zM395 388q-12 0 -20.5 8.5t-8.5 19.5t8.5 19t20.5 8q11 0 19.5 -8t8.5 -19t-8.5 -19.5t-19.5 -8.5zM531 388q-11 0 -19.5 8.5t-8.5 19.5t8.5 19t19.5 8q12 0 20.5 -8
t8.5 -19t-8.5 -19.5t-20.5 -8.5zM929 45l16 -22l-20 -23q-151 0 -181 80q-36 -80 -140 -80q-106 0 -140 82q-32 -82 -135 -82q-51 0 -88.5 22t-50.5 60q-38 -82 -190 -82l-20 23l25 22q164 0 164 112v158h42v-147q0 -123 119 -123q112 0 112 122v148h42v-147
q0 -123 121 -123q111 0 111 114v207h43v-189q0 -74 37.5 -103t132.5 -29zM463 -111q13 0 22 -8.5t9 -21.5t-9 -22t-22 -9t-22 9t-9 22t9 21.5t22 8.5z" />
    <glyph glyph-name="uni06FA.fina" unicode="&#x6fa;" horiz-adv-x="1299" 
d="M839 489q-11 0 -19.5 8t-8.5 20q0 11 8.5 19.5t19.5 8.5t19.5 -8.5t8.5 -19.5q0 -12 -8.5 -20t-19.5 -8zM771 388q-12 0 -20.5 8.5t-8.5 19.5t8.5 19t20.5 8q11 0 19.5 -8t8.5 -19t-8.5 -19.5t-19.5 -8.5zM907 388q-11 0 -19.5 8.5t-8.5 19.5t8.5 19t19.5 8q12 0 20.5 -8
t8.5 -19t-8.5 -19.5t-20.5 -8.5zM1303 45l16 -22l-20 -23q-151 0 -181 81q-35 -81 -141 -81q-102 0 -136 82q-31 -82 -134 -82q-77 0 -113 47q-3 -153 -73.5 -220.5t-220.5 -67.5q-126 0 -185 59t-59 162q0 89 40 179l32 -11q-31 -80 -31 -164q0 -180 207 -180
q136 0 192.5 58.5t56.5 190.5q0 81 -56 223l45 20q29 -93 42 -148q15 -54 44 -78.5t83 -24.5q107 0 107 122v148h42v-147q0 -123 119 -123q54 0 83 29t29 85l-1 197h43v-179q0 -74 37.5 -103t132.5 -29zM840 -111q13 0 22 -8.5t9 -21.5t-9 -22t-22 -9t-22 9t-9 22t9 21.5
t22 8.5z" />
    <glyph glyph-name="uni06FB.init" unicode="&#x6fb;" horiz-adv-x="919" 
d="M618 478q-13 0 -22 9t-9 22t9 21.5t22 8.5t21.5 -8.5t8.5 -21.5t-8.5 -22t-21.5 -9zM652 429q96 0 148.5 -58t52.5 -162q0 -126 -85.5 -167.5t-316.5 -41.5h-142q-118 0 -154 86q-31 -86 -155 -86l-20 23l25 22q72 0 100 29t28 89v211h42v-211q0 -108 115 -117
q55 176 151.5 279.5t210.5 103.5zM451 45q207 0 284.5 33.5t77.5 131.5q0 172 -158 172q-200 0 -326 -337h122zM485 -111q13 0 22 -8.5t9 -21.5t-9 -22t-22 -9t-21.5 9t-8.5 22t8.5 21.5t21.5 8.5z" />
    <glyph glyph-name="uni06FB.medi" unicode="&#x6fb;" horiz-adv-x="953" 
d="M618 478q-13 0 -22 9t-9 22t9 21.5t22 8.5t21.5 -8.5t8.5 -21.5t-8.5 -22t-21.5 -9zM958 45l15 -22l-20 -23q-88 0 -141 74q-39 -42 -123.5 -58t-237.5 -16h-142q-118 0 -154 86q-31 -86 -155 -86l-20 23l25 22q72 0 100 29t28 89v211h42v-211q0 -108 115 -117
q55 176 151.5 279.5t210.5 103.5q96 0 148.5 -58t52.5 -162q0 -64 -20 -103q46 -61 125 -61zM451 45q207 0 284.5 33.5t77.5 131.5q0 172 -158 172q-200 0 -326 -337h122zM485 -111q13 0 22 -8.5t9 -21.5t-9 -22t-22 -9t-21.5 9t-8.5 22t8.5 21.5t21.5 8.5z" />
    <glyph glyph-name="uni06FB.fina" unicode="&#x6fb;" horiz-adv-x="1351" 
d="M1016 478q-13 0 -22 8.5t-9 21.5t9 22t22 9t22 -9t9 -22t-9 -21.5t-22 -8.5zM1355 45l16 -22l-20 -23q-88 0 -142 75q-39 -43 -123 -59t-237 -16h-142v3q-77 0 -113 47q-3 -153 -73.5 -220.5t-220.5 -67.5q-126 0 -185 59t-59 162q0 89 40 179l32 -11q-31 -80 -31 -164
q0 -180 207 -180q136 0 192.5 58.5t56.5 190.5q0 81 -56 223l45 20q29 -93 42 -148q14 -49 38.5 -73.5t66.5 -28.5q55 175 151 277.5t209 102.5q97 0 149 -58t52 -162q0 -64 -20 -103q46 -61 125 -61zM849 45q206 0 283.5 33.5t77.5 131.5q0 172 -158 172q-201 0 -325 -337
h122zM883 -111q13 0 22 -8.5t9 -21.5t-9 -22t-22 -9t-22 9t-9 22t9 21.5t22 8.5z" />
    <glyph glyph-name="uni06FC.init" unicode="&#x6fc;" horiz-adv-x="539" 
d="M272 483q-13 0 -22 8.5t-9 21.5t9 22t22 9t22 -9t9 -22t-9 -21.5t-22 -8.5zM511 97l5 -45q-129 -31 -215 -41.5t-209 -10.5h-92l-20 23l24 22h79q72 0 127 3q-136 75 -136 196q0 72 52 123.5t146 51.5q76 0 143 -37l-20 -42q-61 33 -123 33q-77 0 -116.5 -38t-39.5 -94
q0 -108 157 -189q92 10 238 45zM260 -111q13 0 22 -8.5t9 -21.5t-9 -22t-22 -9t-22 9t-9 22t9 21.5t22 8.5z" />
    <glyph glyph-name="uni06FC.medi" unicode="&#x6fc;" horiz-adv-x="549" 
d="M273 475q-13 0 -22 8.5t-9 21.5t9 22t22 9t22 -9t9 -22t-9 -21.5t-22 -8.5zM554 45l15 -23l-20 -22h-22q-125 0 -222 80q-69 -37 -146 -58.5t-134 -21.5h-25l-20 22l24 23h13q119 0 255 64q-17 17 -55 57t-76 75t-87 70l5 45q110 46 215 46q97 0 147.5 -33t50.5 -90
q0 -93 -127 -175q43 -32 84.5 -45.5t105.5 -13.5h19zM100 325q51 -37 122 -107.5t91 -87.5q120 69 120 145q0 83 -159 83q-87 0 -174 -33zM300 -111q13 0 22 -8.5t9 -21.5t-9 -22t-22 -9t-22 9t-9 22t9 21.5t22 8.5z" />
    <glyph glyph-name="uni06FC.fina" unicode="&#x6fc;" horiz-adv-x="556" 
d="M278 474q-13 0 -22 8.5t-9 21.5t9 22t22 9t22 -9t9 -22t-9 -21.5t-22 -8.5zM343 -304q115 0 200 44l18 -41q-90 -49 -223 -49q-137 0 -211 65.5t-74 164.5q0 172 188 253q-7 7 -32.5 33.5t-42.5 43t-49.5 45.5t-68.5 56l5 45q110 46 225 46q192 0 192 -118
q0 -50 -36.5 -87.5t-114.5 -73.5q56 -46 98.5 -62t114.5 -16h27l17 -22l-20 -23h-31q-71 0 -128 24t-123 79q-93 -41 -137 -93t-44 -125q0 -82 65.5 -135.5t184.5 -53.5zM93 324q50 -37 117.5 -101.5t74.5 -70.5q76 32 110.5 61t34.5 67q0 78 -152 78q-96 0 -185 -34z
M282 -106q0 13 9 21.5t22 8.5t22 -8.5t9 -21.5t-9 -22t-22 -9t-22 9t-9 22z" />
    <glyph glyph-name="uni06FF.init" unicode="&#x6ff;" horiz-adv-x="627" 
d="M357 645l-66 -113l-25 10l76 139h29l77 -139l-25 -10zM127 516q234 -130 334 -210.5t100 -156.5q0 -67 -50.5 -114.5t-115.5 -47.5q-94 0 -180 50q-84 -37 -194 -37h-21l-20 23l24 22h13q84 0 155 21q-108 83 -108 193q0 64 37.5 111t95.5 55q-43 25 -93 51zM101 257
q0 -50 32.5 -95t85.5 -77q58 28 88 72.5t30 97.5q0 58 -33.5 98t-83.5 40q-53 0 -86 -39t-33 -97zM395 33q49 0 88 30t39 77q0 76 -164 187q14 -34 14 -70q0 -121 -110 -195q68 -29 133 -29z" />
    <glyph glyph-name="uni06FF.medi" unicode="&#x6ff;" horiz-adv-x="484" 
d="M315 545l-67 -113l-25 10l77 139h29l77 -139l-25 -10zM506 23l-20 -23h-153q98 -42 98 -134q0 -52 -34.5 -86.5t-92.5 -34.5q-89 0 -147 71.5t-61 183.5h-96l-20 23l24 22h92q3 134 68.5 230t152.5 96q53 0 85.5 -34t32.5 -99q0 -54 -32.5 -109.5t-87.5 -83.5h175z
M310 326q-67 0 -119 -80.5t-57 -200.5h68q82 0 136.5 58t54.5 130q0 45 -22.5 69t-60.5 24zM391 -127q0 58 -50 92.5t-120 34.5h-88q5 -97 49.5 -153t117.5 -56q44 0 67.5 23.5t23.5 58.5z" />
    <glyph glyph-name="uni06FF.fina" unicode="&#x6ff;" horiz-adv-x="564" 
d="M395 545l-66 -113l-25 10l76 139h29l77 -139l-25 -10zM584 23l-20 -23h-152q97 -41 97 -134q0 -52 -34.5 -86.5t-92.5 -34.5q-88 0 -146 71.5t-61 183.5q-81 1 -139 29l21 39q49 -22 118 -23q4 135 68.5 230.5t151.5 95.5q53 0 85.5 -34t32.5 -99q0 -54 -32.5 -109.5
t-87.5 -83.5h175zM389 326q-68 0 -120 -80.5t-57 -200.5h69q82 0 136.5 58.5t54.5 129.5q0 45 -22.5 69t-60.5 24zM469 -127q0 58 -50 92.5t-120 34.5h-87q5 -96 49 -152.5t117 -56.5q44 0 67.5 23.5t23.5 58.5z" />
    <glyph glyph-name="uniFB51" unicode="&#x671;" horiz-adv-x="227" arabic-form="final" 
d="M127 798q-30 0 -87 17l-17 -41l-26 9l23 67q8 -3 34 -10q44 96 112 96q30 0 48.5 -17.5t18.5 -45.5q0 -37 -29 -56t-77 -19zM163 906q-47 0 -86 -72q30 -6 56 -6q71 0 71 42q0 36 -41 36zM231 45l16 -22l-20 -23q-143 0 -143 157v548l42 5v-550q0 -63 24.5 -89t80.5 -26z
" />
    <glyph glyph-name="uniFB53" unicode="&#x67b;" horiz-adv-x="896" arabic-form="final" 
d="M900 45l16 -21l-20 -24q-110 0 -158 84q-146 -97 -408 -97q-143 0 -208.5 45t-65.5 138q0 78 36 151l32 -11q-27 -67 -27 -135q0 -74 56 -108t181 -34q256 0 387 91v191h41v-157q0 -113 138 -113zM359 -96q11 0 19.5 -8t8.5 -21q0 -12 -8.5 -20t-19.5 -8q-12 0 -20.5 8
t-8.5 20q0 13 8.5 21t20.5 8zM359 -227q12 0 20 -8t8 -20t-8.5 -20.5t-19.5 -8.5q-12 0 -20.5 8.5t-8.5 20.5t8.5 20t20.5 8z" />
    <glyph glyph-name="uniFB54" unicode="&#x67b;" horiz-adv-x="261" arabic-form="initial" 
d="M4 45q91 0 120.5 26.5t29.5 93.5q0 88 -43 209l44 14q40 -120 40 -225q0 -91 -40.5 -127t-154.5 -36l-20 23zM117 -153q-12 0 -20.5 8t-8.5 20q0 13 8.5 21t20.5 8q11 0 19.5 -8t8.5 -21q0 -12 -8.5 -20t-19.5 -8zM117 -284q-12 0 -20.5 8.5t-8.5 20.5t8.5 20t20.5 8
t20 -8t8 -20t-8.5 -20.5t-19.5 -8.5z" />
    <glyph glyph-name="uniFB55" unicode="&#x67b;" horiz-adv-x="320" arabic-form="medial" 
d="M324 45l16 -22l-20 -23q-123 0 -159 89q-33 -89 -161 -89l-20 23l25 22q75 0 104 30t29 91v149h43v-149q0 -121 143 -121zM160 -96q12 0 20 -8t8 -21q0 -12 -8.5 -20t-19.5 -8q-12 0 -20.5 8t-8.5 20q0 13 8.5 21t20.5 8zM160 -227q12 0 20 -8t8 -20t-8.5 -20.5
t-19.5 -8.5q-12 0 -20.5 8.5t-8.5 20.5t8.5 20t20.5 8z" />
    <glyph glyph-name="uniFB57" unicode="&#x67e;" horiz-adv-x="896" arabic-form="final" 
d="M900 45l16 -21l-20 -24q-110 0 -158 84q-146 -97 -408 -97q-143 0 -208.5 45t-65.5 138q0 78 36 151l32 -11q-27 -67 -27 -135q0 -74 56 -108t181 -34q256 0 387 91v191h41v-157q0 -113 138 -113zM383 -138q1 0 1 -2h-1h-2q0 2 2 2zM311 -169q2 0 2 -2q-1 -1 -2 -1l-1 1
q0 2 1 2zM380 -207q1 0 1 -2q0 -1 -1 -1l-2 1q0 2 2 2z" />
    <glyph glyph-name="uniFB58" unicode="&#x67e;" horiz-adv-x="261" arabic-form="initial" 
d="M4 45q91 0 120.5 26.5t29.5 93.5q0 88 -43 209l44 14q40 -120 40 -225q0 -91 -40.5 -127t-154.5 -36l-20 23zM142 -140h-2q0 2 2 2q1 0 1 -2h-1zM70 -172l-1 1q0 2 1 2q2 0 2 -2q-1 -1 -2 -1zM139 -210l-2 1q0 2 2 2q1 0 1 -2q0 -1 -1 -1z" />
    <glyph glyph-name="uniFB59" unicode="&#x67e;" horiz-adv-x="320" arabic-form="medial" 
d="M324 45l16 -22l-20 -23q-123 0 -159 89q-33 -89 -161 -89l-20 23l25 22q75 0 104 30t29 91v149h43v-149q0 -121 143 -121zM185 -138q1 0 1 -2h-1h-2q0 2 2 2zM113 -169q2 0 2 -2q-1 -1 -2 -1l-1 1q0 2 1 2zM182 -207q1 0 1 -2q0 -1 -1 -1l-2 1q0 2 2 2z" />
    <glyph glyph-name="uniFB5B" unicode="&#x680;" horiz-adv-x="896" arabic-form="final" 
d="M900 45l16 -21l-20 -24q-110 0 -158 84q-146 -97 -408 -97q-143 0 -208.5 45t-65.5 138q0 78 36 151l32 -11q-27 -67 -27 -135q0 -74 56 -108t181 -34q256 0 387 91v191h41v-157q0 -113 138 -113zM293 -82q11 0 19 -8t8 -20q0 -11 -8 -19t-19 -8q-12 0 -20 8t-8 19
q0 12 8 20t20 8zM423 -82q12 0 19.5 -8t7.5 -20q0 -11 -7.5 -19t-19.5 -8t-20 8t-8 19q0 12 8 20t20 8zM293 -203q11 0 19 -8.5t8 -19.5q0 -12 -8 -20t-19 -8q-12 0 -20 8t-8 20q0 11 8 19.5t20 8.5zM423 -203q12 0 19.5 -8t7.5 -20t-7.5 -20t-19.5 -8t-20 8t-8 20
q0 11 8 19.5t20 8.5z" />
    <glyph glyph-name="uniFB5C" unicode="&#x680;" horiz-adv-x="261" arabic-form="initial" 
d="M4 45q91 0 120.5 26.5t29.5 93.5q0 88 -43 209l44 14q40 -120 40 -225q0 -91 -40.5 -127t-154.5 -36l-20 23zM52 -137q-12 0 -20 8t-8 19q0 12 8 20t20 8q11 0 19 -8t8 -20q0 -11 -8 -19t-19 -8zM182 -137q-12 0 -20 8t-8 19q0 12 8 20t20 8t19.5 -8t7.5 -20
q0 -11 -7.5 -19t-19.5 -8zM52 -259q-12 0 -20 8t-8 20q0 11 8 19.5t20 8.5q11 0 19 -8.5t8 -19.5q0 -12 -8 -20t-19 -8zM182 -259q-12 0 -20 8t-8 20q0 11 8 19.5t20 8.5t19.5 -8t7.5 -20t-7.5 -20t-19.5 -8z" />
    <glyph glyph-name="uniFB5D" unicode="&#x680;" horiz-adv-x="320" arabic-form="medial" 
d="M324 45l16 -22l-20 -23q-123 0 -159 89q-33 -89 -161 -89l-20 23l25 22q75 0 104 30t29 91v149h43v-149q0 -121 143 -121zM95 -82q11 0 19 -8t8 -20q0 -11 -8 -19t-19 -8q-12 0 -20 8t-8 19q0 12 8 20t20 8zM225 -82q12 0 19.5 -8t7.5 -20q0 -11 -7.5 -19t-19.5 -8t-20 8
t-8 19q0 12 8 20t20 8zM95 -203q11 0 19 -8.5t8 -19.5q0 -12 -8 -20t-19 -8q-12 0 -20 8t-8 20q0 11 8 19.5t20 8.5zM225 -203q12 0 19.5 -8t7.5 -20t-7.5 -20t-19.5 -8t-20 8t-8 20q0 11 8 19.5t20 8.5z" />
    <glyph glyph-name="uniFB5F" unicode="&#x67a;" horiz-adv-x="896" arabic-form="final" 
d="M415 498q-12 0 -20.5 8t-8.5 21q0 12 8.5 20.5t20.5 8.5q11 0 19.5 -8.5t8.5 -20.5q0 -13 -8.5 -21t-19.5 -8zM415 367q-12 0 -20.5 8.5t-8.5 20.5q0 13 8.5 21t20.5 8q11 0 19.5 -8.5t8.5 -20.5t-8.5 -20.5t-19.5 -8.5zM900 45l16 -21l-20 -24q-110 0 -158 84
q-146 -97 -408 -97q-143 0 -208.5 45t-65.5 138q0 78 36 151l32 -11q-27 -67 -27 -135q0 -74 56 -108t181 -34q256 0 387 91v191h41v-157q0 -113 138 -113z" />
    <glyph glyph-name="uniFB60" unicode="&#x67a;" horiz-adv-x="261" arabic-form="initial" 
d="M118 592q-12 0 -20.5 8t-8.5 21q0 12 8.5 20.5t20.5 8.5q11 0 19.5 -8.5t8.5 -20.5q0 -13 -8 -21t-20 -8zM118 461q-12 0 -20.5 8.5t-8.5 20.5q0 13 8.5 21t20.5 8t20 -8.5t8 -20.5t-8.5 -20.5t-19.5 -8.5zM4 45q91 0 120.5 26.5t29.5 93.5q0 88 -43 209l44 14
q40 -120 40 -225q0 -91 -40.5 -127t-154.5 -36l-20 23z" />
    <glyph glyph-name="uniFB61" unicode="&#x67a;" horiz-adv-x="320" arabic-form="medial" 
d="M160 519q-12 0 -20.5 8t-8.5 21q0 12 8.5 20.5t20.5 8.5q11 0 19.5 -8.5t8.5 -20.5t-8 -20.5t-20 -8.5zM160 388q-12 0 -20.5 8.5t-8.5 20.5q0 13 8.5 21t20.5 8t20 -8t8 -21q0 -12 -8.5 -20.5t-19.5 -8.5zM324 45l16 -22l-20 -23q-123 0 -159 89q-33 -89 -161 -89
l-20 23l25 22q75 0 104 30t29 91v149h43v-149q0 -121 143 -121z" />
    <glyph glyph-name="uniFB63" unicode="&#x67f;" horiz-adv-x="896" arabic-form="final" 
d="M349 478q-12 0 -19.5 7.5t-7.5 18.5q0 12 7.5 20.5t19.5 8.5t20 -8.5t8 -20.5q0 -11 -8 -18.5t-20 -7.5zM479 478q-11 0 -19 7.5t-8 18.5q0 12 8 20.5t19 8.5q12 0 20 -8.5t8 -20.5q0 -11 -8 -18.5t-20 -7.5zM349 356q-12 0 -19.5 8t-7.5 19q0 12 7.5 20t19.5 8t20 -8
t8 -20q0 -11 -8 -19t-20 -8zM479 356q-11 0 -19 8t-8 19q0 12 8 20t19 8q12 0 20 -8t8 -20q0 -11 -8 -19t-20 -8zM900 45l16 -21l-20 -24q-110 0 -158 84q-146 -97 -408 -97q-143 0 -208.5 45t-65.5 138q0 78 36 151l32 -11q-27 -67 -27 -135q0 -74 56 -108t181 -34
q256 0 387 91v191h41v-157q0 -113 138 -113z" />
    <glyph glyph-name="uniFB64" unicode="&#x67f;" horiz-adv-x="261" arabic-form="initial" 
d="M53 572q-12 0 -19.5 7.5t-7.5 18.5q0 12 7.5 20.5t19.5 8.5t20 -8.5t8 -20.5q0 -11 -8 -18.5t-20 -7.5zM183 572q-11 0 -19 7.5t-8 18.5q0 12 8 20.5t19 8.5q12 0 20 -8.5t8 -20.5q0 -11 -8 -18.5t-20 -7.5zM53 450q-12 0 -19.5 8t-7.5 19q0 12 7.5 20t19.5 8t20 -8
t8 -20q0 -11 -8 -19t-20 -8zM183 450q-11 0 -19 8t-8 19q0 12 8 20t19 8q12 0 20 -8t8 -20q0 -11 -8 -19t-20 -8zM4 45q91 0 120.5 26.5t29.5 93.5q0 88 -43 209l44 14q40 -120 40 -225q0 -91 -40.5 -127t-154.5 -36l-20 23z" />
    <glyph glyph-name="uniFB65" unicode="&#x67f;" horiz-adv-x="320" arabic-form="medial" 
d="M95 499q-12 0 -19.5 7.5t-7.5 18.5q0 12 7.5 20.5t19.5 8.5t20 -8.5t8 -20.5q0 -11 -8 -18.5t-20 -7.5zM225 499q-11 0 -19 7.5t-8 18.5q0 12 8 20.5t19 8.5q12 0 20 -8.5t8 -20.5q0 -11 -8 -18.5t-20 -7.5zM95 377q-12 0 -19.5 8t-7.5 19q0 12 7.5 20t19.5 8t20 -8
t8 -20q0 -11 -8 -19t-20 -8zM225 377q-11 0 -19 8t-8 19q0 12 8 20t19 8q12 0 20 -8t8 -20q0 -11 -8 -19t-20 -8zM324 45l16 -22l-20 -23q-123 0 -159 89q-33 -89 -161 -89l-20 23l25 22q75 0 104 30t29 91v149h43v-149q0 -121 143 -121z" />
    <glyph glyph-name="uniFB67" unicode="&#x679;" horiz-adv-x="896" arabic-form="final" 
d="M532 443q0 -30 -23 -53.5t-69 -23.5h-145l3 28h22q4 7 16 27v147h28v-107q47 59 96 59q32 0 52 -22t20 -55zM348 394h86q70 0 70 50q0 47 -47 47q-54 0 -109 -97zM900 45l16 -21l-20 -24q-110 0 -158 84q-146 -97 -408 -97q-143 0 -208.5 45t-65.5 138q0 78 36 151
l32 -11q-27 -67 -27 -135q0 -74 56 -108t181 -34q256 0 387 91v191h41v-157q0 -113 138 -113z" />
    <glyph glyph-name="uniFB68" unicode="&#x679;" horiz-adv-x="261" arabic-form="initial" 
d="M164 614q32 0 52 -22t20 -55q0 -30 -23 -53.5t-69 -23.5h-145l3 28h22q4 7 16 27v147h28v-107q47 59 96 59zM138 488q70 0 70 50q0 47 -47 47q-54 0 -109 -97h86zM111 374l44 14q40 -120 40 -225q0 -91 -40.5 -127t-154.5 -36l-20 23l24 22q91 0 120.5 26.5t29.5 93.5
q0 88 -43 209z" />
    <glyph glyph-name="uniFB69" unicode="&#x679;" horiz-adv-x="320" arabic-form="medial" 
d="M278 464q0 -30 -23 -53.5t-69 -23.5h-145l3 28h22q3 7 16 27v147h28v-107q47 59 96 59q32 0 52 -22t20 -55zM94 415h86q70 0 70 50q0 47 -47 47q-54 0 -109 -97zM324 45l16 -22l-20 -23q-123 0 -159 89q-33 -89 -161 -89l-20 23l25 22q75 0 104 30t29 91v149h43v-149
q0 -121 143 -121z" />
    <glyph glyph-name="uniFB6B" unicode="&#x6a4;" horiz-adv-x="957" arabic-form="final" 
d="M714 617q-11 0 -19.5 8t-8.5 20q0 11 8.5 19.5t19.5 8.5t19.5 -8.5t8.5 -19.5q0 -12 -8.5 -20t-19.5 -8zM646 516q-12 0 -20.5 8.5t-8.5 19.5t8.5 19t20.5 8q11 0 19.5 -8t8.5 -19t-8.5 -19.5t-19.5 -8.5zM782 516q-11 0 -19.5 8.5t-8.5 19.5t8.5 19t19.5 8q12 0 20.5 -8
t8.5 -19t-8.5 -19.5t-20.5 -8.5zM960 45l17 -22l-20 -23h-33q-110 0 -211 49q-146 -62 -383 -62q-143 0 -208.5 45t-65.5 138q0 78 36 151l32 -11q-27 -67 -27 -135q0 -74 56 -108t181 -34q205 0 334 42q-119 77 -119 189q0 78 47.5 134t116.5 56q78 0 125.5 -55.5
t47.5 -136.5q0 -114 -127 -189q79 -28 165 -28h36zM589 264q0 -108 124 -171q133 60 133 169q0 64 -35.5 105t-95.5 41q-55 0 -90.5 -40.5t-35.5 -103.5z" />
    <glyph glyph-name="uniFB6C" unicode="&#x6a4;" horiz-adv-x="454" arabic-form="initial" 
d="M210 703q-11 0 -19.5 8t-8.5 20q0 11 8.5 19.5t19.5 8.5t19.5 -8.5t8.5 -19.5q0 -12 -8.5 -20t-19.5 -8zM142 602q-12 0 -20.5 8.5t-8.5 19.5t8.5 19t20.5 8q11 0 19.5 -8t8.5 -19t-8.5 -19.5t-19.5 -8.5zM278 602q-11 0 -19.5 8.5t-8.5 19.5t8.5 19t19.5 8q12 0 20.5 -8
t8.5 -19t-8.5 -19.5t-20.5 -8.5zM211 538q79 0 128 -69.5t49 -194.5q0 -74 -16 -122t-58 -84t-118.5 -52t-195.5 -16l-20 24l24 21q103 0 170 11t103.5 35.5t51.5 55.5t19 78q-46 -40 -128 -40q-81 0 -130 47.5t-49 122.5q0 74 49 128.5t121 54.5zM233 227q65 0 116 30v11
q0 111 -37 168t-102 57q-56 0 -92.5 -40t-36.5 -96q0 -60 39.5 -95t112.5 -35z" />
    <glyph glyph-name="uniFB6D" unicode="&#x6a4;" horiz-adv-x="488" arabic-form="medial" 
d="M245 615q-11 0 -19.5 8t-8.5 20q0 11 8.5 19.5t19.5 8.5t19.5 -8.5t8.5 -19.5q0 -12 -8.5 -20t-19.5 -8zM177 514q-12 0 -20.5 8.5t-8.5 19.5t8.5 19t20.5 8q11 0 19.5 -8t8.5 -19t-8.5 -19.5t-19.5 -8.5zM313 514q-11 0 -19.5 8.5t-8.5 19.5t8.5 19t19.5 8q12 0 20.5 -8
t8.5 -19t-8.5 -19.5t-20.5 -8.5zM492 45l16 -22l-20 -23h-33q-106 0 -204 46q-99 -46 -224 -46h-27l-20 23l24 22h28q98 0 173 26q-125 78 -125 193q0 78 48 134t116 56q78 0 125.5 -55.5t47.5 -136.5q0 -52 -32 -102.5t-90 -88.5q76 -26 160 -26h37zM120 264
q0 -110 131 -175q60 30 93 74.5t33 98.5q0 64 -35.5 105t-95.5 41q-55 0 -90.5 -41t-35.5 -103z" />
    <glyph glyph-name="uniFB6F" unicode="&#x6a6;" horiz-adv-x="957" arabic-form="final" 
d="M649 627q-12 0 -19.5 7.5t-7.5 18.5q0 12 7.5 20.5t19.5 8.5t20 -8.5t8 -20.5q0 -11 -8 -18.5t-20 -7.5zM779 627q-11 0 -19 7.5t-8 18.5q0 12 8 20.5t19 8.5q12 0 20 -8.5t8 -20.5q0 -11 -8 -18.5t-20 -7.5zM649 505q-12 0 -19.5 8t-7.5 19q0 12 7.5 20t19.5 8t20 -8
t8 -20q0 -11 -8 -19t-20 -8zM779 505q-11 0 -19 8t-8 19q0 12 8 20t19 8q12 0 20 -8t8 -20q0 -11 -8 -19t-20 -8zM960 45l17 -22l-20 -23h-33q-110 0 -211 49q-146 -62 -383 -62q-143 0 -208.5 45t-65.5 138q0 78 36 151l32 -11q-27 -67 -27 -135q0 -74 56 -108t181 -34
q205 0 334 42q-119 77 -119 189q0 78 47.5 134t116.5 56q78 0 125.5 -55.5t47.5 -136.5q0 -114 -127 -189q79 -28 165 -28h36zM589 264q0 -108 124 -171q133 60 133 169q0 64 -35.5 105t-95.5 41q-55 0 -90.5 -40.5t-35.5 -103.5z" />
    <glyph glyph-name="uniFB70" unicode="&#x6a6;" horiz-adv-x="454" arabic-form="initial" 
d="M145 713q-12 0 -19.5 7.5t-7.5 18.5q0 12 7.5 20.5t19.5 8.5t20 -8.5t8 -20.5q0 -11 -8 -18.5t-20 -7.5zM275 713q-11 0 -19 7.5t-8 18.5q0 12 8 20.5t19 8.5q12 0 20 -8.5t8 -20.5q0 -11 -8 -18.5t-20 -7.5zM145 591q-12 0 -19.5 8t-7.5 19q0 12 7.5 20t19.5 8t20 -8
t8 -20q0 -11 -8 -19t-20 -8zM275 591q-11 0 -19 8t-8 19q0 12 8 20t19 8q12 0 20 -8t8 -20q0 -11 -8 -19t-20 -8zM211 538q79 0 128 -69.5t49 -194.5q0 -74 -16 -122t-58 -84t-118.5 -52t-195.5 -16l-20 24l24 21q103 0 170 11t103.5 35.5t51.5 55.5t19 78q-46 -40 -128 -40
q-81 0 -130 47.5t-49 122.5q0 74 49 128.5t121 54.5zM233 227q65 0 116 30v11q0 111 -37 168t-102 57q-56 0 -92.5 -40t-36.5 -96q0 -60 39.5 -95t112.5 -35z" />
    <glyph glyph-name="uniFB71" unicode="&#x6a6;" horiz-adv-x="488" arabic-form="medial" 
d="M180 625q-12 0 -19.5 7.5t-7.5 18.5q0 12 7.5 20.5t19.5 8.5t20 -8.5t8 -20.5q0 -11 -8 -18.5t-20 -7.5zM310 625q-11 0 -19 7.5t-8 18.5q0 12 8 20.5t19 8.5q12 0 20 -8.5t8 -20.5q0 -11 -8 -18.5t-20 -7.5zM180 503q-12 0 -19.5 8t-7.5 19q0 12 7.5 20t19.5 8t20 -8
t8 -20q0 -11 -8 -19t-20 -8zM310 503q-11 0 -19 8t-8 19q0 12 8 20t19 8q12 0 20 -8t8 -20q0 -11 -8 -19t-20 -8zM492 45l16 -22l-20 -23h-33q-106 0 -204 46q-99 -46 -224 -46h-27l-20 23l24 22h28q98 0 173 26q-125 78 -125 193q0 78 48 134t116 56q78 0 125.5 -55.5
t47.5 -136.5q0 -52 -32 -102.5t-90 -88.5q76 -26 160 -26h37zM120 264q0 -110 131 -175q60 30 93 74.5t33 98.5q0 64 -35.5 105t-95.5 41q-55 0 -90.5 -41t-35.5 -103z" />
    <glyph glyph-name="uniFB73" unicode="&#x684;" horiz-adv-x="687" arabic-form="final" 
d="M687 0q-98 0 -155.5 47.5t-72.5 154.5q-172 -21 -261 -94t-89 -188q0 -100 72 -162t208 -62q125 0 215 46l17 -40q-93 -52 -236 -52q-154 0 -234.5 74t-80.5 191q0 144 112 229.5t322 98.5q-46 18 -87.5 45.5t-65 47.5t-57 35t-71.5 15q-65 0 -123 -35l-21 40
q68 41 147 41q42 0 77.5 -14.5t63.5 -37.5t57 -47.5t72.5 -48t95.5 -35.5l-5 -40l-46 -1l-47 -3q17 -91 64 -125.5t134 -34.5l15 -22zM361 22q12 0 20.5 -8t8.5 -21q0 -12 -8.5 -20t-20.5 -8t-20.5 8t-8.5 20t8.5 20.5t20.5 8.5zM333 -137q0 12 8.5 20t20.5 8t20 -8t8 -20
t-8.5 -20.5t-19.5 -8.5q-12 0 -20.5 8.5t-8.5 20.5z" />
    <glyph glyph-name="uniFB74" unicode="&#x684;" horiz-adv-x="691" arabic-form="initial" 
d="M220 432q53 0 93.5 -17t71.5 -44.5t62 -56.5t82 -59.5t116 -48.5l-7 -40l-53 -5q-70 -3 -136.5 -20.5t-119 -40.5t-103.5 -46t-109 -38.5t-117 -15.5l-20 23l24 24q66 0 136 22t123.5 49t134.5 52t164 30q-50 18 -92 44.5t-68 50t-52 45t-58.5 34t-73.5 12.5
q-57 0 -116 -35l-22 40q69 41 140 41zM295 -96q11 0 19.5 -8t8.5 -21q0 -12 -8.5 -20t-19.5 -8q-12 0 -20.5 8t-8.5 20q0 13 8.5 21t20.5 8zM295 -227q12 0 20 -8t8 -20t-8.5 -20.5t-19.5 -8.5q-12 0 -20.5 8.5t-8.5 20.5t8.5 20t20.5 8z" />
    <glyph glyph-name="uniFB75" unicode="&#x684;" horiz-adv-x="733" arabic-form="medial" 
d="M737 45l16 -22l-20 -23q-203 0 -234 189q-55 -14 -123 -47.5t-119.5 -63.5t-121.5 -54t-135 -24l-20 23l24 22q66 0 138 26.5t126 59t130 63.5t148 39q-59 19 -107.5 48t-74.5 51t-63 38.5t-82 16.5q-57 0 -120 -34l-21 39q73 40 141 40q50 0 87.5 -13.5t67 -35.5
t60 -46.5t82.5 -51.5t118 -44l-6 -40l-51 -1q-28 -2 -44 -4q18 -86 67 -118.5t137 -32.5zM380 -46q12 0 20 -8t8 -21q0 -12 -8.5 -20t-19.5 -8q-12 0 -20.5 8t-8.5 20q0 13 8.5 21t20.5 8zM380 -177q12 0 20 -8t8 -20t-8.5 -20.5t-19.5 -8.5q-12 0 -20.5 8.5t-8.5 20.5
t8.5 20t20.5 8z" />
    <glyph glyph-name="uniFB77" unicode="&#x683;" horiz-adv-x="687" arabic-form="final" 
d="M687 0q-98 0 -155.5 47.5t-72.5 154.5q-172 -21 -261 -94t-89 -188q0 -100 72 -162t208 -62q125 0 215 46l17 -40q-93 -52 -236 -52q-154 0 -234.5 74t-80.5 191q0 144 112 229.5t322 98.5q-46 18 -87.5 45.5t-65 47.5t-57 35t-71.5 15q-65 0 -123 -35l-21 40
q68 41 147 41q42 0 77.5 -14.5t63.5 -37.5t57 -47.5t72.5 -48t95.5 -35.5l-5 -40l-46 -1l-47 -3q17 -91 64 -125.5t134 -34.5l15 -22zM265 -69q0 12 8.5 20.5t20.5 8.5t20 -8.5t8 -20.5t-8 -20t-20 -8t-20.5 8t-8.5 20zM398 -69q0 12 8 20.5t20 8.5t20.5 -8.5t8.5 -20.5
t-8.5 -20t-20.5 -8q-13 0 -20.5 8t-7.5 20z" />
    <glyph glyph-name="uniFB78" unicode="&#x683;" horiz-adv-x="691" arabic-form="initial" 
d="M220 432q53 0 93.5 -17t71.5 -44.5t62 -56.5t82 -59.5t116 -48.5l-7 -40l-53 -5q-70 -3 -136.5 -20.5t-119 -40.5t-103.5 -46t-109 -38.5t-117 -15.5l-20 23l24 24q66 0 136 22t123.5 49t134.5 52t164 30q-50 18 -92 44.5t-68 50t-52 45t-58.5 34t-73.5 12.5
q-57 0 -116 -35l-22 40q69 41 140 41zM229 -113q12 0 20 -8.5t8 -20.5q0 -11 -8 -19.5t-20 -8.5t-20.5 8.5t-8.5 19.5q0 12 8.5 20.5t20.5 8.5zM361 -113q12 0 20.5 -8.5t8.5 -20.5q0 -11 -8.5 -19.5t-20.5 -8.5t-20 8t-8 20t8 20.5t20 8.5z" />
    <glyph glyph-name="uniFB79" unicode="&#x683;" horiz-adv-x="733" arabic-form="medial" 
d="M737 45l16 -22l-20 -23q-203 0 -234 189q-55 -14 -123 -47.5t-119.5 -63.5t-121.5 -54t-135 -24l-20 23l24 22q66 0 138 26.5t126 59t130 63.5t148 39q-59 19 -107.5 48t-74.5 51t-63 38.5t-82 16.5q-57 0 -120 -34l-21 39q73 40 141 40q50 0 87.5 -13.5t67 -35.5
t60 -46.5t82.5 -51.5t118 -44l-6 -40l-51 -1q-28 -2 -44 -4q18 -86 67 -118.5t137 -32.5zM314 -63q12 0 20 -8.5t8 -20.5q0 -11 -8 -19.5t-20 -8.5t-20.5 8.5t-8.5 19.5q0 12 8.5 20.5t20.5 8.5zM446 -63q12 0 20.5 -8.5t8.5 -20.5q0 -11 -8.5 -19.5t-20.5 -8.5t-20 8t-8 20
t8 20.5t20 8.5z" />
    <glyph glyph-name="uniFB7B" unicode="&#x686;" horiz-adv-x="687" arabic-form="final" 
d="M687 0q-98 0 -155.5 47.5t-72.5 154.5q-172 -21 -261 -94t-89 -188q0 -100 72 -162t208 -62q125 0 215 46l17 -40q-93 -52 -236 -52q-154 0 -234.5 74t-80.5 191q0 144 112 229.5t322 98.5q-46 18 -87.5 45.5t-65 47.5t-57 35t-71.5 15q-65 0 -123 -35l-21 40
q68 41 147 41q42 0 77.5 -14.5t63.5 -37.5t57 -47.5t72.5 -48t95.5 -35.5l-5 -40l-46 -1l-47 -3q17 -91 64 -125.5t134 -34.5l15 -22zM383 -24q1 1 2 1l1 -1q0 -1 -1 -1q-2 0 -2 1zM312 -56q0 2 1 2q2 0 2 -2q-1 -1 -2 -1zM380 -93q1 1 2 1l1 -1q0 -2 -1 -2q-2 0 -2 2z" />
    <glyph glyph-name="uniFB7C" unicode="&#x686;" horiz-adv-x="691" arabic-form="initial" 
d="M220 432q53 0 93.5 -17t71.5 -44.5t62 -56.5t82 -59.5t116 -48.5l-7 -40l-53 -5q-70 -3 -136.5 -20.5t-119 -40.5t-103.5 -46t-109 -38.5t-117 -15.5l-20 23l24 24q66 0 136 22t123.5 49t134.5 52t164 30q-50 18 -92 44.5t-68 50t-52 45t-58.5 34t-73.5 12.5
q-57 0 -116 -35l-22 40q69 41 140 41zM320 -138q1 0 1 -2h-1h-2q0 2 2 2zM248 -169q2 0 2 -2q-1 -1 -2 -1l-1 1q0 2 1 2zM317 -207q1 0 1 -2q0 -1 -1 -1l-2 1q0 2 2 2z" />
    <glyph glyph-name="uniFB7D" unicode="&#x686;" horiz-adv-x="733" arabic-form="medial" 
d="M737 45l16 -22l-20 -23q-203 0 -234 189q-55 -14 -123 -47.5t-119.5 -63.5t-121.5 -54t-135 -24l-20 23l24 22q66 0 138 26.5t126 59t130 63.5t148 39q-59 19 -107.5 48t-74.5 51t-63 38.5t-82 16.5q-57 0 -120 -34l-21 39q73 40 141 40q50 0 87.5 -13.5t67 -35.5
t60 -46.5t82.5 -51.5t118 -44l-6 -40l-51 -1q-28 -2 -44 -4q18 -86 67 -118.5t137 -32.5zM405 -88q1 0 1 -2h-1h-2q0 2 2 2zM333 -119q2 0 2 -2q-1 -1 -2 -1l-1 1q0 2 1 2zM402 -157q1 0 1 -2q0 -1 -1 -1l-2 1q0 2 2 2z" />
    <glyph glyph-name="uniFB7F" unicode="&#x687;" horiz-adv-x="687" arabic-form="final" 
d="M687 0q-98 0 -155.5 47.5t-72.5 154.5q-172 -21 -261 -94t-89 -188q0 -100 72 -162t208 -62q125 0 215 46l17 -40q-93 -52 -236 -52q-154 0 -234.5 74t-80.5 191q0 144 112 229.5t322 98.5q-46 18 -87.5 45.5t-65 47.5t-57 35t-71.5 15q-65 0 -123 -35l-21 40
q68 41 147 41q42 0 77.5 -14.5t63.5 -37.5t57 -47.5t72.5 -48t95.5 -35.5l-5 -40l-46 -1l-47 -3q17 -91 64 -125.5t134 -34.5l15 -22zM295 26q12 0 20 -8t8 -20q0 -11 -8 -19t-20 -8t-19.5 8t-7.5 19q0 12 7.5 20t19.5 8zM425 26q12 0 20 -8t8 -20q0 -11 -8 -19t-20 -8
q-11 0 -19 8t-8 19q0 12 8 20t19 8zM295 -95q12 0 20 -8.5t8 -19.5q0 -12 -8 -19.5t-20 -7.5t-19.5 7.5t-7.5 19.5t7.5 20t19.5 8zM425 -95q12 0 20 -8.5t8 -19.5q0 -12 -8 -19.5t-20 -7.5q-11 0 -19 7.5t-8 19.5q0 11 8 19.5t19 8.5z" />
    <glyph glyph-name="uniFB80" unicode="&#x687;" horiz-adv-x="691" arabic-form="initial" 
d="M220 432q53 0 93.5 -17t71.5 -44.5t62 -56.5t82 -59.5t116 -48.5l-7 -40l-53 -5q-70 -3 -136.5 -20.5t-119 -40.5t-103.5 -46t-109 -38.5t-117 -15.5l-20 23l24 24q66 0 136 22t123.5 49t134.5 52t164 30q-50 18 -92 44.5t-68 50t-52 45t-58.5 34t-73.5 12.5
q-57 0 -116 -35l-22 40q69 41 140 41zM230 -82q11 0 19 -8t8 -20q0 -11 -8 -19t-19 -8q-12 0 -20 8t-8 19q0 12 8 20t20 8zM360 -82q12 0 19.5 -8t7.5 -20q0 -11 -7.5 -19t-19.5 -8t-20 8t-8 19q0 12 8 20t20 8zM230 -203q11 0 19 -8.5t8 -19.5q0 -12 -8 -20t-19 -8
q-12 0 -20 8t-8 20q0 11 8 19.5t20 8.5zM360 -203q12 0 19.5 -8t7.5 -20t-7.5 -20t-19.5 -8t-20 8t-8 20q0 11 8 19.5t20 8.5z" />
    <glyph glyph-name="uniFB81" unicode="&#x687;" horiz-adv-x="733" arabic-form="medial" 
d="M737 45l16 -22l-20 -23q-203 0 -234 189q-55 -14 -123 -47.5t-119.5 -63.5t-121.5 -54t-135 -24l-20 23l24 22q66 0 138 26.5t126 59t130 63.5t148 39q-59 19 -107.5 48t-74.5 51t-63 38.5t-82 16.5q-57 0 -120 -34l-21 39q73 40 141 40q50 0 87.5 -13.5t67 -35.5
t60 -46.5t82.5 -51.5t118 -44l-6 -40l-51 -1q-28 -2 -44 -4q18 -86 67 -118.5t137 -32.5zM315 -32q11 0 19 -8t8 -20q0 -11 -8 -19t-19 -8q-12 0 -20 8t-8 19q0 12 8 20t20 8zM445 -32q12 0 19.5 -8t7.5 -20q0 -11 -7.5 -19t-19.5 -8t-20 8t-8 19q0 12 8 20t20 8zM315 -153
q11 0 19 -8.5t8 -19.5q0 -12 -8 -20t-19 -8q-12 0 -20 8t-8 20q0 11 8 19.5t20 8.5zM445 -153q12 0 19.5 -8t7.5 -20t-7.5 -20t-19.5 -8t-20 8t-8 20q0 11 8 19.5t20 8.5z" />
    <glyph glyph-name="uniFB83" unicode="&#x68d;" horiz-adv-x="513" arabic-form="final" 
d="M516 45l17 -22l-20 -23q-94 0 -130 80q-63 -93 -203 -93q-74 0 -153 27l14 45q73 -25 142 -25q119 0 185 77l-149 359l45 21l134 -347q21 -55 45.5 -77t72.5 -22zM139 -113q12 0 20 -8.5t8 -20.5q0 -11 -8 -19.5t-20 -8.5t-20.5 8.5t-8.5 19.5q0 12 8.5 20.5t20.5 8.5z
M271 -113q12 0 20.5 -8.5t8.5 -20.5q0 -11 -8.5 -19.5t-20.5 -8.5t-20 8t-8 20t8 20.5t20 8.5z" />
    <glyph glyph-name="uniFB85" unicode="&#x68c;" horiz-adv-x="513" arabic-form="final" 
d="M114 600q-12 0 -20.5 8.5t-8.5 20.5q0 11 8.5 20t20.5 9t20 -8.5t8 -20.5t-8 -20.5t-20 -8.5zM246 600q-12 0 -20 8.5t-8 20.5t8 20.5t20 8.5t20.5 -9t8.5 -20q0 -12 -8.5 -20.5t-20.5 -8.5zM516 45l17 -22l-20 -23q-94 0 -130 80q-63 -93 -203 -93q-74 0 -153 27l14 45
q73 -25 142 -25q119 0 185 77l-149 359l45 21l134 -347q21 -55 45.5 -77t72.5 -22z" />
    <glyph glyph-name="uniFB87" unicode="&#x68e;" horiz-adv-x="513" arabic-form="final" 
d="M180 669q-11 0 -19.5 8t-8.5 20q0 11 8.5 19.5t19.5 8.5t19.5 -8.5t8.5 -19.5q0 -12 -8.5 -20t-19.5 -8zM112 568q-12 0 -20.5 8.5t-8.5 19.5t8.5 19t20.5 8q11 0 19.5 -8t8.5 -19t-8.5 -19.5t-19.5 -8.5zM248 568q-11 0 -19.5 8.5t-8.5 19.5t8.5 19t19.5 8q12 0 20.5 -8
t8.5 -19t-8.5 -19.5t-20.5 -8.5zM516 45l17 -22l-20 -23q-94 0 -130 80q-63 -93 -203 -93q-74 0 -153 27l14 45q73 -25 142 -25q119 0 185 77l-149 359l45 21l134 -347q21 -55 45.5 -77t72.5 -22z" />
    <glyph glyph-name="uniFB89" unicode="&#x688;" horiz-adv-x="513" arabic-form="final" 
d="M298 644q0 -30 -23 -53.5t-69 -23.5h-145l3 28h22q3 7 16 27v147h28v-107q47 59 96 59q32 0 52 -22t20 -55zM114 595h86q70 0 70 50q0 47 -47 47q-54 0 -109 -97zM516 45l17 -22l-20 -23q-94 0 -130 80q-63 -93 -203 -93q-74 0 -153 27l14 45q73 -25 142 -25
q119 0 185 77l-149 359l45 21l134 -347q21 -55 45.5 -77t72.5 -22z" />
    <glyph glyph-name="uniFB8B" unicode="&#x698;" horiz-adv-x="371" arabic-form="final" 
d="M192 519q-11 0 -19.5 8t-8.5 20q0 11 8.5 19.5t19.5 8.5t19.5 -8.5t8.5 -19.5q0 -12 -8.5 -20t-19.5 -8zM124 418q-12 0 -20.5 8.5t-8.5 19.5t8.5 19t20.5 8q11 0 19.5 -8t8.5 -19t-8.5 -19.5t-19.5 -8.5zM260 418q-11 0 -19.5 8.5t-8.5 19.5t8.5 19t19.5 8q12 0 20.5 -8
t8.5 -19t-8.5 -19.5t-20.5 -8.5zM376 45l15 -22l-20 -23q-76 0 -100 58q-6 -112 -73.5 -186t-205.5 -117l-18 43q138 43 199.5 112t61.5 165q0 93 -51 230l45 15q20 -67 35 -156q11 -63 37 -91t75 -28z" />
    <glyph glyph-name="uniFB8D" unicode="&#x691;" horiz-adv-x="371" arabic-form="final" 
d="M310 494q0 -30 -23 -53.5t-69 -23.5h-145l3 28h22q4 7 16 27v147h28v-107q47 59 96 59q32 0 52 -22t20 -55zM126 445h86q70 0 70 50q0 47 -47 47q-54 0 -109 -97zM376 45l15 -22l-20 -23q-76 0 -100 58q-6 -112 -73.5 -186t-205.5 -117l-18 43q138 43 199.5 112t61.5 165
q0 93 -51 230l45 15q20 -67 35 -156q11 -63 37 -91t75 -28z" />
    <glyph glyph-name="uniFB8F" unicode="&#x6a9;" horiz-adv-x="978" arabic-form="final" 
d="M982 45l16 -21l-20 -24q-82 0 -142 43t-154 171q2 -10 2 -27q0 -96 -80 -147.5t-274 -52.5q-143 0 -208.5 45t-65.5 138q0 78 36 151l32 -11q-27 -67 -27 -135q0 -74 56 -108t182 -34q120 0 191 21.5t96 55t25 85.5q0 61 -50 125l-104 128l9 42l389 260l-4 -48l-355 -236
l157 -195q119 -149 167 -187.5t126 -38.5z" />
    <glyph glyph-name="uniFB90" unicode="&#x6a9;" horiz-adv-x="457" arabic-form="initial" 
d="M401 750l-4 -48l-346 -231q155 -66 219 -127t64 -135q0 -104 -89 -156.5t-245 -52.5l-20 23l24 22q289 0 289 167q0 59 -65 115.5t-224 120.5l9 42z" />
    <glyph glyph-name="uniFB91" unicode="&#x6a9;" horiz-adv-x="541" arabic-form="medial" 
d="M545 45l16 -21l-20 -24q-82 0 -142 43t-153 171q2 -10 2 -27q0 -87 -63 -137t-185 -50l-20 23l24 22q104 0 155 39.5t51 110.5q0 63 -50 125l-104 128l10 42l387 260l-2 -48l-355 -236l157 -195q84 -106 121.5 -146t76.5 -60t94 -20z" />
    <glyph glyph-name="uniFB93" unicode="&#x6af;" horiz-adv-x="978" arabic-form="final" 
d="M883 872l-2 -40l-382 -257l9 42zM982 45l16 -21l-20 -24q-82 0 -142 43t-154 171q2 -10 2 -27q0 -96 -80 -147.5t-274 -52.5q-143 0 -208.5 45t-65.5 138q0 78 36 151l32 -11q-27 -67 -27 -135q0 -74 56 -108t182 -34q120 0 191 21.5t96 55t25 85.5q0 61 -50 125
l-104 128l9 42l389 260l-4 -48l-355 -236l157 -195q119 -149 167 -187.5t126 -38.5z" />
    <glyph glyph-name="uniFB94" unicode="&#x6af;" horiz-adv-x="457" arabic-form="initial" 
d="M390 872l-3 -40l-382 -257l9 42zM401 750l-4 -48l-346 -231q155 -66 219 -127t64 -135q0 -104 -89 -156.5t-245 -52.5l-20 23l24 22q289 0 289 167q0 59 -65 115.5t-224 120.5l9 42z" />
    <glyph glyph-name="uniFB95" unicode="&#x6af;" horiz-adv-x="541" arabic-form="medial" 
d="M452 872l-2 -40l-382 -257l9 42zM545 45l16 -21l-20 -24q-82 0 -142 43t-153 171q2 -10 2 -27q0 -87 -63 -137t-185 -50l-20 23l24 22q104 0 155 39.5t51 110.5q0 63 -50 125l-104 128l10 42l387 260l-2 -48l-355 -236l157 -195q84 -106 121.5 -146t76.5 -60t94 -20z" />
    <glyph glyph-name="uniFB97" unicode="&#x6b3;" horiz-adv-x="977" arabic-form="final" 
d="M883 872l-2 -40l-382 -257l9 42zM982 45l16 -21l-20 -24q-82 0 -142 43t-154 171q2 -10 2 -27q0 -96 -80 -147.5t-274 -52.5q-143 0 -208.5 45t-65.5 138q0 78 36 151l32 -11q-27 -67 -27 -135q0 -74 56 -108t182 -34q120 0 191 21.5t96 55t25 85.5q0 61 -50 125
l-104 128l9 42l389 260l-4 -48l-355 -236l157 -195q119 -149 167 -187.5t126 -38.5zM372 -96q12 0 20 -8t8 -21q0 -12 -8.5 -20t-19.5 -8q-12 0 -20.5 8t-8.5 20q0 13 8.5 21t20.5 8zM372 -227q12 0 20 -8t8 -20t-8.5 -20.5t-19.5 -8.5q-12 0 -20.5 8.5t-8.5 20.5t8.5 20
t20.5 8z" />
    <glyph glyph-name="uniFB98" unicode="&#x6b3;" horiz-adv-x="457" arabic-form="initial" 
d="M390 872l-3 -40l-382 -257l9 42zM401 750l-4 -48l-346 -231q155 -66 219 -127t64 -135q0 -104 -89 -156.5t-245 -52.5l-20 23l24 22q289 0 289 167q0 59 -65 115.5t-224 120.5l9 42zM131 -96q11 0 19.5 -8t8.5 -21q0 -12 -8.5 -20t-19.5 -8q-12 0 -20.5 8t-8.5 20
q0 13 8.5 21t20.5 8zM131 -227q12 0 20 -8t8 -20t-8.5 -20.5t-19.5 -8.5q-12 0 -20.5 8.5t-8.5 20.5t8.5 20t20.5 8z" />
    <glyph glyph-name="uniFB99" unicode="&#x6b3;" horiz-adv-x="541" arabic-form="medial" 
d="M452 872l-2 -40l-382 -257l9 42zM545 45l16 -21l-20 -24q-82 0 -142 43t-153 171q2 -10 2 -27q0 -87 -63 -137t-185 -50l-20 23l24 22q104 0 155 39.5t51 110.5q0 63 -50 125l-104 128l10 42l387 260l-2 -48l-355 -236l157 -195q84 -106 121.5 -146t76.5 -60t94 -20z
M276 -96q12 0 20 -8t8 -21q0 -12 -8.5 -20t-19.5 -8q-12 0 -20.5 8t-8.5 20q0 13 8.5 21t20.5 8zM276 -227q12 0 20 -8t8 -20t-8.5 -20.5t-19.5 -8.5q-12 0 -20.5 8.5t-8.5 20.5t8.5 20t20.5 8z" />
    <glyph glyph-name="uniFB9B" unicode="&#x6b1;" horiz-adv-x="977" arabic-form="final" 
d="M883 872l-2 -40l-382 -257l9 42zM443 762q-12 0 -20.5 8t-8.5 20t8.5 20.5t20.5 8.5t20 -8.5t8 -20.5t-8 -20t-20 -8zM575 762q-12 0 -20 8t-8 20t8 20.5t20 8.5t20.5 -8.5t8.5 -20.5t-8.5 -20t-20.5 -8zM982 45l16 -21l-20 -24q-82 0 -142 43t-154 171q2 -10 2 -27
q0 -96 -80 -147.5t-274 -52.5q-143 0 -208.5 45t-65.5 138q0 78 36 151l32 -11q-27 -67 -27 -135q0 -74 56 -108t182 -34q120 0 191 21.5t96 55t25 85.5q0 61 -50 125l-104 128l9 42l389 260l-4 -48l-355 -236l157 -195q119 -149 167 -187.5t126 -38.5z" />
    <glyph glyph-name="uniFB9C" unicode="&#x6b1;" horiz-adv-x="457" arabic-form="initial" 
d="M390 872l-3 -40l-382 -257l9 42zM-49 820q12 0 20 -8.5t8 -20.5t-8 -20.5t-20 -8.5t-20.5 8.5t-8.5 20.5q0 11 8.5 20t20.5 9zM83 762q-12 0 -20 8.5t-8 20.5t8 20.5t20 8.5t20.5 -9t8.5 -20q0 -12 -8.5 -20.5t-20.5 -8.5zM401 750l-4 -48l-346 -231q155 -66 219 -127
t64 -135q0 -104 -89 -156.5t-245 -52.5l-20 23l24 22q289 0 289 167q0 59 -65 115.5t-224 120.5l9 42z" />
    <glyph glyph-name="uniFB9D" unicode="&#x6b1;" horiz-adv-x="541" arabic-form="medial" 
d="M452 872l-2 -40l-382 -257l9 42zM14 762q-12 0 -20.5 8.5t-8.5 20.5q0 11 8.5 20t20.5 9t20 -8.5t8 -20.5t-8 -20.5t-20 -8.5zM146 762q-12 0 -20 8.5t-8 20.5t8 20.5t20 8.5t20.5 -9t8.5 -20q0 -12 -8.5 -20.5t-20.5 -8.5zM545 45l16 -21l-20 -24q-82 0 -142 43
t-153 171q2 -10 2 -27q0 -87 -63 -137t-185 -50l-20 23l24 22q104 0 155 39.5t51 110.5q0 63 -50 125l-104 128l10 42l387 260l-2 -48l-355 -236l157 -195q84 -106 121.5 -146t76.5 -60t94 -20z" />
    <glyph glyph-name="uniFB9F" unicode="&#x6ba;" horiz-adv-x="707" arabic-form="final" 
d="M711 45l16 -22l-20 -23q-77 0 -113 47q-3 -153 -73.5 -220.5t-220.5 -67.5q-126 0 -185 59t-59 162q0 89 40 179l32 -11q-31 -80 -31 -164q0 -180 207 -180q136 0 192.5 58.5t56.5 190.5q0 81 -56 223l45 20q29 -93 42 -148q15 -54 44 -78.5t83 -24.5z" />
    <glyph glyph-name="uniFBA1" unicode="&#x6bb;" horiz-adv-x="707" arabic-form="final" 
d="M433 387q0 -30 -23 -53.5t-69 -23.5h-145l3 28h22q3 7 16 27v147h28v-107q47 59 96 59q32 0 52 -22t20 -55zM249 338h86q70 0 70 50q0 47 -47 47q-54 0 -109 -97zM711 45l16 -22l-20 -23q-77 0 -113 47q-3 -153 -73.5 -220.5t-220.5 -67.5q-126 0 -185 59t-59 162
q0 89 40 179l32 -11q-31 -80 -31 -164q0 -180 207 -180q136 0 192.5 58.5t56.5 190.5q0 81 -56 223l45 20q29 -93 42 -148q15 -54 44 -78.5t83 -24.5z" />
    <glyph glyph-name="uniFBA2" unicode="&#x6bb;" horiz-adv-x="261" arabic-form="initial" 
d="M164 614q32 0 52 -22t20 -55q0 -30 -23 -53.5t-69 -23.5h-145l3 28h22q4 7 16 27v147h28v-107q47 59 96 59zM138 488q70 0 70 50q0 47 -47 47q-54 0 -109 -97h86zM111 374l44 14q40 -120 40 -225q0 -91 -40.5 -127t-154.5 -36l-20 23l24 22q91 0 120.5 26.5t29.5 93.5
q0 88 -43 209z" />
    <glyph glyph-name="uniFBA3" unicode="&#x6bb;" horiz-adv-x="320" arabic-form="medial" 
d="M278 464q0 -30 -23 -53.5t-69 -23.5h-145l3 28h22q3 7 16 27v147h28v-107q47 59 96 59q32 0 52 -22t20 -55zM94 415h86q70 0 70 50q0 47 -47 47q-54 0 -109 -97zM324 45l16 -22l-20 -23q-123 0 -159 89q-33 -89 -161 -89l-20 23l25 22q75 0 104 30t29 91v149h43v-149
q0 -121 143 -121z" />
    <glyph glyph-name="uniFBA5" unicode="&#x6c0;" horiz-adv-x="493" arabic-form="final" 
d="M263 559l-4 29l71 11q-52 35 -52 78q0 33 24 55t69 22q33 0 65 -17l-15 -26q-28 14 -52 14q-60 0 -60 -49q0 -38 55 -71l88 14l4 -28zM497 45l16 -23l-20 -22h-14q-113 0 -136 115q-26 -35 -69 -56t-92 -21q-72 0 -113.5 37.5t-41.5 97.5q0 85 81 141.5t229 64.5v110
l42 6v-320q0 -69 26 -99.5t78 -30.5h14zM188 82q48 0 87 20.5t62 53.5v179q-133 -4 -201 -47.5t-68 -110.5q0 -43 30 -69t90 -26z" />
    <glyph glyph-name="uniFBA7" unicode="&#x6c1;" horiz-adv-x="568" arabic-form="final" 
d="M72 -35l-45 9q41 142 99 210t126 68q36 0 63 -15.5t43 -38.5t35.5 -49.5t39.5 -49.5t56 -38.5t83 -15.5l16 -22l-20 -23q-62 0 -107.5 21t-70 51.5t-43.5 61t-42 51.5t-53 21q-107 0 -180 -241z" />
    <glyph glyph-name="uniFBA8" unicode="&#x6c1;" horiz-adv-x="261" arabic-form="initial" 
d="M4 45q91 0 120.5 26.5t29.5 93.5q0 88 -43 209l44 14q40 -120 40 -225q0 -91 -40.5 -127t-154.5 -36l-20 23zM102 -218q-32 0 -32 32q0 7 10 42l24 80h17l-13 -96q23 -5 23 -29q0 -12 -8.5 -20.5t-20.5 -8.5z" />
    <glyph glyph-name="uniFBA9" unicode="&#x6c1;" horiz-adv-x="550" arabic-form="medial" 
d="M554 45l16 -22l-20 -23h-26q-72 0 -114.5 -45t-42.5 -143q0 -37 8 -95l-38 -13q-146 152 -146 350q0 23 1 34q-51 -88 -166 -88h-26l-20 23l24 22h27q67 0 113.5 46.5t76.5 155.5l12 49l40 -11q-39 -152 -39 -223q0 -154 97 -288q-2 34 -2 48q0 114 53.5 168.5
t147.5 54.5h24z" />
    <glyph glyph-name="uniFBAB" unicode="&#x6be;" horiz-adv-x="564" arabic-form="final" 
d="M584 23l-20 -23h-152q97 -41 97 -134q0 -52 -34.5 -86.5t-92.5 -34.5q-88 0 -146 71.5t-61 183.5q-81 1 -139 29l21 39q49 -22 118 -23q4 135 68.5 230.5t151.5 95.5q53 0 85.5 -34t32.5 -99q0 -54 -32.5 -109.5t-87.5 -83.5h175zM389 326q-68 0 -120 -80.5t-57 -200.5
h69q82 0 136.5 58.5t54.5 129.5q0 45 -22.5 69t-60.5 24zM469 -127q0 58 -50 92.5t-120 34.5h-87q5 -96 49 -152.5t117 -56.5q44 0 67.5 23.5t23.5 58.5z" />
    <glyph glyph-name="uniFBAC" unicode="&#x6be;" horiz-adv-x="627" arabic-form="initial" 
d="M127 516q234 -130 334 -210.5t100 -156.5q0 -67 -50.5 -114.5t-115.5 -47.5q-94 0 -180 50q-84 -37 -194 -37h-21l-20 23l24 22h13q84 0 155 21q-108 83 -108 193q0 64 37.5 111t95.5 55q-43 25 -93 51zM101 257q0 -50 32.5 -95t85.5 -77q58 28 88 72.5t30 97.5
q0 58 -33.5 98t-83.5 40q-53 0 -86 -39t-33 -97zM395 33q49 0 88 30t39 77q0 76 -164 187q14 -34 14 -70q0 -121 -110 -195q68 -29 133 -29z" />
    <glyph glyph-name="uniFBAD" unicode="&#x6be;" horiz-adv-x="486" arabic-form="medial" 
d="M506 23l-20 -23h-153q98 -42 98 -134q0 -52 -34.5 -86.5t-92.5 -34.5q-89 0 -147 71.5t-61 183.5h-96l-20 23l24 22h92q3 134 68.5 230t152.5 96q53 0 85.5 -34t32.5 -99q0 -54 -32.5 -109.5t-87.5 -83.5h175zM310 326q-67 0 -119 -80.5t-57 -200.5h68q82 0 136.5 58
t54.5 130q0 45 -22.5 69t-60.5 24zM391 -127q0 58 -50 92.5t-120 34.5h-88q5 -97 49.5 -153t117.5 -56q44 0 67.5 23.5t23.5 58.5z" />
    <glyph glyph-name="uniFBAF" unicode="&#x6d2;" horiz-adv-x="738" arabic-form="final" 
d="M704 -248h-500q-82 0 -123 27t-41 75q0 74 79 133t236 59h386l17 -23l-20 -23h-393q-134 0 -199 -43t-65 -98q0 -31 26 -46t87 -15h525z" />
    <glyph glyph-name="uniFBB1" unicode="&#x6d3;" horiz-adv-x="738" arabic-form="final" 
d="M324 233l4 -28l-193 -32l-4 29l70 11q-51 37 -51 78q0 33 24 55t69 22q33 0 65 -17l-15 -26q-28 14 -52 14q-60 0 -60 -49q0 -36 54 -71zM704 -248h-500q-82 0 -123 27t-41 75q0 74 79 133t236 59h386l17 -23l-20 -23h-393q-134 0 -199 -43t-65 -98q0 -31 26 -46t87 -15
h525z" />
    <glyph glyph-name="uniFBD4" unicode="&#x6ad;" horiz-adv-x="832" arabic-form="final" 
d="M706 913q-11 0 -19.5 8t-8.5 20q0 11 8.5 19.5t19.5 8.5t19.5 -8.5t8.5 -19.5q0 -12 -8.5 -20t-19.5 -8zM638 812q-12 0 -20.5 8.5t-8.5 19.5t8.5 19t20.5 8q11 0 19.5 -8t8.5 -19t-8.5 -19.5t-19.5 -8.5zM774 812q-11 0 -19.5 8.5t-8.5 19.5t8.5 19t19.5 8q12 0 20.5 -8
t8.5 -19t-8.5 -19.5t-20.5 -8.5zM836 45l16 -21l-20 -24q-90 0 -132 83q-133 -96 -370 -96q-143 0 -208.5 45t-65.5 138q0 78 36 151l32 -11q-27 -67 -27 -135q0 -74 56 -108t182 -34q224 0 350 93v614l42 5v-593q0 -43 25 -75t84 -32zM299 310q156 0 156 50q0 20 -27 35.5
t-97 29.5l7 34l157 92l-2 -36l-121 -69q62 -16 88.5 -36t26.5 -50q0 -82 -183 -82z" />
    <glyph glyph-name="uniFBD5" unicode="&#x6ad;" horiz-adv-x="457" arabic-form="initial" 
d="M44 777q-11 0 -19.5 8t-8.5 20q0 11 8.5 19.5t19.5 8.5t19.5 -8.5t8.5 -19.5q0 -12 -8.5 -20t-19.5 -8zM401 750l-4 -48l-346 -231q155 -66 219 -127t64 -135q0 -104 -89 -156.5t-245 -52.5l-20 23l24 22q289 0 289 167q0 59 -65 115.5t-224 120.5l9 42zM4 704
q0 -11 -8.5 -19.5t-19.5 -8.5q-12 0 -20.5 8.5t-8.5 19.5t8.5 19t20.5 8q11 0 19.5 -8t8.5 -19zM112 676q-11 0 -19.5 8.5t-8.5 19.5t8.5 19t19.5 8q12 0 20.5 -8t8.5 -19t-8.5 -19.5t-20.5 -8.5z" />
    <glyph glyph-name="uniFBD6" unicode="&#x6ad;" horiz-adv-x="541" arabic-form="medial" 
d="M91 777q-11 0 -19.5 8t-8.5 20q0 11 8.5 19.5t19.5 8.5t19.5 -8.5t8.5 -19.5q0 -12 -8.5 -20t-19.5 -8zM545 45l16 -21l-20 -24q-82 0 -142 43t-153 171q2 -10 2 -27q0 -87 -63 -137t-185 -50l-20 23l24 22q104 0 155 39.5t51 110.5q0 63 -50 125l-104 128l10 42l387 260
l-2 -48l-355 -236l157 -195q84 -106 121.5 -146t76.5 -60t94 -20zM23 676q-12 0 -20.5 8.5t-8.5 19.5t8.5 19t20.5 8q11 0 19.5 -8t8.5 -19t-8.5 -19.5t-19.5 -8.5zM159 676q-11 0 -19.5 8.5t-8.5 19.5t8.5 19t19.5 8q12 0 20.5 -8t8.5 -19t-8.5 -19.5t-20.5 -8.5z" />
    <glyph glyph-name="uniFBD8" unicode="&#x6c7;" horiz-adv-x="523" arabic-form="final" 
d="M178 400l-12 26q53 19 90 47q-73 24 -73 81q0 35 22.5 55.5t53.5 20.5q36 0 55 -22t19 -56q0 -43 -42.5 -84.5t-112.5 -67.5zM211 553q0 -42 67 -61q27 29 27 58q0 21 -12 35.5t-35 14.5q-20 0 -33.5 -13t-13.5 -34zM543 23l-20 -23h-110q-23 -100 -105.5 -163
t-238.5 -89l-13 44q142 24 217.5 75.5t97.5 132.5h-87q-101 0 -155 46.5t-54 123.5q0 74 49 128.5t121 54.5q79 0 128 -69t49 -192q0 -17 -2 -47h107zM115 173q0 -128 176 -128h89q2 28 2 42q0 108 -36.5 164.5t-101.5 56.5q-56 0 -92.5 -40t-36.5 -95z" />
    <glyph glyph-name="uniFBDA" unicode="&#x6c6;" horiz-adv-x="523" arabic-form="final" 
d="M263 406h-29l-76 139l25 10l66 -113l66 113l25 -10zM543 23l-20 -23h-110q-23 -100 -105.5 -163t-238.5 -89l-13 44q142 24 217.5 75.5t97.5 132.5h-87q-101 0 -155 46.5t-54 123.5q0 74 49 128.5t121 54.5q79 0 128 -69t49 -192q0 -17 -2 -47h107zM115 173
q0 -128 176 -128h89q2 28 2 42q0 108 -36.5 164.5t-101.5 56.5q-56 0 -92.5 -40t-36.5 -95z" />
    <glyph glyph-name="uniFBDC" unicode="&#x6c8;" horiz-adv-x="523" arabic-form="final" 
d="M264 580v-162h-31v159zM543 23l-20 -23h-110q-23 -100 -105.5 -163t-238.5 -89l-13 44q142 24 217.5 75.5t97.5 132.5h-87q-101 0 -155 46.5t-54 123.5q0 74 49 128.5t121 54.5q79 0 128 -69t49 -192q0 -17 -2 -47h107zM115 173q0 -128 176 -128h89q2 28 2 42
q0 108 -36.5 164.5t-101.5 56.5q-56 0 -92.5 -40t-36.5 -95z" />
    <glyph glyph-name="uniFBDF" unicode="&#x6cb;" horiz-adv-x="523" arabic-form="final" 
d="M249 520q-11 0 -19.5 8t-8.5 20q0 11 8.5 19.5t19.5 8.5t19.5 -8.5t8.5 -19.5q0 -12 -8.5 -20t-19.5 -8zM181 419q-12 0 -20.5 8.5t-8.5 19.5t8.5 19t20.5 8q11 0 19.5 -8t8.5 -19t-8.5 -19.5t-19.5 -8.5zM317 419q-11 0 -19.5 8.5t-8.5 19.5t8.5 19t19.5 8q12 0 20.5 -8
t8.5 -19t-8.5 -19.5t-20.5 -8.5zM543 23l-20 -23h-110q-23 -100 -105.5 -163t-238.5 -89l-13 44q142 24 217.5 75.5t97.5 132.5h-87q-101 0 -155 46.5t-54 123.5q0 74 49 128.5t121 54.5q79 0 128 -69t49 -192q0 -17 -2 -47h107zM115 173q0 -128 176 -128h89q2 28 2 42
q0 108 -36.5 164.5t-101.5 56.5q-56 0 -92.5 -40t-36.5 -95z" />
    <glyph glyph-name="uniFBE1" unicode="&#x6c5;" horiz-adv-x="523" arabic-form="final" 
d="M543 23l-20 -23h-110q-23 -100 -105.5 -163t-238.5 -89l-13 44q147 25 224 81l-188 4l-17 34l240 -9q41 42 56 98h-87q-101 0 -155 46.5t-54 123.5q0 74 49 128.5t121 54.5q79 0 128 -69t49 -192q0 -17 -2 -47h107zM115 173q0 -128 176 -128h89q2 28 2 42
q0 108 -36.5 164.5t-101.5 56.5q-56 0 -92.5 -40t-36.5 -95z" />
    <glyph glyph-name="uniFBE3" unicode="&#x6c9;" horiz-adv-x="523" arabic-form="final" 
d="M249 533l-66 -113l-25 10l76 139h29l77 -139l-25 -10zM543 23l-20 -23h-110q-23 -100 -105.5 -163t-238.5 -89l-13 44q142 24 217.5 75.5t97.5 132.5h-87q-101 0 -155 46.5t-54 123.5q0 74 49 128.5t121 54.5q79 0 128 -69t49 -192q0 -17 -2 -47h107zM115 173
q0 -128 176 -128h89q2 28 2 42q0 108 -36.5 164.5t-101.5 56.5q-56 0 -92.5 -40t-36.5 -95z" />
    <glyph glyph-name="uniFBE5" unicode="&#x6d0;" horiz-adv-x="717" arabic-form="final" 
d="M737 23l-20 -23q-53 0 -102 22q12 -18 12 -41q0 -73 -85 -125.5t-242 -52.5q-126 0 -185 59t-59 162q0 91 40 179l32 -10q-31 -80 -31 -164q0 -180 207 -180q135 0 209.5 42t74.5 94q0 28 -34.5 49t-145.5 57l19 39q42 -14 92.5 -33t75.5 -28.5t58.5 -16.5t67.5 -7z
M304 -282q12 0 20 -8t8 -21q0 -12 -8.5 -20t-19.5 -8q-12 0 -20.5 8t-8.5 20q0 13 8.5 21t20.5 8zM304 -413q12 0 20 -8t8 -20t-8.5 -20.5t-19.5 -8.5q-12 0 -20.5 8.5t-8.5 20.5t8.5 20t20.5 8z" />
    <glyph glyph-name="uniFBE6" unicode="&#x6d0;" horiz-adv-x="261" arabic-form="initial" 
d="M4 45q91 0 120.5 26.5t29.5 93.5q0 88 -43 209l44 14q40 -120 40 -225q0 -91 -40.5 -127t-154.5 -36l-20 23zM117 -153q-12 0 -20.5 8t-8.5 20q0 13 8.5 21t20.5 8q11 0 19.5 -8t8.5 -21q0 -12 -8.5 -20t-19.5 -8zM117 -284q-12 0 -20.5 8.5t-8.5 20.5t8.5 20t20.5 8
t20 -8t8 -20t-8.5 -20.5t-19.5 -8.5z" />
    <glyph glyph-name="uniFBE7" unicode="&#x6d0;" horiz-adv-x="320" arabic-form="medial" 
d="M324 45l16 -22l-20 -23q-123 0 -159 89q-33 -89 -161 -89l-20 23l25 22q75 0 104 30t29 91v149h43v-149q0 -121 143 -121zM160 -96q12 0 20 -8t8 -21q0 -12 -8.5 -20t-19.5 -8q-12 0 -20.5 8t-8.5 20q0 13 8.5 21t20.5 8zM160 -227q12 0 20 -8t8 -20t-8.5 -20.5
t-19.5 -8.5q-12 0 -20.5 8.5t-8.5 20.5t8.5 20t20.5 8z" />
    <glyph glyph-name="uniFBE8" unicode="&#x649;" horiz-adv-x="261" arabic-form="initial" 
d="M4 45q91 0 120.5 26.5t29.5 93.5q0 88 -43 209l44 14q40 -120 40 -225q0 -91 -40.5 -127t-154.5 -36l-20 23z" />
    <glyph glyph-name="uniFBE9" unicode="&#x649;" horiz-adv-x="320" arabic-form="medial" 
d="M324 45l16 -22l-20 -23q-123 0 -159 89q-33 -89 -161 -89l-20 23l25 22q75 0 104 30t29 91v149h43v-149q0 -121 143 -121z" />
    <glyph glyph-name="uniFBFD" unicode="&#x6cc;" horiz-adv-x="717" arabic-form="final" 
d="M737 23l-20 -23q-53 0 -102 22q12 -18 12 -41q0 -73 -85 -125.5t-242 -52.5q-126 0 -185 59t-59 162q0 91 40 179l32 -10q-31 -80 -31 -164q0 -180 207 -180q135 0 209.5 42t74.5 94q0 28 -34.5 49t-145.5 57l19 39q42 -14 92.5 -33t75.5 -28.5t58.5 -16.5t67.5 -7z" />
    <glyph glyph-name="uniFBFE" unicode="&#x6cc;" horiz-adv-x="261" arabic-form="initial" 
d="M4 45q91 0 120.5 26.5t29.5 93.5q0 88 -43 209l44 14q40 -120 40 -225q0 -91 -40.5 -127t-154.5 -36l-20 23zM51 -170q-12 0 -20.5 8.5t-8.5 19.5q0 12 8.5 20.5t20.5 8.5t20 -8.5t8 -20.5q0 -11 -8 -19.5t-20 -8.5zM183 -170q-12 0 -20 8t-8 20t8 20.5t20 8.5t20.5 -8.5
t8.5 -20.5q0 -11 -8.5 -19.5t-20.5 -8.5z" />
    <glyph glyph-name="uniFBFF" unicode="&#x6cc;" horiz-adv-x="320" arabic-form="medial" 
d="M324 45l16 -22l-20 -23q-123 0 -159 89q-33 -89 -161 -89l-20 23l25 22q75 0 104 30t29 91v149h43v-149q0 -121 143 -121zM94 -113q12 0 20 -8.5t8 -20.5q0 -11 -8 -19.5t-20 -8.5t-20.5 8.5t-8.5 19.5q0 12 8.5 20.5t20.5 8.5zM226 -113q12 0 20.5 -8.5t8.5 -20.5
q0 -11 -8.5 -19.5t-20.5 -8.5t-20 8t-8 20t8 20.5t20 8.5z" />
    <glyph glyph-name="uniFC5B" unicode="&#xfc5b;" horiz-adv-x="458" arabic-form="isolated" 
d="M143 867l31 3v-162h-31v159zM159 572q-13 0 -22 8.5t-9 21.5t9 22t22 9t22 -9t9 -22t-9 -21.5t-22 -8.5zM187 -13q-88 0 -160 21l14 45q70 -20 146 -20q71 0 123 27t52 76q0 135 -186 325l33 31q193 -197 193 -356q0 -52 -35 -87t-81 -48.5t-99 -13.5z" />
    <glyph glyph-name="uniFC5C" unicode="&#xfc5c;" horiz-adv-x="340" arabic-form="isolated" 
d="M177 576l31 3v-162h-31v159zM-7 -245l-19 45q138 43 199.5 111t61.5 159q0 97 -51 235l46 15q44 -143 44 -246q0 -229 -281 -319z" />
    <glyph glyph-name="uniFC61" unicode="&#xfc61;" arabic-form="isolated" 
d="M63 771l-12 26q52 18 89 46q-73 26 -73 81q0 35 23 56t53 21q36 0 55.5 -22.5t19.5 -55.5q0 -43 -42.5 -84.5t-112.5 -67.5zM96 923q0 -41 66 -60q27 29 27 58q0 21 -11.5 35.5t-34.5 14.5q-21 0 -34 -13t-13 -35zM233 758q18 -42 18 -82q0 -35 -17.5 -54t-46.5 -19
q-39 0 -53 33q-18 -36 -56 -36q-25 0 -43.5 18.5t-18.5 54.5q0 28 11 61l27 -7q-8 -20 -8 -48q0 -46 35 -46q18 0 28.5 14t10.5 36v42h28v-44q0 -20 9 -33t26 -13q37 0 37 49q0 35 -14 64z" />
    <glyph glyph-name="uniFC63" unicode="&#xfc63;" arabic-form="isolated" 
d="M148 951v-163h-31v159zM233 758q18 -42 18 -82q0 -35 -17.5 -54t-46.5 -19q-39 0 -53 33q-18 -36 -56 -36q-25 0 -43.5 18.5t-18.5 54.5q0 28 11 61l27 -7q-8 -20 -8 -48q0 -46 35 -46q18 0 28.5 14t10.5 36v42h28v-44q0 -20 9 -33t26 -13q37 0 37 49q0 35 -14 64z" />
    <glyph glyph-name="uniFD3C" unicode="&#xfd3c;" horiz-adv-x="227" arabic-form="final" 
d="M-1 834l2 30l210 41l-2 -30zM-1 757l2 30l210 40l-2 -30zM84 157v548l42 5v-550q0 -63 24.5 -89t80.5 -26l16 -22l-20 -23q-143 0 -143 157z" />
    <glyph glyph-name="uniFD3D" unicode="&#xfd3d;" horiz-adv-x="212" arabic-form="isolated" 
d="M-1 756l2 30l210 41l-2 -30zM-1 679l2 30l210 40l-2 -30zM127 0h-42v625l42 5v-630z" />
    <glyph glyph-name="uniFE70" unicode="&#xfe70;" horiz-adv-x="600" arabic-form="isolated" 
d="M37 650l2 30l210 41l-2 -30zM37 573l2 30l210 40l-2 -30z" />
    <glyph glyph-name="uniFE72" unicode="&#xfe72;" horiz-adv-x="600" arabic-form="isolated" 
d="M242 802q35 0 53.5 -22.5t18.5 -53.5q0 -41 -39.5 -82t-103.5 -69l-27 12q-2 68 -30 68q-19 0 -45 -29l-17 20q34 39 62 39q52 0 57 -80q38 18 69 43q-73 23 -73 80q0 33 22 53.5t53 20.5zM261 668q26 29 26 56q0 18 -12.5 32.5t-33.5 14.5q-19 0 -32 -13t-13 -31
q0 -42 65 -59z" />
    <glyph glyph-name="uniFE74" unicode="&#xfe74;" horiz-adv-x="600" arabic-form="isolated" 
d="M37 -120l2 30l210 41l-2 -30zM38 -196l1 30l210 41l-1 -30z" />
    <glyph glyph-name="uniFE76" unicode="&#xfe76;" horiz-adv-x="600" arabic-form="isolated" 
d="M37 594l2 31l210 40l-2 -30z" />
    <glyph glyph-name="uniFE78" unicode="&#xfe78;" horiz-adv-x="600" arabic-form="isolated" 
d="M112 806q36 0 55 -22t19 -56q0 -43 -42.5 -84.5t-112.5 -67.5l-12 26q53 19 90 47q-73 24 -73 81q0 35 22.5 55.5t53.5 20.5zM131 668q27 29 27 58q0 21 -12 35.5t-35 14.5q-20 0 -33.5 -13t-13.5 -34q0 -42 67 -61z" />
    <glyph glyph-name="uniFE7C" unicode="&#xfe7c;" horiz-adv-x="600" arabic-form="isolated" 
d="M233 758q18 -42 18 -82q0 -35 -17.5 -54t-46.5 -19q-39 0 -53 33q-18 -36 -56 -36q-25 0 -43.5 18.5t-18.5 54.5q0 28 11 61l27 -7q-8 -20 -8 -48q0 -46 35 -46q18 0 28.5 14t10.5 36v42h28v-44q0 -20 9 -33t26 -13q37 0 37 49q0 35 -14 64z" />
    <glyph glyph-name="uniFE7E" unicode="&#xfe7e;" horiz-adv-x="600" arabic-form="isolated" 
d="M193 673q0 -41 -26.5 -66t-66.5 -25t-66.5 25t-26.5 66t26.5 66t66.5 25t66.5 -25t26.5 -66zM164 673q0 27 -17.5 44.5t-46.5 17.5t-46.5 -17.5t-17.5 -44.5t17.5 -44.5t46.5 -17.5t46.5 17.5t17.5 44.5z" />
    <glyph glyph-name="uniFE82" unicode="&#x622;" horiz-adv-x="227" arabic-form="final" 
d="M24 784l-27 8q10 30 29.5 49.5t43.5 19.5q23 0 48 -15t44 -15q17 0 46 20l14 -23q-36 -29 -66 -29q-20 0 -45 14.5t-41 14.5q-27 0 -46 -44zM84 157v548l42 5v-550q0 -63 24.5 -89t80.5 -26l16 -22l-20 -23q-143 0 -143 157z" />
    <glyph glyph-name="uniFE84" unicode="&#x623;" horiz-adv-x="227" arabic-form="final" 
d="M200 831l4 -28l-193 -32l-4 29l71 11q-52 35 -52 78q0 33 24 55t69 22q33 0 65 -17l-15 -26q-28 14 -52 14q-60 0 -60 -49q0 -38 55 -71zM231 45l16 -22l-20 -23q-143 0 -143 157v548l42 5v-550q0 -63 24.5 -89t80.5 -26z" />
    <glyph glyph-name="uniFE86" unicode="&#x624;" horiz-adv-x="523" arabic-form="final" 
d="M154 413l-4 29l71 11q-52 35 -52 78q0 33 24 55t69 22q33 0 65 -17l-15 -26q-28 14 -52 14q-60 0 -60 -49q0 -38 55 -71l88 14l4 -28zM543 23l-20 -23h-110q-23 -100 -105.5 -163t-238.5 -89l-13 44q142 24 217.5 75.5t97.5 132.5h-87q-101 0 -155 46.5t-54 123.5
q0 74 49 128.5t121 54.5q79 0 128 -69t49 -192q0 -17 -2 -47h107zM115 173q0 -128 176 -128h89q2 28 2 42q0 108 -36.5 164.5t-101.5 56.5q-56 0 -92.5 -40t-36.5 -95z" />
    <glyph glyph-name="uniFE88" unicode="&#x625;" horiz-adv-x="218" arabic-form="final" 
d="M218 0q-69 0 -101.5 38.5t-32.5 118.5v582l42 5v-584q0 -64 21 -89.5t75 -25.5l16 -22zM133 -203l88 15l4 -29l-193 -31l-4 28l71 12q-52 35 -52 77q0 34 24 56t69 22q34 0 65 -18l-15 -26q-30 15 -52 15q-31 0 -45.5 -14t-14.5 -35q0 -37 55 -72z" />
    <glyph glyph-name="uniFE8A" unicode="&#x626;" horiz-adv-x="717" arabic-form="final" 
d="M234 361l4 -28l-193 -32l-4 29l71 11q-52 35 -52 78q0 33 24 55t69 22q33 0 65 -17l-15 -26q-28 14 -52 14q-60 0 -60 -49q0 -38 55 -71zM737 23l-20 -23q-53 0 -102 22q12 -18 12 -41q0 -73 -85 -125.5t-242 -52.5q-126 0 -185 59t-59 162q0 91 40 179l32 -10
q-31 -80 -31 -164q0 -180 207 -180q135 0 209.5 42t74.5 94q0 28 -34.5 49t-145.5 57l19 39q42 -14 92.5 -33t75.5 -28.5t58.5 -16.5t67.5 -7z" />
    <glyph glyph-name="uniFE8B" unicode="&#x626;" horiz-adv-x="261" arabic-form="initial" 
d="M23 455l-4 29l71 11q-52 35 -52 78q0 33 24 55t69 22q33 0 65 -17l-15 -26q-28 14 -52 14q-60 0 -60 -49q0 -38 55 -71l88 14l4 -28zM111 374l44 14q40 -120 40 -225q0 -91 -40.5 -127t-154.5 -36l-20 23l24 22q91 0 120.5 26.5t29.5 93.5q0 88 -43 209z" />
    <glyph glyph-name="uniFE8C" unicode="&#x626;" horiz-adv-x="320" arabic-form="medial" 
d="M65 382l-4 29l71 11q-52 35 -52 78q0 33 24 55t69 22q33 0 65 -17l-15 -26q-28 14 -52 14q-60 0 -60 -49q0 -38 55 -71l88 14l4 -28zM324 45l16 -22l-20 -23q-123 0 -159 89q-33 -89 -161 -89l-20 23l25 22q75 0 104 30t29 91v149h43v-149q0 -121 143 -121z" />
    <glyph glyph-name="uniFE8E" unicode="&#x627;" horiz-adv-x="218" arabic-form="final" 
d="M84 157v582l42 5v-584q0 -64 21 -89.5t75 -25.5l16 -22l-20 -23q-69 0 -101.5 38.5t-32.5 118.5z" />
    <glyph glyph-name="uniFE90" unicode="&#x628;" horiz-adv-x="896" arabic-form="final" 
d="M900 45l16 -21l-20 -24q-110 0 -158 84q-146 -97 -408 -97q-143 0 -208.5 45t-65.5 138q0 78 36 151l32 -11q-27 -67 -27 -135q0 -74 56 -108t181 -34q256 0 387 91v191h41v-157q0 -113 138 -113zM358 -111q13 0 22 -8.5t9 -21.5t-9 -22t-22 -9t-22 9t-9 22t9 21.5
t22 8.5z" />
    <glyph glyph-name="uniFE91" unicode="&#x628;" horiz-adv-x="261" arabic-form="initial" 
d="M4 45q91 0 120.5 26.5t29.5 93.5q0 88 -43 209l44 14q40 -120 40 -225q0 -91 -40.5 -127t-154.5 -36l-20 23zM117 -172q-13 0 -22 9t-9 22t9 21.5t22 8.5t22 -8.5t9 -21.5t-9 -22t-22 -9z" />
    <glyph glyph-name="uniFE92" unicode="&#x628;" horiz-adv-x="320" arabic-form="medial" 
d="M324 45l16 -22l-20 -23q-123 0 -159 89q-33 -89 -161 -89l-20 23l25 22q75 0 104 30t29 91v149h43v-149q0 -121 143 -121zM160 -111q13 0 22 -8.5t9 -21.5t-9 -22t-22 -9t-22 9t-9 22t9 21.5t22 8.5z" />
    <glyph glyph-name="uniFE94" unicode="&#x629;" horiz-adv-x="493" arabic-form="final" 
d="M292 597q-12 0 -20.5 8.5t-8.5 20.5q0 11 8.5 20t20.5 9t20 -8.5t8 -20.5t-8 -20.5t-20 -8.5zM424 597q-12 0 -20 8.5t-8 20.5t8 20.5t20 8.5t20.5 -9t8.5 -20q0 -12 -8.5 -20.5t-20.5 -8.5zM497 45l16 -23l-20 -22h-14q-113 0 -136 115q-26 -35 -69 -56t-92 -21
q-72 0 -113.5 37.5t-41.5 97.5q0 85 81 141.5t229 64.5v110l42 6v-320q0 -69 26 -99.5t78 -30.5h14zM188 82q48 0 87 20.5t62 53.5v179q-133 -4 -201 -47.5t-68 -110.5q0 -43 30 -69t90 -26z" />
    <glyph glyph-name="uniFE96" unicode="&#x62a;" horiz-adv-x="896" arabic-form="final" 
d="M348 399q-12 0 -20.5 8.5t-8.5 20.5q0 11 8.5 20t20.5 9t20 -8.5t8 -20.5t-8 -20.5t-20 -8.5zM480 399q-12 0 -20 8.5t-8 20.5t8 20.5t20 8.5t20.5 -9t8.5 -20q0 -12 -8.5 -20.5t-20.5 -8.5zM900 45l16 -21l-20 -24q-110 0 -158 84q-146 -97 -408 -97q-143 0 -208.5 45
t-65.5 138q0 78 36 151l32 -11q-27 -67 -27 -135q0 -74 56 -108t181 -34q256 0 387 91v191h41v-157q0 -113 138 -113z" />
    <glyph glyph-name="uniFE97" unicode="&#x62a;" horiz-adv-x="261" arabic-form="initial" 
d="M52 493q-12 0 -20.5 8.5t-8.5 20.5q0 11 8.5 20t20.5 9t20 -8.5t8 -20.5t-8 -20.5t-20 -8.5zM184 493q-12 0 -20 8.5t-8 20.5t8 20.5t20 8.5t20.5 -9t8.5 -20q0 -12 -8.5 -20.5t-20.5 -8.5zM4 45q91 0 120.5 26.5t29.5 93.5q0 88 -43 209l44 14q40 -120 40 -225
q0 -91 -40.5 -127t-154.5 -36l-20 23z" />
    <glyph glyph-name="uniFE98" unicode="&#x62a;" horiz-adv-x="320" arabic-form="medial" 
d="M94 420q-12 0 -20.5 8.5t-8.5 20.5q0 11 8.5 20t20.5 9t20 -8.5t8 -20.5t-8 -20.5t-20 -8.5zM226 420q-12 0 -20 8.5t-8 20.5t8 20.5t20 8.5t20.5 -9t8.5 -20q0 -12 -8.5 -20.5t-20.5 -8.5zM324 45l16 -22l-20 -23q-123 0 -159 89q-33 -89 -161 -89l-20 23l25 22
q75 0 104 30t29 91v149h43v-149q0 -121 143 -121z" />
    <glyph glyph-name="uniFE9A" unicode="&#x62b;" horiz-adv-x="896" arabic-form="final" 
d="M414 468q-11 0 -19.5 8t-8.5 20q0 11 8.5 19.5t19.5 8.5t19.5 -8.5t8.5 -19.5q0 -12 -8.5 -20t-19.5 -8zM346 367q-12 0 -20.5 8.5t-8.5 19.5t8.5 19t20.5 8q11 0 19.5 -8t8.5 -19t-8.5 -19.5t-19.5 -8.5zM482 367q-11 0 -19.5 8.5t-8.5 19.5t8.5 19t19.5 8q12 0 20.5 -8
t8.5 -19t-8.5 -19.5t-20.5 -8.5zM900 45l16 -21l-20 -24q-110 0 -158 84q-146 -97 -408 -97q-143 0 -208.5 45t-65.5 138q0 78 36 151l32 -11q-27 -67 -27 -135q0 -74 56 -108t181 -34q256 0 387 91v191h41v-157q0 -113 138 -113z" />
    <glyph glyph-name="uniFE9B" unicode="&#x62b;" horiz-adv-x="261" arabic-form="initial" 
d="M118 562q-11 0 -19.5 8t-8.5 20q0 11 8.5 19.5t19.5 8.5t19.5 -8.5t8.5 -19.5q0 -12 -8.5 -20t-19.5 -8zM50 461q-12 0 -20.5 8.5t-8.5 19.5t8.5 19t20.5 8q11 0 19.5 -8t8.5 -19t-8.5 -19.5t-19.5 -8.5zM186 461q-11 0 -19.5 8.5t-8.5 19.5t8.5 19t19.5 8q12 0 20.5 -8
t8.5 -19t-8.5 -19.5t-20.5 -8.5zM4 45q91 0 120.5 26.5t29.5 93.5q0 88 -43 209l44 14q40 -120 40 -225q0 -91 -40.5 -127t-154.5 -36l-20 23z" />
    <glyph glyph-name="uniFE9C" unicode="&#x62b;" horiz-adv-x="320" arabic-form="medial" 
d="M160 489q-11 0 -19.5 8t-8.5 20q0 11 8.5 19.5t19.5 8.5t19.5 -8.5t8.5 -19.5q0 -12 -8.5 -20t-19.5 -8zM92 388q-12 0 -20.5 8.5t-8.5 19.5t8.5 19t20.5 8q11 0 19.5 -8t8.5 -19t-8.5 -19.5t-19.5 -8.5zM228 388q-11 0 -19.5 8.5t-8.5 19.5t8.5 19t19.5 8q12 0 20.5 -8
t8.5 -19t-8.5 -19.5t-20.5 -8.5zM324 45l16 -22l-20 -23q-123 0 -159 89q-33 -89 -161 -89l-20 23l25 22q75 0 104 30t29 91v149h43v-149q0 -121 143 -121z" />
    <glyph glyph-name="uniFE9E" unicode="&#x62c;" horiz-adv-x="687" arabic-form="final" 
d="M687 0q-98 0 -155.5 47.5t-72.5 154.5q-172 -21 -261 -94t-89 -188q0 -100 72 -162t208 -62q125 0 215 46l17 -40q-93 -52 -236 -52q-154 0 -234.5 74t-80.5 191q0 144 112 229.5t322 98.5q-46 18 -87.5 45.5t-65 47.5t-57 35t-71.5 15q-65 0 -123 -35l-21 40
q68 41 147 41q42 0 77.5 -14.5t63.5 -37.5t57 -47.5t72.5 -48t95.5 -35.5l-5 -40l-46 -1l-47 -3q17 -91 64 -125.5t134 -34.5l15 -22zM329 -70q0 13 9 21.5t22 8.5t22 -8.5t9 -21.5t-9 -22t-22 -9t-22 9t-9 22z" />
    <glyph glyph-name="uniFE9F" unicode="&#x62c;" horiz-adv-x="691" arabic-form="initial" 
d="M220 432q53 0 93.5 -17t71.5 -44.5t62 -56.5t82 -59.5t116 -48.5l-7 -40l-53 -5q-70 -3 -136.5 -20.5t-119 -40.5t-103.5 -46t-109 -38.5t-117 -15.5l-20 23l24 24q66 0 136 22t123.5 49t134.5 52t164 30q-50 18 -92 44.5t-68 50t-52 45t-58.5 34t-73.5 12.5
q-57 0 -116 -35l-22 40q69 41 140 41zM295 -111q13 0 22 -8.5t9 -21.5t-9 -22t-22 -9t-22 9t-9 22t9 21.5t22 8.5z" />
    <glyph glyph-name="uniFEA0" unicode="&#x62c;" horiz-adv-x="733" arabic-form="medial" 
d="M737 45l16 -22l-20 -23q-203 0 -234 189q-55 -14 -123 -47.5t-119.5 -63.5t-121.5 -54t-135 -24l-20 23l24 22q66 0 138 26.5t126 59t130 63.5t148 39q-59 19 -107.5 48t-74.5 51t-63 38.5t-82 16.5q-57 0 -120 -34l-21 39q73 40 141 40q50 0 87.5 -13.5t67 -35.5
t60 -46.5t82.5 -51.5t118 -44l-6 -40l-51 -1q-28 -2 -44 -4q18 -86 67 -118.5t137 -32.5zM380 -61q13 0 22 -8.5t9 -21.5t-9 -22t-22 -9t-22 9t-9 22t9 21.5t22 8.5z" />
    <glyph glyph-name="uniFEA2" unicode="&#x62d;" horiz-adv-x="687" arabic-form="final" 
d="M459 202q-172 -21 -261 -94t-89 -188q0 -100 72 -162t208 -62q125 0 215 46l17 -40q-93 -52 -236 -52q-154 0 -234.5 74t-80.5 191q0 144 112 229.5t322 98.5q-46 18 -87.5 45.5t-65 47.5t-57 35t-71.5 15q-65 0 -123 -35l-21 40q68 41 147 41q42 0 77.5 -14.5
t63.5 -37.5t57 -47.5t72.5 -48t95.5 -35.5l-5 -40l-46 -1l-47 -3q17 -91 64 -125.5t134 -34.5l15 -22l-20 -23q-98 0 -155.5 47.5t-72.5 154.5z" />
    <glyph glyph-name="uniFEA3" unicode="&#x62d;" horiz-adv-x="691" arabic-form="initial" 
d="M220 432q53 0 93.5 -17t71.5 -44.5t62 -56.5t82 -59.5t116 -48.5l-7 -40l-53 -5q-70 -3 -136.5 -20.5t-119 -40.5t-103.5 -46t-109 -38.5t-117 -15.5l-20 23l24 24q66 0 136 22t123.5 49t134.5 52t164 30q-50 18 -92 44.5t-68 50t-52 45t-58.5 34t-73.5 12.5
q-57 0 -116 -35l-22 40q69 41 140 41z" />
    <glyph glyph-name="uniFEA4" unicode="&#x62d;" horiz-adv-x="733" arabic-form="medial" 
d="M737 45l16 -22l-20 -23q-203 0 -234 189q-55 -14 -123 -47.5t-119.5 -63.5t-121.5 -54t-135 -24l-20 23l24 22q66 0 138 26.5t126 59t130 63.5t148 39q-59 19 -107.5 48t-74.5 51t-63 38.5t-82 16.5q-57 0 -120 -34l-21 39q73 40 141 40q50 0 87.5 -13.5t67 -35.5
t60 -46.5t82.5 -51.5t118 -44l-6 -40l-51 -1q-28 -2 -44 -4q18 -85 67.5 -118t136.5 -33z" />
    <glyph glyph-name="uniFEA6" unicode="&#x62e;" horiz-adv-x="687" arabic-form="final" 
d="M224 496q-13 0 -22 8.5t-9 21.5t9 22t22 9t22 -9t9 -22t-9 -21.5t-22 -8.5zM459 202q-172 -21 -261 -94t-89 -188q0 -100 72 -162t208 -62q125 0 215 46l17 -40q-93 -52 -236 -52q-154 0 -234.5 74t-80.5 191q0 144 112 229.5t322 98.5q-46 18 -87.5 45.5t-65 47.5
t-57 35t-71.5 15q-65 0 -123 -35l-21 40q68 41 147 41q42 0 77.5 -14.5t63.5 -37.5t57 -47.5t72.5 -48t95.5 -35.5l-5 -40l-46 -1l-47 -3q17 -91 64 -125.5t134 -34.5l15 -22l-20 -23q-98 0 -155.5 47.5t-72.5 154.5z" />
    <glyph glyph-name="uniFEA7" unicode="&#x62e;" horiz-adv-x="691" arabic-form="initial" 
d="M219 496q-13 0 -22 8.5t-9 21.5t9 22t22 9t22 -9t9 -22t-9 -21.5t-22 -8.5zM220 432q53 0 93.5 -17t71.5 -44.5t62 -56.5t82 -59.5t116 -48.5l-7 -40l-53 -5q-70 -3 -136.5 -20.5t-119 -40.5t-103.5 -46t-109 -38.5t-117 -15.5l-20 23l24 24q66 0 136 22t123.5 49
t134.5 52t164 30q-50 18 -92 44.5t-68 50t-52 45t-58.5 34t-73.5 12.5q-57 0 -116 -35l-22 40q69 41 140 41z" />
    <glyph glyph-name="uniFEA8" unicode="&#x62e;" horiz-adv-x="733" arabic-form="medial" 
d="M219 497q-13 0 -22 8.5t-9 21.5t9 22t22 9t22 -9t9 -22t-9 -21.5t-22 -8.5zM737 45l16 -22l-20 -23q-203 0 -234 189q-55 -14 -123 -47.5t-119.5 -63.5t-121.5 -54t-135 -24l-20 23l24 22q66 0 138 26.5t126 59t130 63.5t148 39q-59 19 -107.5 48t-74.5 51t-63 38.5
t-82 16.5q-57 0 -120 -34l-21 39q73 40 141 40q50 0 87.5 -13.5t67 -35.5t60 -46.5t82.5 -51.5t118 -44l-6 -40l-51 -1q-28 -2 -44 -4q18 -85 67.5 -118t136.5 -33z" />
    <glyph glyph-name="uniFEAA" unicode="&#x62f;" horiz-adv-x="513" arabic-form="final" 
d="M516 45l17 -22l-20 -23q-94 0 -130 80q-63 -93 -203 -93q-74 0 -153 27l14 45q73 -25 142 -25q119 0 185 77l-149 359l45 21l134 -347q21 -55 45.5 -77t72.5 -22z" />
    <glyph glyph-name="uniFEAC" unicode="&#x630;" horiz-adv-x="513" arabic-form="final" 
d="M179 572q-13 0 -22 8.5t-9 21.5t9 22t22 9t22 -9t9 -22t-9 -21.5t-22 -8.5zM516 45l17 -22l-20 -23q-94 0 -130 80q-63 -93 -203 -93q-74 0 -153 27l14 45q73 -25 142 -25q119 0 185 77l-149 359l45 21l134 -347q21 -55 45.5 -77t72.5 -22z" />
    <glyph glyph-name="uniFEAE" unicode="&#x631;" horiz-adv-x="371" arabic-form="final" 
d="M376 45l15 -22l-20 -23q-76 0 -100 58q-6 -112 -73.5 -186t-205.5 -117l-18 43q138 43 199.5 112t61.5 165q0 93 -51 230l45 15q20 -67 35 -156q11 -63 37 -91t75 -28z" />
    <glyph glyph-name="uniFEB0" unicode="&#x632;" horiz-adv-x="371" arabic-form="final" 
d="M192 422q-13 0 -22 8.5t-9 21.5t9 22t22 9t22 -9t9 -22t-9 -21.5t-22 -8.5zM376 45l15 -22l-20 -23q-76 0 -100 58q-6 -112 -73.5 -186t-205.5 -117l-18 43q138 43 199.5 112t61.5 165q0 93 -51 230l45 15q20 -67 35 -156q11 -63 37 -91t75 -28z" />
    <glyph glyph-name="uniFEB2" unicode="&#x633;" horiz-adv-x="1299" arabic-form="final" 
d="M1303 45l16 -22l-20 -23q-151 0 -181 81q-35 -81 -141 -81q-102 0 -136 82q-31 -82 -134 -82q-77 0 -113 47q-3 -153 -73.5 -220.5t-220.5 -67.5q-126 0 -185 59t-59 162q0 89 40 179l32 -11q-31 -80 -31 -164q0 -180 207 -180q136 0 192.5 58.5t56.5 190.5q0 81 -56 223
l45 20q29 -93 42 -148q15 -54 44 -78.5t83 -24.5q107 0 107 122v148h42v-147q0 -123 119 -123q54 0 83 29t29 85l-1 197h43v-179q0 -74 37.5 -103t132.5 -29z" />
    <glyph glyph-name="uniFEB3" unicode="&#x633;" horiz-adv-x="805" arabic-form="initial" 
d="M699 387q40 -110 40 -218q0 -85 -39 -127t-111 -42q-50 0 -86 22t-51 61q-35 -83 -134 -83q-108 0 -137 81q-37 -81 -181 -81l-20 23l24 22q157 0 157 112v158h41v-147q0 -65 29.5 -94t87.5 -29q53 0 81.5 31.5t28.5 90.5v148h42v-147q0 -123 121 -123q105 0 105 119
q0 96 -39 209z" />
    <glyph glyph-name="uniFEB4" unicode="&#x633;" horiz-adv-x="925" arabic-form="medial" 
d="M929 45l16 -22l-20 -23q-151 0 -181 80q-36 -80 -140 -80q-106 0 -140 82q-32 -82 -135 -82q-51 0 -88.5 22t-50.5 60q-38 -82 -190 -82l-20 23l25 22q164 0 164 112v158h42v-147q0 -123 119 -123q112 0 112 122v148h42v-147q0 -123 121 -123q111 0 111 114v207h43v-189
q0 -74 37.5 -103t132.5 -29z" />
    <glyph glyph-name="uniFEB6" unicode="&#x634;" horiz-adv-x="1299" arabic-form="final" 
d="M839 489q-11 0 -19.5 8t-8.5 20q0 11 8.5 19.5t19.5 8.5t19.5 -8.5t8.5 -19.5q0 -12 -8.5 -20t-19.5 -8zM771 388q-12 0 -20.5 8.5t-8.5 19.5t8.5 19t20.5 8q11 0 19.5 -8t8.5 -19t-8.5 -19.5t-19.5 -8.5zM907 388q-11 0 -19.5 8.5t-8.5 19.5t8.5 19t19.5 8q12 0 20.5 -8
t8.5 -19t-8.5 -19.5t-20.5 -8.5zM1303 45l16 -22l-20 -23q-151 0 -181 81q-35 -81 -141 -81q-102 0 -136 82q-31 -82 -134 -82q-77 0 -113 47q-3 -153 -73.5 -220.5t-220.5 -67.5q-126 0 -185 59t-59 162q0 89 40 179l32 -11q-31 -80 -31 -164q0 -180 207 -180
q136 0 192.5 58.5t56.5 190.5q0 81 -56 223l45 20q29 -93 42 -148q15 -54 44 -78.5t83 -24.5q107 0 107 122v148h42v-147q0 -123 119 -123q54 0 83 29t29 85l-1 197h43v-179q0 -74 37.5 -103t132.5 -29z" />
    <glyph glyph-name="uniFEB7" unicode="&#x634;" horiz-adv-x="805" arabic-form="initial" 
d="M449 489q-11 0 -19.5 8t-8.5 20q0 11 8.5 19.5t19.5 8.5t19.5 -8.5t8.5 -19.5q0 -12 -8.5 -20t-19.5 -8zM381 388q-12 0 -20.5 8.5t-8.5 19.5t8.5 19t20.5 8q11 0 19.5 -8t8.5 -19t-8.5 -19.5t-19.5 -8.5zM517 388q-11 0 -19.5 8.5t-8.5 19.5t8.5 19t19.5 8q12 0 20.5 -8
t8.5 -19t-8.5 -19.5t-20.5 -8.5zM699 387q40 -110 40 -218q0 -85 -39 -127t-111 -42q-50 0 -86 22t-51 61q-35 -83 -134 -83q-108 0 -137 81q-37 -81 -181 -81l-20 23l24 22q157 0 157 112v158h41v-147q0 -65 29.5 -94t87.5 -29q53 0 81.5 31.5t28.5 90.5v148h42v-147
q0 -123 121 -123q105 0 105 119q0 96 -39 209z" />
    <glyph glyph-name="uniFEB8" unicode="&#x634;" horiz-adv-x="925" arabic-form="medial" 
d="M463 489q-11 0 -19.5 8t-8.5 20q0 11 8.5 19.5t19.5 8.5t19.5 -8.5t8.5 -19.5q0 -12 -8.5 -20t-19.5 -8zM395 388q-12 0 -20.5 8.5t-8.5 19.5t8.5 19t20.5 8q11 0 19.5 -8t8.5 -19t-8.5 -19.5t-19.5 -8.5zM531 388q-11 0 -19.5 8.5t-8.5 19.5t8.5 19t19.5 8q12 0 20.5 -8
t8.5 -19t-8.5 -19.5t-20.5 -8.5zM929 45l16 -22l-20 -23q-151 0 -181 80q-36 -80 -140 -80q-106 0 -140 82q-32 -82 -135 -82q-51 0 -88.5 22t-50.5 60q-38 -82 -190 -82l-20 23l25 22q164 0 164 112v158h42v-147q0 -123 119 -123q112 0 112 122v148h42v-147
q0 -123 121 -123q111 0 111 114v207h43v-189q0 -74 37.5 -103t132.5 -29z" />
    <glyph glyph-name="uniFEBA" unicode="&#x635;" horiz-adv-x="1351" arabic-form="final" 
d="M1355 45l16 -22l-20 -23q-88 0 -142 75q-39 -43 -123 -59t-237 -16h-142v3q-77 0 -113 47q-3 -153 -73.5 -220.5t-220.5 -67.5q-126 0 -185 59t-59 162q0 89 40 179l32 -11q-31 -80 -31 -164q0 -180 207 -180q136 0 192.5 58.5t56.5 190.5q0 81 -56 223l45 20
q29 -93 42 -148q14 -49 38.5 -73.5t66.5 -28.5q55 175 151 277.5t209 102.5q97 0 149 -58t52 -162q0 -64 -20 -103q46 -61 125 -61zM849 45q206 0 283.5 33.5t77.5 131.5q0 172 -158 172q-201 0 -325 -337h122z" />
    <glyph glyph-name="uniFEBB" unicode="&#x635;" horiz-adv-x="919" arabic-form="initial" 
d="M652 429q96 0 148.5 -58t52.5 -162q0 -126 -85.5 -167.5t-316.5 -41.5h-142q-118 0 -154 86q-31 -86 -155 -86l-20 23l25 22q72 0 100 29t28 89v211h42v-211q0 -108 115 -117q55 176 151.5 279.5t210.5 103.5zM451 45q207 0 284.5 33.5t77.5 131.5q0 172 -158 172
q-200 0 -326 -337h122z" />
    <glyph glyph-name="uniFEBC" unicode="&#x635;" horiz-adv-x="953" arabic-form="medial" 
d="M958 45l15 -22l-20 -23q-88 0 -141 74q-39 -42 -123.5 -58t-237.5 -16h-142q-118 0 -154 86q-31 -86 -155 -86l-20 23l25 22q72 0 100 29t28 89v211h42v-211q0 -108 115 -117q55 176 151.5 279.5t210.5 103.5q96 0 148.5 -58t52.5 -162q0 -64 -20 -103q46 -61 125 -61z
M451 45q207 0 284.5 33.5t77.5 131.5q0 172 -158 172q-200 0 -326 -337h122z" />
    <glyph glyph-name="uniFEBE" unicode="&#x636;" horiz-adv-x="1351" arabic-form="final" 
d="M1016 478q-13 0 -22 8.5t-9 21.5t9 22t22 9t22 -9t9 -22t-9 -21.5t-22 -8.5zM1355 45l16 -22l-20 -23q-88 0 -142 75q-39 -43 -123 -59t-237 -16h-142v3q-77 0 -113 47q-3 -153 -73.5 -220.5t-220.5 -67.5q-126 0 -185 59t-59 162q0 89 40 179l32 -11q-31 -80 -31 -164
q0 -180 207 -180q136 0 192.5 58.5t56.5 190.5q0 81 -56 223l45 20q29 -93 42 -148q14 -49 38.5 -73.5t66.5 -28.5q55 175 151 277.5t209 102.5q97 0 149 -58t52 -162q0 -64 -20 -103q46 -61 125 -61zM849 45q206 0 283.5 33.5t77.5 131.5q0 172 -158 172q-201 0 -325 -337
h122z" />
    <glyph glyph-name="uniFEBF" unicode="&#x636;" horiz-adv-x="919" arabic-form="initial" 
d="M618 478q-13 0 -22 9t-9 22t9 21.5t22 8.5t21.5 -8.5t8.5 -21.5t-8.5 -22t-21.5 -9zM652 429q96 0 148.5 -58t52.5 -162q0 -126 -85.5 -167.5t-316.5 -41.5h-142q-118 0 -154 86q-31 -86 -155 -86l-20 23l25 22q72 0 100 29t28 89v211h42v-211q0 -108 115 -117
q55 176 151.5 279.5t210.5 103.5zM451 45q207 0 284.5 33.5t77.5 131.5q0 172 -158 172q-200 0 -326 -337h122z" />
    <glyph glyph-name="uniFEC0" unicode="&#x636;" horiz-adv-x="953" arabic-form="medial" 
d="M618 478q-13 0 -22 9t-9 22t9 21.5t22 8.5t21.5 -8.5t8.5 -21.5t-8.5 -22t-21.5 -9zM958 45l15 -22l-20 -23q-88 0 -141 74q-39 -42 -123.5 -58t-237.5 -16h-142q-118 0 -154 86q-31 -86 -155 -86l-20 23l25 22q72 0 100 29t28 89v211h42v-211q0 -108 115 -117
q55 176 151.5 279.5t210.5 103.5q96 0 148.5 -58t52.5 -162q0 -64 -20 -103q46 -61 125 -61zM451 45q207 0 284.5 33.5t77.5 131.5q0 172 -158 172q-200 0 -326 -337h122z" />
    <glyph glyph-name="uniFEC2" unicode="&#x637;" horiz-adv-x="824" arabic-form="final" 
d="M828 45l16 -22l-20 -23q-88 0 -142 75q-39 -43 -123 -59t-237 -16h-285l9 45h114q19 57 35 94v600l42 6v-522q57 98 130.5 152t154.5 54q97 0 149 -58t52 -162q0 -63 -19 -102q45 -62 124 -62zM322 45q207 0 284.5 33.5t77.5 131.5q0 172 -159 172q-201 0 -325 -337h122z
" />
    <glyph glyph-name="uniFEC3" unicode="&#x637;" horiz-adv-x="803" arabic-form="initial" 
d="M536 429q97 0 149 -58t52 -162q0 -126 -85.5 -167.5t-315.5 -41.5h-336l-20 23l24 22h170q19 57 35 94v600l42 6v-522q57 98 130.5 152t154.5 54zM336 45q207 0 284.5 33.5t77.5 131.5q0 172 -159 172q-201 0 -325 -337h122z" />
    <glyph glyph-name="uniFEC4" unicode="&#x637;" horiz-adv-x="838" arabic-form="medial" 
d="M842 45l16 -22l-20 -23q-88 0 -142 75q-39 -43 -123 -59t-237 -16h-336l-20 23l24 22h170q19 57 35 94v600l42 6v-522q57 98 130.5 152t154.5 54q97 0 149 -58t52 -162q0 -63 -19 -102q45 -62 124 -62zM336 45q207 0 284.5 33.5t77.5 131.5q0 172 -159 172
q-201 0 -325 -337h122z" />
    <glyph glyph-name="uniFEC6" unicode="&#x638;" horiz-adv-x="824" arabic-form="final" 
d="M828 45l16 -22l-20 -23q-88 0 -142 75q-39 -43 -123 -59t-237 -16h-285l9 45h114q19 57 35 94v600l42 6v-522q57 98 130.5 152t154.5 54q97 0 149 -58t52 -162q0 -63 -19 -102q45 -62 124 -62zM480 478q-13 0 -22 8.5t-9 21.5t9 22t22 9t22 -9t9 -22t-9 -21.5t-22 -8.5z
M322 45q207 0 284.5 33.5t77.5 131.5q0 172 -159 172q-201 0 -325 -337h122z" />
    <glyph glyph-name="uniFEC7" unicode="&#x638;" horiz-adv-x="802" arabic-form="initial" 
d="M536 429q97 0 149 -58t52 -162q0 -126 -85.5 -167.5t-315.5 -41.5h-336l-20 23l24 22h170q19 57 35 94v600l42 6v-522q57 98 130.5 152t154.5 54zM493 478q-13 0 -22 9t-9 22t9 21.5t22 8.5t22 -8.5t9 -21.5t-9 -22t-22 -9zM336 45q207 0 284.5 33.5t77.5 131.5
q0 172 -159 172q-201 0 -325 -337h122z" />
    <glyph glyph-name="uniFEC8" unicode="&#x638;" horiz-adv-x="837" arabic-form="medial" 
d="M842 45l16 -22l-20 -23q-88 0 -142 75q-39 -43 -123 -59t-237 -16h-336l-20 23l24 22h170q19 57 35 94v600l42 6v-522q57 98 130.5 152t154.5 54q97 0 149 -58t52 -162q0 -63 -19 -102q45 -62 124 -62zM493 478q-13 0 -22 9t-9 22t9 21.5t22 8.5t22 -8.5t9 -21.5t-9 -22
t-22 -9zM336 45q207 0 284.5 33.5t77.5 131.5q0 172 -159 172q-201 0 -325 -337h122z" />
    <glyph glyph-name="uniFECA" unicode="&#x639;" horiz-adv-x="556" arabic-form="final" 
d="M343 -304q115 0 200 44l18 -41q-90 -49 -223 -49q-137 0 -211 65.5t-74 164.5q0 172 188 253q-7 7 -32.5 33.5t-42.5 43t-49.5 45.5t-68.5 56l5 45q110 46 225 46q192 0 192 -118q0 -50 -36.5 -87.5t-114.5 -73.5q56 -46 98.5 -62t114.5 -16h27l17 -22l-20 -23h-31
q-71 0 -128 24t-123 79q-93 -41 -137 -93t-44 -125q0 -82 65.5 -135.5t184.5 -53.5zM93 324q50 -37 117.5 -101.5t74.5 -70.5q76 32 110.5 61t34.5 67q0 78 -152 78q-96 0 -185 -34z" />
    <glyph glyph-name="uniFECB" unicode="&#x639;" horiz-adv-x="539" arabic-form="initial" 
d="M511 97l5 -45q-129 -31 -215 -41.5t-209 -10.5h-92l-20 23l24 22h79q72 0 127 3q-136 75 -136 196q0 72 52 123.5t146 51.5q76 0 143 -37l-20 -42q-61 33 -123 33q-77 0 -116.5 -38t-39.5 -94q0 -108 157 -189q92 10 238 45z" />
    <glyph glyph-name="uniFECC" unicode="&#x639;" horiz-adv-x="549" arabic-form="medial" 
d="M554 45l15 -23l-20 -22h-22q-125 0 -222 80q-69 -37 -146 -58.5t-134 -21.5h-25l-20 22l24 23h13q119 0 255 64q-17 17 -55 57t-76 75t-87 70l5 45q110 46 215 46q97 0 147.5 -33t50.5 -90q0 -93 -127 -175q43 -32 84.5 -45.5t105.5 -13.5h19zM100 325q51 -37 122 -107.5
t91 -87.5q120 69 120 145q0 83 -159 83q-87 0 -174 -33z" />
    <glyph glyph-name="uniFECE" unicode="&#x63a;" horiz-adv-x="556" arabic-form="final" 
d="M278 474q-13 0 -22 8.5t-9 21.5t9 22t22 9t22 -9t9 -22t-9 -21.5t-22 -8.5zM343 -304q115 0 200 44l18 -41q-90 -49 -223 -49q-137 0 -211 65.5t-74 164.5q0 172 188 253q-7 7 -32.5 33.5t-42.5 43t-49.5 45.5t-68.5 56l5 45q110 46 225 46q192 0 192 -118
q0 -50 -36.5 -87.5t-114.5 -73.5q56 -46 98.5 -62t114.5 -16h27l17 -22l-20 -23h-31q-71 0 -128 24t-123 79q-93 -41 -137 -93t-44 -125q0 -82 65.5 -135.5t184.5 -53.5zM93 324q50 -37 117.5 -101.5t74.5 -70.5q76 32 110.5 61t34.5 67q0 78 -152 78q-96 0 -185 -34z" />
    <glyph glyph-name="uniFECF" unicode="&#x63a;" horiz-adv-x="539" arabic-form="initial" 
d="M272 483q-13 0 -22 8.5t-9 21.5t9 22t22 9t22 -9t9 -22t-9 -21.5t-22 -8.5zM511 97l5 -45q-129 -31 -215 -41.5t-209 -10.5h-92l-20 23l24 22h79q72 0 127 3q-136 75 -136 196q0 72 52 123.5t146 51.5q76 0 143 -37l-20 -42q-61 33 -123 33q-77 0 -116.5 -38t-39.5 -94
q0 -108 157 -189q92 10 238 45z" />
    <glyph glyph-name="uniFED0" unicode="&#x63a;" horiz-adv-x="549" arabic-form="medial" 
d="M273 475q-13 0 -22 8.5t-9 21.5t9 22t22 9t22 -9t9 -22t-9 -21.5t-22 -8.5zM554 45l15 -23l-20 -22h-22q-125 0 -222 80q-69 -37 -146 -58.5t-134 -21.5h-25l-20 22l24 23h13q119 0 255 64q-17 17 -55 57t-76 75t-87 70l5 45q110 46 215 46q97 0 147.5 -33t50.5 -90
q0 -93 -127 -175q43 -32 84.5 -45.5t105.5 -13.5h19zM100 325q51 -37 122 -107.5t91 -87.5q120 69 120 145q0 83 -159 83q-87 0 -174 -33z" />
    <glyph glyph-name="uniFED2" unicode="&#x641;" horiz-adv-x="957" arabic-form="final" 
d="M713 520q-13 0 -22 8.5t-9 21.5t9 22t22 9t22 -9t9 -22t-9 -21.5t-22 -8.5zM960 45l17 -22l-20 -23h-33q-110 0 -211 49q-146 -62 -383 -62q-143 0 -208.5 45t-65.5 138q0 78 36 151l32 -11q-27 -67 -27 -135q0 -74 56 -108t181 -34q205 0 334 42q-119 77 -119 189
q0 78 47.5 134t116.5 56q78 0 125.5 -55.5t47.5 -136.5q0 -114 -127 -189q79 -28 165 -28h36zM589 264q0 -108 124 -171q133 60 133 169q0 64 -35.5 105t-95.5 41q-55 0 -90.5 -40.5t-35.5 -103.5z" />
    <glyph glyph-name="uniFED3" unicode="&#x641;" horiz-adv-x="454" arabic-form="initial" 
d="M209 606q-13 0 -22 8.5t-9 21.5t9 22t22 9t22 -9t9 -22t-9 -21.5t-22 -8.5zM211 538q79 0 128 -69.5t49 -194.5q0 -74 -16 -122t-58 -84t-118.5 -52t-195.5 -16l-20 24l24 21q103 0 170 11t103.5 35.5t51.5 55.5t19 78q-46 -40 -128 -40q-81 0 -130 47.5t-49 122.5
q0 74 49 128.5t121 54.5zM233 227q65 0 116 30v11q0 111 -37 168t-102 57q-56 0 -92.5 -40t-36.5 -96q0 -60 39.5 -95t112.5 -35z" />
    <glyph glyph-name="uniFED4" unicode="&#x641;" horiz-adv-x="488" arabic-form="medial" 
d="M244 518q-13 0 -22 8.5t-9 21.5t9 22t22 9t22 -9t9 -22t-9 -21.5t-22 -8.5zM492 45l16 -22l-20 -23h-33q-106 0 -204 46q-99 -46 -224 -46h-27l-20 23l24 22h28q98 0 173 26q-125 78 -125 193q0 78 48 134t116 56q78 0 125.5 -55.5t47.5 -136.5q0 -52 -32 -102.5
t-90 -88.5q76 -26 160 -26h37zM120 264q0 -110 131 -175q60 30 93 74.5t33 98.5q0 64 -35.5 105t-95.5 41q-55 0 -90.5 -41t-35.5 -103z" />
    <glyph glyph-name="uniFED6" unicode="&#x642;" horiz-adv-x="758" arabic-form="final" 
d="M416 448q-12 0 -20.5 8.5t-8.5 20.5q0 11 8.5 20t20.5 9t20 -8.5t8 -20.5t-8 -20.5t-20 -8.5zM548 448q-12 0 -20 8.5t-8 20.5t8 20.5t20 8.5t20.5 -9t8.5 -20q0 -12 -8.5 -20.5t-20.5 -8.5zM778 23l-20 -23h-104q-13 -117 -81 -179t-222 -62q-162 0 -228.5 57.5
t-66.5 163.5q0 89 40 179l32 -11q-31 -80 -31 -164q0 -86 57.5 -133t201.5 -47q71 0 121 14.5t78 42.5t41.5 61t18.5 78h-97q-97 0 -152 48.5t-55 124.5q0 75 49 129t121 54q80 0 128.5 -70.5t48.5 -200.5q0 -27 -1 -40h105zM351 176q0 -60 44 -95.5t123 -35.5h100
q1 11 1 34q0 116 -36.5 174t-102.5 58q-56 0 -92.5 -39.5t-36.5 -95.5z" />
    <glyph glyph-name="uniFED7" unicode="&#x642;" horiz-adv-x="454" arabic-form="initial" 
d="M144 634q-12 0 -20.5 8.5t-8.5 20.5q0 11 8.5 20t20.5 9t20 -8.5t8 -20.5t-8 -20.5t-20 -8.5zM276 634q-12 0 -20 8.5t-8 20.5t8 20.5t20 8.5t20.5 -9t8.5 -20q0 -12 -8.5 -20.5t-20.5 -8.5zM211 538q79 0 128 -69.5t49 -194.5q0 -74 -16 -122t-58 -84t-118.5 -52
t-195.5 -16l-20 24l24 21q103 0 170 11t103.5 35.5t51.5 55.5t19 78q-46 -40 -128 -40q-81 0 -130 47.5t-49 122.5q0 74 49 128.5t121 54.5zM233 227q65 0 116 30v11q0 111 -37 168t-102 57q-56 0 -92.5 -40t-36.5 -96q0 -60 39.5 -95t112.5 -35z" />
    <glyph glyph-name="uniFED8" unicode="&#x642;" horiz-adv-x="488" arabic-form="medial" 
d="M179 546q-12 0 -20.5 8.5t-8.5 20.5q0 11 8.5 20t20.5 9t20 -8.5t8 -20.5t-8 -20.5t-20 -8.5zM311 546q-12 0 -20 8.5t-8 20.5t8 20.5t20 8.5t20.5 -9t8.5 -20q0 -12 -8.5 -20.5t-20.5 -8.5zM492 45l16 -22l-20 -23h-33q-106 0 -204 46q-99 -46 -224 -46h-27l-20 23
l24 22h28q98 0 173 26q-125 78 -125 193q0 78 48 134t116 56q78 0 125.5 -55.5t47.5 -136.5q0 -52 -32 -102.5t-90 -88.5q76 -26 160 -26h37zM120 264q0 -110 131 -175q60 30 93 74.5t33 98.5q0 64 -35.5 105t-95.5 41q-55 0 -90.5 -41t-35.5 -103z" />
    <glyph glyph-name="uniFEDA" unicode="&#x643;" horiz-adv-x="832" arabic-form="final" 
d="M836 45l16 -21l-20 -24q-90 0 -132 83q-133 -96 -370 -96q-143 0 -208.5 45t-65.5 138q0 78 36 151l32 -11q-27 -67 -27 -135q0 -74 56 -108t182 -34q224 0 350 93v614l42 5v-593q0 -43 25 -75t84 -32zM299 310q156 0 156 50q0 20 -27 35.5t-97 29.5l7 34l157 92l-2 -36
l-121 -69q62 -16 88.5 -36t26.5 -50q0 -82 -183 -82z" />
    <glyph glyph-name="uniFEDB" unicode="&#x643;" horiz-adv-x="457" arabic-form="initial" 
d="M401 750l-4 -48l-346 -231q155 -66 219 -127t64 -135q0 -104 -89 -156.5t-245 -52.5l-20 23l24 22q289 0 289 167q0 59 -65 115.5t-224 120.5l9 42z" />
    <glyph glyph-name="uniFEDC" unicode="&#x643;" horiz-adv-x="541" arabic-form="medial" 
d="M545 45l16 -21l-20 -24q-82 0 -142 43t-153 171q2 -10 2 -27q0 -87 -63 -137t-185 -50l-20 23l24 22q104 0 155 39.5t51 110.5q0 63 -50 125l-104 128l10 42l387 260l-2 -48l-355 -236l157 -195q84 -106 121.5 -146t76.5 -60t94 -20z" />
    <glyph glyph-name="uniFEDE" unicode="&#x644;" horiz-adv-x="702" arabic-form="final" 
d="M706 45l16 -22l-20 -23q-89 0 -123 54q-7 -131 -78 -188.5t-201 -57.5q-126 0 -185 59t-59 162q0 90 40 178l32 -10q-31 -80 -31 -164q0 -180 207 -180q124 0 179 55t55 173v658l42 5v-564q0 -75 28 -105t98 -30z" />
    <glyph glyph-name="uniFEDF" unicode="&#x644;" horiz-adv-x="228" arabic-form="initial" 
d="M0 0l-20 23l24 22q97 0 97 112v582l42 5v-590q0 -85 -37.5 -119.5t-105.5 -34.5z" />
    <glyph glyph-name="uniFEE0" unicode="&#x644;" horiz-adv-x="242" arabic-form="medial" 
d="M245 45l17 -22l-21 -23q-89 0 -120 69q-30 -69 -121 -69l-20 23l24 22q51 0 73.5 26t22.5 80v589l42 5v-594q0 -106 103 -106z" />
    <glyph glyph-name="uniFEE2" unicode="&#x645;" horiz-adv-x="700" arabic-form="final" 
d="M704 45l16 -22l-20 -23q-126 0 -152 84q-16 -46 -47.5 -71.5t-73.5 -25.5q-40 0 -84.5 18.5t-76 40t-64.5 40t-52 18.5q-51 0 -51 -110q0 -122 45 -323l-47 -7q-41 189 -41 327q0 163 89 163q13 0 32 -7q56 131 108.5 185t119.5 54q70 0 114 -54.5t44 -146.5v-6
q0 -74 31 -104t110 -30zM422 34q48 0 74.5 40t26.5 110q0 73 -34 114.5t-90 41.5q-53 0 -92.5 -45.5t-92.5 -165.5q11 -7 45 -28.5t53.5 -33t51 -22.5t58.5 -11z" />
    <glyph glyph-name="uniFEE3" unicode="&#x645;" horiz-adv-x="601" arabic-form="initial" 
d="M382 386q66 0 109.5 -54t43.5 -147q0 -92 -36 -145t-101 -53q-91 0 -234 102q-31 -51 -69 -70t-88 -19h-7l-20 23l24 22h10q52 0 83 27t68 106q57 119 102.5 163.5t114.5 44.5zM396 34q48 0 73.5 41t25.5 110q0 74 -33.5 114.5t-86.5 40.5q-56 0 -93.5 -40.5
t-91.5 -161.5q-4 -8 -5 -12q71 -47 120 -69.5t91 -22.5z" />
    <glyph glyph-name="uniFEE4" unicode="&#x645;" horiz-adv-x="672" arabic-form="medial" 
d="M676 45l16 -22l-20 -23q-126 0 -152 84q-33 -97 -122 -97q-91 0 -234 102q-31 -51 -69 -70t-88 -19h-7l-20 23l24 22h10q52 0 83 27t68 106q57 119 102.5 163.5t114.5 44.5q66 0 109.5 -54t43.5 -147v-6q0 -74 31 -104t110 -30zM396 34q48 0 73.5 41t25.5 110
q0 74 -33.5 114.5t-86.5 40.5q-56 0 -93.5 -40.5t-91.5 -161.5q-4 -8 -5 -12q71 -47 120 -69.5t91 -22.5z" />
    <glyph glyph-name="uniFEE6" unicode="&#x646;" horiz-adv-x="707" arabic-form="final" 
d="M314 315q-13 0 -22 8.5t-9 21.5t9 22t22 9t22 -9t9 -22t-9 -21.5t-22 -8.5zM711 45l16 -22l-20 -23q-77 0 -113 47q-3 -153 -73.5 -220.5t-220.5 -67.5q-126 0 -185 59t-59 162q0 89 40 179l32 -11q-31 -80 -31 -164q0 -180 207 -180q136 0 192.5 58.5t56.5 190.5
q0 81 -56 223l45 20q29 -93 42 -148q15 -54 44 -78.5t83 -24.5z" />
    <glyph glyph-name="uniFEE7" unicode="&#x646;" horiz-adv-x="261" arabic-form="initial" 
d="M117 465q-13 0 -22 8.5t-9 21.5t9 22t22 9t22 -9t9 -22t-9 -21.5t-22 -8.5zM4 45q91 0 120.5 26.5t29.5 93.5q0 88 -43 209l44 14q40 -120 40 -225q0 -91 -40.5 -127t-154.5 -36l-20 23z" />
    <glyph glyph-name="uniFEE8" unicode="&#x646;" horiz-adv-x="320" arabic-form="medial" 
d="M159 392q-13 0 -22 8.5t-9 21.5t9 22t22 9t22 -9t9 -22t-9 -21.5t-22 -8.5zM324 45l16 -22l-20 -23q-123 0 -159 89q-33 -89 -161 -89l-20 23l25 22q75 0 104 30t29 91v149h43v-149q0 -121 143 -121z" />
    <glyph glyph-name="uniFEEA" unicode="&#x647;" horiz-adv-x="493" arabic-form="final" 
d="M497 45l16 -23l-20 -22h-14q-113 0 -136 115q-26 -35 -69 -56t-92 -21q-72 0 -113.5 37.5t-41.5 97.5q0 85 81 141.5t229 64.5v110l42 6v-320q0 -69 26 -99.5t78 -30.5h14zM188 82q48 0 87 20.5t62 53.5v179q-133 -4 -201 -47.5t-68 -110.5q0 -43 30 -69t90 -26z" />
    <glyph glyph-name="uniFEEB" unicode="&#x647;" horiz-adv-x="627" arabic-form="initial" 
d="M127 516q234 -130 334 -210.5t100 -156.5q0 -67 -50.5 -114.5t-115.5 -47.5q-94 0 -180 50q-84 -37 -194 -37h-21l-20 23l24 22h13q84 0 155 21q-108 83 -108 193q0 64 37.5 111t95.5 55q-43 25 -93 51zM101 257q0 -50 32.5 -95t85.5 -77q58 28 88 72.5t30 97.5
q0 58 -33.5 98t-83.5 40q-53 0 -86 -39t-33 -97zM395 33q49 0 88 30t39 77q0 76 -164 187q14 -34 14 -70q0 -121 -110 -195q68 -29 133 -29z" />
    <glyph glyph-name="uniFEEC" unicode="&#x647;" horiz-adv-x="486" arabic-form="medial" 
d="M506 23l-20 -23h-153q98 -42 98 -134q0 -52 -34.5 -86.5t-92.5 -34.5q-89 0 -147 71.5t-61 183.5h-96l-20 23l24 22h92q3 134 68.5 230t152.5 96q53 0 85.5 -34t32.5 -99q0 -54 -32.5 -109.5t-87.5 -83.5h175zM310 326q-67 0 -119 -80.5t-57 -200.5h68q82 0 136.5 58
t54.5 130q0 45 -22.5 69t-60.5 24zM391 -127q0 58 -50 92.5t-120 34.5h-88q5 -97 49.5 -153t117.5 -56q44 0 67.5 23.5t23.5 58.5z" />
    <glyph glyph-name="uniFEEE" unicode="&#x648;" horiz-adv-x="523" arabic-form="final" 
d="M543 23l-20 -23h-110q-23 -100 -105.5 -163t-238.5 -89l-13 44q142 24 217.5 75.5t97.5 132.5h-87q-101 0 -155 46.5t-54 123.5q0 74 49 128.5t121 54.5q79 0 128 -69t49 -192q0 -17 -2 -47h107zM115 173q0 -128 176 -128h89q2 28 2 42q0 108 -36.5 164.5t-101.5 56.5
q-56 0 -92.5 -40t-36.5 -95z" />
    <glyph glyph-name="uniFEF0" unicode="&#x649;" horiz-adv-x="717" arabic-form="final" 
d="M737 23l-20 -23q-53 0 -102 22q12 -18 12 -41q0 -73 -85 -125.5t-242 -52.5q-126 0 -185 59t-59 162q0 91 40 179l32 -10q-31 -80 -31 -164q0 -180 207 -180q135 0 209.5 42t74.5 94q0 28 -34.5 49t-145.5 57l19 39q42 -14 92.5 -33t75.5 -28.5t58.5 -16.5t67.5 -7z" />
    <glyph glyph-name="uniFEF2" unicode="&#x64a;" horiz-adv-x="717" arabic-form="final" 
d="M737 23l-20 -23q-53 0 -102 22q12 -18 12 -41q0 -73 -85 -125.5t-242 -52.5q-126 0 -185 59t-59 162q0 91 40 179l32 -10q-31 -80 -31 -164q0 -180 207 -180q135 0 209.5 42t74.5 94q0 28 -34.5 49t-145.5 57l19 39q42 -14 92.5 -33t75.5 -28.5t58.5 -16.5t67.5 -7z
M238 -299q12 0 20 -8.5t8 -20.5q0 -11 -8 -19.5t-20 -8.5t-20.5 8.5t-8.5 19.5q0 12 8.5 20.5t20.5 8.5zM370 -299q12 0 20.5 -8.5t8.5 -20.5q0 -11 -8.5 -19.5t-20.5 -8.5t-20 8t-8 20t8 20.5t20 8.5z" />
    <glyph glyph-name="uniFEF3" unicode="&#x64a;" horiz-adv-x="261" arabic-form="initial" 
d="M4 45q91 0 120.5 26.5t29.5 93.5q0 88 -43 209l44 14q40 -120 40 -225q0 -91 -40.5 -127t-154.5 -36l-20 23zM51 -170q-12 0 -20.5 8.5t-8.5 19.5q0 12 8.5 20.5t20.5 8.5t20 -8.5t8 -20.5q0 -11 -8 -19.5t-20 -8.5zM183 -170q-12 0 -20 8t-8 20t8 20.5t20 8.5t20.5 -8.5
t8.5 -20.5q0 -11 -8.5 -19.5t-20.5 -8.5z" />
    <glyph glyph-name="uniFEF4" unicode="&#x64a;" horiz-adv-x="320" arabic-form="medial" 
d="M324 45l16 -22l-20 -23q-123 0 -159 89q-33 -89 -161 -89l-20 23l25 22q75 0 104 30t29 91v149h43v-149q0 -121 143 -121zM94 -113q12 0 20 -8.5t8 -20.5q0 -11 -8 -19.5t-20 -8.5t-20.5 8.5t-8.5 19.5q0 12 8.5 20.5t20.5 8.5zM226 -113q12 0 20.5 -8.5t8.5 -20.5
q0 -11 -8.5 -19.5t-20.5 -8.5t-20 8t-8 20t8 20.5t20 8.5z" />
    <glyph glyph-name=".notdef" horiz-adv-x="666" 
d="M543 1050v-1400h-420v1400h420zM489 998h-311v-1296h311v1296zM324 451q111 0 111 -115q0 -104 -95 -118v-45q0 -11 -7.5 -17.5t-17.5 -6.5t-17.5 6.5t-7.5 17.5v84q53 3 72 19.5t19 57.5q0 33 -13 51t-48 18q-29 0 -52 -11q-8 -3 -13 -3q-24 0 -24 23q0 19 29.5 29
t63.5 10zM315 120q15 0 25 -10t10 -25q0 -16 -10 -26.5t-25 -10.5t-25 10.5t-10 26.5q0 15 10 25t25 10z" />
    <glyph glyph-name=".null" 
 />
    <glyph glyph-name="nonmarkingreturn" horiz-adv-x="333" 
 />
    <glyph glyph-name="CR" unicode="&#xd;" horiz-adv-x="284" 
 />
    <glyph glyph-name="space" unicode=" " horiz-adv-x="284" 
 />
    <glyph glyph-name="exclam" unicode="!" horiz-adv-x="240" 
d="M143 684l-2 -470h-43l-3 470h48zM120 69q18 0 29 -11.5t11 -28.5t-11 -28.5t-29 -11.5q-17 0 -28.5 11.5t-11.5 28.5t11.5 28.5t28.5 11.5z" />
    <glyph glyph-name="quotedbl" unicode="&#x22;" horiz-adv-x="349" 
d="M82 436l-7 248h49l-7 -248h-35zM232 436l-7 248h49l-6 -248h-36z" />
    <glyph glyph-name="numbersign" unicode="#" horiz-adv-x="498" 
d="M483 454h-79l-30 -230h72v-38h-77l-25 -186h-43l25 186h-193l-25 -186h-43l25 186h-75v38h80l30 230h-73v39h78l23 171h43l-23 -171h193l23 171h43l-23 -171h74v-39zM138 224h193l30 230h-193z" />
    <glyph glyph-name="dollar" unicode="$" horiz-adv-x="524" 
d="M465 180q0 -78 -50 -129.5t-133 -59.5v-140h-41v138q-113 3 -197 82l28 30q76 -71 178 -71q75 0 121.5 40t46.5 109q0 62 -35 95t-127 61q-102 32 -144 71.5t-42 106.5q0 66 47 110.5t124 48.5v145h41v-145q89 -5 163 -71l-29 -30q-66 62 -157 62q-64 0 -103 -32.5
t-39 -86.5q0 -53 33.5 -82.5t123.5 -56.5q101 -32 146 -73.5t45 -121.5z" />
    <glyph glyph-name="percent" unicode="%" horiz-adv-x="781" 
d="M609 701l35 -23l-463 -699l-35 22zM201 675q65 0 105 -43.5t40 -115.5q0 -74 -39 -118t-106 -44q-65 0 -105 43.5t-40 116.5t39.5 117t105.5 44zM201 640q-52 0 -76.5 -35t-24.5 -91q0 -54 25 -89t76 -35q52 0 76.5 35t24.5 91q0 54 -25 89t-76 35zM580 310
q65 0 105 -43.5t40 -115.5q0 -74 -39 -118t-106 -44q-64 0 -104.5 44t-40.5 116q0 73 39.5 117t105.5 44zM580 275q-51 0 -76 -35.5t-25 -90.5q0 -54 25 -89t76 -35q52 0 76.5 35t24.5 91q0 54 -24.5 89t-76.5 35z" />
    <glyph glyph-name="ampersand" unicode="&#x26;" horiz-adv-x="719" 
d="M301 694q71 0 115.5 -41t44.5 -105q0 -57 -37.5 -98.5t-119.5 -86.5l215 -201q45 92 68 198l43 -13q-29 -121 -83 -213l129 -118l-36 -27l-117 109q-87 -109 -225 -109q-88 0 -146 50t-58 131q0 65 36 111t109 88q-56 52 -79 88.5t-23 85.5q0 65 45.5 108t118.5 43z
M301 657q-53 0 -85.5 -32.5t-32.5 -80.5q0 -39 18 -69.5t75 -84.5q73 39 106 75t33 81q0 52 -32 81.5t-82 29.5zM267 343q-63 -38 -94.5 -78.5t-31.5 -93.5q0 -63 45.5 -102.5t114.5 -39.5q117 0 193 97z" />
    <glyph glyph-name="quotesingle" unicode="'" horiz-adv-x="199" 
d="M82 436l-7 248h49l-7 -248h-35z" />
    <glyph glyph-name="parenleft" unicode="(" horiz-adv-x="324" 
d="M236 835l29 -20q-54 -80 -83 -133t-52.5 -140.5t-23.5 -191.5q0 -103 23.5 -191t52.5 -141.5t83 -132.5l-29 -20q-46 64 -70.5 103.5t-53 100.5t-41 129.5t-12.5 151.5t12.5 151.5t41 129.5t53 100.5t70.5 103.5z" />
    <glyph glyph-name="parenright" unicode=")" horiz-adv-x="324" 
d="M88 835q46 -64 70.5 -103.5t53 -100.5t41 -129.5t12.5 -151.5t-12.5 -151.5t-41 -129.5t-53 -100.5t-70.5 -103.5l-29 20q54 79 83 132.5t52.5 141.5t23.5 191q0 104 -23.5 191.5t-52.5 140.5t-83 133z" />
    <glyph glyph-name="asterisk" unicode="*" horiz-adv-x="435" 
d="M396 589l-152 -42l98 -125l-37 -27l-87 131l-88 -131l-37 27l98 124l-152 43l13 41l148 -55l-5 160h45l-5 -158l147 54z" />
    <glyph glyph-name="plus" unicode="+" horiz-adv-x="491" 
d="M268 504v-153h151v-41h-151v-153h-45v153h-151v41h151v153h45z" />
    <glyph glyph-name="comma" unicode="," horiz-adv-x="195" 
d="M97 69q18 0 29.5 -11.5t11.5 -28.5q0 -15 -14 -49l-52 -126h-34l40 141q-21 10 -21 34q0 17 11.5 28.5t28.5 11.5z" />
    <glyph glyph-name="hyphen" unicode="-" horiz-adv-x="400" 
d="M71 293v40h258v-40h-258z" />
    <glyph glyph-name="period" unicode="." horiz-adv-x="195" 
d="M97 69q18 0 29.5 -11.5t11.5 -28.5t-11.5 -28.5t-29.5 -11.5q-17 0 -28.5 11.5t-11.5 28.5t11.5 28.5t28.5 11.5z" />
    <glyph glyph-name="slash" unicode="/" horiz-adv-x="520" 
d="M356 801l40 -11l-232 -888l-40 11z" />
    <glyph glyph-name="zero" unicode="0" horiz-adv-x="547" 
d="M274 675q99 0 151 -87t52 -257q0 -169 -52 -255.5t-151 -86.5t-151.5 87.5t-52.5 256.5t52 255.5t152 86.5zM274 636q-156 0 -156 -303q0 -304 156 -304q155 0 155 302q0 305 -155 305z" />
    <glyph glyph-name="one" unicode="1" horiz-adv-x="406" 
d="M281 664v-664h-46v612l-167 -105l-22 35l196 122h39z" />
    <glyph glyph-name="two" unicode="2" horiz-adv-x="473" 
d="M224 675q81 0 129 -48.5t48 -123.5q0 -41 -11 -78.5t-27.5 -70t-60 -85.5t-82.5 -96t-121 -131h320l-7 -42h-368v40q198 213 253.5 293t55.5 167q0 62 -35.5 98.5t-95.5 36.5q-90 0 -153 -77l-33 24q77 93 188 93z" />
    <glyph glyph-name="three" unicode="3" horiz-adv-x="482" 
d="M219 675q82 0 130.5 -46.5t48.5 -118.5q0 -66 -37 -106.5t-95 -49.5q65 -2 107.5 -46.5t42.5 -121.5q0 -87 -56.5 -142t-150.5 -55q-111 0 -187 85l30 26q65 -70 156 -70q75 0 117.5 42.5t42.5 112.5q0 147 -155 147h-42l6 38h32q59 0 100.5 35t41.5 103q0 59 -36.5 93
t-97.5 34q-82 0 -151 -63l-25 29q76 74 178 74z" />
    <glyph glyph-name="four" unicode="4" horiz-adv-x="513" 
d="M476 218v-40h-91v-178h-45v178h-293v36l204 461l39 -16l-194 -441h244l5 200h40v-200h91z" />
    <glyph glyph-name="five" unicode="5" horiz-adv-x="482" 
d="M408 664l-8 -40h-273v-238q52 33 116 33q86 0 136 -54.5t50 -150.5q0 -100 -56.5 -162.5t-151.5 -62.5q-108 0 -185 79l31 28q63 -66 155 -66q73 0 116 50t43 135q0 82 -39.5 123.5t-106.5 41.5q-60 0 -116 -34h-37v318h326z" />
    <glyph glyph-name="six" unicode="6" horiz-adv-x="520" 
d="M292 431q76 0 125 -53t49 -155q0 -107 -53.5 -170.5t-136.5 -63.5q-107 0 -156.5 84t-49.5 222q0 177 63 278.5t172 101.5q64 0 119 -38l-21 -33q-47 32 -99 32q-85 0 -134 -85t-53 -223q69 103 175 103zM276 29q69 0 106 53t37 140q0 85 -36 127t-96 42
q-105 0 -170 -115q7 -247 159 -247z" />
    <glyph glyph-name="seven" unicode="7" horiz-adv-x="434" 
d="M397 664v-37l-266 -634l-44 15l261 616h-316v40h365z" />
    <glyph glyph-name="eight" unicode="8" horiz-adv-x="533" 
d="M327 350q79 -32 114.5 -72.5t35.5 -106.5q0 -83 -58.5 -132.5t-153.5 -49.5t-152 50t-57 131q0 133 148 188q-62 27 -90 62t-28 91q0 75 53 119.5t128 44.5t128.5 -43t53.5 -121q0 -53 -29 -90.5t-93 -70.5zM132 510q0 -48 26.5 -77t95.5 -55l37 -14q59 31 85 64.5
t26 80.5q0 61 -37.5 94.5t-97.5 33.5q-59 0 -97 -33.5t-38 -93.5zM266 30q73 0 118 37t45 104q0 61 -33 93.5t-116 64.5l-36 14q-74 -28 -107 -69t-33 -104q0 -67 44 -103.5t118 -36.5z" />
    <glyph glyph-name="nine" unicode="9" horiz-adv-x="515" 
d="M254 675q99 0 148 -70.5t49 -200.5q0 -126 -39.5 -210t-107.5 -130.5t-180 -81.5l-12 36q140 44 212 119.5t80 210.5q-65 -98 -169 -98q-78 0 -128.5 56.5t-50.5 151.5q0 99 55.5 158t142.5 59zM242 290q93 0 162 105q0 122 -35.5 181.5t-113.5 59.5q-70 0 -110.5 -47
t-40.5 -132q0 -79 37.5 -123t100.5 -44z" />
    <glyph glyph-name="colon" unicode=":" horiz-adv-x="195" 
d="M97 468q18 0 29.5 -11.5t11.5 -29.5q0 -16 -11.5 -27.5t-29.5 -11.5q-17 0 -28.5 11.5t-11.5 27.5q0 17 11.5 29t28.5 12zM97 69q18 0 29.5 -11.5t11.5 -28.5t-11.5 -28.5t-29.5 -11.5q-17 0 -28.5 11.5t-11.5 28.5t11.5 28.5t28.5 11.5z" />
    <glyph glyph-name="semicolon" unicode=";" horiz-adv-x="195" 
d="M97 468q18 0 29.5 -11.5t11.5 -29.5q0 -16 -11.5 -27.5t-29.5 -11.5q-17 0 -28.5 11.5t-11.5 27.5q0 17 11.5 29t28.5 12zM97 69q18 0 29.5 -11.5t11.5 -28.5q0 -15 -14 -49l-52 -126h-34l40 141q-21 10 -21 34q0 17 11.5 28.5t28.5 11.5z" />
    <glyph glyph-name="less" unicode="&#x3c;" horiz-adv-x="496" 
d="M410 521l17 -39l-314 -149l314 -152l-17 -39l-341 171v40z" />
    <glyph glyph-name="equal" unicode="=" horiz-adv-x="491" 
d="M72 394v42h347v-42h-347zM72 226v41h347v-41h-347z" />
    <glyph glyph-name="greater" unicode="&#x3e;" horiz-adv-x="496" 
d="M86 521l341 -168v-40l-341 -171l-17 39l314 152l-314 149z" />
    <glyph glyph-name="question" unicode="?" horiz-adv-x="443" 
d="M233 694q76 0 121 -41t45 -101q0 -35 -13.5 -62.5t-34 -44t-44.5 -34.5t-44.5 -34t-34 -43t-13.5 -62v-58h-45v62q0 39 13.5 69.5t33.5 48t43 35t43 31.5t33.5 37t13.5 53q0 47 -32 75.5t-87 28.5q-47 0 -82.5 -18t-71.5 -57l-32 25q78 90 188 90zM195 69
q18 0 29.5 -11.5t11.5 -28.5t-11.5 -28.5t-29.5 -11.5q-17 0 -28.5 11.5t-11.5 28.5t11.5 28.5t28.5 11.5z" />
    <glyph glyph-name="at" unicode="@" horiz-adv-x="1020" 
d="M526 694q191 0 297.5 -111.5t106.5 -274.5q0 -149 -50 -222t-126 -73q-48 0 -79 31t-40 80q-49 -109 -150 -109q-72 0 -119 57.5t-47 159.5q0 123 57.5 186.5t148.5 63.5q69 0 141 -36v-257q0 -138 88 -138q57 0 93 59.5t36 195.5q0 151 -94.5 249.5t-262.5 98.5
q-173 0 -281 -118.5t-108 -296.5q0 -183 106.5 -292t281.5 -109q97 0 188 33l12 -38q-104 -36 -201 -36q-192 0 -313 119.5t-121 322.5q0 194 121.5 324.5t314.5 130.5zM490 54q48 0 82.5 32.5t49.5 79.5v255q-46 23 -96 23q-75 0 -118 -55.5t-43 -156.5q0 -87 34 -132.5
t91 -45.5z" />
    <glyph glyph-name="A" unicode="A" horiz-adv-x="562" 
d="M491 0l-63 192h-297l-63 -192h-48l231 684h60l231 -684h-51zM145 234h270l-134 411z" />
    <glyph glyph-name="B" unicode="B" horiz-adv-x="594" 
d="M380 363q69 -7 113.5 -49.5t44.5 -125.5q0 -92 -62.5 -140t-175.5 -48h-185v684h149q116 0 178.5 -43t62.5 -127q0 -65 -33.5 -103t-91.5 -48zM269 643h-107v-263h150q65 0 104.5 35t39.5 96q0 132 -187 132zM301 41q187 0 187 147q0 76 -46.5 114t-123.5 38h-156v-299
h139z" />
    <glyph glyph-name="C" unicode="C" horiz-adv-x="547" 
d="M344 694q96 0 171 -61l-26 -32q-66 52 -142 52q-101 0 -164 -76.5t-63 -234.5q0 -152 62.5 -231t161.5 -79q49 0 83 14.5t70 43.5l26 -32q-76 -69 -181 -69q-121 0 -196.5 92.5t-75.5 260.5q0 169 77.5 260.5t196.5 91.5z" />
    <glyph glyph-name="D" unicode="D" horiz-adv-x="628" 
d="M248 684q50 0 91.5 -7.5t83.5 -30t70.5 -58.5t46.5 -97.5t18 -142.5q0 -82 -18.5 -145t-48 -100.5t-70.5 -61.5t-81 -32.5t-85 -8.5h-140v684h133zM251 643h-89v-602h96q250 0 250 307q0 74 -15.5 129t-39 86t-59 50t-68.5 24.5t-75 5.5z" />
    <glyph glyph-name="E" unicode="E" horiz-adv-x="504" 
d="M454 684l-6 -41h-286v-266h247v-41h-247v-295h298v-41h-345v684h339z" />
    <glyph glyph-name="F" unicode="F" horiz-adv-x="477" 
d="M115 0v684h333l-6 -41h-280v-279h242v-40h-242v-324h-47z" />
    <glyph glyph-name="G" unicode="G" horiz-adv-x="614" 
d="M351 694q101 0 182 -65l-29 -31q-69 55 -153 55q-95 0 -163 -76.5t-68 -231.5q0 -156 61.5 -235t169.5 -79q80 0 148 37v256h-138l-6 41h191v-321q-93 -55 -195 -55q-130 0 -205.5 91.5t-75.5 264.5q0 86 23.5 154t63.5 110t89.5 63.5t104.5 21.5z" />
    <glyph glyph-name="H" unicode="H" horiz-adv-x="667" 
d="M504 0v339h-342v-339h-47v684h47v-303h342v303h48v-684h-48z" />
    <glyph glyph-name="I" unicode="I" horiz-adv-x="277" 
d="M162 684v-684h-47v684h47z" />
    <glyph glyph-name="J" unicode="J" horiz-adv-x="286" 
d="M177 684v-594q0 -84 -31 -125.5t-117 -77.5l-13 35q68 31 90.5 66t22.5 105v591h48z" />
    <glyph glyph-name="K" unicode="K" horiz-adv-x="533" 
d="M162 684v-684h-47v684h47zM516 684l-292 -315l309 -369h-59l-308 367l295 317h55z" />
    <glyph glyph-name="L" unicode="L" horiz-adv-x="470" 
d="M162 684v-640h288l-7 -44h-328v684h47z" />
    <glyph glyph-name="M" unicode="M" horiz-adv-x="768" 
d="M627 684l69 -684h-46l-34 334q-19 175 -29 304l-180 -556h-46l-186 556q-2 -47 -26 -299l-32 -339h-45l67 684h67l179 -545l174 545h68z" />
    <glyph glyph-name="N" unicode="N" horiz-adv-x="669" 
d="M554 684v-684h-61l-339 631q6 -88 6 -224v-407h-45v684h61l339 -631q-6 99 -6 200v431h45z" />
    <glyph glyph-name="O" unicode="O" horiz-adv-x="691" 
d="M345 694q126 0 201 -92t75 -261q0 -166 -74.5 -259t-201.5 -93q-125 0 -200 92t-75 259q0 166 75.5 260t199.5 94zM345 653q-104 0 -164.5 -79.5t-60.5 -233.5q0 -151 61 -230t164 -79q107 0 166.5 78.5t59.5 231.5q0 154 -60 233t-166 79z" />
    <glyph glyph-name="P" unicode="P" horiz-adv-x="568" 
d="M268 684q249 0 249 -203q0 -109 -67.5 -159t-184.5 -50h-103v-272h-47v684h153zM266 312q96 0 148.5 38.5t52.5 129.5q0 88 -50 125.5t-149 37.5h-106v-331h104z" />
    <glyph glyph-name="Q" unicode="Q" horiz-adv-x="690" 
d="M442 18q126 -2 201 -67l-32 -40q-53 46 -112 63t-154 17q-125 0 -200 91t-75 258q0 166 75.5 260t199.5 94q126 0 201 -92t75 -261q0 -265 -179 -323zM120 340q0 -151 61 -230t164 -79q107 0 166.5 78.5t59.5 231.5q0 154 -60 233t-166 79q-104 0 -164.5 -79.5
t-60.5 -233.5z" />
    <glyph glyph-name="R" unicode="R" horiz-adv-x="584" 
d="M491 0l-181 313h-148v-313h-47v684h161q237 0 237 -183q0 -143 -154 -180l189 -321h-57zM162 353h121q180 0 180 148q0 72 -44.5 107t-145.5 35h-111v-290z" />
    <glyph glyph-name="S" unicode="S" horiz-adv-x="537" 
d="M266 694q62 0 105.5 -18.5t85.5 -55.5l-28 -31q-73 64 -162 64q-67 0 -107.5 -33.5t-40.5 -88.5q0 -56 35 -86.5t128 -58.5q103 -31 149.5 -74.5t46.5 -126.5q0 -87 -60.5 -141.5t-159.5 -54.5q-124 0 -214 85l28 31q82 -74 185 -74q77 0 125 41t48 112q0 65 -36 99
t-131 63q-105 32 -148.5 73t-43.5 111q0 71 54 117.5t141 46.5z" />
    <glyph glyph-name="T" unicode="T" horiz-adv-x="487" 
d="M477 684l-6 -43h-204v-641h-47v641h-205v43h462z" />
    <glyph glyph-name="U" unicode="U" horiz-adv-x="648" 
d="M543 684v-473q0 -101 -55.5 -161.5t-163.5 -60.5t-163.5 60.5t-55.5 161.5v473h47v-469q0 -87 42.5 -135t129.5 -48t129 48.5t42 134.5v469h48z" />
    <glyph glyph-name="V" unicode="V" horiz-adv-x="543" 
d="M523 684l-224 -684h-55l-224 684h51l201 -636l201 636h50z" />
    <glyph glyph-name="W" unicode="W" horiz-adv-x="804" 
d="M771 684l-154 -684h-58l-157 632l-158 -632h-57l-155 684h49l137 -638l157 638h54l159 -638l137 638h46z" />
    <glyph glyph-name="X" unicode="X" horiz-adv-x="505" 
d="M278 371l215 -371h-54l-190 338l-185 -338h-52l210 368l-189 316h54l163 -284l161 284h52z" />
    <glyph glyph-name="Y" unicode="Y" horiz-adv-x="513" 
d="M497 684l-216 -415v-269h-47v268l-218 416h53l190 -372l186 372h52z" />
    <glyph glyph-name="Z" unicode="Z" horiz-adv-x="514" 
d="M465 684v-40l-373 -601h364l-6 -43h-413v40l375 602h-337v42h390z" />
    <glyph glyph-name="bracketleft" unicode="[" horiz-adv-x="315" 
d="M243 803v-38h-109v-838h109v-38h-152v914h152z" />
    <glyph glyph-name="backslash" unicode="\" horiz-adv-x="520" 
d="M164 801l232 -888l-41 -11l-231 889z" />
    <glyph glyph-name="bracketright" unicode="]" horiz-adv-x="315" 
d="M224 803v-914h-152v38h109v838h-109v38h152z" />
    <glyph glyph-name="asciicircum" unicode="^" horiz-adv-x="527" 
d="M282 830l183 -303h-53l-148 254l-148 -254h-54l183 303h37z" />
    <glyph glyph-name="underscore" unicode="_" horiz-adv-x="520" 
d="M33 -115v42h455v-42h-455z" />
    <glyph glyph-name="grave" unicode="`" horiz-adv-x="265" 
d="M51 776l184 -100l-15 -28l-190 84z" />
    <glyph glyph-name="a" unicode="a" horiz-adv-x="534" 
d="M425 113q0 -44 10.5 -63t33.5 -28l-11 -33q-34 9 -51.5 30t-21.5 62q-57 -92 -165 -92q-74 0 -117 42.5t-43 113.5q0 80 57 123.5t155 43.5h107v55q0 65 -29 95t-96 30q-63 0 -142 -31l-13 37q87 34 159 34q167 0 167 -162v-257zM226 28q101 0 153 99v149h-100
q-82 0 -126 -32.5t-44 -97.5q0 -56 31 -87t86 -31z" />
    <glyph glyph-name="b" unicode="b" horiz-adv-x="570" 
d="M315 532q90 0 139.5 -69.5t49.5 -198.5q0 -128 -51.5 -201.5t-144.5 -73.5q-94 0 -154 80l-5 -69h-40v735l46 6v-294q65 85 160 85zM301 29q74 0 114 60t40 175q0 229 -147 229q-49 0 -84.5 -24t-68.5 -70v-284q60 -86 146 -86z" />
    <glyph glyph-name="c" unicode="c" horiz-adv-x="466" 
d="M285 532q82 0 143 -51l-24 -31q-51 42 -117 42q-78 0 -124.5 -60t-46.5 -174q0 -112 46 -170t124 -58q66 0 122 46l24 -31q-62 -56 -146 -56q-100 0 -159.5 71.5t-59.5 197.5t59.5 200t158.5 74z" />
    <glyph glyph-name="d" unicode="d" horiz-adv-x="575" 
d="M420 741l46 -6v-735h-40l-5 82q-54 -93 -160 -93q-89 0 -141.5 72.5t-52.5 197.5q0 123 54.5 198t149.5 75q92 0 149 -73v282zM267 29q53 0 88.5 26t64.5 78v277q-56 83 -143 83q-74 0 -118.5 -62t-43.5 -172t41.5 -170t110.5 -60z" />
    <glyph glyph-name="e" unicode="e" horiz-adv-x="531" 
d="M471 282q0 -21 -2 -41h-354q5 -107 51 -159t120 -52t142 53l23 -30q-77 -64 -167 -64q-101 0 -159 71t-58 197t55.5 200.5t149.5 74.5q97 0 148 -67t51 -183zM426 278v19q0 91 -38 143.5t-114 52.5q-68 0 -111.5 -53.5t-47.5 -161.5h311z" />
    <glyph glyph-name="f" unicode="f" horiz-adv-x="316" 
d="M255 701q-95 0 -95 -91v-88h142l-7 -39h-135v-483h-46v483h-89v39h89v90q0 60 37.5 94.5t101.5 34.5q62 0 120 -28l-17 -35q-52 23 -101 23z" />
    <glyph glyph-name="g" unicode="g" horiz-adv-x="501" 
d="M471 562l15 -46q-45 -14 -142 -15q88 -42 88 -146q0 -77 -50 -123.5t-135 -46.5q-38 0 -69 11q-44 -24 -44 -64q0 -58 88 -58h86q75 0 119 -35.5t44 -93.5q0 -71 -55 -109.5t-165 -38.5q-114 0 -164.5 34.5t-50.5 112.5h44q1 -59 38 -83t133 -24q173 0 173 105
q0 43 -32.5 67t-90.5 24h-85q-61 0 -94 25.5t-33 64.5q0 51 57 87q-87 46 -87 148q0 78 51 126t136 48q98 -1 140.5 6t84.5 24zM247 495q-70 0 -105.5 -37t-35.5 -100q0 -65 38 -101t102 -36q67 0 103 35t36 100t-35 102t-103 37z" />
    <glyph glyph-name="h" unicode="h" horiz-adv-x="581" 
d="M334 532q70 0 106.5 -42t36.5 -118v-372h-46v366q0 128 -104 128q-95 0 -172 -113v-381h-46v735l46 6v-311q75 102 179 102z" />
    <glyph glyph-name="i" unicode="i" horiz-adv-x="264" 
d="M132 744q16 0 26 -10t10 -25t-10 -25t-26 -10t-26 10t-10 25t10 25t26 10zM155 522v-522h-46v522h46z" />
    <glyph glyph-name="j" unicode="j" horiz-adv-x="265" 
d="M133 744q16 0 26 -10t10 -25t-10 -25t-26 -10t-26 10t-10 25t10 25t26 10zM156 522v-508q0 -96 -29 -138t-102 -76l-13 33q56 28 77 63t21 117v509h46z" />
    <glyph glyph-name="k" unicode="k" horiz-adv-x="479" 
d="M155 741v-741h-46v735zM445 522l-229 -235l252 -287h-56l-251 285l229 237h55z" />
    <glyph glyph-name="l" unicode="l" horiz-adv-x="289" 
d="M190 -11q-40 0 -63 23.5t-23 69.5v653l46 6v-657q0 -54 45 -54q18 0 37 7l13 -35q-28 -13 -55 -13z" />
    <glyph glyph-name="m" unicode="m" horiz-adv-x="849" 
d="M612 532q63 0 98 -42.5t35 -117.5v-372h-46v366q0 128 -94 128q-85 0 -155 -113v-381h-46v366q0 128 -94 128q-85 0 -155 -113v-381h-46v522h40l4 -92q69 102 164 102q50 0 83.5 -28t44.5 -79q70 107 167 107z" />
    <glyph glyph-name="n" unicode="n" horiz-adv-x="581" 
d="M334 532q71 0 107 -41.5t36 -118.5v-372h-46v366q0 128 -103 128q-96 0 -173 -113v-381h-46v522h40l4 -93q74 103 181 103z" />
    <glyph glyph-name="o" unicode="o" horiz-adv-x="567" 
d="M284 532q102 0 159 -70.5t57 -198.5t-58 -201t-159 -73t-158.5 72.5t-57.5 198.5q0 127 58.5 199.5t158.5 72.5zM284 492q-79 0 -124 -59.5t-45 -172.5q0 -111 44 -171t124 -60q79 0 124 60t45 174q0 112 -44 170.5t-124 58.5z" />
    <glyph glyph-name="p" unicode="p" horiz-adv-x="570" 
d="M315 532q93 0 141 -69.5t48 -198.5q0 -128 -51 -201.5t-145 -73.5t-153 77v-261l-46 -8v725h40l3 -79q64 89 163 89zM301 30q75 0 114.5 59.5t39.5 174.5q0 229 -145 229q-87 0 -155 -94v-285q58 -84 146 -84z" />
    <glyph glyph-name="q" unicode="q" horiz-adv-x="575" 
d="M426 522h40v-725l-46 8v274q-55 -90 -158 -90q-90 0 -142.5 72.5t-52.5 197.5q0 123 55 198t150 75q91 0 150 -75zM268 29q53 0 88.5 25.5t63.5 76.5v280q-56 82 -142 82q-74 0 -119 -62t-44 -172t41.5 -170t111.5 -60z" />
    <glyph glyph-name="r" unicode="r" horiz-adv-x="368" 
d="M302 532q34 0 52 -6l-8 -43q-21 6 -46 6q-55 0 -89 -39.5t-56 -123.5v-326h-46v522h40l3 -121q42 131 150 131z" />
    <glyph glyph-name="s" unicode="s" horiz-adv-x="455" 
d="M229 532q89 0 163 -57l-24 -31q-67 49 -137 49q-55 0 -89 -25.5t-34 -69.5q0 -40 29 -62t102 -42q90 -24 128 -57.5t38 -98.5q0 -68 -51 -108.5t-131 -40.5q-104 0 -183 67l26 30q73 -57 157 -57q60 0 97 28.5t37 79.5q0 50 -28.5 74t-112.5 47q-84 22 -120 54t-36 86
q0 59 48 96.5t121 37.5z" />
    <glyph glyph-name="t" unicode="t" horiz-adv-x="338" 
d="M319 54l19 -33q-50 -32 -108 -32q-57 0 -89.5 34t-32.5 100v360h-87v39h87v127l46 5v-132h138l-6 -39h-132v-357q0 -96 81 -96q42 0 84 24z" />
    <glyph glyph-name="u" unicode="u" horiz-adv-x="576" 
d="M467 522v-522h-39l-3 97q-61 -108 -173 -108q-71 0 -109.5 41.5t-38.5 118.5v373h46v-369q0 -124 111 -124q95 0 160 112v381h46z" />
    <glyph glyph-name="v" unicode="v" horiz-adv-x="462" 
d="M445 522l-181 -522h-58l-189 522h51l167 -482l160 482h50z" />
    <glyph glyph-name="w" unicode="w" horiz-adv-x="692" 
d="M664 522l-130 -522h-62l-125 478l-125 -478h-61l-134 522h49l117 -484l128 484h54l128 -485l116 485h45z" />
    <glyph glyph-name="x" unicode="x" horiz-adv-x="449" 
d="M252 280l185 -280h-55l-159 250l-158 -250h-53l184 278l-160 244h54l135 -215l135 215h53z" />
    <glyph glyph-name="y" unicode="y" horiz-adv-x="459" 
d="M442 522l-181 -524q-31 -91 -73 -135t-129 -64l-6 36q74 20 104.5 53.5t59.5 111.5h-16l-184 522h50l165 -487l160 487h50z" />
    <glyph glyph-name="z" unicode="z" horiz-adv-x="412" 
d="M382 522v-37l-298 -444h295l-5 -41h-345v36l299 445h-275v41h329z" />
    <glyph glyph-name="braceleft" unicode="{" horiz-adv-x="327" 
d="M256 826v-37q-45 0 -64.5 -19.5t-19.5 -62.5v-258q0 -49 -17.5 -69.5t-57.5 -30.5q40 -10 57.5 -30.5t17.5 -69.5v-258q0 -42 19.5 -61.5t64.5 -19.5v-37q-64 0 -95.5 28t-31.5 89v267q0 71 -78 71v42q78 0 78 72v267q0 61 31.5 89t95.5 28z" />
    <glyph glyph-name="bar" unicode="|" horiz-adv-x="408" 
d="M226 803v-903h-44v903h44z" />
    <glyph glyph-name="braceright" unicode="}" horiz-adv-x="327" 
d="M71 826q64 0 95.5 -28t31.5 -89v-267q0 -72 78 -72v-42q-78 0 -78 -71v-267q0 -61 -31.5 -89t-95.5 -28v37q45 0 64.5 19.5t19.5 61.5v258q0 49 17.5 69.5t58.5 30.5q-41 10 -58.5 30.5t-17.5 69.5v258q0 43 -19.5 62.5t-64.5 19.5v37z" />
    <glyph glyph-name="asciitilde" unicode="~" horiz-adv-x="466" 
d="M310 269q-32 0 -82.5 28t-71.5 28q-36 0 -69 -44l-30 16q21 33 44 51t58 18q33 0 82 -28t71 -28t36 10t31 32l29 -16q-20 -32 -42 -49.5t-56 -17.5z" />
    <glyph glyph-name="uni00A0" unicode="&#xa0;" horiz-adv-x="284" 
 />
    <glyph glyph-name="exclamdown" unicode="&#xa1;" horiz-adv-x="240" 
d="M120 468q18 0 29 -11.5t11 -28.5t-11 -28.5t-29 -11.5t-29 11.5t-11 28.5t11 28.5t29 11.5zM142 250l3 -445h-48l3 445h42z" />
    <glyph glyph-name="cent" unicode="&#xa2;" horiz-adv-x="466" 
d="M432 45q-56 -49 -127 -55v-139h-41v139q-91 8 -144 78.5t-53 189.5t53.5 192t144.5 81v148h40v-148q69 -4 123 -50l-24 -31q-51 42 -117 42q-78 0 -124.5 -60t-46.5 -174q0 -112 46 -170t124 -58q66 0 122 46z" />
    <glyph glyph-name="sterling" unicode="&#xa3;" horiz-adv-x="505" 
d="M184 159q0 -48 -15.5 -73.5t-52.5 -44.5h331l-6 -41h-386v40q47 22 65 46t18 72v177h-65v36h65v131q0 76 43 124.5t123 48.5q94 0 156 -72l-31 -26q-50 58 -124 58q-58 0 -89.5 -36.5t-31.5 -97.5v-130h216v-36h-216v-176z" />
    <glyph glyph-name="currency" unicode="&#xa4;" horiz-adv-x="560" 
d="M466 341q0 -75 -42 -126l80 -79l-29 -29l-81 79q-48 -35 -114 -35q-67 0 -114 36l-81 -80l-29 29l81 80q-41 52 -41 125q0 71 41 123l-81 80l29 29l81 -80q48 37 114 37q68 0 115 -36l80 79l29 -29l-80 -78q42 -51 42 -125zM281 189q68 0 104 41.5t36 110.5t-36 110
t-104 41q-67 0 -103.5 -41t-36.5 -110t36.5 -110.5t103.5 -41.5z" />
    <glyph glyph-name="yen" unicode="&#xa5;" horiz-adv-x="503" 
d="M487 664l-194 -328h118v-37h-135v-107h135v-37h-135v-155h-47v155h-134v37h134v107h-134v37h117l-196 328h53l185 -319l182 319h51z" />
    <glyph glyph-name="brokenbar" unicode="&#xa6;" horiz-adv-x="408" 
d="M226 803v-360h-44v360h44zM226 262v-362h-44v362h44z" />
    <glyph glyph-name="section" unicode="&#xa7;" horiz-adv-x="532" 
d="M366 164q54 -35 54 -98q0 -61 -46.5 -97t-120.5 -36q-87 0 -161 46l21 34q62 -41 141 -41q55 0 87 25t32 65t-24 62t-100 48q-90 31 -125 61t-35 86q0 72 80 126q-54 35 -54 97q0 60 45 96t114 36q81 0 154 -47l-21 -32q-62 40 -133 40q-51 0 -82 -26t-31 -65
q0 -40 25.5 -62t106.5 -49q82 -27 116.5 -59.5t34.5 -86.5q0 -73 -78 -123zM135 323q0 -43 25 -65.5t102 -48.5q47 -16 74 -29q62 44 62 103q0 41 -23.5 65.5t-97.5 49.5q-51 18 -78 31q-64 -46 -64 -106z" />
    <glyph glyph-name="dieresis" unicode="&#xa8;" horiz-adv-x="309" 
d="M64 732q15 0 24.5 -9.5t9.5 -23.5t-9.5 -23.5t-24.5 -9.5t-24.5 9.5t-9.5 23.5t9.5 23.5t24.5 9.5zM246 732q14 0 23.5 -9.5t9.5 -23.5t-9.5 -23.5t-23.5 -9.5q-15 0 -24.5 9.5t-9.5 23.5t9.5 23.5t24.5 9.5z" />
    <glyph glyph-name="copyright" unicode="&#xa9;" horiz-adv-x="810" 
d="M405 732q125 0 208 -83.5t83 -213.5t-83 -213.5t-208 -83.5t-208 83.5t-83 213.5q0 129 83 213t208 84zM406 697q-110 0 -181.5 -73t-71.5 -189q0 -117 71 -189.5t182 -72.5q109 0 180 73t71 189q0 117 -70.5 189.5t-180.5 72.5zM405 612q55 0 98 -32l-20 -28
q-33 24 -77 24q-40 0 -70 -33t-30 -107q0 -71 28 -106t74 -35t84 28l18 -28q-44 -37 -103 -37q-64 0 -103.5 47t-39.5 131q0 86 42 131t99 45z" />
    <glyph glyph-name="ordfeminine" unicode="&#xaa;" horiz-adv-x="500" 
d="M255 520h82v37q0 47 -21.5 67.5t-75.5 20.5q-49 0 -112 -22l-12 35q71 26 128 26q139 0 139 -123v-190q0 -31 7.5 -44t25.5 -21l-10 -31q-54 12 -62 64q-46 -64 -130 -64q-61 0 -95.5 31.5t-34.5 85.5q0 61 46 94.5t125 33.5zM220 313q77 0 117 69v103h-75
q-130 0 -130 -91q0 -40 23.5 -60.5t64.5 -20.5zM84 41h347v-41h-347v41z" />
    <glyph glyph-name="guillemotleft" unicode="&#xab;" horiz-adv-x="548" 
d="M237 514l29 -19l-138 -207l138 -207l-29 -19l-160 210v31zM442 514l29 -19l-138 -207l138 -207l-29 -19l-159 210v31z" />
    <glyph glyph-name="logicalnot" unicode="&#xac;" horiz-adv-x="499" 
d="M427 342v-164h-45v122h-310v42h355z" />
    <glyph glyph-name="uni00AD" unicode="&#xad;" horiz-adv-x="400" 
d="M71 293v40h258v-40h-258z" />
    <glyph glyph-name="registered" unicode="&#xae;" horiz-adv-x="639" 
d="M319 732q99 0 167.5 -67t68.5 -166q0 -98 -68.5 -167t-167.5 -69t-167 67t-68 166q0 98 68.5 167t166.5 69zM319 295q84 0 142.5 59t58.5 145q0 87 -57.5 144t-143.5 57q-84 0 -142 -59t-58 -145t58 -143.5t142 -57.5zM415 556q0 -56 -62 -72l74 -118h-45l-66 113h-40
v-113h-37v270h66q110 0 110 -80zM276 605v-95h42q60 0 60 46q0 27 -16.5 38t-50.5 11h-35z" />
    <glyph glyph-name="macron" unicode="&#xaf;" horiz-adv-x="289" 
d="M259 679h-229v39h229v-39z" />
    <glyph glyph-name="degree" unicode="&#xb0;" horiz-adv-x="520" 
d="M219 400q-59 0 -102 40.5t-43 107.5q0 65 43.5 105.5t101.5 40.5q62 0 104 -40t42 -107q0 -66 -42 -106.5t-104 -40.5zM219 437q47 0 75 30t28 80q0 51 -28 80.5t-75 29.5q-44 0 -73.5 -29.5t-29.5 -79.5t29.5 -80.5t73.5 -30.5z" />
    <glyph glyph-name="plusminus" unicode="&#xb1;" horiz-adv-x="491" 
d="M268 510v-153h151v-41h-151v-153h-44v153h-152v41h152v153h44zM72 0v41h347v-41h-347z" />
    <glyph glyph-name="uni00B2" unicode="&#xb2;" horiz-adv-x="400" 
d="M197 741q56 0 88.5 -31t32.5 -79q0 -57 -36.5 -106.5t-153.5 -164.5h202l-7 -37h-245v35q125 125 160.5 173t35.5 97q0 37 -21 57t-58 20q-56 0 -95 -45l-30 21q51 60 127 60z" />
    <glyph glyph-name="uni00B3" unicode="&#xb3;" horiz-adv-x="400" 
d="M200 743q55 0 88 -28.5t33 -74.5q0 -40 -23.5 -65.5t-61.5 -31.5q42 -2 69 -29.5t27 -74.5q0 -55 -38 -89.5t-102 -34.5q-75 0 -125 55l26 23q42 -42 97 -42q48 0 73.5 24t25.5 64q0 84 -95 84h-28l5 34h20q36 0 62 20t26 59q0 34 -22 53t-59 19q-52 0 -97 -38l-23 26
q55 47 122 47z" />
    <glyph glyph-name="acute" unicode="&#xb4;" horiz-adv-x="265" 
d="M214 776l21 -44l-190 -84l-15 28z" />
    <glyph glyph-name="uni00B5" unicode="&#xb5;" horiz-adv-x="584" 
d="M494 -3l-43 -5q-21 52 -26 115q-67 -118 -165 -118q-82 0 -113 68q8 -59 8 -131v-121l-46 -5v722h46v-374q0 -61 29.5 -89t75.5 -28q98 0 159 124v367h46v-346q0 -95 29 -179z" />
    <glyph glyph-name="paragraph" unicode="&#xb6;" horiz-adv-x="699" 
d="M332 684h212v-879l-43 -8v848h-134v-840l-43 -8v501q-115 4 -167 56.5t-52 136.5q0 93 59.5 143t167.5 50z" />
    <glyph glyph-name="periodcentered" unicode="&#xb7;" horiz-adv-x="195" 
d="M97 361q19 0 30 -11.5t11 -28.5t-11.5 -28t-29.5 -11q-17 0 -28.5 11t-11.5 28t11.5 28.5t28.5 11.5z" />
    <glyph glyph-name="cedilla" unicode="&#xb8;" horiz-adv-x="235" 
d="M113 16v-83q92 -7 92 -73q0 -38 -28.5 -60t-70.5 -22q-43 0 -76 20l16 30q28 -15 59 -15q25 0 41 12t16 35q0 45 -89 45l9 111h31z" />
    <glyph glyph-name="uni00B9" unicode="&#xb9;" horiz-adv-x="400" 
d="M252 736v-413h-41v366l-105 -61l-19 30l131 78h34z" />
    <glyph glyph-name="ordmasculine" unicode="&#xba;" horiz-adv-x="500" 
d="M249 684q83 0 129.5 -53t46.5 -150q0 -96 -47.5 -151t-129.5 -55t-129 54.5t-47 149.5t48 150t129 55zM250 645q-61 0 -95.5 -42t-34.5 -124q0 -80 34 -123t95 -43t95 42.5t34 125.5q0 81 -33 122.5t-95 41.5zM75 0v41h347v-41h-347z" />
    <glyph glyph-name="guillemotright" unicode="&#xbb;" horiz-adv-x="539" 
d="M106 514l160 -211v-31l-160 -210l-29 19l138 207l-138 207zM302 514l159 -211v-31l-159 -210l-29 19l138 207l-138 207z" />
    </font>
</defs>
</svg>
