<?xml version="1.0" standalone="no"?>
<!DOCTYPE svg PUBLIC "-//W3C//DTD SVG 1.1//EN" "http://www.w3.org/Graphics/SVG/1.1/DTD/svg11.dtd" >
<svg xmlns="http://www.w3.org/2000/svg" xmlns:xlink="http://www.w3.org/1999/xlink" version="1.1">
<metadata>
Created by FontForge 20170731 at Tue Mar 20 17:52:53 2018
 By Aleksey,,,
Digitized data copyright 2012-2018 for FiraGO, bBox Type GmbH and HERE Europe B.V. All rights reserved, with Reserved Font Name "Fira" / Digitized data copyright 2012-2018 for Fira Sans The Mozilla Foundation, Telefonica S.A., Carrois Corporate GbR and bBox Type GmbH, with Reserved Font Name "Fira"
</metadata>
<defs>
<font id="FiraGO-HairItalic" horiz-adv-x="0" >
  <font-face 
    font-family="FiraGO Hair"
    font-weight="100"
    font-style="italic"
    font-stretch="normal"
    units-per-em="1000"
    panose-1="2 11 2 3 5 0 0 2 0 4"
    ascent="800"
    descent="-200"
    x-height="518"
    cap-height="681"
    bbox="-744 -702 2508 1431"
    underline-thickness="50"
    underline-position="-200"
    slope="-8"
    unicode-range="U+000D-FEFF"
  />
<missing-glyph horiz-adv-x="666" 
d="M654 1050l-197 -1400h-420l197 1400h420zM627 1027h-371l-192 -1354h371zM350 451q60 0 81.5 -32.5t14.5 -83.5q-8 -53 -34 -81.5t-77 -35.5l-7 -45q-1 -8 -5.5 -13.5t-10.5 -8t-12 -2.5q-10 0 -17 7t-5 17l12 84q53 3 74.5 20t27.5 58q3 21 0.5 35t-15 23.5t-36.5 9.5
q-29 0 -54 -11q-8 -3 -13 -3q-11 0 -17 6.5t-5 17.5q3 18 33.5 28t64.5 10zM294 120q16 0 25 -10.5t7 -25.5q-3 -15 -14 -25.5t-26 -10.5t-23.5 11t-6.5 27q2 15 13 24.5t25 9.5z" />
    <glyph glyph-name="fi" unicode="fi" horiz-adv-x="545" 
d="M461 518l-73 -518h-14l71 506h-273l-70 -502q-9 -62 -26 -99t-40.5 -57t-67.5 -41l-5 11q40 20 62.5 39t38.5 54.5t24 93.5l70 501h-91l2 12h91l14 100q8 57 45.5 87t98.5 30q66 0 126 -39l-8 -10q-57 37 -119 37q-55 0 -88.5 -27t-41.5 -80l-13 -98h287z" />
    <glyph glyph-name="fl" unicode="fl" horiz-adv-x="575" 
d="M489 12l3 -12q-23 -9 -45 -9q-70 0 -58 79l88 623q-81 29 -153 29q-58 0 -93.5 -26.5t-43.5 -79.5l-13 -98h148l-3 -12h-147l-70 -502q-9 -62 -26 -99t-40.5 -57t-67.5 -41l-5 11q40 20 62.5 39t38.5 54.5t24 93.5l70 501h-91l2 12h91l14 100q8 57 47.5 87t102.5 30
q79 0 155 -31l13 2l-90 -637q-9 -65 46 -65q20 0 41 8z" />
    <glyph glyph-name="uniFDF2" unicode="&#x627;&#xfedf;&#xfee0;&#xfeea;" horiz-adv-x="1064" arabic-form="isolated" 
d="M554 741h-11l-6 148h11zM958 733l10 -732l-11 -2l-13 732zM501 576q-24 0 -39 16.5t-15 50.5q0 29 10 55l10 -2q-9 -22 -9 -51q0 -57 44 -57q22 0 34.5 16.5t12.5 41.5v46h10v-46q0 -25 12 -41.5t34 -16.5q46 0 46 58q0 35 -17 71l10 4q18 -41 18 -77q0 -33 -15 -50
t-41 -17q-14 0 -25.5 6.5t-17.5 16t-9 21.5q-4 -20 -18 -32.5t-35 -12.5zM751 616l13 1l11 -544q-12 -32 -40 -52.5t-72 -20.5t-72.5 19.5t-36.5 55.5q-21 -75 -107 -75q-50 0 -80 27.5t-34 75.5q-72 -62 -162 -62q-59 0 -96.5 24.5t-45.5 56.5q0 84 81 149t214 90l-3 80
l14 1l9 -324q1 -51 28 -77.5t75 -26.5q83 0 100 78l-11 432l13 1l10 -410q3 -101 104 -101q73 0 99 60zM172 54q85 0 160 62l-8 233q-127 -23 -205 -86t-78 -144q13 -27 46.5 -46t84.5 -19z" />
    <glyph glyph-name="uniFEF5" unicode="&#xfedf;&#xfe82;" horiz-adv-x="630" arabic-form="isolated" 
d="M205 736q-38 -26 -69 -26q-16 0 -41 10.5t-38 10.5q-31 0 -49 -35l-10 3q9 20 25.5 32t34.5 12q15 0 40 -11t40 -11q17 0 29.5 5t32.5 18zM435 290q93 -112 104 -225q-69 -65 -255 -65h-169l1 13q114 68 188.5 134t116.5 141q-43 51 -100 102t-146 124l-86 70l14 6
l83 -68q63 -53 93 -78.5t74 -67.5t74 -77q63 118 56 282l-7 151l14 1l6 -152q6 -169 -61 -291zM283 13q177 0 245 58q-13 103 -99 207q-82 -140 -292 -265h146z" />
    <glyph glyph-name="uniFEF6" unicode="&#xfee0;&#xfe82;" horiz-adv-x="630" arabic-form="final" 
d="M630 14l9 -7l-9 -7q-38 0 -66.5 20t-37.5 53q-45 -73 -205 -73h-229l-3 14h234q79 0 126 16l-297 502l16 3l30 -50q199 -336 262 -451q39 17 62 52l-13 646l14 1l10 -634q4 -40 30.5 -62.5t66.5 -22.5zM195 642q-16 0 -41 11t-38 11q-32 0 -49 -35l-10 3q4 10 10.5 18
t14.5 14t16.5 9t17.5 3q15 0 40 -11t41 -11t29 5t33 18l5 -8q-38 -27 -69 -27z" />
    <glyph glyph-name="uniFEF7" unicode="&#xfedf;&#xfe84;" horiz-adv-x="630" arabic-form="isolated" 
d="M189 729v-10l-177 -28v10l79 13q-62 36 -62 82q0 29 21.5 48.5t61.5 19.5q28 0 54 -13l-2 -10q-27 13 -52 13q-24 0 -41 -8.5t-24 -21t-7 -28.5q0 -44 65 -80zM435 290q93 -112 104 -225q-69 -65 -255 -65h-169l1 13q114 68 188.5 134t116.5 141q-43 51 -100 102
t-146 124l-86 70l14 6l83 -68q63 -53 93 -78.5t74 -67.5t74 -77q63 118 56 282l-7 151l14 1l6 -152q6 -169 -61 -291zM283 13q177 0 245 58q-13 103 -99 207q-82 -140 -292 -265h146z" />
    <glyph glyph-name="uniFEF8" unicode="&#xfee0;&#xfe84;" horiz-adv-x="630" arabic-form="final" 
d="M248 662v-10l-177 -28v10l79 12q-62 36 -62 83q0 29 21.5 48.5t61.5 19.5q28 0 54 -13l-3 -10q-26 13 -51 13q-36 0 -54 -16.5t-18 -41.5q0 -45 64 -80zM630 14l9 -7l-9 -7q-38 0 -66.5 20t-37.5 53q-45 -73 -205 -73h-229l-3 14h234q79 0 126 16l-297 502l16 3l30 -50
q199 -336 262 -451q39 17 62 52l-13 646l14 1l10 -634q4 -40 30.5 -62.5t66.5 -22.5z" />
    <glyph glyph-name="uniFEF9" unicode="&#xfedf;&#xfe88;" horiz-adv-x="630" arabic-form="isolated" 
d="M435 290q93 -112 104 -225q-69 -65 -255 -65h-169l1 13q114 68 188.5 134t116.5 141q-43 51 -100 102t-146 124l-86 70l14 6l83 -68q63 -53 93 -78.5t74 -67.5t74 -77q63 118 56 282l-7 151l14 1l6 -152q6 -169 -61 -291zM283 13q177 0 245 58q-13 103 -99 207
q-82 -140 -292 -265h146zM129 -132q0 -44 65 -80l84 13v-10l-177 -28v10l80 13q-62 36 -62 82q0 29 21.5 48.5t60.5 19.5q28 0 54 -13l-2 -9q-27 13 -52 13q-35 0 -53.5 -17t-18.5 -42z" />
    <glyph glyph-name="uniFEFA" unicode="&#xfee0;&#xfe88;" horiz-adv-x="630" arabic-form="final" 
d="M630 14l9 -7l-9 -7q-38 0 -66.5 20t-37.5 53q-45 -73 -205 -73h-229l-3 14h234q79 0 126 16l-297 502l16 3l30 -50q199 -336 262 -451q39 17 62 52l-13 646l14 1l10 -634q4 -40 30.5 -62.5t66.5 -22.5zM129 -132q0 -44 65 -80l84 13v-10l-177 -28v10l80 13q-62 36 -62 82
q0 29 21.5 48.5t60.5 19.5q28 0 54 -13l-2 -9q-27 13 -52 13q-35 0 -53.5 -17t-18.5 -42z" />
    <glyph glyph-name="uniFEFB" unicode="&#xfedf;&#xfe8e;" horiz-adv-x="630" arabic-form="isolated" 
d="M435 290q93 -112 104 -225q-69 -65 -255 -65h-169l1 13q114 68 188.5 134t116.5 141q-43 51 -100 102t-146 124l-86 70l14 6l83 -68q63 -53 93 -78.5t74 -67.5t74 -77q63 118 56 282l-7 151l14 1l6 -152q6 -169 -61 -291zM283 13q177 0 245 58q-13 103 -99 207
q-82 -140 -292 -265h146z" />
    <glyph glyph-name="uniFEFC" unicode="&#xfee0;&#xfe8e;" horiz-adv-x="630" arabic-form="final" 
d="M630 14l9 -7l-9 -7q-38 0 -66.5 20t-37.5 53q-45 -73 -205 -73h-229l-3 14h234q79 0 126 16l-297 502l16 3l30 -50q199 -336 262 -451q39 17 62 52l-13 646l14 1l10 -634q4 -40 30.5 -62.5t66.5 -22.5z" />
    <glyph glyph-name="f_f" unicode="ff" horiz-adv-x="595" 
d="M601 723q-50 0 -82.5 -27t-39.5 -80l-14 -98h148l-3 -12h-147l-70 -502q-11 -79 -34.5 -116.5t-70.5 -64.5l-6 11q43 23 65 59.5t32 111.5l70 501h-278l-69 -502q-9 -62 -26 -99t-40.5 -57t-67.5 -41l-5 11q40 20 62.5 39t38.5 54.5t24 93.5l70 501h-91l2 12h90l13 90
q8 57 48.5 87.5t105.5 30.5q80 0 161 -47q37 57 114 57q59 0 111 -37l-7 -10q-50 34 -104 34zM451 518l14 100q4 28 16 51q-81 44 -155 44q-40 0 -69.5 -11.5t-48 -36t-23.5 -59.5l-12 -88h278z" />
    <glyph glyph-name="f_f_i" unicode="ffi" horiz-adv-x="836" 
d="M752 518l-73 -518h-14l71 506h-273l-70 -502q-11 -79 -34.5 -116.5t-70.5 -64.5l-6 11q43 23 65 59.5t32 111.5l70 501h-278l-69 -502q-9 -62 -26 -99t-40.5 -57t-67.5 -41l-5 11q40 20 62.5 39t38.5 54.5t24 93.5l70 501h-91l2 12h90l13 90q8 57 48.5 87.5t105.5 30.5
q81 0 161 -47q38 56 122 56q66 0 126 -39l-7 -10q-58 37 -120 37q-54 0 -88 -27t-41 -80l-14 -98h287zM451 518l14 100q4 28 16 51q-81 44 -155 44q-40 0 -69.5 -11.5t-48 -36t-23.5 -59.5l-12 -88h278z" />
    <glyph glyph-name="f_f_j" unicode="ffj" horiz-adv-x="841" 
d="M757 518l-73 -514q-4 -33 -11 -58t-15.5 -43.5t-20.5 -33t-25.5 -25t-32.5 -21.5l-6 11q43 23 65 59.5t33 111.5l70 501h-278l-70 -502q-11 -79 -34.5 -116.5t-70.5 -64.5l-6 11q43 23 65 59.5t32 111.5l70 501h-278l-69 -502q-9 -62 -26 -99t-40.5 -57t-67.5 -41l-5 11
q40 20 62.5 39t38.5 54.5t24 93.5l70 501h-91l2 12h90l13 90q8 57 48.5 87.5t105.5 30.5q81 0 161 -47q38 56 122 56q66 0 126 -39l-7 -10q-58 37 -120 37q-54 0 -88 -27t-41 -80l-14 -98h292zM451 518l14 100q4 28 16 51q-81 44 -155 44q-40 0 -69.5 -11.5t-48 -36
t-23.5 -59.5l-12 -88h278z" />
    <glyph glyph-name="f_f_l" unicode="ffl" horiz-adv-x="866" 
d="M780 12l4 -12q-23 -9 -46 -9q-69 0 -58 79l88 623q-80 29 -153 29q-58 0 -93.5 -26.5t-42.5 -79.5l-14 -98h148l-3 -12h-147l-70 -502q-11 -79 -34.5 -116.5t-70.5 -64.5l-6 11q43 23 65 59.5t32 111.5l70 501h-278l-69 -502q-9 -62 -26 -99t-40.5 -57t-67.5 -41l-5 11
q40 20 62.5 39t38.5 54.5t24 93.5l70 501h-91l2 12h90l13 90q8 57 48.5 87.5t105.5 30.5q81 0 162 -48q39 57 128 57q79 0 155 -31l13 2l-91 -637q-9 -65 46 -65q20 0 41 8zM465 618q4 28 17 51q-81 44 -156 44q-40 0 -69.5 -11.5t-48 -36t-23.5 -59.5l-12 -88h278z" />
    <glyph glyph-name="f_j" unicode="fj" horiz-adv-x="550" 
d="M465 518l-72 -514q-8 -55 -21.5 -89t-32.5 -54t-51 -38l-6 11q43 23 65 59.5t32 111.5l71 501h-278l-70 -502q-9 -62 -26 -99t-40.5 -57t-67.5 -41l-5 11q41 20 63 39t38 54.5t24 93.5l70 501h-91l2 12h91l14 100q8 57 45.5 87t98.5 30q66 0 126 -39l-8 -10
q-57 37 -119 37q-55 0 -88.5 -27t-41.5 -80l-13 -98h291z" />
    <glyph glyph-name="uni0E240E45" unicode="&#xe24;&#xe45;" horiz-adv-x="892" 
d="M634 576q99 0 138 -46.5t28 -136.5h-1l-57 -403l-27 -190l-13 3l26 187l58 410q9 82 -26 122.5t-127 40.5q-79 0 -173 -28q62 -45 48 -148l-54 -387l-27 -190l-14 2l27 188l54 386q23 167 -157 167q-52 0 -99.5 -19.5t-73 -40.5t-46.5 -46q79 -11 145 -47l-1 -12
q-69 -12 -101 -51.5t-42 -107.5l-21 -149q-11 -76 49 -76q25 0 58 11l3 -11q-34 -13 -62 -13q-75 0 -62 89l21 150q21 145 143 165q-71 35 -146 43l2 11q15 20 35 38t49 37t68 30.5t82 11.5q69 0 111 -24q102 34 185 34z" />
    <glyph glyph-name="uni0E260E45" unicode="&#xe26;&#xe45;" horiz-adv-x="887" 
d="M629 576q98 0 137.5 -46.5t27.5 -136.5l-57 -403l-27 -190l-14 3l27 187l57 410h1q6 54 -6.5 89t-48.5 54.5t-98 19.5q-79 0 -172 -28q61 -45 46 -148l-54 -387l-27 -190l-13 2l26 188l54 386q24 167 -155 167q-129 0 -218 -106q79 -10 145 -47l-1 -13q-24 -6 -42.5 -14
t-31.5 -19.5t-22 -23.5t-14.5 -29t-9 -32.5t-6.5 -37.5l-16 -111q-4 -27 -6.5 -41.5t-9 -33t-14.5 -27.5t-22.5 -15.5t-34.5 -6.5q-10 0 -18 1v12q7 -1 15 -1q10 0 18.5 2t15 4t12 8.5t8.5 10t6.5 14l5 15t4 19t3.5 19.5t3 22l16 111q10 70 35 107t92 54q-71 36 -147 44
l2 11q15 20 35 38t48.5 37t67.5 30.5t81 11.5q69 0 111 -24q102 34 185 34z" />
    <glyph glyph-name="uni06440671" unicode="&#xfedf;&#xfb51;" horiz-adv-x="630" 
d="M125 686q-34 0 -98 21l-17 -46l-9 3l19 55q18 -6 33 -10q47 95 108 95q20 0 34 -8t20 -20t6 -27q0 -29 -26 -46t-70 -17zM160 793q-55 0 -99 -86q38 -10 66 -10q39 0 61.5 13.5t22.5 37.5q0 19 -12 32t-39 13zM435 290q93 -112 104 -225q-69 -65 -255 -65h-169l1 13
q114 68 188.5 134t116.5 141q-43 51 -100 102t-146 124l-86 70l14 6l83 -68q63 -53 93 -78.5t74 -67.5t74 -77q63 118 56 282l-7 151l14 1l6 -152q6 -169 -61 -291zM283 13q177 0 245 58q-13 103 -99 207q-82 -140 -292 -265h146z" />
    <glyph glyph-name="uni06440671.fina" unicode="&#xfee0;&#xfb51;" horiz-adv-x="630" 
d="M184 619q-35 0 -98 21l-17 -46l-9 3l19 55q18 -6 32 -10q48 95 108 95q30 0 45.5 -16t15.5 -39q0 -29 -26 -46t-70 -17zM630 14l9 -7l-9 -7q-38 0 -66.5 20t-37.5 53q-45 -73 -205 -73h-229l-3 14h234q79 0 126 16l-297 502l16 3l30 -50q199 -336 262 -451q39 17 62 52
l-13 646l14 1l10 -634q4 -40 30.5 -62.5t66.5 -22.5zM219 726q-55 0 -99 -86q38 -11 65 -11q26 0 45 6.5t29 18t10 27.5q0 19 -11.5 32t-38.5 13z" />
    <glyph glyph-name="uni0E1B0E31" unicode="&#xe1b;&#xe31;" horiz-adv-x="599" 
d="M690 703q-67 -20 -146 -28l-66 -470q-14 -103 -63.5 -157.5t-146.5 -54.5q-180 0 -150 213l33 237q9 63 -8 114l13 1q18 -52 9 -115l-33 -237q-14 -97 18 -148.5t119 -51.5q47 0 82 14t57.5 41t36 63t20.5 83l49 351l16 116q-30 -3 -56 -3q-82 0 -82 53q0 28 16 54h13
q-16 -28 -16 -53q0 -22 17 -32t55 -10q25 0 55 3l12 84l13 -1l-11 -82q77 8 143 28z" />
    <glyph glyph-name="uni0E1B0E49" unicode="&#xe1b;&#xe49;" horiz-adv-x="599" 
d="M544 770l13 -1l-79 -564q-14 -103 -63.5 -157.5t-146.5 -54.5q-180 0 -150 213l33 237q9 63 -8 114l13 1q18 -52 9 -115l-33 -237q-14 -97 18 -148.5t119 -51.5q47 0 82 14t57.5 41t36 63t20.5 83l49 351l27 194q-49 -46 -109.5 -63.5t-168.5 -18.5l-3 7q48 40 48 82
q0 21 -13 33t-35 12q-18 0 -40 -6l-1 10q24 7 43 7q13 0 24 -4t18.5 -11t12 -17t4.5 -23q0 -43 -39 -79q99 1 155.5 20.5t105.5 69.5z" />
    <glyph glyph-name="uni0E1B0E4A" unicode="&#xe1b;&#xe4a;" horiz-adv-x="599" 
d="M544 770l13 -1l-79 -564q-14 -103 -63.5 -157.5t-146.5 -54.5q-180 0 -150 213l33 237q9 63 -8 114l13 1q18 -52 9 -115l-33 -237q-14 -97 18 -148.5t119 -51.5q91 0 136.5 51.5t59.5 149.5l49 351l26 188q-55 -74 -162 -74q-13 0 -26 2q17 40 17 73q0 26 -14 41t-42 15
q-33 0 -57 -27.5t-30 -68.5l-4 -23l-13 -1l4 24q3 20 0.5 37.5t-9 30.5t-19.5 20.5t-31 7.5q-26 0 -44 -13t-26.5 -34.5t-8.5 -48.5q0 -17 3 -33h-12q-3 13 -3 34q0 48 24.5 77.5t65.5 29.5q27 0 43.5 -13.5t21.5 -29.5t5 -35q9 30 32 54t59 24q23 0 38.5 -9t22.5 -24t7 -35
q0 -31 -14 -64q4 -1 12 -1q111 0 164 88z" />
    <glyph glyph-name="uni0E1B0E4B" unicode="&#xe1b;&#xe4b;" horiz-adv-x="599" 
d="M378 674l9 65h-76l3 11h74l9 59l13 1l-9 -60h75l-1 -11h-76l-9 -65h-12zM544 770l13 -1l-79 -564q-14 -103 -63.5 -157.5t-146.5 -54.5q-180 0 -150 213l33 237q9 63 -8 114l13 1q18 -52 9 -115l-33 -237q-14 -97 18 -148.5t119 -51.5q91 0 136.5 51.5t59.5 149.5l49 351
z" />
    <glyph glyph-name="uni0E1B0E4C" unicode="&#xe1b;&#xe4c;" horiz-adv-x="599" 
d="M629 737l-1 -11h-77l-73 -521q-14 -103 -63.5 -157.5t-146.5 -54.5q-180 0 -150 213l33 237q9 63 -8 114l13 1q18 -52 9 -115l-33 -237q-14 -97 18 -148.5t119 -51.5q91 0 136.5 51.5t59.5 149.5l49 351l23 168h-90q-67 0 -67 -61q0 -13 2 -31h-13q-2 19 -2 31
q0 72 80 72h92l5 33l13 -1l-4 -32h76z" />
    <glyph glyph-name="uni0E1B0E4D" unicode="&#xe1b;&#xe4d;" horiz-adv-x="599" 
d="M387 671q-28 0 -45.5 16.5t-17.5 44.5q0 33 21 59t61 26q29 0 47 -17t18 -46q0 -32 -22 -57.5t-62 -25.5zM406 805q-35 0 -52.5 -22.5t-17.5 -50.5q0 -24 14 -37t37 -13q25 0 41.5 12t23 27.5t6.5 32.5q0 13 -3.5 22.5t-10.5 15.5t-16.5 9.5t-21.5 3.5zM544 770l13 -1
l-79 -564q-14 -103 -63.5 -157.5t-146.5 -54.5q-180 0 -150 213l33 237q9 63 -8 114l13 1q18 -52 9 -115l-33 -237q-14 -97 18 -148.5t119 -51.5q91 0 136.5 51.5t59.5 149.5l49 351z" />
    <glyph glyph-name="uni0E1D0E31" unicode="&#xe1d;&#xe31;" horiz-adv-x="718" 
d="M809 703q-67 -20 -146 -28l-16 -117l-47 -331q-18 -130 -61 -183t-105 -53q-51 0 -77.5 36t-19.5 109q-11 -49 -29.5 -81t-45 -48t-62.5 -16q-61 0 -90 56t-12 182l13 93q18 129 54.5 186.5t107.5 57.5q34 0 52 -9l-3 -11q-18 8 -50 8q-64 0 -97.5 -55.5t-49.5 -177.5
l-13 -94q-30 -223 89 -223q109 0 134 173l16 115l15 2l-17 -120q-13 -89 11.5 -129.5t73.5 -40.5q56 0 95.5 50t56.5 173l47 331l16 116q-31 -3 -56 -3q-82 0 -82 53q0 28 15 54h13q-15 -28 -15 -53q0 -22 16.5 -32t55.5 -10q24 0 55 3l11 84l14 -1l-11 -82q77 8 143 28z
" />
    <glyph glyph-name="uni0E1D0E49" unicode="&#xe1d;&#xe49;" horiz-adv-x="718" 
d="M663 770l13 -1l-29 -211l-47 -331q-18 -130 -61 -183t-105 -53q-51 0 -77.5 36t-19.5 109q-16 -74 -49.5 -109.5t-87.5 -35.5q-61 0 -90 56t-12 182l13 93q18 129 54.5 186.5t107.5 57.5q34 0 52 -9l-3 -11q-18 8 -50 8q-64 0 -97.5 -55.5t-49.5 -177.5l-13 -94
q-30 -223 89 -223q109 0 134 173l16 115l15 2l-17 -120q-13 -89 11.5 -129.5t73.5 -40.5q56 0 95.5 50t56.5 173l47 331l27 194q-49 -46 -109.5 -63.5t-168.5 -18.5l-3 7q47 40 47 82q0 21 -12.5 33t-34.5 12q-18 0 -41 -6v10q24 7 43 7q27 0 42.5 -15t15.5 -40
q0 -43 -38 -79q99 1 155.5 20.5t105.5 69.5z" />
    <glyph glyph-name="uni0E1D0E4A" unicode="&#xe1d;&#xe4a;" horiz-adv-x="718" 
d="M662 770l14 -1l-29 -211l-47 -331q-18 -130 -61 -183t-105 -53q-51 0 -77.5 36t-19.5 109q-11 -49 -29.5 -81t-45 -48t-62.5 -16q-61 0 -90 56t-12 182l13 93q18 129 54.5 186.5t107.5 57.5q34 0 52 -9l-3 -11q-18 8 -50 8q-43 0 -72.5 -26.5t-46.5 -76t-28 -130.5
l-13 -94q-30 -223 89 -223q109 0 134 173l16 115l15 2l-17 -120q-13 -89 11.5 -129.5t73.5 -40.5q56 0 95.5 50t56.5 173l47 331l26 188q-55 -74 -162 -74q-14 0 -26 2q16 40 16 73q0 18 -5.5 30t-18 19t-31.5 7q-22 0 -41 -13t-31 -35t-15 -48l-4 -23l-13 -1l3 24
q6 42 -8.5 69t-50.5 27q-25 0 -43 -13t-26.5 -34.5t-8.5 -48.5q0 -17 2 -33h-12q-3 13 -3 34q0 48 24.5 77.5t66.5 29.5q38 0 54 -23.5t16 -54.5q9 30 32 54t59 24q34 0 51 -18.5t17 -49.5t-14 -64q4 -1 11 -1q112 0 164 88z" />
    <glyph glyph-name="uni0E1D0E4B" unicode="&#xe1d;&#xe4b;" horiz-adv-x="718" 
d="M496 674l9 65h-76l3 11h75l9 59l12 1l-8 -60h75l-2 -11h-75l-9 -65h-13zM662 770l14 -1l-29 -211l-47 -331q-18 -130 -61 -183t-105 -53q-51 0 -77.5 36t-19.5 109q-16 -74 -49.5 -109.5t-87.5 -35.5q-61 0 -90 56t-12 182l13 93q18 129 54.5 186.5t107.5 57.5
q34 0 52 -9l-3 -11q-18 8 -50 8q-64 0 -97.5 -55.5t-49.5 -177.5l-13 -94q-30 -223 89 -223q109 0 134 173l16 115l15 2l-17 -120q-13 -89 11.5 -129.5t73.5 -40.5q56 0 95.5 50t56.5 173l47 331z" />
    <glyph glyph-name="uni0E1D0E4C" unicode="&#xe1d;&#xe4c;" horiz-adv-x="718" 
d="M748 737l-2 -11h-76l-23 -168l-47 -331q-18 -130 -61 -183t-105 -53q-51 0 -77.5 36t-19.5 109q-16 -74 -49.5 -109.5t-87.5 -35.5q-61 0 -90 56t-12 182l13 93q18 129 54.5 186.5t107.5 57.5q34 0 52 -9l-3 -11q-18 8 -50 8q-64 0 -97.5 -55.5t-49.5 -177.5l-13 -94
q-30 -223 89 -223q109 0 134 173l16 115l15 2l-17 -120q-13 -89 11.5 -129.5t73.5 -40.5q56 0 95.5 50t56.5 173l47 331l23 168h-90q-67 0 -67 -61q0 -13 2 -31h-13q-2 19 -2 31q0 72 80 72h92l4 33l14 -1l-4 -32h76z" />
    <glyph glyph-name="uni0E1D0E4D" unicode="&#xe1d;&#xe4d;" horiz-adv-x="718" 
d="M506 671q-19 0 -33.5 7t-22.5 21t-8 33q0 33 21.5 59t61.5 26q29 0 46.5 -17t17.5 -46q0 -32 -21.5 -57.5t-61.5 -25.5zM525 805q-35 0 -52.5 -22.5t-17.5 -50.5q0 -24 13.5 -37t37.5 -13q35 0 53 22.5t18 49.5q0 25 -14 38t-38 13zM662 770l14 -1l-29 -211l-47 -331
q-18 -130 -61 -183t-105 -53q-51 0 -77.5 36t-19.5 109q-11 -49 -29.5 -81t-45 -48t-62.5 -16q-61 0 -90 56t-12 182l13 93q18 129 54.5 186.5t107.5 57.5q34 0 52 -9l-3 -11q-18 8 -50 8q-64 0 -97.5 -55.5t-49.5 -177.5l-13 -94q-30 -223 89 -223q109 0 134 173l16 115
l15 2l-17 -120q-13 -89 11.5 -129.5t73.5 -40.5q56 0 95.5 50t56.5 173l47 331z" />
    <glyph glyph-name="uni0E1F0E31" unicode="&#xe1f;&#xe31;" horiz-adv-x="765" 
d="M909 703q-72 -21 -155 -29l-36 -116l-171 -558h-19l-106 544l-259 -544h-18v440q0 83 -25 122l13 2q25 -36 26 -128l-2 -420l259 542h17l106 -542l164 542l36 115q-25 -2 -46 -2q-82 0 -82 53q0 28 15 54h14q-16 -28 -16 -53q0 -15 7.5 -24t23 -13.5t41.5 -4.5q21 0 47 2
l26 85h14l-26 -84q82 8 151 29z" />
    <glyph glyph-name="uni0E1F0E49" unicode="&#xe1f;&#xe49;" horiz-adv-x="755" 
d="M770 770h13l-65 -212l-171 -558h-19l-106 544l-259 -544h-18v440q0 83 -25 122l13 2q25 -36 26 -128l-2 -420l259 542h17l106 -542l164 542l33 106q13 42 29 88q-47 -46 -106.5 -63.5t-163.5 -18.5l-3 6q47 41 47 83q0 21 -13 33t-35 12q-17 0 -40 -6l-1 10q24 7 43 7
q18 0 31 -6.5t20.5 -19t7.5 -30.5q0 -42 -39 -78q49 1 85 5.5t66.5 15t55 27.5t48.5 42z" />
    <glyph glyph-name="uni0E1F0E4A" unicode="&#xe1f;&#xe4a;" horiz-adv-x="755" 
d="M769 770h14l-65 -212l-171 -558h-19l-106 544l-259 -544h-18v440q0 83 -25 122l13 2q25 -36 26 -128l-2 -420l259 542h17l106 -542l164 542l33 106q14 45 25 77q-53 -69 -154 -69q-13 0 -25 2q16 40 16 73q0 26 -14 41t-41 15q-34 0 -58 -27.5t-30 -68.5l-4 -23l-13 -1
l4 24q3 20 0.5 37.5t-9 30.5t-19.5 20.5t-31 7.5q-38 0 -58 -27.5t-20 -71.5q0 -12 2 -30h-12q-3 13 -3 33q0 49 24.5 78.5t65.5 29.5q39 0 54.5 -23.5t16.5 -54.5q5 19 15.5 35.5t30.5 29.5t44 13q34 0 51 -18.5t17 -49.5t-14 -64q5 -1 12 -1q109 0 160 88z" />
    <glyph glyph-name="uni0E1F0E4B" unicode="&#xe1f;&#xe4b;" horiz-adv-x="755" 
d="M597 674l8 65h-76l4 11h74l9 59l12 1l-8 -60h75l-2 -11h-75l-9 -65h-12zM769 770h14l-65 -212l-171 -558h-19l-106 544l-259 -544h-18v440q0 83 -25 122l13 2q25 -36 26 -128l-2 -420l259 542h17l106 -542l164 542z" />
    <glyph glyph-name="uni0E1F0E4C" unicode="&#xe1f;&#xe4c;" horiz-adv-x="765" 
d="M848 737l-2 -11h-77l-51 -168l-171 -558h-19l-106 544l-259 -544h-18v440q0 83 -25 122l13 2q25 -36 26 -128l-2 -420l259 542h17l106 -542l164 542l52 168h-89q-67 0 -67 -61q0 -13 2 -31h-13q-2 19 -2 31q0 72 80 72h93l10 33h14l-10 -33h75z" />
    <glyph glyph-name="uni0E1F0E4D" unicode="&#xe1f;&#xe4d;" horiz-adv-x="755" 
d="M606 671q-29 0 -46.5 16.5t-17.5 44.5q0 33 21.5 59t61.5 26q29 0 47 -17t18 -46q0 -14 -5.5 -28.5t-15 -27t-26 -20t-37.5 -7.5zM625 805q-35 0 -52.5 -22.5t-17.5 -50.5q0 -24 13.5 -37t37.5 -13q36 0 53.5 22.5t17.5 49.5q0 17 -6.5 28.5t-18 17t-27.5 5.5zM769 770
h14l-65 -212l-171 -558h-19l-106 544l-259 -544h-18v440q0 83 -25 122l13 2q25 -36 26 -128l-2 -420l259 542h17l106 -542l164 542z" />
    <glyph glyph-name="uni0E310E4A" unicode="&#xe31;&#xe4a;" 
d="M54 934l11 -4q-28 -50 -67 -77t-105 -27q-10 0 -21 2q15 37 15 66q0 50 -50 50q-30 0 -51.5 -25t-27.5 -62l-3 -20l-12 -2l4 22q5 37 -8.5 62t-45.5 25q-17 0 -30.5 -7t-22 -19t-13 -27.5t-4.5 -33.5q0 -19 2 -30h-10q-3 11 -3 30q0 43 22 70t59 27q33 0 48.5 -21
t14.5 -49q8 28 29 49t53 21q30 0 45.5 -16t15.5 -44t-13 -58h9q61 0 98 26.5t61 71.5zM-315 683q104 0 204 32l1 -12q-102 -32 -207 -32q-81 0 -81 52q0 30 15 55h14q-16 -28 -16 -54q0 -22 17 -31.5t53 -9.5z" />
    <glyph glyph-name="uni0620.init" unicode="&#x620;" horiz-adv-x="260" 
d="M129 33q27 -3 45.5 -22.5t18.5 -47.5q0 -29 -20 -49.5t-51 -20.5t-51.5 21t-20.5 49q0 26 16 45q-33 -8 -66 -8l-9 7l10 7q109 0 165 66q2 140 -51 289l14 5q51 -149 50 -290q-14 -30 -50 -51zM122 -96q27 0 43.5 17t16.5 42.5t-17 42t-43 16.5t-43.5 -17t-17.5 -42
t17 -42t44 -17z" />
    <glyph glyph-name="uni0620.medi" unicode="&#x620;" horiz-adv-x="285" 
d="M143 59q-6 -13 -26 -26q28 -2 46.5 -21.5t18.5 -48.5q0 -28 -19.5 -49t-51.5 -21q-30 0 -51 21t-21 49q0 25 16 45q-29 -8 -56 -8l-8 7l9 7q45 0 86 19t50 37l-20 235h14l19 -235q13 -20 48 -38t89 -18l8 -7l-9 -7q-55 0 -92.5 19t-49.5 40zM171 -36.5q0 25.5 -17 42
t-43 16.5t-43 -17t-17 -42t16.5 -42t43.5 -17q28 0 44 17t16 42.5z" />
    <glyph glyph-name="uni0620.fina" unicode="&#x620;" horiz-adv-x="698" 
d="M707 7l-9 -7q-64 0 -152 37q30 -19 43 -44t12 -68q-6 -12 -26 -28.5t-52 -33t-80.5 -30t-102.5 -17.5q35 -20 35 -60q0 -19 -9 -35t-25.5 -25.5t-36.5 -9.5q-16 0 -29.5 5.5t-23 15t-14.5 22.5t-5 27q0 39 34 60q-70 4 -116 32t-65 70t-19 97q0 89 35 173l10 -4
q-33 -83 -33 -168q0 -86 52.5 -136.5t167.5 -50.5q60 0 112.5 10.5t88 26.5t57 30.5t33.5 26.5q0 34 -5.5 53.5t-27 40t-59.5 38t-106 41.5l8 11q48 -17 101.5 -38.5t77.5 -31t56 -16.5t66 -7zM364 -244.5q0 25.5 -17.5 42t-42.5 16.5q-27 0 -44 -16.5t-17 -41.5t17 -42
t44 -17t43.5 16.5t16.5 42z" />
    <glyph glyph-name="uni063B.init" unicode="&#x63b;" horiz-adv-x="455" 
d="M78 731l-15 -18l-16 14l14 18zM389 740l-2 -15l-367 -264q283 -177 306 -365q-42 -41 -124.5 -68.5t-201.5 -27.5l-9 7l10 7q207 0 312 85q-24 180 -307 356l3 13zM-64 722l15 18l16 -14l-14 -18z" />
    <glyph glyph-name="uni063B.medi" unicode="&#x63b;" horiz-adv-x="529" 
d="M132 731l-14 -18l-17 14l14 18zM530 14l8 -7l-9 -7q-30 0 -53 6t-42 15.5t-44 34.5t-45 49t-59 73q-39 -91 -106.5 -134.5t-179.5 -43.5l-9 7l10 7q108 0 173 42.5t103 131.5l-212 267l2 13l380 272l-1 -16l-369 -264l186 -234q42 -52 62.5 -77t47 -54.5t41 -40.5
t35.5 -23t39 -14.5t42 -2.5zM22 726l-15 -18l-16 14l14 18z" />
    <glyph glyph-name="uni063B.fina" unicode="&#x63b;" horiz-adv-x="962" 
d="M558 731l-14 -18l-17 14l14 18zM963 14l8 -7l-9 -7q-30 0 -53.5 6t-42 15.5t-43.5 34.5t-45.5 49t-59.5 73q-20 -48 -46.5 -80.5t-70.5 -58.5t-111 -38.5t-160 -12.5q-264 0 -264 170q0 72 35 145l10 -3q-32 -71 -32 -141q0 -157 253 -157q90 0 155.5 12t108 37.5
t68.5 57.5t46 79l-213 267l3 13l380 272l-2 -16l-368 -264l186 -234q41 -52 61.5 -77t47.5 -54.5t41.5 -40.5t35 -23t38.5 -14.5t43 -2.5zM448 726l-15 -18l-16 14l14 18z" />
    <glyph glyph-name="uni063C.init" unicode="&#x63c;" horiz-adv-x="455" 
d="M389 740l-2 -15l-367 -264q283 -177 306 -365q-42 -41 -124.5 -68.5t-201.5 -27.5l-9 7l10 7q207 0 312 85q-24 180 -307 356l3 13zM175 -142l14 19l17 -14l-14 -19zM65 -147l14 18l17 -14l-14 -18zM124 -238l14 19l17 -14l-15 -19z" />
    <glyph glyph-name="uni063C.medi" unicode="&#x63c;" horiz-adv-x="529" 
d="M530 14l8 -7l-9 -7q-30 0 -53 6t-42 15.5t-44 34.5t-45 49t-59 73q-39 -91 -106.5 -134.5t-179.5 -43.5l-9 7l10 7q108 0 173 42.5t103 131.5l-212 267l2 13l380 272l-1 -16l-369 -264l186 -234q42 -52 62.5 -77t47 -54.5t41 -40.5t35.5 -23t39 -14.5t42 -2.5zM309 -142
l14 19l17 -14l-14 -19zM199 -147l14 18l17 -14l-14 -18zM258 -238l14 19l17 -14l-15 -19z" />
    <glyph glyph-name="uni063C.fina" unicode="&#x63c;" horiz-adv-x="962" 
d="M963 14l8 -7l-9 -7q-30 0 -53.5 6t-42 15.5t-43.5 34.5t-45.5 49t-59.5 73q-20 -48 -46.5 -80.5t-70.5 -58.5t-111 -38.5t-160 -12.5q-264 0 -264 170q0 72 35 145l10 -3q-32 -71 -32 -141q0 -157 253 -157q90 0 155.5 12t108 37.5t68.5 57.5t46 79l-213 267l3 13
l380 272l-2 -16l-368 -264l186 -234q41 -52 61.5 -77t47.5 -54.5t41.5 -40.5t35 -23t38.5 -14.5t43 -2.5zM413 -142l14 19l17 -14l-15 -19zM302 -147l15 18l16 -14l-14 -18zM361 -238l14 19l17 -14l-14 -19z" />
    <glyph glyph-name="uni066E.init" unicode="&#x66e;" horiz-adv-x="260" 
d="M0 0l-9 7l10 7q109 0 165 66q2 140 -51 289l14 5q51 -149 50 -290q-19 -40 -71.5 -62t-107.5 -22z" />
    <glyph glyph-name="uni066E.medi" unicode="&#x66e;" horiz-adv-x="285" 
d="M286 14l8 -7l-9 -7q-55 0 -92.5 19t-49.5 40q-11 -22 -55 -40.5t-89 -18.5l-8 7l9 7q45 0 86 19t50 37l-20 235h14l19 -235q13 -20 48 -38t89 -18z" />
    <glyph glyph-name="uni066E.fina" unicode="&#x66e;" horiz-adv-x="853" 
d="M854 14l8 -7l-9 -7q-23 0 -43 5t-34 13.5t-25 18t-18 21t-11 19t-7 15.5q-132 -104 -385 -104q-264 0 -264 170q0 72 35 145l10 -3q-32 -71 -32 -141q0 -157 253 -157q252 0 378 103l-27 200h14l24 -190q2 -11 8.5 -25.5t20 -33t41 -30.5t63.5 -12z" />
    <glyph glyph-name="uni066F.init" unicode="&#x66f;" horiz-adv-x="453" 
d="M203 527q27 0 52 -12t48.5 -41.5t39.5 -73.5t23.5 -113.5t3.5 -156.5q-26 -47 -127 -88.5t-243 -41.5l-9 7l10 7q130 0 222 33.5t134 80.5q3 62 0 115q-52 -47 -131 -47q-73 0 -124.5 43.5t-51.5 108.5q0 70 48.5 124.5t104.5 54.5zM229 210q75 0 128 44q-9 135 -53 197
t-101 62q-51 0 -95 -50t-44 -114q0 -61 47.5 -100t117.5 -39z" />
    <glyph glyph-name="uni066F.medi" unicode="&#x66f;" horiz-adv-x="453" 
d="M454 14l8 -7l-9 -7h-16q-108 0 -203 42q-95 -42 -223 -42h-11l-9 7l10 7h11q119 0 207 35q-67 33 -106.5 81.5t-39.5 107.5q0 67 49.5 126.5t104.5 59.5q60 0 111 -60t51 -130q0 -51 -36 -101t-104 -84q88 -35 188 -35h17zM86 236q0 -57 40.5 -103.5t108.5 -77.5
q68 31 104 78t36 99q0 42 -21 84t-56 68t-71 26q-50 0 -95.5 -55.5t-45.5 -118.5z" />
    <glyph glyph-name="uni066F.fina" unicode="&#x66f;" horiz-adv-x="749" 
d="M758 7l-9 -7h-111q1 -33 -1 -69q-22 -70 -103.5 -118t-182.5 -48q-152 0 -218.5 52.5t-66.5 153.5q0 84 36 170l10 -4q-34 -85 -34 -165q0 -62 25.5 -104t87.5 -65.5t161 -23.5q92 0 166 39t106 106q2 40 2 76h-103q-93 0 -148.5 42.5t-55.5 112t48.5 123.5t103.5 54
q25 0 47.5 -8.5t44 -31t37.5 -57t26.5 -91.5t11.5 -130h112zM619 14h7q-2 70 -11.5 124t-24 87.5t-35 55t-41 29.5t-43.5 8q-51 0 -95 -49.5t-44 -112.5q0 -65 52 -103.5t142 -38.5h93z" />
    <glyph glyph-name="uni0676.fina" unicode="&#x676;" horiz-adv-x="508" 
d="M411 568v-10l-177 -28v10l79 13q-62 36 -62 82q0 29 21.5 48.5t61.5 19.5q28 0 54 -13l-2 -9q-27 13 -52 13q-36 0 -54 -17t-18 -42q0 -44 65 -80zM517 7l-9 -7h-103q-17 -94 -99 -156.5t-235 -82.5l-5 14q288 38 326 225h-90q-98 0 -156 42t-58 109q0 70 48.5 124.5
t104.5 54.5q31 0 60.5 -18.5t54 -52.5t39.5 -87t15 -116q0 -22 -3 -42h103zM394 14q3 18 3 37q0 122 -47.5 193.5t-108.5 71.5q-51 0 -95.5 -50t-44.5 -114q0 -62 54 -100t150 -38h89z" />
    <glyph glyph-name="uni0677.fina" unicode="&#x677;" horiz-adv-x="508" 
d="M178 611l-4 9q59 23 96 55q-40 10 -59.5 31t-19.5 48q0 31 20 49.5t47 18.5q32 0 49 -20.5t17 -51.5q0 -39 -42 -76.5t-104 -62.5zM202 754q0 -55 76 -72q36 34 36 68q0 26 -14 44t-42 18q-24 0 -40 -16t-16 -42zM340 452v-11l-177 -27v10l79 12q-62 36 -62 83
q0 28 21.5 48t61.5 20q27 0 53 -13l-2 -10q-26 13 -51 13q-36 0 -54 -17t-18 -41q0 -45 64 -81zM517 7l-9 -7h-103q-17 -94 -99 -156.5t-235 -82.5l-5 14q288 38 326 225h-90q-98 0 -156 42t-58 109q0 70 48.5 124.5t104.5 54.5q31 0 60.5 -18.5t54 -52.5t39.5 -87t15 -116
q0 -22 -3 -42h103zM394 14q3 18 3 37q0 122 -47.5 193.5t-108.5 71.5q-51 0 -95.5 -50t-44.5 -114q0 -62 54 -100t150 -38h89z" />
    <glyph glyph-name="uni0678.init" unicode="&#x678;" horiz-adv-x="260" 
d="M145 595l85 13v-10l-177 -28v10l79 13q-62 36 -62 82q0 29 21.5 48.5t61.5 19.5q28 0 54 -13l-3 -9q-26 13 -51 13q-36 0 -54 -17t-18 -42q0 -44 64 -80zM0 0l-9 7l10 7q109 0 165 66q2 140 -51 289l14 5q51 -149 50 -290q-19 -40 -71.5 -62t-107.5 -22z" />
    <glyph glyph-name="uni0678.medi" unicode="&#x678;" horiz-adv-x="285" 
d="M256 538v-10l-176 -28v10l79 13q-62 36 -62 82q0 29 21.5 48.5t61.5 19.5q27 0 53 -13l-2 -9q-26 13 -51 13q-36 0 -54.5 -17t-18.5 -42q0 -44 65 -80zM286 14l8 -7l-9 -7q-55 0 -92.5 19t-49.5 40q-11 -22 -55 -40.5t-89 -18.5l-8 7l9 7q45 0 86 19t50 37l-20 235h14
l19 -235q8 -12 23 -23.5t45.5 -22t68.5 -10.5z" />
    <glyph glyph-name="uni0678.fina" unicode="&#x678;" horiz-adv-x="698" 
d="M539 319v-10l-177 -28v10l79 13q-62 36 -62 82q0 29 21.5 48.5t61.5 19.5q28 0 54 -13l-2 -9q-27 13 -52 13q-36 0 -54 -17t-18 -42q0 -44 65 -80zM707 7l-9 -7q-64 0 -152 37q30 -19 43 -44t12 -68q-7 -14 -30 -31.5t-60 -36t-94 -30.5t-120 -12q-120 0 -175.5 54
t-55.5 146q0 89 35 173l10 -4q-33 -83 -33 -168q0 -86 52.5 -136.5t167.5 -50.5q60 0 112.5 10.5t88 26.5t57 30.5t33.5 26.5q0 34 -5.5 53.5t-27 40t-59.5 38t-106 41.5l8 11q48 -17 101.5 -38.5t77.5 -31t56 -16.5t66 -7z" />
    <glyph glyph-name="uni067C.init" unicode="&#x67c;" horiz-adv-x="260" 
d="M163 522l-14 -18l-17 14l15 18zM53 516l-14 -18l-17 14l14 18zM117 27q29 -1 48.5 -21.5t19.5 -49t-19.5 -49t-51.5 -20.5q-30 0 -51 20.5t-21 49.5q0 30 23 51q-33 -8 -65 -8l-9 7l10 7q109 0 165 66q2 140 -51 289l14 5q51 -149 50 -290q-17 -35 -62 -57zM114 -102
q28 0 44 17t16 42t-17 41.5t-43 16.5t-43 -16.5t-17 -41.5t16.5 -42t43.5 -17z" />
    <glyph glyph-name="uni067C.medi" unicode="&#x67c;" horiz-adv-x="285" 
d="M168 444l-14 -18l-17 14l14 18zM58 439l-15 -18l-16 14l14 18zM143 59q-6 -13 -27 -26q28 -2 46.5 -22t18.5 -48t-20 -49t-51 -21t-51.5 21t-20.5 49q0 25 15 44q-28 -7 -54 -7l-8 7l9 7q45 0 86 19t50 37l-20 235h14l19 -235q13 -20 48 -38t89 -18l8 -7l-9 -7
q-55 0 -92.5 19t-49.5 40zM110 22q-12 0 -23 -4q-1 0 -4 -1q-34 -15 -34 -54q0 -25 17 -42t44 -17q18 0 31.5 8t21 21.5t7.5 29.5q0 26 -17.5 42.5t-42.5 16.5z" />
    <glyph glyph-name="uni067C.fina" unicode="&#x67c;" horiz-adv-x="853" 
d="M446 431l-15 -18l-16 14l14 18zM335 425l-14 -18l-17 14l15 18zM854 14l8 -7l-9 -7q-23 0 -43 5t-34 13.5t-25 18t-18 21t-11 19t-7 15.5q-56 -45 -138 -71t-188 -31q35 -20 35 -61q0 -29 -20 -49.5t-51 -20.5t-51.5 20.5t-20.5 49.5q0 39 34 59q-249 5 -249 170
q0 72 35 145l10 -3q-32 -71 -32 -141q0 -157 253 -157q252 0 378 103l-27 200h14l24 -190q2 -11 8.5 -25.5t20 -33t41 -30.5t63.5 -12zM413 -71.5q0 25.5 -17 42t-43 16.5t-43 -16.5t-17 -41.5t16.5 -42t43.5 -17t43.5 16.5t16.5 42z" />
    <glyph glyph-name="uni067D.init" unicode="&#x67d;" horiz-adv-x="260" 
d="M174 592l-17 14l14 18l17 -14zM63 586l-16 14l14 19l17 -14zM122 496l-17 14l15 18l16 -14zM0 0l-9 7l10 7q109 0 165 66q2 140 -51 289l14 5q51 -149 50 -290q-19 -40 -71.5 -62t-107.5 -22z" />
    <glyph glyph-name="uni067D.medi" unicode="&#x67d;" horiz-adv-x="285" 
d="M193 533l-15 -19l-16 14l14 19zM82 527l-14 -18l-17 14l15 18zM141 437l-14 -19l-17 14l14 19zM286 14l8 -7l-9 -7q-55 0 -92.5 19t-49.5 40q-11 -22 -55 -40.5t-89 -18.5l-8 7l9 7q45 0 86 19t50 37l-20 235h14l19 -235q13 -20 48 -38t89 -18z" />
    <glyph glyph-name="uni067D.fina" unicode="&#x67d;" horiz-adv-x="853" 
d="M470 519l-14 -18l-17 14l15 18zM360 514l-14 -19l-17 14l14 19zM419 423l-15 -18l-16 14l14 18zM854 14l8 -7l-9 -7q-34 0 -60.5 10.5t-42 27t-23 29t-12.5 25.5q-132 -104 -385 -104q-264 0 -264 170q0 72 35 145l10 -3q-32 -71 -32 -141q0 -157 253 -157q252 0 378 103
l-27 200h14l24 -190q2 -11 8.5 -25.5t20 -33t41 -30.5t63.5 -12z" />
    <glyph glyph-name="uni0681.init" unicode="&#x681;" horiz-adv-x="685" 
d="M306 525v-10l-177 -28v10l79 13q-62 36 -62 82q0 29 21.5 48.5t61.5 19.5q28 0 54 -13l-3 -9q-26 13 -51 13q-36 0 -54 -17t-18 -42q0 -44 64 -80zM222 415q31 0 62.5 -10.5t70 -34t72.5 -47t93 -65.5t108 -74l-3 -12l-15 -2q-74 -9 -160.5 -38t-151 -57.5t-146 -51.5
t-152.5 -23l-9 7l10 7q69 0 149.5 22t144.5 50t151 57t162 39q-43 30 -102 72t-89 62.5t-68 43.5t-67.5 32t-59.5 9q-55 0 -108 -35l-7 12q55 37 115 37z" />
    <glyph glyph-name="uni0681.medi" unicode="&#x681;" horiz-adv-x="767" 
d="M307 533v-10l-177 -28v10l79 13q-62 36 -62 82q0 29 21.5 48.5t61.5 19.5q27 0 53 -13l-2 -9q-26 12 -51 12q-36 0 -54 -16.5t-18 -41.5q0 -44 64 -80zM769 14l8 -7l-10 -7q-209 0 -262 193q-55 -15 -124 -49.5t-121.5 -65t-123 -54.5t-136.5 -24l-9 7l10 7
q59 0 119 18.5t113 46.5t105 56.5t113.5 52t120.5 29.5q-68 33 -149 83.5t-131.5 75.5t-95.5 25q-55 0 -107 -35l-7 13q55 36 114 36q38 0 82 -18.5t82.5 -44t104.5 -64.5t127 -68l-2 -13l-19 -1q-27 -3 -55 -10q52 -182 253 -182z" />
    <glyph glyph-name="uni0681.fina" unicode="&#x681;" horiz-adv-x="706" 
d="M311 525v-10l-177 -28v10l79 13q-62 36 -62 82q0 29 21.5 48.5t61.5 19.5q28 0 54 -13l-3 -9q-26 13 -51 13q-36 0 -54 -17t-18 -42q0 -44 64 -80zM475 206q-171 -39 -275 -129.5t-104 -210.5q0 -87 56 -141t158 -54q128 0 230 43l5 -12q-103 -45 -237 -45
q-107 0 -166 58t-59 150q0 126 107.5 219.5t283.5 133.5q-1 2 -1 5l11 2q0 -3 1 -5q37 8 76 13q-38 22 -98 59.5t-92 56.5t-73.5 35t-75.5 16q-59 0 -108 -36l-8 11q53 39 117 39q46 0 95 -23t133 -76.5t129 -78.5l-3 -13l-9 -1q-42 -5 -82 -14q15 -106 69.5 -150t151.5 -44
l8 -7l-9 -7q-101 0 -159 47.5t-72 158.5z" />
    <glyph glyph-name="uni0682.init" unicode="&#x682;" horiz-adv-x="685" 
d="M224 612l-15 -18l-16 14l14 18zM206 503l14 18l17 -14l-15 -18zM222 415q31 0 62.5 -10.5t70 -34t72.5 -47t93 -65.5t108 -74l-3 -12l-15 -2q-74 -9 -160.5 -38t-151 -57.5t-146 -51.5t-152.5 -23l-9 7l10 7q69 0 149.5 22t144.5 50t151 57t162 39q-43 30 -102 72
t-89 62.5t-68 43.5t-67.5 32t-59.5 9q-55 0 -108 -35l-7 12q55 37 115 37z" />
    <glyph glyph-name="uni0682.medi" unicode="&#x682;" horiz-adv-x="767" 
d="M224 620l-14 -18l-17 14l15 18zM206 511l15 18l16 -14l-14 -18zM769 14l8 -7l-10 -7q-209 0 -262 193q-55 -15 -124 -49.5t-121.5 -65t-123 -54.5t-136.5 -24l-9 7l10 7q59 0 119 18.5t113 46.5t105 56.5t113.5 52t120.5 29.5q-68 33 -149 83.5t-131.5 75.5t-95.5 25
q-55 0 -107 -35l-7 13q55 36 114 36q38 0 82 -18.5t82.5 -44t104.5 -64.5t127 -68l-2 -13l-19 -1q-27 -3 -55 -10q52 -182 253 -182z" />
    <glyph glyph-name="uni0682.fina" unicode="&#x682;" horiz-adv-x="706" 
d="M229 612l-15 -18l-16 14l14 18zM211 503l14 18l17 -14l-15 -18zM475 206q-171 -39 -275 -129.5t-104 -210.5q0 -87 56 -141t158 -54q128 0 230 43l5 -12q-103 -45 -237 -45q-107 0 -166 58t-59 150q0 126 107.5 219.5t283.5 133.5q-1 2 -1 5l11 2q0 -3 1 -5q37 8 76 13
q-38 22 -98 59.5t-92 56.5t-73.5 35t-75.5 16q-59 0 -108 -36l-8 11q53 39 117 39q46 0 95 -23t133 -76.5t129 -78.5l-3 -13l-9 -1q-42 -5 -82 -14q5 -36 15 -65.5t24.5 -50.5t33 -36.5t42 -24.5t49.5 -13t57 -4l8 -7l-9 -7q-101 0 -159 47.5t-72 158.5z" />
    <glyph glyph-name="uni0685.init" unicode="&#x685;" horiz-adv-x="685" 
d="M206 642l-14 -18l-17 14l14 18zM265 552l-15 -18l-16 14l14 18zM154 546l-14 -18l-17 14l15 18zM222 415q31 0 62.5 -10.5t70 -34t72.5 -47t93 -65.5t108 -74l-3 -12l-15 -2q-74 -9 -160.5 -38t-151 -57.5t-146 -51.5t-152.5 -23l-9 7l10 7q69 0 149.5 22t144.5 50
t151 57t162 39q-43 30 -102 72t-89 62.5t-68 43.5t-67.5 32t-59.5 9q-55 0 -108 -35l-7 12q55 37 115 37z" />
    <glyph glyph-name="uni0685.medi" unicode="&#x685;" horiz-adv-x="767" 
d="M207 650l-15 -18l-16 14l14 18zM265 560l-14 -18l-17 14l15 18zM155 554l-14 -18l-17 14l14 18zM769 14l8 -7l-10 -7q-209 0 -262 193q-55 -15 -124 -49.5t-121.5 -65t-123 -54.5t-136.5 -24l-9 7l10 7q59 0 119 18.5t113 46.5t105 56.5t113.5 52t120.5 29.5
q-68 33 -149 83.5t-131.5 75.5t-95.5 25q-55 0 -107 -35l-7 13q55 36 114 36q38 0 82 -18.5t82.5 -44t104.5 -64.5t127 -68l-2 -13l-19 -1q-27 -3 -55 -10q52 -182 253 -182z" />
    <glyph glyph-name="uni0685.fina" unicode="&#x685;" horiz-adv-x="706" 
d="M211 642l-14 -18l-17 14l14 18zM270 552l-15 -18l-16 14l14 18zM159 546l-14 -18l-17 14l15 18zM475 206q-171 -39 -275 -129.5t-104 -210.5q0 -87 56 -141t158 -54q128 0 230 43l5 -12q-103 -45 -237 -45q-107 0 -166 58t-59 150q0 126 107.5 219.5t283.5 133.5
q-1 2 -1 5l11 2q0 -3 1 -5q37 8 76 13q-38 22 -98 59.5t-92 56.5t-73.5 35t-75.5 16q-59 0 -108 -36l-8 11q53 39 117 39q46 0 95 -23t133 -76.5t129 -78.5l-3 -13l-9 -1q-42 -5 -82 -14q15 -106 69.5 -150t151.5 -44l8 -7l-9 -7q-101 0 -159 47.5t-72 158.5z" />
    <glyph glyph-name="uni0689.fina" unicode="&#x689;" horiz-adv-x="504" 
d="M505 14l8 -7l-9 -7q-25 0 -44 4t-33 12t-23.5 20.5t-17.5 29.5q-63 -63 -155 -75q37 -19 37 -62q0 -29 -19.5 -49.5t-51.5 -20.5q-30 0 -51 20.5t-21 49.5q0 39 34 60q-61 3 -130 30l6 14q73 -30 151 -30q117 0 195 74l-153 388l14 7l147 -381q17 -45 42 -61t74 -16z
M257 -71q0 12 -4.5 23t-12.5 19t-19 12.5t-24 4.5q-26 0 -43 -17t-17 -42t17 -42t43 -17q28 0 44 17t16 42z" />
    <glyph glyph-name="uni068A.fina" unicode="&#x68a;" horiz-adv-x="504" 
d="M505 14l8 -7l-9 -7q-25 0 -44 4t-33 12t-23.5 20.5t-17.5 29.5q-78 -78 -201 -78q-76 0 -156 31l6 14q73 -30 151 -30q117 0 195 74l-153 388l14 7l147 -381q17 -45 42 -61t74 -16zM178 -129l15 20l20 -17l-16 -20z" />
    <glyph glyph-name="uni068B.fina" unicode="&#x68b;" horiz-adv-x="504" 
d="M275 623q-5 -22 -28 -39t-64 -17h-125l1 10h20q10 19 20 35l-6 150h10l3 -138q51 81 106 81q30 0 46.5 -21t16.5 -61zM88 577h93q68 0 85 43q0 75 -55 75q-62 0 -123 -118zM505 14l8 -7l-9 -7q-33 0 -56 7t-37.5 21.5t-24.5 37.5q-78 -78 -201 -78q-76 0 -156 31l6 14
q73 -30 151 -30q117 0 195 74l-153 388l14 7l147 -381q11 -31 26 -47t35.5 -23t54.5 -7zM178 -129l15 20l20 -17l-16 -20z" />
    <glyph glyph-name="uni068F.fina" unicode="&#x68f;" horiz-adv-x="504" 
d="M234 721l-14 -18l-17 14l15 18zM124 715l-14 -18l-17 14l14 18zM183 625l-15 -18l-16 14l14 18zM505 14l8 -7l-9 -7q-25 0 -44 4t-33 12t-23.5 20.5t-17.5 29.5q-78 -78 -201 -78q-76 0 -156 31l6 14q73 -30 151 -30q117 0 195 74l-153 388l14 7l147 -381q17 -45 42 -61
t74 -16z" />
    <glyph glyph-name="uni0690.fina" unicode="&#x690;" horiz-adv-x="504" 
d="M208 713l-15 -19l-16 14l14 19zM97 707l-14 -18l-17 14l15 18zM190 604l14 18l17 -14l-15 -18zM79 598l15 18l16 -14l-14 -18zM505 14l8 -7l-9 -7q-25 0 -44 4t-33 12t-23.5 20.5t-17.5 29.5q-78 -78 -201 -78q-76 0 -156 31l6 14q73 -30 151 -30q117 0 195 74l-153 388
l14 7l147 -381q17 -45 42 -61t74 -16z" />
    <glyph glyph-name="uni0692.fina" unicode="&#x692;" horiz-adv-x="406" 
d="M260 352h-11l-78 136l9 4l74 -128l74 128l9 -4zM406 14l9 -7l-9 -7q-36 0 -56 8t-34 27q-41 -81 -121 -148.5t-217 -137.5l-7 15q135 66 215 133t122 147q-20 106 -60 212l16 7q27 -80 53 -204q6 -16 16 -25.5t28 -14.5t45 -5z" />
    <glyph glyph-name="uni0693.fina" unicode="&#x693;" horiz-adv-x="406" 
d="M406 14l9 -7l-9 -7q-36 0 -56 8t-34 27q-45 -88 -137 -162q6 1 11 1q30 0 50.5 -20t20.5 -50q0 -29 -19.5 -49.5t-51.5 -20.5q-30 0 -51 21t-21 49q0 16 7 30q-62 -41 -147 -85l-7 15q135 66 215 133t122 147q-20 106 -60 212l16 7q27 -80 53 -204q6 -16 16 -25.5
t28 -14.5t45 -5zM250 -195.5q0 25.5 -17 42t-43 16.5q-17 0 -31 -8t-21.5 -21t-7.5 -30q0 -12 4.5 -22.5t12 -18.5t19 -13t24.5 -5q28 0 44 17t16 42.5z" />
    <glyph glyph-name="uni0694.fina" unicode="&#x694;" horiz-adv-x="406" 
d="M406 14l9 -7l-9 -7q-36 0 -56 8t-34 27q-41 -81 -121 -148.5t-217 -137.5l-7 15q135 66 215 133t122 147q-20 106 -60 212l16 7q27 -80 53 -204q6 -16 16 -25.5t28 -14.5t45 -5zM194 -299l15 20l20 -17l-16 -20z" />
    <glyph glyph-name="uni0695.fina" unicode="&#x695;" horiz-adv-x="406" 
d="M406 14l9 -7l-9 -7q-36 0 -56 8t-34 27q-41 -81 -121 -148.5t-217 -137.5l-7 15q135 66 215 133t122 147q-20 106 -60 212l16 7q27 -80 53 -204q6 -16 16 -25.5t28 -14.5t45 -5zM213 -373l74 128l9 -4l-77 -137h-11l-77 137l8 4z" />
    <glyph glyph-name="uni0696.fina" unicode="&#x696;" horiz-adv-x="406" 
d="M259 432l-15 -20l-20 17l16 20zM406 14l9 -7l-9 -7q-36 0 -56 8t-34 27q-41 -81 -121 -148.5t-217 -137.5l-7 15q135 66 215 133t122 147q-20 106 -60 212l16 7q27 -80 53 -204q6 -16 16 -25.5t28 -14.5t45 -5zM194 -299l15 20l20 -17l-16 -20z" />
    <glyph glyph-name="uni0697.fina" unicode="&#x697;" horiz-adv-x="406" 
d="M299 425l-15 -18l-16 14l14 18zM188 419l-14 -18l-17 14l15 18zM406 14l9 -7l-9 -7q-36 0 -56 8t-34 27q-41 -81 -121 -148.5t-217 -137.5l-7 15q135 66 215 133t122 147q-20 106 -60 212l16 7q27 -80 53 -204q6 -16 16 -25.5t28 -14.5t45 -5z" />
    <glyph glyph-name="uni0699.fina" unicode="&#x699;" horiz-adv-x="406" 
d="M297 504l-14 -18l-17 14l14 18zM187 499l-15 -19l-16 14l14 19zM279 396l14 18l17 -14l-14 -18zM169 390l14 18l17 -14l-15 -18zM406 14l9 -7l-9 -7q-36 0 -56 8t-34 27q-41 -81 -121 -148.5t-217 -137.5l-7 15q135 66 215 133t122 147q-20 106 -60 212l16 7
q27 -80 53 -204q6 -16 16 -25.5t28 -14.5t45 -5z" />
    <glyph glyph-name="uni069A.init" unicode="&#x69a;" horiz-adv-x="727" 
d="M395 452l-15 -20l-20 17l16 20zM582 372q31 -67 47 -133.5t16 -165.5q-8 -30 -46.5 -51.5t-81.5 -21.5q-47 0 -79.5 18.5t-44.5 39.5q-8 -22 -42.5 -40t-77.5 -18q-47 0 -79.5 18.5t-44.5 39.5q-8 -23 -48 -40.5t-102 -17.5l-8 7l9 7q64 0 100 18t42 38l-20 235h14
l19 -235q13 -20 43 -38t76 -18q44 0 75 18.5t37 37.5l-20 235h14l18 -235q13 -20 43.5 -38t76.5 -18q35 0 68 16.5t48 38.5q-1 98 -18 163t-48 135zM394 -129l15 20l19 -17l-15 -20z" />
    <glyph glyph-name="uni069A.medi" unicode="&#x69a;" horiz-adv-x="811" 
d="M378 452l-16 -20l-19 17l16 20zM821 7l-10 -7q-105 0 -171 60q-17 -27 -50.5 -43.5t-72.5 -16.5q-47 0 -79.5 18.5t-44.5 39.5q-5 -14 -22 -27.5t-43 -22t-55 -8.5q-47 0 -79.5 18.5t-44.5 39.5q-8 -23 -48 -40.5t-102 -17.5l-8 7l9 7q64 0 100 18t42 38l-20 235h14
l19 -235q13 -20 43 -38t76 -18q44 0 75 18.5t37 37.5l-20 235h14l18 -235q13 -20 43.5 -38t76.5 -18q36 0 68.5 16t47.5 39q-7 102 -49 299l14 4q40 -187 46 -300q32 -27 68.5 -42.5t99.5 -15.5zM378 -129l15 20l20 -17l-16 -20z" />
    <glyph glyph-name="uni069A.fina" unicode="&#x69a;" horiz-adv-x="1204" 
d="M770 452l-15 -20l-19 17l15 20zM1213 7l-9 -7q-105 0 -171 60q-11 -18 -30 -31.5t-43.5 -21t-50.5 -7.5q-32 0 -59.5 10.5t-42.5 22.5t-22 25q-5 -14 -21.5 -27.5t-43 -22t-54.5 -8.5h-1q-30 0 -54.5 13.5t-38.5 35.5q6 -45 6 -107q-4 -29 -26.5 -60t-58 -57.5t-87.5 -43
t-109 -16.5q-61 0 -106.5 15t-72.5 42.5t-39.5 63.5t-12.5 80q0 88 35 172l10 -3q-33 -84 -33 -168q0 -87 52.5 -137.5t167.5 -50.5q100 0 173 47.5t95 104.5q1 45 -3.5 85.5t-8.5 66.5t-16 59.5t-17 46t-20.5 45t-18.5 39.5l14 6q21 -46 29 -64.5t21 -55.5t20 -70
q7 -35 33.5 -55t66.5 -20q31 0 56.5 9.5t39 22t16.5 24.5l-20 235h14l19 -235q13 -20 43 -38t76 -18q36 0 69 16t47 39q-7 102 -49 299l15 4q39 -187 46 -300q31 -27 67.5 -42.5t99.5 -15.5zM769 -129l16 20l19 -17l-15 -20z" />
    <glyph glyph-name="uni069B.init" unicode="&#x69b;" horiz-adv-x="727" 
d="M582 372q31 -67 47 -133.5t16 -165.5q-8 -30 -46.5 -51.5t-81.5 -21.5q-47 0 -79.5 18.5t-44.5 39.5q-8 -22 -42.5 -40t-77.5 -18q-47 0 -79.5 18.5t-44.5 39.5q-8 -23 -48 -40.5t-102 -17.5l-8 7l9 7q64 0 100 18t42 38l-20 235h14l19 -235q13 -20 43 -38t76 -18
q44 0 75 18.5t37 37.5l-20 235h14l18 -235q13 -20 43.5 -38t76.5 -18q35 0 68 16.5t48 38.5q-1 98 -18 163t-48 135zM454 -142l14 19l17 -14l-15 -19zM343 -147l15 18l16 -14l-14 -18zM402 -238l14 19l17 -14l-14 -19z" />
    <glyph glyph-name="uni069B.medi" unicode="&#x69b;" horiz-adv-x="811" 
d="M821 7l-10 -7q-105 0 -171 60q-17 -27 -50.5 -43.5t-72.5 -16.5q-47 0 -79.5 18.5t-44.5 39.5q-8 -22 -42.5 -40t-77.5 -18q-47 0 -79.5 18.5t-44.5 39.5q-8 -23 -48 -40.5t-102 -17.5l-8 7l9 7q64 0 100 18t42 38l-20 235h14l19 -235q13 -20 43 -38t76 -18q44 0 75 18.5
t37 37.5l-20 235h14l18 -235q13 -20 43.5 -38t76.5 -18q36 0 68.5 16t47.5 39q-7 102 -49 299l14 4q40 -187 46 -300q32 -27 68.5 -42.5t99.5 -15.5zM438 -142l14 19l17 -14l-14 -19zM328 -147l14 18l17 -14l-15 -18zM386 -238l15 19l16 -14l-14 -19z" />
    <glyph glyph-name="uni069B.fina" unicode="&#x69b;" horiz-adv-x="1204" 
d="M1213 7l-9 -7q-105 0 -171 60q-11 -18 -30 -31.5t-43.5 -21t-50.5 -7.5q-32 0 -59.5 10.5t-42.5 22.5t-22 25q-5 -14 -21.5 -27.5t-43 -22t-54.5 -8.5h-1q-30 0 -54.5 13.5t-38.5 35.5q6 -45 6 -107q-4 -29 -26.5 -60t-58 -57.5t-87.5 -43t-109 -16.5q-61 0 -106.5 15
t-72.5 42.5t-39.5 63.5t-12.5 80q0 88 35 172l10 -3q-33 -84 -33 -168q0 -87 52.5 -137.5t167.5 -50.5q100 0 173 47.5t95 104.5q1 45 -3.5 85.5t-8.5 66.5t-16 59.5t-17 46t-20.5 45t-18.5 39.5l14 6q21 -46 29 -64.5t21 -55.5t20 -70q7 -35 33.5 -55t66.5 -20
q31 0 56.5 9.5t39 22t16.5 24.5l-20 235h14l19 -235q13 -20 43 -38t76 -18q36 0 69 16t47 39q-7 102 -49 299l15 4q39 -187 46 -300q31 -27 67.5 -42.5t99.5 -15.5zM830 -142l14 19l17 -14l-15 -19zM719 -147l15 18l16 -14l-14 -18zM778 -238l14 19l17 -14l-14 -19z" />
    <glyph glyph-name="uni069C.init" unicode="&#x69c;" horiz-adv-x="727" 
d="M379 546l-15 -18l-16 14l14 18zM437 456l-14 -19l-17 14l15 19zM327 450l-14 -18l-17 14l14 18zM582 372q31 -67 47 -133.5t16 -165.5q-8 -30 -46.5 -51.5t-81.5 -21.5q-47 0 -79.5 18.5t-44.5 39.5q-8 -22 -42.5 -40t-77.5 -18q-47 0 -79.5 18.5t-44.5 39.5
q-8 -23 -48 -40.5t-102 -17.5l-8 7l9 7q64 0 100 18t42 38l-20 235h14l19 -235q13 -20 43 -38t76 -18q44 0 75 18.5t37 37.5l-20 235h14l18 -235q8 -12 21 -23.5t40 -22t59 -10.5q35 0 68 16.5t48 38.5q-1 99 -18 163.5t-48 134.5zM454 -142l14 19l17 -14l-15 -19zM343 -147
l15 18l16 -14l-14 -18zM402 -238l14 19l17 -14l-14 -19z" />
    <glyph glyph-name="uni069C.medi" unicode="&#x69c;" horiz-adv-x="811" 
d="M362 546l-15 -18l-16 14l14 18zM420 456l-14 -19l-17 14l15 19zM310 450l-14 -18l-17 14l14 18zM821 7l-10 -7q-105 0 -171 60q-17 -27 -50.5 -43.5t-72.5 -16.5q-47 0 -79.5 18.5t-44.5 39.5q-8 -22 -42.5 -40t-77.5 -18q-47 0 -79.5 18.5t-44.5 39.5q-8 -23 -48 -40.5
t-102 -17.5l-8 7l9 7q64 0 100 18t42 38l-20 235h14l19 -235q13 -20 43 -38t76 -18q44 0 75 18.5t37 37.5l-20 235h14l18 -235q13 -20 43.5 -38t76.5 -18q36 0 68.5 16t47.5 39q-7 102 -49 299l14 4q40 -187 46 -300q32 -27 68.5 -42.5t99.5 -15.5zM438 -142l14 19l17 -14
l-14 -19zM328 -147l14 18l17 -14l-15 -18zM386 -238l15 19l16 -14l-14 -19z" />
    <glyph glyph-name="uni069C.fina" unicode="&#x69c;" horiz-adv-x="1204" 
d="M754 546l-14 -18l-17 14l14 18zM813 456l-15 -19l-16 14l14 19zM702 450l-14 -18l-17 14l15 18zM1213 7l-9 -7q-105 0 -171 60q-11 -18 -30 -31.5t-43.5 -21t-50.5 -7.5q-32 0 -59.5 10.5t-42.5 22.5t-22 25q-5 -14 -21.5 -27.5t-43 -22t-54.5 -8.5h-1q-30 0 -54.5 13.5
t-38.5 35.5q6 -45 6 -107q-9 -64 -89.5 -120.5t-191.5 -56.5q-61 0 -106.5 15t-72.5 42.5t-39.5 63.5t-12.5 80q0 88 35 172l10 -3q-33 -84 -33 -168q0 -87 52.5 -137.5t167.5 -50.5q100 0 173 47.5t95 104.5q1 45 -3.5 85.5t-8.5 66.5t-16 59.5t-17 46t-20.5 45t-18.5 39.5
l14 6q21 -46 29 -64.5t21 -55.5t20 -70q7 -35 33.5 -55t66.5 -20q31 0 56.5 9.5t39 22t16.5 24.5l-20 235h14l19 -235q13 -20 43 -38t76 -18q36 0 69 16t47 39q-7 102 -49 299l15 4q39 -187 46 -300q31 -27 67.5 -42.5t99.5 -15.5zM830 -142l14 19l17 -14l-15 -19zM719 -147
l15 18l16 -14l-14 -18zM778 -238l14 19l17 -14l-14 -19z" />
    <glyph glyph-name="uni069D.init" unicode="&#x69d;" horiz-adv-x="892" 
d="M656 366q163 0 154 -255q-31 -56 -117 -83.5t-250 -27.5h-165q-54 0 -90.5 19t-47.5 41q-12 -23 -54 -41.5t-87 -18.5l-8 7l9 7q45 0 84 19t49 38l-18 293h14l17 -290q11 -22 43.5 -40.5t83.5 -19.5q61 151 166.5 251.5t216.5 100.5zM795 98q9 128 -28.5 191t-110.5 63
q-106 0 -207 -95.5t-164 -242.5h158q150 0 229 20.5t123 63.5zM184 -142l14 19l17 -14l-14 -19zM74 -147l14 18l17 -14l-14 -18z" />
    <glyph glyph-name="uni069D.medi" unicode="&#x69d;" horiz-adv-x="927" 
d="M929 14l7 -7l-9 -7q-91 0 -131 90q-18 -22 -46.5 -38.5t-71 -28t-101 -17.5t-134.5 -6h-165q-54 0 -90.5 19t-47.5 41q-12 -23 -54 -41.5t-87 -18.5l-8 7l9 7q45 0 84 19t49 38l-18 293h14l17 -290q11 -22 43.5 -40.5t83.5 -19.5q61 151 166.5 251.5t216.5 100.5
q163 0 154 -255q-2 -4 -5 -8q14 -39 46 -64t78 -25zM443 14q150 0 229 20.5t123 63.5q9 128 -28.5 191t-110.5 63q-106 0 -207 -95.5t-164 -242.5h158zM184 -142l14 19l17 -14l-14 -19zM74 -147l14 18l17 -14l-14 -18z" />
    <glyph glyph-name="uni069D.fina" unicode="&#x69d;" horiz-adv-x="1315" 
d="M1317 14l7 -7l-9 -7q-91 0 -131 90q-37 -45 -120.5 -67.5t-232.5 -22.5h-165q-31 0 -55.5 13.5t-38.5 35.5q6 -45 6 -107q-9 -64 -89.5 -120.5t-191.5 -56.5q-61 0 -106.5 15t-72.5 42.5t-39.5 63.5t-12.5 80q0 88 35 172l10 -3q-33 -84 -33 -168q0 -87 52.5 -137.5
t167.5 -50.5q100 0 173 47.5t95 104.5q1 45 -3.5 85.5t-8.5 66.5t-16 59.5t-17 46t-20.5 45t-18.5 39.5l14 6q21 -46 29 -64.5t21 -55.5t20 -70q7 -34 31.5 -53.5t63.5 -21.5q61 151 166.5 251.5t216.5 100.5q163 0 154 -255q-2 -4 -5 -8q14 -39 46 -64t78 -25zM831 14
q103 0 173 10t110 27.5t69 46.5q9 128 -28.5 191t-110.5 63q-106 0 -207 -95.5t-164 -242.5h158zM350 -365l14 19l17 -14l-14 -19zM240 -370l14 18l17 -14l-14 -18z" />
    <glyph glyph-name="uni069E.init" unicode="&#x69e;" horiz-adv-x="892" 
d="M577 586l-15 -18l-16 14l14 18zM635 496l-14 -18l-17 14l15 18zM525 490l-14 -18l-17 14l14 18zM656 366q163 0 154 -255q-31 -56 -117 -83.5t-250 -27.5h-165q-54 0 -90.5 19t-47.5 41q-12 -23 -54 -41.5t-87 -18.5l-8 7l9 7q45 0 84 19t49 38l-18 293h14l17 -290
q11 -22 43.5 -40.5t83.5 -19.5q61 151 166.5 251.5t216.5 100.5zM795 98q9 128 -28.5 191t-110.5 63q-106 0 -207 -95.5t-164 -242.5h158q150 0 229 20.5t123 63.5z" />
    <glyph glyph-name="uni069E.medi" unicode="&#x69e;" horiz-adv-x="927" 
d="M577 586l-15 -18l-16 14l14 18zM635 496l-14 -18l-17 14l15 18zM525 490l-14 -18l-17 14l14 18zM929 14l7 -7l-9 -7q-91 0 -131 90q-18 -22 -46.5 -38.5t-71 -28t-101 -17.5t-134.5 -6h-165q-54 0 -90.5 19t-47.5 41q-12 -23 -54 -41.5t-87 -18.5l-8 7l9 7q45 0 84 19
t49 38l-18 293h14l17 -290q11 -22 43.5 -40.5t83.5 -19.5q61 151 166.5 251.5t216.5 100.5q163 0 154 -255q-2 -4 -5 -8q14 -39 46 -64t78 -25zM443 14q150 0 229 20.5t123 63.5q9 128 -28.5 191t-110.5 63q-106 0 -207 -95.5t-164 -242.5h158z" />
    <glyph glyph-name="uni069E.fina" unicode="&#x69e;" horiz-adv-x="1315" 
d="M965 586l-15 -18l-16 14l14 18zM1023 496l-14 -18l-17 14l15 18zM913 490l-14 -18l-17 14l14 18zM1317 14l7 -7l-9 -7q-91 0 -131 90q-37 -45 -120.5 -67.5t-232.5 -22.5h-165q-31 0 -55.5 13.5t-38.5 35.5q6 -45 6 -107q-9 -64 -89.5 -120.5t-191.5 -56.5
q-61 0 -106.5 15t-72.5 42.5t-39.5 63.5t-12.5 80q0 88 35 172l10 -3q-33 -84 -33 -168q0 -87 52.5 -137.5t167.5 -50.5q100 0 173 47.5t95 104.5q1 45 -3.5 85.5t-8.5 66.5t-16 59.5t-17 46t-20.5 45t-18.5 39.5l14 6q21 -46 29 -64t21 -55.5t20 -70.5q3 -17 11 -30.5
t20 -23t28 -15t36 -6.5q61 151 166.5 251.5t216.5 100.5q163 0 154 -255q-2 -4 -5 -8q14 -39 46 -64t78 -25zM831 14q103 0 173 10t110 27.5t69 46.5q9 128 -28.5 191t-110.5 63q-106 0 -207 -95.5t-164 -242.5h158z" />
    <glyph glyph-name="uni069F.init" unicode="&#x69f;" horiz-adv-x="769" 
d="M532 366q79 0 119 -61.5t36 -185.5q-31 -61 -116 -90t-251 -29h-320l-9 7l10 7h148q25 60 58 115l-11 602l14 2l9 -585q65 99 147.5 158.5t165.5 59.5zM438 621l-14 -19l-17 14l15 19zM497 530l-14 -18l-17 14l14 18zM387 525l-14 -19l-17 14l14 19zM674 110
q4 122 -33 182t-108 60q-106 0 -207 -95.5t-164 -242.5h158q155 0 234 23t120 73z" />
    <glyph glyph-name="uni069F.medi" unicode="&#x69f;" horiz-adv-x="804" 
d="M805 14l8 -7l-9 -7q-93 0 -133 94q-37 -48 -120 -71t-231 -23h-320l-9 7l10 7h148q25 60 58 115l-11 602l14 2l9 -585q65 99 147.5 158.5t165.5 59.5q79 0 119 -61.5t36 -185.5q-6 -12 -14 -22l8 8q14 -40 46 -65.5t78 -25.5zM438 621l-14 -19l-17 14l15 19zM497 530
l-14 -18l-17 14l14 18zM387 525l-14 -19l-17 14l14 19zM320 14q155 0 234 23t120 73q4 122 -33 182t-108 60q-106 0 -207 -95.5t-164 -242.5h158z" />
    <glyph glyph-name="uni069F.fina" unicode="&#x69f;" horiz-adv-x="833" 
d="M834 14l8 -7l-9 -7q-93 0 -133 94q-37 -48 -120 -71t-231 -23h-287l3 14h113q25 60 58 115l-11 602l14 2l9 -585q65 99 147.5 158.5t165.5 59.5q79 0 119 -61.5t36 -185.5q-6 -12 -14 -22l8 8q14 -40 46 -65.5t78 -25.5zM467 621l-14 -19l-17 14l15 19zM526 530l-14 -18
l-17 14l14 18zM416 525l-14 -19l-17 14l14 19zM349 14q155 0 234 23t120 73q3 82 -13.5 136.5t-48.5 80t-79 25.5q-106 0 -207 -95.5t-164 -242.5h158z" />
    <glyph glyph-name="uni06A0.init" unicode="&#x6a0;" horiz-adv-x="519" 
d="M229 620l-15 -18l-16 14l14 18zM287 529l-14 -18l-17 14l15 18zM177 524l-14 -18l-17 14l14 18zM490 65l1 -14q-131 -31 -213 -41t-214 -10h-64l-9 7l10 7h61q106 0 173 6q-164 89 -164 220q0 66 43.5 109t125.5 43q70 0 131 -34l-5 -14q-60 34 -126 34
q-77 0 -116.5 -38.5t-39.5 -100.5q0 -126 171 -218q86 9 235 44z" />
    <glyph glyph-name="uni06A0.medi" unicode="&#x6a0;" horiz-adv-x="527" 
d="M262 604l-15 -18l-16 14l14 18zM320 514l-14 -18l-17 14l15 18zM210 508l-14 -18l-17 14l14 18zM528 14l8 -7l-9 -7h-17q-120 0 -230 95l-1 1q-66 -43 -137.5 -69.5t-125.5 -26.5h-16l-9 7l10 7h13q53 0 121.5 25t132.5 67q-22 20 -55.5 56t-72 72.5t-89.5 74.5l1 14
q114 49 221 49q64 0 113 -15t63 -36q0 -36 -21.5 -76t-56 -74.5t-80.5 -66.5q52 -44 103.5 -67t117.5 -23h16zM65 314q64 -48 132.5 -118t82.5 -82q70 47 114 102t44 106q-24 16 -68.5 26.5t-96.5 10.5q-103 0 -208 -45z" />
    <glyph glyph-name="uni06A0.fina" unicode="&#x6a0;" horiz-adv-x="548" 
d="M272 609l-15 -18l-16 14l14 18zM330 519l-14 -18l-17 14l15 18zM220 513l-14 -18l-17 14l14 18zM277 110q-47 -30 -81.5 -57t-65 -60t-46 -69.5t-15.5 -76.5q0 -78 58.5 -127t171.5 -49q129 0 230 43l5 -12q-102 -45 -236 -45q-119 0 -180.5 53t-61.5 136q0 80 56 145
t156 128q-15 14 -49 49.5t-71.5 70.5t-83.5 70l2 14q115 49 219 49q44 0 82.5 -7.5t62 -18.5t32.5 -24q0 -26 -8 -48.5t-21 -41t-36.5 -39t-47 -37t-59.5 -38.5q5 -6 12 -11q59 -50 109 -71.5t118 -21.5h20l8 -7l-9 -7h-21q-67 0 -122.5 24t-114.5 75q-6 5 -13 11zM78 314
q43 -32 79 -66t71 -70t52 -52q89 56 129 98t41 98q-18 15 -64.5 26t-100.5 11q-101 0 -207 -45z" />
    <glyph glyph-name="uni06A1.init" unicode="&#x6a1;" horiz-adv-x="453" 
d="M203 527q27 0 52 -12t48.5 -41.5t39.5 -73.5t23.5 -113.5t3.5 -156.5q-26 -47 -127 -88.5t-243 -41.5l-9 7l10 7q130 0 222 33.5t134 80.5q3 62 0 115q-52 -47 -131 -47q-73 0 -124.5 43.5t-51.5 108.5q0 70 48.5 124.5t104.5 54.5zM229 210q75 0 128 44q-9 135 -53 197
t-101 62q-51 0 -95 -50t-44 -114q0 -61 47.5 -100t117.5 -39z" />
    <glyph glyph-name="uni06A1.medi" unicode="&#x6a1;" horiz-adv-x="453" 
d="M454 14l8 -7l-9 -7h-16q-108 0 -203 42q-95 -42 -223 -42h-11l-9 7l10 7h11q119 0 207 35q-67 33 -106.5 81.5t-39.5 107.5q0 67 49.5 126.5t104.5 59.5q60 0 111 -60t51 -130q0 -51 -36 -101t-104 -84q88 -35 188 -35h17zM86 236q0 -57 40.5 -103.5t108.5 -77.5
q68 31 104 78t36 99q0 42 -21 84t-56 68t-71 26q-50 0 -95.5 -55.5t-45.5 -118.5z" />
    <glyph glyph-name="uni06A1.fina" unicode="&#x6a1;" horiz-adv-x="926" 
d="M928 14l7 -7l-9 -7h-15q-114 0 -212 46q-136 -58 -358 -58h-11q-264 0 -264 170q0 72 35 145l10 -3q-32 -71 -32 -141q0 -157 253 -157h10q211 0 342 51q-63 33 -100 80.5t-37 104.5q0 67 49.5 126.5t103.5 59.5q60 0 111 -60t51 -130q0 -51 -36.5 -99t-110.5 -82
q90 -39 196 -39h17zM560 236q0 -37 18 -71t49 -60t73 -46q75 32 112 77.5t37 95.5q0 65 -46.5 121.5t-101.5 56.5q-50 0 -95.5 -55.5t-45.5 -118.5z" />
    <glyph glyph-name="uni06A2.init" unicode="&#x6a2;" horiz-adv-x="453" 
d="M203 527q27 0 52 -12t48.5 -41.5t39.5 -73.5t23.5 -113.5t3.5 -156.5q-26 -47 -127 -88.5t-243 -41.5l-9 7l10 7q130 0 222 33.5t134 80.5q3 62 0 115q-52 -47 -131 -47q-73 0 -124.5 43.5t-51.5 108.5q0 70 48.5 124.5t104.5 54.5zM229 210q75 0 128 44q-9 135 -53 197
t-101 62q-51 0 -95 -50t-44 -114q0 -61 47.5 -100t117.5 -39zM177 -129l16 20l19 -17l-15 -20z" />
    <glyph glyph-name="uni06A2.medi" unicode="&#x6a2;" horiz-adv-x="453" 
d="M454 14l8 -7l-9 -7h-16q-108 0 -203 42q-95 -42 -223 -42h-11l-9 7l10 7h11q119 0 207 35q-67 33 -106.5 81.5t-39.5 107.5q0 67 49.5 126.5t104.5 59.5q60 0 111 -60t51 -130q0 -51 -36 -101t-104 -84q88 -35 188 -35h17zM86 236q0 -57 40.5 -103.5t108.5 -77.5
q68 31 104 78t36 99q0 42 -21 84t-56 68t-71 26q-50 0 -95.5 -55.5t-45.5 -118.5zM212 -129l15 20l20 -17l-16 -20z" />
    <glyph glyph-name="uni06A2.fina" unicode="&#x6a2;" horiz-adv-x="926" 
d="M928 14l7 -7l-9 -7h-15q-114 0 -212 46q-136 -58 -358 -58h-11q-264 0 -264 170q0 72 35 145l10 -3q-32 -71 -32 -141q0 -157 253 -157h10q211 0 342 51q-63 33 -100 80.5t-37 104.5q0 67 49.5 126.5t103.5 59.5q60 0 111 -60t51 -130q0 -51 -36.5 -99t-110.5 -82
q90 -39 196 -39h17zM560 236q0 -37 18 -71t49 -60t73 -46q75 32 112 77.5t37 95.5q0 65 -46.5 121.5t-101.5 56.5q-50 0 -95.5 -55.5t-45.5 -118.5zM682 -129l15 20l19 -17l-15 -20z" />
    <glyph glyph-name="uni06A3.init" unicode="&#x6a3;" horiz-adv-x="453" 
d="M214 665l-15 -20l-20 17l16 20zM203 527q27 0 52 -12t48.5 -41.5t39.5 -73.5t23.5 -113.5t3.5 -156.5q-26 -47 -127 -88.5t-243 -41.5l-9 7l10 7q130 0 222 33.5t134 80.5q3 62 0 115q-52 -47 -131 -47q-47 0 -87.5 19.5t-64.5 54.5t-24 78q0 70 48.5 124.5t104.5 54.5z
M229 210q75 0 128 44q-9 135 -53 197t-101 62q-51 0 -95 -50t-44 -114q0 -61 47.5 -100t117.5 -39zM189 -129l15 20l19 -17l-15 -20z" />
    <glyph glyph-name="uni06A3.medi" unicode="&#x6a3;" horiz-adv-x="453" 
d="M231 571l-15 -20l-19 17l15 20zM454 14l8 -7l-9 -7h-16q-108 0 -203 42q-95 -42 -223 -42h-11l-9 7l10 7h11q119 0 207 35q-67 33 -106.5 81.5t-39.5 107.5q0 67 49.5 126.5t104.5 59.5q60 0 111 -60t51 -130q0 -51 -36 -101t-104 -84q88 -35 188 -35h17zM86 236
q0 -57 40.5 -103.5t108.5 -77.5q68 31 104 78t36 99q0 42 -21 84t-56 68t-71 26q-50 0 -95.5 -55.5t-45.5 -118.5zM223 -129l15 20l19 -17l-15 -20z" />
    <glyph glyph-name="uni06A3.fina" unicode="&#x6a3;" horiz-adv-x="926" 
d="M705 573l-16 -20l-19 17l16 20zM928 14l7 -7l-9 -7h-15q-114 0 -212 46q-136 -58 -358 -58h-11q-264 0 -264 170q0 72 35 145l10 -3q-32 -71 -32 -141q0 -157 253 -157h10q211 0 342 51q-63 33 -100 80.5t-37 104.5q0 44 23 87.5t59 71t71 27.5q60 0 111 -60t51 -130
q0 -51 -36.5 -99t-110.5 -82q90 -39 196 -39h17zM560 236q0 -23 6.5 -44t19 -40t29.5 -36t38.5 -31t46.5 -26q38 17 67 37t46.5 42.5t26.5 46t9 47.5q0 65 -46.5 121.5t-101.5 56.5q-32 0 -65 -25.5t-54.5 -66.5t-21.5 -82zM697 -129l16 20l19 -17l-15 -20z" />
    <glyph glyph-name="uni06A5.init" unicode="&#x6a5;" horiz-adv-x="453" 
d="M203 527q27 0 52 -12t48.5 -41.5t39.5 -73.5t23.5 -113.5t3.5 -156.5q-26 -47 -127 -88.5t-243 -41.5l-9 7l10 7q130 0 222 33.5t134 80.5q3 62 0 115q-52 -47 -131 -47q-73 0 -124.5 43.5t-51.5 108.5q0 70 48.5 124.5t104.5 54.5zM229 210q75 0 128 44q-9 135 -53 197
t-101 62q-51 0 -95 -50t-44 -114q0 -61 47.5 -100t117.5 -39zM238 -142l14 19l17 -14l-15 -19zM127 -147l15 18l16 -14l-14 -18zM186 -238l14 19l17 -14l-14 -19z" />
    <glyph glyph-name="uni06A5.medi" unicode="&#x6a5;" horiz-adv-x="453" 
d="M454 14l8 -7l-9 -7h-16q-108 0 -203 42q-95 -42 -223 -42h-11l-9 7l10 7h11q119 0 207 35q-67 33 -106.5 81.5t-39.5 107.5q0 67 49.5 126.5t104.5 59.5q60 0 111 -60t51 -130q0 -51 -36 -101t-104 -84q88 -35 188 -35h17zM86 236q0 -57 40.5 -103.5t108.5 -77.5
q68 31 104 78t36 99q0 42 -21 84t-56 68t-71 26q-50 0 -95.5 -55.5t-45.5 -118.5zM272 -142l14 19l17 -14l-14 -19zM162 -147l14 18l17 -14l-15 -18zM220 -238l15 19l16 -14l-14 -19z" />
    <glyph glyph-name="uni06A5.fina" unicode="&#x6a5;" horiz-adv-x="926" 
d="M928 14l7 -7l-9 -7h-15q-114 0 -212 46q-136 -58 -358 -58h-11q-264 0 -264 170q0 72 35 145l10 -3q-32 -71 -32 -141q0 -157 253 -157h10q211 0 342 51q-63 33 -100 80.5t-37 104.5q0 67 49.5 126.5t103.5 59.5q60 0 111 -60t51 -130q0 -51 -36.5 -99t-110.5 -82
q90 -39 196 -39h17zM560 236q0 -37 18 -71t49 -60t73 -46q75 32 112 77.5t37 95.5q0 65 -46.5 121.5t-101.5 56.5q-50 0 -95.5 -55.5t-45.5 -118.5zM742 -142l14 19l17 -14l-15 -19zM631 -147l15 18l16 -14l-14 -18zM690 -238l14 19l17 -14l-14 -19z" />
    <glyph glyph-name="uni06A7.init" unicode="&#x6a7;" horiz-adv-x="453" 
d="M214 665l-15 -20l-20 17l16 20zM203 527q27 0 52 -12t48.5 -41.5t39.5 -73.5t23.5 -113.5t3.5 -156.5q-26 -47 -127 -88.5t-243 -41.5l-9 7l10 7q130 0 222 33.5t134 80.5q3 62 0 115q-52 -47 -131 -47q-47 0 -87.5 19.5t-64.5 54.5t-24 78q0 70 48.5 124.5t104.5 54.5z
M229 210q75 0 128 44q-9 135 -53 197t-101 62q-51 0 -95 -50t-44 -114q0 -61 47.5 -100t117.5 -39z" />
    <glyph glyph-name="uni06A7.medi" unicode="&#x6a7;" horiz-adv-x="453" 
d="M231 571l-15 -20l-19 17l15 20zM454 14l8 -7l-9 -7h-16q-108 0 -203 42q-95 -42 -223 -42h-11l-9 7l10 7h11q119 0 207 35q-67 33 -106.5 81.5t-39.5 107.5q0 67 49.5 126.5t104.5 59.5q60 0 111 -60t51 -130q0 -51 -36 -101t-104 -84q88 -35 188 -35h17zM86 236
q0 -57 40.5 -103.5t108.5 -77.5q68 31 104 78t36 99q0 42 -21 84t-56 68t-71 26q-50 0 -95.5 -55.5t-45.5 -118.5z" />
    <glyph glyph-name="uni06A7.fina" unicode="&#x6a7;" horiz-adv-x="749" 
d="M476 468l-15 -20l-20 17l16 20zM758 7l-9 -7h-111q1 -33 -1 -69q-22 -70 -103.5 -118t-182.5 -48q-152 0 -218.5 52.5t-66.5 153.5q0 84 36 170l10 -4q-34 -85 -34 -165q0 -62 25.5 -104t87.5 -65.5t161 -23.5q92 0 166 39t106 106q2 40 2 76h-103q-93 0 -148.5 42.5
t-55.5 112t48.5 123.5t103.5 54q25 0 47.5 -8.5t44 -31t37.5 -57t26.5 -91.5t11.5 -130h112zM619 14h7q-2 70 -11.5 124t-24 87.5t-35 55t-41 29.5t-43.5 8q-51 0 -95 -49.5t-44 -112.5q0 -65 52 -103.5t142 -38.5h93z" />
    <glyph glyph-name="uni06A8.init" unicode="&#x6a8;" horiz-adv-x="453" 
d="M198 759l-15 -18l-16 14l14 18zM256 669l-14 -19l-17 14l15 19zM146 663l-14 -18l-17 14l14 18zM203 527q27 0 52 -12t48.5 -41.5t39.5 -73.5t23.5 -113.5t3.5 -156.5q-26 -47 -127 -88.5t-243 -41.5l-9 7l10 7q130 0 222 33.5t134 80.5q3 62 0 115q-52 -47 -131 -47
q-73 0 -124.5 43.5t-51.5 108.5q0 70 48.5 124.5t104.5 54.5zM229 210q75 0 128 44q-9 135 -53 197t-101 62q-51 0 -95 -50t-44 -114q0 -61 47.5 -100t117.5 -39z" />
    <glyph glyph-name="uni06A8.medi" unicode="&#x6a8;" horiz-adv-x="453" 
d="M215 665l-14 -18l-17 14l14 18zM274 575l-15 -19l-16 14l14 19zM163 569l-14 -18l-17 14l15 18zM454 14l8 -7l-9 -7h-16q-108 0 -203 42q-95 -42 -223 -42h-11l-9 7l10 7h11q119 0 207 35q-67 33 -106.5 81.5t-39.5 107.5q0 67 49.5 126.5t104.5 59.5q60 0 111 -60
t51 -130q0 -51 -36 -101t-104 -84q88 -35 188 -35h17zM86 236q0 -57 40.5 -103.5t108.5 -77.5q68 31 104 78t36 99q0 42 -21 84t-56 68t-71 26q-32 0 -65 -25.5t-54.5 -66.5t-21.5 -82z" />
    <glyph glyph-name="uni06A8.fina" unicode="&#x6a8;" horiz-adv-x="749" 
d="M460 562l-14 -18l-17 14l14 18zM519 472l-15 -18l-16 14l14 18zM408 466l-14 -18l-17 14l15 18zM758 7l-9 -7h-111q1 -33 -1 -69q-22 -70 -103.5 -118t-182.5 -48q-152 0 -218.5 52.5t-66.5 153.5q0 84 36 170l10 -4q-34 -85 -34 -165q0 -62 25.5 -104t87.5 -65.5
t161 -23.5q92 0 166 39t106 106q2 40 2 76h-103q-93 0 -148.5 42.5t-55.5 112t48.5 123.5t103.5 54q25 0 47.5 -8.5t44 -31t37.5 -57t26.5 -91.5t11.5 -130h112zM619 14h7q-2 70 -11.5 124t-24 87.5t-35 55t-41 29.5t-43.5 8q-51 0 -95 -49.5t-44 -112.5q0 -65 52 -103.5
t142 -38.5h93z" />
    <glyph glyph-name="uni06AA.init" unicode="&#x6aa;" horiz-adv-x="1170" 
d="M802 301q287 2 287 -171q-16 -47 -98 -75q-160 -55 -551 -55h-440l-9 7l10 7h436q120 0 218 5t160.5 12t112 19t74 20.5t43.5 22.5t22.5 19t10.5 16q-1 78 -65.5 120t-210.5 41q-102 -1 -252.5 -11.5t-228.5 -10.5q-139 0 -211 12l1 12q24 97 101.5 178t187.5 107l-2 -14
q-102 -26 -176.5 -102.5t-97.5 -168.5q84 -12 199 -12q78 0 228 11t251 11z" />
    <glyph glyph-name="uni06AA.medi" unicode="&#x6aa;" horiz-adv-x="1191" 
d="M1193 14l8 -7l-10 -7q-108 0 -176 64v1q-11 -5 -24 -10q-160 -55 -551 -55h-440l-9 7l10 7h436q120 0 218 5t160.5 12t112 19t74 20.5t43.5 22.5t22.5 19t10.5 16q-1 78 -65.5 120t-210.5 41q-102 -1 -252.5 -11.5t-228.5 -10.5q-139 0 -211 12l1 12q24 97 101.5 178
t187.5 107l-2 -14q-102 -26 -176.5 -102.5t-97.5 -168.5q84 -12 199 -12q78 0 228 11t251 11q287 2 287 -171q-12 -35 -62 -60q15 -12 28 -20.5t32.5 -17.5t46 -13.5t59.5 -4.5z" />
    <glyph glyph-name="uni06AA.fina" unicode="&#x6aa;" horiz-adv-x="1254" 
d="M1255 14l8 -7l-9 -7q-108 0 -176 64v1q-11 -5 -24 -10q-163 -55 -551 -55h-449l-5 14h451q119 0 217 5t161 12t112.5 19t73.5 20.5t43.5 22.5t23 19t10.5 16q-1 78 -66 120t-210 41q-103 -1 -253 -11.5t-228 -10.5q-139 0 -211 12l1 12q24 97 101.5 178t187.5 107l-2 -14
q-103 -26 -177.5 -102.5t-96.5 -168.5q84 -12 198 -12q45 0 92.5 2.5t91 5.5t88 6t99.5 5.5t109 2.5q287 2 287 -171q-13 -35 -62 -60q15 -12 28 -20.5t32.5 -17.5t46 -13.5t58.5 -4.5z" />
    <glyph glyph-name="uni06AB.init" unicode="&#x6ab;" horiz-adv-x="455" 
d="M20 461q283 -177 306 -365q-42 -41 -124.5 -68.5t-201.5 -27.5l-9 7l10 7q207 0 312 85q-24 180 -307 356l3 13l380 272l-2 -15zM339 650q19 0 35.5 -9.5t26 -25.5t9.5 -35q0 -29 -20 -49.5t-51 -20.5q-20 0 -37 9.5t-26 25.5t-9 35q0 29 21 49.5t51 20.5zM339 521
q27 0 43.5 17t16.5 42t-17 41.5t-43 16.5t-43.5 -16.5t-17.5 -41.5t17 -42t44 -17z" />
    <glyph glyph-name="uni06AB.medi" unicode="&#x6ab;" horiz-adv-x="529" 
d="M530 14l8 -7l-9 -7q-30 0 -53 6t-42 15.5t-44 34.5t-45 49t-59 73q-39 -91 -106.5 -134.5t-179.5 -43.5l-9 7l10 7q108 0 173 42.5t103 131.5l-212 267l2 13l380 272l-1 -16l-104 -75q4 1 8 1q19 0 35.5 -9.5t26 -25.5t9.5 -35q0 -29 -20 -49.5t-51 -20.5t-51.5 20.5
t-20.5 49.5q0 15 6 28l-207 -148l186 -234q42 -52 62.5 -77t47 -54.5t41 -40.5t35.5 -23t39 -14.5t42 -2.5zM410 580q0 25 -17 41.5t-43 16.5t-43.5 -16.5t-17.5 -41.5q0 -16 7.5 -29.5t21.5 -21.5t32 -8q27 0 43.5 17t16.5 42z" />
    <glyph glyph-name="uni06AB.fina" unicode="&#x6ab;" horiz-adv-x="962" 
d="M963 14l8 -7l-9 -7q-30 0 -53.5 6t-42 15.5t-43.5 34.5t-45.5 49t-59.5 73q-20 -48 -46.5 -80.5t-70.5 -58.5t-111 -38.5t-160 -12.5q-264 0 -264 170q0 72 35 145l10 -3q-32 -71 -32 -141q0 -157 253 -157q90 0 155.5 12t108 37.5t68.5 57.5t46 79l-213 267l3 13
l380 272l-2 -16l-104 -74h6q20 0 36.5 -9.5t25.5 -25.5t9 -35q0 -29 -19.5 -49.5t-51.5 -20.5q-20 0 -36.5 9.5t-26 25.5t-9.5 35q0 14 6 26l-204 -146l186 -234q41 -52 61.5 -77t47.5 -54.5t41.5 -40.5t35 -23t38.5 -14.5t43 -2.5zM840 580q0 25 -17 41.5t-43 16.5
t-43 -16.5t-17 -41.5q0 -16 7.5 -29.5t21.5 -21.5t31 -8q28 0 44 17t16 42z" />
    <glyph glyph-name="uni06AC.init" unicode="&#x6ac;" horiz-adv-x="455" 
d="M38 739l-15 -20l-20 17l16 20zM389 740l-2 -15l-367 -264q283 -177 306 -365q-42 -41 -124.5 -68.5t-201.5 -27.5l-9 7l10 7q207 0 312 85q-24 180 -307 356l3 13z" />
    <glyph glyph-name="uni06AC.medi" unicode="&#x6ac;" horiz-adv-x="529" 
d="M92 739l-15 -20l-20 17l16 20zM530 14l8 -7l-9 -7q-30 0 -53 6t-42 15.5t-44 34.5t-45 49t-59 73q-39 -91 -106.5 -134.5t-179.5 -43.5l-9 7l10 7q108 0 173 42.5t103 131.5l-212 267l2 13l380 272l-1 -16l-369 -264l186 -234q42 -52 62.5 -77t47 -54.5t41 -40.5
t35.5 -23t39 -14.5t42 -2.5z" />
    <glyph glyph-name="uni06AC.fina" unicode="&#x6ac;" horiz-adv-x="818" 
d="M699 876l-15 -20l-20 17l16 20zM819 14l8 -7l-9 -7q-30 0 -54.5 10.5t-39 27t-22 29.5t-10.5 25q-128 -104 -362 -104q-264 0 -264 170q0 72 35 145l10 -3q-32 -71 -32 -141q0 -157 253 -157q230 0 357 104l-2 625l14 2v-618q0 -10 6 -25.5t18 -33.5t37 -30t57 -12z
M307 286l-2 11q116 0 169 42q0 11 -12 24.5t-30.5 27t-43 26.5t-48.5 22l3 12l148 85v-12l-138 -78q52 -23 91 -52t39 -53q-13 -24 -58.5 -39.5t-117.5 -15.5z" />
    <glyph glyph-name="uni06AE.init" unicode="&#x6ae;" horiz-adv-x="455" 
d="M389 740l-2 -15l-367 -264q283 -177 306 -365q-42 -41 -124.5 -68.5t-201.5 -27.5l-9 7l10 7q207 0 312 85q-24 180 -307 356l3 13zM175 -142l14 19l17 -14l-14 -19zM65 -147l14 18l17 -14l-14 -18zM124 -238l14 19l17 -14l-15 -19z" />
    <glyph glyph-name="uni06AE.medi" unicode="&#x6ae;" horiz-adv-x="529" 
d="M530 14l8 -7l-9 -7q-30 0 -53 6t-42 15.5t-44 34.5t-45 49t-59 73q-39 -91 -106.5 -134.5t-179.5 -43.5l-9 7l10 7q108 0 173 42.5t103 131.5l-212 267l2 13l380 272l-1 -16l-369 -264l186 -234q42 -52 62.5 -77t47 -54.5t41 -40.5t35.5 -23t39 -14.5t42 -2.5zM309 -142
l14 19l17 -14l-14 -19zM199 -147l14 18l17 -14l-14 -18zM258 -238l14 19l17 -14l-15 -19z" />
    <glyph glyph-name="uni06AE.fina" unicode="&#x6ae;" horiz-adv-x="818" 
d="M819 14l8 -7l-9 -7q-30 0 -54.5 10.5t-39 27t-22 29.5t-10.5 25q-128 -104 -362 -104q-264 0 -264 170q0 72 35 145l10 -3q-32 -71 -32 -141q0 -157 253 -157q230 0 357 104l-2 625l14 2v-618q0 -10 6 -25.5t18 -33.5t37 -30t57 -12zM307 286l-2 11q116 0 169 42
q0 11 -12 24.5t-30.5 27t-43 26.5t-48.5 22l3 12l148 85v-12l-138 -78q52 -23 91 -52t39 -53q-13 -24 -58.5 -39.5t-117.5 -15.5zM426 -142l15 19l16 -14l-14 -19zM316 -147l14 18l17 -14l-14 -18zM375 -238l14 19l17 -14l-15 -19z" />
    <glyph glyph-name="uni06B0.init" unicode="&#x6b0;" horiz-adv-x="455" 
d="M389 859l-1 -12l-376 -273l3 13zM20 461q283 -177 306 -365q-42 -41 -124.5 -68.5t-201.5 -27.5l-9 7l10 7q207 0 312 85q-24 180 -307 356l3 13l380 272l-2 -15zM343 654q30 0 50.5 -20t20.5 -50q0 -29 -20 -49.5t-51 -20.5t-51.5 21t-20.5 49q0 29 21 49.5t51 20.5z
M343 525q27 0 43.5 17t16.5 42t-17 42t-43 17t-43 -17t-17 -42t16.5 -42t43.5 -17z" />
    <glyph glyph-name="uni06B0.medi" unicode="&#x6b0;" horiz-adv-x="529" 
d="M452 859l-1 -12l-376 -273l3 13zM530 14l8 -7l-9 -7q-25 0 -44 3t-38.5 13t-34 20t-37 34.5t-40 45.5t-49.5 62q-39 -91 -106.5 -134.5t-179.5 -43.5l-9 7l10 7q108 0 173 42.5t103 131.5l-212 267l2 13l380 272l-1 -16l-98 -70h6q30 0 50.5 -20t20.5 -50
q0 -29 -20 -49.5t-51 -20.5t-51.5 21t-20.5 49q0 14 5 27l-210 -151l186 -234q42 -52 62.5 -77t47 -54.5t41 -40.5t35.5 -23t39 -14.5t42 -2.5zM414 584q0 25 -17 42t-43 17t-43 -17t-17 -42t16.5 -42t43.5 -17t43.5 17t16.5 42z" />
    <glyph glyph-name="uni06B0.fina" unicode="&#x6b0;" horiz-adv-x="962" 
d="M880 859l-1 -12l-375 -273l2 13zM963 14l8 -7l-9 -7q-30 0 -53.5 6t-42 15.5t-43.5 34.5t-45.5 49t-59.5 73q-20 -48 -46.5 -80.5t-70.5 -58.5t-111 -38.5t-160 -12.5q-264 0 -264 170q0 72 35 145l10 -3q-32 -71 -32 -141q0 -157 253 -157q90 0 155.5 12t108 37.5
t68.5 57.5t46 79l-213 267l3 13l225 161q8 8 18 13l137 98l-2 -16l-103 -74h1q20 0 36.5 -9.5t25.5 -25.5t9 -35q0 -29 -19.5 -49.5t-51.5 -20.5q-20 0 -36.5 9.5t-26 25.5t-9.5 35q0 11 4 22l-198 -142l186 -234q41 -52 61.5 -77t47.5 -54.5t41.5 -40.5t35 -23t38.5 -14.5
t43 -2.5zM776 638q-12 0 -23 -4l-24 -17q-13 -16 -13 -37q0 -25 17 -42t43 -17q28 0 44 17t16 42q0 16 -7.5 29.5t-21.5 21t-31 7.5z" />
    <glyph glyph-name="uni06B2.init" unicode="&#x6b2;" horiz-adv-x="455" 
d="M389 859l-1 -12l-376 -273l3 13zM6 455l3 13l380 272l-2 -15l-367 -264q283 -177 306 -365q-42 -41 -124.5 -68.5t-201.5 -27.5l-9 7l10 7q207 0 312 85q-24 180 -307 356zM175 -142l14 19l17 -14l-14 -19zM65 -147l14 18l17 -14l-14 -18z" />
    <glyph glyph-name="uni06B2.medi" unicode="&#x6b2;" horiz-adv-x="529" 
d="M452 859l-1 -12l-376 -273l3 13zM530 14l8 -7l-9 -7q-30 0 -53 6t-42 15.5t-44 34.5t-45 49t-59 73q-39 -91 -106.5 -134.5t-179.5 -43.5l-9 7l10 7q108 0 173 42.5t103 131.5l-212 267l2 13l380 272l-1 -16l-369 -264l186 -234q42 -52 62.5 -77t47 -54.5t41 -40.5
t35.5 -23t39 -14.5t42 -2.5zM309 -142l14 19l17 -14l-14 -19zM199 -147l14 18l17 -14l-14 -18z" />
    <glyph glyph-name="uni06B2.fina" unicode="&#x6b2;" horiz-adv-x="962" 
d="M880 859l-1 -12l-375 -273l2 13zM963 14l8 -7l-9 -7q-30 0 -53.5 6t-42 15.5t-43.5 34.5t-45.5 49t-59.5 73q-20 -48 -46.5 -80.5t-70.5 -58.5t-111 -38.5t-160 -12.5q-264 0 -264 170q0 72 35 145l10 -3q-32 -71 -32 -141q0 -157 253 -157q90 0 155.5 12t108 37.5
t68.5 57.5t46 79l-213 267l3 13l380 272l-2 -16l-368 -264l186 -234q41 -52 61.5 -77t47.5 -54.5t41.5 -40.5t35 -23t38.5 -14.5t43 -2.5zM413 -142l14 19l17 -14l-15 -19zM302 -147l15 18l16 -14l-14 -18z" />
    <glyph glyph-name="uni06B4.init" unicode="&#x6b4;" horiz-adv-x="455" 
d="M119 916l-14 -18l-17 14l14 18zM389 859l-1 -12l-376 -273l3 13zM178 826l-14 -18l-17 14l14 18zM68 820l-15 -18l-16 14l14 18zM6 455l3 13l380 272l-2 -15l-367 -264q283 -177 306 -365q-42 -41 -124.5 -68.5t-201.5 -27.5l-9 7l10 7q207 0 312 85q-24 180 -307 356z
" />
    <glyph glyph-name="uni06B4.medi" unicode="&#x6b4;" horiz-adv-x="529" 
d="M101 916l-14 -18l-17 14l14 18zM75 574l3 13l374 272l-1 -12zM160 826l-15 -18l-16 14l14 18zM49 820l-14 -18l-17 14l15 18zM530 14l8 -7l-9 -7q-30 0 -53 6t-42 15.5t-44 34.5t-45 49t-59 73q-39 -91 -106.5 -134.5t-179.5 -43.5l-9 7l10 7q108 0 173 42.5t103 131.5
l-212 267l2 13l380 272l-1 -16l-369 -264l186 -234q42 -52 62.5 -77t47 -54.5t41 -40.5t35.5 -23t39 -14.5t42 -2.5z" />
    <glyph glyph-name="uni06B4.fina" unicode="&#x6b4;" horiz-adv-x="962" 
d="M567 916l-15 -18l-16 14l14 18zM504 574l2 13l374 272l-1 -12zM625 826l-14 -18l-17 14l15 18zM515 820l-14 -18l-17 14l14 18zM963 14l8 -7l-9 -7q-30 0 -53.5 6t-42 15.5t-43.5 34.5t-45.5 49t-59.5 73q-20 -48 -46.5 -80.5t-70.5 -58.5t-111 -38.5t-160 -12.5
q-264 0 -264 170q0 72 35 145l10 -3q-32 -71 -32 -141q0 -157 253 -157q90 0 155.5 12t108 37.5t68.5 57.5t46 79l-213 267l3 13l380 272l-2 -16l-368 -264l186 -234q41 -52 61.5 -77t47.5 -54.5t41.5 -40.5t35 -23t38.5 -14.5t43 -2.5z" />
    <glyph glyph-name="uni06B5.init" unicode="&#x6b5;" horiz-adv-x="215" 
d="M29 935l74 -128l74 128l9 -4l-78 -136h-10l-78 136zM0 0l-9 7l10 7q35 0 63 15.5t42 43.5l-11 658l14 2l10 -661q-13 -32 -45 -52t-74 -20z" />
    <glyph glyph-name="uni06B5.medi" unicode="&#x6b5;" horiz-adv-x="233" 
d="M122 796h-11l-77 136l9 4l74 -128l74 128l9 -4zM234 14l9 -7l-10 -7q-45 0 -75.5 18t-40.5 49q-12 -30 -42 -48.5t-75 -18.5l-9 7l10 7q79 0 109 63l-1 655l14 1v-639q4 -37 33 -58.5t78 -21.5z" />
    <glyph glyph-name="uni06B5.fina" unicode="&#x6b5;" horiz-adv-x="699" 
d="M548 795h-10l-78 136l9 4l74 -128l74 128l9 -4zM708 7l-9 -7q-84 0 -140 56l1 -30q-13 -99 -79 -151t-184 -52q-61 0 -106.5 15t-72.5 42.5t-39.5 63t-12.5 80.5q0 88 35 172l10 -4q-33 -83 -33 -168q0 -86 52.5 -136.5t167.5 -50.5q225 0 249 192l-11 702l14 2l9 -659
q58 -60 141 -60z" />
    <glyph glyph-name="uni06B6.init" unicode="&#x6b6;" horiz-adv-x="215" 
d="M92 855l-19 17l15 20l20 -17zM0 0l-9 7l10 7q35 0 63 15.5t42 43.5l-11 658l14 2l10 -661q-13 -32 -45 -52t-74 -20z" />
    <glyph glyph-name="uni06B6.medi" unicode="&#x6b6;" horiz-adv-x="233" 
d="M122 876l-16 -19l-19 17l15 19zM234 14l9 -7l-10 -7q-45 0 -75.5 18t-40.5 49q-12 -30 -42 -48.5t-75 -18.5l-9 7l10 7q79 0 109 63l-1 655l14 1v-639q4 -37 33 -58.5t78 -21.5z" />
    <glyph glyph-name="uni06B6.fina" unicode="&#x6b6;" horiz-adv-x="699" 
d="M548 875l-16 -20l-19 17l16 20zM708 7l-9 -7q-84 0 -140 56l1 -30q-13 -99 -79 -151t-184 -52q-61 0 -106.5 15t-72.5 42.5t-39.5 63t-12.5 80.5q0 88 35 172l10 -4q-33 -83 -33 -168q0 -86 52.5 -136.5t167.5 -50.5q225 0 249 192l-11 702l14 2l9 -659q58 -60 141 -60z
" />
    <glyph glyph-name="uni06B7.init" unicode="&#x6b7;" horiz-adv-x="215" 
d="M75 983l16 -14l-14 -18l-17 14zM133 893l17 -14l-14 -18l-17 14zM23 887l17 -14l-15 -18l-16 14zM0 0l-9 7l10 7q35 0 63 15.5t42 43.5l-11 658l14 2l10 -661q-13 -32 -45 -52t-74 -20z" />
    <glyph glyph-name="uni06B7.medi" unicode="&#x6b7;" horiz-adv-x="233" 
d="M105 971l-14 -19l-17 14l14 19zM164 880l-14 -18l-17 14l14 18zM54 875l-15 -19l-16 14l14 19zM234 14l9 -7l-10 -7q-45 0 -75.5 18t-40.5 49q-12 -30 -42 -48.5t-75 -18.5l-9 7l10 7q79 0 109 63l-1 655l14 1v-639q4 -37 33 -58.5t78 -21.5z" />
    <glyph glyph-name="uni06B7.fina" unicode="&#x6b7;" horiz-adv-x="699" 
d="M531 969l-14 -18l-17 14l15 18zM590 879l-14 -18l-17 14l14 18zM480 873l-14 -18l-17 14l14 18zM708 7l-9 -7q-84 0 -140 56l1 -30q-13 -99 -79 -151t-184 -52q-61 0 -106.5 15t-72.5 42.5t-39.5 63t-12.5 80.5q0 88 35 172l10 -4q-33 -83 -33 -168q0 -86 52.5 -136.5
t167.5 -50.5q225 0 249 192l-11 702l14 2l9 -659q58 -60 141 -60z" />
    <glyph glyph-name="uni06B8.init" unicode="&#x6b8;" horiz-adv-x="215" 
d="M0 0l-9 7l10 7q35 0 63 15.5t42 43.5l-11 658l14 2l10 -661q-13 -32 -45 -52t-74 -20zM170 -156l-17 14l14 19l17 -14zM59 -161l-16 14l14 18l17 -14zM118 -252l-17 14l15 19l16 -14z" />
    <glyph glyph-name="uni06B8.medi" unicode="&#x6b8;" horiz-adv-x="233" 
d="M234 14l9 -7l-10 -7q-45 0 -75.5 18t-40.5 49q-12 -30 -42 -48.5t-75 -18.5l-9 7l10 7q79 0 109 63l-1 655l14 1v-639q4 -37 33 -58.5t78 -21.5zM157 -142l14 19l17 -14l-14 -19zM47 -147l14 18l17 -14l-14 -18zM106 -238l14 19l17 -14l-15 -19z" />
    <glyph glyph-name="uni06B8.fina" unicode="&#x6b8;" horiz-adv-x="699" 
d="M708 7l-9 -7q-84 0 -140 56l1 -30q-13 -99 -79 -151t-184 -52q-61 0 -106.5 15t-72.5 42.5t-39.5 63t-12.5 80.5q0 88 35 172l10 -4q-33 -83 -33 -168q0 -86 52.5 -136.5t167.5 -50.5q225 0 249 192l-11 702l14 2l9 -659q58 -60 141 -60zM337 -317l14 18l17 -14l-15 -18z
M226 -323l15 19l16 -14l-14 -19zM285 -413l14 18l17 -14l-14 -18z" />
    <glyph glyph-name="uni06B9.init" unicode="&#x6b9;" horiz-adv-x="260" 
d="M108 510l-19 17l15 19l20 -17zM0 0l-9 7l10 7q109 0 165 66q2 140 -51 289l14 5q51 -149 50 -290q-19 -40 -71.5 -62t-107.5 -22zM114 -146l-19 17l15 20l19 -17z" />
    <glyph glyph-name="uni06B9.medi" unicode="&#x6b9;" horiz-adv-x="285" 
d="M128 452l-15 -20l-20 17l16 20zM286 14l8 -7l-9 -7q-55 0 -92.5 19t-49.5 40q-11 -22 -55 -40.5t-89 -18.5l-8 7l9 7q45 0 86 19t50 37l-20 235h14l19 -235q13 -20 48 -38t89 -18zM128 -129l16 20l19 -17l-15 -20z" />
    <glyph glyph-name="uni06B9.fina" unicode="&#x6b9;" horiz-adv-x="666" 
d="M316 379l-16 -19l-19 17l16 19zM666 14l9 -7l-9 -7q-31 0 -55.5 13.5t-38.5 35.5q6 -45 6 -107q-9 -64 -89.5 -120.5t-191.5 -56.5q-61 0 -106.5 15t-72.5 42.5t-39.5 63.5t-12.5 80q0 88 35 172l10 -3q-33 -84 -33 -168q0 -87 52.5 -137.5t167.5 -50.5q100 0 173 47.5
t95 104.5q1 45 -3.5 85.5t-8.5 66.5t-16 59.5t-17 46t-20.5 45t-18.5 39.5l14 6q21 -46 29 -64.5t21 -55.5t20 -70q7 -35 33.5 -55t66.5 -20zM290 -352l16 20l19 -17l-16 -20z" />
    <glyph glyph-name="uni06BC.init" unicode="&#x6bc;" horiz-adv-x="260" 
d="M124 529l-16 -19l-19 17l15 19zM117 27q29 -1 48.5 -21.5t19.5 -49t-19.5 -49t-51.5 -20.5q-30 0 -51 20.5t-21 49.5q0 30 23 51q-33 -8 -65 -8l-9 7l10 7q109 0 165 66q2 140 -51 289l14 5q51 -149 50 -290q-17 -35 -62 -57zM114 -102q28 0 44 17t16 42t-17 41.5
t-43 16.5t-43 -16.5t-17 -41.5t16.5 -42t43.5 -17z" />
    <glyph glyph-name="uni06BC.medi" unicode="&#x6bc;" horiz-adv-x="285" 
d="M128 452l-15 -20l-20 17l16 20zM143 59q-6 -13 -27 -26q28 -2 46.5 -22t18.5 -48t-20 -49t-51 -21t-51.5 21t-20.5 49q0 25 15 44q-28 -7 -54 -7l-8 7l9 7q45 0 86 19t50 37l-20 235h14l19 -235q13 -20 48 -38t89 -18l8 -7l-9 -7q-55 0 -92.5 19t-49.5 40zM110 22
q-12 0 -23 -4q-1 0 -4 -1q-34 -15 -34 -54q0 -25 17 -42t44 -17q18 0 31.5 8t21 21.5t7.5 29.5q0 26 -17.5 42.5t-42.5 16.5z" />
    <glyph glyph-name="uni06BC.fina" unicode="&#x6bc;" horiz-adv-x="666" 
d="M316 379l-16 -19l-19 17l16 19zM666 14l9 -7l-9 -7q-31 0 -55.5 13.5t-38.5 35.5q6 -45 6 -107q-5 -36 -35.5 -73t-85.5 -66t-121 -36q29 -21 29 -56q0 -29 -20 -49.5t-51 -20.5t-51.5 20.5t-20.5 49.5q0 36 29 56q-96 11 -140.5 63.5t-44.5 135.5q0 88 35 172l10 -3
q-33 -84 -33 -168q0 -83 48 -133t153 -55q7 2 15 2q7 0 15 -2q49 2 94.5 16.5t77 37t53.5 48t32 50.5q1 45 -3.5 85.5t-8.5 66.5t-16 59.5t-17 46t-20.5 45t-18.5 39.5l14 6q21 -46 29 -64.5t21 -55.5t20 -70q7 -35 33.5 -55t66.5 -20zM354 -289q0 19 -10.5 33.5t-27.5 20.5
h-19q-13 0 -25 1q-18 -6 -28.5 -21t-10.5 -34q0 -25 17 -42t44 -17t43.5 17t16.5 42z" />
    <glyph glyph-name="uni06BD.init" unicode="&#x6bd;" horiz-adv-x="260" 
d="M91 638l16 -14l-14 -19l-17 14zM149 547l17 -14l-14 -18l-17 14zM39 542l17 -14l-15 -19l-16 14zM0 0l-9 7l10 7q109 0 165 66q2 140 -51 289l14 5q51 -149 50 -290q-19 -40 -71.5 -62t-107.5 -22z" />
    <glyph glyph-name="uni06BD.medi" unicode="&#x6bd;" horiz-adv-x="285" 
d="M112 546l-14 -18l-17 14l14 18zM171 456l-15 -19l-16 14l14 19zM60 450l-14 -18l-17 14l15 18zM286 14l8 -7l-9 -7q-55 0 -92.5 19t-49.5 40q-11 -22 -55 -40.5t-89 -18.5l-8 7l9 7q45 0 86 19t50 37l-20 235h14l19 -235q6 -8 16 -17t26.5 -18t41 -15t53.5 -6z" />
    <glyph glyph-name="uni06BD.fina" unicode="&#x6bd;" horiz-adv-x="666" 
d="M299 474l-14 -19l-17 14l15 19zM358 383l-14 -18l-17 14l14 18zM248 378l-14 -19l-17 14l14 19zM666 14l9 -7l-9 -7q-31 0 -55.5 13.5t-38.5 35.5q6 -45 6 -107q-9 -64 -89.5 -120.5t-191.5 -56.5q-61 0 -106.5 15t-72.5 42.5t-39.5 63.5t-12.5 80q0 88 35 172l10 -3
q-33 -84 -33 -168q0 -87 52.5 -137.5t167.5 -50.5q100 0 173 47.5t95 104.5q1 45 -3.5 85.5t-8.5 66.5t-16 59.5t-17 46t-20.5 45t-18.5 39.5l14 6q21 -46 29 -64t21 -55.5t20 -70.5q7 -35 33.5 -55t66.5 -20z" />
    <glyph glyph-name="uni06BF.init" unicode="&#x6bf;" horiz-adv-x="685" 
d="M222 548l-15 -20l-20 17l16 20zM222 415q26 0 54 -8.5t53.5 -21.5t61 -36.5t66 -45.5t79.5 -56.5t92 -62.5l-3 -12l-15 -2q-74 -9 -160.5 -38t-151 -57.5t-146 -51.5t-152.5 -23l-9 7l10 7q69 0 149.5 22t144.5 50t151 57t162 39q-43 30 -102 72t-89 62.5t-68 43.5
t-67.5 32t-59.5 9q-55 0 -108 -35l-7 12q55 37 115 37zM335 -142l14 19l17 -14l-14 -19zM225 -147l14 18l17 -14l-15 -18zM283 -238l15 19l16 -14l-14 -19z" />
    <glyph glyph-name="uni06BF.medi" unicode="&#x6bf;" horiz-adv-x="767" 
d="M223 556l-15 -20l-20 17l16 20zM769 14l8 -7l-10 -7q-209 0 -262 193q-55 -15 -124 -49.5t-121.5 -65t-123 -54.5t-136.5 -24l-9 7l10 7q59 0 119 18.5t113 46.5t105 56.5t113.5 52t120.5 29.5q-68 33 -149 83.5t-131.5 75.5t-95.5 25q-55 0 -107 -35l-7 13q55 36 114 36
q38 0 82 -18.5t82.5 -44t104.5 -64.5t127 -68l-2 -13l-19 -1q-27 -3 -55 -10q52 -182 253 -182zM410 -92l15 19l16 -14l-14 -19zM300 -97l14 18l17 -14l-14 -18zM359 -188l14 19l17 -14l-14 -19z" />
    <glyph glyph-name="uni06BF.fina" unicode="&#x6bf;" horiz-adv-x="706" 
d="M227 548l-15 -20l-20 17l16 20zM706 0q-101 0 -159 47.5t-72 158.5q-112 -25 -196.5 -73.5t-133.5 -117.5t-49 -149q0 -87 56 -141t158 -54q128 0 230 43l5 -12q-103 -45 -237 -45q-107 0 -166 58t-59 150q0 126 107.5 219.5t283.5 133.5q-1 2 -1 5l11 2q0 -3 1 -5
q37 8 76 13q-38 22 -98 59.5t-92 56.5t-73.5 35t-75.5 16q-59 0 -108 -36l-8 11q53 39 117 39q46 0 95 -23t133 -76.5t129 -78.5l-3 -13l-9 -1q-42 -5 -82 -14q5 -36 15 -65.5t24.5 -50.5t33 -36.5t42 -24.5t49.5 -13t57 -4l8 -7zM411 -47l-16 14l14 18l17 -14zM301 -53
l-17 14l15 18l16 -14zM360 -143l-17 14l14 18l17 -14z" />
    <glyph glyph-name="uni06C2.fina" unicode="&#x6c2;" horiz-adv-x="523" 
d="M299 326v-10l-177 -28v11l79 12q-62 36 -62 83q0 28 21.5 47.5t61.5 19.5q27 0 53 -12l-2 -10q-26 13 -51 13q-36 0 -54 -17t-18 -41q0 -45 64 -81zM524 14l8 -7l-9 -7q-42 0 -76 11t-55 29t-38.5 39t-31.5 42.5t-29 39.5t-35.5 29t-47.5 11q-53 0 -93.5 -57.5
t-72.5 -169.5l-15 2q36 122 80.5 180.5t100.5 58.5q25 0 45 -8.5t33.5 -23t28 -32.5t26.5 -36.5t29.5 -36.5t37 -32.5t49 -23t65.5 -8.5z" />
    <glyph glyph-name="uni06C3.fina" unicode="&#x6c3;" horiz-adv-x="523" 
d="M240 324l-16 14l14 18l17 -14zM130 318l-17 14l15 18l16 -14zM44 -26l-15 2q36 122 80.5 180.5t100.5 58.5q25 0 45 -8.5t33.5 -23t28 -32.5t26.5 -36.5t29.5 -36.5t37 -32.5t49 -23t65.5 -8.5l8 -7l-9 -7q-42 0 -76 11t-55 29t-38.5 39t-31.5 42.5t-29 39.5t-35.5 29
t-47.5 11q-53 0 -93.5 -57.5t-72.5 -169.5z" />
    <glyph glyph-name="uni06C4.fina" unicode="&#x6c4;" horiz-adv-x="508" 
d="M517 7l-9 -7h-103q-17 -94 -99 -156.5t-235 -82.5l-5 14q51 7 94 18q-28 2 -47 22.5t-19 47.5q0 29 20.5 49.5t51.5 20.5q30 0 50.5 -20t20.5 -50q0 -32 -24 -53q152 58 179 190h-90q-98 0 -156 42t-58 109q0 70 48.5 124.5t104.5 54.5q31 0 60.5 -18.5t54 -52.5
t39.5 -87t15 -116q0 -22 -3 -42h103zM394 14q3 18 3 37q0 62 -14 113.5t-36.5 84t-50 50t-55.5 17.5q-51 0 -95.5 -50t-44.5 -114q0 -62 54 -100t150 -38h89zM105 -137q0 -25 17 -42t44 -17t43.5 17t16.5 42q0 17 -8 30.5t-21.5 21t-30.5 7.5q-26 0 -43.5 -17t-17.5 -42z
" />
    <glyph glyph-name="uni06CA.fina" unicode="&#x6ca;" horiz-adv-x="508" 
d="M296 467l-15 -18l-16 14l14 18zM185 462l-14 -19l-17 14l15 19zM517 7l-9 -7h-103q-17 -94 -99 -156.5t-235 -82.5l-5 14q288 38 326 225h-90q-98 0 -156 42t-58 109q0 70 48.5 124.5t104.5 54.5q31 0 60.5 -18.5t54 -52.5t39.5 -87t15 -116q0 -22 -3 -42h103zM394 14
q3 18 3 37q0 62 -14 113.5t-36.5 84t-50 50t-55.5 17.5q-51 0 -95.5 -50t-44.5 -114q0 -62 54 -100t150 -38h89z" />
    <glyph glyph-name="uni06CD.fina" unicode="&#x6cd;" horiz-adv-x="714" 
d="M723 7l-9 -7q-64 0 -152 37q29 -19 42.5 -44t12.5 -68q-7 -14 -30 -31.5t-60 -36t-94 -30.5t-120 -12q-120 0 -175.5 54t-55.5 146q0 76 25 149q-41 -34 -105 -48l-2 8q72 17 117 64l10 -4q-33 -83 -33 -168q0 -86 52.5 -136.5t167.5 -50.5q59 0 112 10.5t88.5 26.5
t57 30.5t33.5 26.5q0 34 -6 53.5t-27 40t-59 38t-106 41.5l8 11q42 -15 85 -32t66.5 -26.5t49.5 -18.5t49 -12.5t50 -3.5z" />
    <glyph glyph-name="uni06CE.init" unicode="&#x6ce;" horiz-adv-x="260" 
d="M45 589l74 -128l74 128l9 -4l-78 -136h-10l-78 136zM0 0l-9 7l10 7q109 0 165 66q2 140 -51 289l14 5q51 -149 50 -290q-19 -40 -71.5 -62t-107.5 -22zM171 -156l-16 14l14 19l17 -14zM61 -161l-17 14l15 18l16 -14z" />
    <glyph glyph-name="uni06CE.medi" unicode="&#x6ce;" horiz-adv-x="285" 
d="M129 371h-11l-77 137l8 4l74 -128l74 128l9 -4zM286 14l8 -7l-9 -7q-55 0 -92.5 19t-49.5 40q-11 -22 -55 -40.5t-89 -18.5l-8 7l9 7q45 0 86 19t50 37l-20 235h14l19 -235q13 -20 48 -38t89 -18zM189 -142l14 19l17 -14l-15 -19zM78 -147l15 18l16 -14l-14 -18z" />
    <glyph glyph-name="uni06CE.fina" unicode="&#x6ce;" horiz-adv-x="698" 
d="M136 291h-10l-78 136l9 4l74 -128l74 128l9 -4zM707 7l-9 -7q-64 0 -152 37q30 -19 43 -44t12 -68q-7 -14 -30 -31.5t-60 -36t-94 -30.5t-120 -12q-120 0 -175.5 54t-55.5 146q0 89 35 173l10 -4q-33 -83 -33 -168q0 -86 52.5 -136.5t167.5 -50.5q60 0 112.5 10.5
t88 26.5t57 30.5t33.5 26.5q0 34 -5.5 53.5t-27 40t-59.5 38t-106 41.5l8 11q48 -17 101.5 -38.5t77.5 -31t56 -16.5t66 -7z" />
    <glyph glyph-name="uni06CF.fina" unicode="&#x6cf;" horiz-adv-x="508" 
d="M256 475l-15 -20l-20 17l16 20zM517 7l-9 -7h-103q-17 -94 -99 -156.5t-235 -82.5l-5 14q288 38 326 225h-90q-98 0 -156 42t-58 109q0 70 48.5 124.5t104.5 54.5q31 0 60.5 -18.5t54 -52.5t39.5 -87t15 -116q0 -22 -3 -42h103zM394 14q3 18 3 37q0 62 -14 113.5
t-36.5 84t-50 50t-55.5 17.5q-51 0 -95.5 -50t-44.5 -114q0 -62 54 -100t150 -38h89z" />
    <glyph glyph-name="uni06D1.init" unicode="&#x6d1;" horiz-adv-x="260" 
d="M0 0l-9 7l10 7q109 0 165 66q2 140 -51 289l14 5q51 -149 50 -290q-19 -40 -71.5 -62t-107.5 -22zM171 -156l-16 14l14 19l17 -14zM61 -161l-17 14l15 18l16 -14zM120 -252l-17 14l14 19l17 -14z" />
    <glyph glyph-name="uni06D1.medi" unicode="&#x6d1;" horiz-adv-x="285" 
d="M286 14l8 -7l-9 -7q-55 0 -92.5 19t-49.5 40q-11 -22 -55 -40.5t-89 -18.5l-8 7l9 7q45 0 86 19t50 37l-20 235h14l19 -235q13 -20 48 -38t89 -18zM189 -142l14 19l17 -14l-15 -19zM78 -147l15 18l16 -14l-14 -18zM137 -238l14 19l17 -14l-14 -19z" />
    <glyph glyph-name="uni06D1.fina" unicode="&#x6d1;" horiz-adv-x="698" 
d="M707 7l-9 -7q-64 0 -152 37q30 -19 43 -44t12 -68q-7 -14 -30 -31.5t-60 -36t-94 -30.5t-120 -12q-120 0 -175.5 54t-55.5 146q0 89 35 173l10 -4q-33 -83 -33 -168q0 -86 52.5 -136.5t167.5 -50.5q60 0 112.5 10.5t88 26.5t57 30.5t33.5 26.5q0 34 -5.5 53.5t-27 40
t-59.5 38t-106 41.5l8 11q48 -17 101.5 -38.5t77.5 -31t56 -16.5t66 -7zM344 -322l14 18l17 -14l-14 -18zM234 -328l14 18l17 -14l-15 -18zM292 -418l15 18l16 -14l-14 -18z" />
    <glyph glyph-name="uni06D5.fina" unicode="&#x6d5;" horiz-adv-x="479" 
d="M480 14l8 -7l-9 -7h-5q-59 0 -93 26.5t-40 75.5q-28 -24 -72.5 -42.5t-96.5 -18.5q-56 0 -97 26.5t-46 54.5q0 60 41.5 110t108 82.5t153.5 50.5l-4 115l13 1l10 -356q3 -111 124 -111h5zM41 121q11 -23 46.5 -44.5t86.5 -21.5q95 0 166 60l-8 237q-130 -28 -210 -87
t-81 -144z" />
    <glyph glyph-name="uni06EE.fina" unicode="&#x6ee;" horiz-adv-x="504" 
d="M165 698l-74 -128l-9 4l78 136h10l78 -136l-9 -4zM505 14l8 -7l-9 -7q-25 0 -44 4t-33 12t-23.5 20.5t-17.5 29.5q-78 -78 -201 -78q-76 0 -156 31l6 14q73 -30 151 -30q117 0 195 74l-153 388l14 7l147 -381q17 -45 42 -61t74 -16z" />
    <glyph glyph-name="uni06FA.init" unicode="&#x6fa;" horiz-adv-x="727" 
d="M379 546l-15 -18l-16 14l14 18zM437 456l-14 -19l-17 14l15 19zM327 450l-14 -18l-17 14l14 18zM582 372q31 -67 47 -133.5t16 -165.5q-8 -30 -46.5 -51.5t-81.5 -21.5q-47 0 -79.5 18.5t-44.5 39.5q-8 -22 -42.5 -40t-77.5 -18q-47 0 -79.5 18.5t-44.5 39.5
q-8 -23 -48 -40.5t-102 -17.5l-8 7l9 7q64 0 100 18t42 38l-20 235h14l19 -235q13 -20 43 -38t76 -18q44 0 75 18.5t37 37.5l-20 235h14l18 -235q8 -12 21 -23.5t40 -22t59 -10.5q35 0 68 16.5t48 38.5q-1 99 -18 163.5t-48 134.5zM394 -129l15 20l19 -17l-15 -20z" />
    <glyph glyph-name="uni06FA.medi" unicode="&#x6fa;" horiz-adv-x="811" 
d="M362 546l-15 -18l-16 14l14 18zM420 456l-14 -19l-17 14l15 19zM310 450l-14 -18l-17 14l14 18zM821 7l-10 -7q-105 0 -171 60q-17 -27 -50.5 -43.5t-72.5 -16.5q-47 0 -79.5 18.5t-44.5 39.5q-8 -22 -42.5 -40t-77.5 -18q-47 0 -79.5 18.5t-44.5 39.5q-8 -23 -48 -40.5
t-102 -17.5l-8 7l9 7q64 0 100 18t42 38l-20 235h14l19 -235q13 -20 43 -38t76 -18q44 0 75 18.5t37 37.5l-20 235h14l18 -235q13 -20 43.5 -38t76.5 -18q36 0 68.5 16t47.5 39q-7 102 -49 299l14 4q40 -187 46 -300q32 -27 68.5 -42.5t99.5 -15.5zM378 -129l15 20l20 -17
l-16 -20z" />
    <glyph glyph-name="uni06FA.fina" unicode="&#x6fa;" horiz-adv-x="1204" 
d="M754 546l-14 -18l-17 14l14 18zM813 456l-15 -19l-16 14l14 19zM702 450l-14 -18l-17 14l15 18zM1213 7l-9 -7q-105 0 -171 60q-11 -18 -30 -31.5t-43.5 -21t-50.5 -7.5q-32 0 -59.5 10.5t-42.5 22.5t-22 25q-5 -14 -21.5 -27.5t-43 -22t-54.5 -8.5h-1q-30 0 -54.5 13.5
t-38.5 35.5q6 -45 6 -107q-9 -64 -89.5 -120.5t-191.5 -56.5q-61 0 -106.5 15t-72.5 42.5t-39.5 63.5t-12.5 80q0 88 35 172l10 -3q-33 -84 -33 -168q0 -87 52.5 -137.5t167.5 -50.5q100 0 173 47.5t95 104.5q1 45 -3.5 85.5t-8.5 66.5t-16 59.5t-17 46t-20.5 45t-18.5 39.5
l14 6q21 -46 29 -64.5t21 -55.5t20 -70q7 -35 33.5 -55t66.5 -20q31 0 56.5 9.5t39 22t16.5 24.5l-20 235h14l19 -235q13 -20 43 -38t76 -18q36 0 69 16t47 39q-7 102 -49 299l15 4q39 -187 46 -300q31 -27 67.5 -42.5t99.5 -15.5zM769 -129l16 20l19 -17l-15 -20z" />
    <glyph glyph-name="uni06FB.init" unicode="&#x6fb;" horiz-adv-x="892" 
d="M593 492l-16 -20l-19 17l16 20zM656 366q163 0 154 -255q-31 -56 -117 -83.5t-250 -27.5h-165q-54 0 -90.5 19t-47.5 41q-12 -23 -54 -41.5t-87 -18.5l-8 7l9 7q45 0 84 19t49 38l-18 293h14l17 -290q11 -22 43.5 -40.5t83.5 -19.5q61 151 166.5 251.5t216.5 100.5z
M795 98q9 128 -28.5 191t-110.5 63q-106 0 -207 -95.5t-164 -242.5h158q150 0 229 20.5t123 63.5zM432 -129l16 20l19 -17l-16 -20z" />
    <glyph glyph-name="uni06FB.medi" unicode="&#x6fb;" horiz-adv-x="927" 
d="M593 492l-16 -20l-19 17l16 20zM929 14l7 -7l-9 -7q-91 0 -131 90q-18 -22 -46.5 -38.5t-71 -28t-101 -17.5t-134.5 -6h-165q-54 0 -90.5 19t-47.5 41q-12 -23 -54 -41.5t-87 -18.5l-8 7l9 7q45 0 84 19t49 38l-18 293h14l17 -290q11 -22 43.5 -40.5t83.5 -19.5
q61 151 166.5 251.5t216.5 100.5q163 0 154 -255q-2 -4 -5 -8q14 -39 46 -64t78 -25zM443 14q150 0 229 20.5t123 63.5q9 128 -28.5 191t-110.5 63q-106 0 -207 -95.5t-164 -242.5h158zM432 -129l16 20l19 -17l-16 -20z" />
    <glyph glyph-name="uni06FB.fina" unicode="&#x6fb;" horiz-adv-x="1315" 
d="M981 492l-16 -20l-19 17l16 20zM1317 14l7 -7l-9 -7q-91 0 -131 90q-37 -45 -120.5 -67.5t-232.5 -22.5h-165q-31 0 -55.5 13.5t-38.5 35.5q6 -45 6 -107q-9 -64 -89.5 -120.5t-191.5 -56.5q-120 0 -175.5 54.5t-55.5 146.5q0 88 35 172l10 -3q-33 -84 -33 -168
q0 -87 52.5 -137.5t167.5 -50.5q100 0 173 47.5t95 104.5q0 39 -2 72.5t-7.5 63t-10.5 51t-15 46t-15.5 38t-17.5 37.5t-16 34l14 6q21 -46 29 -64.5t21 -55.5t20 -70q7 -34 31.5 -53.5t63.5 -21.5q61 151 166.5 251.5t216.5 100.5q163 0 154 -255q-2 -4 -5 -8
q14 -39 46 -64t78 -25zM831 14q150 0 229 20.5t123 63.5q9 128 -28.5 191t-110.5 63q-106 0 -207 -95.5t-164 -242.5h158zM820 -129l16 20l19 -17l-16 -20z" />
    <glyph glyph-name="uni06FC.init" unicode="&#x6fc;" horiz-adv-x="519" 
d="M245 526l-16 -20l-19 17l16 20zM490 65l1 -14q-131 -31 -213 -41t-214 -10h-64l-9 7l10 7h61q106 0 173 6q-164 89 -164 220q0 66 43.5 109t125.5 43q70 0 131 -34l-5 -14q-60 34 -126 34q-77 0 -116.5 -38.5t-39.5 -100.5q0 -126 171 -218q86 9 235 44zM240 -129l16 20
l19 -17l-15 -20z" />
    <glyph glyph-name="uni06FC.medi" unicode="&#x6fc;" horiz-adv-x="527" 
d="M278 510l-15 -20l-20 17l16 20zM528 14l8 -7l-9 -7h-17q-120 0 -230 95l-1 1q-66 -43 -137.5 -69.5t-125.5 -26.5h-16l-9 7l10 7h13q53 0 121.5 25t132.5 67q-22 20 -55.5 56t-72 72.5t-89.5 74.5l1 14q114 49 221 49q64 0 113 -15t63 -36q0 -36 -21.5 -76t-56 -74.5
t-80.5 -66.5q52 -44 103.5 -67t117.5 -23h16zM65 314q64 -48 132.5 -118t82.5 -82q70 47 114 102t44 106q-24 16 -68.5 26.5t-96.5 10.5q-103 0 -208 -45zM270 -129l16 20l19 -17l-15 -20z" />
    <glyph glyph-name="uni06FC.fina" unicode="&#x6fc;" horiz-adv-x="548" 
d="M288 515l-16 -20l-19 17l16 20zM548 0h-21q-67 0 -122.5 24t-114.5 75q-6 5 -13 11q-47 -30 -81.5 -57t-65 -60t-46 -69.5t-15.5 -76.5q0 -78 58.5 -127t171.5 -49q129 0 230 43l5 -12q-102 -45 -236 -45q-119 0 -180.5 53t-61.5 136q0 80 56 145t156 128
q-15 14 -49 49.5t-71.5 70.5t-83.5 70l2 14q115 49 219 49q66 0 114.5 -15t62.5 -35q0 -32 -11 -58.5t-36 -51.5t-52.5 -45.5t-72.5 -48.5q5 -6 12 -11q59 -50 109 -71.5t118 -21.5h20l8 -7zM78 314q43 -32 79 -66t71 -70t52 -52q25 16 43 28t36.5 26t31.5 26t25 26t19 27.5
t11 29.5t4 33q-18 15 -64.5 26t-100.5 11q-101 0 -207 -45zM325 -133l-19 17l15 20l19 -17z" />
    <glyph glyph-name="uni06FF.init" unicode="&#x6ff;" horiz-adv-x="635" 
d="M357 646l-74 -128l-9 4l78 136h10l78 -136l-9 -4zM126 493q89 -46 164 -97t135 -106.5t94 -114.5t34 -114q-6 -19 -27 -35.5t-54 -27t-71 -10.5q-97 0 -184 49q-86 -37 -204 -37h-13l-9 7l10 7h11q110 0 190 31q-38 23 -65.5 52.5t-44 67t-16.5 76.5q0 69 43 116.5
t108 47.5q16 0 31 -4q-65 42 -139 80zM89 241q0 -58 35 -107t93 -83q46 21 78 51t47 64t15 71q0 65 -37 111t-93 46q-60 0 -99 -44t-39 -109zM401 2q48 0 86.5 16t55.5 42q-2 68 -57.5 142t-151.5 146q35 -47 35 -110q0 -58 -35 -109.5t-102 -84.5q81 -42 169 -42z" />
    <glyph glyph-name="uni06FF.medi" unicode="&#x6ff;" horiz-adv-x="474" 
d="M309 519l-74 -128l-8 4l77 136h11l77 -136l-9 -4zM483 7l-9 -7h-193q59 -17 96 -58.5t37 -113.5q-5 -27 -38.5 -49.5t-83.5 -22.5q-82 0 -135 69t-54 175h-103l-9 7l10 7h102q1 55 19 112.5t47 101.5t66.5 71.5t74.5 27.5q43 0 71.5 -36.5t28.5 -95t-40.5 -111
t-104.5 -70.5h211zM309 313q-46 0 -90.5 -43.5t-73 -113.5t-29.5 -142h87q84 0 139 55.5t55 124.5q0 53 -25.5 86t-62.5 33zM402 -175q0 44 -16.5 79t-44 55.5t-60 30.5t-69.5 10h-18h-78q2 -102 50 -166t125 -64q45 0 74.5 17.5t36.5 37.5z" />
    <glyph glyph-name="uni06FF.fina" unicode="&#x6ff;" horiz-adv-x="551" 
d="M386 519l-74 -128l-8 4l77 136h11l77 -136l-9 -4zM560 7l-9 -7h-193q59 -17 96 -58.5t37 -113.5q-5 -27 -38.5 -49.5t-83.5 -22.5q-82 0 -135 69t-54 175q-80 1 -134 25l6 12q51 -22 128 -23q1 56 19 113t47 101t66.5 71.5t74.5 27.5q43 0 71.5 -36.5t28.5 -95
t-40.5 -111t-104.5 -70.5h211zM386 313q-46 0 -90.5 -43.5t-73 -113.5t-29.5 -142h87q84 0 139 55.5t55 124.5q0 53 -25.5 86t-62.5 33zM479 -175q0 44 -16.5 79t-44 55.5t-60 30.5t-69.5 10h-96q2 -102 50 -166t125 -64q45 0 74.5 17.5t36.5 37.5z" />
    <glyph glyph-name="uniFB51" unicode="&#x671;" horiz-adv-x="219" arabic-form="final" 
d="M127 748q-35 0 -98 21l-17 -46l-9 4l19 54q18 -6 32 -10q47 95 108 95q30 0 45 -16t15 -39q0 -19 -11.5 -33.5t-33 -22t-50.5 -7.5zM161 855q-54 0 -99 -86q39 -10 66 -10q39 0 61.5 13.5t22.5 38.5q0 11 -4 20.5t-16 16.5t-31 7zM220 14l8 -7l-9 -7q-58 0 -90 30.5
t-32 93.5l-2 544l14 2v-545q0 -111 111 -111z" />
    <glyph glyph-name="uniFB53" unicode="&#x67b;" horiz-adv-x="853" arabic-form="final" 
d="M854 14l8 -7l-9 -7q-23 0 -43 5t-34 13.5t-25 18t-18 21t-11 19t-7 15.5q-132 -104 -385 -104q-264 0 -264 170q0 72 35 145l10 -3q-32 -71 -32 -141q0 -157 253 -157q252 0 378 103l-27 200h14l24 -190q2 -11 8.5 -25.5t20 -33t41 -30.5t63.5 -12zM364 -126l-15 -18
l-16 14l14 18zM346 -234l14 18l17 -14l-15 -18z" />
    <glyph glyph-name="uniFB54" unicode="&#x67b;" horiz-adv-x="260" arabic-form="initial" 
d="M0 0l-9 7l10 7q109 0 165 66q2 140 -51 289l14 5q51 -149 50 -290q-19 -40 -71.5 -62t-107.5 -22zM110 -144l-16 14l14 18l17 -14zM123 -248l-16 14l14 18l17 -14z" />
    <glyph glyph-name="uniFB55" unicode="&#x67b;" horiz-adv-x="285" arabic-form="medial" 
d="M286 14l8 -7l-9 -7q-55 0 -92.5 19t-49.5 40q-11 -22 -55 -40.5t-89 -18.5l-8 7l9 7q45 0 86 19t50 37l-20 235h14l19 -235q13 -20 48 -38t89 -18zM159 -126l-15 -18l-16 14l14 18zM141 -234l14 18l17 -14l-15 -18z" />
    <glyph glyph-name="uniFB57" unicode="&#x67e;" horiz-adv-x="853" arabic-form="final" 
d="M854 14l8 -7l-9 -7q-23 0 -43 5t-34 13.5t-25 18t-18 21t-11 19t-7 15.5q-132 -104 -385 -104q-264 0 -264 170q0 72 35 145l10 -3q-32 -71 -32 -141q0 -157 253 -157q252 0 378 103l-27 200h14l24 -190q2 -11 8.5 -25.5t20 -33t41 -30.5t63.5 -12zM394 -142l14 19
l17 -14l-15 -19zM283 -147l15 18l16 -14l-14 -18zM342 -238l14 19l17 -14l-14 -19z" />
    <glyph glyph-name="uniFB58" unicode="&#x67e;" horiz-adv-x="260" arabic-form="initial" 
d="M0 0l-9 7l10 7q109 0 165 66q2 140 -51 289l14 5q51 -149 50 -290q-19 -40 -71.5 -62t-107.5 -22zM171 -156l-16 14l14 19l17 -14zM61 -161l-17 14l15 18l16 -14zM120 -252l-17 14l14 19l17 -14z" />
    <glyph glyph-name="uniFB59" unicode="&#x67e;" horiz-adv-x="285" arabic-form="medial" 
d="M286 14l8 -7l-9 -7q-55 0 -92.5 19t-49.5 40q-11 -22 -55 -40.5t-89 -18.5l-8 7l9 7q45 0 86 19t50 37l-20 235h14l19 -235q13 -20 48 -38t89 -18zM189 -142l14 19l17 -14l-15 -19zM78 -147l15 18l16 -14l-14 -18zM137 -238l14 19l17 -14l-14 -19z" />
    <glyph glyph-name="uniFB5B" unicode="&#x680;" horiz-adv-x="853" arabic-form="final" 
d="M854 14l8 -7l-9 -7q-23 0 -43 5t-34 13.5t-25 18t-18 21t-11 19t-7 15.5q-132 -104 -385 -104q-264 0 -264 170q0 72 35 145l10 -3q-32 -71 -32 -141q0 -157 253 -157q252 0 378 103l-27 200h14l24 -190q2 -11 8.5 -25.5t20 -33t41 -30.5t63.5 -12zM421 -101l-14 -18
l-17 14l14 18zM311 -106l-15 -19l-16 14l14 19zM403 -209l14 18l17 -14l-14 -18zM293 -215l14 18l17 -14l-15 -18z" />
    <glyph glyph-name="uniFB5C" unicode="&#x680;" horiz-adv-x="260" arabic-form="initial" 
d="M0 0l-9 7l10 7q109 0 165 66q2 140 -51 289l14 5q51 -149 50 -290q-19 -40 -71.5 -62t-107.5 -22zM168 -119l-17 14l14 18l17 -14zM57 -125l-16 14l14 19l17 -14zM181 -223l-17 14l14 18l17 -14zM70 -229l-16 14l14 18l17 -14z" />
    <glyph glyph-name="uniFB5D" unicode="&#x680;" horiz-adv-x="285" arabic-form="medial" 
d="M286 14l8 -7l-9 -7q-55 0 -92.5 19t-49.5 40q-11 -22 -55 -40.5t-89 -18.5l-8 7l9 7q45 0 86 19t50 37l-20 235h14l19 -235q13 -20 48 -38t89 -18zM216 -101l-14 -18l-17 14l14 18zM106 -106l-15 -19l-16 14l14 19zM198 -209l14 18l17 -14l-14 -18zM88 -215l14 18l17 -14
l-15 -18z" />
    <glyph glyph-name="uniFB5F" unicode="&#x67a;" horiz-adv-x="853" arabic-form="final" 
d="M407 502l-14 -18l-17 14l15 18zM389 393l15 19l16 -14l-14 -19zM854 14l8 -7l-9 -7q-34 0 -60.5 10.5t-42 27t-23 29t-12.5 25.5q-132 -104 -385 -104q-264 0 -264 170q0 72 35 145l10 -3q-32 -71 -32 -141q0 -157 253 -157q252 0 378 103l-27 200h14l24 -190
q2 -11 8.5 -25.5t20 -33t41 -30.5t63.5 -12z" />
    <glyph glyph-name="uniFB60" unicode="&#x67a;" horiz-adv-x="260" arabic-form="initial" 
d="M111 575l-17 14l14 18l17 -14zM124 470l-17 14l14 19l17 -14zM0 0l-9 7l10 7q109 0 165 66q2 140 -51 289l14 5q51 -149 50 -290q-19 -40 -71.5 -62t-107.5 -22z" />
    <glyph glyph-name="uniFB61" unicode="&#x67a;" horiz-adv-x="285" arabic-form="medial" 
d="M130 515l-15 -18l-16 14l14 18zM112 407l14 18l17 -14l-15 -18zM286 14l8 -7l-9 -7q-55 0 -92.5 19t-49.5 40q-11 -22 -55 -40.5t-89 -18.5l-8 7l9 7q45 0 86 19t50 37l-20 235h14l19 -235q13 -20 48 -38t89 -18z" />
    <glyph glyph-name="uniFB63" unicode="&#x67f;" horiz-adv-x="853" arabic-form="final" 
d="M444 511l-15 -18l-16 14l14 18zM333 505l-14 -18l-17 14l15 18zM426 402l14 18l17 -14l-15 -18zM315 396l15 18l16 -14l-14 -18zM854 14l8 -7l-9 -7q-23 0 -43 5t-34 13.5t-25 18t-18 21t-11 19t-7 15.5q-132 -104 -385 -104q-264 0 -264 170q0 72 35 145l10 -3
q-32 -71 -32 -141q0 -157 253 -157q252 0 378 103l-27 200h14l24 -190q2 -11 8.5 -25.5t20 -33t41 -30.5t63.5 -12z" />
    <glyph glyph-name="uniFB64" unicode="&#x67f;" horiz-adv-x="260" arabic-form="initial" 
d="M147 584l-17 14l15 18l16 -14zM37 578l-17 14l14 18l17 -14zM160 479l-17 14l15 18l16 -14zM50 473l-17 14l14 18l17 -14zM0 0l-9 7l10 7q109 0 165 66q2 140 -51 289l14 5q51 -149 50 -290q-19 -40 -71.5 -62t-107.5 -22z" />
    <glyph glyph-name="uniFB65" unicode="&#x67f;" horiz-adv-x="285" arabic-form="medial" 
d="M166 524l-14 -18l-17 14l14 18zM56 518l-15 -18l-16 14l14 18zM148 415l14 18l17 -14l-14 -18zM38 410l14 18l17 -14l-15 -18zM286 14l8 -7l-9 -7q-55 0 -92.5 19t-49.5 40q-11 -22 -55 -40.5t-89 -18.5l-8 7l9 7q45 0 86 19t50 37l-20 235h14l19 -235q13 -20 48 -38
t89 -18z" />
    <glyph glyph-name="uniFB67" unicode="&#x679;" horiz-adv-x="853" arabic-form="final" 
d="M511 421q-5 -22 -28 -39t-64 -17h-125l1 10h20q10 19 20 35l-6 151h10l3 -139q51 81 106 81q30 0 46.5 -21t16.5 -61zM324 375h93q68 0 85 44q0 74 -55 74q-62 0 -123 -118zM854 14l8 -7l-9 -7q-34 0 -60.5 10.5t-42 27t-23 29t-12.5 25.5q-132 -104 -385 -104
q-264 0 -264 170q0 72 35 145l10 -3q-32 -71 -32 -141q0 -157 253 -157q252 0 378 103l-27 200h14l24 -190q2 -11 8.5 -25.5t20 -33t41 -30.5t63.5 -12z" />
    <glyph glyph-name="uniFB68" unicode="&#x679;" horiz-adv-x="260" arabic-form="initial" 
d="M166 594q14 0 26 -5t20 -15.5t12.5 -26t4.5 -35.5q-5 -22 -28 -39t-64 -17h-125l1 10h20q10 19 20 35l-6 151h9l4 -139q51 81 106 81zM135 466q67 0 85 44q0 74 -55 74q-62 0 -123 -118h93zM115 369l14 5q51 -149 50 -290q-19 -40 -71.5 -62t-107.5 -22l-9 7l10 7
q109 0 165 66q2 140 -51 289z" />
    <glyph glyph-name="uniFB69" unicode="&#x679;" horiz-adv-x="285" arabic-form="medial" 
d="M233 434q-2 -10 -8 -19t-16.5 -17.5t-28 -14t-39.5 -5.5h-125l1 10h21q10 20 19 35l-6 151h10l3 -139q52 81 106 81q30 0 46.5 -21t16.5 -61zM46 388h94q67 0 85 44q0 74 -55 74q-62 0 -124 -118zM286 14l8 -7l-9 -7q-55 0 -92.5 19t-49.5 40q-11 -22 -55 -40.5
t-89 -18.5l-8 7l9 7q45 0 86 19t50 37l-20 235h14l19 -235q6 -8 16 -17t26.5 -18t41 -15t53.5 -6z" />
    <glyph glyph-name="uniFB6B" unicode="&#x6a4;" horiz-adv-x="926" arabic-form="final" 
d="M689 667l-15 -18l-16 14l14 18zM747 577l-14 -18l-17 14l15 18zM637 571l-14 -18l-17 14l14 18zM928 14l7 -7l-9 -7h-15q-114 0 -212 46q-136 -58 -358 -58h-11q-264 0 -264 170q0 72 35 145l10 -3q-32 -71 -32 -141q0 -157 253 -157h10q211 0 342 51q-63 33 -100 80.5
t-37 104.5q0 67 49.5 126.5t103.5 59.5q60 0 111 -60t51 -130q0 -51 -36.5 -99t-110.5 -82q90 -39 196 -39h17zM560 236q0 -37 18 -71t49 -60t73 -46q75 32 112 77.5t37 95.5q0 65 -46.5 121.5t-101.5 56.5q-32 0 -65 -25.5t-54.5 -66.5t-21.5 -82z" />
    <glyph glyph-name="uniFB6C" unicode="&#x6a4;" horiz-adv-x="453" arabic-form="initial" 
d="M198 759l-15 -18l-16 14l14 18zM256 669l-14 -19l-17 14l15 19zM146 663l-14 -18l-17 14l14 18zM203 527q27 0 52 -12t48.5 -41.5t39.5 -73.5t23.5 -113.5t3.5 -156.5q-26 -47 -127 -88.5t-243 -41.5l-9 7l10 7q130 0 222 33.5t134 80.5q3 62 0 115q-52 -47 -131 -47
q-73 0 -124.5 43.5t-51.5 108.5q0 70 48.5 124.5t104.5 54.5zM229 210q75 0 128 44q-9 135 -53 197t-101 62q-51 0 -95 -50t-44 -114q0 -61 47.5 -100t117.5 -39z" />
    <glyph glyph-name="uniFB6D" unicode="&#x6a4;" horiz-adv-x="453" arabic-form="medial" 
d="M215 665l-14 -18l-17 14l14 18zM274 575l-15 -19l-16 14l14 19zM163 569l-14 -18l-17 14l15 18zM454 14l8 -7l-9 -7h-16q-108 0 -203 42q-95 -42 -223 -42h-11l-9 7l10 7h11q119 0 207 35q-67 33 -106.5 81.5t-39.5 107.5q0 67 49.5 126.5t104.5 59.5q60 0 111 -60
t51 -130q0 -51 -36 -101t-104 -84q88 -35 188 -35h17zM86 236q0 -57 40.5 -103.5t108.5 -77.5q68 31 104 78t36 99q0 42 -21 84t-56 68t-71 26q-32 0 -65 -25.5t-54.5 -66.5t-21.5 -82z" />
    <glyph glyph-name="uniFB6F" unicode="&#x6a6;" horiz-adv-x="926" arabic-form="final" 
d="M743 646l-15 -19l-16 14l14 19zM632 640l-14 -18l-17 14l15 18zM725 537l14 18l17 -14l-15 -18zM614 531l15 18l16 -14l-14 -18zM928 14l7 -7l-9 -7h-15q-114 0 -212 46q-136 -58 -358 -58h-11q-264 0 -264 170q0 72 35 145l10 -3q-32 -71 -32 -141q0 -157 253 -157h10
q211 0 342 51q-63 33 -100 80.5t-37 104.5q0 67 49.5 126.5t103.5 59.5q60 0 111 -60t51 -130q0 -51 -36.5 -99t-110.5 -82q90 -39 196 -39h17zM560 236q0 -37 18 -71t49 -60t73 -46q75 32 112 77.5t37 95.5q0 65 -46.5 121.5t-101.5 56.5q-50 0 -95.5 -55.5t-45.5 -118.5z
" />
    <glyph glyph-name="uniFB70" unicode="&#x6a6;" horiz-adv-x="453" arabic-form="initial" 
d="M252 737l-14 -18l-17 14l14 18zM142 731l-15 -18l-16 14l14 18zM234 628l14 18l17 -14l-14 -18zM124 623l14 18l17 -14l-15 -18zM203 527q27 0 52 -12t48.5 -41.5t39.5 -73.5t23.5 -113.5t3.5 -156.5q-26 -47 -127 -88.5t-243 -41.5l-9 7l10 7q130 0 222 33.5t134 80.5
q3 62 0 115q-52 -47 -131 -47q-73 0 -124.5 43.5t-51.5 108.5q0 70 48.5 124.5t104.5 54.5zM229 210q75 0 128 44q-9 135 -53 197t-101 62q-51 0 -95 -50t-44 -114q0 -61 47.5 -100t117.5 -39z" />
    <glyph glyph-name="uniFB71" unicode="&#x6a6;" horiz-adv-x="453" arabic-form="medial" 
d="M269 643l-14 -18l-17 14l14 18zM159 637l-14 -18l-17 14l14 18zM251 534l14 18l17 -14l-14 -18zM141 529l14 18l17 -14l-14 -18zM454 14l8 -7l-9 -7h-16q-108 0 -203 42q-95 -42 -223 -42h-11l-9 7l10 7h11q119 0 207 35q-67 33 -106.5 81.5t-39.5 107.5q0 67 49.5 126.5
t104.5 59.5q60 0 111 -60t51 -130q0 -51 -36 -101t-104 -84q88 -35 188 -35h17zM86 236q0 -57 40.5 -103.5t108.5 -77.5q68 31 104 78t36 99q0 42 -21 84t-56 68t-71 26q-32 0 -65 -25.5t-54.5 -66.5t-21.5 -82z" />
    <glyph glyph-name="uniFB73" unicode="&#x684;" horiz-adv-x="706" arabic-form="final" 
d="M706 0q-101 0 -159 47.5t-72 158.5q-112 -25 -196.5 -73.5t-133.5 -117.5t-49 -149q0 -87 56 -141t158 -54q128 0 230 43l5 -12q-103 -45 -237 -45q-107 0 -166 58t-59 150q0 126 107.5 219.5t283.5 133.5q-1 2 -1 5l11 2q0 -3 1 -5q37 8 76 13q-38 22 -98 59.5t-92 56.5
t-73.5 35t-75.5 16q-59 0 -108 -36l-8 11q53 39 117 39q35 0 78.5 -17.5t78.5 -39t95.5 -59.5t104.5 -62l-3 -13l-9 -1q-42 -5 -82 -14q15 -106 69.5 -150t151.5 -44l8 -7zM348 -6l17 -14l-15 -18l-16 14zM378 -124l-15 -19l-16 14l14 19z" />
    <glyph glyph-name="uniFB74" unicode="&#x684;" horiz-adv-x="685" arabic-form="initial" 
d="M222 415q26 0 54 -8.5t53.5 -21.5t61 -36.5t66 -45.5t79.5 -56.5t92 -62.5l-3 -12l-15 -2q-74 -9 -160.5 -38t-151 -57.5t-146 -51.5t-152.5 -23l-9 7l10 7q69 0 149.5 22t144.5 50t151 57t162 39q-43 30 -102 72t-89 62.5t-68 43.5t-67.5 32t-59.5 9q-55 0 -108 -35
l-7 12q55 37 115 37zM305 -126l-14 -18l-17 14l14 18zM287 -234l14 18l17 -14l-14 -18z" />
    <glyph glyph-name="uniFB75" unicode="&#x684;" horiz-adv-x="767" arabic-form="medial" 
d="M769 14l8 -7l-10 -7q-209 0 -262 193q-55 -15 -124 -49.5t-121.5 -65t-123 -54.5t-136.5 -24l-9 7l10 7q59 0 119 18.5t113 46.5t105 56.5t113.5 52t120.5 29.5q-68 33 -149 83.5t-131.5 75.5t-95.5 25q-55 0 -107 -35l-7 13q55 36 114 36q38 0 82 -18.5t82.5 -44
t104.5 -64.5t127 -68l-2 -13l-19 -1q-27 -3 -55 -10q52 -182 253 -182zM380 -76l-14 -18l-17 14l15 18zM362 -184l15 18l16 -14l-14 -18z" />
    <glyph glyph-name="uniFB77" unicode="&#x683;" horiz-adv-x="706" arabic-form="final" 
d="M706 0q-101 0 -159 47.5t-72 158.5q-112 -25 -196.5 -73.5t-133.5 -117.5t-49 -149q0 -87 56 -141t158 -54q128 0 230 43l5 -12q-103 -45 -237 -45q-107 0 -166 58t-59 150q0 126 107.5 219.5t283.5 133.5q-1 2 -1 5l11 2q0 -3 1 -5q37 8 76 13q-38 22 -98 59.5t-92 56.5
t-73.5 35t-75.5 16q-59 0 -108 -36l-8 11q53 39 117 39q35 0 78.5 -17.5t78.5 -39t95.5 -59.5t104.5 -62l-3 -13l-9 -1q-42 -5 -82 -14q15 -106 69.5 -150t151.5 -44l8 -7zM411 -91l-16 14l14 18l17 -14zM301 -97l-17 14l15 18l16 -14z" />
    <glyph glyph-name="uniFB78" unicode="&#x683;" horiz-adv-x="685" arabic-form="initial" 
d="M222 415q26 0 54 -8.5t53.5 -21.5t61 -36.5t66 -45.5t79.5 -56.5t92 -62.5l-3 -12l-15 -2q-74 -9 -160.5 -38t-151 -57.5t-146 -51.5t-152.5 -23l-9 7l10 7q69 0 149.5 22t144.5 50t151 57t162 39q-43 30 -102 72t-89 62.5t-68 43.5t-67.5 32t-59.5 9q-55 0 -108 -35
l-7 12q55 37 115 37zM335 -142l14 19l17 -14l-14 -19zM225 -147l14 18l17 -14l-15 -18z" />
    <glyph glyph-name="uniFB79" unicode="&#x683;" horiz-adv-x="767" arabic-form="medial" 
d="M769 14l8 -7l-10 -7q-209 0 -262 193q-55 -15 -124 -49.5t-121.5 -65t-123 -54.5t-136.5 -24l-9 7l10 7q59 0 119 18.5t113 46.5t105 56.5t113.5 52t120.5 29.5q-68 33 -149 83.5t-131.5 75.5t-95.5 25q-55 0 -107 -35l-7 13q55 36 114 36q38 0 82 -18.5t82.5 -44
t104.5 -64.5t127 -68l-2 -13l-19 -1q-27 -3 -55 -10q52 -182 253 -182zM410 -92l15 19l16 -14l-14 -19zM300 -97l14 18l17 -14l-14 -18z" />
    <glyph glyph-name="uniFB7B" unicode="&#x686;" horiz-adv-x="706" arabic-form="final" 
d="M706 0q-101 0 -159 47.5t-72 158.5q-112 -25 -196.5 -73.5t-133.5 -117.5t-49 -149q0 -87 56 -141t158 -54q128 0 230 43l5 -12q-103 -45 -237 -45q-107 0 -166 58t-59 150q0 126 107.5 219.5t283.5 133.5q-1 2 -1 5l11 2q0 -3 1 -5q37 8 76 13q-38 22 -98 59.5t-92 56.5
t-73.5 35t-75.5 16q-59 0 -108 -36l-8 11q53 39 117 39q35 0 78.5 -17.5t78.5 -39t95.5 -59.5t104.5 -62l-3 -13l-9 -1q-42 -5 -82 -14q15 -106 69.5 -150t151.5 -44l8 -7zM411 -47l-16 14l14 18l17 -14zM301 -53l-17 14l15 18l16 -14zM360 -143l-17 14l14 18l17 -14z" />
    <glyph glyph-name="uniFB7C" unicode="&#x686;" horiz-adv-x="685" arabic-form="initial" 
d="M222 415q26 0 54 -8.5t53.5 -21.5t61 -36.5t66 -45.5t79.5 -56.5t92 -62.5l-3 -12l-15 -2q-74 -9 -160.5 -38t-151 -57.5t-146 -51.5t-152.5 -23l-9 7l10 7q69 0 149.5 22t144.5 50t151 57t162 39q-43 30 -102 72t-89 62.5t-68 43.5t-67.5 32t-59.5 9q-55 0 -108 -35
l-7 12q55 37 115 37zM335 -142l14 19l17 -14l-14 -19zM225 -147l14 18l17 -14l-15 -18zM283 -238l15 19l16 -14l-14 -19z" />
    <glyph glyph-name="uniFB7D" unicode="&#x686;" horiz-adv-x="767" arabic-form="medial" 
d="M769 14l8 -7l-10 -7q-209 0 -262 193q-55 -15 -124 -49.5t-121.5 -65t-123 -54.5t-136.5 -24l-9 7l10 7q59 0 119 18.5t113 46.5t105 56.5t113.5 52t120.5 29.5q-68 33 -149 83.5t-131.5 75.5t-95.5 25q-55 0 -107 -35l-7 13q55 36 114 36q38 0 82 -18.5t82.5 -44
t104.5 -64.5t127 -68l-2 -13l-19 -1q-27 -3 -55 -10q52 -182 253 -182zM410 -92l15 19l16 -14l-14 -19zM300 -97l14 18l17 -14l-14 -18zM359 -188l14 19l17 -14l-14 -19z" />
    <glyph glyph-name="uniFB7F" unicode="&#x687;" horiz-adv-x="706" arabic-form="final" 
d="M706 0q-101 0 -159 47.5t-72 158.5q-112 -25 -196.5 -73.5t-133.5 -117.5t-49 -149q0 -87 56 -141t158 -54q128 0 230 43l5 -12q-103 -45 -237 -45q-107 0 -166 58t-59 150q0 126 107.5 219.5t283.5 133.5q-1 2 -1 5l11 2q0 -3 1 -5q37 8 76 13q-38 22 -98 59.5t-92 56.5
t-73.5 35t-75.5 16q-59 0 -108 -36l-8 11q53 39 117 39q35 0 78.5 -17.5t78.5 -39t95.5 -59.5t104.5 -62l-3 -13l-9 -1q-42 -5 -82 -14q15 -106 69.5 -150t151.5 -44l8 -7zM405 2l17 -14l-14 -18l-17 14zM295 -3l17 -14l-15 -19l-16 14zM435 -116l-14 -18l-17 14l14 18z
M325 -122l-15 -18l-16 14l14 18z" />
    <glyph glyph-name="uniFB80" unicode="&#x687;" horiz-adv-x="685" arabic-form="initial" 
d="M222 415q26 0 54 -8.5t53.5 -21.5t61 -36.5t66 -45.5t79.5 -56.5t92 -62.5l-3 -12l-15 -2q-74 -9 -160.5 -38t-151 -57.5t-146 -51.5t-152.5 -23l-9 7l10 7q69 0 149.5 22t144.5 50t151 57t162 39q-43 30 -102 72t-89 62.5t-68 43.5t-67.5 32t-59.5 9q-55 0 -108 -35
l-7 12q55 37 115 37zM362 -101l-14 -18l-17 14l14 18zM252 -106l-14 -19l-17 14l14 19zM344 -209l14 18l17 -14l-14 -18zM234 -215l14 18l17 -14l-14 -18z" />
    <glyph glyph-name="uniFB81" unicode="&#x687;" horiz-adv-x="767" arabic-form="medial" 
d="M769 14l8 -7l-10 -7q-209 0 -262 193q-55 -15 -124 -49.5t-121.5 -65t-123 -54.5t-136.5 -24l-9 7l10 7q59 0 119 18.5t113 46.5t105 56.5t113.5 52t120.5 29.5q-68 33 -149 83.5t-131.5 75.5t-95.5 25q-55 0 -107 -35l-7 13q55 36 114 36q38 0 82 -18.5t82.5 -44
t104.5 -64.5t127 -68l-2 -13l-19 -1q-27 -3 -55 -10q52 -182 253 -182zM438 -51l-15 -18l-16 14l14 18zM327 -56l-14 -19l-17 14l15 19zM420 -159l14 18l17 -14l-15 -18zM309 -165l15 18l16 -14l-14 -18z" />
    <glyph glyph-name="uniFB83" unicode="&#x68d;" horiz-adv-x="504" arabic-form="final" 
d="M505 14l8 -7l-9 -7q-25 0 -44 4t-33 12t-23.5 20.5t-17.5 29.5q-78 -78 -201 -78q-76 0 -156 31l6 14q73 -30 151 -30q117 0 195 74l-153 388l14 7l147 -381q17 -45 42 -61t74 -16zM238 -142l14 19l17 -14l-14 -19zM128 -147l14 18l17 -14l-15 -18z" />
    <glyph glyph-name="uniFB85" unicode="&#x68c;" horiz-adv-x="504" arabic-form="final" 
d="M210 633l-15 -18l-16 14l14 18zM99 627l-14 -18l-17 14l15 18zM505 14l8 -7l-9 -7q-25 0 -44 4t-33 12t-23.5 20.5t-17.5 29.5q-78 -78 -201 -78q-76 0 -156 31l6 14q73 -30 151 -30q117 0 195 74l-153 388l14 7l147 -381q17 -45 42 -61t74 -16z" />
    <glyph glyph-name="uniFB87" unicode="&#x68e;" horiz-adv-x="504" arabic-form="final" 
d="M154 734l-15 -18l-16 14l14 18zM212 644l-14 -18l-17 14l15 18zM102 638l-14 -18l-17 14l14 18zM505 14l8 -7l-9 -7q-25 0 -44 4t-33 12t-23.5 20.5t-17.5 29.5q-78 -78 -201 -78q-76 0 -156 31l6 14q73 -30 151 -30q117 0 195 74l-153 388l14 7l147 -381
q9 -23 18.5 -37.5t23.5 -23.5t31.5 -12.5t42.5 -3.5z" />
    <glyph glyph-name="uniFB89" unicode="&#x688;" horiz-adv-x="504" arabic-form="final" 
d="M275 623q-5 -22 -28 -39t-64 -17h-125l1 10h20q10 19 20 35l-6 150h10l3 -138q51 81 106 81q30 0 46.5 -21t16.5 -61zM88 577h93q68 0 85 43q0 75 -55 75q-62 0 -123 -118zM505 14l8 -7l-9 -7q-33 0 -56 7t-37.5 21.5t-24.5 37.5q-78 -78 -201 -78q-76 0 -156 31l6 14
q73 -30 151 -30q117 0 195 74l-153 388l14 7l147 -381q11 -31 26 -47t35.5 -23t54.5 -7z" />
    <glyph glyph-name="uniFB8B" unicode="&#x698;" horiz-adv-x="406" arabic-form="final" 
d="M243 526l-15 -18l-16 14l14 18zM301 436l-14 -18l-17 14l15 18zM191 430l-14 -18l-17 14l14 18zM406 14l9 -7l-9 -7q-36 0 -56 8t-34 27q-41 -81 -121 -148.5t-217 -137.5l-7 15q135 66 215 133t122 147q-20 106 -60 212l16 7q27 -80 53 -204q6 -16 16 -25.5t28 -14.5
t45 -5z" />
    <glyph glyph-name="uniFB8D" unicode="&#x691;" horiz-adv-x="406" arabic-form="final" 
d="M364 414q-5 -22 -28 -38.5t-64 -16.5h-125l1 9h20q10 19 20 36l-6 150h10l3 -139q51 82 106 82q20 0 34 -9t21.5 -28t7.5 -46zM177 368h93q68 0 86 44q0 75 -56 75q-62 0 -123 -119zM406 14l9 -7l-9 -7q-36 0 -56 8t-34 27q-41 -81 -121 -148.5t-217 -137.5l-7 15
q135 66 215 133t122 147q-20 106 -60 212l16 7q27 -80 53 -204q4 -12 11 -20t17.5 -14t25.5 -8.5t35 -2.5z" />
    <glyph glyph-name="uniFB8F" unicode="&#x6a9;" horiz-adv-x="962" arabic-form="final" 
d="M963 14l8 -7l-9 -7q-30 0 -53.5 6t-42 15.5t-43.5 34.5t-45.5 49t-59.5 73q-20 -48 -46.5 -80.5t-70.5 -58.5t-111 -38.5t-160 -12.5q-264 0 -264 170q0 72 35 145l10 -3q-32 -71 -32 -141q0 -157 253 -157q90 0 155.5 12t108 37.5t68.5 57.5t46 79l-213 267l3 13
l380 272l-2 -16l-368 -264l186 -234q41 -52 61.5 -77t47.5 -54.5t41.5 -40.5t35 -23t38.5 -14.5t43 -2.5z" />
    <glyph glyph-name="uniFB90" unicode="&#x6a9;" horiz-adv-x="455" arabic-form="initial" 
d="M389 740l-2 -15l-367 -264q283 -177 306 -365q-42 -41 -124.5 -68.5t-201.5 -27.5l-9 7l10 7q207 0 312 85q-24 180 -307 356l3 13z" />
    <glyph glyph-name="uniFB91" unicode="&#x6a9;" horiz-adv-x="529" arabic-form="medial" 
d="M530 14l8 -7l-9 -7q-30 0 -53 6t-42 15.5t-44 34.5t-45 49t-59 73q-39 -91 -106.5 -134.5t-179.5 -43.5l-9 7l10 7q108 0 173 42.5t103 131.5l-212 267l2 13l380 272l-1 -16l-369 -264l186 -234q42 -52 62.5 -77t47 -54.5t41 -40.5t35.5 -23t39 -14.5t42 -2.5z" />
    <glyph glyph-name="uniFB93" unicode="&#x6af;" horiz-adv-x="962" arabic-form="final" 
d="M880 859l-1 -12l-375 -273l2 13zM963 14l8 -7l-9 -7q-30 0 -53.5 6t-42 15.5t-43.5 34.5t-45.5 49t-59.5 73q-20 -48 -46.5 -80.5t-70.5 -58.5t-111 -38.5t-160 -12.5q-264 0 -264 170q0 72 35 145l10 -3q-32 -71 -32 -141q0 -157 253 -157q90 0 155.5 12t108 37.5
t68.5 57.5t46 79l-213 267l3 13l380 272l-2 -16l-368 -264l186 -234q41 -52 61.5 -77t47.5 -54.5t41.5 -40.5t35 -23t38.5 -14.5t43 -2.5z" />
    <glyph glyph-name="uniFB94" unicode="&#x6af;" horiz-adv-x="455" arabic-form="initial" 
d="M389 859l-1 -12l-376 -273l3 13zM6 455l3 13l380 272l-2 -15l-367 -264q283 -177 306 -365q-42 -41 -124.5 -68.5t-201.5 -27.5l-9 7l10 7q207 0 312 85q-24 180 -307 356z" />
    <glyph glyph-name="uniFB95" unicode="&#x6af;" horiz-adv-x="529" arabic-form="medial" 
d="M452 859l-1 -12l-376 -273l3 13zM530 14l8 -7l-9 -7q-30 0 -53 6t-42 15.5t-44 34.5t-45 49t-59 73q-39 -91 -106.5 -134.5t-179.5 -43.5l-9 7l10 7q108 0 173 42.5t103 131.5l-212 267l2 13l380 272l-1 -16l-369 -264l186 -234q42 -52 62.5 -77t47 -54.5t41 -40.5
t35.5 -23t39 -14.5t42 -2.5z" />
    <glyph glyph-name="uniFB97" unicode="&#x6b3;" horiz-adv-x="962" arabic-form="final" 
d="M880 859l-1 -12l-375 -273l2 13zM963 14l8 -7l-9 -7q-30 0 -53.5 6t-42 15.5t-43.5 34.5t-45.5 49t-59.5 73q-20 -48 -46.5 -80.5t-70.5 -58.5t-111 -38.5t-160 -12.5q-264 0 -264 170q0 72 35 145l10 -3q-32 -71 -32 -141q0 -157 253 -157q90 0 155.5 12t108 37.5
t68.5 57.5t46 79l-213 267l3 13l380 272l-2 -16l-368 -264l186 -234q41 -52 61.5 -77t47.5 -54.5t41.5 -40.5t35 -23t38.5 -14.5t43 -2.5zM383 -126l-15 -18l-16 14l14 18zM365 -234l14 18l17 -14l-15 -18z" />
    <glyph glyph-name="uniFB98" unicode="&#x6b3;" horiz-adv-x="455" arabic-form="initial" 
d="M389 859l-1 -12l-376 -273l3 13zM6 455l3 13l380 272l-2 -15l-367 -264q283 -177 306 -365q-42 -41 -124.5 -68.5t-201.5 -27.5l-9 7l10 7q207 0 312 85q-24 180 -307 356zM145 -126l-14 -18l-17 14l14 18zM127 -234l14 18l17 -14l-14 -18z" />
    <glyph glyph-name="uniFB99" unicode="&#x6b3;" horiz-adv-x="529" arabic-form="medial" 
d="M452 859l-1 -12l-376 -273l3 13zM530 14l8 -7l-9 -7q-30 0 -53 6t-42 15.5t-44 34.5t-45 49t-59 73q-39 -91 -106.5 -134.5t-179.5 -43.5l-9 7l10 7q108 0 173 42.5t103 131.5l-212 267l2 13l380 272l-1 -16l-369 -264l186 -234q42 -52 62.5 -77t47 -54.5t41 -40.5
t35.5 -23t39 -14.5t42 -2.5zM279 -126l-14 -18l-17 14l14 18zM261 -234l14 18l17 -14l-14 -18z" />
    <glyph glyph-name="uniFB9B" unicode="&#x6b1;" horiz-adv-x="962" arabic-form="final" 
d="M504 574l2 13l374 272l-1 -12zM623 815l-15 -18l-16 14l14 18zM512 809l-14 -18l-17 14l15 18zM963 14l8 -7l-9 -7q-30 0 -53.5 6t-42 15.5t-43.5 34.5t-45.5 49t-59.5 73q-20 -48 -46.5 -80.5t-70.5 -58.5t-111 -38.5t-160 -12.5q-264 0 -264 170q0 72 35 145l10 -3
q-32 -71 -32 -141q0 -157 253 -157q90 0 155.5 12t108 37.5t68.5 57.5t46 79l-213 267l3 13l380 272l-2 -16l-368 -264l186 -234q41 -52 61.5 -77t47.5 -54.5t41.5 -40.5t35 -23t38.5 -14.5t43 -2.5z" />
    <glyph glyph-name="uniFB9C" unicode="&#x6b1;" horiz-adv-x="455" arabic-form="initial" 
d="M389 859l-1 -12l-376 -273l3 13zM175 815l-14 -18l-17 14l14 18zM65 809l-14 -18l-17 14l14 18zM6 455l3 13l380 272l-2 -15l-367 -264q283 -177 306 -365q-42 -41 -124.5 -68.5t-201.5 -27.5l-9 7l10 7q207 0 312 85q-24 180 -307 356z" />
    <glyph glyph-name="uniFB9D" unicode="&#x6b1;" horiz-adv-x="529" arabic-form="medial" 
d="M452 859l-1 -12l-376 -273l3 13zM157 815l-14 -18l-17 14l14 18zM47 809l-15 -18l-16 14l14 18zM530 14l8 -7l-9 -7q-30 0 -53 6t-42 15.5t-44 34.5t-45 49t-59 73q-39 -91 -106.5 -134.5t-179.5 -43.5l-9 7l10 7q108 0 173 42.5t103 131.5l-212 267l2 13l380 272l-1 -16
l-369 -264l186 -234q42 -52 62.5 -77t47 -54.5t41 -40.5t35.5 -23t39 -14.5t42 -2.5z" />
    <glyph glyph-name="uniFB9F" unicode="&#x6ba;" horiz-adv-x="666" arabic-form="final" 
d="M666 14l9 -7l-9 -7q-31 0 -55.5 13.5t-38.5 35.5q6 -45 6 -107q-9 -64 -89.5 -120.5t-191.5 -56.5q-61 0 -106.5 15t-72.5 42.5t-39.5 63.5t-12.5 80q0 88 35 172l10 -3q-33 -84 -33 -168q0 -87 52.5 -137.5t167.5 -50.5q100 0 173 47.5t95 104.5q1 45 -3.5 85.5
t-8.5 66.5t-16 59.5t-17 46t-20.5 45t-18.5 39.5l14 6q21 -46 29 -64t21 -55.5t20 -70.5q7 -35 33.5 -55t66.5 -20z" />
    <glyph glyph-name="uniFBA1" unicode="&#x6bb;" horiz-adv-x="666" arabic-form="final" 
d="M421 362q-5 -22 -28 -39t-64 -17h-125l1 10h20q10 19 20 35l-6 151h10l3 -139q51 81 106 81q30 0 46.5 -21t16.5 -61zM234 316h93q68 0 85 44q0 74 -55 74q-62 0 -123 -118zM666 14l9 -7l-9 -7q-31 0 -55.5 13.5t-38.5 35.5q6 -45 6 -107q-9 -64 -89.5 -120.5
t-191.5 -56.5q-61 0 -106.5 15t-72.5 42.5t-39.5 63.5t-12.5 80q0 88 35 172l10 -3q-33 -84 -33 -168q0 -87 52.5 -137.5t167.5 -50.5q100 0 173 47.5t95 104.5q1 45 -3.5 85.5t-8.5 66.5t-16 59.5t-17 46t-20.5 45t-18.5 39.5l14 6q21 -46 29 -64t21 -55.5t20 -70.5
q7 -35 33.5 -55t66.5 -20z" />
    <glyph glyph-name="uniFBA2" unicode="&#x6bb;" horiz-adv-x="260" arabic-form="initial" 
d="M166 594q14 0 26 -5t20 -15.5t12.5 -26t4.5 -35.5q-5 -22 -28 -39t-64 -17h-125l1 10h20q10 19 20 35l-6 151h9l4 -139q51 81 106 81zM135 466q67 0 85 44q0 74 -55 74q-62 0 -123 -118h93zM115 369l14 5q51 -149 50 -290q-19 -40 -71.5 -62t-107.5 -22l-9 7l10 7
q109 0 165 66q2 140 -51 289z" />
    <glyph glyph-name="uniFBA3" unicode="&#x6bb;" horiz-adv-x="285" arabic-form="medial" 
d="M233 434q-2 -10 -8 -19t-16.5 -17.5t-28 -14t-39.5 -5.5h-125l1 10h21q10 20 19 35l-6 151h10l3 -139q52 81 106 81q30 0 46.5 -21t16.5 -61zM46 388h94q67 0 85 44q0 74 -55 74q-62 0 -124 -118zM286 14l8 -7l-9 -7q-55 0 -92.5 19t-49.5 40q-11 -22 -55 -40.5
t-89 -18.5l-8 7l9 7q45 0 86 19t50 37l-20 235h14l19 -235q6 -8 16 -17t26.5 -18t41 -15t53.5 -6z" />
    <glyph glyph-name="uniFBA5" unicode="&#x6c0;" horiz-adv-x="479" arabic-form="final" 
d="M422 604v-10l-177 -28v10l80 13q-62 36 -62 82q0 19 8.5 34t27.5 24.5t46 9.5q28 0 54 -13l-2 -9q-27 12 -52 12q-35 0 -53.5 -16.5t-18.5 -41.5q0 -44 65 -80zM480 14l8 -7l-9 -7h-5q-59 0 -93 26.5t-40 75.5q-17 -15 -40.5 -28t-58 -23t-70.5 -10q-56 0 -97 26.5
t-46 54.5q0 60 41.5 110t108 82.5t153.5 50.5l-4 115l13 1l10 -356q3 -111 124 -111h5zM41 121q11 -23 46.5 -44.5t86.5 -21.5q95 0 166 60l-8 237q-130 -28 -210 -87t-81 -144z" />
    <glyph glyph-name="uniFBA7" unicode="&#x6c1;" horiz-adv-x="523" arabic-form="final" 
d="M44 -26l-15 2q36 122 80.5 180.5t100.5 58.5q25 0 45 -8.5t33.5 -23t28 -32.5t26.5 -36.5t29.5 -36.5t37 -32.5t49 -23t65.5 -8.5l8 -7l-9 -7q-42 0 -76 11t-55 29t-38.5 39t-31.5 42.5t-29 39.5t-35.5 29t-47.5 11q-53 0 -93.5 -57.5t-72.5 -169.5z" />
    <glyph glyph-name="uniFBA8" unicode="&#x6c1;" horiz-adv-x="260" arabic-form="initial" 
d="M0 0l-9 7l10 7q109 0 165 66q2 140 -51 289l14 5q51 -149 50 -290q-19 -40 -71.5 -62t-107.5 -22zM73 -244l-14 4q6 105 56 189l10 -2q-48 -93 -52 -191z" />
    <glyph glyph-name="uniFBA9" unicode="&#x6c1;" horiz-adv-x="526" arabic-form="medial" 
d="M527 14l8 -7l-9 -7h-23q-71 0 -114.5 -50t-43.5 -161q0 -33 5 -72l-11 -5q-145 141 -145 329q0 44 8 87q-28 -72 -73.5 -100t-105.5 -28h-23l-9 7l10 7h23q68 0 117 42t75 148l16 62l17 -4q-2 -6 -8.5 -31t-8.5 -33t-7 -29t-6.5 -32t-4.5 -28.5t-3.5 -33t-0.5 -32.5
q0 -173 125 -308q-2 29 -2 57q0 59 13 102.5t37 69.5t54 38t68 12h22z" />
    <glyph glyph-name="uniFBAB" unicode="&#x6be;" horiz-adv-x="551" arabic-form="final" 
d="M560 7l-9 -7h-193q59 -17 96 -58.5t37 -113.5q-5 -27 -38.5 -49.5t-83.5 -22.5q-82 0 -135 69t-54 175q-80 1 -134 25l6 12q51 -22 128 -23q1 56 19 113t47 101t66.5 71.5t74.5 27.5q43 0 71.5 -36.5t28.5 -95t-40.5 -111t-104.5 -70.5h211zM386 313q-46 0 -90.5 -43.5
t-73 -113.5t-29.5 -142h87q84 0 139 55.5t55 124.5q0 53 -25.5 86t-62.5 33zM479 -175q0 44 -16.5 79t-44 55.5t-60 30.5t-69.5 10h-96q1 -67 23 -119t61.5 -81.5t90.5 -29.5q45 0 74.5 17.5t36.5 37.5z" />
    <glyph glyph-name="uniFBAC" unicode="&#x6be;" horiz-adv-x="635" arabic-form="initial" 
d="M126 493q70 -36 132.5 -75.5t117 -84t93.5 -89t61.5 -92t22.5 -91.5q-6 -19 -27 -35.5t-54 -27t-71 -10.5q-97 0 -184 49q-86 -37 -204 -37h-13l-9 7l10 7h11q110 0 190 31q-58 36 -92 86.5t-34 109.5q0 69 43 116.5t108 47.5q16 0 31 -4q-65 42 -139 80zM89 241
q0 -58 35 -107t93 -83q69 31 104.5 80.5t35.5 105.5q0 65 -37 111t-93 46q-60 0 -99 -44t-39 -109zM401 2q48 0 86.5 16t55.5 42q-2 68 -57.5 142t-151.5 146q35 -47 35 -110q0 -58 -35 -109.5t-102 -84.5q81 -42 169 -42z" />
    <glyph glyph-name="uniFBAD" unicode="&#x6be;" horiz-adv-x="474" arabic-form="medial" 
d="M483 7l-9 -7h-193q59 -17 96 -58.5t37 -113.5q-5 -27 -38.5 -49.5t-83.5 -22.5q-82 0 -135 69t-54 175h-103l-9 7l10 7h102q1 55 19 112.5t47 101.5t66.5 71.5t74.5 27.5q43 0 71.5 -36.5t28.5 -95t-40.5 -111t-104.5 -70.5h211zM309 313q-46 0 -90.5 -43.5t-73 -113.5
t-29.5 -142h87q84 0 139 55.5t55 124.5q0 53 -25.5 86t-62.5 33zM402 -175q0 44 -16.5 79t-44 55.5t-60 30.5t-69.5 10h-18h-78q2 -102 50 -166t125 -64q24 0 44 5.5t33.5 14t22 17.5t11.5 18z" />
    <glyph glyph-name="uniFBAF" unicode="&#x6d2;" horiz-adv-x="715" arabic-form="final" 
d="M686 -231h-486q-80 0 -116.5 19t-36.5 62q0 28 21.5 55t64.5 52.5t120.5 41t177.5 15.5h285l8 -7l-9 -7h-288q-95 0 -169 -14.5t-115.5 -37.5t-61.5 -47.5t-20 -49.5t14 -40t43.5 -21.5t79.5 -6.5h493z" />
    <glyph glyph-name="uniFBB1" unicode="&#x6d3;" horiz-adv-x="715" arabic-form="final" 
d="M220 202l84 13v-10l-177 -28v10l80 13q-62 36 -62 82q0 29 21 48.5t61 19.5q28 0 54 -13l-2 -9q-27 12 -52 12q-35 0 -53.5 -16.5t-18.5 -41.5q0 -44 65 -80zM686 -231h-486q-53 0 -86.5 8.5t-50 26t-16.5 46.5q0 28 21.5 55t64.5 52.5t120.5 41t177.5 15.5h285l8 -7
l-9 -7h-288q-95 0 -169 -14.5t-115.5 -37.5t-61.5 -47.5t-20 -49.5t14 -40t43.5 -21.5t79.5 -6.5h493z" />
    <glyph glyph-name="uniFBD4" unicode="&#x6ad;" horiz-adv-x="818" arabic-form="final" 
d="M683 970l-14 -18l-17 14l14 18zM742 880l-15 -18l-16 14l14 18zM631 874l-14 -18l-17 14l15 18zM819 14l8 -7l-9 -7q-30 0 -54.5 10.5t-39 27t-22 29.5t-10.5 25q-128 -104 -362 -104q-264 0 -264 170q0 72 35 145l10 -3q-32 -71 -32 -141q0 -157 253 -157q230 0 357 104
l-2 625l14 2v-618q0 -10 6 -25.5t18 -33.5t37 -30t57 -12zM307 286l-2 11q116 0 169 42q0 11 -12 24.5t-30.5 27t-43 26.5t-48.5 22l3 12l148 85v-12l-138 -78q52 -23 91 -52t39 -53q-13 -24 -58.5 -39.5t-117.5 -15.5z" />
    <glyph glyph-name="uniFBD5" unicode="&#x6ad;" horiz-adv-x="455" arabic-form="initial" 
d="M22 833l-15 -18l-16 14l14 18zM80 743l-14 -19l-17 14l15 19zM-61 733l14 18l17 -14l-14 -18zM389 740l-2 -15l-367 -264q283 -177 306 -365q-42 -41 -124.5 -68.5t-201.5 -27.5l-9 7l10 7q207 0 312 85q-24 180 -307 356l3 13z" />
    <glyph glyph-name="uniFBD6" unicode="&#x6ad;" horiz-adv-x="529" arabic-form="medial" 
d="M76 833l-14 -18l-17 14l14 18zM135 743l-15 -19l-16 14l14 19zM24 737l-14 -18l-17 14l15 18zM530 14l8 -7l-9 -7q-30 0 -53 6t-42 15.5t-44 34.5t-45 49t-59 73q-39 -91 -106.5 -134.5t-179.5 -43.5l-9 7l10 7q108 0 173 42.5t103 131.5l-212 267l2 13l380 272l-1 -16
l-369 -264l186 -234q42 -52 62.5 -77t47 -54.5t41 -40.5t35.5 -23t39 -14.5t42 -2.5z" />
    <glyph glyph-name="uniFBD8" unicode="&#x6c7;" horiz-adv-x="508" arabic-form="final" 
d="M180 394l-4 9q59 23 96 55q-40 10 -59.5 31t-19.5 48q0 31 20 49.5t47 18.5q22 0 37 -10.5t22 -26t7 -35.5q0 -39 -42 -76.5t-104 -62.5zM204 537q0 -55 76 -72q36 34 36 68q0 26 -14 44t-42 18q-24 0 -40 -16t-16 -42zM517 7l-9 -7h-103q-17 -94 -99 -156.5t-235 -82.5
l-5 14q288 38 326 225h-90q-98 0 -156 42t-58 109q0 70 48.5 124.5t104.5 54.5q31 0 60.5 -18.5t54 -52.5t39.5 -87t15 -116q0 -22 -3 -42h103zM394 14q3 18 3 37q0 122 -47.5 193.5t-108.5 71.5q-51 0 -95.5 -50t-44.5 -114q0 -62 54 -100t150 -38h89z" />
    <glyph glyph-name="uniFBDA" unicode="&#x6c6;" horiz-adv-x="508" arabic-form="final" 
d="M257 394h-11l-78 136l9 4l74 -128l74 128l9 -4zM517 7l-9 -7h-103q-17 -94 -99 -156.5t-235 -82.5l-5 14q288 38 326 225h-90q-98 0 -156 42t-58 109q0 70 48.5 124.5t104.5 54.5q65 0 117 -75t52 -199q0 -22 -2 -42h102zM394 14q3 18 3 37q0 62 -14 113.5t-36.5 84
t-50 50t-55.5 17.5q-51 0 -95.5 -50t-44.5 -114q0 -62 54 -100t150 -38h89z" />
    <glyph glyph-name="uniFBDC" unicode="&#x6c8;" horiz-adv-x="508" arabic-form="final" 
d="M260 406h-11l-6 148l11 1zM517 7l-9 -7h-103q-17 -94 -99 -156.5t-235 -82.5l-5 14q288 38 326 225h-90q-98 0 -156 42t-58 109q0 70 48.5 124.5t104.5 54.5q65 0 117 -75t52 -199q0 -22 -2 -42h102zM394 14q3 18 3 37q0 62 -14 113.5t-36.5 84t-50 50t-55.5 17.5
q-51 0 -95.5 -50t-44.5 -114q0 -62 54 -100t150 -38h89z" />
    <glyph glyph-name="uniFBDF" unicode="&#x6cb;" horiz-adv-x="508" arabic-form="final" 
d="M240 569l-15 -18l-16 14l14 18zM298 478l-14 -18l-17 14l15 18zM188 473l-14 -18l-17 14l14 18zM517 7l-9 -7h-103q-17 -94 -99 -156.5t-235 -82.5l-5 14q288 38 326 225h-90q-98 0 -156 42t-58 109q0 70 48.5 124.5t104.5 54.5q31 0 60.5 -18.5t54 -52.5t39.5 -87
t15 -116q0 -22 -3 -42h103zM394 14q3 18 3 37q0 62 -14 113.5t-36.5 84t-50 50t-55.5 17.5q-51 0 -95.5 -50t-44.5 -114q0 -62 54 -100t150 -38h89z" />
    <glyph glyph-name="uniFBE1" unicode="&#x6c5;" horiz-adv-x="508" arabic-form="final" 
d="M517 7l-9 -7h-103q-17 -94 -99 -156.5t-235 -82.5l-5 14q162 21 246 91l-207 5l-6 13l226 -7q52 51 67 123h-90q-98 0 -156 42t-58 109q0 70 48.5 124.5t104.5 54.5q31 0 60.5 -18.5t54 -52.5t39.5 -87t15 -116q0 -22 -3 -42h103zM394 14q3 18 3 37q0 122 -47.5 193.5
t-108.5 71.5q-51 0 -95.5 -50t-44.5 -114q0 -62 54 -100t150 -38h89z" />
    <glyph glyph-name="uniFBE3" unicode="&#x6c9;" horiz-adv-x="508" arabic-form="final" 
d="M251 532l-74 -128l-9 4l78 136h11l77 -136l-9 -4zM517 7l-9 -7h-103q-17 -94 -99 -156.5t-235 -82.5l-5 14q288 38 326 225h-90q-98 0 -156 42t-58 109q0 70 48.5 124.5t104.5 54.5q31 0 60.5 -18.5t54 -52.5t39.5 -87t15 -116q0 -22 -3 -42h103zM394 14q3 18 3 37
q0 62 -14 113.5t-36.5 84t-50 50t-55.5 17.5q-51 0 -95.5 -50t-44.5 -114q0 -62 54 -100t150 -38h89z" />
    <glyph glyph-name="uniFBE5" unicode="&#x6d0;" horiz-adv-x="698" arabic-form="final" 
d="M707 7l-9 -7q-64 0 -152 37q30 -19 43 -44t12 -68q-7 -14 -30 -31.5t-60 -36t-94 -30.5t-120 -12q-120 0 -175.5 54t-55.5 146q0 89 35 173l10 -4q-33 -83 -33 -168q0 -86 52.5 -136.5t167.5 -50.5q60 0 112.5 10.5t88 26.5t57 30.5t33.5 26.5q0 34 -5.5 53.5t-27 40
t-59.5 38t-106 41.5l8 11q48 -17 101.5 -38.5t77.5 -31t56 -16.5t66 -7zM314 -306l-14 -18l-17 14l14 18zM296 -415l14 18l17 -14l-14 -18z" />
    <glyph glyph-name="uniFBE6" unicode="&#x6d0;" horiz-adv-x="260" arabic-form="initial" 
d="M0 0l-9 7l10 7q109 0 165 66q2 140 -51 289l14 5q51 -149 50 -290q-19 -40 -71.5 -62t-107.5 -22zM110 -144l-16 14l14 18l17 -14zM123 -248l-16 14l14 18l17 -14z" />
    <glyph glyph-name="uniFBE7" unicode="&#x6d0;" horiz-adv-x="285" arabic-form="medial" 
d="M286 14l8 -7l-9 -7q-55 0 -92.5 19t-49.5 40q-11 -22 -55 -40.5t-89 -18.5l-8 7l9 7q45 0 86 19t50 37l-20 235h14l19 -235q13 -20 48 -38t89 -18zM159 -126l-15 -18l-16 14l14 18zM141 -234l14 18l17 -14l-15 -18z" />
    <glyph glyph-name="uniFBE8" unicode="&#x649;" horiz-adv-x="260" arabic-form="initial" 
d="M0 0l-9 7l10 7q109 0 165 66q2 140 -51 289l14 5q51 -149 50 -290q-19 -40 -71.5 -62t-107.5 -22z" />
    <glyph glyph-name="uniFBE9" unicode="&#x649;" horiz-adv-x="285" arabic-form="medial" 
d="M286 14l8 -7l-9 -7q-55 0 -92.5 19t-49.5 40q-11 -22 -55 -40.5t-89 -18.5l-8 7l9 7q45 0 86 19t50 37l-20 235h14l19 -235q13 -20 48 -38t89 -18z" />
    <glyph glyph-name="uniFBFD" unicode="&#x6cc;" horiz-adv-x="698" arabic-form="final" 
d="M707 7l-9 -7q-64 0 -152 37q30 -19 43 -44t12 -68q-7 -14 -30 -31.5t-60 -36t-94 -30.5t-120 -12q-120 0 -175.5 54t-55.5 146q0 89 35 173l10 -4q-33 -83 -33 -168q0 -86 52.5 -136.5t167.5 -50.5q60 0 112.5 10.5t88 26.5t57 30.5t33.5 26.5q0 34 -5.5 53.5t-27 40
t-59.5 38t-106 41.5l8 11q48 -17 101.5 -38.5t77.5 -31t56 -16.5t66 -7z" />
    <glyph glyph-name="uniFBFE" unicode="&#x6cc;" horiz-adv-x="260" arabic-form="initial" 
d="M0 0l-9 7l10 7q109 0 165 66q2 140 -51 289l14 5q51 -149 50 -290q-19 -40 -71.5 -62t-107.5 -22zM171 -156l-16 14l14 19l17 -14zM61 -161l-17 14l15 18l16 -14z" />
    <glyph glyph-name="uniFBFF" unicode="&#x6cc;" horiz-adv-x="285" arabic-form="medial" 
d="M286 14l8 -7l-9 -7q-55 0 -92.5 19t-49.5 40q-11 -22 -55 -40.5t-89 -18.5l-8 7l9 7q45 0 86 19t50 37l-20 235h14l19 -235q13 -20 48 -38t89 -18zM189 -142l14 19l17 -14l-15 -19zM78 -147l15 18l16 -14l-14 -18z" />
    <glyph glyph-name="uniFC5B" unicode="&#xfc5b;" horiz-adv-x="456" arabic-form="isolated" 
d="M137 882l11 1l6 -149h-11zM150 619l-20 17l16 20l19 -17zM182 -12q-79 0 -153 20l5 15q73 -20 148 -20q72 0 124 24.5t68 60.5q-1 55 -16.5 108t-44 100.5t-58 85.5t-67.5 78l11 12q38 -42 67.5 -80.5t58 -87t44 -102t15.5 -107.5q-7 -46 -65.5 -76.5t-136.5 -30.5z" />
    <glyph glyph-name="uniFC5C" unicode="&#xfc5c;" horiz-adv-x="406" arabic-form="isolated" 
d="M221 552l11 1l6 -149h-11zM-22 -251l-7 15q60 27 114.5 61.5t91.5 63.5t67.5 59t45.5 48t23 30q3 92 -75 274l15 7q74 -187 72 -275q-11 -42 -108 -128.5t-239 -154.5z" />
    <glyph glyph-name="uniFC61" unicode="&#xfc61;" arabic-form="isolated" 
d="M62 777l-4 8q59 24 96 55q-41 10 -60 31.5t-19 48.5q0 30 19.5 48.5t46.5 18.5q33 0 50 -20.5t17 -50.5q0 -40 -42 -77.5t-104 -61.5zM85 919q0 -55 77 -72q36 34 36 68q0 17 -5.5 30.5t-19 22.5t-32.5 9q-23 0 -39.5 -15.5t-16.5 -42.5zM223 740q18 -41 18 -77
q0 -33 -15 -50t-41 -17q-21 0 -34.5 12.5t-17.5 31.5q-4 -20 -18 -32.5t-35 -12.5q-24 0 -39 16.5t-15 50.5q0 29 10 55l10 -2q-9 -22 -9 -51q0 -57 44 -57q22 0 34.5 16.5t12.5 41.5v46h10v-46q0 -25 12 -41.5t34 -16.5q46 0 46 58q0 35 -17 71z" />
    <glyph glyph-name="uniFC63" unicode="&#xfc63;" arabic-form="isolated" 
d="M141 789h-11l-6 148h11zM223 740q18 -41 18 -77q0 -33 -15 -50t-41 -17q-21 0 -34.5 12.5t-17.5 31.5q-4 -20 -18 -32.5t-35 -12.5q-24 0 -39 16.5t-15 50.5q0 29 10 55l10 -2q-9 -22 -9 -51q0 -57 44 -57q22 0 34.5 16.5t12.5 41.5v46h10v-46q0 -25 12 -41.5t34 -16.5
q46 0 46 58q0 35 -17 71z" />
    <glyph glyph-name="uniFD3C" unicode="&#xfd3c;" horiz-adv-x="219" arabic-form="final" 
d="M0 805l1 10l201 39v-10zM0 730l1 10l201 39v-10zM97 124l-2 544l14 2v-545q0 -111 111 -111l8 -7l-9 -7q-58 0 -90 30.5t-32 93.5z" />
    <glyph glyph-name="uniFD3D" unicode="&#xfd3d;" horiz-adv-x="217" arabic-form="isolated" 
d="M-10 759v11l202 39l-1 -10zM-10 684v11l202 39l-1 -10zM109 1l-12 -2l-13 623l14 1z" />
    <glyph glyph-name="uniFE70" unicode="&#xfe70;" horiz-adv-x="600" arabic-form="isolated" 
d="M42 654v10l202 40v-10zM42 579v10l202 40v-10z" />
    <glyph glyph-name="uniFE72" unicode="&#xfe72;" horiz-adv-x="600" arabic-form="isolated" 
d="M239 783q32 0 49 -20.5t17 -46.5q0 -38 -40 -74t-100 -61l-10 4q-1 80 -38 80q-21 0 -49 -32l-7 7q31 35 56 35q46 0 49 -83q54 23 88 53q-27 7 -45 19t-25 25.5t-7 28.5q0 18 8 32.5t22.5 23.5t31.5 9zM263 652q32 32 32 63q0 22 -14.5 39.5t-41.5 17.5q-22 0 -37 -16.5
t-15 -37.5q0 -22 18 -39.5t58 -26.5z" />
    <glyph glyph-name="uniFE74" unicode="&#xfe74;" horiz-adv-x="600" arabic-form="isolated" 
d="M42 -99v10l202 40v-11zM42 -174v10l202 40v-11z" />
    <glyph glyph-name="uniFE76" unicode="&#xfe76;" horiz-adv-x="600" arabic-form="isolated" 
d="M42 603v10l202 40v-11z" />
    <glyph glyph-name="uniFE78" unicode="&#xfe78;" horiz-adv-x="600" arabic-form="isolated" 
d="M111 795q32 0 49 -20.5t17 -51.5q0 -26 -21 -53.5t-53 -48.5t-71 -37l-4 9q58 23 95 55q-40 10 -59 31.5t-19 47.5q0 31 19.5 49.5t46.5 18.5zM131 655q36 34 36 68q0 17 -5.5 30.5t-18.5 22.5t-32 9q-24 0 -40 -16t-16 -42q0 -55 76 -72z" />
    <glyph glyph-name="uniFE7C" unicode="&#xfe7c;" horiz-adv-x="600" arabic-form="isolated" 
d="M223 740q18 -41 18 -77q0 -33 -15 -50t-41 -17q-21 0 -34.5 12.5t-17.5 31.5q-4 -20 -18 -32.5t-35 -12.5q-24 0 -39 16.5t-15 50.5q0 29 10 55l10 -2q-9 -22 -9 -51q0 -57 44 -57q22 0 34.5 16.5t12.5 41.5v46h10v-46q0 -25 12 -41.5t34 -16.5q46 0 46 58q0 35 -17 71z
" />
    <glyph glyph-name="uniFE7E" unicode="&#xfe7e;" horiz-adv-x="600" arabic-form="isolated" 
d="M190 673q0 -19 -7 -35.5t-19 -28t-28.5 -18t-35.5 -6.5q-39 0 -64.5 24.5t-25.5 63.5t25.5 63.5t64.5 24.5t64.5 -24.5t25.5 -63.5zM180 673q0 34 -22.5 56t-57.5 22t-57.5 -22t-22.5 -56t22.5 -56t57.5 -22q23 0 41 10t28.5 27.5t10.5 40.5z" />
    <glyph glyph-name="uniFE82" unicode="&#x622;" horiz-adv-x="219" arabic-form="final" 
d="M9 758l-9 3q6 13 15 23t20.5 15.5t23.5 5.5q15 0 40 -11t41 -11t28.5 5t33.5 18l5 -8q-38 -26 -69 -26q-16 0 -41.5 10.5t-37.5 10.5q-32 0 -50 -35zM97 124l-2 544l14 2v-545q0 -111 111 -111l8 -7l-9 -7q-58 0 -90 30.5t-32 93.5z" />
    <glyph glyph-name="uniFE84" unicode="&#x623;" horiz-adv-x="219" arabic-form="final" 
d="M191 791v-10l-177 -28v10l79 13q-62 36 -62 82q0 29 21.5 48.5t61.5 19.5q27 0 53 -13l-2 -9q-26 12 -51 12q-36 0 -54 -16.5t-18 -41.5q0 -44 64 -80zM220 14l8 -7l-9 -7q-58 0 -90 30.5t-32 93.5l-2 544l14 2v-545q0 -111 111 -111z" />
    <glyph glyph-name="uniFE86" unicode="&#x624;" horiz-adv-x="508" arabic-form="final" 
d="M340 452v-11l-177 -27v10l79 12q-62 36 -62 83q0 28 21.5 48t61.5 20q27 0 53 -13l-2 -10q-26 13 -51 13q-36 0 -54 -17t-18 -41q0 -45 64 -81zM517 7l-9 -7h-103q-17 -94 -99 -156.5t-235 -82.5l-5 14q288 38 326 225h-90q-98 0 -156 42t-58 109q0 70 48.5 124.5
t104.5 54.5q65 0 117 -75t52 -199q0 -22 -2 -42h102zM394 14q3 18 3 37q0 122 -47.5 193.5t-108.5 71.5q-51 0 -95.5 -50t-44.5 -114q0 -62 54 -100t150 -38h89z" />
    <glyph glyph-name="uniFE88" unicode="&#x625;" horiz-adv-x="214" arabic-form="final" 
d="M214 0q-57 0 -86 30t-31 94l-12 609l14 1l10 -609q1 -59 27 -85t79 -26l8 -7zM69 -132q0 -44 64 -80l85 13v-10l-177 -28v10l79 13q-62 36 -62 82q0 29 21.5 48.5t61.5 19.5q28 0 54 -13l-3 -9q-26 13 -51 13q-36 0 -54 -17t-18 -42z" />
    <glyph glyph-name="uniFE8A" unicode="&#x626;" horiz-adv-x="698" arabic-form="final" 
d="M219 349v-11l-177 -27v10l80 12q-62 36 -62 83q0 28 21 48t61 20q28 0 54 -13l-2 -10q-27 13 -52 13q-18 0 -32 -5t-22.5 -13t-13 -18.5t-4.5 -21.5q0 -45 65 -81zM707 7l-9 -7q-64 0 -152 37q30 -19 43 -44t12 -68q-7 -14 -30 -31.5t-60 -36t-94 -30.5t-120 -12
q-120 0 -175.5 54t-55.5 146q0 89 35 173l10 -4q-33 -83 -33 -168q0 -86 52.5 -136.5t167.5 -50.5q60 0 112.5 10.5t88 26.5t57 30.5t33.5 26.5q0 34 -5.5 53.5t-27 40t-59.5 38t-106 41.5l8 11q48 -17 101.5 -38.5t77.5 -31t56 -16.5t66 -7z" />
    <glyph glyph-name="uniFE8B" unicode="&#x626;" horiz-adv-x="260" arabic-form="initial" 
d="M123 493l84 13v-10l-177 -27v10l80 12q-62 36 -62 83q0 28 21 48t61 20q28 0 54 -13l-2 -10q-27 13 -52 13q-35 0 -53.5 -17t-18.5 -41q0 -45 65 -81zM115 369l14 5q51 -149 50 -290q-19 -40 -71.5 -62t-107.5 -22l-9 7l10 7q109 0 165 66q2 140 -51 289z" />
    <glyph glyph-name="uniFE8C" unicode="&#x626;" horiz-adv-x="285" arabic-form="medial" 
d="M212 429v-10l-177 -28v10l79 12q-62 36 -62 83q0 29 21.5 48.5t61.5 19.5q28 0 54 -13l-3 -10q-26 13 -51 13q-36 0 -54 -16.5t-18 -41.5q0 -45 64 -80zM286 14l8 -7l-9 -7q-55 0 -92.5 19t-49.5 40q-11 -22 -55 -40.5t-89 -18.5l-8 7l9 7q45 0 86 19t50 37l-20 235h14
l19 -235q8 -12 23 -23.5t45.5 -22t68.5 -10.5z" />
    <glyph glyph-name="uniFE8E" unicode="&#x627;" horiz-adv-x="214" arabic-form="final" 
d="M97 124l-12 609l14 1l10 -609q1 -59 27 -85t79 -26l8 -7l-9 -7q-57 0 -86 30t-31 94z" />
    <glyph glyph-name="uniFE90" unicode="&#x628;" horiz-adv-x="853" arabic-form="final" 
d="M854 14l8 -7l-9 -7q-23 0 -43 5t-34 13.5t-25 18t-18 21t-11 19t-7 15.5q-132 -104 -385 -104q-264 0 -264 170q0 72 35 145l10 -3q-32 -71 -32 -141q0 -157 253 -157q252 0 378 103l-27 200h14l24 -190q2 -11 8.5 -25.5t20 -33t41 -30.5t63.5 -12zM333 -129l16 20
l19 -17l-15 -20z" />
    <glyph glyph-name="uniFE91" unicode="&#x628;" horiz-adv-x="260" arabic-form="initial" 
d="M0 0l-9 7l10 7q109 0 165 66q2 140 -51 289l14 5q51 -149 50 -290q-19 -40 -71.5 -62t-107.5 -22zM114 -146l-19 17l15 20l19 -17z" />
    <glyph glyph-name="uniFE92" unicode="&#x628;" horiz-adv-x="285" arabic-form="medial" 
d="M286 14l8 -7l-9 -7q-55 0 -92.5 19t-49.5 40q-11 -22 -55 -40.5t-89 -18.5l-8 7l9 7q45 0 86 19t50 37l-20 235h14l19 -235q13 -20 48 -38t89 -18zM128 -129l16 20l19 -17l-15 -20z" />
    <glyph glyph-name="uniFE94" unicode="&#x629;" horiz-adv-x="479" arabic-form="final" 
d="M378 620l-14 -18l-17 14l15 18zM268 614l-14 -18l-17 14l14 18zM480 14l8 -7l-9 -7h-5q-59 0 -93 26.5t-40 75.5q-28 -24 -72.5 -42.5t-96.5 -18.5q-56 0 -97 26.5t-46 54.5q0 60 41.5 110t108 82.5t153.5 50.5l-4 115l13 1l10 -356q3 -111 124 -111h5zM41 121
q11 -23 46.5 -44.5t86.5 -21.5q95 0 166 60l-8 237q-130 -28 -210 -87t-81 -144z" />
    <glyph glyph-name="uniFE96" unicode="&#x62a;" horiz-adv-x="853" arabic-form="final" 
d="M446 431l-15 -18l-16 14l14 18zM335 425l-14 -18l-17 14l15 18zM854 14l8 -7l-9 -7q-34 0 -60.5 10.5t-42 27t-23 29t-12.5 25.5q-132 -104 -385 -104q-264 0 -264 170q0 72 35 145l10 -3q-32 -71 -32 -141q0 -157 253 -157q252 0 378 103l-27 200h14l24 -190
q2 -11 8.5 -25.5t20 -33t41 -30.5t63.5 -12z" />
    <glyph glyph-name="uniFE97" unicode="&#x62a;" horiz-adv-x="260" arabic-form="initial" 
d="M149 504l-17 14l15 18l16 -14zM39 498l-17 14l14 18l17 -14zM0 0l-9 7l10 7q109 0 165 66q2 140 -51 289l14 5q51 -149 50 -290q-19 -40 -71.5 -62t-107.5 -22z" />
    <glyph glyph-name="uniFE98" unicode="&#x62a;" horiz-adv-x="285" arabic-form="medial" 
d="M168 444l-14 -18l-17 14l14 18zM58 439l-15 -18l-16 14l14 18zM286 14l8 -7l-9 -7q-55 0 -92.5 19t-49.5 40q-11 -22 -55 -40.5t-89 -18.5l-8 7l9 7q45 0 86 19t50 37l-20 235h14l19 -235q13 -20 48 -38t89 -18z" />
    <glyph glyph-name="uniFE9A" unicode="&#x62b;" horiz-adv-x="853" arabic-form="final" 
d="M390 533l-15 -19l-16 14l14 19zM448 442l-14 -18l-17 14l15 18zM338 437l-14 -19l-17 14l14 19zM854 14l8 -7l-9 -7q-34 0 -60.5 10.5t-42 27t-23 29t-12.5 25.5q-132 -104 -385 -104q-264 0 -264 170q0 72 35 145l10 -3q-32 -71 -32 -141q0 -157 253 -157q252 0 378 103
l-27 200h14l24 -190q2 -11 8.5 -25.5t20 -33t41 -30.5t63.5 -12z" />
    <glyph glyph-name="uniFE9B" unicode="&#x62b;" horiz-adv-x="260" arabic-form="initial" 
d="M91 638l16 -14l-14 -19l-17 14zM149 547l17 -14l-14 -18l-17 14zM39 542l17 -14l-15 -19l-16 14zM0 0l-9 7l10 7q109 0 165 66q2 140 -51 289l14 5q51 -149 50 -290q-19 -40 -71.5 -62t-107.5 -22z" />
    <glyph glyph-name="uniFE9C" unicode="&#x62b;" horiz-adv-x="285" arabic-form="medial" 
d="M112 546l-14 -18l-17 14l14 18zM171 456l-15 -19l-16 14l14 19zM60 450l-14 -18l-17 14l15 18zM286 14l8 -7l-9 -7q-55 0 -92.5 19t-49.5 40q-11 -22 -55 -40.5t-89 -18.5l-8 7l9 7q45 0 86 19t50 37l-20 235h14l19 -235q6 -8 16 -17t26.5 -18t41 -15t53.5 -6z" />
    <glyph glyph-name="uniFE9E" unicode="&#x62c;" horiz-adv-x="706" arabic-form="final" 
d="M706 0q-101 0 -159 47.5t-72 158.5q-112 -25 -196.5 -73.5t-133.5 -117.5t-49 -149q0 -87 56 -141t158 -54q128 0 230 43l5 -12q-103 -45 -237 -45q-107 0 -166 58t-59 150q0 126 107.5 219.5t283.5 133.5q-1 2 -1 5l11 2q0 -3 1 -5q37 8 76 13q-38 22 -98 59.5t-92 56.5
t-73.5 35t-75.5 16q-59 0 -108 -36l-8 11q53 39 117 39q35 0 78.5 -17.5t78.5 -39t95.5 -59.5t104.5 -62l-3 -13l-9 -1q-42 -5 -82 -14q15 -106 69.5 -150t151.5 -44l8 -7zM354 -97l-19 17l16 20l19 -17z" />
    <glyph glyph-name="uniFE9F" unicode="&#x62c;" horiz-adv-x="685" arabic-form="initial" 
d="M222 415q26 0 54 -8.5t53.5 -21.5t61 -36.5t66 -45.5t79.5 -56.5t92 -62.5l-3 -12l-15 -2q-74 -9 -160.5 -38t-151 -57.5t-146 -51.5t-152.5 -23l-9 7l10 7q69 0 149.5 22t144.5 50t151 57t162 39q-43 30 -102 72t-89 62.5t-68 43.5t-67.5 32t-59.5 9q-55 0 -108 -35
l-7 12q55 37 115 37zM275 -129l15 20l20 -17l-16 -20z" />
    <glyph glyph-name="uniFEA0" unicode="&#x62c;" horiz-adv-x="767" arabic-form="medial" 
d="M769 14l8 -7l-10 -7q-209 0 -262 193q-55 -15 -124 -49.5t-121.5 -65t-123 -54.5t-136.5 -24l-9 7l10 7q59 0 119 18.5t113 46.5t105 56.5t113.5 52t120.5 29.5q-68 33 -149 83.5t-131.5 75.5t-95.5 25q-55 0 -107 -35l-7 13q55 36 114 36q38 0 82 -18.5t82.5 -44
t104.5 -64.5t127 -68l-2 -13l-19 -1q-27 -3 -55 -10q52 -182 253 -182zM350 -79l16 20l19 -17l-15 -20z" />
    <glyph glyph-name="uniFEA2" unicode="&#x62d;" horiz-adv-x="706" arabic-form="final" 
d="M475 206q-171 -39 -275 -129.5t-104 -210.5q0 -87 56 -141t158 -54q128 0 230 43l5 -12q-103 -45 -237 -45q-107 0 -166 58t-59 150q0 126 107.5 219.5t283.5 133.5q-1 2 -1 5l11 2q0 -3 1 -5q37 8 76 13q-38 22 -98 59.5t-92 56.5t-73.5 35t-75.5 16q-59 0 -108 -36
l-8 11q53 39 117 39q35 0 78.5 -17.5t78.5 -39t95.5 -59.5t104.5 -62l-3 -13l-9 -1q-42 -5 -82 -14q15 -106 69.5 -150t151.5 -44l8 -7l-9 -7q-101 0 -159 47.5t-72 158.5z" />
    <glyph glyph-name="uniFEA3" unicode="&#x62d;" horiz-adv-x="685" arabic-form="initial" 
d="M222 415q26 0 54 -8.5t53.5 -21.5t61 -36.5t66 -45.5t79.5 -56.5t92 -62.5l-3 -12l-15 -2q-74 -9 -160.5 -38t-151 -57.5t-146 -51.5t-152.5 -23l-9 7l10 7q69 0 149.5 22t144.5 50t151 57t162 39q-43 30 -102 72t-89 62.5t-68 43.5t-67.5 32t-59.5 9q-55 0 -108 -35
l-7 12q55 37 115 37z" />
    <glyph glyph-name="uniFEA4" unicode="&#x62d;" horiz-adv-x="767" arabic-form="medial" 
d="M769 14l8 -7l-10 -7q-209 0 -262 193q-55 -15 -124 -49.5t-121.5 -65t-123 -54.5t-136.5 -24l-9 7l10 7q59 0 119 18.5t113 46.5t105 56.5t113.5 52t120.5 29.5q-68 33 -149 83.5t-131.5 75.5t-95.5 25q-55 0 -107 -35l-7 13q55 36 114 36q38 0 82 -18.5t82.5 -44
t104.5 -64.5t127 -68l-2 -13l-19 -1q-27 -3 -55 -10q52 -182 253 -182z" />
    <glyph glyph-name="uniFEA6" unicode="&#x62e;" horiz-adv-x="706" arabic-form="final" 
d="M227 548l-15 -20l-20 17l16 20zM475 206q-171 -39 -275 -129.5t-104 -210.5q0 -87 56 -141t158 -54q128 0 230 43l5 -12q-103 -45 -237 -45q-107 0 -166 58t-59 150q0 126 107.5 219.5t283.5 133.5q-1 2 -1 5l11 2q0 -3 1 -5q37 8 76 13q-38 22 -98 59.5t-92 56.5
t-73.5 35t-75.5 16q-59 0 -108 -36l-8 11q53 39 117 39q46 0 95 -23t133 -76.5t129 -78.5l-3 -13l-9 -1q-42 -5 -82 -14q5 -36 15 -65.5t24.5 -50.5t33 -36.5t42 -24.5t49.5 -13t57 -4l8 -7l-9 -7q-101 0 -159 47.5t-72 158.5z" />
    <glyph glyph-name="uniFEA7" unicode="&#x62e;" horiz-adv-x="685" arabic-form="initial" 
d="M222 548l-15 -20l-20 17l16 20zM222 415q26 0 54 -8.5t53.5 -21.5t61 -36.5t66 -45.5t79.5 -56.5t92 -62.5l-3 -12l-15 -2q-74 -9 -160.5 -38t-151 -57.5t-146 -51.5t-152.5 -23l-9 7l10 7q69 0 149.5 22t144.5 50t151 57t162 39q-43 30 -102 72t-89 62.5t-68 43.5
t-67.5 32t-59.5 9q-55 0 -108 -35l-7 12q55 37 115 37z" />
    <glyph glyph-name="uniFEA8" unicode="&#x62e;" horiz-adv-x="767" arabic-form="medial" 
d="M223 556l-15 -20l-20 17l16 20zM769 14l8 -7l-10 -7q-209 0 -262 193q-55 -15 -124 -49.5t-121.5 -65t-123 -54.5t-136.5 -24l-9 7l10 7q59 0 119 18.5t113 46.5t105 56.5t113.5 52t120.5 29.5q-68 33 -149 83.5t-131.5 75.5t-95.5 25q-55 0 -107 -35l-7 13q55 36 114 36
q38 0 82 -18.5t82.5 -44t104.5 -64.5t127 -68l-2 -13l-19 -1q-27 -3 -55 -10q52 -182 253 -182z" />
    <glyph glyph-name="uniFEAA" unicode="&#x62f;" horiz-adv-x="504" arabic-form="final" 
d="M505 14l8 -7l-9 -7q-25 0 -44 4t-33 12t-23.5 20.5t-17.5 29.5q-78 -78 -201 -78q-76 0 -156 31l6 14q73 -30 151 -30q117 0 195 74l-153 388l14 7l147 -381q17 -45 42 -61t74 -16z" />
    <glyph glyph-name="uniFEAC" unicode="&#x630;" horiz-adv-x="504" arabic-form="final" 
d="M170 640l-16 -20l-19 17l16 20zM505 14l8 -7l-9 -7q-25 0 -44 4t-33 12t-23.5 20.5t-17.5 29.5q-78 -78 -201 -78q-76 0 -156 31l6 14q73 -30 151 -30q117 0 195 74l-153 388l14 7l147 -381q11 -31 26 -47t35.5 -23t54.5 -7z" />
    <glyph glyph-name="uniFEAE" unicode="&#x631;" horiz-adv-x="406" arabic-form="final" 
d="M406 14l9 -7l-9 -7q-36 0 -56 8t-34 27q-41 -81 -121 -148.5t-217 -137.5l-7 15q135 66 215 133t122 147q-20 106 -60 212l16 7q27 -80 53 -204q6 -16 16 -25.5t28 -14.5t45 -5z" />
    <glyph glyph-name="uniFEB0" unicode="&#x632;" horiz-adv-x="406" arabic-form="final" 
d="M259 432l-15 -20l-20 17l16 20zM406 14l9 -7l-9 -7q-36 0 -56 8t-34 27q-41 -81 -121 -148.5t-217 -137.5l-7 15q135 66 215 133t122 147q-20 106 -60 212l16 7q27 -80 53 -204q6 -16 16 -25.5t28 -14.5t45 -5z" />
    <glyph glyph-name="uniFEB2" unicode="&#x633;" horiz-adv-x="1204" arabic-form="final" 
d="M1213 7l-9 -7q-105 0 -171 60q-11 -18 -30 -31.5t-43.5 -21t-50.5 -7.5q-32 0 -59.5 10.5t-42.5 22.5t-22 25q-5 -14 -21.5 -27.5t-43 -22t-54.5 -8.5h-1q-30 0 -54.5 13.5t-38.5 35.5q6 -45 6 -107q-4 -29 -26.5 -60t-58 -57.5t-87.5 -43t-109 -16.5q-61 0 -106.5 15
t-72.5 42.5t-39.5 63.5t-12.5 80q0 88 35 172l10 -3q-33 -84 -33 -168q0 -87 52.5 -137.5t167.5 -50.5q100 0 173 47.5t95 104.5q1 45 -3.5 85.5t-8.5 66.5t-16 59.5t-17 46t-20.5 45t-18.5 39.5l14 6q21 -46 29 -64.5t21 -55.5t20 -70q7 -35 33.5 -55t66.5 -20
q31 0 56.5 9.5t39 22t16.5 24.5l-20 235h14l19 -235q13 -20 43 -38t76 -18q36 0 69 16t47 39q-7 102 -49 299l15 4q39 -187 46 -300q31 -27 67.5 -42.5t99.5 -15.5z" />
    <glyph glyph-name="uniFEB3" unicode="&#x633;" horiz-adv-x="727" arabic-form="initial" 
d="M582 372q31 -67 47 -133.5t16 -165.5q-8 -30 -46.5 -51.5t-81.5 -21.5q-47 0 -79.5 18.5t-44.5 39.5q-8 -22 -42.5 -40t-77.5 -18q-47 0 -79.5 18.5t-44.5 39.5q-8 -23 -48 -40.5t-102 -17.5l-8 7l9 7q64 0 100 18t42 38l-20 235h14l19 -235q13 -20 43 -38t76 -18
q44 0 75 18.5t37 37.5l-20 235h14l18 -235q13 -20 43.5 -38t76.5 -18q35 0 68 16.5t48 38.5q-1 98 -18 163t-48 135z" />
    <glyph glyph-name="uniFEB4" unicode="&#x633;" horiz-adv-x="811" arabic-form="medial" 
d="M821 7l-10 -7q-105 0 -171 60q-17 -27 -50.5 -43.5t-72.5 -16.5q-47 0 -79.5 18.5t-44.5 39.5q-8 -22 -42.5 -40t-77.5 -18q-47 0 -79.5 18.5t-44.5 39.5q-8 -23 -48 -40.5t-102 -17.5l-8 7l9 7q64 0 100 18t42 38l-20 235h14l19 -235q13 -20 43 -38t76 -18q44 0 75 18.5
t37 37.5l-20 235h14l18 -235q13 -20 43.5 -38t76.5 -18q36 0 68.5 16t47.5 39q-7 102 -49 299l14 4q40 -187 46 -300q32 -27 68.5 -42.5t99.5 -15.5z" />
    <glyph glyph-name="uniFEB6" unicode="&#x634;" horiz-adv-x="1204" arabic-form="final" 
d="M754 546l-14 -18l-17 14l14 18zM813 456l-15 -19l-16 14l14 19zM702 450l-14 -18l-17 14l15 18zM1213 7l-9 -7q-105 0 -171 60q-11 -18 -30 -31.5t-43.5 -21t-50.5 -7.5q-32 0 -59.5 10.5t-42.5 22.5t-22 25q-5 -14 -21.5 -27.5t-43 -22t-54.5 -8.5h-1q-30 0 -54.5 13.5
t-38.5 35.5q6 -45 6 -107q-9 -64 -89.5 -120.5t-191.5 -56.5q-61 0 -106.5 15t-72.5 42.5t-39.5 63.5t-12.5 80q0 88 35 172l10 -3q-33 -84 -33 -168q0 -87 52.5 -137.5t167.5 -50.5q100 0 173 47.5t95 104.5q1 45 -3.5 85.5t-8.5 66.5t-16 59.5t-17 46t-20.5 45t-18.5 39.5
l14 6q21 -46 29 -64.5t21 -55.5t20 -70q7 -35 33.5 -55t66.5 -20q31 0 56.5 9.5t39 22t16.5 24.5l-20 235h14l19 -235q13 -20 43 -38t76 -18q36 0 69 16t47 39q-7 102 -49 299l15 4q39 -187 46 -300q31 -27 67.5 -42.5t99.5 -15.5z" />
    <glyph glyph-name="uniFEB7" unicode="&#x634;" horiz-adv-x="727" arabic-form="initial" 
d="M379 546l-15 -18l-16 14l14 18zM437 456l-14 -19l-17 14l15 19zM327 450l-14 -18l-17 14l14 18zM582 372q31 -67 47 -133.5t16 -165.5q-8 -30 -46.5 -51.5t-81.5 -21.5q-47 0 -79.5 18.5t-44.5 39.5q-8 -22 -42.5 -40t-77.5 -18q-47 0 -79.5 18.5t-44.5 39.5
q-8 -23 -48 -40.5t-102 -17.5l-8 7l9 7q64 0 100 18t42 38l-20 235h14l19 -235q13 -20 43 -38t76 -18q44 0 75 18.5t37 37.5l-20 235h14l18 -235q8 -12 21 -23.5t40 -22t59 -10.5q35 0 68 16.5t48 38.5q-1 99 -18 163.5t-48 134.5z" />
    <glyph glyph-name="uniFEB8" unicode="&#x634;" horiz-adv-x="811" arabic-form="medial" 
d="M362 546l-15 -18l-16 14l14 18zM420 456l-14 -19l-17 14l15 19zM310 450l-14 -18l-17 14l14 18zM821 7l-10 -7q-105 0 -171 60q-17 -27 -50.5 -43.5t-72.5 -16.5q-47 0 -79.5 18.5t-44.5 39.5q-8 -22 -42.5 -40t-77.5 -18q-47 0 -79.5 18.5t-44.5 39.5q-8 -23 -48 -40.5
t-102 -17.5l-8 7l9 7q64 0 100 18t42 38l-20 235h14l19 -235q13 -20 43 -38t76 -18q44 0 75 18.5t37 37.5l-20 235h14l18 -235q13 -20 43.5 -38t76.5 -18q36 0 68.5 16t47.5 39q-7 102 -49 299l14 4q40 -187 46 -300q32 -27 68.5 -42.5t99.5 -15.5z" />
    <glyph glyph-name="uniFEBA" unicode="&#x635;" horiz-adv-x="1315" arabic-form="final" 
d="M1317 14l7 -7l-9 -7q-91 0 -131 90q-37 -45 -120.5 -67.5t-232.5 -22.5h-165q-31 0 -55.5 13.5t-38.5 35.5q6 -45 6 -107q-9 -64 -89.5 -120.5t-191.5 -56.5q-61 0 -106.5 15t-72.5 42.5t-39.5 63.5t-12.5 80q0 88 35 172l10 -3q-33 -84 -33 -168q0 -87 52.5 -137.5
t167.5 -50.5q100 0 173 47.5t95 104.5q1 45 -3.5 85.5t-8.5 66.5t-16 59.5t-17 46t-20.5 45t-18.5 39.5l14 6q21 -46 29 -64.5t21 -55.5t20 -70q7 -34 31.5 -53.5t63.5 -21.5q61 151 166.5 251.5t216.5 100.5q163 0 154 -255q-2 -4 -5 -8q14 -39 46 -64t78 -25zM831 14
q103 0 173 10t110 27.5t69 46.5q9 128 -28.5 191t-110.5 63q-106 0 -207 -95.5t-164 -242.5h158z" />
    <glyph glyph-name="uniFEBB" unicode="&#x635;" horiz-adv-x="892" arabic-form="initial" 
d="M656 366q163 0 154 -255q-31 -56 -117 -83.5t-250 -27.5h-165q-54 0 -90.5 19t-47.5 41q-12 -23 -54 -41.5t-87 -18.5l-8 7l9 7q45 0 84 19t49 38l-18 293h14l17 -290q11 -22 43.5 -40.5t83.5 -19.5q61 151 166.5 251.5t216.5 100.5zM795 98q9 128 -28.5 191t-110.5 63
q-106 0 -207 -95.5t-164 -242.5h158q150 0 229 20.5t123 63.5z" />
    <glyph glyph-name="uniFEBC" unicode="&#x635;" horiz-adv-x="927" arabic-form="medial" 
d="M929 14l7 -7l-9 -7q-91 0 -131 90q-18 -22 -46.5 -38.5t-71 -28t-101 -17.5t-134.5 -6h-165q-54 0 -90.5 19t-47.5 41q-12 -23 -54 -41.5t-87 -18.5l-8 7l9 7q45 0 84 19t49 38l-18 293h14l17 -290q11 -22 43.5 -40.5t83.5 -19.5q61 151 166.5 251.5t216.5 100.5
q163 0 154 -255q-2 -4 -5 -8q14 -39 46 -64t78 -25zM443 14q150 0 229 20.5t123 63.5q9 128 -28.5 191t-110.5 63q-106 0 -207 -95.5t-164 -242.5h158z" />
    <glyph glyph-name="uniFEBE" unicode="&#x636;" horiz-adv-x="1315" arabic-form="final" 
d="M981 492l-16 -20l-19 17l16 20zM1317 14l7 -7l-9 -7q-91 0 -131 90q-37 -45 -120.5 -67.5t-232.5 -22.5h-165q-31 0 -55.5 13.5t-38.5 35.5q6 -45 6 -107q-9 -64 -89.5 -120.5t-191.5 -56.5q-120 0 -175.5 54.5t-55.5 146.5q0 88 35 172l10 -3q-33 -84 -33 -168
q0 -87 52.5 -137.5t167.5 -50.5q100 0 173 47.5t95 104.5q0 39 -2 72.5t-7.5 63t-10.5 51t-15 46t-15.5 38t-17.5 37.5t-16 34l14 6q21 -46 29 -64.5t21 -55.5t20 -70q7 -34 31.5 -53.5t63.5 -21.5q61 151 166.5 251.5t216.5 100.5q163 0 154 -255q-2 -4 -5 -8
q14 -39 46 -64t78 -25zM831 14q150 0 229 20.5t123 63.5q9 128 -28.5 191t-110.5 63q-106 0 -207 -95.5t-164 -242.5h158z" />
    <glyph glyph-name="uniFEBF" unicode="&#x636;" horiz-adv-x="892" arabic-form="initial" 
d="M593 492l-16 -20l-19 17l16 20zM656 366q163 0 154 -255q-31 -56 -117 -83.5t-250 -27.5h-165q-54 0 -90.5 19t-47.5 41q-12 -23 -54 -41.5t-87 -18.5l-8 7l9 7q45 0 84 19t49 38l-18 293h14l17 -290q11 -22 43.5 -40.5t83.5 -19.5q61 151 166.5 251.5t216.5 100.5z
M795 98q9 128 -28.5 191t-110.5 63q-106 0 -207 -95.5t-164 -242.5h158q150 0 229 20.5t123 63.5z" />
    <glyph glyph-name="uniFEC0" unicode="&#x636;" horiz-adv-x="927" arabic-form="medial" 
d="M593 492l-16 -20l-19 17l16 20zM929 14l7 -7l-9 -7q-91 0 -131 90q-18 -22 -46.5 -38.5t-71 -28t-101 -17.5t-134.5 -6h-165q-54 0 -90.5 19t-47.5 41q-12 -23 -54 -41.5t-87 -18.5l-8 7l9 7q45 0 84 19t49 38l-18 293h14l17 -290q11 -22 43.5 -40.5t83.5 -19.5
q61 151 166.5 251.5t216.5 100.5q163 0 154 -255q-2 -4 -5 -8q14 -39 46 -64t78 -25zM443 14q150 0 229 20.5t123 63.5q9 128 -28.5 191t-110.5 63q-106 0 -207 -95.5t-164 -242.5h158z" />
    <glyph glyph-name="uniFEC2" unicode="&#x637;" horiz-adv-x="833" arabic-form="final" 
d="M834 14l8 -7l-9 -7q-93 0 -133 94q-37 -48 -120 -71t-231 -23h-287l3 14h113q25 60 58 115l-11 602l14 2l9 -585q65 99 147.5 158.5t165.5 59.5q79 0 119 -61.5t36 -185.5q-6 -12 -14 -22l8 8q14 -40 46 -65.5t78 -25.5zM349 14q155 0 234 23t120 73q3 82 -13.5 136.5
t-48.5 80t-79 25.5q-106 0 -207 -95.5t-164 -242.5h158z" />
    <glyph glyph-name="uniFEC3" unicode="&#x637;" horiz-adv-x="769" arabic-form="initial" 
d="M532 366q79 0 119 -61.5t36 -185.5q-31 -61 -116 -90t-251 -29h-320l-9 7l10 7h148q25 60 58 115l-11 602l14 2l9 -585q65 99 147.5 158.5t165.5 59.5zM674 110q4 122 -33 182t-108 60q-106 0 -207 -95.5t-164 -242.5h158q155 0 234 23t120 73z" />
    <glyph glyph-name="uniFEC4" unicode="&#x637;" horiz-adv-x="804" arabic-form="medial" 
d="M805 14l8 -7l-9 -7q-93 0 -133 94q-37 -48 -120 -71t-231 -23h-320l-9 7l10 7h148q25 60 58 115l-11 602l14 2l9 -585q65 99 147.5 158.5t165.5 59.5q79 0 119 -61.5t36 -185.5q-6 -12 -14 -22l8 8q14 -40 46 -65.5t78 -25.5zM320 14q155 0 234 23t120 73q4 122 -33 182
t-108 60q-106 0 -207 -95.5t-164 -242.5h158z" />
    <glyph glyph-name="uniFEC6" unicode="&#x638;" horiz-adv-x="833" arabic-form="final" 
d="M834 14l8 -7l-9 -7q-93 0 -133 94q-37 -48 -120 -71t-231 -23h-287l3 14h113q25 60 58 115l-11 602l14 2l9 -585q65 99 147.5 158.5t165.5 59.5q79 0 119 -61.5t36 -185.5q-6 -12 -14 -22l8 8q14 -40 46 -65.5t78 -25.5zM484 526l-16 -19l-19 17l16 19zM349 14
q155 0 234 23t120 73q3 82 -13.5 136.5t-48.5 80t-79 25.5q-106 0 -207 -95.5t-164 -242.5h158z" />
    <glyph glyph-name="uniFEC7" unicode="&#x638;" horiz-adv-x="769" arabic-form="initial" 
d="M532 366q79 0 119 -61.5t36 -185.5q-31 -61 -116 -90t-251 -29h-320l-9 7l10 7h148q25 60 58 115l-11 602l14 2l9 -585q65 99 147.5 158.5t165.5 59.5zM455 526l-16 -19l-19 17l16 19zM674 110q4 122 -33 182t-108 60q-106 0 -207 -95.5t-164 -242.5h158q155 0 234 23
t120 73z" />
    <glyph glyph-name="uniFEC8" unicode="&#x638;" horiz-adv-x="804" arabic-form="medial" 
d="M805 14l8 -7l-9 -7q-93 0 -133 94q-37 -48 -120 -71t-231 -23h-320l-9 7l10 7h148q25 60 58 115l-11 602l14 2l9 -585q65 99 147.5 158.5t165.5 59.5q79 0 119 -61.5t36 -185.5q-6 -12 -14 -22l8 8q14 -40 46 -65.5t78 -25.5zM455 526l-16 -19l-19 17l16 19zM320 14
q155 0 234 23t120 73q4 122 -33 182t-108 60q-106 0 -207 -95.5t-164 -242.5h158z" />
    <glyph glyph-name="uniFECA" unicode="&#x639;" horiz-adv-x="548" arabic-form="final" 
d="M277 110q-99 -63 -153.5 -125t-54.5 -138q0 -78 58.5 -127t171.5 -49q129 0 230 43l5 -12q-102 -45 -236 -45q-119 0 -180.5 53t-61.5 136q0 80 56 145t156 128q-15 14 -49 49.5t-71.5 70.5t-83.5 70l2 14q115 49 219 49q66 0 114.5 -15t62.5 -35q0 -26 -8 -48.5t-21 -41
t-36.5 -39t-47 -37t-59.5 -38.5q5 -6 12 -11q59 -50 109 -71.5t118 -21.5h20l8 -7l-9 -7h-21q-67 0 -122.5 24t-114.5 75q-6 5 -13 11zM78 314q43 -32 79 -66t71 -70t52 -52q89 56 129 98t41 98q-18 15 -64.5 26t-100.5 11q-101 0 -207 -45z" />
    <glyph glyph-name="uniFECB" unicode="&#x639;" horiz-adv-x="519" arabic-form="initial" 
d="M490 65l1 -14q-131 -31 -213 -41t-214 -10h-64l-9 7l10 7h61q106 0 173 6q-164 89 -164 220q0 66 43.5 109t125.5 43q70 0 131 -34l-5 -14q-60 34 -126 34q-77 0 -116.5 -38.5t-39.5 -100.5q0 -126 171 -218q86 9 235 44z" />
    <glyph glyph-name="uniFECC" unicode="&#x639;" horiz-adv-x="527" arabic-form="medial" 
d="M528 14l8 -7l-9 -7h-17q-120 0 -230 95l-1 1q-66 -43 -137.5 -69.5t-125.5 -26.5h-16l-9 7l10 7h13q53 0 121.5 25t132.5 67q-22 20 -55.5 56t-72 72.5t-89.5 74.5l1 14q114 49 221 49q64 0 113 -15t63 -36q0 -36 -21.5 -76t-56 -74.5t-80.5 -66.5q52 -44 103.5 -67
t117.5 -23h16zM65 314q64 -48 132.5 -118t82.5 -82q70 47 114 102t44 106q-24 16 -68.5 26.5t-96.5 10.5q-103 0 -208 -45z" />
    <glyph glyph-name="uniFECE" unicode="&#x63a;" horiz-adv-x="548" arabic-form="final" 
d="M288 515l-16 -20l-19 17l16 20zM277 110q-47 -30 -81.5 -57t-65 -60t-46 -69.5t-15.5 -76.5q0 -78 58.5 -127t171.5 -49q129 0 230 43l5 -12q-102 -45 -236 -45q-119 0 -180.5 53t-61.5 136q0 80 56 145t156 128q-15 14 -49 49.5t-71.5 70.5t-83.5 70l2 14q115 49 219 49
q44 0 82.5 -7.5t62 -18.5t32.5 -24q0 -32 -11 -58.5t-36 -51.5t-52.5 -45.5t-72.5 -48.5q5 -6 12 -11q59 -50 109 -71.5t118 -21.5h20l8 -7l-9 -7h-21q-67 0 -122.5 24t-114.5 75q-6 5 -13 11zM78 314q43 -32 79 -66t71 -70t52 -52q35 22 58.5 38.5t46.5 36t36 37t21 39
t8 45.5q-18 15 -64.5 26t-100.5 11q-101 0 -207 -45z" />
    <glyph glyph-name="uniFECF" unicode="&#x63a;" horiz-adv-x="519" arabic-form="initial" 
d="M245 526l-16 -20l-19 17l16 20zM490 65l1 -14q-131 -31 -213 -41t-214 -10h-64l-9 7l10 7h61q106 0 173 6q-164 89 -164 220q0 66 43.5 109t125.5 43q70 0 131 -34l-5 -14q-60 34 -126 34q-77 0 -116.5 -38.5t-39.5 -100.5q0 -126 171 -218q86 9 235 44z" />
    <glyph glyph-name="uniFED0" unicode="&#x63a;" horiz-adv-x="527" arabic-form="medial" 
d="M278 510l-15 -20l-20 17l16 20zM528 14l8 -7l-9 -7h-17q-120 0 -230 95l-1 1q-66 -43 -137.5 -69.5t-125.5 -26.5h-16l-9 7l10 7h13q53 0 121.5 25t132.5 67q-22 20 -55.5 56t-72 72.5t-89.5 74.5l1 14q114 49 221 49q64 0 113 -15t63 -36q0 -36 -21.5 -76t-56 -74.5
t-80.5 -66.5q52 -44 103.5 -67t117.5 -23h16zM65 314q64 -48 132.5 -118t82.5 -82q70 47 114 102t44 106q-24 16 -68.5 26.5t-96.5 10.5q-103 0 -208 -45z" />
    <glyph glyph-name="uniFED2" unicode="&#x641;" horiz-adv-x="926" arabic-form="final" 
d="M705 573l-16 -20l-19 17l16 20zM928 14l7 -7l-9 -7h-15q-114 0 -212 46q-136 -58 -358 -58h-11q-264 0 -264 170q0 72 35 145l10 -3q-32 -71 -32 -141q0 -157 253 -157h10q211 0 342 51q-63 33 -100 80.5t-37 104.5q0 44 23 87.5t59 71t71 27.5q60 0 111 -60t51 -130
q0 -51 -36.5 -99t-110.5 -82q90 -39 196 -39h17zM560 236q0 -23 6.5 -44t19 -40t29.5 -36t38.5 -31t46.5 -26q38 17 67 37t46.5 42.5t26.5 46t9 47.5q0 65 -46.5 121.5t-101.5 56.5q-32 0 -65 -25.5t-54.5 -66.5t-21.5 -82z" />
    <glyph glyph-name="uniFED3" unicode="&#x641;" horiz-adv-x="453" arabic-form="initial" 
d="M214 665l-15 -20l-20 17l16 20zM203 527q27 0 52 -12t48.5 -41.5t39.5 -73.5t23.5 -113.5t3.5 -156.5q-26 -47 -127 -88.5t-243 -41.5l-9 7l10 7q130 0 222 33.5t134 80.5q3 62 0 115q-52 -47 -131 -47q-47 0 -87.5 19.5t-64.5 54.5t-24 78q0 70 48.5 124.5t104.5 54.5z
M229 210q75 0 128 44q-9 135 -53 197t-101 62q-51 0 -95 -50t-44 -114q0 -61 47.5 -100t117.5 -39z" />
    <glyph glyph-name="uniFED4" unicode="&#x641;" horiz-adv-x="453" arabic-form="medial" 
d="M231 571l-15 -20l-19 17l15 20zM454 14l8 -7l-9 -7h-16q-108 0 -203 42q-95 -42 -223 -42h-11l-9 7l10 7h11q119 0 207 35q-67 33 -106.5 81.5t-39.5 107.5q0 67 49.5 126.5t104.5 59.5q60 0 111 -60t51 -130q0 -51 -36 -101t-104 -84q88 -35 188 -35h17zM86 236
q0 -57 40.5 -103.5t108.5 -77.5q68 31 104 78t36 99q0 42 -21 84t-56 68t-71 26q-50 0 -95.5 -55.5t-45.5 -118.5z" />
    <glyph glyph-name="uniFED6" unicode="&#x642;" horiz-adv-x="749" arabic-form="final" 
d="M516 461l-14 -18l-17 14l14 18zM406 455l-15 -18l-16 14l14 18zM758 7l-9 -7h-111q1 -33 -1 -69q-22 -70 -103.5 -118t-182.5 -48q-152 0 -218.5 52.5t-66.5 153.5q0 84 36 170l10 -4q-34 -85 -34 -165q0 -62 25.5 -104t87.5 -65.5t161 -23.5q92 0 166 39t106 106
q2 40 2 76h-103q-93 0 -148.5 42.5t-55.5 112t48.5 123.5t103.5 54q25 0 47.5 -8.5t44 -31t37.5 -57t26.5 -91.5t11.5 -130h112zM619 14h7q-2 70 -11.5 124t-24 87.5t-35 55t-41 29.5t-43.5 8q-51 0 -95 -49.5t-44 -112.5q0 -65 52 -103.5t142 -38.5h93z" />
    <glyph glyph-name="uniFED7" unicode="&#x642;" horiz-adv-x="453" arabic-form="initial" 
d="M254 657l-15 -18l-16 14l14 18zM143 652l-14 -18l-17 14l15 18zM203 527q27 0 52 -12t48.5 -41.5t39.5 -73.5t23.5 -113.5t3.5 -156.5q-26 -47 -127 -88.5t-243 -41.5l-9 7l10 7q130 0 222 33.5t134 80.5q3 62 0 115q-52 -47 -131 -47q-73 0 -124.5 43.5t-51.5 108.5
q0 70 48.5 124.5t104.5 54.5zM229 210q75 0 128 44q-9 135 -53 197t-101 62q-51 0 -95 -50t-44 -114q0 -61 47.5 -100t117.5 -39z" />
    <glyph glyph-name="uniFED8" unicode="&#x642;" horiz-adv-x="453" arabic-form="medial" 
d="M271 563l-14 -18l-17 14l14 18zM161 558l-15 -18l-16 14l14 18zM454 14l8 -7l-9 -7h-16q-108 0 -203 42q-95 -42 -223 -42h-11l-9 7l10 7h11q119 0 207 35q-67 33 -106.5 81.5t-39.5 107.5q0 67 49.5 126.5t104.5 59.5q60 0 111 -60t51 -130q0 -51 -36 -101t-104 -84
q88 -35 188 -35h17zM86 236q0 -57 40.5 -103.5t108.5 -77.5q68 31 104 78t36 99q0 42 -21 84t-56 68t-71 26q-32 0 -65 -25.5t-54.5 -66.5t-21.5 -82z" />
    <glyph glyph-name="uniFEDA" unicode="&#x643;" horiz-adv-x="818" arabic-form="final" 
d="M819 14l8 -7l-9 -7q-30 0 -54.5 10.5t-39 27t-22 29.5t-10.5 25q-128 -104 -362 -104q-264 0 -264 170q0 72 35 145l10 -3q-32 -71 -32 -141q0 -157 253 -157q230 0 357 104l-2 625l14 2v-618q0 -10 6 -25.5t18 -33.5t37 -30t57 -12zM307 286l-2 11q116 0 169 42
q0 11 -12 24.5t-30.5 27t-43 26.5t-48.5 22l3 12l148 85v-12l-138 -78q52 -23 91 -52t39 -53q-13 -24 -58.5 -39.5t-117.5 -15.5z" />
    <glyph glyph-name="uniFEDB" unicode="&#x643;" horiz-adv-x="455" arabic-form="initial" 
d="M389 740l-2 -15l-367 -264q283 -177 306 -365q-42 -41 -124.5 -68.5t-201.5 -27.5l-9 7l10 7q207 0 312 85q-24 180 -307 356l3 13z" />
    <glyph glyph-name="uniFEDC" unicode="&#x643;" horiz-adv-x="529" arabic-form="medial" 
d="M530 14l8 -7l-9 -7q-30 0 -53 6t-42 15.5t-44 34.5t-45 49t-59 73q-39 -91 -106.5 -134.5t-179.5 -43.5l-9 7l10 7q108 0 173 42.5t103 131.5l-212 267l2 13l380 272l-1 -16l-369 -264l186 -234q42 -52 62.5 -77t47 -54.5t41 -40.5t35.5 -23t39 -14.5t42 -2.5z" />
    <glyph glyph-name="uniFEDE" unicode="&#x644;" horiz-adv-x="699" arabic-form="final" 
d="M708 7l-9 -7q-84 0 -140 56l1 -30q-13 -99 -79 -151t-184 -52q-61 0 -106.5 15t-72.5 42.5t-39.5 63t-12.5 80.5q0 88 35 172l10 -4q-33 -83 -33 -168q0 -86 52.5 -136.5t167.5 -50.5q225 0 249 192l-11 702l14 2l9 -659q58 -60 141 -60z" />
    <glyph glyph-name="uniFEDF" unicode="&#x644;" horiz-adv-x="215" arabic-form="initial" 
d="M0 0l-9 7l10 7q35 0 63 15.5t42 43.5l-11 658l14 2l10 -661q-13 -32 -45 -52t-74 -20z" />
    <glyph glyph-name="uniFEE0" unicode="&#x644;" horiz-adv-x="233" arabic-form="medial" 
d="M234 14l9 -7l-10 -7q-45 0 -75.5 18t-40.5 49q-12 -30 -42 -48.5t-75 -18.5l-9 7l10 7q79 0 109 63l-1 655l14 1v-639q4 -37 33 -58.5t78 -21.5z" />
    <glyph glyph-name="uniFEE2" unicode="&#x645;" horiz-adv-x="664" arabic-form="final" 
d="M665 14l8 -7l-9 -7q-95 0 -155 61q-13 -27 -50 -50t-83 -23q-38 0 -77 13.5t-65.5 29.5t-54.5 29.5t-46 13.5q-54 0 -54 -107q0 -89 50 -295l-15 -7q-48 196 -48 302q0 121 67 121q15 0 35 -8q61 151 104 210.5t99 59.5q62 0 102.5 -75t40.5 -201q28 -28 62.5 -44
t88.5 -16zM374 2q79 0 127 64q0 83 -17.5 145t-47 93.5t-66.5 31.5q-51 0 -90.5 -56.5t-100.5 -204.5q4 -2 49 -27t77.5 -35.5t68.5 -10.5z" />
    <glyph glyph-name="uniFEE3" unicode="&#x645;" horiz-adv-x="575" arabic-form="initial" 
d="M351 350q64 0 103.5 -77.5t39.5 -199.5q-10 -31 -48.5 -58t-92.5 -27q-44 0 -89 17t-123 64q-28 -39 -58.5 -54t-78.5 -15h-4l-9 7l10 7h5q64 0 97.5 30t82.5 126q54 106 86 143t79 37zM353 2q79 0 128 64q0 120 -36 195t-96 75q-41 0 -72.5 -37t-82.5 -140
q-26 -51 -45 -80q77 -45 119.5 -61t84.5 -16z" />
    <glyph glyph-name="uniFEE4" unicode="&#x645;" horiz-adv-x="644" arabic-form="medial" 
d="M645 14l8 -7l-9 -7q-95 0 -155 61q-15 -29 -51.5 -51t-84.5 -22q-44 0 -89 17t-123 64q-28 -39 -58.5 -54t-78.5 -15h-4l-9 7l10 7h5q64 0 97.5 30t82.5 126q54 106 86 143t79 37q64 0 103.5 -77t39.5 -199q28 -28 62.5 -44t88.5 -16zM353 2q79 0 128 64q0 120 -36 195
t-96 75q-41 0 -72.5 -37t-82.5 -140q-26 -51 -45 -80q77 -45 119.5 -61t84.5 -16z" />
    <glyph glyph-name="uniFEE6" unicode="&#x646;" horiz-adv-x="666" arabic-form="final" 
d="M316 379l-16 -19l-19 17l16 19zM666 14l9 -7l-9 -7q-31 0 -55.5 13.5t-38.5 35.5q6 -45 6 -107q-9 -64 -89.5 -120.5t-191.5 -56.5q-61 0 -106.5 15t-72.5 42.5t-39.5 63.5t-12.5 80q0 88 35 172l10 -3q-33 -84 -33 -168q0 -87 52.5 -137.5t167.5 -50.5q100 0 173 47.5
t95 104.5q1 45 -3.5 85.5t-8.5 66.5t-16 59.5t-17 46t-20.5 45t-18.5 39.5l14 6q21 -46 29 -64.5t21 -55.5t20 -70q7 -35 33.5 -55t66.5 -20z" />
    <glyph glyph-name="uniFEE7" unicode="&#x646;" horiz-adv-x="260" arabic-form="initial" 
d="M108 510l-19 17l15 19l20 -17zM0 0l-9 7l10 7q109 0 165 66q2 140 -51 289l14 5q51 -149 50 -290q-19 -40 -71.5 -62t-107.5 -22z" />
    <glyph glyph-name="uniFEE8" unicode="&#x646;" horiz-adv-x="285" arabic-form="medial" 
d="M128 452l-15 -20l-20 17l16 20zM286 14l8 -7l-9 -7q-55 0 -92.5 19t-49.5 40q-11 -22 -55 -40.5t-89 -18.5l-8 7l9 7q45 0 86 19t50 37l-20 235h14l19 -235q13 -20 48 -38t89 -18z" />
    <glyph glyph-name="uniFEEA" unicode="&#x647;" horiz-adv-x="479" arabic-form="final" 
d="M480 14l8 -7l-9 -7h-5q-59 0 -93 26.5t-40 75.5q-28 -24 -72.5 -42.5t-96.5 -18.5q-56 0 -97 26.5t-46 54.5q0 60 41.5 110t108 82.5t153.5 50.5l-4 115l13 1l10 -356q3 -111 124 -111h5zM41 121q11 -23 46.5 -44.5t86.5 -21.5q95 0 166 60l-8 237q-130 -28 -210 -87
t-81 -144z" />
    <glyph glyph-name="uniFEEB" unicode="&#x647;" horiz-adv-x="635" arabic-form="initial" 
d="M126 493q70 -36 132.5 -75.5t117 -84t93.5 -89t61.5 -92t22.5 -91.5q-6 -19 -27 -35.5t-54 -27t-71 -10.5q-97 0 -184 49q-86 -37 -204 -37h-13l-9 7l10 7h11q110 0 190 31q-58 36 -92 86.5t-34 109.5q0 69 43 116.5t108 47.5q16 0 31 -4q-65 42 -139 80zM89 241
q0 -58 35 -107t93 -83q69 31 104.5 80.5t35.5 105.5q0 65 -37 111t-93 46q-60 0 -99 -44t-39 -109zM401 2q48 0 86.5 16t55.5 42q-2 68 -57.5 142t-151.5 146q35 -47 35 -110q0 -58 -35 -109.5t-102 -84.5q81 -42 169 -42z" />
    <glyph glyph-name="uniFEEC" unicode="&#x647;" horiz-adv-x="474" arabic-form="medial" 
d="M483 7l-9 -7h-193q59 -17 96 -58.5t37 -113.5q-5 -27 -38.5 -49.5t-83.5 -22.5q-82 0 -135 69t-54 175h-103l-9 7l10 7h102q1 55 19 112.5t47 101.5t66.5 71.5t74.5 27.5q43 0 71.5 -36.5t28.5 -95t-40.5 -111t-104.5 -70.5h211zM309 313q-46 0 -90.5 -43.5t-73 -113.5
t-29.5 -142h87q84 0 139 55.5t55 124.5q0 53 -25.5 86t-62.5 33zM402 -175q0 44 -16.5 79t-44 55.5t-60 30.5t-69.5 10h-18h-78q2 -102 50 -166t125 -64q24 0 44 5.5t33.5 14t22 17.5t11.5 18z" />
    <glyph glyph-name="uniFEEE" unicode="&#x648;" horiz-adv-x="508" arabic-form="final" 
d="M517 7l-9 -7h-103q-17 -94 -99 -156.5t-235 -82.5l-5 14q288 38 326 225h-90q-98 0 -156 42t-58 109q0 70 48.5 124.5t104.5 54.5q31 0 60.5 -18.5t54 -52.5t39.5 -87t15 -116q0 -22 -3 -42h103zM394 14q3 18 3 37q0 62 -14 113.5t-36.5 84t-50 50t-55.5 17.5
q-51 0 -95.5 -50t-44.5 -114q0 -62 54 -100t150 -38h89z" />
    <glyph glyph-name="uniFEF0" unicode="&#x649;" horiz-adv-x="698" arabic-form="final" 
d="M707 7l-9 -7q-64 0 -152 37q30 -19 43 -44t12 -68q-7 -14 -30 -31.5t-60 -36t-94 -30.5t-120 -12q-120 0 -175.5 54t-55.5 146q0 89 35 173l10 -4q-33 -83 -33 -168q0 -86 52.5 -136.5t167.5 -50.5q60 0 112.5 10.5t88 26.5t57 30.5t33.5 26.5q0 34 -5.5 53.5t-27 40
t-59.5 38t-106 41.5l8 11q48 -17 101.5 -38.5t77.5 -31t56 -16.5t66 -7z" />
    <glyph glyph-name="uniFEF2" unicode="&#x64a;" horiz-adv-x="698" arabic-form="final" 
d="M707 7l-9 -7q-64 0 -152 37q30 -19 43 -44t12 -68q-7 -14 -30 -31.5t-60 -36t-94 -30.5t-120 -12q-120 0 -175.5 54t-55.5 146q0 89 35 173l10 -4q-33 -83 -33 -168q0 -86 52.5 -136.5t167.5 -50.5q60 0 112.5 10.5t88 26.5t57 30.5t33.5 26.5q0 34 -5.5 53.5t-27 40
t-59.5 38t-106 41.5l8 11q48 -17 101.5 -38.5t77.5 -31t56 -16.5t66 -7zM344 -322l14 18l17 -14l-14 -18zM234 -328l14 18l17 -14l-15 -18z" />
    <glyph glyph-name="uniFEF3" unicode="&#x64a;" horiz-adv-x="260" arabic-form="initial" 
d="M0 0l-9 7l10 7q109 0 165 66q2 140 -51 289l14 5q51 -149 50 -290q-19 -40 -71.5 -62t-107.5 -22zM171 -156l-16 14l14 19l17 -14zM61 -161l-17 14l15 18l16 -14z" />
    <glyph glyph-name="uniFEF4" unicode="&#x64a;" horiz-adv-x="285" arabic-form="medial" 
d="M286 14l8 -7l-9 -7q-55 0 -92.5 19t-49.5 40q-11 -22 -55 -40.5t-89 -18.5l-8 7l9 7q45 0 86 19t50 37l-20 235h14l19 -235q13 -20 48 -38t89 -18zM189 -142l14 19l17 -14l-15 -19zM78 -147l15 18l16 -14l-14 -18z" />
    <glyph glyph-name=".notdef" horiz-adv-x="666" 
d="M654 1050l-197 -1400h-420l197 1400h420zM627 1027h-371l-192 -1354h371zM350 451q60 0 81.5 -32.5t14.5 -83.5q-8 -53 -34 -81.5t-77 -35.5l-7 -45q-1 -8 -5.5 -13.5t-10.5 -8t-12 -2.5q-10 0 -17 7t-5 17l12 84q53 3 74.5 20t27.5 58q3 21 0.5 35t-15 23.5t-36.5 9.5
q-29 0 -54 -11q-8 -3 -13 -3q-11 0 -17 6.5t-5 17.5q3 18 33.5 28t64.5 10zM294 120q16 0 25 -10.5t7 -25.5q-3 -15 -14 -25.5t-26 -10.5t-23.5 11t-6.5 27q2 15 13 24.5t25 9.5z" />
    <glyph glyph-name=".null" 
 />
    <glyph glyph-name="nonmarkingreturn" horiz-adv-x="333" 
 />
    <glyph glyph-name="CR" unicode="&#xd;" horiz-adv-x="301" 
 />
    <glyph glyph-name="space" unicode=" " horiz-adv-x="301" 
 />
    <glyph glyph-name="exclam" unicode="!" horiz-adv-x="237" 
d="M103 197l67 484h14l-67 -484h-14zM86 -7q-7 0 -11.5 4.5t-4.5 11.5q0 8 5 13t12 5q16 0 16 -16q0 -8 -4.5 -13t-12.5 -5z" />
    <glyph glyph-name="quotedbl" unicode="&#x22;" horiz-adv-x="323" 
d="M114 443l31 238h15l-35 -238h-11zM250 443l31 238h15l-34 -238h-12z" />
    <glyph glyph-name="numbersign" unicode="#" horiz-adv-x="484" 
d="M498 462h-85l-66 -243h80l-3 -14h-80l-56 -205h-16l56 205h-218l-56 -205h-16l56 205h-87l3 14h88l66 243h-83l1 13h85l51 187h16l-51 -187h218l51 187h16l-51 -187h82zM113 219h218l66 243h-218z" />
    <glyph glyph-name="dollar" unicode="$" horiz-adv-x="525" 
d="M312 657q-45 0 -80.5 -12t-57 -33.5t-32.5 -48.5t-11 -59q0 -50 34 -82t115 -58q83 -28 122.5 -68t39.5 -102q0 -38 -12 -72t-36 -63.5t-67.5 -48t-100.5 -19.5l-20 -136h-12l18 136q-108 1 -180 77l9 9q69 -73 174 -73q58 0 101 16.5t66.5 45t34.5 60.5t11 67
q0 57 -37 94t-116 64q-86 29 -122 63.5t-36 89.5q0 70 49.5 117.5t143.5 48.5l20 139h13l-20 -139q49 -2 84.5 -18.5t70.5 -47.5l-10 -10q-66 63 -156 63z" />
    <glyph glyph-name="percent" unicode="%" horiz-adv-x="754" 
d="M664 693l-556 -699l11 -7l556 699zM212 363q-53 0 -82.5 33t-29.5 90q0 30 8 60.5t25 59.5t48 47.5t72 18.5q53 0 82.5 -32t29.5 -89q0 -30 -8.5 -61t-25 -60.5t-48 -48t-71.5 -18.5zM212 375q38 0 66.5 18t43.5 46.5t22 57t7 54.5q0 51 -25 79.5t-73 28.5
q-38 0 -67 -17.5t-43.5 -45.5t-21.5 -56t-7 -55q0 -51 25 -80.5t73 -29.5zM521 -9q-53 0 -82.5 32.5t-29.5 89.5q0 17 2.5 34t8 35.5t14 35t21 31.5t27.5 26t36 17.5t44 6.5q53 0 82.5 -32t29.5 -89q0 -30 -8 -60.5t-25 -60t-48 -48t-72 -18.5zM521 3q38 0 67 18t43.5 46.5
t21.5 56.5t7 55q0 51 -24.5 79.5t-72.5 28.5q-31 0 -56 -12t-40 -30.5t-25 -43t-14 -46.5t-4 -43q0 -50 24.5 -79.5t72.5 -29.5z" />
    <glyph glyph-name="ampersand" unicode="&#x26;" horiz-adv-x="721" 
d="M354 691q40 0 71 -15.5t49 -44t18 -63.5q0 -61 -40.5 -104.5t-155.5 -102.5l212 -231q22 32 41 69t30.5 65t26.5 71l13 -4q-49 -135 -103 -210l108 -118l-13 -7l-104 115q-95 -120 -232 -120q-79 0 -126.5 43.5t-47.5 112.5q0 65 37.5 116.5t135.5 100.5q-21 23 -36 44
t-25.5 42t-15.5 41.5t-5 42.5q0 38 17 73t55.5 59.5t89.5 24.5zM354 679q-71 0 -109 -44.5t-38 -100.5q0 -40 18 -78t62 -86q113 57 151.5 98.5t38.5 99.5q0 33 -16 58.5t-44 39t-63 13.5zM283 355q-96 -47 -131.5 -96.5t-35.5 -112.5q0 -62 42.5 -102t116.5 -40
q132 0 224 116z" />
    <glyph glyph-name="quotesingle" unicode="'" horiz-adv-x="186" 
d="M114 443l31 238h15l-35 -238h-11z" />
    <glyph glyph-name="parenleft" unicode="(" horiz-adv-x="327" 
d="M323 828l9 -7q-63 -77 -104 -138t-74 -132t-47.5 -148.5t-14.5 -169.5q0 -54 7.5 -102t25.5 -94.5t33 -77t42 -81.5l-10 -5q-29 51 -44.5 82.5t-33.5 78.5t-26 95.5t-8 103.5q0 94 15 172.5t48.5 150t75.5 133.5t106 139z" />
    <glyph glyph-name="parenright" unicode=")" horiz-adv-x="326" 
d="M162 827q28 -51 43.5 -82t33.5 -78t26 -96t8 -105q0 -93 -15 -171.5t-48 -150t-75 -133.5t-106 -139l-10 7q64 77 105 138.5t73.5 132.5t47 148t14.5 168q0 55 -7.5 103.5t-25 94.5t-32.5 77.5t-42 80.5z" />
    <glyph glyph-name="asterisk" unicode="*" horiz-adv-x="430" 
d="M425 608l-158 -48l76 -128l-12 -9l-74 130l-111 -130l-11 9l113 128l-146 48l5 12l146 -50l21 160h14l-23 -160l158 51z" />
    <glyph glyph-name="plus" unicode="+" horiz-adv-x="483" 
d="M281 493l-21 -155h153l-2 -14h-153l-22 -155h-15l22 155h-153l2 14h154l21 155h14z" />
    <glyph glyph-name="comma" unicode="," horiz-adv-x="144" 
d="M37 27q16 0 16 -16q0 -8 -9 -24l-56 -109h-11l52 117q-10 3 -10 14q0 8 5.5 13t12.5 5z" />
    <glyph glyph-name="hyphen" unicode="-" horiz-adv-x="400" 
d="M87 306l2 13h238l-1 -13h-239z" />
    <glyph glyph-name="period" unicode="." horiz-adv-x="146" 
d="M37 -7q-7 0 -11.5 4.5t-4.5 11.5q0 8 5 13t13 5q16 0 16 -16q0 -8 -5 -13t-13 -5z" />
    <glyph glyph-name="slash" unicode="/" horiz-adv-x="520" 
d="M445 796l12 -3l-356 -887l-13 4z" />
    <glyph glyph-name="zero" unicode="0" horiz-adv-x="539" 
d="M329 672q-51 0 -94 -28.5t-71 -75t-48 -107t-28.5 -123.5t-8.5 -127q0 -109 38.5 -164.5t112.5 -55.5q43 0 80 19.5t64 54t48 79t33.5 96.5t19 104.5t6.5 105.5q0 222 -152 222zM329 659q137 0 137 -208q0 -79 -14 -155.5t-41 -143t-74 -107.5t-107 -41q-137 0 -137 206
q0 80 14 156.5t41.5 143.5t74.5 108t106 41z" />
    <glyph glyph-name="one" unicode="1" horiz-adv-x="390" 
d="M310 661l-92 -661h-14l90 644l-193 -113l-6 12l204 118h11z" />
    <glyph glyph-name="two" unicode="2" horiz-adv-x="464" 
d="M276 672q69 0 109.5 -40.5t40.5 -104.5q0 -31 -5 -56t-23 -58t-42 -64.5t-73 -84t-104 -107.5t-146 -143h334l-5 -14h-350l2 14q92 89 150.5 147t106.5 110t72.5 84t41.5 63.5t22 55t5 53.5q0 59 -37 95.5t-100 36.5q-51 0 -91.5 -20.5t-81.5 -60.5l-10 9q29 29 56.5 47
t59.5 28t68 10z" />
    <glyph glyph-name="three" unicode="3" horiz-adv-x="472" 
d="M274 672q45 0 78 -17.5t50 -48.5t17 -72q0 -67 -43 -120.5t-122 -60.5q62 -3 99 -40t37 -104q0 -30 -7.5 -59.5t-24 -58.5t-41 -51t-62 -35.5t-82.5 -13.5q-57 0 -97 19.5t-72 62.5l11 8q31 -42 67.5 -59.5t90.5 -17.5t95 19.5t63.5 51.5t33.5 66t11 69q0 67 -40 101.5
t-111 34.5h-37l3 13h35q58 0 100 27.5t60 66t18 81.5q0 29 -9 52t-25.5 39.5t-41 25t-54.5 8.5q-89 0 -169 -69l-8 10q82 72 177 72z" />
    <glyph glyph-name="four" unicode="4" horiz-adv-x="499" 
d="M451 204l-2 -14h-93l-27 -190h-14l27 190h-299l2 13l272 469l12 -6l-268 -462h283l32 214h12l-30 -214h93z" />
    <glyph glyph-name="five" unicode="5" horiz-adv-x="472" 
d="M444 661l-4 -13h-282l-40 -278q63 42 134 42q36 0 64.5 -11t48 -32t30 -51t10.5 -68q0 -34 -7.5 -68.5t-24.5 -69.5t-42 -61.5t-64.5 -43t-88.5 -16.5q-102 0 -160 74l11 8q52 -69 150 -69q45 0 82 15.5t60.5 41t39.5 58.5t22.5 66t6.5 65q0 71 -37 110.5t-102 39.5
q-40 0 -70.5 -10.5t-65.5 -33.5h-12l42 305h299z" />
    <glyph glyph-name="six" unicode="6" horiz-adv-x="510" 
d="M358 659q-66 0 -121.5 -49t-90.5 -129t-50 -180q90 124 207 124q66 0 104.5 -40t38.5 -117q0 -34 -6.5 -70t-22 -73.5t-39 -67t-60.5 -48t-82 -18.5q-83 0 -121.5 57t-38.5 154q0 82 19 164t53.5 151t89.5 112t121 43q58 0 101 -37l-9 -10q-39 34 -93 34zM303 412
q-113 0 -209 -132q-4 -39 -4 -79q0 -92 35.5 -144.5t110.5 -52.5q43 0 78 18.5t56 47t35.5 65t20.5 69.5t6 63q0 72 -34.5 108.5t-94.5 36.5z" />
    <glyph glyph-name="seven" unicode="7" horiz-adv-x="433" 
d="M444 661l-2 -12l-370 -654l-13 4l367 649h-331l2 13h347z" />
    <glyph glyph-name="eight" unicode="8" horiz-adv-x="525" 
d="M316 342q70 -30 101 -64.5t31 -90.5q0 -85 -62 -140.5t-159 -55.5q-55 0 -95 19t-60.5 53t-20.5 79q0 152 185 221q-56 25 -81 57t-25 82q0 74 57 122t132 48q65 0 107 -36t42 -100q0 -61 -33.5 -106.5t-118.5 -87.5zM144 502q0 -49 25 -79t86 -55l48 -20q84 40 117.5 85
t33.5 104q0 58 -37.5 90t-97.5 32q-45 0 -85 -19.5t-65 -56t-25 -81.5zM227 4q59 0 106 22.5t74 64.5t27 97q0 56 -33.5 88.5t-112.5 64.5l-37 16q-45 -17 -78.5 -37.5t-53.5 -41t-32.5 -44.5t-16.5 -45.5t-4 -46.5q0 -64 43 -101t118 -37z" />
    <glyph glyph-name="nine" unicode="9" horiz-adv-x="505" 
d="M302 672q155 0 155 -190q0 -63 -9 -118t-34 -114.5t-65 -107t-107 -89t-154 -67.5l-4 12q69 21 124.5 51t103 74t79 107t44.5 142q-81 -114 -200 -114q-44 0 -77 20t-52 58t-19 89q0 32 7.5 65t24.5 66t41.5 58.5t61 41.5t80.5 16zM236 271q117 0 202 122q5 45 5 88
q0 178 -141 178q-42 0 -76.5 -15.5t-57 -40t-38 -56t-22 -62.5t-6.5 -61q0 -71 36 -112t98 -41z" />
    <glyph glyph-name="colon" unicode=":" horiz-adv-x="146" 
d="M96 414q-7 0 -11.5 4.5t-4.5 10.5q0 8 5 13t13 5q16 0 16 -16q0 -7 -5 -12t-13 -5zM37 -7q-7 0 -11.5 4.5t-4.5 11.5q0 8 5 13t13 5q16 0 16 -16q0 -8 -5 -13t-13 -5z" />
    <glyph glyph-name="semicolon" unicode=";" horiz-adv-x="146" 
d="M96 414q-7 0 -11.5 4.5t-4.5 10.5q0 8 5 13t13 5q16 0 16 -16q0 -7 -5 -12t-13 -5zM37 27q16 0 16 -16q0 -8 -9 -24l-56 -109h-11l52 117q-10 3 -10 14q0 8 5.5 13t12.5 5z" />
    <glyph glyph-name="less" unicode="&#x3c;" horiz-adv-x="494" 
d="M439 497l4 -12l-334 -152l290 -156l-7 -12l-299 163l1 10z" />
    <glyph glyph-name="equal" unicode="=" horiz-adv-x="483" 
d="M102 401l2 14h320l-1 -14h-321zM79 247l2 13h321l-2 -13h-321z" />
    <glyph glyph-name="greater" unicode="&#x3e;" horiz-adv-x="495" 
d="M123 497l300 -159l-1 -10l-346 -163l-4 12l334 156l-291 152z" />
    <glyph glyph-name="question" unicode="?" horiz-adv-x="444" 
d="M293 691q61 0 95 -32.5t34 -80.5q0 -41 -16.5 -74t-42 -53t-54.5 -40.5t-54 -37.5t-41.5 -44t-16.5 -60q0 -24 9 -55l-13 -3q-10 32 -10 58q0 24 7.5 44.5t20.5 35.5t30 29t35.5 26t37 24.5t35.5 27.5t30 32t21 40t8 50q0 43 -30.5 71.5t-84.5 28.5q-34 0 -63 -8.5
t-54 -25t-54 -43.5l-9 8q44 43 86 62.5t94 19.5zM187 -8q-7 0 -11.5 4.5t-4.5 11.5q0 8 5 13t13 5q16 0 16 -16q0 -8 -5 -13t-13 -5z" />
    <glyph glyph-name="at" unicode="@" horiz-adv-x="1020" 
d="M581 691q85 0 152 -25.5t109 -70.5t64 -104.5t22 -129.5q0 -60 -12.5 -119t-36 -111t-65 -84.5t-93.5 -32.5q-49 0 -74.5 35.5t-22.5 97.5q-65 -131 -169 -131q-60 0 -97 43t-37 122q0 38 7.5 77.5t25.5 79t44.5 70t66.5 49.5t89 19q63 0 121 -33l-36 -263
q-9 -69 11 -111t70 -42q49 0 88 31.5t61 82t33 107t11 112.5q0 92 -36 162.5t-112 113t-184 42.5q-97 0 -178.5 -32.5t-134.5 -85t-90 -119.5t-53.5 -134t-16.5 -131q0 -164 102 -261t262 -97q100 0 187 32l3 -13q-91 -32 -190 -32q-166 0 -272 100.5t-106 270.5
q0 65 16.5 134t55 138t93 122.5t138.5 87t184 33.5zM456 30q52 0 95 37t72 101l37 266q-50 29 -105 29q-47 0 -85.5 -19t-62.5 -48.5t-41 -67.5t-24 -75.5t-7 -73.5q0 -73 33 -111t88 -38z" />
    <glyph glyph-name="A" unicode="A" horiz-adv-x="557" 
d="M475 0l-43 207h-322l-101 -207h-15l335 681h17l144 -681h-15zM117 221h312l-93 447z" />
    <glyph glyph-name="B" unicode="B" horiz-adv-x="584" 
d="M363 360q67 -5 108.5 -42t41.5 -104q0 -42 -13 -78.5t-41 -68t-79.5 -49.5t-121.5 -18h-169l96 681h142q94 0 145 -36.5t51 -106.5q0 -48 -21.5 -87t-57.5 -62t-81 -29zM197 667l-42 -300h176q73 0 125 47.5t52 123.5q0 42 -20.5 71.5t-61 43.5t-98.5 14h-131zM261 14
q65 0 113 16.5t74 46t38 63.5t12 74q0 67 -45 103t-121 36h-179l-47 -339h155z" />
    <glyph glyph-name="C" unicode="C" horiz-adv-x="535" 
d="M403 691q35 0 64 -8t48 -20t38 -30l-9 -10q-20 18 -37.5 29t-43.5 18t-60 7q-47 0 -88 -14.5t-71.5 -39.5t-55 -59t-40.5 -71.5t-27 -79.5t-15.5 -80.5t-4.5 -76.5q0 -122 55 -186.5t149 -64.5q54 0 92.5 15.5t74.5 42.5l9 -11q-81 -61 -176 -61q-101 0 -160 68.5
t-59 196.5q0 56 10 113.5t34 116t59 103.5t90.5 73.5t123.5 28.5z" />
    <glyph glyph-name="D" unicode="D" horiz-adv-x="617" 
d="M299 681q42 0 76.5 -6t69 -22.5t58 -43.5t38 -72t14.5 -104q0 -64 -11 -124t-37 -117t-64.5 -99t-98.5 -67.5t-134 -25.5h-121l96 681h114zM297 667h-100l-91 -653h105q72 0 129 25t94 65.5t61.5 96t34.5 113.5t10 119q0 48 -9 86t-27 63t-40 42t-50.5 26.5t-56 13
t-60.5 3.5z" />
    <glyph glyph-name="E" unicode="E" horiz-adv-x="494" 
d="M499 681l-3 -14h-299l-41 -300h256l-2 -13h-256l-49 -340h309l-2 -14h-323l96 681h314z" />
    <glyph glyph-name="F" unicode="F" horiz-adv-x="471" 
d="M494 681l-3 -14h-294l-44 -315h254l-2 -13h-254l-47 -339h-15l96 681h309z" />
    <glyph glyph-name="G" unicode="G" horiz-adv-x="603" 
d="M405 691q89 0 158 -58l-10 -9q-64 53 -148 53q-44 0 -83 -13t-69 -36.5t-55.5 -55.5t-43 -69.5t-29.5 -79t-18 -83.5t-6 -83q0 -124 57 -188.5t159 -64.5q82 0 166 44l41 288h-147l-1 13h164l-43 -309q-91 -49 -180 -49q-109 0 -170 68.5t-61 198.5q0 60 12.5 120.5
t38.5 117t62.5 100t89.5 69.5t116 26z" />
    <glyph glyph-name="H" unicode="H" horiz-adv-x="657" 
d="M104 0h-15l96 681h14l-43 -311h377l43 311h15l-96 -681h-14l50 356h-377z" />
    <glyph glyph-name="I" unicode="I" horiz-adv-x="266" 
d="M199 681l-95 -681h-15l96 681h14z" />
    <glyph glyph-name="J" unicode="J" horiz-adv-x="276" 
d="M215 681l-83 -595q-10 -75 -40 -112.5t-111 -70.5l-4 12q74 30 102.5 66t38.5 107l83 593h14z" />
    <glyph glyph-name="K" unicode="K" horiz-adv-x="508" 
d="M89 1l96 680h14l-95 -680h-15zM445 0l-287 366l366 315h18l-366 -315l287 -366h-18z" />
    <glyph glyph-name="L" unicode="L" horiz-adv-x="449" 
d="M199 681l-93 -667h288l-4 -14h-301l96 681h14z" />
    <glyph glyph-name="M" unicode="M" horiz-adv-x="760" 
d="M661 681l-18 -681h-14l9 349q6 238 10 320l-286 -585h-14l-123 585q-4 -21 -77 -313l-90 -356h-14l171 681h22l120 -580l282 580h22z" />
    <glyph glyph-name="N" unicode="N" horiz-adv-x="658" 
d="M592 681l-96 -681h-18l-283 666q-4 -45 -19 -152l-73 -514h-14l96 681h18l283 -665q10 81 21 162l71 503h14z" />
    <glyph glyph-name="O" unicode="O" horiz-adv-x="688" 
d="M404 691q105 0 163.5 -68.5t58.5 -194.5q0 -55 -9 -111.5t-32.5 -116.5t-58.5 -105.5t-91.5 -74.5t-127.5 -29q-104 0 -162.5 69t-58.5 194q0 54 10 110.5t34 116t59 105.5t91 75.5t124 29.5zM403.5 678q-65.5 0 -119 -29t-87 -73.5t-56 -102.5t-31.5 -112.5t-9 -106.5
q0 -120 54.5 -185t151.5 -65q57 0 105 20t80 54t56 76.5t37.5 91.5t19.5 94t6 88q0 80 -24.5 136.5t-71 85t-112 28.5z" />
    <glyph glyph-name="P" unicode="P" horiz-adv-x="556" 
d="M316 681q107 0 160.5 -38.5t53.5 -121.5q0 -47 -13.5 -86.5t-43 -74.5t-85 -55t-131.5 -20h-113l-40 -285h-15l96 681h131zM260 299q71 0 123 18.5t79.5 51.5t40 70.5t12.5 81.5q0 39 -12.5 67t-38 45.5t-62.5 25.5t-87 8h-118l-51 -368h114z" />
    <glyph glyph-name="Q" unicode="Q" horiz-adv-x="674" 
d="M626 428q0 -50 -7.5 -101.5t-27 -107t-48 -99.5t-74.5 -77t-103 -43q72 -2 124 -17t88 -50l-11 -11q-42 40 -99 54.5t-157 14.5h-4q-104 0 -162.5 69t-58.5 194q0 54 10 110.5t34 116t59 105.5t91 75.5t124 29.5q105 0 163.5 -68.5t58.5 -194.5zM101 254
q0 -120 54.5 -185t151.5 -65q57 0 105 20t80 54.5t56 77t37.5 91.5t19.5 93.5t6 87.5q0 121 -54.5 185.5t-153.5 64.5q-47 0 -88 -15t-71.5 -41t-55 -60.5t-40.5 -73t-27 -80t-15.5 -80t-4.5 -74.5z" />
    <glyph glyph-name="R" unicode="R" horiz-adv-x="568" 
d="M527 532q0 -50 -19.5 -92.5t-64 -73t-106.5 -37.5l146 -329h-17l-144 328h-2h-170l-46 -328h-15l96 681h147q195 0 195 -149zM152 342h156q52 0 92.5 16t64 43.5t35.5 60.5t12 70q0 66 -42.5 100.5t-139.5 34.5h-133z" />
    <glyph glyph-name="S" unicode="S" horiz-adv-x="537" 
d="M324 691q102 0 169 -68l-10 -9q-63 64 -159 64q-91 0 -140 -47t-49 -109q0 -57 33.5 -88t119.5 -59q88 -29 127.5 -68t39.5 -108q0 -34 -13 -69t-39.5 -67t-73.5 -52t-107 -20q-64 0 -108.5 20.5t-81.5 59.5l10 10q35 -38 76.5 -57.5t103.5 -19.5q58 0 102.5 19.5
t68.5 50t35.5 62.5t11.5 63q0 63 -36.5 99t-120.5 65q-91 30 -127 63.5t-36 95.5q0 30 12.5 59t36 54t64 40.5t91.5 15.5z" />
    <glyph glyph-name="T" unicode="T" horiz-adv-x="474" 
d="M517 681l-3 -14h-212l-94 -667h-15l94 667h-212l2 14h440z" />
    <glyph glyph-name="U" unicode="U" horiz-adv-x="639" 
d="M582 681l-67 -475q-13 -99 -70.5 -157t-161.5 -58q-105 0 -146.5 58t-27.5 158l66 474h15l-67 -473q-13 -95 24.5 -149.5t135.5 -54.5t151.5 55.5t66.5 149.5l66 472h15z" />
    <glyph glyph-name="V" unicode="V" horiz-adv-x="529" 
d="M558 681l-320 -681h-18l-130 681h15l125 -667l312 667h16z" />
    <glyph glyph-name="W" unicode="W" horiz-adv-x="785" 
d="M803 681l-255 -681h-17l-81 666l-270 -666h-16l-64 681h15l60 -665l267 665h18l81 -665l247 665h15z" />
    <glyph glyph-name="X" unicode="X" horiz-adv-x="478" 
d="M488 681l-226 -311l162 -370h-15l-157 360l-255 -360h-16l263 370l-140 311h16l134 -301l218 301h16z" />
    <glyph glyph-name="Y" unicode="Y" horiz-adv-x="488" 
d="M524 681l-270 -410l-38 -271h-15l38 271l-157 410h16l149 -396l261 396h16z" />
    <glyph glyph-name="Z" unicode="Z" horiz-adv-x="507" 
d="M6 0l2 13l488 654h-358l1 14h377l-1 -13l-488 -654h381l-4 -14h-398z" />
    <glyph glyph-name="bracketleft" unicode="[" horiz-adv-x="311" 
d="M301 794l-1 -11h-107l-125 -876h107l-1 -11h-120l127 898h120z" />
    <glyph glyph-name="backslash" unicode="\" horiz-adv-x="520" 
d="M226 796l107 -886l-13 -4l-108 887z" />
    <glyph glyph-name="bracketright" unicode="]" horiz-adv-x="311" 
d="M281 794l-126 -898h-121l2 11h107l123 876h-107l2 11h120z" />
    <glyph glyph-name="asciicircum" unicode="^" horiz-adv-x="526" 
d="M344 821l132 -294h-17l-122 277l-200 -277h-18l215 294h10z" />
    <glyph glyph-name="underscore" unicode="_" horiz-adv-x="520" 
d="M-3 -95l2 13h427l-1 -13h-428z" />
    <glyph glyph-name="grave" unicode="`" horiz-adv-x="237" 
d="M106 755l159 -89l-6 -9l-161 83z" />
    <glyph glyph-name="a" unicode="a" horiz-adv-x="545" 
d="M331 528q73 0 137 -41l-52 -371q-9 -43 -2.5 -72.5t36.5 -41.5l-5 -11q-32 12 -40.5 40.5t-3.5 73.5q-32 -55 -77 -84.5t-96 -29.5q-37 0 -67 14t-50 39.5t-30.5 62t-10.5 80.5q0 45 8.5 90t28.5 91t49 81t74.5 57t100.5 22zM332 516q-53 0 -96 -21.5t-70.5 -55.5
t-46.5 -78t-26.5 -87.5t-7.5 -85.5q0 -85 37.5 -134.5t106.5 -49.5q105 0 175 125l50 352q-54 35 -122 35z" />
    <glyph glyph-name="b" unicode="b" horiz-adv-x="564" 
d="M343 528q37 0 65.5 -12.5t47.5 -36.5t29 -59t10 -81q0 -43 -8 -88t-26.5 -92.5t-46 -84.5t-71 -60t-96.5 -23q-30 0 -55 3.5t-49 11t-54 19.5l99 707l14 1l-43 -303q83 98 184 98zM343 515q-56 0 -99 -26t-87 -77l-52 -378q70 -30 142 -30q50 0 91.5 23t67 58.5t43 81
t25 89t7.5 83.5q0 86 -35 131t-103 45z" />
    <glyph glyph-name="c" unicode="c" horiz-adv-x="466" 
d="M319 528q78 0 127 -50l-10 -9q-46 47 -117 47q-58 0 -104 -29t-73.5 -76t-41.5 -102.5t-14 -112.5q0 -93 42.5 -142.5t116.5 -49.5q73 0 138 50l7 -10q-66 -53 -145.5 -53t-126 53.5t-46.5 151.5q0 60 15 117.5t44 106.5t78 78.5t110 29.5z" />
    <glyph glyph-name="d" unicode="d" horiz-adv-x="568" 
d="M499 734l14 -2l-102 -732h-12l17 137q-37 -67 -83 -106.5t-110 -39.5q-70 0 -111.5 52t-41.5 144q0 42 7.5 87t26 91t45.5 82t69 58.5t93 22.5q39 0 70.5 -14.5t48.5 -33.5t28 -44zM312 516q-49 0 -88.5 -22t-64.5 -56.5t-42.5 -79t-24.5 -87.5t-7 -84q0 -87 37 -135
t102 -48q63 0 108 41.5t88 118.5l36 254q-42 98 -144 98z" />
    <glyph glyph-name="e" unicode="e" horiz-adv-x="509" 
d="M468 412q0 -86 -96 -136t-287 -60v-23q0 -93 41.5 -141t114.5 -48q46 0 81.5 13.5t76.5 43.5l7 -11q-41 -30 -79.5 -44.5t-85.5 -14.5q-80 0 -125.5 52t-45.5 150q0 34 6.5 70.5t19 74.5t33.5 72t48.5 60.5t66.5 42t84 15.5q63 0 101.5 -31t38.5 -85zM328 516
q-47 0 -86.5 -18.5t-66 -47.5t-46 -67.5t-29.5 -77t-14 -77.5q368 20 368 184q0 48 -34 76t-92 28z" />
    <glyph glyph-name="f" unicode="f" horiz-adv-x="304" 
d="M307 723q-48 0 -80 -27t-40 -80l-13 -98h148l-3 -12h-147l-70 -502q-9 -62 -26 -99t-40.5 -57t-67.5 -41l-5 11q40 20 62.5 39t38.5 54.5t24 93.5l70 501h-91l2 12h91l14 100q8 56 44 87t89 31q61 0 114 -37l-8 -10q-50 34 -106 34z" />
    <glyph glyph-name="g" unicode="g" horiz-adv-x="552" 
d="M326 528q79 0 143 -41l-72 -494q-27 -187 -187 -187q-87 0 -162 46l6 11q74 -45 157 -45q147 0 172 173l18 127q-32 -57 -77 -87.5t-96 -30.5q-73 0 -114.5 54.5t-41.5 143.5q0 43 8 87t27.5 88.5t48 78.5t72.5 55t98 21zM327 516q-52 0 -93.5 -20.5t-68.5 -53.5
t-45.5 -75.5t-26 -84.5t-7.5 -84q0 -84 38 -134.5t105 -50.5q105 0 176 129l49 339q-53 35 -127 35z" />
    <glyph glyph-name="h" unicode="h" horiz-adv-x="581" 
d="M367 528q68 0 96 -41.5t18 -118.5l-52 -368h-14l52 368q20 148 -101 148q-64 0 -118 -48t-105 -147l-45 -321h-14l103 732l14 2l-54 -385q91 179 220 179z" />
    <glyph glyph-name="i" unicode="i" horiz-adv-x="255" 
d="M189 688q-13 0 -13 13q0 7 4 11.5t11 4.5q14 0 14 -13q0 -7 -4.5 -11.5t-11.5 -4.5zM171 518l-73 -518h-14l73 518h14z" />
    <glyph glyph-name="j" unicode="j" horiz-adv-x="256" 
d="M189 688q-13 0 -13 13q0 7 4 11.5t11 4.5q14 0 14 -13q0 -7 -4.5 -11.5t-11.5 -4.5zM-34 -193l-5 11q40 19 62 38.5t38.5 55t24.5 93.5l72 513h14l-73 -514q-8 -62 -25.5 -99t-41 -57t-66.5 -41z" />
    <glyph glyph-name="k" unicode="k" horiz-adv-x="507" 
d="M201 733l-56 -402q30 65 66 109.5t75 66t81 21.5q25 0 45 -7t34 -20.5t21.5 -33t7.5 -42.5q0 -124 -185 -184l124 -241h-15l-127 247q188 58 188 177q0 42 -23.5 67t-70.5 25q-127 0 -226 -217l-42 -299h-14l103 732z" />
    <glyph glyph-name="l" unicode="l" horiz-adv-x="275" 
d="M196 733l-93 -664q-9 -65 45 -65q20 0 41 8l4 -12q-23 -9 -46 -9q-69 0 -58 79l93 662z" />
    <glyph glyph-name="m" unicode="m" horiz-adv-x="845" 
d="M647 528q58 0 83.5 -42t14.5 -118l-52 -368h-14l52 368q10 72 -12 110t-73 38q-113 0 -205 -192l-45 -324h-14l51 368q5 36 2 63.5t-13.5 46.5t-29 28.5t-44.5 9.5q-111 0 -205 -195l-45 -321h-14l73 518h12l-22 -169q85 179 202 179q58 0 83.5 -42t14.5 -118l-2 -13
q85 173 202 173z" />
    <glyph glyph-name="n" unicode="n" horiz-adv-x="581" 
d="M369 528q65 0 93.5 -41.5t18.5 -118.5l-52 -368h-14l52 368q10 72 -15 110t-84 38q-65 0 -119.5 -48t-105.5 -147l-45 -321h-14l73 518h12l-22 -169q92 179 222 179z" />
    <glyph glyph-name="o" unicode="o" horiz-adv-x="560" 
d="M243 -9q-81 0 -126.5 53.5t-45.5 149.5q0 35 5.5 71.5t17 74.5t31.5 71.5t46.5 60t64 41.5t82.5 15q81 0 126.5 -52t45.5 -148q0 -42 -7.5 -85.5t-26 -89.5t-45.5 -81.5t-70.5 -58t-97.5 -22.5zM243 4q51 0 92 21.5t66.5 55.5t42.5 78t24 86t7 82q0 91 -41 140t-116 49
q-51 0 -92 -22t-66.5 -55.5t-42.5 -77.5t-24 -85.5t-7 -81.5q0 -91 41 -140.5t116 -49.5z" />
    <glyph glyph-name="p" unicode="p" horiz-adv-x="563" 
d="M57 -194l100 712h12l-10 -88q83 98 185 98q73 0 111.5 -48.5t38.5 -140.5q0 -43 -7.5 -88t-26.5 -92.5t-46 -84.5t-70.5 -60t-96.5 -23q-79 0 -146 30l-30 -214zM246 4q51 0 92 23t67 58.5t43.5 81t24.5 89t7 83.5q0 86 -34.5 131t-101.5 45q-56 0 -100 -26t-87 -77
l-53 -378q64 -30 142 -30z" />
    <glyph glyph-name="q" unicode="q" horiz-adv-x="553" 
d="M360 -194l42 299q-33 -55 -78 -84.5t-96 -29.5q-74 0 -116 53t-42 143q0 22 2 44t6.5 46t11.5 46.5t16 45t21.5 42.5t27.5 38t34 32.5t40.5 25t47.5 16t54 5.5q76 0 139 -41l-96 -680zM228 4q105 0 177 125l50 352q-52 35 -123 35q-53 0 -96.5 -21.5t-71 -55.5t-46 -78
t-26 -87.5t-7.5 -85.5q0 -85 37.5 -134.5t105.5 -49.5z" />
    <glyph glyph-name="r" unicode="r" horiz-adv-x="362" 
d="M331 528q24 0 47 -7l-4 -12q-20 7 -43 7q-62 0 -105 -43t-80 -139l-48 -334h-14l73 518h12l-21 -152q33 85 76.5 123.5t106.5 38.5z" />
    <glyph glyph-name="s" unicode="s" horiz-adv-x="448" 
d="M254 528q88 0 146 -53l-9 -8q-56 48 -137 48q-66 0 -109 -31.5t-43 -84.5q0 -41 27.5 -67t102.5 -50q77 -25 108.5 -56t31.5 -84q0 -67 -49.5 -109t-134.5 -42q-100 0 -169 66l9 9q33 -31 69.5 -46.5t90.5 -15.5q74 0 122 36t48 102q0 48 -28.5 76t-104.5 52
q-77 25 -107 54t-30 75q0 57 47.5 93t118.5 36z" />
    <glyph glyph-name="t" unicode="t" horiz-adv-x="323" 
d="M163 506l-55 -390q-8 -54 12 -83.5t67 -29.5q46 0 95 28l6 -12q-52 -28 -102.5 -28t-75 32.5t-16.5 91.5l54 391h-86l2 12h86l22 133l11 1l-19 -134h145l-4 -12h-142z" />
    <glyph glyph-name="u" unicode="u" horiz-adv-x="575" 
d="M218 -9q-65 0 -96.5 41t-21.5 118l52 368h14l-52 -368q-10 -72 18 -109t88 -37q64 0 118.5 49t92.5 138l46 327h14l-73 -518h-11l22 165q-35 -82 -90 -128t-121 -46z" />
    <glyph glyph-name="v" unicode="v" horiz-adv-x="442" 
d="M453 518l-254 -518h-19l-118 518h15l114 -506l246 506h16z" />
    <glyph glyph-name="w" unicode="w" horiz-adv-x="677" 
d="M677 518l-210 -518h-18l-75 504l-216 -504h-19l-67 518h14l64 -504l217 504h17l75 -505l204 505h14z" />
    <glyph glyph-name="x" unicode="x" horiz-adv-x="430" 
d="M419 518l-194 -240l147 -278h-15l-142 269l-214 -269h-17l224 279l-125 239h16l118 -230l186 230h16z" />
    <glyph glyph-name="y" unicode="y" horiz-adv-x="440" 
d="M451 518l-252 -519q-44 -91 -83.5 -130t-118.5 -61l-2 11q41 12 67.5 25.5t48 37.5t36.5 48.5t38 69.5h-7l-116 518h15l113 -508l245 508h16z" />
    <glyph glyph-name="z" unicode="z" horiz-adv-x="400" 
d="M404 518l-2 -12l-390 -493h312l-3 -13h-330l2 12l390 493h-292l2 13h311z" />
    <glyph glyph-name="braceleft" unicode="{" horiz-adv-x="327" 
d="M316 814v-11q-41 0 -63.5 -22t-29.5 -69l-39 -277q-11 -79 -87 -86q74 -7 63 -87l-40 -277q-6 -47 10 -68.5t57 -21.5l-1 -11q-92 0 -78 100l40 284q3 26 -4.5 43t-23.5 24t-40 7l2 14q23 0 41.5 7.5t31 24.5t16.5 42l40 285q14 99 105 99z" />
    <glyph glyph-name="bar" unicode="|" horiz-adv-x="416" 
d="M291 801l-126 -899h-14l126 899h14z" />
    <glyph glyph-name="braceright" unicode="}" horiz-adv-x="327" 
d="M36 -116l1 11q40 0 63 22t29 69l39 277q11 79 87 86q-74 7 -62 87l39 277q4 31 -1.5 51t-21.5 29.5t-43 9.5v11q43 0 64 -24.5t15 -75.5l-40 -284q-6 -38 12.5 -56t55.5 -18l-2 -14q-24 0 -42 -7.5t-31 -24.5t-17 -42l-39 -285q-14 -99 -106 -99z" />
    <glyph glyph-name="asciitilde" unicode="~" horiz-adv-x="456" 
d="M306 284q-25 0 -70 27.5t-68 27.5t-40.5 -11t-35.5 -32l-9 7q41 50 85 50q27 0 71.5 -27.5t66.5 -27.5q23 0 39.5 11t35.5 32l9 -6q-41 -51 -84 -51z" />
    <glyph glyph-name="uni00A0" unicode="&#xa0;" horiz-adv-x="302" 
 />
    <glyph glyph-name="exclamdown" unicode="&#xa1;" horiz-adv-x="237" 
d="M145 413q-5 0 -8.5 2t-5.5 6t-2 8q0 5 2.5 9t6.5 6.5t9 2.5q16 0 16 -16q0 -8 -5 -13t-13 -5zM127 253l-63 -443h-14l63 443h14z" />
    <glyph glyph-name="cent" unicode="&#xa2;" horiz-adv-x="466" 
d="M319 528q78 0 127 -50l-10 -9q-46 47 -117 47q-58 0 -104 -29t-73.5 -76t-41.5 -102.5t-14 -112.5q0 -93 42.5 -142.5t116.5 -49.5q73 0 138 50l7 -10q-66 -53 -145 -53h-5l-19 -136h-13l19 136q-72 6 -113.5 59t-41.5 146q0 58 14 114t41.5 104.5t74 79.5t104.5 34
l21 146h12z" />
    <glyph glyph-name="sterling" unicode="&#xa3;" horiz-adv-x="495" 
d="M355 672q84 0 130 -65l-10 -8q-42 60 -120 60q-67 0 -108.5 -43t-51.5 -111l-20 -144h214l-2 -13h-213l-31 -219q-7 -48 -27.5 -73t-62.5 -42h342l-4 -14h-362l2 13q47 20 69.5 44.5t28.5 71.5l31 219h-61l2 13h61l20 145q10 73 54.5 119.5t118.5 46.5z" />
    <glyph glyph-name="currency" unicode="&#xa4;" horiz-adv-x="560" 
d="M450 340q0 -77 -49 -127l79 -78l-9 -9l-80 78q-46 -40 -111 -40t-111 40l-80 -78l-9 9l79 78q-49 50 -49 127q0 74 47 124l-77 79l9 9l77 -78q47 42 114 42q68 0 114 -42l77 78l9 -9l-77 -78q47 -50 47 -125zM124 339.5q0 -71.5 43.5 -117t112.5 -45.5q70 0 113 45.5
t43 117t-42.5 117.5t-113.5 46t-113.5 -46t-42.5 -117.5z" />
    <glyph glyph-name="yen" unicode="&#xa5;" horiz-adv-x="479" 
d="M512 661l-250 -336h127l-2 -14h-132l-18 -123h132l-1 -13h-132l-25 -175h-14l24 175h-130l1 13h131l17 123h-130l2 14h124l-157 336h17l153 -335l246 335h17z" />
    <glyph glyph-name="brokenbar" unicode="&#xa6;" horiz-adv-x="416" 
d="M291 801l-50 -358h-14l50 358h14zM215 262l-49 -360h-14l49 360h14z" />
    <glyph glyph-name="section" unicode="&#xa7;" horiz-adv-x="531" 
d="M328 659q-71 0 -108 -33.5t-37 -80.5q0 -40 26.5 -65t97.5 -51q68 -25 97 -55.5t29 -75.5t-23.5 -78t-80.5 -64q49 -32 49 -87.5t-42 -93t-121 -37.5q-85 0 -147 43l8 11q54 -41 139 -41q75 0 111.5 33.5t36.5 83.5q0 39 -26 64.5t-93 49.5q-72 26 -102.5 54t-30.5 74
q0 42 24.5 75.5t85.5 68.5q-28 19 -40 40.5t-12 51.5q0 51 42 88t117 37t138 -42l-7 -10q-59 40 -131 40zM418 298q0 26 -10.5 46.5t-36 38.5t-68.5 34q-45 16 -71 31q-60 -35 -83.5 -66.5t-23.5 -71.5q0 -41 28 -67t97 -50q43 -15 69 -31q57 31 78 63t21 73z" />
    <glyph glyph-name="dieresis" unicode="&#xa8;" horiz-adv-x="248" 
d="M104 675q-14 0 -14 13q0 4 2 7.5t5.5 5.5t8.5 2q13 0 13 -12q0 -7 -4 -11.5t-11 -4.5zM263 675q-14 0 -14 13q0 6 4.5 10.5t11.5 4.5q13 0 13 -12q0 -7 -4 -11.5t-11 -4.5z" />
    <glyph glyph-name="copyright" unicode="&#xa9;" horiz-adv-x="810" 
d="M430 717q119 0 196.5 -78.5t77.5 -203.5q0 -123 -77.5 -202.5t-196.5 -79.5q-78 0 -140.5 35t-98 100t-35.5 147q0 123 77.5 202.5t196.5 79.5zM430.5 704q-113.5 0 -186.5 -75.5t-73 -193.5q0 -120 72.5 -194.5t186.5 -74.5q113 0 186 75.5t73 193.5q0 120 -72.5 194.5
t-186 74.5zM429 605q47 0 82 -28l-7 -10q-32 24 -75 24q-45 0 -80.5 -37.5t-35.5 -116.5q0 -77 32.5 -117t83.5 -40q49 0 86 29l7 -10q-38 -32 -94 -32q-57 0 -93 45t-36 125q0 83 40 125.5t90 42.5z" />
    <glyph glyph-name="ordfeminine" unicode="&#xaa;" horiz-adv-x="500" 
d="M221 277q-52 0 -80.5 28t-28.5 74q0 62 47.5 99t130.5 37h98l6 48q8 54 -13.5 79.5t-76 25.5t-120.5 -24l-3 12q68 25 124 25q119 0 103 -118l-27 -195q-7 -28 -2.5 -50t29.5 -31l-4 -10q-26 8 -33 26t-5 51q-57 -77 -145 -77zM221 290q90 0 147 84l18 128h-96
q-79 0 -121.5 -32.5t-42.5 -90.5q0 -41 25 -65t70 -24zM54 0l1 14h321l-2 -14h-320z" />
    <glyph glyph-name="guillemotleft" unicode="&#xab;" horiz-adv-x="528" 
d="M275 500l9 -7l-170 -205l113 -204l-10 -7l-120 206l1 10zM457 500l9 -7l-170 -205l114 -204l-11 -7l-119 206v10z" />
    <glyph glyph-name="logicalnot" unicode="&#xac;" horiz-adv-x="493" 
d="M422 327l-18 -122h-15l16 109h-316l2 13h331z" />
    <glyph glyph-name="uni00AD" unicode="&#xad;" horiz-adv-x="400" 
d="M87 306l2 13h238l-1 -13h-239z" />
    <glyph glyph-name="registered" unicode="&#xae;" horiz-adv-x="636" 
d="M352 716q94 0 155 -61t61 -152q0 -60 -26 -109.5t-76 -79t-114 -29.5q-95 0 -156 60.5t-61 152.5t60 155t157 63zM352 297q91 0 147 59.5t56 146.5q0 86 -57 143.5t-146 57.5q-61 0 -108 -28t-71 -74.5t-24 -103.5q0 -86 57 -143.5t146 -57.5zM437 563q0 -32 -17.5 -49.5
t-46.5 -22.5l74 -121h-17l-71 120h-64v-120h-14v268h59q97 0 97 -75zM295 625v-122h64q29 0 46.5 14.5t17.5 45.5q0 62 -81 62h-47z" />
    <glyph glyph-name="macron" unicode="&#xaf;" horiz-adv-x="260" 
d="M290 686h-200l2 14h201z" />
    <glyph glyph-name="degree" unicode="&#xb0;" horiz-adv-x="520" 
d="M242 415q-51 0 -82.5 31t-31.5 85q0 68 44.5 114t104.5 46q53 0 84 -31t31 -84q0 -45 -19.5 -82t-54 -58t-76.5 -21zM242 428q60 0 98 42t38 106q0 47 -26.5 74.5t-74.5 27.5q-56 0 -95 -42t-39 -105q0 -19 4.5 -35t13 -28.5t20.5 -21.5t27.5 -13.5t33.5 -4.5z" />
    <glyph glyph-name="plusminus" unicode="&#xb1;" horiz-adv-x="484" 
d="M283 493l-22 -155h153l-2 -14h-153l-22 -155h-15l22 155h-153l2 14h154l21 155h15zM45 0l1 14h321l-1 -14h-321z" />
    <glyph glyph-name="uni00B2" unicode="&#xb2;" horiz-adv-x="400" 
d="M264 736q31 0 53 -12t32.5 -32t10.5 -46q0 -16 -3.5 -31.5t-8.5 -28.5t-16 -30t-19 -28.5t-25 -30t-27.5 -29.5t-33.5 -32t-35 -32t-39 -35t-40 -36h215l-4 -13h-230l2 13q13 12 38 35q49 43 71.5 64t55.5 55t47.5 56t25.5 49.5t11 53.5q0 36 -21 56.5t-61 20.5
q-59 0 -111 -50l-9 8q57 55 121 55z" />
    <glyph glyph-name="uni00B3" unicode="&#xb3;" horiz-adv-x="400" 
d="M268 737q45 0 70.5 -23t25.5 -63q0 -32 -15 -57t-38.5 -38.5t-50.5 -16.5q39 -2 63 -24t24 -62q0 -60 -39.5 -99.5t-103.5 -39.5q-70 0 -110 52l10 7q36 -47 99 -47q31 0 55.5 10t41 27.5t25 40.5t8.5 50q0 39 -25 58.5t-71 19.5h-25l4 12h21q46 0 79.5 29.5t33.5 78.5
q0 17 -5.5 30.5t-16 23t-26 14.5t-34.5 5q-58 0 -110 -42l-7 10q54 44 117 44z" />
    <glyph glyph-name="acute" unicode="&#xb4;" horiz-adv-x="240" 
d="M271 755l5 -15l-185 -83l-4 10z" />
    <glyph glyph-name="uni00B5" unicode="&#xb5;" horiz-adv-x="581" 
d="M441 166q-13 -85 3 -166l-12 -3q-15 70 -8 136q-85 -142 -204 -142q-102 0 -112 89q-12 -99 -18 -142l-19 -129l-14 -1l100 710h14l-53 -380q-10 -70 19 -102t83 -32q119 0 204 149l52 365h14z" />
    <glyph glyph-name="paragraph" unicode="&#xb6;" horiz-adv-x="685" 
d="M395 681h172l-123 -872l-14 -3l121 862h-145l-120 -859l-15 -3l71 503q-99 1 -144.5 43.5t-45.5 113.5q0 99 66.5 157t176.5 58z" />
    <glyph glyph-name="periodcentered" unicode="&#xb7;" horiz-adv-x="146" 
d="M82 311q-8 0 -12 4.5t-4 10.5q0 8 5 13t12 5q16 0 16 -16q0 -7 -5 -12t-12 -5z" />
    <glyph glyph-name="cedilla" unicode="&#xb8;" horiz-adv-x="205" 
d="M50 3l-16 -81q43 -2 63.5 -16t20.5 -44q0 -31 -23.5 -50.5t-63.5 -19.5q-37 0 -64 17l7 11q23 -15 57 -15q23 0 39.5 7t24.5 19.5t8 29.5q0 27 -19 38.5t-64 12.5l19 91h11z" />
    <glyph glyph-name="uni00B9" unicode="&#xb9;" horiz-adv-x="400" 
d="M302 730l-57 -410h-14l56 394l-122 -68l-6 11l132 73h11z" />
    <glyph glyph-name="ordmasculine" unicode="&#xba;" horiz-adv-x="500" 
d="M309 681q44 0 75.5 -17.5t48 -52.5t16.5 -84q0 -104 -53 -177t-144 -73q-44 0 -75.5 18.5t-47.5 53.5t-16 84q0 104 52.5 176t143.5 72zM309 668q-44 0 -79 -19.5t-57 -52.5t-34 -74.5t-12 -88.5q0 -69 33 -106t93 -37q58 0 100 34t62 87t20 117q0 68 -33 104t-93 36z
M53 0l2 14h321l-2 -14h-321z" />
    <glyph glyph-name="guillemotright" unicode="&#xbb;" horiz-adv-x="526" 
d="M137 500l118 -207v-10l-177 -206l-9 7l170 204l-112 205zM319 500l119 -207l-1 -10l-177 -206l-9 7l170 204l-112 205z" />
    <glyph glyph-name="onequarter" unicode="&#xbc;" horiz-adv-x="884" 
d="M707 738l11 -5l-519 -799l-11 5zM225 271l55 394l-122 -68l-6 11l133 73h11l-58 -410h-13zM799 129l-2 -13h-60l-16 -116h-14l17 116h-194l2 11l175 290l11 -5l-172 -283h180l19 130h12l-18 -130h60z" />
    <glyph glyph-name="onehalf" unicode="&#xbd;" horiz-adv-x="884" 
d="M707 738l11 -5l-519 -799l-11 5zM296 681l-58 -410h-13l55 394l-122 -68l-6 11l133 73h11zM703 416q46 0 71 -25t25 -66q0 -16 -3.5 -32.5t-13 -34t-16.5 -31t-25 -34t-28 -32t-36 -35.5t-37 -34.5t-43.5 -39t-44.5 -39.5h215l-4 -13h-230l2 13q13 12 38 34
q49 44 71.5 65t55.5 55t47.5 56t25.5 49t11 53q0 24 -9 41.5t-27.5 27t-45.5 9.5q-59 0 -111 -51l-9 9q57 55 121 55z" />
    <glyph glyph-name="threequarters" unicode="&#xbe;" horiz-adv-x="884" 
d="M707 738l11 -5l-519 -799l-11 5zM340 404q0 -60 -39 -99.5t-104 -39.5q-70 0 -110 52l10 6q36 -46 100 -46q60 0 94.5 36.5t34.5 90.5q0 40 -25 59.5t-71 19.5h-25l4 12h21q46 0 79.5 29.5t33.5 78.5q0 34 -21.5 53.5t-60.5 19.5q-58 0 -109 -42l-8 10q54 44 117 44
q30 0 52 -10.5t33 -30t11 -45.5q0 -48 -30.5 -77.5t-73.5 -34.5q39 -2 63 -24t24 -62zM799 129l-2 -13h-60l-16 -116h-14l17 116h-194l2 11l175 290l11 -5l-172 -283h180l19 130h12l-18 -130h60z" />
    <glyph glyph-name="questiondown" unicode="&#xbf;" horiz-adv-x="443" 
d="M252 502q5 0 8.5 -2t5.5 -5.5t2 -7.5q0 -8 -5 -13t-13 -5q-16 0 -16 16q0 8 5 12.5t13 4.5zM146 -196q-41 0 -70.5 15.5t-44 41t-14.5 56.5q0 41 17 74t42 53t54 40.5t54 37.5t41.5 44t16.5 60q0 24 -9 55l13 3q10 -32 10 -58q0 -31 -12 -55.5t-32 -42t-44 -33.5t-48 -33
t-44 -36t-32 -47t-12 -62q0 -43 30 -71.5t84 -28.5q50 0 89 18t82 59l9 -9q-44 -42 -86 -61.5t-94 -19.5z" />
    <glyph glyph-name="Agrave" unicode="&#xc0;" horiz-adv-x="557" 
d="M440 776l-5 -9l-163 71l8 15zM475 0l-43 207h-322l-101 -207h-15l335 681h17l144 -681h-15zM117 221h312l-93 447z" />
    <glyph glyph-name="Aacute" unicode="&#xc1;" horiz-adv-x="557" 
d="M443 838l-183 -71l-5 9l182 77zM475 0l-43 207h-322l-101 -207h-15l335 681h17l144 -681h-15zM117 221h312l-93 447z" />
    <glyph glyph-name="Acircumflex" unicode="&#xc2;" horiz-adv-x="557" 
d="M358 846l-123 -78l-7 9l126 85h8l104 -86l-8 -8zM475 0l-43 207h-322l-101 -207h-15l335 681h17l144 -681h-15zM117 221h312l-93 447z" />
    <glyph glyph-name="Atilde" unicode="&#xc3;" horiz-adv-x="557" 
d="M303 851q-18 0 -32 -8t-33 -28l-9 7q40 42 74 42q20 0 55 -22t57 -22q31 0 65 40l9 -6q-36 -47 -74 -47q-25 0 -59.5 22t-52.5 22zM475 0l-43 207h-322l-101 -207h-15l335 681h17l144 -681h-15zM117 221h312l-93 447z" />
    <glyph glyph-name="Adieresis" unicode="&#xc4;" horiz-adv-x="557" 
d="M276 801q-13 0 -13 13q0 6 4 10.5t11 4.5q13 0 13 -12q0 -7 -4 -11.5t-11 -4.5zM435 801q-14 0 -14 13q0 6 4.5 10.5t11.5 4.5q13 0 13 -12q0 -7 -4 -11.5t-11 -4.5zM475 0l-43 207h-322l-101 -207h-15l335 681h17l144 -681h-15zM117 221h312l-93 447z" />
    <glyph glyph-name="Aring" unicode="&#xc5;" horiz-adv-x="557" 
d="M353 775q-32 0 -49.5 18.5t-14.5 48.5q2 34 25 55.5t57 21.5q32 0 49 -18.5t15 -48.5q-1 -23 -12 -40.5t-29 -27t-41 -9.5zM302 842q-2 -26 11.5 -41t39.5 -15q30 0 48.5 19t20.5 47q1 13 -2 23t-9 17.5t-16.5 11.5t-23.5 4q-20 0 -35 -8.5t-23.5 -23.5t-10.5 -34zM475 0
l-43 207h-322l-101 -207h-15l335 681h17l144 -681h-15zM117 221h312l-93 447z" />
    <glyph glyph-name="AE" unicode="&#xc6;" horiz-adv-x="753" 
d="M709 667h-349l37 -300h263l-2 -13h-260l42 -340h233l-2 -14h-244l-24 200h-303l-105 -200h-16l359 681h374zM402 213l-56 456l-239 -456h295z" />
    <glyph glyph-name="Ccedilla" unicode="&#xc7;" horiz-adv-x="535" 
d="M403 677q-55 0 -101.5 -19t-78.5 -52.5t-56.5 -75.5t-38.5 -90t-20.5 -94t-6.5 -90q0 -122 55 -186.5t149 -64.5q54 0 92.5 15.5t74.5 42.5l9 -11q-79 -61 -173 -61l-13 -69q42 -2 63 -16t21 -44q0 -31 -23.5 -50.5t-63.5 -19.5q-38 0 -64 17l6 11q23 -15 58 -15
q34 0 53 15.5t19 40.5q0 27 -19.5 38.5t-63.5 12.5l16 79q-98 3 -154.5 71.5t-56.5 193.5q0 56 10 113.5t34 116t59 103.5t90.5 73.5t123.5 28.5q35 0 64 -8t48 -20t38 -30l-9 -10q-20 18 -37.5 29t-43.5 18t-60 7z" />
    <glyph glyph-name="Egrave" unicode="&#xc8;" horiz-adv-x="494" 
d="M287 853l161 -77l-6 -9l-163 71zM499 681l-3 -14h-299l-41 -300h256l-2 -13h-256l-49 -340h309l-2 -14h-323l96 681h314z" />
    <glyph glyph-name="Eacute" unicode="&#xc9;" horiz-adv-x="494" 
d="M445 853l5 -15l-183 -71l-4 9zM499 681l-3 -14h-299l-41 -300h256l-2 -13h-256l-49 -340h309l-2 -14h-323l96 681h314z" />
    <glyph glyph-name="Ecircumflex" unicode="&#xca;" horiz-adv-x="494" 
d="M242 768l-6 9l126 85h8l103 -86l-8 -8l-100 78zM499 681l-3 -14h-299l-41 -300h256l-2 -13h-256l-49 -340h309l-2 -14h-323l96 681h314z" />
    </font>
</defs>
</svg>
