<?xml version="1.0" standalone="no"?>
<!DOCTYPE svg PUBLIC "-//W3C//DTD SVG 1.1//EN" "http://www.w3.org/Graphics/SVG/1.1/DTD/svg11.dtd" >
<svg xmlns="http://www.w3.org/2000/svg" xmlns:xlink="http://www.w3.org/1999/xlink" version="1.1">
<metadata>
Created by FontForge 20170731 at Tue Mar 20 17:54:02 2018
 By Aleksey,,,
Digitized data copyright 2012-2018 for FiraGO, bBox Type GmbH and HERE Europe B.V. All rights reserved, with Reserved Font Name "Fira" / Digitized data copyright 2012-2018 for Fira Sans The Mozilla Foundation, Telefonica S.A., Carrois Corporate GbR and bBox Type GmbH, with Reserved Font Name "Fira"
</metadata>
<defs>
<font id="FiraGO-LightItalic" horiz-adv-x="0" >
  <font-face 
    font-family="FiraGO Light"
    font-weight="300"
    font-style="italic"
    font-stretch="normal"
    units-per-em="1000"
    panose-1="2 11 4 3 5 0 0 2 0 4"
    ascent="800"
    descent="-200"
    x-height="523"
    cap-height="685"
    bbox="-764 -715 2500 1441"
    underline-thickness="50"
    underline-position="-200"
    slope="-8"
    unicode-range="U+000D-FEFF"
  />
<missing-glyph horiz-adv-x="663" 
d="M652 1050l-198 -1400h-418l198 1400h418zM590 998h-309l-183 -1296h309zM346 451q61 0 83 -33t14 -85q-7 -52 -32.5 -80t-76.5 -35l-8 -47q-3 -22 -25 -22q-11 0 -18 7.5t-6 18.5l10 82q53 3 75.5 21t28.5 59q4 32 -6 49t-43 17q-31 0 -54 -12q-12 -2 -13 -2
q-12 0 -18.5 7.5t-4.5 18.5q2 18 31.5 27t62.5 9zM291 120q16 0 25 -11t7 -27q-1 -15 -11.5 -24.5t-24.5 -9.5q-16 0 -25 11.5t-7 28.5q1 14 11.5 23t24.5 9z" />
    <glyph glyph-name="fi" unicode="fi" horiz-adv-x="564" 
d="M497 523l-74 -523h-58l67 476h-233l-64 -459q-10 -68 -32 -110t-51.5 -64t-85.5 -47l-18 45q41 19 63.5 36t40 51.5t25.5 90.5l64 457h-91l7 47h91l12 87q8 63 53 98.5t120 35.5q73 0 137 -43l-23 -40q-53 34 -114 34q-104 0 -116 -89l-12 -83h292z" />
    <glyph glyph-name="fl" unicode="fl" horiz-adv-x="583" 
d="M468 39q16 0 38 8l13 -44q-31 -14 -60 -14q-95 0 -80 108l81 575q-69 23 -130 23q-101 0 -113 -89l-12 -83h137l-13 -47h-130l-64 -459q-10 -68 -32 -110t-51.5 -64t-85.5 -47l-18 45q41 19 63.5 36t40 51.5t25.5 90.5l64 457h-91l7 47h91l12 87q8 63 53 98.5t118 35.5
q72 0 139 -26l54 6l-89 -636q-6 -49 33 -49z" />
    <glyph glyph-name="uniFDF2" unicode="&#x627;&#xfedf;&#xfee0;&#xfeea;" horiz-adv-x="1108" arabic-form="isolated" 
d="M589 755h-36l-6 159l36 4zM1018 750l10 -747l-52 -6l-20 747zM521 588q-26 0 -44.5 18t-18.5 53q0 28 11 59l30 -6q-7 -18 -7 -46q0 -41 32 -41q16 0 26 12.5t10 32.5v40h31v-42q0 -41 33 -41q34 0 34 45q0 30 -13 60l30 9q17 -40 17 -79q0 -34 -18 -52.5t-47 -18.5
q-38 0 -51 30q-18 -33 -55 -33zM749 640l57 7l11 -552q-34 -95 -134 -95q-85 0 -115 68q-30 -68 -109 -68q-47 0 -81 22.5t-47 62.5q-68 -48 -157 -48q-63 0 -105 29.5t-42 76.5q0 81 75.5 145.5t205.5 93.5l-4 76l57 6l8 -301q1 -56 22.5 -80.5t67.5 -24.5q61 0 84 55
l-17 430l57 7l10 -390q1 -55 22.5 -78.5t65.5 -23.5q59 0 83 47zM178 91q76 0 141 45l-9 191q-109 -20 -174 -73t-65 -116q23 -47 107 -47z" />
    <glyph glyph-name="uniFEF5" unicode="&#xfedf;&#xfe82;" horiz-adv-x="624" arabic-form="isolated" 
d="M149 714q-17 0 -41 9t-36 9q-28 0 -44 -33l-31 10q10 30 31 46.5t46 16.5q20 0 43.5 -10t38.5 -10q23 0 55 18l16 -26q-37 -30 -78 -30zM446 315q92 -119 103 -248q-39 -35 -100.5 -51t-167.5 -16h-184l4 54q112 76 180.5 135t106.5 119q-65 77 -166 154l-159 121l61 24
l145 -117q88 -72 145 -136q49 101 38 265l-7 125l56 6l5 -135q7 -174 -60 -300zM180 56h101q160 0 219 37q-10 83 -81 177q-77 -112 -239 -214z" />
    <glyph glyph-name="uniFEF6" unicode="&#xfee0;&#xfe82;" horiz-adv-x="636" arabic-form="final" 
d="M641 60l15 -31l-20 -29q-40 0 -72.5 21t-47.5 62q-67 -83 -262 -83h-177l-14 60h199q95 0 148 14l-304 483l65 11l30 -51q192 -312 245 -429q30 14 55 43l-19 613l57 7l10 -572q1 -65 23.5 -92t68.5 -27zM108 673q-28 0 -44 -33l-31 10q10 30 31 46.5t46 16.5
q20 0 43.5 -10t38.5 -10q23 0 55 18l16 -26q-37 -30 -78 -30q-17 0 -41 9t-36 9z" />
    <glyph glyph-name="uniFEF7" unicode="&#xfedf;&#xfe84;" horiz-adv-x="624" arabic-form="isolated" 
d="M203 757l2 -31l-194 -31l-1 32l65 10q-47 34 -47 75q0 33 23.5 55t67.5 22q33 0 60 -16l-10 -33q-29 15 -53 15q-28 0 -40.5 -13t-12.5 -31q0 -35 50 -68zM446 315q92 -119 103 -248q-39 -35 -100.5 -51t-167.5 -16h-184l4 54q112 76 180.5 135t106.5 119
q-65 77 -166 154l-159 121l61 24l145 -117q88 -72 145 -136q49 101 38 265l-7 125l56 6l5 -135q7 -174 -60 -300zM180 56h101q160 0 219 37q-10 83 -81 177q-77 -112 -239 -214z" />
    <glyph glyph-name="uniFEF8" unicode="&#xfee0;&#xfe84;" horiz-adv-x="636" arabic-form="final" 
d="M239 698l2 -31l-194 -31l-1 32l65 10q-47 34 -47 75q0 33 23.5 55t67.5 22q33 0 60 -16l-10 -33q-29 15 -53 15q-28 0 -40.5 -13t-12.5 -31q0 -35 50 -68zM641 60l15 -31l-20 -29q-40 0 -72.5 21t-47.5 62q-67 -83 -262 -83h-177l-14 60h199q95 0 148 14l-304 483l65 11
l30 -51q192 -312 245 -429q30 14 55 43l-19 613l57 7l10 -572q1 -65 23.5 -92t68.5 -27z" />
    <glyph glyph-name="uniFEF9" unicode="&#xfedf;&#xfe88;" horiz-adv-x="624" arabic-form="isolated" 
d="M388 308q-65 77 -166 154l-159 121l61 24l145 -117q88 -72 145 -136q49 101 38 265l-7 125l56 6l5 -135q7 -174 -60 -300q92 -119 103 -248q-39 -35 -100.5 -51t-167.5 -16h-184l4 54q112 76 180.5 135t106.5 119zM500 93q-10 83 -81 177q-77 -112 -239 -214h101
q160 0 219 37zM198 -200l90 14l1 -31l-194 -31l-1 32l65 10q-47 34 -47 75q0 33 23.5 55t67.5 22q33 0 60 -16l-10 -33q-28 15 -53 15q-28 0 -40.5 -13t-12.5 -31q0 -36 51 -68z" />
    <glyph glyph-name="uniFEFA" unicode="&#xfee0;&#xfe88;" horiz-adv-x="636" arabic-form="final" 
d="M641 60l15 -31l-20 -29q-40 0 -72.5 21t-47.5 62q-67 -83 -262 -83h-177l-14 60h199q95 0 148 14l-304 483l65 11l30 -51q192 -312 245 -429q30 14 55 43l-19 613l57 7l10 -572q1 -65 23.5 -92t68.5 -27zM200 -200l90 14l1 -31l-193 -31l-1 32l65 10q-48 34 -48 75
q0 33 23.5 55t67.5 22q34 0 60 -16l-9 -33q-30 15 -54 15q-28 0 -40.5 -13t-12.5 -31q0 -35 51 -68z" />
    <glyph glyph-name="uniFEFB" unicode="&#xfedf;&#xfe8e;" horiz-adv-x="624" arabic-form="isolated" 
d="M446 315q92 -119 103 -248q-39 -35 -100.5 -51t-167.5 -16h-184l4 54q112 76 180.5 135t106.5 119q-65 77 -166 154l-159 121l61 24l145 -117q88 -72 145 -136q49 101 38 265l-7 125l56 6l5 -135q7 -174 -60 -300zM180 56h101q160 0 219 37q-10 83 -81 177
q-77 -112 -239 -214z" />
    <glyph glyph-name="uniFEFC" unicode="&#xfee0;&#xfe8e;" horiz-adv-x="636" arabic-form="final" 
d="M641 60l15 -31l-20 -29q-40 0 -72.5 21t-47.5 62q-67 -83 -262 -83h-177l-14 60h199q95 0 148 14l-304 483l65 11l30 -51q192 -312 245 -429q30 14 55 43l-19 613l57 7l10 -572q1 -65 23.5 -92t68.5 -27z" />
    <glyph glyph-name="f_f" unicode="ff" horiz-adv-x="614" 
d="M618 695q-94 0 -106 -89l-12 -83h137l-13 -47h-130l-65 -459q-11 -85 -40 -127t-90 -76l-20 44q41 25 62.5 59t30.5 101l64 458h-238l-63 -459q-10 -68 -32 -110t-51.5 -64t-85.5 -47l-18 45q41 19 63.5 36t40 51.5t25.5 90.5l64 457h-91l7 47h90l11 77q9 63 55 98.5
t122 35.5q81 0 157 -39q46 49 124 49q60 0 118 -36l-23 -40q-46 27 -93 27zM443 523l12 87q3 25 12 46q-69 29 -131 29q-108 0 -121 -89l-10 -73h238z" />
    <glyph glyph-name="f_f_i" unicode="ffi" horiz-adv-x="859" 
d="M792 523l-74 -523h-59l67 476h-232l-65 -459q-11 -85 -40 -127t-90 -76l-20 44q41 25 62.5 59t30.5 101l64 458h-238l-63 -459q-10 -68 -32 -110t-51.5 -64t-85.5 -47l-18 45q41 19 63.5 36t40 51.5t25.5 90.5l64 457h-91l7 47h90l11 77q9 63 55 98.5t122 35.5
q82 0 158 -39q47 49 135 49q73 0 137 -43l-24 -40q-51 34 -113 34q-104 0 -116 -89l-12 -83h292zM443 523l12 87q3 26 13 46q-71 29 -132 29q-108 0 -121 -89l-10 -73h238z" />
    <glyph glyph-name="f_f_j" unicode="ffj" horiz-adv-x="863" 
d="M796 523l-72 -506q-12 -85 -40.5 -127t-89.5 -76l-20 44q41 25 62.5 59t30.5 101l64 458h-237l-65 -459q-11 -85 -40 -127t-90 -76l-20 44q41 25 62.5 59t30.5 101l64 458h-238l-63 -459q-10 -68 -32 -110t-51.5 -64t-85.5 -47l-18 45q41 19 63.5 36t40 51.5t25.5 90.5
l64 457h-91l7 47h90l11 77q9 63 55 98.5t122 35.5q82 0 158 -39q47 49 135 49q73 0 137 -43l-24 -40q-51 34 -113 34q-104 0 -116 -89l-12 -83h296zM443 523l12 87q3 26 13 46q-71 29 -132 29q-108 0 -121 -89l-10 -73h238z" />
    <glyph glyph-name="f_f_l" unicode="ffl" horiz-adv-x="878" 
d="M763 39q16 0 38 8l13 -44q-31 -14 -60 -14q-96 0 -80 108l81 575q-71 23 -130 23q-101 0 -113 -89l-12 -83h137l-13 -47h-130l-65 -459q-11 -85 -40 -127t-90 -76l-20 44q41 25 62.5 59t30.5 101l64 458h-238l-63 -459q-10 -68 -32 -110t-51.5 -64t-85.5 -47l-18 45
q41 19 63.5 36t40 51.5t25.5 90.5l64 457h-91l7 47h90l11 77q9 63 55 98.5t122 35.5q82 0 158 -39q47 49 133 49q72 0 139 -26l54 6l-89 -636q-6 -49 33 -49zM443 523l12 87q3 26 13 46q-71 29 -132 29q-108 0 -121 -89l-10 -73h238z" />
    <glyph glyph-name="f_j" unicode="fj" horiz-adv-x="568" 
d="M501 523l-72 -506q-12 -85 -40.5 -127t-89.5 -76l-20 44q41 25 62.5 59t30.5 101l64 458h-237l-64 -459q-10 -68 -32 -110t-51.5 -64t-85.5 -47l-18 45q41 19 63.5 36t40 51.5t25.5 90.5l64 457h-91l7 47h91l12 87q8 63 53 98.5t120 35.5q73 0 137 -43l-23 -40
q-53 34 -114 34q-104 0 -116 -89l-12 -83h296z" />
    <glyph glyph-name="uni0E240E45" unicode="&#xe24;&#xe45;" horiz-adv-x="918" 
d="M659 581q199 0 176 -187h-1l-56 -395l-28 -198l-57 9l26 189l57 403h1q7 68 -22 98.5t-101 30.5q-64 0 -145 -21q38 -50 26 -134l-34 -245l-19 -131l-28 -197l-56 8l26 189l53 377q10 76 -22 111t-106 35q-117 0 -199 -82q78 -13 145 -44l-7 -47q-68 -6 -99 -39.5
t-39 -92.5l-18 -126q-7 -53 40 -53q25 0 53 12l10 -44q-40 -18 -75 -18q-47 0 -69 28.5t-15 80.5l18 124q20 138 146 154q-75 29 -149 35l6 41q107 119 255 119q76 0 122 -29q99 39 185 39z" />
    <glyph glyph-name="uni0E260E45" unicode="&#xe26;&#xe45;" horiz-adv-x="911" 
d="M828 402v-1q0 -2 -0.5 -4t-0.5 -3l-56 -395l-28 -198l-57 9l26 189l57 403h1q6 68 -23 98.5t-101 30.5q-66 0 -143 -21q37 -49 25 -134l-35 -245l-18 -131l-28 -197l-57 8l26 189l54 377q10 76 -21.5 111t-104.5 35q-115 0 -195 -82q79 -13 144 -44l-7 -48
q-64 -10 -87 -41.5t-32 -95.5l-14 -99q-9 -60 -31 -89.5t-78 -29.5q-13 0 -22 1l1 43h9q34 0 45.5 18t18.5 70l14 99q9 64 37 101t95 49q-75 30 -152 36l6 41q103 119 251 119q74 0 121 -28q101 38 183 38q197 0 177 -179z" />
    <glyph glyph-name="uni06440671" unicode="&#xfedf;&#xfb51;" horiz-adv-x="624" 
d="M126 693q-31 0 -81 16l-17 -39l-30 11l24 68q6 -2 32 -10q45 93 113 93q30 0 48.5 -17.5t18.5 -46.5q0 -38 -29.5 -56.5t-78.5 -18.5zM164 798q-46 0 -82 -65q27 -6 51 -6q68 0 68 38q0 33 -37 33zM446 315q92 -119 103 -248q-39 -35 -100.5 -51t-167.5 -16h-184l4 54
q112 76 180.5 135t106.5 119q-65 77 -166 154l-159 121l61 24l145 -117q88 -72 145 -136q49 101 38 265l-7 125l56 6l5 -135q7 -174 -60 -300zM180 56h101q160 0 219 37q-10 83 -81 177q-77 -112 -239 -214z" />
    <glyph glyph-name="uni06440671.fina" unicode="&#xfee0;&#xfb51;" horiz-adv-x="636" 
d="M81 651l-17 -39l-30 11l24 68q6 -2 32 -10q45 93 113 93q30 0 48.5 -17.5t18.5 -46.5q0 -38 -29.5 -56.5t-78.5 -18.5q-31 0 -81 16zM641 60l15 -31l-20 -29q-40 0 -72.5 21t-47.5 62q-67 -83 -262 -83h-177l-14 60h199q95 0 148 14l-304 483l65 11l30 -51
q192 -312 245 -429q30 14 55 43l-19 613l57 7l10 -572q1 -65 23.5 -92t68.5 -27zM200 740q-46 0 -82 -65q27 -6 51 -6q68 0 68 38q0 33 -37 33z" />
    <glyph glyph-name="uni0E1B0E31" unicode="&#xe1b;&#xe31;" horiz-adv-x="604" 
d="M695 687q-63 -17 -138 -25l-14 -100l-50 -362q-14 -99 -72.5 -154.5t-160.5 -55.5q-97 0 -141.5 57.5t-29.5 156.5l32 230q10 71 -8 124l54 4q24 -58 12 -128l-32 -230q-23 -166 115 -166q150 0 174 170l49 354l13 96q-11 -1 -32 -1q-114 0 -114 72q0 27 15 67h45
q-13 -43 -13 -59q0 -21 17 -29.5t58 -8.5q19 0 30 1l11 80l58 -7l-10 -69q69 8 129 24z" />
    <glyph glyph-name="uni0E1B0E49" unicode="&#xe1b;&#xe49;" horiz-adv-x="604" 
d="M572 773l-30 -211h1l-50 -362q-14 -99 -72.5 -154.5t-160.5 -55.5q-97 0 -141.5 57.5t-29.5 156.5l32 230q10 71 -8 124l54 4q24 -58 12 -128l-32 -230q-23 -166 115 -166q150 0 174 170l49 354h-1l22 156q-42 -34 -103.5 -48t-159.5 -16l-12 22q40 44 40 76q0 33 -39 33
q-11 0 -41 -5l-3 37q28 8 53 8q35 0 58 -17t23 -48q0 -36 -26 -65q81 3 131.5 23t86.5 63l3 -1z" />
    <glyph glyph-name="uni0E1B0E4A" unicode="&#xe1b;&#xe4a;" horiz-adv-x="604" 
d="M515 780l58 -7l-30 -211l-50 -362q-14 -99 -72.5 -154.5t-160.5 -55.5q-97 0 -141.5 57.5t-29.5 156.5l32 230q10 71 -8 124l54 4q24 -58 12 -128l-32 -230q-23 -166 115 -166q150 0 174 170l49 354l20 147q-53 -53 -138 -53q-23 0 -45 5q17 43 17 82q0 42 -38 42
q-25 0 -44 -22.5t-25 -60.5l-4 -26l-48 -4l5 34q11 79 -42 79q-60 0 -60 -90q0 -24 1 -36h-43q-3 17 -3 37q0 59 25 94t75 35q39 0 57 -20.5t20 -48.5q22 69 94 69q38 0 58 -20.5t20 -53.5q0 -26 -13 -58q91 3 141 87z" />
    <glyph glyph-name="uni0E1B0E4B" unicode="&#xe1b;&#xe4b;" horiz-adv-x="604" 
d="M321 659l10 67l-77 -1l10 40h72l8 57l49 7l-10 -64h74l-6 -40l-73 1l-9 -67h-48zM515 780l57 -7l-29 -211l-50 -362q-14 -99 -72.5 -154.5t-160.5 -55.5q-97 0 -141.5 57.5t-29.5 156.5l32 230q10 71 -8 124l54 4q24 -58 12 -128l-32 -230q-23 -166 115 -166
q150 0 174 170l49 354h-1z" />
    <glyph glyph-name="uni0E1B0E4C" unicode="&#xe1b;&#xe4c;" horiz-adv-x="604" 
d="M658 746l-6 -42h-89l-20 -142l-50 -362q-14 -99 -72.5 -154.5t-160.5 -55.5q-97 0 -141.5 57.5t-29.5 156.5l32 230q10 71 -8 124l54 4q24 -58 12 -128l-32 -230q-23 -166 115 -166q150 0 174 170l49 354l20 142h-64q-59 0 -59 -50q0 -20 1 -36h-46q-3 21 -3 39
q0 89 105 89h71l5 34l58 -7l-4 -27h89z" />
    <glyph glyph-name="uni0E1B0E4D" unicode="&#xe1b;&#xe4d;" horiz-adv-x="604" 
d="M358 654q-37 0 -60 21t-23 55q0 39 25.5 68.5t73.5 29.5q37 0 59.5 -21t22.5 -55q0 -38 -25 -68t-73 -30zM372 789q-27 0 -40 -17.5t-13 -39.5q0 -38 41 -38q27 0 39.5 17t12.5 39q0 39 -40 39zM515 780l57 -7l-29 -211l-50 -362q-14 -99 -72.5 -154.5t-160.5 -55.5
q-97 0 -141.5 57.5t-29.5 156.5l32 230q10 71 -8 124l54 4q24 -58 12 -128l-32 -230q-23 -166 115 -166q150 0 174 170l49 354h-1z" />
    <glyph glyph-name="uni0E1D0E31" unicode="&#xe1d;&#xe31;" horiz-adv-x="728" 
d="M819 687q-63 -17 -138 -25l-14 -100l-50 -358q-15 -111 -60.5 -163t-112.5 -52q-52 0 -81 30.5t-28 89.5q-38 -120 -138 -120q-69 0 -102 53t-17 166l13 94q21 148 59.5 208.5t117.5 60.5q35 0 66 -14l-13 -41q-21 8 -50 8q-54 0 -79.5 -51.5t-43.5 -174.5l-12 -90
q-13 -94 6 -132t64 -38q90 0 110 143l16 119l58 7l-18 -130q-19 -139 67 -139q97 0 120 169l50 355l13 96q-11 -1 -32 -1q-114 0 -114 72q0 30 16 67h45q-14 -40 -14 -59q0 -21 17 -29.5t58 -8.5q19 0 30 1l11 80l58 -7l-10 -69q69 8 129 24z" />
    <glyph glyph-name="uni0E1D0E49" unicode="&#xe1d;&#xe49;" horiz-adv-x="729" 
d="M642 780l55 -7l-30 -211l-50 -358q-15 -111 -60.5 -163t-112.5 -52q-52 0 -81 30.5t-28 89.5q-38 -120 -138 -120q-69 0 -102 53t-17 166l13 94q21 148 59.5 208.5t117.5 60.5q35 0 66 -14l-13 -41q-21 8 -50 8q-54 0 -79.5 -51.5t-43.5 -174.5l-12 -90q-13 -94 6 -132
t64 -38q90 0 110 143l16 119l58 7l-18 -130q-19 -139 67 -139q97 0 120 169l72 511q-42 -34 -103.5 -48t-159.5 -16l-12 22q40 44 40 76q0 33 -39 33q-11 0 -41 -5l-3 37q28 8 53 8q35 0 58 -17t23 -48q0 -36 -26 -65q81 3 131.5 23t86.5 63z" />
    <glyph glyph-name="uni0E1D0E4A" unicode="&#xe1d;&#xe4a;" horiz-adv-x="728" 
d="M639 780l58 -7l-30 -211l-50 -358q-15 -111 -60.5 -163t-112.5 -52q-52 0 -81 30.5t-28 89.5q-38 -120 -138 -120q-69 0 -102 53t-17 166l13 94q21 148 59.5 208.5t117.5 60.5q35 0 66 -14l-13 -41q-21 8 -50 8q-54 0 -79.5 -51.5t-43.5 -174.5l-12 -90q-13 -94 6 -132
t64 -38q90 0 110 143l16 119l58 7l-18 -130q-19 -139 67 -139q97 0 120 169l50 355l20 147q-53 -53 -138 -53q-23 0 -45 5q17 43 17 82q0 42 -38 42q-25 0 -44 -22.5t-25 -60.5l-4 -26l-48 -4l5 34q11 79 -42 79q-60 0 -60 -90q0 -24 1 -36h-43q-3 17 -3 37q0 59 25 94
t75 35q39 0 57 -20.5t20 -48.5q22 69 94 69q38 0 58 -20.5t20 -53.5q0 -26 -13 -58q91 3 141 87z" />
    <glyph glyph-name="uni0E1D0E4B" unicode="&#xe1d;&#xe4b;" horiz-adv-x="728" 
d="M445 659l10 67l-77 -1l10 40h72l8 57l49 7l-10 -64h74l-6 -40l-73 1l-9 -67h-48zM639 780l57 -7l-29 -211l-50 -358q-15 -111 -60.5 -163t-112.5 -52q-52 0 -81 30.5t-28 89.5q-38 -120 -138 -120q-69 0 -102 53t-17 166l13 94q21 148 59.5 208.5t117.5 60.5q35 0 66 -14
l-13 -41q-21 8 -50 8q-54 0 -79.5 -51.5t-43.5 -174.5l-12 -90q-13 -94 6 -132t64 -38q90 0 110 143l16 119l58 7l-18 -130q-19 -139 67 -139q97 0 120 169l50 355h-1z" />
    <glyph glyph-name="uni0E1D0E4C" unicode="&#xe1d;&#xe4c;" horiz-adv-x="728" 
d="M782 746l-6 -42h-89l-20 -142l-50 -358q-15 -111 -60.5 -163t-112.5 -52q-52 0 -81 30.5t-28 89.5q-38 -120 -138 -120q-69 0 -102 53t-17 166l13 94q21 148 59.5 208.5t117.5 60.5q35 0 66 -14l-13 -41q-21 8 -50 8q-54 0 -79.5 -51.5t-43.5 -174.5l-12 -90
q-13 -94 6 -132t64 -38q90 0 110 143l16 119l58 7l-18 -130q-19 -139 67 -139q97 0 120 169l70 497h-64q-58 0 -58 -50q0 -20 1 -36h-47q-3 21 -3 39q0 89 105 89h71l5 34l58 -7l-4 -27h89z" />
    <glyph glyph-name="uni0E1D0E4D" unicode="&#xe1d;&#xe4d;" horiz-adv-x="728" 
d="M482 654q-37 0 -60 21t-23 55q0 39 25.5 68.5t73.5 29.5q37 0 59.5 -21t22.5 -55q0 -38 -25 -68t-73 -30zM496 789q-27 0 -40 -17.5t-13 -39.5q0 -38 41 -38q27 0 39.5 17t12.5 39q0 39 -40 39zM639 780l57 -7l-29 -211l-50 -358q-15 -111 -60.5 -163t-112.5 -52
q-52 0 -81 30.5t-28 89.5q-38 -120 -138 -120q-69 0 -102 53t-17 166l13 94q21 148 59.5 208.5t117.5 60.5q35 0 66 -14l-13 -41q-21 8 -50 8q-54 0 -79.5 -51.5t-43.5 -174.5l-12 -90q-13 -94 6 -132t64 -38q90 0 110 143l16 119l58 7l-18 -130q-19 -139 67 -139
q97 0 120 169l50 355h-1z" />
    <glyph glyph-name="uni0E1F0E31" unicode="&#xe1f;&#xe31;" horiz-adv-x="762" 
d="M927 687q-68 -18 -157 -27l-32 -98l-185 -562h-76l-66 496l-207 -496h-73l-15 394q-5 113 -36 165l51 8q35 -47 39 -177l9 -338l210 510h63l70 -510l160 510l31 95h-16q-114 0 -114 72q0 30 16 67h45q-13 -37 -13 -59q0 -21 16.5 -29.5t57.5 -8.5h21l26 81h58l-25 -77
q77 9 138 25z" />
    <glyph glyph-name="uni0E1F0E49" unicode="&#xe1f;&#xe49;" horiz-adv-x="752" 
d="M810 780l-72 -218l-185 -562h-76l-66 496l-207 -496h-73l-15 394q-5 113 -36 165l51 8q35 -47 39 -177l9 -338l210 510h63l70 -510l160 510l28 86q11 35 22 62q-77 -53 -244 -56l-12 22q39 43 39 76t-39 33q-10 0 -40 -5l-3 37q26 8 52 8q36 0 58.5 -17t22.5 -49
q0 -33 -25 -64q139 6 211 85h58z" />
    <glyph glyph-name="uni0E1F0E4A" unicode="&#xe1f;&#xe4a;" horiz-adv-x="752" 
d="M753 780h57l-72 -218l-185 -562h-76l-66 496l-207 -496h-73l-15 394q-5 113 -36 165l51 8q35 -47 39 -177l9 -338l210 510h63l70 -510l160 510l25 76q8 26 21 57q-48 -39 -119 -39q-19 0 -44 5q18 46 18 82q0 42 -38 42q-26 0 -45 -22t-25 -61l-4 -26l-47 -4l4 34
q11 79 -42 79q-59 0 -59 -95q0 -16 1 -31h-44q-3 19 -3 46q0 54 25.5 87t75.5 33q39 0 56.5 -20.5t20.5 -48.5q9 29 32.5 49t61.5 20t58 -20.5t20 -53.5q0 -28 -14 -58q44 1 79.5 24.5t56.5 62.5z" />
    <glyph glyph-name="uni0E1F0E4B" unicode="&#xe1f;&#xe4b;" horiz-adv-x="752" 
d="M550 659l10 67l-77 -1l10 40h72l8 57l49 7l-10 -64h74l-6 -40l-73 1l-9 -67h-48zM752 780h58l-72 -218l-185 -562h-76l-66 496l-207 -496h-73l-15 394q-5 113 -36 165l51 8q35 -47 39 -177l9 -338l210 510h63l70 -510l160 510z" />
    <glyph glyph-name="uni0E1F0E4C" unicode="&#xe1f;&#xe4c;" horiz-adv-x="762" 
d="M889 746l-6 -42h-98l-47 -142l-185 -562h-76l-66 496l-207 -496h-73l-15 394q-5 113 -36 165l51 8q35 -47 39 -177l9 -338l210 510h63l70 -510l160 510l46 142h-56q-58 0 -58 -50q0 -20 1 -36h-47q-3 21 -3 39q0 89 105 89h71l11 34h58l-11 -34h90z" />
    <glyph glyph-name="uni0E1F0E4D" unicode="&#xe1f;&#xe4d;" horiz-adv-x="752" 
d="M587 654q-37 0 -60 21t-23 55q0 39 25.5 68.5t73.5 29.5q37 0 59.5 -21t22.5 -55q0 -38 -25 -68t-73 -30zM601 789q-27 0 -40 -17.5t-13 -39.5q0 -38 41 -38q27 0 39.5 17t12.5 39q0 39 -40 39zM752 780h58l-72 -218l-185 -562h-76l-66 496l-207 -496h-73l-15 394
q-5 113 -36 165l51 8q35 -47 39 -177l9 -338l210 510h63l70 -510l160 510z" />
    <glyph glyph-name="uni0E310E4A" unicode="&#xe31;&#xe4a;" 
d="M30 989l40 -13q-36 -64 -80 -93t-113 -29q-23 0 -33 3q15 47 15 75q0 37 -35 37q-24 0 -40 -20t-21 -53l-4 -25l-43 -3l5 31q8 70 -39 70q-53 0 -53 -74q0 -23 2 -39h-39q-4 20 -4 39q0 46 22 78.5t68 32.5q35 0 51.5 -18.5t18.5 -44.5q19 63 85 63q34 0 52 -18.5
t18 -48.5q0 -25 -12 -52q89 4 139 102zM-306 700q101 0 208 37l5 -44q-111 -37 -219 -37q-109 0 -109 74q0 32 16 66h45q-13 -34 -13 -60q0 -19 15.5 -27.5t51.5 -8.5z" />
    <glyph glyph-name="uni0620.init" unicode="&#x620;" horiz-adv-x="264" 
d="M154 43q42 -20 42 -67q0 -32 -21 -53.5t-55 -21.5t-56 21.5t-22 53.5q0 14 5 27q-23 -3 -47 -3l-20 30l25 30q91 0 145 49q0 119 -53 266l60 21q44 -141 44 -267q0 -52 -47 -86zM120 -67q21 0 32.5 12t11.5 31t-12 30.5t-32 11.5t-32.5 -11.5t-12.5 -30.5t12 -31t33 -12z
" />
    <glyph glyph-name="uni0620.medi" unicode="&#x620;" horiz-adv-x="307" 
d="M161 63q-9 -12 -21 -21q45 -20 45 -70q0 -32 -21.5 -53.5t-55.5 -21.5q-33 0 -55 22t-22 53q0 16 6 30q-26 -2 -38 -2l-19 29l24 31q98 0 130 48l-26 213h61l16 -205q37 -56 127 -56l15 -31l-20 -29q-101 0 -146 63zM153 -28q0 20 -12.5 31.5t-32.5 11.5t-32 -11.5
t-12 -31.5q0 -19 11.5 -31t32.5 -12q22 0 33.5 12t11.5 31z" />
    <glyph glyph-name="uni0620.fina" unicode="&#x620;" horiz-adv-x="712" 
d="M732 29l-20 -29q-54 0 -114 26q28 -33 28 -81q0 -41 -74 -87t-188 -57q15 -22 15 -47q0 -32 -21 -53.5t-55 -21.5q-33 0 -55.5 22t-22.5 53q0 28 17 48q-189 27 -189 225q0 92 42 183l41 -12q-31 -81 -31 -164q0 -176 203 -176q105 0 176.5 27t98.5 53q-2 52 -42.5 84.5
t-152.5 61.5l32 49q48 -13 113 -34.5t103 -30t82 -8.5zM303 -289q21 0 32.5 12t11.5 31q0 20 -12 31.5t-32 11.5t-32.5 -11.5t-12.5 -31.5q0 -19 12 -31t33 -12z" />
    <glyph glyph-name="uni063B.init" unicode="&#x63b;" horiz-adv-x="460" 
d="M132 753l-40 -49l-49 39l40 50zM-40 784l48 -39l-40 -50l-48 40zM407 755l-4 -63l-342 -222q258 -177 291 -354q-31 -50 -124.5 -83t-227.5 -33l-20 29l25 31q196 0 288 67q-26 143 -290 319l12 54z" />
    <glyph glyph-name="uni063B.medi" unicode="&#x63b;" horiz-adv-x="533" 
d="M173 753l-40 -49l-49 39l40 50zM49 745l-40 -50l-48 40l40 49zM538 60l15 -30l-20 -30q-73 0 -124 32.5t-115 114.5q-37 -69 -104.5 -108t-189.5 -39l-20 29l25 31q193 0 257 127l-208 260l12 53l392 255l-4 -61l-349 -226l164 -204q76 -95 112 -132.5t71 -54.5t86 -17z
" />
    <glyph glyph-name="uni063B.fina" unicode="&#x63b;" horiz-adv-x="960" 
d="M592 753l-40 -49l-49 39l40 50zM468 745l-40 -50l-48 40l40 49zM965 60l15 -30l-20 -30q-74 0 -125 33t-114 114q-18 -35 -44 -61.5t-69.5 -50t-113 -36t-162.5 -12.5q-147 0 -213 46t-66 143q0 76 36 153l41 -14q-25 -64 -25 -132q0 -72 53.5 -104t178.5 -32
q281 0 351 139l-207 261l11 53l392 255l-3 -61l-349 -225l163 -205q76 -95 112 -132.5t71.5 -54.5t86.5 -17z" />
    <glyph glyph-name="uni063C.init" unicode="&#x63c;" horiz-adv-x="460" 
d="M407 755l-4 -63l-342 -222q258 -177 291 -354q-31 -50 -124.5 -83t-227.5 -33l-20 29l25 31q196 0 288 67q-26 143 -290 319l12 54zM140 -138l37 47l46 -37l-38 -47zM60 -100l45 -36l-37 -47l-45 37zM91 -236l37 46l46 -37l-37 -46z" />
    <glyph glyph-name="uni063C.medi" unicode="&#x63c;" horiz-adv-x="533" 
d="M538 60l15 -30l-20 -30q-73 0 -124 32.5t-115 114.5q-37 -69 -104.5 -108t-189.5 -39l-20 29l25 31q193 0 257 127l-208 260l12 53l392 255l-4 -61l-349 -226l164 -204q76 -95 112 -132.5t71 -54.5t86 -17zM171 -138l37 47l46 -37l-38 -47zM91 -100l45 -36l-37 -47
l-45 37zM122 -236l37 46l46 -37l-37 -46z" />
    <glyph glyph-name="uni063C.fina" unicode="&#x63c;" horiz-adv-x="960" 
d="M965 60l15 -30l-20 -30q-74 0 -125 33t-114 114q-18 -35 -44 -61.5t-69.5 -50t-113 -36t-162.5 -12.5q-147 0 -213 46t-66 143q0 76 36 153l41 -14q-25 -64 -25 -132q0 -72 53.5 -104t178.5 -32q281 0 351 139l-207 261l11 53l392 255l-3 -61l-349 -225l163 -205
q76 -95 112 -132.5t71.5 -54.5t86.5 -17zM379 -138l37 47l46 -37l-38 -47zM299 -100l45 -36l-37 -47l-45 37zM330 -236l37 46l46 -37l-37 -46z" />
    <glyph glyph-name="uni066E.init" unicode="&#x66e;" horiz-adv-x="264" 
d="M0 0l-20 30l25 30q91 0 145 49q0 119 -53 266l60 21q44 -141 44 -267q0 -57 -57 -93t-144 -36z" />
    <glyph glyph-name="uni066E.medi" unicode="&#x66e;" horiz-adv-x="307" 
d="M312 60l15 -31l-20 -29q-101 0 -146 63q-49 -63 -162 -63l-19 29l24 31q98 0 130 48l-26 213h61l16 -205q37 -56 127 -56z" />
    <glyph glyph-name="uni066E.fina" unicode="&#x66e;" horiz-adv-x="908" 
d="M914 60l14 -30l-20 -30q-110 0 -162 82q-155 -95 -414 -95q-147 0 -213 46t-66 143q0 76 36 153l41 -14q-25 -64 -25 -132q0 -72 53.5 -104t178.5 -32v-1l1 1q256 0 388 86l-39 188h61l23 -146q10 -59 38 -87t105 -28z" />
    <glyph glyph-name="uni066F.init" unicode="&#x66f;" horiz-adv-x="456" 
d="M208 547q78 0 133.5 -90.5t51.5 -280.5q-1 -75 -98 -125.5t-295 -50.5l-20 30l25 30q244 0 336 80q2 28 2 79q-42 -35 -115 -35q-80 0 -134.5 48.5t-54.5 119.5q0 76 52.5 135.5t116.5 59.5zM243 240q55 0 98 20q-7 120 -45 174t-90 54q-44 0 -81 -41t-37 -93t42.5 -83
t112.5 -31z" />
    <glyph glyph-name="uni066F.medi" unicode="&#x66f;" horiz-adv-x="475" 
d="M480 60l15 -31l-20 -29h-37q-101 0 -192 41q-93 -41 -216 -41h-30l-20 29l25 31h32q81 0 144 15q-112 75 -112 180q0 80 53 141.5t117 61.5q68 0 122 -61.5t54 -143.5q0 -103 -106 -177q60 -16 129 -16h42zM118 249q0 -99 128 -153q120 51 120 152q0 62 -39.5 106.5
t-86.5 44.5q-45 0 -83.5 -44.5t-38.5 -105.5z" />
    <glyph glyph-name="uni066F.fina" unicode="&#x66f;" horiz-adv-x="758" 
d="M778 29l-20 -29h-91v-16q0 -39 -19 -78.5t-55.5 -74t-97.5 -56t-138 -21.5q-165 0 -234.5 59t-69.5 169q0 93 42 184l41 -13q-31 -79 -31 -164q0 -84 57.5 -129.5t200.5 -45.5q93 0 155.5 33t94.5 79q2 51 1 74h-94q-92 0 -149 47.5t-57 123.5q0 75 52.5 135t116.5 60
q70 0 121.5 -71.5t60.5 -234.5h99zM363 174q0 -56 44.5 -85t127.5 -29h78q-15 246 -131 246q-44 0 -81.5 -41t-37.5 -91z" />
    <glyph glyph-name="uni0676.fina" unicode="&#x676;" horiz-adv-x="521" 
d="M242 519l-1 32l65 10q-47 34 -47 75q0 33 23 55t67 22q34 0 61 -16l-10 -33q-29 15 -53 15q-28 0 -41 -13t-13 -31q0 -35 51 -68l90 14l2 -31zM541 29l-20 -29h-92q-38 -200 -354 -257l-22 59q275 47 323 198h-66q-110 0 -171.5 46.5t-61.5 120.5q0 76 52.5 136t116.5 60
q71 0 129 -81.5t59 -221.5h93zM302 60h83q-3 118 -46 180.5t-95 62.5q-44 0 -81.5 -41t-37.5 -92q0 -52 44.5 -81t132.5 -29z" />
    <glyph glyph-name="uni0677.fina" unicode="&#x677;" horiz-adv-x="521" 
d="M182 626l-14 29q52 19 86 44q-67 24 -67 78q0 35 22.5 55.5t52.5 20.5q36 0 55 -22t19 -55q0 -42 -41 -82.5t-113 -67.5zM219 776q0 -36 60 -55q25 27 25 53q0 19 -10.5 31.5t-31.5 12.5q-19 0 -31 -11t-12 -31zM352 458l-194 -31l-1 32l65 10q-47 34 -47 75
q0 33 23.5 55t67.5 22q33 0 60 -16l-10 -33q-29 15 -53 15q-28 0 -40.5 -13t-12.5 -31q0 -35 50 -68l90 14zM541 29l-20 -29h-92q-38 -200 -354 -257l-22 59q275 47 323 198h-66q-110 0 -171.5 46.5t-61.5 120.5q0 76 52.5 136t116.5 60q71 0 129 -81.5t59 -221.5h93z
M302 60h83q-3 118 -46 180.5t-95 62.5q-44 0 -81.5 -41t-37.5 -92q0 -52 44.5 -81t132.5 -29z" />
    <glyph glyph-name="uni0678.init" unicode="&#x678;" horiz-adv-x="264" 
d="M249 621l1 -31l-194 -31v32l65 10q-48 34 -48 75q0 33 23.5 55t67.5 22q33 0 60 -16l-9 -33q-30 15 -54 15q-28 0 -40.5 -13t-12.5 -31q0 -35 51 -68zM0 0l-20 30l25 30q91 0 145 49q0 119 -53 266l60 21q44 -141 44 -267q0 -57 -57 -93t-144 -36z" />
    <glyph glyph-name="uni0678.medi" unicode="&#x678;" horiz-adv-x="307" 
d="M102 489l-1 32l65 10q-48 35 -48 75q0 33 23.5 55t67.5 22q34 0 60 -16l-9 -33q-30 15 -53 15q-28 0 -41 -13t-13 -31q0 -35 51 -68l90 14l1 -31zM312 60l15 -31l-20 -29q-101 0 -146 63q-49 -63 -162 -63l-19 29l24 31q98 0 130 48l-26 213h61l16 -205q37 -56 127 -56z
" />
    <glyph glyph-name="uni0678.fina" unicode="&#x678;" horiz-adv-x="712" 
d="M400 270l-1 32l65 10q-47 34 -47 75q0 33 23.5 55t67.5 22q33 0 60 -16l-10 -33q-28 15 -53 15q-53 0 -53 -44q0 -35 50 -68l90 14l2 -31zM732 29l-20 -29q-54 0 -114 26q28 -33 28 -81t-93 -97.5t-231 -49.5q-128 0 -188.5 61t-60.5 168q0 92 42 183l41 -12
q-31 -81 -31 -164q0 -176 203 -176q105 0 176.5 27t98.5 53q-2 52 -42.5 84.5t-152.5 61.5l32 49q48 -13 113 -34.5t103 -30t82 -8.5z" />
    <glyph glyph-name="uni067C.init" unicode="&#x67c;" horiz-adv-x="264" 
d="M198 538l-40 -49l-49 39l40 50zM74 530l-40 -50l-48 40l40 49zM147 38q45 -18 45 -69q0 -32 -21 -53.5t-55 -21.5t-56 21.5t-22 53.5q0 18 8 34q-23 -3 -46 -3l-20 30l25 30q91 0 145 49q0 119 -53 266l60 21q44 -141 44 -267q0 -56 -54 -91zM116 -75q21 0 32.5 12.5
t11.5 31.5t-12 30.5t-32 11.5t-32.5 -11.5t-12.5 -30.5t12 -31.5t33 -12.5z" />
    <glyph glyph-name="uni067C.medi" unicode="&#x67c;" horiz-adv-x="307" 
d="M223 467l-40 -49l-49 39l40 50zM99 459l-40 -50l-48 40l40 49zM161 63q-9 -12 -21 -21q47 -18 47 -70q0 -32 -21.5 -53.5t-55.5 -21.5q-33 0 -55 22t-22 53q0 16 6 31q-19 -3 -40 -3l-19 29l24 31q98 0 130 48l-26 213h61l16 -205q37 -56 127 -56l15 -31l-20 -29
q-101 0 -146 63zM155 -28q0 20 -12.5 31.5t-32.5 11.5t-32 -11.5t-12 -31.5q0 -19 11.5 -31t32.5 -12q22 0 33.5 12t11.5 31z" />
    <glyph glyph-name="uni067C.fina" unicode="&#x67c;" horiz-adv-x="908" 
d="M503 441l-40 -49l-49 39l40 50zM379 433l-40 -50l-48 40l40 49zM914 60l14 -30l-20 -30q-110 0 -162 82q-130 -80 -327 -92q15 -22 15 -47q0 -32 -21 -53.5t-55 -21.5q-33 0 -55.5 22t-22.5 53q0 25 14 45q-126 5 -183.5 51t-57.5 137q0 76 36 153l41 -14
q-25 -64 -25 -132q0 -72 53.5 -104t178.5 -32v-1l1 1q256 0 388 86l-39 188h61l23 -146q10 -59 38 -87t105 -28zM358 -100q21 0 32.5 12t11.5 31q0 20 -12 31.5t-32 11.5t-32.5 -11.5t-12.5 -31.5q0 -19 12 -31t33 -12z" />
    <glyph glyph-name="uni067D.init" unicode="&#x67d;" horiz-adv-x="264" 
d="M170 584l-46 37l38 47l46 -38zM52 576l-45 37l38 46l45 -37zM121 485l-45 38l37 46l46 -37zM0 0l-20 30l25 30q91 0 145 49q0 119 -53 266l60 21q44 -141 44 -267q0 -57 -57 -93t-144 -36z" />
    <glyph glyph-name="uni067D.medi" unicode="&#x67d;" horiz-adv-x="307" 
d="M233 559l-38 -46l-46 37l38 47zM115 551l-38 -46l-45 37l38 46zM146 414l-45 38l37 46l46 -37zM312 60l15 -31l-20 -29q-101 0 -146 63q-49 -63 -162 -63l-19 29l24 31q98 0 130 48l-26 213h61l16 -205q37 -56 127 -56z" />
    <glyph glyph-name="uni067D.fina" unicode="&#x67d;" horiz-adv-x="918" 
d="M522 533l-37 -47l-46 37l38 47zM405 525l-38 -47l-45 37l38 47zM436 388l-45 37l37 47l46 -37zM914 60l14 -30l-20 -30q-110 0 -162 82q-155 -95 -414 -95q-147 0 -213 46t-66 143q0 76 36 153l41 -14q-25 -64 -25 -132q0 -72 53.5 -104t178.5 -32v-1l1 1q256 0 388 86
l-39 188h61l23 -146q10 -59 38 -87t105 -28z" />
    <glyph glyph-name="uni0681.init" unicode="&#x681;" horiz-adv-x="679" 
d="M125 500l-1 32l65 10q-47 34 -47 75q0 33 23.5 55t67.5 22q33 0 60 -16l-10 -33q-29 15 -53 15q-28 0 -40.5 -13t-12.5 -31q0 -35 50 -68l90 14l2 -31zM218 441q58 0 121.5 -34t150.5 -96t145 -93l-9 -51l-24 -3q-67 -7 -150.5 -34.5t-149 -56t-148.5 -51t-154 -22.5
l-20 29l25 31q82 0 164 25t186 64t197 59l-84 56t-79.5 51.5t-57.5 32.5t-63.5 27t-52.5 6q-56 0 -105 -37l-22 52q60 45 130 45z" />
    <glyph glyph-name="uni0681.medi" unicode="&#x681;" horiz-adv-x="747" 
d="M123 501l-1 32l65 10q-47 34 -47 75q0 33 23.5 55t67.5 22q33 0 60 -16l-10 -33q-29 15 -53 15q-28 0 -40.5 -13t-12.5 -31q0 -35 50 -68l90 14l2 -31zM752 60l15 -31l-20 -29q-94 0 -161.5 46t-91.5 142q-54 -14 -121.5 -47t-118.5 -63.5t-120.5 -54t-133.5 -23.5
l-20 29l25 31q64 0 130.5 23t117 52.5t125 60.5t147.5 43q-58 22 -123 60.5t-112 60t-95 21.5q-56 0 -105 -37l-21 53q59 44 129 44q44 0 93.5 -20.5t91 -48t106 -62t127.5 -55.5l-8 -55l-38 -1q-9 0 -29 -2q27 -80 78.5 -108.5t132.5 -28.5z" />
    <glyph glyph-name="uni0681.fina" unicode="&#x681;" horiz-adv-x="681" 
d="M131 500l-1 32l65 10q-47 34 -47 75q0 33 23.5 55t67.5 22q33 0 60 -16l-10 -33q-28 15 -53 15q-28 0 -40.5 -13t-12.5 -31q0 -35 50 -68l90 14l2 -31zM459 189q-165 -34 -260.5 -121t-95.5 -192q0 -75 50.5 -122t160.5 -47q115 0 222 44l22 -53q-111 -52 -249 -52
q-69 0 -120.5 18.5t-79.5 51.5t-41.5 71.5t-13.5 84.5q0 137 126 243.5t330 130.5q-15 8 -43 24.5t-39.5 23l-34.5 19.5t-33 18l-28 14t-28 12.5t-25 9t-25.5 7.5t-23.5 3.5t-25 1.5q-60 0 -107 -34l-22 51q55 43 126 43q56 0 114 -27t139.5 -78t137.5 -78l-7 -50l-30 -3
l-54 -6q17 -81 58.5 -109t125.5 -28l15 -31l-20 -29q-97 0 -152.5 45t-69.5 144z" />
    <glyph glyph-name="uni0682.init" unicode="&#x682;" horiz-adv-x="679" 
d="M242 658l-39 -50l-48 40l39 49zM179 534l40 49l48 -40l-40 -49zM218 441q58 0 121.5 -34t150.5 -96t145 -93l-9 -51l-24 -3q-67 -7 -150.5 -34.5t-149 -56t-148.5 -51t-154 -22.5l-20 29l25 31q82 0 164 25t186 64t197 59l-84 56t-79.5 51.5t-57.5 32.5t-63.5 27t-52.5 6
q-56 0 -105 -37l-22 52q60 45 130 45z" />
    <glyph glyph-name="uni0682.medi" unicode="&#x682;" horiz-adv-x="747" 
d="M240 659l-39 -50l-48 40l39 49zM177 535l40 49l48 -40l-40 -49zM752 60l15 -31l-20 -29q-94 0 -161.5 46t-91.5 142q-54 -14 -121.5 -47t-118.5 -63.5t-120.5 -54t-133.5 -23.5l-20 29l25 31q64 0 130.5 23t117 52.5t125 60.5t147.5 43q-58 22 -123 60.5t-112 60
t-95 21.5q-56 0 -105 -37l-21 53q59 44 129 44q44 0 93.5 -20.5t91 -48t106 -62t127.5 -55.5l-8 -55l-38 -1q-9 0 -29 -2q27 -80 78.5 -108.5t132.5 -28.5z" />
    <glyph glyph-name="uni0682.fina" unicode="&#x682;" horiz-adv-x="681" 
d="M248 658l-39 -50l-48 40l39 49zM185 534l40 49l48 -40l-40 -49zM459 189q-165 -34 -260.5 -121t-95.5 -192q0 -75 50.5 -122t160.5 -47q115 0 222 44l22 -53q-111 -52 -249 -52q-69 0 -120.5 18.5t-79.5 51.5t-41.5 71.5t-13.5 84.5q0 137 126 243.5t330 130.5
q-15 8 -43 24.5t-39.5 23l-34.5 19.5t-33 18l-28 14t-28 12.5t-25 9t-25.5 7.5t-23.5 3.5t-25 1.5q-60 0 -107 -34l-22 51q55 43 126 43q56 0 114 -27t139.5 -78t137.5 -78l-7 -50l-30 -3l-54 -6q17 -81 58.5 -109t125.5 -28l15 -31l-20 -29q-97 0 -152.5 45t-69.5 144z" />
    <glyph glyph-name="uni0685.init" unicode="&#x685;" horiz-adv-x="679" 
d="M244 668l-37 -47l-45 37l37 47zM275 531l-45 37l38 46l45 -36zM196 570l-38 -47l-45 37l37 46zM218 441q58 0 121.5 -34t150.5 -96t145 -93l-9 -51l-24 -3q-67 -7 -150.5 -34.5t-149 -56t-148.5 -51t-154 -22.5l-20 29l25 31q82 0 164 25t186 64t197 59l-84 56
t-79.5 51.5t-57.5 32.5t-63.5 27t-52.5 6q-56 0 -105 -37l-22 52q60 45 130 45z" />
    <glyph glyph-name="uni0685.medi" unicode="&#x685;" horiz-adv-x="747" 
d="M242 669l-37 -47l-45 37l37 47zM273 532l-45 37l38 46l45 -36zM194 571l-38 -47l-45 37l37 46zM752 60l15 -31l-20 -29q-94 0 -161.5 46t-91.5 142q-54 -14 -121.5 -47t-118.5 -63.5t-120.5 -54t-133.5 -23.5l-20 29l25 31q64 0 130.5 23t117 52.5t125 60.5t147.5 43
q-58 22 -123 60.5t-112 60t-95 21.5q-56 0 -105 -37l-21 53q59 44 129 44q44 0 93.5 -20.5t91 -48t106 -62t127.5 -55.5l-8 -55l-38 -1q-9 0 -29 -2q27 -80 78.5 -108.5t132.5 -28.5z" />
    <glyph glyph-name="uni0685.fina" unicode="&#x685;" horiz-adv-x="681" 
d="M250 668l-37 -47l-45 37l37 47zM281 531l-45 37l38 46l45 -36zM202 570l-38 -47l-45 37l37 46zM459 189q-165 -34 -260.5 -121t-95.5 -192q0 -75 50.5 -122t160.5 -47q115 0 222 44l22 -53q-111 -52 -249 -52q-69 0 -120.5 18.5t-79.5 51.5t-41.5 71.5t-13.5 84.5
q0 137 126 243.5t330 130.5q-15 8 -43 24.5t-39.5 23l-34.5 19.5t-33 18l-28 14t-28 12.5t-25 9t-25.5 7.5t-23.5 3.5t-25 1.5q-60 0 -107 -34l-22 51q55 43 126 43q56 0 114 -27t139.5 -78t137.5 -78l-7 -50l-30 -3l-54 -6q17 -81 58.5 -109t125.5 -28l15 -31l-20 -29
q-97 0 -152.5 45t-69.5 144z" />
    <glyph glyph-name="uni0689.fina" unicode="&#x689;" horiz-adv-x="518" 
d="M523 60l15 -31l-20 -29q-84 0 -124 66q-53 -55 -136 -72q19 -21 19 -51q0 -31 -21.5 -52.5t-55.5 -21.5q-33 0 -55 21.5t-22 52.5q0 24 15 46q-52 5 -111 23l20 59q68 -22 138 -22q116 0 188 61l-161 363l61 28l132 -339q22 -58 46 -80t72 -22zM200 -100q22 0 33.5 12
t11.5 31q0 20 -12.5 31.5t-32.5 11.5t-32 -11.5t-12 -31.5q0 -19 12 -31t32 -12z" />
    <glyph glyph-name="uni068A.fina" unicode="&#x68a;" horiz-adv-x="518" 
d="M523 60l15 -31l-20 -29q-84 0 -124 66q-77 -79 -213 -79q-75 0 -154 25l20 59q68 -22 138 -22q116 0 188 61l-161 363l61 28l132 -339q22 -58 46 -80t72 -22zM173 -138l44 55l55 -46l-44 -55z" />
    <glyph glyph-name="uni068B.fina" unicode="&#x68b;" horiz-adv-x="518" 
d="M316 635q0 -24 -23 -46t-68 -22h-133l3 32h23q4 9 14 25l-8 146h32v-109q44 59 92 59q31 0 49.5 -23t18.5 -62zM144 599h66q54 0 79 25q0 63 -44 63q-51 0 -101 -88zM523 60l15 -31l-20 -29q-84 0 -124 66q-77 -79 -213 -79q-75 0 -154 25l20 59q68 -22 138 -22
q116 0 188 61l-161 363l61 28l132 -339q22 -58 46 -80t72 -22zM173 -138l44 55l55 -46l-44 -55z" />
    <glyph glyph-name="uni068F.fina" unicode="&#x68f;" horiz-adv-x="518" 
d="M297 742l-38 -46l-46 37l38 47zM179 734l-38 -46l-45 37l38 46zM210 597l-45 38l37 46l46 -37zM523 60l15 -31l-20 -29q-84 0 -124 66q-77 -79 -213 -79q-75 0 -154 25l20 59q68 -22 138 -22q116 0 188 61l-161 363l61 28l132 -339q22 -58 46 -80t72 -22z" />
    <glyph glyph-name="uni0690.fina" unicode="&#x690;" horiz-adv-x="518" 
d="M263 714l-36 -45l-44 36l36 45zM153 706l-36 -45l-44 36l36 45zM205 597l37 46l43 -36l-36 -45zM95 589l37 46l44 -36l-37 -45zM523 60l15 -31l-20 -29q-84 0 -124 66q-77 -79 -213 -79q-75 0 -154 25l20 59q68 -22 138 -22q116 0 188 61l-161 363l61 28l132 -339
q22 -58 46 -80t72 -22z" />
    <glyph glyph-name="uni0692.fina" unicode="&#x692;" horiz-adv-x="420" 
d="M242 386h-34l-77 140l28 12l66 -113l66 113l28 -12zM440 29l-20 -29q-59 0 -88 22q-84 -159 -355 -279l-26 60q251 105 344 248q-34 123 -83 234l60 27q14 -40 54 -177q12 -46 33 -60.5t66 -14.5z" />
    <glyph glyph-name="uni0693.fina" unicode="&#x693;" horiz-adv-x="420" 
d="M332 22q-42 -79 -125 -145q25 -6 41 -26.5t16 -47.5q0 -32 -21.5 -53.5t-55.5 -21.5q-33 0 -55 22t-22 53v8q-55 -33 -133 -68l-26 60q251 105 344 248q-34 123 -83 234l60 27q14 -40 54 -177q12 -46 33 -60.5t66 -14.5l15 -31l-20 -29q-59 0 -88 22zM232 -197
q0 20 -12.5 31.5t-32.5 11.5t-32 -11.5t-12 -31.5q0 -19 12 -31t32 -12q22 0 33.5 12t11.5 31z" />
    <glyph glyph-name="uni0694.fina" unicode="&#x694;" horiz-adv-x="420" 
d="M440 29l-20 -29q-59 0 -88 22q-84 -159 -355 -279l-26 60q251 105 344 248q-34 123 -83 234l60 27q14 -40 54 -177q12 -46 33 -60.5t66 -14.5zM185 -308l44 55l55 -46l-44 -55z" />
    <glyph glyph-name="uni0695.fina" unicode="&#x695;" horiz-adv-x="420" 
d="M425 60l15 -31l-20 -29q-59 0 -88 22q-84 -159 -355 -279l-26 60q251 105 344 248q-34 123 -83 234l60 27q14 -40 54 -177q12 -46 33 -60.5t66 -14.5zM240 -350l66 113l28 -13l-77 -139h-34l-77 139l28 13z" />
    <glyph glyph-name="uni0696.fina" unicode="&#x696;" horiz-adv-x="420" 
d="M264 467l-44 -56l-56 47l44 55zM440 29l-20 -29q-59 0 -88 22q-84 -159 -355 -279l-26 60q251 105 344 248q-34 123 -83 234l60 27q14 -40 54 -177q12 -46 33 -60.5t66 -14.5zM185 -308l44 55l55 -46l-44 -55z" />
    <glyph glyph-name="uni0697.fina" unicode="&#x697;" horiz-adv-x="420" 
d="M309 475l-40 -49l-49 39l40 50zM185 467l-40 -50l-48 40l40 49zM440 29l-20 -29q-59 0 -88 22q-84 -159 -355 -279l-26 60q251 105 344 248q-34 123 -83 234l60 27q14 -40 54 -177q12 -46 33 -60.5t66 -14.5z" />
    <glyph glyph-name="uni0699.fina" unicode="&#x699;" horiz-adv-x="420" 
d="M285 539l-36 -45l-44 36l36 45zM175 531l-36 -45l-44 36l36 45zM227 422l37 46l43 -36l-36 -45zM117 414l37 46l44 -36l-37 -45zM440 29l-20 -29q-59 0 -88 22q-84 -159 -355 -279l-26 60q251 105 344 248q-34 123 -83 234l60 27q14 -40 54 -177q12 -46 33 -60.5
t66 -14.5z" />
    <glyph glyph-name="uni069A.init" unicode="&#x69a;" horiz-adv-x="753" 
d="M429 459l-44 -56l-56 47l44 55zM636 394q54 -145 54 -271q0 -56 -45.5 -89.5t-99.5 -33.5q-89 0 -132 61q-40 -61 -126 -61t-127 61q-42 -61 -161 -61l-19 29l24 31q103 0 128 48l-26 213h60l17 -205q37 -56 110 -56q67 0 93 48l-26 213h60l17 -205q35 -56 112 -56
q28 0 53.5 11t38.5 28q-2 125 -66 274zM359 -138l44 55l55 -46l-44 -55z" />
    <glyph glyph-name="uni069A.medi" unicode="&#x69a;" horiz-adv-x="828" 
d="M430 459l-44 -56l-56 47l44 55zM848 30l-20 -30q-105 0 -163 54q-43 -54 -122 -54q-87 0 -130 61q-40 -61 -126 -61t-127 61q-42 -61 -161 -61l-19 29l24 31q103 0 128 48l-26 213h60l17 -205q37 -56 110 -56q67 0 93 48l-26 213h60l17 -205q35 -56 109 -56q63 0 91 39
q-9 114 -45 282l63 13q24 -140 32 -291q53 -43 146 -43zM362 -138l44 55l55 -46l-44 -55z" />
    <glyph glyph-name="uni069A.fina" unicode="&#x69a;" horiz-adv-x="1236" 
d="M837 459l-44 -56l-56 47l44 55zM1253 30l-20 -30q-105 0 -163 54q-44 -54 -122 -54q-86 0 -129 61q-20 -31 -55 -46t-71 -15q-53 0 -87 31q2 -24 2 -48q0 -99 -89.5 -164t-216.5 -65q-128 0 -188.5 61t-60.5 167q0 93 42 184l41 -13q-31 -79 -31 -164q0 -175 203 -175
q78 0 142.5 31t106.5 83q6 74 -9 146.5t-31.5 109.5t-47.5 96l59 25q39 -101 65 -179q15 -38 40.5 -52t64.5 -14q68 0 93 48l-26 213h60l17 -205q37 -56 110 -56q63 0 91 39q-9 102 -42 282l63 13q22 -148 29 -292q56 -42 145 -42zM774 -138l44 55l55 -46l-44 -55z" />
    <glyph glyph-name="uni069B.init" unicode="&#x69b;" horiz-adv-x="753" 
d="M636 394q54 -145 54 -271q0 -56 -45.5 -89.5t-99.5 -33.5q-89 0 -132 61q-40 -61 -126 -61t-127 61q-42 -61 -161 -61l-19 29l24 31q103 0 128 48l-26 213h60l17 -205q37 -56 110 -56q67 0 93 48l-26 213h60l17 -205q35 -56 112 -56q28 0 53.5 11t38.5 28q-2 125 -66 274
zM428 -138l37 47l46 -37l-38 -47zM348 -100l45 -36l-37 -47l-45 37zM379 -236l37 46l46 -37l-37 -46z" />
    <glyph glyph-name="uni069B.medi" unicode="&#x69b;" horiz-adv-x="828" 
d="M848 30l-20 -30q-105 0 -163 54q-43 -54 -122 -54q-87 0 -130 61q-40 -61 -126 -61t-127 61q-42 -61 -161 -61l-19 29l24 31q103 0 128 48l-26 213h60l17 -205q37 -56 110 -56q67 0 93 48l-26 213h60l17 -205q35 -56 109 -56q63 0 91 39q-9 114 -45 282l63 13
q24 -140 32 -291q53 -43 146 -43zM431 -138l37 47l46 -37l-38 -47zM351 -100l45 -36l-37 -47l-45 37zM382 -236l37 46l46 -37l-37 -46z" />
    <glyph glyph-name="uni069B.fina" unicode="&#x69b;" horiz-adv-x="1236" 
d="M1253 30l-20 -30q-105 0 -163 54q-44 -54 -122 -54q-86 0 -129 61q-20 -31 -55 -46t-71 -15q-53 0 -87 31q2 -24 2 -48q0 -99 -89.5 -164t-216.5 -65q-128 0 -188.5 61t-60.5 167q0 93 42 184l41 -13q-31 -79 -31 -164q0 -175 203 -175q78 0 142.5 31t106.5 83
q6 74 -9 146.5t-31.5 109.5t-47.5 96l59 25q39 -101 65 -179q15 -38 40.5 -52t64.5 -14q68 0 93 48l-26 213h60l17 -205q37 -56 110 -56q63 0 91 39q-9 102 -42 282l63 13q22 -148 29 -292q56 -42 145 -42zM843 -138l37 47l46 -37l-38 -47zM763 -100l45 -36l-38 -47l-44 37z
M794 -236l37 46l46 -37l-38 -46z" />
    <glyph glyph-name="uni069C.init" unicode="&#x69c;" horiz-adv-x="753" 
d="M413 562l-37 -47l-45 37l37 47zM444 425l-45 37l38 46l45 -36zM365 464l-38 -47l-45 37l37 46zM636 394q54 -145 54 -271q0 -56 -45.5 -89.5t-99.5 -33.5q-89 0 -132 61q-40 -61 -126 -61t-127 61q-42 -61 -161 -61l-19 29l24 31q103 0 128 48l-26 213h60l17 -205
q37 -56 110 -56q67 0 93 48l-26 213h60l17 -205q35 -56 112 -56q28 0 53.5 11t38.5 28q-2 125 -66 274zM428 -138l37 47l46 -37l-38 -47zM348 -100l45 -36l-37 -47l-45 37zM379 -236l37 46l46 -37l-37 -46z" />
    <glyph glyph-name="uni069C.medi" unicode="&#x69c;" horiz-adv-x="828" 
d="M414 562l-37 -47l-45 37l37 47zM445 425l-45 37l38 46l45 -36zM366 464l-38 -47l-45 37l37 46zM848 30l-20 -30q-105 0 -163 54q-43 -54 -122 -54q-87 0 -130 61q-40 -61 -126 -61t-127 61q-42 -61 -161 -61l-19 29l24 31q103 0 128 48l-26 213h60l17 -205
q37 -56 110 -56q67 0 93 48l-26 213h60l17 -205q35 -56 109 -56q63 0 91 39q-9 114 -45 282l63 13q24 -140 32 -291q53 -43 146 -43zM430 -138l37 47l46 -37l-38 -47zM350 -100l45 -36l-37 -47l-45 37zM381 -236l37 46l46 -37l-37 -46z" />
    <glyph glyph-name="uni069C.fina" unicode="&#x69c;" horiz-adv-x="1236" 
d="M819 562l-37 -47l-45 37l37 47zM850 425l-45 37l38 46l45 -36zM771 464l-38 -47l-45 37l37 46zM1253 30l-20 -30q-105 0 -163 54q-44 -54 -122 -54q-86 0 -129 61q-20 -31 -55 -46t-71 -15q-53 0 -87 31q2 -24 2 -48q0 -99 -89.5 -164t-216.5 -65q-128 0 -188.5 61
t-60.5 167q0 93 42 184l41 -13q-31 -79 -31 -164q0 -175 203 -175q78 0 142.5 31t106.5 83q6 74 -9 146.5t-31.5 109.5t-47.5 96l59 25q39 -101 65 -179q15 -38 40.5 -52t64.5 -14q68 0 93 48l-26 213h60l17 -205q37 -56 110 -56q63 0 91 39q-9 102 -42 282l63 13
q22 -148 29 -292q56 -42 145 -42zM843 -138l37 47l46 -37l-38 -47zM763 -100l45 -36l-38 -47l-44 37zM794 -236l37 46l46 -37l-38 -46z" />
    <glyph glyph-name="uni069D.init" unicode="&#x69d;" horiz-adv-x="901" 
d="M655 416q87 0 135 -63t48 -188q0 -88 -98.5 -126.5t-309.5 -38.5h-132q-101 0 -143 64q-46 -64 -156 -64l-19 29l24 31q92 0 125 48l-23 272h60l14 -258q26 -52 97 -60q80 165 177 259.5t201 94.5zM786 133q8 122 -29.5 173t-97.5 51q-89 0 -167.5 -72t-165.5 -225h104
q162 0 234 16.5t122 56.5zM171 -136l40 50l49 -40l-40 -49zM48 -144l39 49l49 -39l-40 -50z" />
    <glyph glyph-name="uni069D.medi" unicode="&#x69d;" horiz-adv-x="939" 
d="M945 60l14 -31l-20 -29q-81 0 -131 82q-76 -82 -378 -82h-132q-101 0 -143 64q-46 -64 -156 -64l-19 29l24 31q92 0 125 48l-23 272h60l14 -258q26 -52 97 -60q80 165 177 259.5t201 94.5q87 0 135 -63t48 -188q0 -23 -6 -41q18 -29 48.5 -46.5t64.5 -17.5zM786 133
q8 122 -29.5 173t-97.5 51q-89 0 -167.5 -72t-165.5 -225h104q162 0 234 16.5t122 56.5zM171 -136l40 50l49 -40l-40 -49zM48 -144l39 49l49 -39l-40 -50z" />
    <glyph glyph-name="uni069D.fina" unicode="&#x69d;" horiz-adv-x="1334" 
d="M1339 60l15 -31l-20 -29q-80 0 -132 82q-76 -82 -377 -82h-132q-53 0 -87 31q2 -24 2 -48q0 -99 -89.5 -164t-216.5 -65q-128 0 -188.5 61t-60.5 167q0 93 42 184l41 -13q-31 -79 -31 -164q0 -175 203 -175q78 0 142.5 31t106.5 83q6 74 -9 146.5t-31.5 109.5t-47.5 96
l59 25q39 -101 65 -179q22 -58 79 -64q80 165 177 259.5t201 94.5q86 0 134.5 -63t48.5 -188q0 -23 -6 -42q19 -28 49 -45.5t63 -17.5zM1181 133q8 122 -29.5 173t-97.5 51q-89 0 -167.5 -72t-165.5 -225h104q162 0 234 16.5t122 56.5zM328 -369l40 50l49 -40l-40 -49z
M205 -377l39 49l49 -39l-40 -50z" />
    <glyph glyph-name="uni069E.init" unicode="&#x69e;" horiz-adv-x="901" 
d="M631 633l-38 -47l-45 37l37 47zM662 496l-46 37l38 46l45 -36zM582 535l-38 -47l-45 37l38 46zM655 416q87 0 135 -63t48 -188q0 -88 -98.5 -126.5t-309.5 -38.5h-132q-101 0 -143 64q-46 -64 -156 -64l-19 29l24 31q92 0 125 48l-23 272h60l14 -258q26 -52 97 -60
q80 165 177 259.5t201 94.5zM786 133q8 122 -29.5 173t-97.5 51q-89 0 -167.5 -72t-165.5 -225h104q162 0 234 16.5t122 56.5z" />
    <glyph glyph-name="uni069E.medi" unicode="&#x69e;" horiz-adv-x="939" 
d="M631 633l-38 -47l-45 37l37 47zM662 496l-46 37l38 46l45 -36zM582 535l-38 -47l-45 37l38 46zM945 60l14 -31l-20 -29q-81 0 -131 82q-76 -82 -378 -82h-132q-101 0 -143 64q-46 -64 -156 -64l-19 29l24 31q92 0 125 48l-23 272h60l14 -258q26 -52 97 -60
q80 165 177 259.5t201 94.5q87 0 135 -63t48 -188q0 -23 -6 -41q18 -29 48.5 -46.5t64.5 -17.5zM786 133q8 122 -29.5 173t-97.5 51q-89 0 -167.5 -72t-165.5 -225h104q162 0 234 16.5t122 56.5z" />
    <glyph glyph-name="uni069E.fina" unicode="&#x69e;" horiz-adv-x="1334" 
d="M1025 633l-37 -47l-45 37l37 47zM1056 496l-45 37l38 46l45 -36zM977 535l-38 -47l-45 37l37 46zM1339 60l15 -31l-20 -29q-80 0 -132 82q-76 -82 -377 -82h-132q-53 0 -87 31q2 -24 2 -48q0 -99 -89.5 -164t-216.5 -65q-128 0 -188.5 61t-60.5 167q0 93 42 184l41 -13
q-31 -79 -31 -164q0 -175 203 -175q78 0 142.5 31t106.5 83q6 74 -9 146.5t-31.5 109.5t-47.5 96l59 25q39 -101 65 -179q22 -58 79 -64q80 165 177 259.5t201 94.5q86 0 134.5 -63t48.5 -188q0 -23 -6 -42q19 -28 49 -45.5t63 -17.5zM1181 133q8 122 -29.5 173t-97.5 51
q-89 0 -167.5 -72t-165.5 -225h104q162 0 234 16.5t122 56.5z" />
    <glyph glyph-name="uni069F.init" unicode="&#x69f;" horiz-adv-x="756" 
d="M511 416q86 0 134 -61.5t48 -178.5q0 -96 -98 -136t-310 -40h-285l-20 29l25 31h126q24 48 43 81l-20 603l60 7l9 -532q137 197 288 197zM485 638l-37 -47l-45 37l37 47zM516 501l-45 37l38 46l45 -36zM437 540l-38 -47l-45 37l37 46zM644 149q3 114 -34 161t-96 47
q-89 0 -167.5 -72.5t-164.5 -224.5h103q169 0 241.5 19.5t117.5 69.5z" />
    <glyph glyph-name="uni069F.medi" unicode="&#x69f;" horiz-adv-x="790" 
d="M795 60l15 -31l-20 -29q-81 0 -131 82q-78 -82 -374 -82h-285l-20 29l25 31h126q24 48 43 81l-20 603l60 7l9 -532q137 197 288 197q86 0 134 -61.5t48 -178.5q0 -30 -9 -54q43 -62 111 -62zM485 638l-37 -47l-45 37l37 47zM516 501l-45 37l38 46l45 -36zM437 540
l-38 -47l-45 37l37 46zM644 149q3 114 -34 161t-96 47q-89 0 -167.5 -72.5t-164.5 -224.5h103q169 0 241.5 19.5t117.5 69.5z" />
    <glyph glyph-name="uni069F.fina" unicode="&#x69f;" horiz-adv-x="807" 
d="M812 60l15 -31l-20 -29q-80 0 -132 82q-75 -82 -373 -82h-257l12 60h91q24 48 43 81l-20 603l60 7l9 -532q137 197 287 197q86 0 134.5 -61.5t48.5 -178.5q0 -31 -10 -55q44 -61 112 -61zM502 638l-37 -47l-45 37l37 47zM533 501l-45 37l38 46l45 -36zM454 540l-38 -47
l-45 37l37 46zM661 149q3 114 -34 161t-96 47q-89 0 -167.5 -72t-165.5 -225h104q169 0 241 19.5t118 69.5z" />
    <glyph glyph-name="uni06A0.init" unicode="&#x6a0;" horiz-adv-x="548" 
d="M292 658l-37 -47l-45 37l37 47zM323 521l-45 37l38 46l45 -36zM244 560l-38 -47l-45 37l37 46zM521 113l7 -61q-132 -31 -220.5 -41.5t-205.5 -10.5h-102l-20 29l25 31h85q75 0 107 2q-61 38 -92 90t-31 107q0 72 50.5 122t144.5 50q80 0 141 -36l-19 -58q-59 33 -122 33
q-72 0 -106.5 -32t-34.5 -84q0 -111 145 -187q96 9 248 46z" />
    <glyph glyph-name="uni06A0.medi" unicode="&#x6a0;" horiz-adv-x="553" 
d="M306 653l-37 -47l-45 37l37 47zM337 516l-45 37l38 46l45 -36zM258 555l-38 -47l-45 37l37 46zM558 60l15 -32l-20 -28h-28q-131 0 -229 88q-68 -40 -140.5 -64t-126.5 -24h-29l-20 28l25 32h14q114 0 237 67q-8 9 -29 32.5t-34 36.5t-34.5 34t-46 41.5t-53.5 41.5l7 57
q106 45 216 45q95 0 150 -27.5t55 -63.5q0 -102 -142 -205q43 -34 83.5 -46.5t108.5 -12.5h21zM120 327q32 -24 62.5 -52.5t65 -63.5t56.5 -55q119 81 141 168q-66 32 -163 32q-81 0 -162 -29z" />
    <glyph glyph-name="uni06A0.fina" unicode="&#x6a0;" horiz-adv-x="558" 
d="M323 652l-37 -47l-45 37l37 47zM354 515l-45 37l38 46l45 -36zM275 554l-38 -47l-45 37l37 46zM292 97q-107 -72 -153.5 -121.5t-46.5 -117.5q0 -63 52.5 -107t165.5 -44q115 0 222 44l22 -53q-111 -52 -250 -52q-71 0 -123.5 18t-81.5 48.5t-42.5 66t-13.5 74.5
q0 84 53 147.5t158 132.5q-8 8 -32.5 34.5t-41.5 43.5t-49.5 45.5t-68.5 56.5l7 58q112 44 216 44q94 0 149 -26.5t55 -62.5q0 -56 -37.5 -100.5t-113.5 -97.5q48 -41 87 -54.5t109 -13.5h28l16 -31l-20 -29h-35q-123 0 -231 97zM122 328q33 -26 61 -51.5t68.5 -67
t47.5 -47.5q135 90 149 163q-69 31 -163 31q-83 0 -163 -28z" />
    <glyph glyph-name="uni06A1.init" unicode="&#x6a1;" horiz-adv-x="456" 
d="M208 547q78 0 133.5 -90.5t51.5 -280.5q-1 -75 -98 -125.5t-295 -50.5l-20 30l25 30q244 0 336 80q2 28 2 79q-42 -35 -115 -35q-80 0 -134.5 48.5t-54.5 119.5q0 76 52.5 135.5t116.5 59.5zM243 240q55 0 98 20q-7 120 -45 174t-90 54q-44 0 -81 -41t-37 -93t42.5 -83
t112.5 -31z" />
    <glyph glyph-name="uni06A1.medi" unicode="&#x6a1;" horiz-adv-x="475" 
d="M480 60l15 -31l-20 -29h-37q-101 0 -192 41q-93 -41 -216 -41h-30l-20 29l25 31h32q81 0 144 15q-112 75 -112 180q0 80 53 141.5t117 61.5q68 0 122 -61.5t54 -143.5q0 -103 -106 -177q60 -16 129 -16h42zM118 249q0 -99 128 -153q120 51 120 152q0 62 -39.5 106.5
t-86.5 44.5q-45 0 -83.5 -44.5t-38.5 -105.5z" />
    <glyph glyph-name="uni06A1.fina" unicode="&#x6a1;" horiz-adv-x="931" 
d="M936 60l15 -31l-20 -29h-36q-105 0 -199 44q-134 -57 -334 -57h-30q-147 0 -213 46t-66 143q0 76 36 153l41 -14q-25 -64 -25 -132q0 -72 53.5 -104t178.5 -32h32q158 0 265 31q-109 75 -109 177q0 80 53 141.5t117 61.5q69 0 123 -61.5t54 -143.5q0 -104 -112 -176
q66 -17 135 -17h41zM574 249q0 -95 122 -150q126 55 126 149q0 62 -39.5 106.5t-86.5 44.5q-45 0 -83.5 -44.5t-38.5 -105.5z" />
    <glyph glyph-name="uni06A2.init" unicode="&#x6a2;" horiz-adv-x="456" 
d="M208 547q78 0 133.5 -90.5t51.5 -280.5q-1 -75 -98 -125.5t-295 -50.5l-20 30l25 30q244 0 336 80q2 28 2 79q-42 -35 -115 -35q-80 0 -134.5 48.5t-54.5 119.5q0 76 52.5 135.5t116.5 59.5zM243 240q55 0 98 20q-7 120 -45 174t-90 54q-44 0 -81 -41t-37 -93t42.5 -83
t112.5 -31zM147 -138l44 55l55 -46l-44 -55z" />
    <glyph glyph-name="uni06A2.medi" unicode="&#x6a2;" horiz-adv-x="475" 
d="M480 60l15 -31l-20 -29h-37q-101 0 -192 41q-93 -41 -216 -41h-30l-20 29l25 31h32q81 0 144 15q-112 75 -112 180q0 80 53 141.5t117 61.5q68 0 122 -61.5t54 -143.5q0 -103 -106 -177q60 -16 129 -16h42zM118 249q0 -99 128 -153q120 51 120 152q0 62 -39.5 106.5
t-86.5 44.5q-45 0 -83.5 -44.5t-38.5 -105.5zM188 -138l44 55l55 -46l-44 -55z" />
    <glyph glyph-name="uni06A2.fina" unicode="&#x6a2;" horiz-adv-x="931" 
d="M936 60l15 -31l-20 -29h-36q-105 0 -199 44q-134 -57 -334 -57h-30q-147 0 -213 46t-66 143q0 76 36 153l41 -14q-25 -64 -25 -132q0 -72 53.5 -104t178.5 -32h32q158 0 265 31q-109 75 -109 177q0 80 53 141.5t117 61.5q69 0 123 -61.5t54 -143.5q0 -104 -112 -176
q66 -17 135 -17h41zM574 249q0 -95 122 -150q126 55 126 149q0 62 -39.5 106.5t-86.5 44.5q-45 0 -83.5 -44.5t-38.5 -105.5zM646 -138l44 55l55 -46l-44 -55z" />
    <glyph glyph-name="uni06A3.init" unicode="&#x6a3;" horiz-adv-x="456" 
d="M247 673l-44 -56l-56 47l44 55zM208 547q78 0 133.5 -90.5t51.5 -280.5q-1 -75 -98 -125.5t-295 -50.5l-20 30l25 30q244 0 336 80q2 28 2 79q-42 -35 -115 -35q-80 0 -134.5 48.5t-54.5 119.5q0 76 52.5 135.5t116.5 59.5zM243 240q55 0 98 20q-7 120 -45 174t-90 54
q-44 0 -81 -41t-37 -93t42.5 -83t112.5 -31zM154 -138l44 55l55 -46l-44 -55z" />
    <glyph glyph-name="uni06A3.medi" unicode="&#x6a3;" horiz-adv-x="475" 
d="M277 587l-44 -56l-56 47l44 55zM480 60l15 -31l-20 -29h-37q-101 0 -192 41q-93 -41 -216 -41h-30l-20 29l25 31h32q81 0 144 15q-112 75 -112 180q0 80 53 141.5t117 61.5q68 0 122 -61.5t54 -143.5q0 -103 -106 -177q60 -16 129 -16h42zM118 249q0 -99 128 -153
q120 51 120 152q0 62 -39.5 106.5t-86.5 44.5q-45 0 -83.5 -44.5t-38.5 -105.5zM198 -138l44 55l55 -46l-44 -55z" />
    <glyph glyph-name="uni06A3.fina" unicode="&#x6a3;" horiz-adv-x="931" 
d="M733 588l-44 -56l-56 47l44 55zM936 60l15 -31l-20 -29h-36q-105 0 -199 44q-134 -57 -334 -57h-30q-147 0 -213 46t-66 143q0 76 36 153l41 -14q-25 -64 -25 -132q0 -72 53.5 -104t178.5 -32h32q158 0 265 31q-109 75 -109 177q0 80 53 141.5t117 61.5q69 0 123 -61.5
t54 -143.5q0 -104 -112 -176q66 -17 135 -17h41zM574 249q0 -95 122 -150q126 55 126 149q0 62 -39.5 106.5t-86.5 44.5q-45 0 -83.5 -44.5t-38.5 -105.5zM656 -138l44 55l55 -46l-44 -55z" />
    <glyph glyph-name="uni06A5.init" unicode="&#x6a5;" horiz-adv-x="456" 
d="M208 547q78 0 133.5 -90.5t51.5 -280.5q-1 -75 -98 -125.5t-295 -50.5l-20 30l25 30q244 0 336 80q2 28 2 79q-42 -35 -115 -35q-80 0 -134.5 48.5t-54.5 119.5q0 76 52.5 135.5t116.5 59.5zM243 240q55 0 98 20q-7 120 -45 174t-90 54q-44 0 -81 -41t-37 -93t42.5 -83
t112.5 -31zM216 -138l37 47l46 -37l-38 -47zM136 -100l45 -36l-37 -47l-45 37zM167 -236l37 46l46 -37l-37 -46z" />
    <glyph glyph-name="uni06A5.medi" unicode="&#x6a5;" horiz-adv-x="475" 
d="M480 60l15 -31l-20 -29h-37q-101 0 -192 41q-93 -41 -216 -41h-30l-20 29l25 31h32q81 0 144 15q-112 75 -112 180q0 80 53 141.5t117 61.5q68 0 122 -61.5t54 -143.5q0 -103 -106 -177q60 -16 129 -16h42zM118 249q0 -99 128 -153q120 51 120 152q0 62 -39.5 106.5
t-86.5 44.5q-45 0 -83.5 -44.5t-38.5 -105.5zM257 -138l37 47l46 -37l-38 -47zM177 -100l45 -36l-37 -47l-45 37zM208 -236l37 46l46 -37l-37 -46z" />
    <glyph glyph-name="uni06A5.fina" unicode="&#x6a5;" horiz-adv-x="931" 
d="M936 60l15 -31l-20 -29h-36q-105 0 -199 44q-134 -57 -334 -57h-30q-147 0 -213 46t-66 143q0 76 36 153l41 -14q-25 -64 -25 -132q0 -72 53.5 -104t178.5 -32h32q158 0 265 31q-109 75 -109 177q0 80 53 141.5t117 61.5q69 0 123 -61.5t54 -143.5q0 -104 -112 -176
q66 -17 135 -17h41zM574 249q0 -95 122 -150q126 55 126 149q0 62 -39.5 106.5t-86.5 44.5q-45 0 -83.5 -44.5t-38.5 -105.5zM715 -138l37 47l46 -37l-38 -47zM635 -100l45 -36l-37 -47l-45 37zM666 -236l37 46l46 -37l-37 -46z" />
    <glyph glyph-name="uni06A7.init" unicode="&#x6a7;" horiz-adv-x="456" 
d="M247 673l-44 -56l-56 47l44 55zM208 547q78 0 133.5 -90.5t51.5 -280.5q-1 -75 -98 -125.5t-295 -50.5l-20 30l25 30q244 0 336 80q2 28 2 79q-42 -35 -115 -35q-80 0 -134.5 48.5t-54.5 119.5q0 76 52.5 135.5t116.5 59.5zM243 240q55 0 98 20q-7 120 -45 174t-90 54
q-44 0 -81 -41t-37 -93t42.5 -83t112.5 -31z" />
    <glyph glyph-name="uni06A7.medi" unicode="&#x6a7;" horiz-adv-x="475" 
d="M277 587l-44 -56l-56 47l44 55zM480 60l15 -31l-20 -29h-37q-101 0 -192 41q-93 -41 -216 -41h-30l-20 29l25 31h32q81 0 144 15q-112 75 -112 180q0 80 53 141.5t117 61.5q68 0 122 -61.5t54 -143.5q0 -103 -106 -177q60 -16 129 -16h42zM118 249q0 -99 128 -153
q120 51 120 152q0 62 -39.5 106.5t-86.5 44.5q-45 0 -83.5 -44.5t-38.5 -105.5z" />
    <glyph glyph-name="uni06A7.fina" unicode="&#x6a7;" horiz-adv-x="758" 
d="M522 490l-44 -56l-56 47l44 55zM778 29l-20 -29h-91v-16q0 -39 -19 -78.5t-55.5 -74t-97.5 -56t-138 -21.5q-165 0 -234.5 59t-69.5 169q0 93 42 184l41 -13q-31 -79 -31 -164q0 -84 57.5 -129.5t200.5 -45.5q93 0 155.5 33t94.5 79q2 51 1 74h-94q-92 0 -149 47.5
t-57 123.5q0 75 52.5 135t116.5 60q70 0 121.5 -71.5t60.5 -234.5h99zM363 174q0 -56 44.5 -85t127.5 -29h78q-15 246 -131 246q-44 0 -81.5 -41t-37.5 -91z" />
    <glyph glyph-name="uni06A8.init" unicode="&#x6a8;" horiz-adv-x="456" 
d="M231 776l-37 -47l-45 37l37 47zM262 639l-45 37l38 46l45 -36zM183 678l-38 -47l-45 37l37 46zM208 547q78 0 133.5 -90.5t51.5 -280.5q-1 -75 -98 -125.5t-295 -50.5l-20 30l25 30q244 0 336 80q2 28 2 79q-42 -35 -115 -35q-80 0 -134.5 48.5t-54.5 119.5
q0 76 52.5 135.5t116.5 59.5zM243 240q55 0 98 20q-7 120 -45 174t-90 54q-44 0 -81 -41t-37 -93t42.5 -83t112.5 -31z" />
    <glyph glyph-name="uni06A8.medi" unicode="&#x6a8;" horiz-adv-x="475" 
d="M262 690l-37 -47l-45 37l37 47zM293 553l-45 37l38 46l45 -36zM214 592l-38 -47l-45 37l37 46zM480 60l15 -31l-20 -29h-37q-101 0 -192 41q-93 -41 -216 -41h-30l-20 29l25 31h32q81 0 144 15q-112 75 -112 180q0 80 53 141.5t117 61.5q68 0 122 -61.5t54 -143.5
q0 -103 -106 -177q60 -16 129 -16h42zM118 249q0 -99 128 -153q120 51 120 152q0 62 -39.5 106.5t-86.5 44.5q-45 0 -83.5 -44.5t-38.5 -105.5z" />
    <glyph glyph-name="uni06A8.fina" unicode="&#x6a8;" horiz-adv-x="758" 
d="M507 593l-37 -47l-45 37l37 47zM538 456l-45 37l38 46l45 -36zM459 495l-38 -47l-45 37l37 46zM778 29l-20 -29h-91v-16q0 -39 -19 -78.5t-55.5 -74t-97.5 -56t-138 -21.5q-165 0 -234.5 59t-69.5 169q0 93 42 184l41 -13q-31 -79 -31 -164q0 -84 57.5 -129.5
t200.5 -45.5q93 0 155.5 33t94.5 79q2 51 1 74h-94q-92 0 -149 47.5t-57 123.5q0 75 52.5 135t116.5 60q70 0 121.5 -71.5t60.5 -234.5h99zM363 174q0 -56 44.5 -85t127.5 -29h78q-15 246 -131 246q-44 0 -81.5 -41t-37.5 -91z" />
    <glyph glyph-name="uni06AA.init" unicode="&#x6aa;" horiz-adv-x="1171" 
d="M819 339q289 1 289 -177q0 -30 -28.5 -56t-73.5 -43q-173 -63 -607 -63h-399l-20 32l25 28h383q89 0 167 2t136 5.5t108 9t83.5 10.5t63 12.5t45.5 12t31 12t19.5 11t12.5 9.5l7 6q-2 68 -57.5 102.5t-184.5 33.5q-100 -1 -260 -12t-243 -11q-137 0 -219 15l5 48
q32 103 117.5 183.5t210.5 110.5l-11 -61q-97 -25 -170 -87.5t-103 -145.5q83 -10 178 -10q86 0 243.5 11t251.5 12z" />
    <glyph glyph-name="uni06AA.medi" unicode="&#x6aa;" horiz-adv-x="1187" 
d="M1192 60l15 -30l-20 -30q-116 0 -173 65v1l-8 -3q-173 -63 -607 -63h-399l-20 32l25 28h383q89 0 167 2t136 5.5t108 9t83.5 10.5t63 12.5t45.5 12t31 12t19.5 11t12.5 9.5l7 6q-2 68 -57.5 102.5t-184.5 33.5q-100 -1 -260 -12t-243 -11q-137 0 -219 15l5 48
q32 103 117.5 183.5t210.5 110.5l-11 -61q-97 -25 -170 -87.5t-103 -145.5q83 -10 178 -10q86 0 243.5 11t251.5 12q289 1 289 -177q0 -38 -46 -71q50 -31 130 -31z" />
    <glyph glyph-name="uni06AA.fina" unicode="&#x6aa;" horiz-adv-x="1260" 
d="M1265 60l15 -30l-20 -30q-116 0 -173 65v1l-8 -3q-175 -63 -608 -63h-410l-17 60h417q89 0 167 2t135.5 5.5t108 9t84 10.5t63 12t45 12t30.5 12.5t19.5 11t12.5 9.5l7 6q-2 68 -57.5 102.5t-183.5 33.5q-101 -1 -260.5 -12t-242.5 -11q-137 0 -220 15l6 48
q31 103 116.5 183.5t210.5 110.5l-10 -61q-98 -26 -171 -88t-102 -145q83 -10 177 -10q84 0 242 11.5t254 11.5q288 1 288 -177q0 -38 -45 -71q50 -31 130 -31z" />
    <glyph glyph-name="uni06AB.init" unicode="&#x6ab;" horiz-adv-x="460" 
d="M333 492q-33 0 -55 22t-22 53q0 19 8 35l-203 -132q258 -177 291 -354q-31 -50 -124.5 -83t-227.5 -33l-20 29l25 31q196 0 288 67q-26 143 -290 319l12 54l392 255l-4 -63l-76 -49h6q33 0 55 -21.5t22 -54.5q0 -32 -21.5 -53.5t-55.5 -21.5zM378 567q0 20 -12.5 31.5
t-32.5 11.5t-32 -11.5t-12 -31.5q0 -19 12 -31t32 -12q22 0 33.5 12t11.5 31z" />
    <glyph glyph-name="uni06AB.medi" unicode="&#x6ab;" horiz-adv-x="533" 
d="M538 60l15 -30l-20 -30q-73 0 -124 32.5t-115 114.5q-37 -69 -104.5 -108t-189.5 -39l-20 29l25 31q193 0 257 127l-208 260l12 53l392 255l-4 -61l-85 -55q23 -8 37 -27t14 -45q0 -32 -21 -53.5t-55 -21.5q-33 0 -55.5 22t-22.5 53v6l-161 -105l164 -204
q76 -95 112 -132.5t71 -54.5t86 -17zM388 567q0 20 -12 31.5t-32 11.5t-32.5 -11.5t-12.5 -31.5q0 -19 12 -31t33 -12t32.5 12t11.5 31z" />
    <glyph glyph-name="uni06AB.fina" unicode="&#x6ab;" horiz-adv-x="960" 
d="M965 60l15 -30l-20 -30q-74 0 -125 33t-114 114q-18 -35 -44 -61.5t-69.5 -50t-113 -36t-162.5 -12.5q-147 0 -213 46t-66 143q0 76 36 153l41 -14q-25 -64 -25 -132q0 -72 53.5 -104t178.5 -32q281 0 351 139l-207 261l11 53l392 255l-3 -61l-82 -53q25 -6 41.5 -26.5
t16.5 -47.5q0 -32 -21.5 -53.5t-55.5 -21.5q-33 0 -55 22t-22 53q0 9 1 13l-172 -111l163 -205q76 -95 112 -132.5t71.5 -54.5t86.5 -17zM825 567q0 20 -12.5 31.5t-32.5 11.5t-32 -11.5t-12 -31.5q0 -19 12 -31t32 -12q22 0 33.5 12t11.5 31z" />
    <glyph glyph-name="uni06AC.init" unicode="&#x6ac;" horiz-adv-x="460" 
d="M87 745l-44 -56l-56 47l44 55zM407 755l-4 -63l-342 -222q258 -177 291 -354q-31 -50 -124.5 -83t-227.5 -33l-20 29l25 31q196 0 288 67q-26 143 -290 319l12 54z" />
    <glyph glyph-name="uni06AC.medi" unicode="&#x6ac;" horiz-adv-x="533" 
d="M127 745l-44 -56l-56 47l44 55zM538 60l15 -30l-20 -30q-73 0 -124 32.5t-115 114.5q-37 -69 -104.5 -108t-189.5 -39l-20 29l25 31q193 0 257 127l-208 260l12 53l392 255l-4 -61l-349 -226l164 -204q76 -95 112 -132.5t71 -54.5t86 -17z" />
    <glyph glyph-name="uni06AC.fina" unicode="&#x6ac;" horiz-adv-x="814" 
d="M729 881l-44 -56l-56 47l44 55zM820 60l14 -30l-20 -30q-79 0 -128 81q-66 -47 -149 -70.5t-205 -23.5q-147 0 -213 46t-66 143q0 76 36 153l41 -14q-25 -64 -25 -132q0 -72 53.5 -104t178.5 -32q204 0 331 86l-8 611l59 6v-586q0 -104 101 -104zM303 276l-7 38
q107 0 165 25q-1 18 -41.5 43t-91.5 40l8 40l159 93l-2 -44l-119 -67q49 -20 83.5 -47t34.5 -53q0 -34 -56 -51t-133 -17z" />
    <glyph glyph-name="uni06AE.init" unicode="&#x6ae;" horiz-adv-x="460" 
d="M407 755l-4 -63l-342 -222q258 -177 291 -354q-31 -50 -124.5 -83t-227.5 -33l-20 29l25 31q196 0 288 67q-26 143 -290 319l12 54zM140 -138l37 47l46 -37l-38 -47zM60 -100l45 -36l-37 -47l-45 37zM91 -236l37 46l46 -37l-37 -46z" />
    <glyph glyph-name="uni06AE.medi" unicode="&#x6ae;" horiz-adv-x="533" 
d="M538 60l15 -30l-20 -30q-73 0 -124 32.5t-115 114.5q-37 -69 -104.5 -108t-189.5 -39l-20 29l25 31q193 0 257 127l-208 260l12 53l392 255l-4 -61l-349 -226l164 -204q76 -95 112 -132.5t71 -54.5t86 -17zM171 -138l37 47l46 -37l-38 -47zM91 -100l45 -36l-37 -47
l-45 37zM122 -236l37 46l46 -37l-37 -46z" />
    <glyph glyph-name="uni06AE.fina" unicode="&#x6ae;" horiz-adv-x="814" 
d="M820 60l14 -30l-20 -30q-79 0 -128 81q-66 -47 -149 -70.5t-205 -23.5q-147 0 -213 46t-66 143q0 76 36 153l41 -14q-25 -64 -25 -132q0 -72 53.5 -104t178.5 -32q204 0 331 86l-8 611l59 6v-586q0 -104 101 -104zM303 276l-7 38q107 0 165 25q-1 18 -41.5 43t-91.5 40
l8 40l159 93l-2 -44l-119 -67q49 -20 83.5 -47t34.5 -53q0 -34 -56 -51t-133 -17zM396 -138l37 47l46 -37l-38 -47zM316 -100l45 -36l-37 -47l-45 37zM347 -236l37 46l46 -37l-37 -46z" />
    <glyph glyph-name="uni06B0.init" unicode="&#x6b0;" horiz-adv-x="460" 
d="M407 875l-3 -40l-384 -252l10 43zM341 500q-33 0 -55 21.5t-22 53.5q0 17 6 31l-209 -136q258 -177 291 -354q-31 -50 -124.5 -83t-227.5 -33l-20 29l25 31q196 0 288 67q-26 143 -290 319l12 54l392 255l-4 -63l-65 -42h3q32 0 54 -21.5t22 -53.5t-21 -53.5t-55 -21.5z
M386 575q0 19 -12.5 31t-32.5 12t-32.5 -12t-12.5 -31t12 -31t33 -12t33 12t12 31z" />
    <glyph glyph-name="uni06B0.medi" unicode="&#x6b0;" horiz-adv-x="533" 
d="M453 875l-2 -40l-385 -252l10 43zM538 60l15 -30l-20 -30q-73 0 -124 32.5t-115 114.5q-37 -69 -104.5 -108t-189.5 -39l-20 29l25 31q193 0 257 127l-208 260l12 53l392 255l-4 -61l-75 -48q23 -8 37 -27t14 -44q0 -32 -21 -53.5t-55 -21.5t-56 21.5t-22 53.5v4
l-171 -111l164 -204q76 -95 112 -132.5t71 -54.5t86 -17zM398 575q0 19 -12 31t-32 12t-32.5 -12t-12.5 -31t12 -31t33 -12t32.5 12t11.5 31z" />
    <glyph glyph-name="uni06B0.fina" unicode="&#x6b0;" horiz-adv-x="960" 
d="M885 875l-2 -40l-385 -252l10 43zM965 60l15 -30l-20 -30q-74 0 -125 33t-114 114q-18 -35 -44 -61.5t-69.5 -50t-113 -36t-162.5 -12.5q-147 0 -213 46t-66 143q0 76 36 153l41 -14q-25 -64 -25 -132q0 -72 53.5 -104t178.5 -32q281 0 351 139l-207 261l11 53l392 255
l-3 -61l-79 -51q26 -5 43 -25t17 -48q0 -32 -21 -53.5t-56 -21.5q-33 0 -55 21.5t-22 53.5q0 9 1 13l-177 -114l163 -205q76 -95 112 -132.5t71.5 -54.5t86.5 -17zM830 570q0 19 -12.5 30.5t-32.5 11.5t-32.5 -11.5t-12.5 -30.5t12 -31.5t33 -12.5q22 0 33.5 12t11.5 32z
" />
    <glyph glyph-name="uni06B2.init" unicode="&#x6b2;" horiz-adv-x="460" 
d="M407 875l-3 -40l-384 -252l10 43zM3 446l12 54l392 255l-4 -63l-342 -222q258 -177 291 -354q-31 -50 -124.5 -83t-227.5 -33l-20 29l25 31q196 0 288 67q-26 143 -290 319zM140 -136l40 50l49 -40l-40 -49zM17 -144l39 49l49 -39l-40 -50z" />
    <glyph glyph-name="uni06B2.medi" unicode="&#x6b2;" horiz-adv-x="533" 
d="M453 875l-2 -40l-385 -252l10 43zM538 60l15 -30l-20 -30q-73 0 -124 32.5t-115 114.5q-37 -69 -104.5 -108t-189.5 -39l-20 29l25 31q193 0 257 127l-208 260l12 53l392 255l-4 -61l-349 -226l164 -204q76 -95 112 -132.5t71 -54.5t86 -17zM171 -136l40 50l49 -40
l-40 -49zM48 -144l39 49l49 -39l-40 -50z" />
    <glyph glyph-name="uni06B2.fina" unicode="&#x6b2;" horiz-adv-x="960" 
d="M885 875l-2 -40l-385 -252l10 43zM965 60l15 -30l-20 -30q-74 0 -125 33t-114 114q-18 -35 -44 -61.5t-69.5 -50t-113 -36t-162.5 -12.5q-147 0 -213 46t-66 143q0 76 36 153l41 -14q-25 -64 -25 -132q0 -72 53.5 -104t178.5 -32q281 0 351 139l-207 261l11 53l392 255
l-3 -61l-349 -225l163 -205q76 -95 112 -132.5t71.5 -54.5t86.5 -17zM379 -136l40 50l49 -40l-40 -49zM256 -144l39 49l49 -39l-40 -50z" />
    <glyph glyph-name="uni06B4.init" unicode="&#x6b4;" horiz-adv-x="460" 
d="M97 906l-37 -47l-45 37l37 47zM20 583l10 43l377 249l-3 -40zM128 769l-45 37l38 46l45 -36zM49 808l-38 -47l-45 37l37 46zM3 446l12 54l392 255l-4 -63l-342 -222q258 -177 291 -354q-31 -50 -124.5 -83t-227.5 -33l-20 29l25 31q196 0 288 67q-26 143 -290 319z" />
    <glyph glyph-name="uni06B4.medi" unicode="&#x6b4;" horiz-adv-x="533" 
d="M106 906l-37 -47l-45 37l37 47zM66 583l10 43l377 249l-2 -40zM137 769l-45 37l38 46l45 -36zM58 808l-38 -47l-45 37l37 46zM538 60l15 -30l-20 -30q-73 0 -124 32.5t-115 114.5q-37 -69 -104.5 -108t-189.5 -39l-20 29l25 31q193 0 257 127l-208 260l12 53l392 255
l-4 -61l-349 -226l164 -204q76 -95 112 -132.5t71 -54.5t86 -17z" />
    <glyph glyph-name="uni06B4.fina" unicode="&#x6b4;" horiz-adv-x="960" 
d="M582 906l-37 -47l-45 37l37 47zM498 583l10 43l377 249l-2 -40zM613 769l-45 37l38 46l45 -36zM534 808l-38 -47l-45 37l37 46zM965 60l15 -30l-20 -30q-74 0 -125 33t-114 114q-18 -35 -44 -61.5t-69.5 -50t-113 -36t-162.5 -12.5q-147 0 -213 46t-66 143q0 76 36 153
l41 -14q-25 -64 -25 -132q0 -72 53.5 -104t178.5 -32q281 0 351 139l-207 261l11 53l392 255l-3 -61l-349 -225l163 -205q76 -95 112 -132.5t71.5 -54.5t86.5 -17z" />
    <glyph glyph-name="uni06B5.init" unicode="&#x6b5;" horiz-adv-x="219" 
d="M34 954l66 -113l66 113l28 -12l-77 -140h-34l-77 140zM0 0l-20 29l25 31q55 0 82 44l-17 640l59 6l10 -660q-16 -39 -53.5 -64.5t-85.5 -25.5z" />
    <glyph glyph-name="uni06B5.medi" unicode="&#x6b5;" horiz-adv-x="244" 
d="M137 801h-34l-77 140l28 12l66 -113l66 113l28 -12zM249 60l15 -31l-20 -29q-87 0 -121 65q-34 -65 -123 -65l-20 29l25 31q61 0 92 50l-6 634l58 7v-592q0 -99 100 -99z" />
    <glyph glyph-name="uni06B5.fina" unicode="&#x6b5;" horiz-adv-x="699" 
d="M569 799h-34l-77 140l28 12l66 -113l66 113l28 -12zM719 30l-20 -30q-61 0 -109 39l1 -98q-34 -61 -110.5 -100.5t-178.5 -39.5q-128 0 -188.5 61t-60.5 168q0 92 42 183l41 -12q-31 -81 -31 -164q0 -175 203 -175q79 0 141 27.5t91 70.5l-19 784l59 6l9 -638
q46 -52 115 -52z" />
    <glyph glyph-name="uni06B6.init" unicode="&#x6b6;" horiz-adv-x="219" 
d="M95 827l-56 47l44 55l56 -46zM0 0l-20 29l25 31q55 0 82 44l-17 640l59 6l10 -660q-16 -39 -53.5 -64.5t-85.5 -25.5z" />
    <glyph glyph-name="uni06B6.medi" unicode="&#x6b6;" horiz-adv-x="244" 
d="M159 882l-44 -56l-56 47l44 55zM249 60l15 -31l-20 -29q-87 0 -121 65q-34 -65 -123 -65l-20 29l25 31q61 0 92 50l-6 634l58 7v-592q0 -99 100 -99z" />
    <glyph glyph-name="uni06B6.fina" unicode="&#x6b6;" horiz-adv-x="699" 
d="M591 880l-44 -56l-56 47l44 55zM719 30l-20 -30q-61 0 -109 39l1 -98q-34 -61 -110.5 -100.5t-178.5 -39.5q-128 0 -188.5 61t-60.5 168q0 92 42 183l41 -12q-31 -81 -31 -164q0 -175 203 -175q79 0 141 27.5t91 70.5l-19 784l59 6l9 -638q46 -52 115 -52z" />
    <glyph glyph-name="uni06B7.init" unicode="&#x6b7;" horiz-adv-x="219" 
d="M78 1023l45 -37l-37 -47l-45 37zM147 932l45 -36l-38 -47l-45 37zM29 924l46 -36l-38 -47l-45 37zM0 0l-20 29l25 31q55 0 82 44l-17 640l59 6l10 -660q-16 -39 -53.5 -64.5t-85.5 -25.5z" />
    <glyph glyph-name="uni06B7.medi" unicode="&#x6b7;" horiz-adv-x="244" 
d="M143 985l-37 -47l-45 37l37 47zM174 848l-45 37l38 46l45 -36zM95 887l-38 -47l-45 37l37 46zM249 60l15 -31l-20 -29q-87 0 -121 65q-34 -65 -123 -65l-20 29l25 31q61 0 92 50l-6 634l58 7v-592q0 -99 100 -99z" />
    <glyph glyph-name="uni06B7.fina" unicode="&#x6b7;" horiz-adv-x="699" 
d="M575 983l-37 -47l-45 37l37 47zM606 846l-45 37l38 46l45 -36zM527 885l-38 -47l-45 37l37 46zM719 30l-20 -30q-61 0 -109 39l1 -98q-34 -61 -110.5 -100.5t-178.5 -39.5q-128 0 -188.5 61t-60.5 168q0 92 42 183l41 -12q-31 -81 -31 -164q0 -175 203 -175
q79 0 141 27.5t91 70.5l-19 784l59 6l9 -638q46 -52 115 -52z" />
    <glyph glyph-name="uni06B8.init" unicode="&#x6b8;" horiz-adv-x="219" 
d="M0 0l-20 29l25 31q55 0 82 44l-17 640l59 6l10 -660q-16 -39 -53.5 -64.5t-85.5 -25.5zM169 -175l-45 37l37 47l46 -37zM52 -183l-45 37l37 46l45 -36zM121 -273l-46 37l37 46l46 -37z" />
    <glyph glyph-name="uni06B8.medi" unicode="&#x6b8;" horiz-adv-x="244" 
d="M249 60l15 -31l-20 -29q-87 0 -121 65q-34 -65 -123 -65l-20 29l25 31q61 0 92 50l-6 634l58 7v-592q0 -99 100 -99zM136 -138l37 47l46 -37l-38 -47zM56 -100l45 -36l-37 -47l-45 37zM87 -236l37 46l46 -37l-37 -46z" />
    <glyph glyph-name="uni06B8.fina" unicode="&#x6b8;" horiz-adv-x="699" 
d="M719 30l-20 -30q-61 0 -109 39l1 -98q-34 -61 -110.5 -100.5t-178.5 -39.5q-128 0 -188.5 61t-60.5 168q0 92 42 183l41 -12q-31 -81 -31 -164q0 -175 203 -175q79 0 141 27.5t91 70.5l-19 784l59 6l9 -638q46 -52 115 -52zM316 -335l37 47l46 -37l-38 -47zM236 -297
l45 -36l-37 -47l-45 37zM267 -433l37 46l46 -37l-37 -46z" />
    <glyph glyph-name="uni06B9.init" unicode="&#x6b9;" horiz-adv-x="264" 
d="M109 474l-56 47l44 55l56 -46zM0 0l-20 30l25 30q91 0 145 49q0 119 -53 266l60 21q44 -141 44 -267q0 -57 -57 -93t-144 -36zM118 -184l-55 46l44 55l55 -46z" />
    <glyph glyph-name="uni06B9.medi" unicode="&#x6b9;" horiz-adv-x="307" 
d="M177 459l-44 -56l-56 47l44 55zM312 60l15 -31l-20 -29q-101 0 -146 63q-49 -63 -162 -63l-19 29l24 31q98 0 130 48l-26 213h61l16 -205q37 -56 127 -56zM108 -138l44 55l55 -46l-44 -55z" />
    <glyph glyph-name="uni06B9.fina" unicode="&#x6b9;" horiz-adv-x="693" 
d="M354 381l-44 -56l-56 47l44 55zM713 29l-20 -29q-53 0 -87 31q2 -24 2 -48q0 -99 -89.5 -164t-216.5 -65q-128 0 -188.5 61t-60.5 167q0 93 42 184l41 -13q-31 -79 -31 -164q0 -175 203 -175q78 0 142.5 31t106.5 83q6 74 -9 146.5t-31.5 109.5t-47.5 96l59 25
q39 -101 65 -179q15 -38 40.5 -52t64.5 -14zM259 -371l44 55l55 -46l-44 -55z" />
    <glyph glyph-name="uni06BC.init" unicode="&#x6bc;" horiz-adv-x="264" 
d="M153 530l-44 -56l-56 47l44 55zM147 38q45 -18 45 -69q0 -32 -21 -53.5t-55 -21.5t-56 21.5t-22 53.5q0 18 8 34q-23 -3 -46 -3l-20 30l25 30q91 0 145 49q0 119 -53 266l60 21q44 -141 44 -267q0 -56 -54 -91zM116 -75q21 0 32.5 12.5t11.5 31.5t-12 30.5t-32 11.5
t-32.5 -11.5t-12.5 -30.5t12 -31.5t33 -12.5z" />
    <glyph glyph-name="uni06BC.medi" unicode="&#x6bc;" horiz-adv-x="307" 
d="M177 459l-44 -56l-56 47l44 55zM161 63q-9 -12 -21 -21q47 -18 47 -70q0 -32 -21.5 -53.5t-55.5 -21.5q-33 0 -55 22t-22 53q0 16 6 31q-19 -3 -40 -3l-19 29l24 31q98 0 130 48l-26 213h61l16 -205q37 -56 127 -56l15 -31l-20 -29q-101 0 -146 63zM155 -28
q0 20 -12.5 31.5t-32.5 11.5t-32 -11.5t-12 -31.5q0 -19 11.5 -31t32.5 -12q22 0 33.5 12t11.5 31z" />
    <glyph glyph-name="uni06BC.fina" unicode="&#x6bc;" horiz-adv-x="693" 
d="M354 381l-44 -56l-56 47l44 55zM713 29l-20 -29q-53 0 -87 31q2 -24 2 -48q0 -87 -71.5 -149t-179.5 -76q11 -19 11 -41q0 -32 -21 -53.5t-55 -21.5q-33 0 -55 21.5t-22 53.5q0 23 13 43q-175 32 -175 222q0 93 42 184l41 -13q-31 -79 -31 -164q0 -175 203 -175
q78 0 142.5 31t106.5 83q6 74 -9 146.5t-31.5 109.5t-47.5 96l59 25q39 -101 65 -179q15 -38 40.5 -52t64.5 -14zM337 -283q0 26 -21 37h-14q-22 0 -33 1q-22 -11 -22 -38q0 -19 12 -31t33 -12t33 12t12 31z" />
    <glyph glyph-name="uni06BD.init" unicode="&#x6bd;" horiz-adv-x="264" 
d="M92 670l45 -37l-37 -47l-45 37zM161 579l45 -36l-38 -47l-45 37zM43 571l46 -36l-38 -47l-45 37zM0 0l-20 30l25 30q91 0 145 49q0 119 -53 266l60 21q44 -141 44 -267q0 -57 -57 -93t-144 -36z" />
    <glyph glyph-name="uni06BD.medi" unicode="&#x6bd;" horiz-adv-x="307" 
d="M162 562l-37 -47l-45 37l37 47zM193 425l-45 37l38 46l45 -36zM114 464l-38 -47l-45 37l37 46zM312 60l15 -31l-20 -29q-101 0 -146 63q-49 -63 -162 -63l-19 29l24 31q98 0 130 48l-26 213h61l16 -205q37 -56 127 -56z" />
    <glyph glyph-name="uni06BD.fina" unicode="&#x6bd;" horiz-adv-x="693" 
d="M338 484l-37 -47l-45 37l37 47zM369 347l-45 37l38 46l45 -36zM290 386l-38 -47l-45 37l37 46zM713 29l-20 -29q-53 0 -87 31q2 -24 2 -48q0 -99 -89.5 -164t-216.5 -65q-128 0 -188.5 61t-60.5 167q0 93 42 184l41 -13q-31 -79 -31 -164q0 -175 203 -175q78 0 142.5 31
t106.5 83q6 74 -9 146.5t-31.5 109.5t-47.5 96l59 25q39 -101 65 -179q15 -38 40.5 -52t64.5 -14z" />
    <glyph glyph-name="uni06BF.init" unicode="&#x6bf;" horiz-adv-x="679" 
d="M260 565l-44 -56l-56 47l44 55zM218 441q58 0 121.5 -34t150.5 -96t145 -93l-9 -51l-24 -3q-67 -7 -150.5 -34.5t-149 -56t-148.5 -51t-154 -22.5l-20 29l25 31q82 0 164 25t186 64t197 59l-84 56t-79.5 51.5t-57.5 32.5t-63.5 27t-52.5 6q-56 0 -105 -37l-22 52
q60 45 130 45zM312 -138l37 47l46 -37l-38 -47zM232 -100l45 -36l-37 -47l-45 37zM263 -236l37 46l46 -37l-37 -46z" />
    <glyph glyph-name="uni06BF.medi" unicode="&#x6bf;" horiz-adv-x="747" 
d="M258 566l-44 -56l-56 47l44 55zM752 60l15 -31l-20 -29q-93 0 -160.5 46t-92.5 142q-54 -14 -121.5 -47t-118.5 -63.5t-120.5 -54t-133.5 -23.5l-20 29l25 31q64 0 130.5 23t117 52.5t125 60.5t147.5 43q-58 22 -123 60.5t-112 60t-95 21.5q-56 0 -105 -37l-21 53
q59 44 129 44q44 0 93.5 -20.5t91 -48t106 -62t127.5 -55.5l-8 -55l-38 -1q-10 0 -28 -2q27 -80 78 -108.5t132 -28.5zM393 -88l37 47l46 -37l-38 -47zM313 -50l45 -36l-37 -47l-45 37zM344 -186l37 46l46 -37l-37 -46z" />
    <glyph glyph-name="uni06BF.fina" unicode="&#x6bf;" horiz-adv-x="681" 
d="M265 565l-44 -56l-56 47l44 55zM681 0q-97 0 -152.5 45t-69.5 144q-165 -34 -260.5 -121t-95.5 -192q0 -75 50.5 -122t160.5 -47q115 0 222 44l22 -53q-111 -52 -249 -52q-69 0 -120.5 18.5t-79.5 51.5t-41.5 71.5t-13.5 84.5q0 137 126 243.5t330 130.5q-15 8 -43 24.5
t-39.5 23l-34.5 19.5t-33 18l-28 14t-28 12.5t-25 9t-25.5 7.5t-23.5 3.5t-25 1.5q-60 0 -107 -34l-22 51q55 43 126 43q56 0 114 -27t139.5 -78t137.5 -78l-7 -50l-30 -3l-54 -6q17 -81 58.5 -109t125.5 -28l15 -31zM457 -19l-38 -46l-45 36l37 47zM257 -37l37 47l45 -37
l-37 -46zM408 -117l-37 -47l-46 37l37 47z" />
    <glyph glyph-name="uni06C2.fina" unicode="&#x6c2;" horiz-adv-x="557" 
d="M143 327l-1 32l65 10q-47 34 -47 75q0 33 23.5 55t67.5 22q33 0 60 -16l-10 -33q-28 15 -53 15q-28 0 -40.5 -13t-12.5 -31q0 -35 50 -68l90 14l2 -31zM562 60l15 -31l-20 -29q-54 0 -95 15t-62.5 38t-41.5 49.5t-33 49.5t-35 38t-51 15q-54 0 -88 -58t-71 -185l-53 11
q41 157 92 225.5t120 68.5q44 0 75 -21.5t50.5 -51.5t41.5 -60.5t61 -52t95 -21.5z" />
    <glyph glyph-name="uni06C3.fina" unicode="&#x6c3;" horiz-adv-x="557" 
d="M283 351l-49 39l40 50l49 -40zM159 342l-48 40l40 49l48 -39zM80 -38l-53 11q41 157 92 225.5t120 68.5q44 0 75 -21.5t50.5 -51.5t41.5 -60.5t61 -52t95 -21.5l15 -31l-20 -29q-54 0 -95 15t-62.5 38t-41.5 49.5t-33 49.5t-35 38t-51 15q-54 0 -88 -58t-71 -185z" />
    <glyph glyph-name="uni06C4.fina" unicode="&#x6c4;" horiz-adv-x="521" 
d="M541 29l-20 -29h-92q-38 -200 -354 -257l-22 59q23 3 57 11q-30 22 -30 60q0 32 22.5 53.5t55.5 21.5q32 0 54 -21.5t22 -53.5q0 -8 -2 -20q114 51 144 147h-66q-110 0 -171.5 46.5t-61.5 120.5q0 76 52.5 136t116.5 60q71 0 129 -81.5t59 -221.5h93zM302 60h83
q-3 118 -46 180.5t-95 62.5q-44 0 -81.5 -41t-37.5 -92q0 -52 44.5 -81t132.5 -29zM158 -84q-20 0 -32.5 -12t-12.5 -31t12 -31t33 -12t32.5 12t11.5 31t-12 31t-32 12z" />
    <glyph glyph-name="uni06CA.fina" unicode="&#x6ca;" horiz-adv-x="521" 
d="M338 500l-40 -49l-49 39l40 50zM214 492l-40 -50l-48 40l40 49zM541 29l-20 -29h-92q-38 -200 -354 -257l-22 59q275 47 323 198h-66q-110 0 -171.5 46.5t-61.5 120.5q0 76 52.5 136t116.5 60q71 0 129 -81.5t59 -221.5h93zM302 60h83q-3 118 -46 180.5t-95 62.5
q-44 0 -81.5 -41t-37.5 -92q0 -52 44.5 -81t132.5 -29z" />
    <glyph glyph-name="uni06CD.fina" unicode="&#x6cd;" horiz-adv-x="742" 
d="M762 29l-20 -29q-54 0 -114 26q28 -33 28 -81t-93.5 -97.5t-230.5 -49.5q-129 0 -189 61t-60 168q0 52 13 102q-43 -20 -93 -28l-6 40q75 20 128 69l40 -12q-30 -83 -30 -164q0 -176 202 -176q106 0 178 27.5t97 52.5q-1 52 -41.5 84.5t-152.5 61.5l32 49
q48 -13 113 -34.5t103 -30t81 -8.5z" />
    <glyph glyph-name="uni06CE.init" unicode="&#x6ce;" horiz-adv-x="264" 
d="M49 601l66 -113l66 113l28 -12l-77 -140h-34l-77 140zM0 0l-20 30l25 30q91 0 145 49q0 119 -53 266l60 21q44 -141 44 -267q0 -57 -57 -93t-144 -36zM181 -175l-49 39l40 50l49 -40zM57 -184l-48 40l39 49l49 -39z" />
    <glyph glyph-name="uni06CE.medi" unicode="&#x6ce;" horiz-adv-x="307" 
d="M156 378h-34l-77 140l28 12l66 -113l66 113l28 -12zM312 60l15 -31l-20 -29q-101 0 -146 63q-49 -63 -162 -63l-19 29l24 31q98 0 130 48l-26 213h61l16 -205q37 -56 127 -56zM177 -136l40 50l49 -40l-40 -49zM54 -144l39 49l49 -39l-40 -50z" />
    <glyph glyph-name="uni06CE.fina" unicode="&#x6ce;" horiz-adv-x="712" 
d="M158 292h-34l-77 140l28 12l66 -113l66 113l28 -12zM732 29l-20 -29q-54 0 -114 26q28 -33 28 -81t-93 -97.5t-231 -49.5q-128 0 -188.5 61t-60.5 168q0 92 42 183l41 -12q-31 -81 -31 -164q0 -176 203 -176q105 0 176.5 27t98.5 53q-2 52 -42.5 84.5t-152.5 61.5l32 49
q48 -13 113 -34.5t103 -30t82 -8.5z" />
    <glyph glyph-name="uni06CF.fina" unicode="&#x6cf;" horiz-adv-x="521" 
d="M293 492l-44 -56l-56 47l44 55zM541 29l-20 -29h-92q-38 -200 -354 -257l-22 59q275 47 323 198h-66q-110 0 -171.5 46.5t-61.5 120.5q0 76 52.5 136t116.5 60q71 0 129 -81.5t59 -221.5h93zM302 60h83q-3 118 -46 180.5t-95 62.5q-44 0 -81.5 -41t-37.5 -92
q0 -52 44.5 -81t132.5 -29z" />
    <glyph glyph-name="uni06D1.init" unicode="&#x6d1;" horiz-adv-x="264" 
d="M0 0l-20 30l25 30q91 0 145 49q0 119 -53 266l60 21q44 -141 44 -267q0 -57 -57 -93t-144 -36zM177 -175l-45 37l37 47l46 -37zM60 -183l-45 37l37 46l45 -36zM129 -273l-46 37l37 46l46 -37z" />
    <glyph glyph-name="uni06D1.medi" unicode="&#x6d1;" horiz-adv-x="307" 
d="M312 60l15 -31l-20 -29q-101 0 -146 63q-49 -63 -162 -63l-19 29l24 31q98 0 130 48l-26 213h61l16 -205q37 -56 127 -56zM177 -138l37 47l46 -37l-38 -47zM97 -100l45 -36l-37 -47l-45 37zM128 -236l37 46l46 -37l-37 -46z" />
    <glyph glyph-name="uni06D1.fina" unicode="&#x6d1;" horiz-adv-x="712" 
d="M732 29l-20 -29q-54 0 -114 26q28 -33 28 -81t-93 -97.5t-231 -49.5q-128 0 -188.5 61t-60.5 168q0 92 42 183l41 -12q-31 -81 -31 -164q0 -176 203 -176q105 0 176.5 27t98.5 53q-2 52 -42.5 84.5t-152.5 61.5l32 49q48 -13 113 -34.5t103 -30t82 -8.5zM321 -329l37 47
l46 -37l-38 -47zM241 -291l45 -36l-37 -47l-45 37zM272 -427l37 46l46 -37l-37 -46z" />
    <glyph glyph-name="uni06D5.fina" unicode="&#x6d5;" horiz-adv-x="498" 
d="M503 60l15 -32l-20 -28h-14q-104 0 -136 89q-66 -52 -166 -52q-65 0 -110 33.5t-45 76.5q0 88 89 154t214 91l-4 102l54 7l10 -327q2 -64 25 -89t75 -25h13zM72 145q11 -22 42 -36.5t77 -14.5q86 0 148 45l-7 196q-106 -20 -181 -69t-79 -121z" />
    <glyph glyph-name="uni06EE.fina" unicode="&#x6ee;" horiz-adv-x="518" 
d="M203 683l-66 -112l-28 12l77 140h34l77 -140l-28 -12zM523 60l15 -31l-20 -29q-84 0 -124 66q-77 -79 -213 -79q-75 0 -154 25l20 59q68 -22 138 -22q116 0 188 61l-161 363l61 28l132 -339q22 -58 46 -80t72 -22z" />
    <glyph glyph-name="uni06FA.init" unicode="&#x6fa;" horiz-adv-x="753" 
d="M413 562l-37 -47l-45 37l37 47zM444 425l-45 37l38 46l45 -36zM365 464l-38 -47l-45 37l37 46zM636 394q54 -145 54 -271q0 -56 -45.5 -89.5t-99.5 -33.5q-89 0 -132 61q-40 -61 -126 -61t-127 61q-42 -61 -161 -61l-19 29l24 31q103 0 128 48l-26 213h60l17 -205
q37 -56 110 -56q67 0 93 48l-26 213h60l17 -205q35 -56 112 -56q28 0 53.5 11t38.5 28q-2 125 -66 274zM359 -138l44 55l55 -46l-44 -55z" />
    <glyph glyph-name="uni06FA.medi" unicode="&#x6fa;" horiz-adv-x="828" 
d="M414 562l-37 -47l-45 37l37 47zM445 425l-45 37l38 46l45 -36zM366 464l-38 -47l-45 37l37 46zM848 30l-20 -30q-105 0 -163 54q-43 -54 -122 -54q-87 0 -130 61q-40 -61 -126 -61t-127 61q-42 -61 -161 -61l-19 29l24 31q103 0 128 48l-26 213h60l17 -205
q37 -56 110 -56q67 0 93 48l-26 213h60l17 -205q35 -56 109 -56q63 0 91 39q-9 114 -45 282l63 13q24 -140 32 -291q53 -43 146 -43zM361 -138l44 55l55 -46l-44 -55z" />
    <glyph glyph-name="uni06FA.fina" unicode="&#x6fa;" horiz-adv-x="1236" 
d="M819 562l-37 -47l-45 37l37 47zM850 425l-45 37l38 46l45 -36zM771 464l-38 -47l-45 37l37 46zM1253 30l-20 -30q-105 0 -163 54q-44 -54 -122 -54q-86 0 -129 61q-20 -31 -55 -46t-71 -15q-53 0 -87 31q2 -24 2 -48q0 -99 -89.5 -164t-216.5 -65q-128 0 -188.5 61
t-60.5 167q0 93 42 184l41 -13q-31 -79 -31 -164q0 -175 203 -175q78 0 142.5 31t106.5 83q6 74 -9 146.5t-31.5 109.5t-47.5 96l59 25q39 -101 65 -179q15 -38 40.5 -52t64.5 -14q68 0 93 48l-26 213h60l17 -205q37 -56 110 -56q63 0 91 39q-9 102 -42 282l63 13
q22 -148 29 -292q56 -42 145 -42zM774 -138l44 55l55 -46l-44 -55z" />
    <glyph glyph-name="uni06FB.init" unicode="&#x6fb;" horiz-adv-x="901" 
d="M646 530l-44 -55l-56 46l44 55zM655 416q87 0 135 -63t48 -188q0 -88 -98.5 -126.5t-309.5 -38.5h-132q-101 0 -143 64q-46 -64 -156 -64l-19 29l24 31q92 0 125 48l-23 272h60l14 -258q26 -52 97 -60q80 165 177 259.5t201 94.5zM786 133q8 122 -29.5 173t-97.5 51
q-89 0 -167.5 -72t-165.5 -225h104q162 0 234 16.5t122 56.5zM418 -138l44 55l56 -46l-44 -55z" />
    <glyph glyph-name="uni06FB.medi" unicode="&#x6fb;" horiz-adv-x="939" 
d="M646 530l-44 -55l-56 46l44 55zM945 60l14 -31l-20 -29q-81 0 -131 82q-76 -82 -378 -82h-132q-101 0 -143 64q-46 -64 -156 -64l-19 29l24 31q92 0 125 48l-23 272h60l14 -258q26 -52 97 -60q80 165 177 259.5t201 94.5q87 0 135 -63t48 -188q0 -23 -6 -41
q18 -29 48.5 -46.5t64.5 -17.5zM786 133q8 122 -29.5 173t-97.5 51q-89 0 -167.5 -72t-165.5 -225h104q162 0 234 16.5t122 56.5zM418 -138l44 55l56 -46l-44 -55z" />
    <glyph glyph-name="uni06FB.fina" unicode="&#x6fb;" horiz-adv-x="1334" 
d="M1041 530l-44 -56l-56 47l44 55zM1339 60l15 -31l-20 -29q-80 0 -132 82q-76 -82 -377 -82h-132q-53 0 -87 31q2 -24 2 -48q0 -99 -89.5 -164t-216.5 -65q-128 0 -188.5 61t-60.5 167q0 93 42 184l41 -13q-31 -79 -31 -164q0 -175 203 -175q78 0 142.5 31t106.5 83
q6 74 -9 146.5t-31.5 109.5t-47.5 96l59 25q39 -101 65 -179q22 -58 79 -64q80 165 177 259.5t201 94.5q86 0 134.5 -63t48.5 -188q0 -23 -6 -42q19 -28 49 -45.5t63 -17.5zM1181 133q8 122 -29.5 173t-97.5 51q-89 0 -167.5 -72t-165.5 -225h104q162 0 234 16.5t122 56.5z
M813 -138l44 55l55 -46l-44 -55z" />
    <glyph glyph-name="uni06FC.init" unicode="&#x6fc;" horiz-adv-x="548" 
d="M308 555l-44 -56l-56 47l44 55zM521 113l7 -61q-132 -31 -220.5 -41.5t-205.5 -10.5h-102l-20 29l25 31h85q75 0 107 2q-61 38 -92 90t-31 107q0 72 50.5 122t144.5 50q80 0 141 -36l-19 -58q-59 33 -122 33q-72 0 -106.5 -32t-34.5 -84q0 -111 145 -187q96 9 248 46z
M205 -138l44 55l55 -46l-44 -55z" />
    <glyph glyph-name="uni06FC.medi" unicode="&#x6fc;" horiz-adv-x="553" 
d="M322 550l-44 -56l-56 47l44 55zM558 60l15 -32l-20 -28h-28q-131 0 -229 88q-68 -40 -140.5 -64t-126.5 -24h-29l-20 28l25 32h14q114 0 237 67q-8 9 -29 32.5t-34 36.5t-34.5 34t-46 41.5t-53.5 41.5l7 57q106 45 216 45q95 0 150 -27.5t55 -63.5q0 -102 -142 -205
q43 -34 83.5 -46.5t108.5 -12.5h21zM120 327q32 -24 62.5 -52.5t65 -63.5t56.5 -55q119 81 141 168q-66 32 -163 32q-81 0 -162 -29zM253 -138l44 55l55 -46l-44 -55z" />
    <glyph glyph-name="uni06FC.fina" unicode="&#x6fc;" horiz-adv-x="558" 
d="M339 549l-44 -56l-56 47l44 55zM558 0h-35q-123 0 -231 97q-107 -72 -153.5 -121.5t-46.5 -117.5q0 -63 52.5 -107t165.5 -44q115 0 222 44l22 -53q-111 -52 -250 -52q-71 0 -123.5 18t-81.5 48.5t-42.5 66t-13.5 74.5q0 84 53 147.5t158 132.5q-8 8 -32.5 34.5
t-41.5 43.5t-49.5 45.5t-68.5 56.5l7 58q112 44 216 44q94 0 149 -26.5t55 -62.5q0 -56 -37.5 -100.5t-113.5 -97.5q48 -41 87 -54.5t109 -13.5h28l16 -31zM122 328q33 -26 61 -51.5t68.5 -67t47.5 -47.5q135 90 149 163q-69 31 -163 31q-83 0 -163 -28zM333 -150l-55 46
l44 55l55 -46z" />
    <glyph glyph-name="uni06FF.init" unicode="&#x6ff;" horiz-adv-x="631" 
d="M360 644l-66 -112l-28 12l77 140h34l77 -140l-28 -12zM132 527q234 -138 335 -235t101 -200q0 -41 -47 -73t-118 -32q-101 0 -187 47q-84 -34 -193 -34h-23l-20 29l25 31h37q64 0 117 12q-95 79 -95 186q0 61 36.5 108.5t93.5 57.5q-41 25 -91 53zM107 256
q0 -48 30.5 -91t82.5 -72q116 52 116 160q0 52 -33 88.5t-81 36.5q-50 0 -82.5 -35t-32.5 -87zM402 45q82 0 122 34q-3 104 -152 223q7 -21 7 -46q0 -119 -103 -189q61 -22 126 -22z" />
    <glyph glyph-name="uni06FF.medi" unicode="&#x6ff;" horiz-adv-x="484" 
d="M312 539l-66 -112l-28 12l77 140h34l77 -140l-28 -12zM504 29l-20 -29h-132q82 -49 82 -151q0 -46 -36.5 -77t-96.5 -31q-89 0 -150 72.5t-65 186.5h-86l-20 29l25 31h81q6 125 77 224t153 99q54 0 86.5 -41.5t32.5 -107.5q0 -51 -27 -98t-76 -76h158zM307 322
q-59 0 -113 -77.5t-63 -184.5h64q84 0 136.5 47t52.5 116q0 43 -21 71t-56 28zM296 -200q36 0 60 11.5t31 24.5q0 76 -46.5 120t-116.5 44h-19h-74q6 -93 50.5 -146.5t114.5 -53.5z" />
    <glyph glyph-name="uni06FF.fina" unicode="&#x6ff;" horiz-adv-x="569" 
d="M397 539l-66 -112l-28 12l77 140h34l77 -140l-28 -12zM589 29l-20 -29h-132q82 -49 82 -151q0 -46 -36.5 -77t-95.5 -31q-90 0 -151 72.5t-65 186.5q-85 3 -138 30l26 53q45 -20 112 -23q6 125 77 224t153 99q54 0 86.5 -41.5t32.5 -107.5q0 -51 -27 -98t-76 -76h158z
M392 322q-59 0 -113 -77.5t-63 -184.5h65q84 0 136 47t52 116q0 43 -21 71t-56 28zM381 -200q36 0 60 11.5t31 24.5q0 76 -46.5 120t-116.5 44h-93q6 -93 50.5 -146.5t114.5 -53.5z" />
    <glyph glyph-name="uniFB51" unicode="&#x671;" horiz-adv-x="229" arabic-form="final" 
d="M123 754q-31 0 -81 16l-17 -39l-30 11l24 68q6 -2 32 -10q45 93 113 93q30 0 48.5 -17.5t18.5 -46.5q0 -38 -29.5 -56.5t-78.5 -18.5zM161 859q-46 0 -82 -65q27 -6 51 -6q68 0 68 38q0 33 -37 33zM235 60l14 -31l-20 -29q-145 0 -148 170l-7 514l58 6v-514
q0 -64 23.5 -90t79.5 -26z" />
    <glyph glyph-name="uniFB53" unicode="&#x67b;" horiz-adv-x="918" arabic-form="final" 
d="M914 60l14 -30l-20 -30q-110 0 -162 82q-155 -95 -414 -95q-147 0 -213 46t-66 143q0 76 36 153l41 -14q-25 -64 -25 -132q0 -72 53.5 -104t178.5 -32v-1l1 1q256 0 388 86l-39 188h61l23 -146q10 -59 38 -87t105 -28zM414 -125l-40 -49l-48 39l39 50zM350 -249l40 49
l48 -39l-40 -50z" />
    <glyph glyph-name="uniFB54" unicode="&#x67b;" horiz-adv-x="264" arabic-form="initial" 
d="M0 0l-20 30l25 30q91 0 145 49q0 119 -53 266l60 21q44 -141 44 -267q0 -57 -57 -93t-144 -36zM119 -174l-48 39l39 50l49 -40zM143 -289l-48 40l40 49l48 -39z" />
    <glyph glyph-name="uniFB55" unicode="&#x67b;" horiz-adv-x="307" arabic-form="medial" 
d="M312 60l15 -31l-20 -29q-101 0 -146 63q-49 -63 -162 -63l-19 29l24 31q98 0 130 48l-26 213h61l16 -205q37 -56 127 -56zM204 -125l-40 -49l-48 39l39 50zM140 -249l40 49l48 -39l-40 -50z" />
    <glyph glyph-name="uniFB57" unicode="&#x67e;" horiz-adv-x="918" arabic-form="final" 
d="M914 60l14 -30l-20 -30q-110 0 -162 82q-155 -95 -414 -95q-147 0 -213 46t-66 143q0 76 36 153l41 -14q-25 -64 -25 -132q0 -72 53.5 -104t178.5 -32v-1l1 1q256 0 388 86l-39 188h61l23 -146q10 -59 38 -87t105 -28zM387 -138l38 47l45 -37l-38 -47zM307 -100l45 -36
l-37 -47l-45 37zM338 -236l38 46l45 -37l-37 -46z" />
    <glyph glyph-name="uniFB58" unicode="&#x67e;" horiz-adv-x="264" arabic-form="initial" 
d="M0 0l-20 30l25 30q91 0 145 49q0 119 -53 266l60 21q44 -141 44 -267q0 -57 -57 -93t-144 -36zM177 -175l-45 37l37 47l46 -37zM60 -183l-45 37l37 46l45 -36zM129 -273l-46 37l37 46l46 -37z" />
    <glyph glyph-name="uniFB59" unicode="&#x67e;" horiz-adv-x="307" arabic-form="medial" 
d="M312 60l15 -31l-20 -29q-101 0 -146 63q-49 -63 -162 -63l-19 29l24 31q98 0 130 48l-26 213h61l16 -205q37 -56 127 -56zM177 -138l37 47l46 -37l-38 -47zM97 -100l45 -36l-37 -47l-45 37zM128 -236l37 46l46 -37l-37 -46z" />
    <glyph glyph-name="uniFB5B" unicode="&#x680;" horiz-adv-x="918" arabic-form="final" 
d="M914 60l14 -30l-20 -30q-110 0 -162 82q-155 -95 -414 -95q-147 0 -213 46t-66 143q0 76 36 153l41 -14q-25 -64 -25 -132q0 -72 53.5 -104t178.5 -32v-1l1 1q256 0 388 86l-39 188h61l23 -146q10 -59 38 -87t105 -28zM462 -101l-36 -45l-44 36l36 45zM352 -109l-36 -45
l-44 36l36 45zM405 -218l36 45l43 -36l-35 -45zM294 -226l37 45l44 -36l-37 -45z" />
    <glyph glyph-name="uniFB5C" unicode="&#x680;" horiz-adv-x="264" arabic-form="initial" 
d="M0 0l-20 30l25 30q91 0 145 49q0 119 -53 266l60 21q44 -141 44 -267q0 -57 -57 -93t-144 -36zM171 -146l-44 36l36 45l44 -36zM61 -154l-44 36l36 45l44 -36zM193 -254l-44 36l37 45l43 -36zM83 -262l-44 36l37 45l44 -36z" />
    <glyph glyph-name="uniFB5D" unicode="&#x680;" horiz-adv-x="307" arabic-form="medial" 
d="M312 60l15 -31l-20 -29q-101 0 -146 63q-49 -63 -162 -63l-19 29l24 31q98 0 130 48l-26 213h61l16 -205q37 -56 127 -56zM252 -101l-36 -45l-44 36l36 45zM142 -109l-36 -45l-44 36l36 45zM194 -218l37 45l43 -36l-36 -45zM84 -226l37 45l44 -36l-37 -45z" />
    <glyph glyph-name="uniFB5F" unicode="&#x67a;" horiz-adv-x="908" arabic-form="final" 
d="M440 526l-39 -50l-48 40l39 49zM377 402l40 49l48 -40l-40 -49zM914 60l14 -30l-20 -30q-110 0 -162 82q-155 -95 -414 -95q-147 0 -213 46t-66 143q0 76 36 153l41 -14q-25 -64 -25 -132q0 -72 53.5 -104t178.5 -32v-1l1 1q256 0 388 86l-39 188h61l23 -146
q10 -59 38 -87t105 -28z" />
    <glyph glyph-name="uniFB60" unicode="&#x67a;" horiz-adv-x="264" arabic-form="initial" 
d="M96 573l-48 40l39 49l48 -39zM120 459l-48 40l40 49l48 -40zM0 0l-20 30l25 30q91 0 145 49q0 119 -53 266l60 21q44 -141 44 -267q0 -57 -57 -93t-144 -36z" />
    <glyph glyph-name="uniFB61" unicode="&#x67a;" horiz-adv-x="307" arabic-form="medial" 
d="M159 552l-39 -50l-48 40l39 49zM96 428l40 49l48 -40l-40 -49zM312 60l15 -31l-20 -29q-101 0 -146 63q-49 -63 -162 -63l-19 29l24 31q98 0 130 48l-26 213h61l16 -205q37 -56 127 -56z" />
    <glyph glyph-name="uniFB63" unicode="&#x67f;" horiz-adv-x="908" arabic-form="final" 
d="M479 505l-36 -45l-44 36l36 45zM369 497l-36 -45l-44 36l36 45zM421 388l37 46l43 -36l-36 -45zM311 380l37 46l44 -36l-37 -45zM914 60l14 -30l-20 -30q-110 0 -162 82q-155 -95 -414 -95q-147 0 -213 46t-66 143q0 76 36 153l41 -14q-25 -64 -25 -132q0 -72 53.5 -104
t178.5 -32v-1l1 1q256 0 388 86l-39 188h61l23 -146q10 -59 38 -87t105 -28z" />
    <glyph glyph-name="uniFB64" unicode="&#x67f;" horiz-adv-x="264" arabic-form="initial" 
d="M138 557l-44 36l36 45l44 -36zM28 549l-44 36l36 45l44 -36zM160 450l-44 35l37 46l43 -36zM50 442l-44 35l37 46l44 -36zM0 0l-20 30l25 30q91 0 145 49q0 119 -53 266l60 21q44 -141 44 -267q0 -57 -57 -93t-144 -36z" />
    <glyph glyph-name="uniFB65" unicode="&#x67f;" horiz-adv-x="307" arabic-form="medial" 
d="M199 531l-36 -45l-44 36l36 45zM89 523l-36 -45l-44 36l36 45zM141 414l37 46l43 -36l-36 -45zM31 406l37 46l44 -36l-37 -45zM312 60l15 -31l-20 -29q-101 0 -146 63q-49 -63 -162 -63l-19 29l24 31q98 0 130 48l-26 213h61l16 -205q37 -56 127 -56z" />
    <glyph glyph-name="uniFB67" unicode="&#x679;" horiz-adv-x="908" arabic-form="final" 
d="M532 426q0 -24 -23 -46t-68 -22h-133l3 32h23q4 9 14 25l-8 146h32v-109q44 59 92 59q31 0 49.5 -23t18.5 -62zM360 390h66q54 0 79 25q0 63 -44 63q-51 0 -101 -88zM914 60l14 -30l-20 -30q-110 0 -162 82q-155 -95 -414 -95q-147 0 -213 46t-66 143q0 76 36 153l41 -14
q-25 -64 -25 -132q0 -72 53.5 -104t178.5 -32v-1l1 1q256 0 388 86l-39 188h61l23 -146q10 -59 38 -87t105 -28z" />
    <glyph glyph-name="uniFB68" unicode="&#x679;" horiz-adv-x="264" arabic-form="initial" 
d="M159 608q31 0 49.5 -23t18.5 -62q0 -24 -23 -46t-68 -22h-133l3 32h23q4 9 14 25l-8 146h32v-109q44 59 92 59zM121 487q54 0 79 25q0 63 -44 63q-51 0 -101 -88h66zM97 375l60 21q44 -141 44 -267q0 -57 -57 -93t-144 -36l-20 30l25 30q91 0 145 49q0 119 -53 266z" />
    <glyph glyph-name="uniFB69" unicode="&#x679;" horiz-adv-x="307" arabic-form="medial" 
d="M252 452q0 -24 -23 -46t-68 -22h-133l3 32h23q4 9 14 25l-8 146h32v-109q44 59 92 59q31 0 49.5 -23t18.5 -62zM80 416h66q54 0 79 25q0 63 -44 63q-51 0 -101 -88zM312 60l15 -31l-20 -29q-101 0 -146 63q-49 -63 -162 -63l-19 29l24 31q98 0 130 48l-26 213h61l16 -205
q37 -56 127 -56z" />
    <glyph glyph-name="uniFB6B" unicode="&#x6a4;" horiz-adv-x="931" arabic-form="final" 
d="M718 691l-37 -47l-45 37l37 47zM749 554l-45 37l38 46l45 -36zM670 593l-38 -47l-45 37l37 46zM936 60l15 -31l-20 -29h-36q-105 0 -199 44q-134 -57 -334 -57h-30q-147 0 -213 46t-66 143q0 76 36 153l41 -14q-25 -64 -25 -132q0 -72 53.5 -104t178.5 -32h32
q158 0 265 31q-109 75 -109 177q0 80 53 141.5t117 61.5q69 0 123 -61.5t54 -143.5q0 -104 -112 -176q66 -17 135 -17h41zM574 249q0 -95 122 -150q126 55 126 149q0 62 -39.5 106.5t-86.5 44.5q-45 0 -83.5 -44.5t-38.5 -105.5z" />
    <glyph glyph-name="uniFB6C" unicode="&#x6a4;" horiz-adv-x="456" arabic-form="initial" 
d="M231 776l-37 -47l-45 37l37 47zM262 639l-45 37l38 46l45 -36zM183 678l-38 -47l-45 37l37 46zM208 547q78 0 133.5 -90.5t51.5 -280.5q-1 -75 -98 -125.5t-295 -50.5l-20 30l25 30q244 0 336 80q2 28 2 79q-42 -35 -115 -35q-80 0 -134.5 48.5t-54.5 119.5
q0 76 52.5 135.5t116.5 59.5zM243 240q55 0 98 20q-7 120 -45 174t-90 54q-44 0 -81 -41t-37 -93t42.5 -83t112.5 -31z" />
    <glyph glyph-name="uniFB6D" unicode="&#x6a4;" horiz-adv-x="475" arabic-form="medial" 
d="M262 690l-37 -47l-45 37l37 47zM293 553l-45 37l38 46l45 -36zM214 592l-38 -47l-45 37l37 46zM480 60l15 -31l-20 -29h-37q-101 0 -192 41q-93 -41 -216 -41h-30l-20 29l25 31h32q81 0 144 15q-112 75 -112 180q0 80 53 141.5t117 61.5q68 0 122 -61.5t54 -143.5
q0 -103 -106 -177q60 -16 129 -16h42zM118 249q0 -99 128 -153q120 51 120 152q0 62 -39.5 106.5t-86.5 44.5q-45 0 -83.5 -44.5t-38.5 -105.5z" />
    <glyph glyph-name="uniFB6F" unicode="&#x6a6;" horiz-adv-x="931" arabic-form="final" 
d="M755 660l-36 -45l-44 36l36 45zM645 652l-36 -45l-44 36l36 45zM697 543l37 46l43 -36l-36 -45zM587 535l37 46l44 -36l-37 -45zM936 60l15 -31l-20 -29h-36q-105 0 -199 44q-134 -57 -334 -57h-30q-147 0 -213 46t-66 143q0 76 36 153l41 -14q-25 -64 -25 -132
q0 -72 53.5 -104t178.5 -32h32q158 0 265 31q-109 75 -109 177q0 80 53 141.5t117 61.5q69 0 123 -61.5t54 -143.5q0 -104 -112 -176q66 -17 135 -17h41zM574 249q0 -95 122 -150q126 55 126 149q0 62 -39.5 106.5t-86.5 44.5q-45 0 -83.5 -44.5t-38.5 -105.5z" />
    <glyph glyph-name="uniFB70" unicode="&#x6a6;" horiz-adv-x="456" arabic-form="initial" 
d="M268 745l-36 -45l-44 36l36 45zM158 737l-36 -45l-44 36l36 45zM210 628l37 46l43 -36l-36 -45zM100 620l37 46l44 -36l-37 -45zM208 547q78 0 133.5 -90.5t51.5 -280.5q-1 -75 -98 -125.5t-295 -50.5l-20 30l25 30q244 0 336 80q2 28 2 79q-42 -35 -115 -35
q-80 0 -134.5 48.5t-54.5 119.5q0 76 52.5 135.5t116.5 59.5zM243 240q55 0 98 20q-7 120 -45 174t-90 54q-44 0 -81 -41t-37 -93t42.5 -83t112.5 -31z" />
    <glyph glyph-name="uniFB71" unicode="&#x6a6;" horiz-adv-x="475" arabic-form="medial" 
d="M298 659l-36 -45l-44 36l36 45zM188 651l-36 -45l-44 36l36 45zM240 542l37 46l43 -36l-36 -45zM130 534l37 46l44 -36l-37 -45zM480 60l15 -31l-20 -29h-37q-101 0 -192 41q-93 -41 -216 -41h-30l-20 29l25 31h32q81 0 144 15q-112 75 -112 180q0 80 53 141.5t117 61.5
q68 0 122 -61.5t54 -143.5q0 -103 -106 -177q60 -16 129 -16h42zM118 249q0 -99 128 -153q120 51 120 152q0 62 -39.5 106.5t-86.5 44.5q-45 0 -83.5 -44.5t-38.5 -105.5z" />
    <glyph glyph-name="uniFB73" unicode="&#x684;" horiz-adv-x="681" arabic-form="final" 
d="M681 0q-97 0 -152.5 45t-69.5 144q-165 -34 -260.5 -121t-95.5 -192q0 -75 50.5 -122t160.5 -47q115 0 222 44l22 -53q-111 -52 -249 -52q-69 0 -120.5 18.5t-79.5 51.5t-41.5 71.5t-13.5 84.5q0 137 126 243.5t330 130.5q-15 8 -43 24.5t-39.5 23l-34.5 19.5t-33 18
l-28 14t-28 12.5t-25 9t-25.5 7.5t-23.5 3.5t-25 1.5q-60 0 -107 -34l-22 51q55 43 126 43q56 0 114 -27t139.5 -78t137.5 -78l-7 -50l-30 -3l-54 -6q17 -81 58.5 -109t125.5 -28l15 -31zM353 29l48 -40l-39 -49l-48 39zM426 -126l-40 -49l-48 40l40 49z" />
    <glyph glyph-name="uniFB74" unicode="&#x684;" horiz-adv-x="679" arabic-form="initial" 
d="M218 441q58 0 121.5 -34t150.5 -96t145 -93l-9 -51l-24 -3q-67 -7 -150.5 -34.5t-149 -56t-148.5 -51t-154 -22.5l-20 29l25 31q82 0 164 25t186 64t197 59l-84 56t-79.5 51.5t-57.5 32.5t-63.5 27t-52.5 6q-56 0 -105 -37l-22 52q60 45 130 45zM339 -125l-40 -49l-48 39
l39 50zM275 -249l40 49l48 -39l-40 -50z" />
    <glyph glyph-name="uniFB75" unicode="&#x684;" horiz-adv-x="747" arabic-form="medial" 
d="M752 60l15 -31l-20 -29q-93 0 -160.5 46t-92.5 142q-54 -14 -121.5 -47t-118.5 -63.5t-120.5 -54t-133.5 -23.5l-20 29l25 31q64 0 130.5 23t117 52.5t125 60.5t147.5 43q-58 22 -123 60.5t-112 60t-95 21.5q-56 0 -105 -37l-21 53q59 44 129 44q44 0 93.5 -20.5t91 -48
t106 -62t127.5 -55.5l-8 -55l-38 -1q-10 0 -28 -2q27 -80 78 -108.5t132 -28.5zM420 -75l-40 -49l-48 39l39 50zM356 -199l40 49l48 -39l-40 -50z" />
    <glyph glyph-name="uniFB77" unicode="&#x683;" horiz-adv-x="681" arabic-form="final" 
d="M681 0q-97 0 -152.5 45t-69.5 144q-165 -34 -260.5 -121t-95.5 -192q0 -75 50.5 -122t160.5 -47q115 0 222 44l22 -53q-111 -52 -249 -52q-69 0 -120.5 18.5t-79.5 51.5t-41.5 71.5t-13.5 84.5q0 137 126 243.5t330 130.5q-15 8 -43 24.5t-39.5 23l-34.5 19.5t-33 18
l-28 14t-28 12.5t-25 9t-25.5 7.5t-23.5 3.5t-25 1.5q-60 0 -107 -34l-22 51q55 43 126 43q56 0 114 -27t139.5 -78t137.5 -78l-7 -50l-30 -3l-54 -6q17 -81 58.5 -109t125.5 -28l15 -31zM423 -105l-49 39l40 50l49 -40zM299 -114l-48 40l39 49l49 -39z" />
    <glyph glyph-name="uniFB78" unicode="&#x683;" horiz-adv-x="679" arabic-form="initial" 
d="M218 441q58 0 121.5 -34t150.5 -96t145 -93l-9 -51l-24 -3q-67 -7 -150.5 -34.5t-149 -56t-148.5 -51t-154 -22.5l-20 29l25 31q82 0 164 25t186 64t197 59l-84 56t-79.5 51.5t-57.5 32.5t-63.5 27t-52.5 6q-56 0 -105 -37l-22 52q60 45 130 45zM312 -136l40 50l49 -40
l-40 -49zM189 -144l39 49l49 -39l-40 -50z" />
    <glyph glyph-name="uniFB79" unicode="&#x683;" horiz-adv-x="747" arabic-form="medial" 
d="M752 60l15 -31l-20 -29q-93 0 -160.5 46t-92.5 142q-54 -14 -121.5 -47t-118.5 -63.5t-120.5 -54t-133.5 -23.5l-20 29l25 31q64 0 130.5 23t117 52.5t125 60.5t147.5 43q-58 22 -123 60.5t-112 60t-95 21.5q-56 0 -105 -37l-21 53q59 44 129 44q44 0 93.5 -20.5t91 -48
t106 -62t127.5 -55.5l-8 -55l-38 -1q-10 0 -28 -2q27 -80 78 -108.5t132 -28.5zM393 -86l40 50l49 -40l-40 -49zM270 -94l39 49l49 -39l-40 -50z" />
    <glyph glyph-name="uniFB7B" unicode="&#x686;" horiz-adv-x="681" arabic-form="final" 
d="M681 0q-97 0 -152.5 45t-69.5 144q-165 -34 -260.5 -121t-95.5 -192q0 -75 50.5 -122t160.5 -47q115 0 222 44l22 -53q-111 -52 -249 -52q-69 0 -120.5 18.5t-79.5 51.5t-41.5 71.5t-13.5 84.5q0 137 126 243.5t330 130.5q-15 8 -43 24.5t-39.5 23l-34.5 19.5t-33 18
l-28 14t-28 12.5t-25 9t-25.5 7.5t-23.5 3.5t-25 1.5q-60 0 -107 -34l-22 51q55 43 126 43q56 0 114 -27t139.5 -78t137.5 -78l-7 -50l-30 -3l-54 -6q17 -81 58.5 -109t125.5 -28l15 -31zM457 -19l-38 -46l-45 36l37 47zM257 -37l37 47l45 -37l-37 -46zM408 -117l-37 -47
l-46 37l37 47z" />
    <glyph glyph-name="uniFB7C" unicode="&#x686;" horiz-adv-x="679" arabic-form="initial" 
d="M218 441q58 0 121.5 -34t150.5 -96t145 -93l-9 -51l-24 -3q-67 -7 -150.5 -34.5t-149 -56t-148.5 -51t-154 -22.5l-20 29l25 31q82 0 164 25t186 64t197 59l-84 56t-79.5 51.5t-57.5 32.5t-63.5 27t-52.5 6q-56 0 -105 -37l-22 52q60 45 130 45zM312 -138l37 47l46 -37
l-38 -47zM232 -100l45 -36l-37 -47l-45 37zM263 -236l37 46l46 -37l-37 -46z" />
    <glyph glyph-name="uniFB7D" unicode="&#x686;" horiz-adv-x="747" arabic-form="medial" 
d="M752 60l15 -31l-20 -29q-93 0 -160.5 46t-92.5 142q-54 -14 -121.5 -47t-118.5 -63.5t-120.5 -54t-133.5 -23.5l-20 29l25 31q64 0 130.5 23t117 52.5t125 60.5t147.5 43q-58 22 -123 60.5t-112 60t-95 21.5q-56 0 -105 -37l-21 53q59 44 129 44q44 0 93.5 -20.5t91 -48
t106 -62t127.5 -55.5l-8 -55l-38 -1q-10 0 -28 -2q27 -80 78 -108.5t132 -28.5zM393 -88l37 47l46 -37l-38 -47zM313 -50l45 -36l-37 -47l-45 37zM344 -186l37 46l46 -37l-37 -46z" />
    <glyph glyph-name="uniFB7F" unicode="&#x687;" horiz-adv-x="681" arabic-form="final" 
d="M681 0q-97 0 -152.5 45t-69.5 144q-165 -34 -260.5 -121t-95.5 -192q0 -75 50.5 -122t160.5 -47q115 0 222 44l22 -53q-111 -52 -249 -52q-69 0 -120.5 18.5t-79.5 51.5t-41.5 71.5t-13.5 84.5q0 137 126 243.5t330 130.5q-15 8 -43 24.5t-39.5 23l-34.5 19.5t-33 18
l-28 14t-28 12.5t-25 9t-25.5 7.5t-23.5 3.5t-25 1.5q-60 0 -107 -34l-22 51q55 43 126 43q56 0 114 -27t139.5 -78t137.5 -78l-7 -50l-30 -3l-54 -6q17 -81 58.5 -109t125.5 -28l15 -31zM405 37l44 -36l-36 -45l-44 36zM295 29l44 -36l-36 -45l-44 36zM471 -106l-36 -45
l-44 36l37 45zM362 -114l-37 -45l-44 36l37 45z" />
    <glyph glyph-name="uniFB80" unicode="&#x687;" horiz-adv-x="679" arabic-form="initial" 
d="M218 441q58 0 121.5 -34t150.5 -96t145 -93l-9 -51l-24 -3q-67 -7 -150.5 -34.5t-149 -56t-148.5 -51t-154 -22.5l-20 29l25 31q82 0 164 25t186 64t197 59l-84 56t-79.5 51.5t-57.5 32.5t-63.5 27t-52.5 6q-56 0 -105 -37l-22 52q60 45 130 45zM387 -101l-36 -45l-44 36
l36 45zM277 -109l-36 -45l-44 36l36 45zM329 -218l37 45l43 -36l-36 -45zM219 -226l37 45l44 -36l-37 -45z" />
    <glyph glyph-name="uniFB81" unicode="&#x687;" horiz-adv-x="747" arabic-form="medial" 
d="M752 60l15 -31l-20 -29q-93 0 -160.5 46t-92.5 142q-54 -14 -121.5 -47t-118.5 -63.5t-120.5 -54t-133.5 -23.5l-20 29l25 31q64 0 130.5 23t117 52.5t125 60.5t147.5 43q-58 22 -123 60.5t-112 60t-95 21.5q-56 0 -105 -37l-21 53q59 44 129 44q44 0 93.5 -20.5t91 -48
t106 -62t127.5 -55.5l-8 -55l-38 -1q-10 0 -28 -2q27 -80 78 -108.5t132 -28.5zM468 -51l-36 -45l-44 36l36 45zM358 -59l-36 -45l-44 36l36 45zM410 -168l37 45l43 -36l-36 -45zM300 -176l37 45l44 -36l-37 -45z" />
    <glyph glyph-name="uniFB83" unicode="&#x68d;" horiz-adv-x="518" arabic-form="final" 
d="M523 60l15 -31l-20 -29q-84 0 -124 66q-77 -79 -213 -79q-75 0 -154 25l20 59q68 -22 138 -22q116 0 188 61l-161 363l61 28l132 -339q22 -58 46 -80t72 -22zM242 -136l40 50l49 -40l-40 -49zM119 -144l39 49l49 -39l-40 -50z" />
    <glyph glyph-name="uniFB85" unicode="&#x68c;" horiz-adv-x="518" arabic-form="final" 
d="M287 650l-40 -49l-49 39l40 50zM163 642l-40 -50l-48 40l40 49zM523 60l15 -31l-20 -29q-84 0 -124 66q-77 -79 -213 -79q-75 0 -154 25l20 59q68 -22 138 -22q116 0 188 61l-161 363l61 28l132 -339q22 -58 46 -80t72 -22z" />
    <glyph glyph-name="uniFB87" unicode="&#x68e;" horiz-adv-x="518" arabic-form="final" 
d="M226 745l-37 -47l-45 37l37 47zM257 608l-45 37l38 46l45 -36zM178 647l-38 -47l-45 37l37 46zM523 60l15 -31l-20 -29q-84 0 -124 66q-77 -79 -213 -79q-75 0 -154 25l20 59q68 -22 138 -22q116 0 188 61l-161 363l61 28l132 -339q22 -58 46 -80t72 -22z" />
    <glyph glyph-name="uniFB89" unicode="&#x688;" horiz-adv-x="518" arabic-form="final" 
d="M316 635q0 -24 -23 -46t-68 -22h-133l3 32h23q4 9 14 25l-8 146h32v-109q44 59 92 59q31 0 49.5 -23t18.5 -62zM144 599h66q54 0 79 25q0 63 -44 63q-51 0 -101 -88zM523 60l15 -31l-20 -29q-84 0 -124 66q-77 -79 -213 -79q-75 0 -154 25l20 59q68 -22 138 -22
q116 0 188 61l-161 363l61 28l132 -339q22 -58 46 -80t72 -22z" />
    <glyph glyph-name="uniFB8B" unicode="&#x698;" horiz-adv-x="420" arabic-form="final" 
d="M248 570l-37 -47l-45 37l37 47zM279 433l-45 37l38 46l45 -36zM200 472l-38 -47l-45 37l37 46zM440 29l-20 -29q-59 0 -88 22q-84 -159 -355 -279l-26 60q251 105 344 248q-34 123 -83 234l60 27q14 -40 54 -177q12 -46 33 -60.5t66 -14.5z" />
    <glyph glyph-name="uniFB8D" unicode="&#x691;" horiz-adv-x="420" arabic-form="final" 
d="M338 460q0 -24 -23 -46t-68 -22h-133l3 32h23q4 9 14 25l-8 146h32v-109q44 59 92 59q31 0 49.5 -23t18.5 -62zM166 424h66q54 0 79 25q0 63 -44 63q-51 0 -101 -88zM440 29l-20 -29q-59 0 -88 22q-84 -159 -355 -279l-26 60q251 105 344 248q-34 123 -83 234l60 27
q14 -40 54 -177q12 -46 33 -60.5t66 -14.5z" />
    <glyph glyph-name="uniFB8F" unicode="&#x6a9;" horiz-adv-x="960" arabic-form="final" 
d="M965 60l15 -30l-20 -30q-74 0 -125 33t-114 114q-18 -35 -44 -61.5t-69.5 -50t-113 -36t-162.5 -12.5q-147 0 -213 46t-66 143q0 76 36 153l41 -14q-25 -64 -25 -132q0 -72 53.5 -104t178.5 -32q281 0 351 139l-207 261l11 53l392 255l-3 -61l-349 -225l163 -205
q76 -95 112 -132.5t71.5 -54.5t86.5 -17z" />
    <glyph glyph-name="uniFB90" unicode="&#x6a9;" horiz-adv-x="460" arabic-form="initial" 
d="M407 755l-4 -63l-342 -222q258 -177 291 -354q-31 -50 -124.5 -83t-227.5 -33l-20 29l25 31q196 0 288 67q-26 143 -290 319l12 54z" />
    <glyph glyph-name="uniFB91" unicode="&#x6a9;" horiz-adv-x="533" arabic-form="medial" 
d="M538 60l15 -30l-20 -30q-73 0 -124 32.5t-115 114.5q-37 -69 -104.5 -108t-189.5 -39l-20 29l25 31q193 0 257 127l-208 260l12 53l392 255l-4 -61l-349 -226l164 -204q76 -95 112 -132.5t71 -54.5t86 -17z" />
    <glyph glyph-name="uniFB93" unicode="&#x6af;" horiz-adv-x="960" arabic-form="final" 
d="M885 875l-2 -40l-385 -252l10 43zM965 60l15 -30l-20 -30q-74 0 -125 33t-114 114q-18 -35 -44 -61.5t-69.5 -50t-113 -36t-162.5 -12.5q-147 0 -213 46t-66 143q0 76 36 153l41 -14q-25 -64 -25 -132q0 -72 53.5 -104t178.5 -32q281 0 351 139l-207 261l11 53l392 255
l-3 -61l-349 -225l163 -205q76 -95 112 -132.5t71.5 -54.5t86.5 -17z" />
    <glyph glyph-name="uniFB94" unicode="&#x6af;" horiz-adv-x="460" arabic-form="initial" 
d="M407 875l-3 -40l-384 -252l10 43zM3 446l12 54l392 255l-4 -63l-342 -222q258 -177 291 -354q-31 -50 -124.5 -83t-227.5 -33l-20 29l25 31q196 0 288 67q-26 143 -290 319z" />
    <glyph glyph-name="uniFB95" unicode="&#x6af;" horiz-adv-x="533" arabic-form="medial" 
d="M453 875l-2 -40l-385 -252l10 43zM538 60l15 -30l-20 -30q-73 0 -124 32.5t-115 114.5q-37 -69 -104.5 -108t-189.5 -39l-20 29l25 31q193 0 257 127l-208 260l12 53l392 255l-4 -61l-349 -226l164 -204q76 -95 112 -132.5t71 -54.5t86 -17z" />
    <glyph glyph-name="uniFB97" unicode="&#x6b3;" horiz-adv-x="960" arabic-form="final" 
d="M885 875l-2 -40l-385 -252l10 43zM965 60l15 -30l-20 -30q-74 0 -125 33t-114 114q-18 -35 -44 -61.5t-69.5 -50t-113 -36t-162.5 -12.5q-147 0 -213 46t-66 143q0 76 36 153l41 -14q-25 -64 -25 -132q0 -72 53.5 -104t178.5 -32q281 0 351 139l-207 261l11 53l392 255
l-3 -61l-349 -225l163 -205q76 -95 112 -132.5t71.5 -54.5t86.5 -17zM405 -125l-39 -49l-48 39l39 50zM342 -249l40 49l48 -39l-40 -50z" />
    <glyph glyph-name="uniFB98" unicode="&#x6b3;" horiz-adv-x="460" arabic-form="initial" 
d="M407 875l-3 -40l-384 -252l10 43zM3 446l12 54l392 255l-4 -63l-342 -222q258 -177 291 -354q-31 -50 -124.5 -83t-227.5 -33l-20 29l25 31q196 0 288 67q-26 143 -290 319zM167 -125l-40 -49l-48 39l39 50zM103 -249l40 49l48 -39l-40 -50z" />
    <glyph glyph-name="uniFB99" unicode="&#x6b3;" horiz-adv-x="533" arabic-form="medial" 
d="M453 875l-2 -40l-385 -252l10 43zM538 60l15 -30l-20 -30q-73 0 -124 32.5t-115 114.5q-37 -69 -104.5 -108t-189.5 -39l-20 29l25 31q193 0 257 127l-208 260l12 53l392 255l-4 -61l-349 -226l164 -204q76 -95 112 -132.5t71 -54.5t86 -17zM198 -125l-40 -49l-48 39
l39 50zM134 -249l40 49l48 -39l-40 -50z" />
    <glyph glyph-name="uniFB9B" unicode="&#x6b1;" horiz-adv-x="960" arabic-form="final" 
d="M498 583l10 43l377 249l-2 -40zM643 811l-40 -49l-49 39l40 50zM519 803l-40 -50l-48 40l40 49zM965 60l15 -30l-20 -30q-74 0 -125 33t-114 114q-18 -35 -44 -61.5t-69.5 -50t-113 -36t-162.5 -12.5q-147 0 -213 46t-66 143q0 76 36 153l41 -14q-25 -64 -25 -132
q0 -72 53.5 -104t178.5 -32q281 0 351 139l-207 261l11 53l392 255l-3 -61l-349 -225l163 -205q76 -95 112 -132.5t71.5 -54.5t86.5 -17z" />
    <glyph glyph-name="uniFB9C" unicode="&#x6b1;" horiz-adv-x="460" arabic-form="initial" 
d="M20 583l10 43l377 249l-3 -40zM158 811l-40 -49l-49 39l40 50zM34 803l-40 -50l-48 40l40 49zM3 446l12 54l392 255l-4 -63l-342 -222q258 -177 291 -354q-31 -50 -124.5 -83t-227.5 -33l-20 29l25 31q196 0 288 67q-26 143 -290 319z" />
    <glyph glyph-name="uniFB9D" unicode="&#x6b1;" horiz-adv-x="533" arabic-form="medial" 
d="M453 875l-2 -40l-385 -252l10 43zM167 811l-40 -49l-49 39l40 50zM43 803l-40 -50l-48 40l40 49zM538 60l15 -30l-20 -30q-73 0 -124 32.5t-115 114.5q-37 -69 -104.5 -108t-189.5 -39l-20 29l25 31q193 0 257 127l-208 260l12 53l392 255l-4 -61l-349 -226l164 -204
q76 -95 112 -132.5t71 -54.5t86 -17z" />
    <glyph glyph-name="uniFB9F" unicode="&#x6ba;" horiz-adv-x="693" arabic-form="final" 
d="M713 29l-20 -29q-53 0 -87 31q2 -24 2 -48q0 -99 -89.5 -164t-216.5 -65q-128 0 -188.5 61t-60.5 167q0 93 42 184l41 -13q-31 -79 -31 -164q0 -175 203 -175q78 0 142.5 31t106.5 83q6 74 -9 146.5t-31.5 109.5t-47.5 96l59 25q39 -101 65 -179q15 -38 40.5 -52
t64.5 -14z" />
    <glyph glyph-name="uniFBA1" unicode="&#x6bb;" horiz-adv-x="693" arabic-form="final" 
d="M428 374q0 -24 -23 -46t-68 -22h-133l3 32h23q4 9 14 25l-8 146h32v-109q44 59 92 59q31 0 49.5 -23t18.5 -62zM256 338h66q54 0 79 25q0 63 -44 63q-51 0 -101 -88zM713 29l-20 -29q-53 0 -87 31q2 -24 2 -48q0 -99 -89.5 -164t-216.5 -65q-128 0 -188.5 61t-60.5 167
q0 93 42 184l41 -13q-31 -79 -31 -164q0 -175 203 -175q78 0 142.5 31t106.5 83q6 74 -9 146.5t-31.5 109.5t-47.5 96l59 25q39 -101 65 -179q15 -38 40.5 -52t64.5 -14z" />
    <glyph glyph-name="uniFBA2" unicode="&#x6bb;" horiz-adv-x="264" arabic-form="initial" 
d="M159 608q31 0 49.5 -23t18.5 -62q0 -24 -23 -46t-68 -22h-133l3 32h23q4 9 14 25l-8 146h32v-109q44 59 92 59zM121 487q54 0 79 25q0 63 -44 63q-51 0 -101 -88h66zM97 375l60 21q44 -141 44 -267q0 -57 -57 -93t-144 -36l-20 30l25 30q91 0 145 49q0 119 -53 266z" />
    <glyph glyph-name="uniFBA3" unicode="&#x6bb;" horiz-adv-x="307" arabic-form="medial" 
d="M252 452q0 -24 -23 -46t-68 -22h-133l3 32h23q4 9 14 25l-8 146h32v-109q44 59 92 59q31 0 49.5 -23t18.5 -62zM80 416h66q54 0 79 25q0 63 -44 63q-51 0 -101 -88zM312 60l15 -31l-20 -29q-101 0 -146 63q-49 -63 -162 -63l-19 29l24 31q98 0 130 48l-26 213h61l16 -205
q37 -56 127 -56z" />
    <glyph glyph-name="uniFBA5" unicode="&#x6c0;" horiz-adv-x="498" arabic-form="final" 
d="M262 571l-1 32l65 10q-47 34 -47 75q0 33 23.5 55t67.5 22q33 0 60 -16l-10 -33q-28 15 -53 15q-28 0 -40.5 -13t-12.5 -31q0 -35 50 -68l90 14l2 -31zM503 60l15 -32l-20 -28h-14q-104 0 -136 89q-66 -52 -166 -52q-65 0 -110 33.5t-45 76.5q0 88 89 154t214 91l-4 102
l54 7l10 -327q2 -64 25 -89t75 -25h13zM72 145q11 -22 42 -36.5t77 -14.5q86 0 148 45l-7 196q-106 -20 -181 -69t-79 -121z" />
    <glyph glyph-name="uniFBA7" unicode="&#x6c1;" horiz-adv-x="557" arabic-form="final" 
d="M80 -38l-53 11q41 157 92 225.5t120 68.5q44 0 75 -21.5t50.5 -51.5t41.5 -60.5t61 -52t95 -21.5l15 -31l-20 -29q-54 0 -95 15t-62.5 38t-41.5 49.5t-33 49.5t-35 38t-51 15q-54 0 -88 -58t-71 -185z" />
    <glyph glyph-name="uniFBA8" unicode="&#x6c1;" horiz-adv-x="264" arabic-form="initial" 
d="M0 0l-20 30l25 30q91 0 145 49q0 119 -53 266l60 21q44 -141 44 -267q0 -57 -57 -93t-144 -36zM102 -254l-55 14q8 112 73 198l32 -6q-46 -104 -50 -206z" />
    <glyph glyph-name="uniFBA9" unicode="&#x6c1;" horiz-adv-x="563" arabic-form="medial" 
d="M568 60l15 -31l-20 -29h-26q-158 0 -158 -181q0 -48 10 -102l-43 -17q-157 159 -165 354v21q-50 -75 -154 -75h-27l-20 29l25 31h28q65 0 109 46.5t74 158.5l12 43l62 -14q-44 -145 -44 -225q0 -77 18.5 -140t73.5 -142q-1 11 -1 33q-6 240 206 240h25z" />
    <glyph glyph-name="uniFBAB" unicode="&#x6be;" horiz-adv-x="569" arabic-form="final" 
d="M589 29l-20 -29h-132q82 -49 82 -151q0 -46 -36.5 -77t-95.5 -31q-90 0 -151 72.5t-65 186.5q-85 3 -138 30l26 53q45 -20 112 -23q6 125 77 224t153 99q54 0 86.5 -41.5t32.5 -107.5q0 -51 -27 -98t-76 -76h158zM392 322q-59 0 -113 -77.5t-63 -184.5h65q84 0 136 47
t52 116q0 43 -21 71t-56 28zM381 -200q36 0 60 11.5t31 24.5q0 76 -46.5 120t-116.5 44h-93q6 -93 50.5 -146.5t114.5 -53.5z" />
    <glyph glyph-name="uniFBAC" unicode="&#x6be;" horiz-adv-x="631" arabic-form="initial" 
d="M132 527q234 -138 335 -235t101 -200q0 -41 -47 -73t-118 -32q-101 0 -187 47q-84 -34 -193 -34h-23l-20 29l25 31h37q64 0 117 12q-95 79 -95 186q0 61 36.5 108.5t93.5 57.5q-41 25 -91 53zM107 256q0 -48 30.5 -91t82.5 -72q116 52 116 160q0 52 -33 88.5t-81 36.5
q-50 0 -82.5 -35t-32.5 -87zM402 45q82 0 122 34q-3 104 -152 223q7 -21 7 -46q0 -119 -103 -189q61 -22 126 -22z" />
    <glyph glyph-name="uniFBAD" unicode="&#x6be;" horiz-adv-x="484" arabic-form="medial" 
d="M504 29l-20 -29h-132q82 -49 82 -151q0 -46 -36.5 -77t-96.5 -31q-89 0 -150 72.5t-65 186.5h-86l-20 29l25 31h81q6 125 77 224t153 99q54 0 86.5 -41.5t32.5 -107.5q0 -51 -27 -98t-76 -76h158zM307 322q-59 0 -113 -77.5t-63 -184.5h64q84 0 136.5 47t52.5 116
q0 43 -21 71t-56 28zM296 -200q36 0 60 11.5t31 24.5q0 76 -46.5 120t-116.5 44h-19h-74q6 -93 50.5 -146.5t114.5 -53.5z" />
    <glyph glyph-name="uniFBAF" unicode="&#x6d2;" horiz-adv-x="749" arabic-form="final" 
d="M713 -255h-507q-84 0 -126 29.5t-42 79.5q0 36 24 71.5t71.5 66.5t130 50t187.5 19h303l15 -32l-20 -29h-310q-174 0 -262.5 -42.5t-88.5 -96.5q0 -29 24 -43.5t82 -14.5h538z" />
    <glyph glyph-name="uniFBB1" unicode="&#x6d3;" horiz-adv-x="749" arabic-form="final" 
d="M334 246l2 -31l-194 -31l-1 32l65 10q-47 34 -47 75q0 33 23.5 55t67.5 22q33 0 60 -16l-10 -33q-28 15 -53 15q-28 0 -40.5 -13t-12.5 -31q0 -35 50 -68zM713 -255h-507q-84 0 -126 29.5t-42 79.5q0 36 24 71.5t71.5 66.5t130 50t187.5 19h303l15 -32l-20 -29h-310
q-174 0 -262.5 -42.5t-88.5 -96.5q0 -29 24 -43.5t82 -14.5h538z" />
    <glyph glyph-name="uniFBD4" unicode="&#x6ad;" horiz-adv-x="814" arabic-form="final" 
d="M714 984l-37 -47l-45 37l37 47zM745 847l-45 37l38 46l45 -36zM666 886l-38 -47l-45 37l37 46zM820 60l14 -30l-20 -30q-79 0 -128 81q-66 -47 -149 -70.5t-205 -23.5q-147 0 -213 46t-66 143q0 76 36 153l41 -14q-25 -64 -25 -132q0 -72 53.5 -104t178.5 -32
q204 0 331 86l-8 611l59 6v-586q0 -104 101 -104zM303 276l-7 38q107 0 165 25q-1 18 -41.5 43t-91.5 40l8 40l159 93l-2 -44l-119 -67q49 -20 83.5 -47t34.5 -53q0 -34 -56 -51t-133 -17z" />
    <glyph glyph-name="uniFBD5" unicode="&#x6ad;" horiz-adv-x="460" arabic-form="initial" 
d="M71 848l-37 -47l-45 37l37 47zM102 711l-45 37l38 46l45 -36zM23 750l-38 -47l-45 37l37 46zM407 755l-4 -63l-342 -222q258 -177 291 -354q-31 -50 -124.5 -83t-227.5 -33l-20 29l25 31q196 0 288 67q-26 143 -290 319l12 54z" />
    <glyph glyph-name="uniFBD6" unicode="&#x6ad;" horiz-adv-x="533" arabic-form="medial" 
d="M112 848l-37 -47l-45 37l37 47zM143 711l-45 37l38 46l45 -36zM64 750l-38 -47l-45 37l37 46zM538 60l15 -30l-20 -30q-73 0 -124 32.5t-115 114.5q-37 -69 -104.5 -108t-189.5 -39l-20 29l25 31q193 0 257 127l-208 260l12 53l392 255l-4 -61l-349 -226l164 -204
q76 -95 112 -132.5t71 -54.5t86 -17z" />
    <glyph glyph-name="uniFBD8" unicode="&#x6c7;" horiz-adv-x="521" arabic-form="final" 
d="M184 406l-14 29q52 19 86 44q-67 24 -67 78q0 35 22.5 55.5t52.5 20.5q36 0 55 -22t19 -55q0 -42 -41 -82.5t-113 -67.5zM221 556q0 -36 60 -55q25 27 25 53q0 19 -10.5 31.5t-31.5 12.5q-19 0 -31 -11t-12 -31zM541 29l-20 -29h-92q-38 -200 -354 -257l-22 59
q275 47 323 198h-66q-110 0 -171.5 46.5t-61.5 120.5q0 76 52.5 136t116.5 60q71 0 129 -81.5t59 -221.5h93zM302 60h83q-3 118 -46 180.5t-95 62.5q-44 0 -81.5 -41t-37.5 -92q0 -52 44.5 -81t132.5 -29z" />
    <glyph glyph-name="uniFBDA" unicode="&#x6c6;" horiz-adv-x="521" arabic-form="final" 
d="M271 411h-34l-77 140l28 12l66 -113l66 113l28 -12zM541 29l-20 -29h-92q-38 -200 -354 -257l-22 59q275 47 323 198h-66q-110 0 -171.5 46.5t-61.5 120.5q0 76 52.5 136t116.5 60q71 0 129 -81.5t59 -221.5h93zM302 60h83q-3 118 -46 180.5t-95 62.5q-44 0 -81.5 -41
t-37.5 -92q0 -52 44.5 -81t132.5 -29z" />
    <glyph glyph-name="uniFBDC" unicode="&#x6c8;" horiz-adv-x="521" arabic-form="final" 
d="M274 423h-35l-6 159l35 4zM541 29l-20 -29h-92q-38 -200 -354 -257l-22 59q275 47 323 198h-66q-110 0 -171.5 46.5t-61.5 120.5q0 76 52.5 136t116.5 60q71 0 129 -81.5t59 -221.5h93zM302 60h83q-3 118 -46 180.5t-95 62.5q-44 0 -81.5 -41t-37.5 -92q0 -52 44.5 -81
t132.5 -29z" />
    <glyph glyph-name="uniFBDF" unicode="&#x6cb;" horiz-adv-x="521" arabic-form="final" 
d="M277 595l-37 -47l-45 37l37 47zM308 458l-45 37l38 46l45 -36zM229 497l-38 -47l-45 37l37 46zM541 29l-20 -29h-92q-38 -200 -354 -257l-22 59q275 47 323 198h-66q-110 0 -171.5 46.5t-61.5 120.5q0 76 52.5 136t116.5 60q71 0 129 -81.5t59 -221.5h93zM302 60h83
q-3 118 -46 180.5t-95 62.5q-44 0 -81.5 -41t-37.5 -92q0 -52 44.5 -81t132.5 -29z" />
    <glyph glyph-name="uniFBE1" unicode="&#x6c5;" horiz-adv-x="521" arabic-form="final" 
d="M541 29l-20 -29h-92q-38 -200 -354 -257l-22 59q143 24 221 74l-183 4l-21 40l250 -10q40 38 56 90h-66q-110 0 -171.5 46.5t-61.5 120.5q0 76 52.5 136t116.5 60q71 0 129 -81.5t59 -221.5h93zM302 60h83q-3 118 -46 180.5t-95 62.5q-44 0 -81.5 -41t-37.5 -92
q0 -52 44.5 -81t132.5 -29z" />
    <glyph glyph-name="uniFBE3" unicode="&#x6c9;" horiz-adv-x="521" arabic-form="final" 
d="M254 533l-66 -112l-28 12l77 140h34l77 -140l-28 -12zM541 29l-20 -29h-92q-38 -200 -354 -257l-22 59q275 47 323 198h-66q-110 0 -171.5 46.5t-61.5 120.5q0 76 52.5 136t116.5 60q71 0 129 -81.5t59 -221.5h93zM302 60h83q-3 118 -46 180.5t-95 62.5q-44 0 -81.5 -41
t-37.5 -92q0 -52 44.5 -81t132.5 -29z" />
    <glyph glyph-name="uniFBE5" unicode="&#x6d0;" horiz-adv-x="712" arabic-form="final" 
d="M732 29l-20 -29q-54 0 -114 26q28 -33 28 -81t-93 -97.5t-231 -49.5q-128 0 -188.5 61t-60.5 168q0 92 42 183l41 -12q-31 -81 -31 -164q0 -176 203 -176q105 0 176.5 27t98.5 53q-2 52 -42.5 84.5t-152.5 61.5l32 49q48 -13 113 -34.5t103 -30t82 -8.5zM348 -316
l-40 -49l-48 39l39 50zM284 -440l40 49l48 -39l-40 -50z" />
    <glyph glyph-name="uniFBE6" unicode="&#x6d0;" horiz-adv-x="264" arabic-form="initial" 
d="M0 0l-20 30l25 30q91 0 145 49q0 119 -53 266l60 21q44 -141 44 -267q0 -57 -57 -93t-144 -36zM119 -174l-48 39l39 50l49 -40zM143 -289l-48 40l40 49l48 -39z" />
    <glyph glyph-name="uniFBE7" unicode="&#x6d0;" horiz-adv-x="307" arabic-form="medial" 
d="M312 60l15 -31l-20 -29q-101 0 -146 63q-49 -63 -162 -63l-19 29l24 31q98 0 130 48l-26 213h61l16 -205q37 -56 127 -56zM204 -125l-40 -49l-48 39l39 50zM140 -249l40 49l48 -39l-40 -50z" />
    <glyph glyph-name="uniFBE8" unicode="&#x649;" horiz-adv-x="264" arabic-form="initial" 
d="M0 0l-20 30l25 30q91 0 145 49q0 119 -53 266l60 21q44 -141 44 -267q0 -57 -57 -93t-144 -36z" />
    <glyph glyph-name="uniFBE9" unicode="&#x649;" horiz-adv-x="307" arabic-form="medial" 
d="M312 60l15 -31l-20 -29q-101 0 -146 63q-49 -63 -162 -63l-19 29l24 31q98 0 130 48l-26 213h61l16 -205q37 -56 127 -56z" />
    <glyph glyph-name="uniFBFD" unicode="&#x6cc;" horiz-adv-x="712" arabic-form="final" 
d="M732 29l-20 -29q-54 0 -114 26q28 -33 28 -81t-93 -97.5t-231 -49.5q-128 0 -188.5 61t-60.5 168q0 92 42 183l41 -12q-31 -81 -31 -164q0 -176 203 -176q105 0 176.5 27t98.5 53q-2 52 -42.5 84.5t-152.5 61.5l32 49q48 -13 113 -34.5t103 -30t82 -8.5z" />
    <glyph glyph-name="uniFBFE" unicode="&#x6cc;" horiz-adv-x="264" arabic-form="initial" 
d="M0 0l-20 30l25 30q91 0 145 49q0 119 -53 266l60 21q44 -141 44 -267q0 -57 -57 -93t-144 -36zM181 -175l-49 39l40 50l49 -40zM57 -184l-48 40l39 49l49 -39z" />
    <glyph glyph-name="uniFBFF" unicode="&#x6cc;" horiz-adv-x="307" arabic-form="medial" 
d="M312 60l15 -31l-20 -29q-101 0 -146 63q-49 -63 -162 -63l-19 29l24 31q98 0 130 48l-26 213h61l16 -205q37 -56 127 -56zM177 -136l40 50l49 -40l-40 -49zM54 -144l39 49l49 -39l-40 -50z" />
    <glyph glyph-name="uniFC5B" unicode="&#xfc5b;" horiz-adv-x="463" arabic-form="isolated" 
d="M118 915l35 4l6 -163h-35zM150 582l-56 47l44 55l56 -46zM187 -13q-93 0 -160 21l18 60q71 -19 143 -19q123 0 175 65q-2 170 -196 344l47 44q196 -196 196 -364q0 -52 -38 -88t-86 -49.5t-99 -13.5z" />
    <glyph glyph-name="uniFC5C" unicode="&#xfc5c;" horiz-adv-x="398" arabic-form="isolated" 
d="M186 584l35 4l6 -163h-35zM-23 -257l-26 60q113 46 203.5 112.5t132.5 115.5q1 64 -18.5 127.5t-65.5 162.5l59 27q26 -68 39 -106t23.5 -89t10.5 -96q0 -62 -108.5 -157.5t-249.5 -156.5z" />
    <glyph glyph-name="uniFC61" unicode="&#xfc61;" arabic-form="isolated" 
d="M63 756l-14 30q55 20 86 43q-67 25 -67 79q0 35 22 55t53 20q36 0 55 -21.5t19 -54.5q0 -42 -41 -83t-113 -68zM100 906q0 -36 61 -54q24 27 24 53q0 19 -11 31.5t-32 12.5q-18 0 -30 -11.5t-12 -31.5zM233 745q17 -41 17 -80q0 -34 -18 -52.5t-47 -18.5q-36 0 -52 30
q-16 -32 -54 -32q-26 0 -44.5 17.5t-18.5 52.5q0 27 11 60l30 -7q-7 -17 -7 -46q0 -41 32 -41q16 0 26 12.5t10 32.5v40h31v-42q0 -41 33 -41q34 0 34 45q0 31 -13 60z" />
    <glyph glyph-name="uniFC63" unicode="&#xfc63;" arabic-form="isolated" 
d="M153 774h-35l-6 159l35 4zM233 745q17 -41 17 -80q0 -34 -18 -52.5t-47 -18.5q-36 0 -52 30q-16 -32 -54 -32q-26 0 -44.5 17.5t-18.5 52.5q0 27 11 60l30 -7q-7 -17 -7 -46q0 -41 32 -41q16 0 26 12.5t10 32.5v40h31v-42q0 -41 33 -41q34 0 34 45q0 31 -13 60z" />
    <glyph glyph-name="uniFD3C" unicode="&#xfd3c;" horiz-adv-x="229" arabic-form="final" 
d="M-4 817l2 32l212 41l-2 -32zM-4 738l2 31l212 41l-2 -32zM81 170l-7 514l58 6v-514q0 -64 23.5 -90t79.5 -26l14 -31l-20 -29q-145 0 -148 170z" />
    <glyph glyph-name="uniFD3D" unicode="&#xfd3d;" horiz-adv-x="215" arabic-form="isolated" 
d="M-11 760l2 32l212 41l-2 -32zM-11 681l2 31l212 41l-2 -32zM135 3l-53 -6l-19 628l62 7z" />
    <glyph glyph-name="uniFE70" unicode="&#xfe70;" horiz-adv-x="600" arabic-form="isolated" 
d="M36 656l2 32l212 41l-2 -32zM36 577l2 31l212 41l-2 -32z" />
    <glyph glyph-name="uniFE72" unicode="&#xfe72;" horiz-adv-x="600" arabic-form="isolated" 
d="M240 795q35 0 54 -22.5t19 -52.5q0 -41 -38 -81.5t-102 -68.5l-31 13q-2 64 -27 64q-19 0 -43 -27l-19 22q33 38 61 38q24 0 39.5 -19.5t17.5 -56.5q38 18 63 39q-68 25 -68 78q0 33 21.5 53.5t52.5 20.5zM258 665q24 27 24 52q0 17 -11 29.5t-31 12.5q-18 0 -30 -11.5
t-12 -28.5q0 -36 60 -54z" />
    <glyph glyph-name="uniFE74" unicode="&#xfe74;" horiz-adv-x="600" arabic-form="isolated" 
d="M36 -127l2 32l212 41l-2 -32zM37 -203l1 31l212 41l-1 -31z" />
    <glyph glyph-name="uniFE76" unicode="&#xfe76;" horiz-adv-x="600" arabic-form="isolated" 
d="M36 589l2 31l212 41l-2 -32z" />
    <glyph glyph-name="uniFE78" unicode="&#xfe78;" horiz-adv-x="600" arabic-form="isolated" 
d="M111 802q36 0 55 -22t19 -55q0 -42 -41 -82.5t-113 -67.5l-14 29q52 19 86 44q-67 24 -67 78q0 35 22.5 55.5t52.5 20.5zM128 670q25 27 25 53q0 19 -10.5 31.5t-31.5 12.5q-19 0 -31 -11t-12 -31q0 -36 60 -55z" />
    <glyph glyph-name="uniFE7C" unicode="&#xfe7c;" horiz-adv-x="600" arabic-form="isolated" 
d="M233 745q17 -41 17 -80q0 -34 -18 -52.5t-47 -18.5q-36 0 -52 30q-16 -32 -54 -32q-26 0 -44.5 17.5t-18.5 52.5q0 27 11 60l30 -7q-7 -17 -7 -46q0 -41 32 -41q16 0 26 12.5t10 32.5v40h31v-42q0 -41 33 -41q34 0 34 45q0 31 -13 60z" />
    <glyph glyph-name="uniFE7E" unicode="&#xfe7e;" horiz-adv-x="600" arabic-form="isolated" 
d="M194 673q0 -41 -27 -66.5t-67 -25.5t-67 25.5t-27 66.5t27 66.5t67 25.5t67 -25.5t27 -66.5zM159 673q0 26 -16 41.5t-43 15.5t-43 -15.5t-16 -41.5q0 -25 16 -41t43 -16t43 15.5t16 41.5z" />
    <glyph glyph-name="uniFE82" unicode="&#x622;" horiz-adv-x="229" arabic-form="final" 
d="M25 760l-31 10q10 30 31 46.5t46 16.5q20 0 43.5 -10t38.5 -10q23 0 55 18l16 -26q-37 -30 -78 -30q-17 0 -41 9t-36 9q-28 0 -44 -33zM81 170l-7 514l58 6v-514q0 -64 23.5 -90t79.5 -26l14 -31l-20 -29q-145 0 -148 170z" />
    <glyph glyph-name="uniFE84" unicode="&#x623;" horiz-adv-x="229" arabic-form="final" 
d="M200 818l2 -31l-194 -31l-1 32l65 10q-47 34 -47 75q0 33 23.5 55t67.5 22q33 0 60 -16l-10 -33q-29 15 -53 15q-28 0 -40.5 -13t-12.5 -31q0 -35 50 -68zM235 60l14 -31l-20 -29q-145 0 -148 170l-7 514l58 6v-514q0 -64 23.5 -90t79.5 -26z" />
    <glyph glyph-name="uniFE86" unicode="&#x624;" horiz-adv-x="521" arabic-form="final" 
d="M158 427l-1 32l65 10q-47 34 -47 75q0 33 23.5 55t67.5 22q33 0 60 -16l-10 -33q-29 15 -53 15q-28 0 -40.5 -13t-12.5 -31q0 -35 50 -68l90 14l2 -31zM541 29l-20 -29h-92q-38 -200 -354 -257l-22 59q275 47 323 198h-66q-110 0 -171.5 46.5t-61.5 120.5q0 76 52.5 136
t116.5 60q71 0 129 -81.5t59 -221.5h93zM302 60h83q-3 118 -46 180.5t-95 62.5q-44 0 -81.5 -41t-37.5 -92q0 -52 44.5 -81t132.5 -29z" />
    <glyph glyph-name="uniFE88" unicode="&#x625;" horiz-adv-x="223" arabic-form="final" 
d="M223 0q-73 0 -106 41t-35 129l-18 574l58 6l10 -576q2 -66 21.5 -90t74.5 -24l15 -31zM143 -200l90 14l2 -31l-194 -31l-1 32l65 10q-47 34 -47 75q0 33 23.5 55t67.5 22q33 0 60 -16l-10 -33q-29 15 -53 15q-28 0 -40.5 -13t-12.5 -31q0 -35 50 -68z" />
    <glyph glyph-name="uniFE8A" unicode="&#x626;" horiz-adv-x="712" arabic-form="final" 
d="M237 370l2 -31l-194 -31l-1 32l65 10q-47 34 -47 75q0 33 23.5 55t67.5 22q33 0 60 -16l-10 -33q-28 15 -53 15q-28 0 -40.5 -13t-12.5 -31q0 -35 50 -68zM732 29l-20 -29q-54 0 -114 26q28 -33 28 -81t-93 -97.5t-231 -49.5q-128 0 -188.5 61t-60.5 168q0 92 42 183
l41 -12q-31 -81 -31 -164q0 -176 203 -176q105 0 176.5 27t98.5 53q-2 52 -42.5 84.5t-152.5 61.5l32 49q48 -13 113 -34.5t103 -30t82 -8.5z" />
    <glyph glyph-name="uniFE8B" unicode="&#x626;" horiz-adv-x="264" arabic-form="initial" 
d="M18 465l-1 32l65 10q-47 34 -47 75q0 33 23.5 55t67.5 22q33 0 60 -16l-10 -33q-28 15 -53 15q-28 0 -40.5 -13t-12.5 -31q0 -35 50 -68l90 14l2 -31zM97 375l60 21q44 -141 44 -267q0 -57 -57 -93t-144 -36l-20 30l25 30q91 0 145 49q0 119 -53 266z" />
    <glyph glyph-name="uniFE8C" unicode="&#x626;" horiz-adv-x="307" arabic-form="medial" 
d="M43 394l-1 32l65 10q-47 34 -47 75q0 33 23.5 55t67.5 22q33 0 60 -16l-10 -33q-29 15 -53 15q-28 0 -40.5 -13t-12.5 -31q0 -35 50 -68l90 14l2 -31zM312 60l15 -31l-20 -29q-101 0 -146 63q-49 -63 -162 -63l-19 29l24 31q98 0 130 48l-26 213h61l16 -205
q37 -56 127 -56z" />
    <glyph glyph-name="uniFE8E" unicode="&#x627;" horiz-adv-x="223" arabic-form="final" 
d="M82 170l-18 574l58 6l10 -576q2 -66 21.5 -90t74.5 -24l15 -31l-20 -29q-73 0 -106 41t-35 129z" />
    <glyph glyph-name="uniFE90" unicode="&#x628;" horiz-adv-x="918" arabic-form="final" 
d="M914 60l14 -30l-20 -30q-110 0 -162 82q-155 -95 -414 -95q-147 0 -213 46t-66 143q0 76 36 153l41 -14q-25 -64 -25 -132q0 -72 53.5 -104t178.5 -32v-1l1 1q256 0 388 86l-39 188h61l23 -146q10 -59 38 -87t105 -28zM318 -138l44 55l55 -46l-44 -55z" />
    <glyph glyph-name="uniFE91" unicode="&#x628;" horiz-adv-x="264" arabic-form="initial" 
d="M0 0l-20 30l25 30q91 0 145 49q0 119 -53 266l60 21q44 -141 44 -267q0 -57 -57 -93t-144 -36zM118 -184l-55 46l44 55l55 -46z" />
    <glyph glyph-name="uniFE92" unicode="&#x628;" horiz-adv-x="307" arabic-form="medial" 
d="M312 60l15 -31l-20 -29q-101 0 -146 63q-49 -63 -162 -63l-19 29l24 31q98 0 130 48l-26 213h61l16 -205q37 -56 127 -56zM108 -138l44 55l55 -46l-44 -55z" />
    <glyph glyph-name="uniFE94" unicode="&#x629;" horiz-adv-x="498" arabic-form="final" 
d="M442 644l-40 -49l-49 39l40 50zM318 636l-40 -50l-48 40l40 49zM503 60l15 -32l-20 -28h-14q-104 0 -136 89q-66 -52 -166 -52q-65 0 -110 33.5t-45 76.5q0 88 89 154t214 91l-4 102l54 7l10 -327q2 -64 25 -89t75 -25h13zM72 145q11 -22 42 -36.5t77 -14.5q86 0 148 45
l-7 196q-106 -20 -181 -69t-79 -121z" />
    <glyph glyph-name="uniFE96" unicode="&#x62a;" horiz-adv-x="908" arabic-form="final" 
d="M503 441l-40 -49l-49 39l40 50zM379 433l-40 -50l-48 40l40 49zM914 60l14 -30l-20 -30q-110 0 -162 82q-155 -95 -414 -95q-147 0 -213 46t-66 143q0 76 36 153l41 -14q-25 -64 -25 -132q0 -72 53.5 -104t178.5 -32v-1l1 1q256 0 388 86l-39 188h61l23 -146
q10 -59 38 -87t105 -28z" />
    <glyph glyph-name="uniFE97" unicode="&#x62a;" horiz-adv-x="264" arabic-form="initial" 
d="M158 489l-49 39l40 50l49 -40zM34 480l-48 40l40 49l48 -39zM0 0l-20 30l25 30q91 0 145 49q0 119 -53 266l60 21q44 -141 44 -267q0 -57 -57 -93t-144 -36z" />
    <glyph glyph-name="uniFE98" unicode="&#x62a;" horiz-adv-x="307" arabic-form="medial" 
d="M223 467l-40 -49l-49 39l40 50zM99 459l-40 -50l-48 40l40 49zM312 60l15 -31l-20 -29q-101 0 -146 63q-49 -63 -162 -63l-19 29l24 31q98 0 130 48l-26 213h61l16 -205q37 -56 127 -56z" />
    <glyph glyph-name="uniFE9A" unicode="&#x62b;" horiz-adv-x="918" arabic-form="final" 
d="M452 535l-37 -46l-46 37l38 46zM483 399l-45 36l38 47l45 -37zM404 437l-38 -47l-45 37l37 47zM914 60l14 -30l-20 -30q-110 0 -162 82q-155 -95 -414 -95q-147 0 -213 46t-66 143q0 76 36 153l41 -14q-25 -64 -25 -132q0 -72 53.5 -104t178.5 -32v-1l1 1q256 0 388 86
l-39 188h61l23 -146q10 -59 38 -87t105 -28z" />
    <glyph glyph-name="uniFE9B" unicode="&#x62b;" horiz-adv-x="264" arabic-form="initial" 
d="M92 670l45 -37l-37 -47l-45 37zM161 579l45 -36l-38 -47l-45 37zM43 571l46 -36l-38 -47l-45 37zM0 0l-20 30l25 30q91 0 145 49q0 119 -53 266l60 21q44 -141 44 -267q0 -57 -57 -93t-144 -36z" />
    <glyph glyph-name="uniFE9C" unicode="&#x62b;" horiz-adv-x="307" arabic-form="medial" 
d="M162 562l-37 -47l-45 37l37 47zM193 425l-45 37l38 46l45 -36zM114 464l-38 -47l-45 37l37 46zM312 60l15 -31l-20 -29q-101 0 -146 63q-49 -63 -162 -63l-19 29l24 31q98 0 130 48l-26 213h61l16 -205q37 -56 127 -56z" />
    <glyph glyph-name="uniFE9E" unicode="&#x62c;" horiz-adv-x="681" arabic-form="final" 
d="M681 0q-97 0 -152.5 45t-69.5 144q-165 -34 -260.5 -121t-95.5 -192q0 -75 50.5 -122t160.5 -47q115 0 222 44l22 -53q-111 -52 -249 -52q-69 0 -120.5 18.5t-79.5 51.5t-41.5 71.5t-13.5 84.5q0 137 126 243.5t330 130.5q-15 8 -43 24.5t-39.5 23l-34.5 19.5t-33 18
l-28 14t-28 12.5t-25 9t-25.5 7.5t-23.5 3.5t-25 1.5q-60 0 -107 -34l-22 51q55 43 126 43q56 0 114 -27t139.5 -78t137.5 -78l-7 -50l-30 -3l-54 -6q17 -81 58.5 -109t125.5 -28l15 -31zM364 -117l-55 46l44 55l55 -46z" />
    <glyph glyph-name="uniFE9F" unicode="&#x62c;" horiz-adv-x="679" arabic-form="initial" 
d="M218 441q58 0 121.5 -34t150.5 -96t145 -93l-9 -51l-24 -3q-67 -7 -150.5 -34.5t-149 -56t-148.5 -51t-154 -22.5l-20 29l25 31q82 0 164 25t186 64t197 59l-84 56t-79.5 51.5t-57.5 32.5t-63.5 27t-52.5 6q-56 0 -105 -37l-22 52q60 45 130 45zM243 -138l44 55l55 -46
l-44 -55z" />
    <glyph glyph-name="uniFEA0" unicode="&#x62c;" horiz-adv-x="747" arabic-form="medial" 
d="M752 60l15 -31l-20 -29q-93 0 -160.5 46t-92.5 142q-54 -14 -121.5 -47t-118.5 -63.5t-120.5 -54t-133.5 -23.5l-20 29l25 31q64 0 130.5 23t117 52.5t125 60.5t147.5 43q-58 22 -123 60.5t-112 60t-95 21.5q-56 0 -105 -37l-21 53q59 44 129 44q44 0 93.5 -20.5t91 -48
t106 -62t127.5 -55.5l-8 -55l-38 -1q-10 0 -28 -2q27 -80 78 -108.5t132 -28.5zM324 -88l44 55l55 -46l-44 -55z" />
    <glyph glyph-name="uniFEA2" unicode="&#x62d;" horiz-adv-x="681" arabic-form="final" 
d="M459 189q-165 -34 -260.5 -121t-95.5 -192q0 -75 50.5 -122t160.5 -47q115 0 222 44l22 -53q-111 -52 -249 -52q-69 0 -120.5 18.5t-79.5 51.5t-41.5 71.5t-13.5 84.5q0 137 126 243.5t330 130.5q-15 8 -43 24.5t-39.5 23l-34.5 19.5t-33 18l-28 14t-28 12.5t-25 9
t-25.5 7.5t-23.5 3.5t-25 1.5q-60 0 -107 -34l-22 51q55 43 126 43q56 0 114 -27t139.5 -78t137.5 -78l-7 -50l-30 -3l-54 -6q17 -81 58.5 -109t125.5 -28l15 -31l-20 -29q-97 0 -152.5 45t-69.5 144z" />
    <glyph glyph-name="uniFEA3" unicode="&#x62d;" horiz-adv-x="679" arabic-form="initial" 
d="M218 441q58 0 121.5 -34t150.5 -96t145 -93l-9 -51l-24 -3q-67 -7 -150.5 -34.5t-149 -56t-148.5 -51t-154 -22.5l-20 29l25 31q82 0 164 25t186 64t197 59l-84 56t-79.5 51.5t-57.5 32.5t-63.5 27t-52.5 6q-56 0 -105 -37l-22 52q60 45 130 45z" />
    <glyph glyph-name="uniFEA4" unicode="&#x62d;" horiz-adv-x="747" arabic-form="medial" 
d="M752 60l15 -31l-20 -29q-94 0 -161.5 46t-91.5 142q-54 -14 -121.5 -47t-118.5 -63.5t-120.5 -54t-133.5 -23.5l-20 29l25 31q64 0 130.5 23t117 52.5t125 60.5t147.5 43q-58 22 -123 60.5t-112 60t-95 21.5q-56 0 -105 -37l-21 53q59 44 129 44q44 0 93.5 -20.5t91 -48
t106 -62t127.5 -55.5l-8 -55l-38 -1q-9 0 -29 -2q27 -80 78.5 -108.5t132.5 -28.5z" />
    <glyph glyph-name="uniFEA6" unicode="&#x62e;" horiz-adv-x="681" arabic-form="final" 
d="M265 565l-44 -56l-56 47l44 55zM459 189q-165 -34 -260.5 -121t-95.5 -192q0 -75 50.5 -122t160.5 -47q115 0 222 44l22 -53q-111 -52 -249 -52q-69 0 -120.5 18.5t-79.5 51.5t-41.5 71.5t-13.5 84.5q0 137 126 243.5t330 130.5q-15 8 -43 24.5t-39.5 23l-34.5 19.5
t-33 18l-28 14t-28 12.5t-25 9t-25.5 7.5t-23.5 3.5t-25 1.5q-60 0 -107 -34l-22 51q55 43 126 43q56 0 114 -27t139.5 -78t137.5 -78l-7 -50l-30 -3l-54 -6q17 -81 58.5 -109t125.5 -28l15 -31l-20 -29q-97 0 -152.5 45t-69.5 144z" />
    <glyph glyph-name="uniFEA7" unicode="&#x62e;" horiz-adv-x="679" arabic-form="initial" 
d="M260 565l-44 -56l-56 47l44 55zM218 441q58 0 121.5 -34t150.5 -96t145 -93l-9 -51l-24 -3q-67 -7 -150.5 -34.5t-149 -56t-148.5 -51t-154 -22.5l-20 29l25 31q82 0 164 25t186 64t197 59l-84 56t-79.5 51.5t-57.5 32.5t-63.5 27t-52.5 6q-56 0 -105 -37l-22 52
q60 45 130 45z" />
    <glyph glyph-name="uniFEA8" unicode="&#x62e;" horiz-adv-x="747" arabic-form="medial" 
d="M258 566l-44 -56l-56 47l44 55zM752 60l15 -31l-20 -29q-94 0 -161.5 46t-91.5 142q-54 -14 -121.5 -47t-118.5 -63.5t-120.5 -54t-133.5 -23.5l-20 29l25 31q64 0 130.5 23t117 52.5t125 60.5t147.5 43q-58 22 -123 60.5t-112 60t-95 21.5q-56 0 -105 -37l-21 53
q59 44 129 44q44 0 93.5 -20.5t91 -48t106 -62t127.5 -55.5l-8 -55l-38 -1q-9 0 -29 -2q27 -80 78.5 -108.5t132.5 -28.5z" />
    <glyph glyph-name="uniFEAA" unicode="&#x62f;" horiz-adv-x="518" arabic-form="final" 
d="M523 60l15 -31l-20 -29q-84 0 -124 66q-77 -79 -213 -79q-75 0 -154 25l20 59q68 -22 138 -22q116 0 188 61l-161 363l61 28l132 -339q22 -58 46 -80t72 -22z" />
    <glyph glyph-name="uniFEAC" unicode="&#x630;" horiz-adv-x="518" arabic-form="final" 
d="M242 642l-44 -56l-56 47l44 55zM523 60l15 -31l-20 -29q-84 0 -124 66q-77 -79 -213 -79q-75 0 -154 25l20 59q68 -22 138 -22q116 0 188 61l-161 363l61 28l132 -339q22 -58 46 -80t72 -22z" />
    <glyph glyph-name="uniFEAE" unicode="&#x631;" horiz-adv-x="420" arabic-form="final" 
d="M440 29l-20 -29q-59 0 -88 22q-84 -159 -355 -279l-26 60q251 105 344 248q-34 123 -83 234l60 27q14 -40 54 -177q12 -46 33 -60.5t66 -14.5z" />
    <glyph glyph-name="uniFEB0" unicode="&#x632;" horiz-adv-x="420" arabic-form="final" 
d="M264 467l-44 -56l-56 47l44 55zM440 29l-20 -29q-59 0 -88 22q-84 -159 -355 -279l-26 60q251 105 344 248q-34 123 -83 234l60 27q14 -40 54 -177q12 -46 33 -60.5t66 -14.5z" />
    <glyph glyph-name="uniFEB2" unicode="&#x633;" horiz-adv-x="1233" arabic-form="final" 
d="M1253 30l-20 -30q-105 0 -163 54q-44 -54 -122 -54q-86 0 -129 61q-20 -31 -55 -46t-71 -15q-53 0 -87 31q2 -24 2 -48q0 -99 -89.5 -164t-216.5 -65q-128 0 -188.5 61t-60.5 167q0 93 42 184l41 -13q-31 -79 -31 -164q0 -175 203 -175q78 0 142.5 31t106.5 83
q6 74 -9 146.5t-31.5 109.5t-47.5 96l59 25q39 -101 65 -179q15 -38 40.5 -52t64.5 -14q68 0 93 48l-26 213h60l17 -205q37 -56 110 -56q63 0 91 39q-9 102 -42 282l63 13q22 -148 29 -292q56 -42 145 -42z" />
    <glyph glyph-name="uniFEB3" unicode="&#x633;" horiz-adv-x="753" arabic-form="initial" 
d="M636 394q54 -145 54 -271q0 -56 -45.5 -89.5t-99.5 -33.5q-89 0 -132 61q-40 -61 -126 -61t-127 61q-42 -61 -161 -61l-19 29l24 31q103 0 128 48l-26 213h60l17 -205q37 -56 110 -56q67 0 93 48l-26 213h60l17 -205q35 -56 112 -56q28 0 53.5 11t38.5 28q-2 125 -66 274
z" />
    <glyph glyph-name="uniFEB4" unicode="&#x633;" horiz-adv-x="828" arabic-form="medial" 
d="M848 30l-20 -30q-105 0 -163 54q-43 -54 -122 -54q-87 0 -130 61q-40 -61 -126 -61t-127 61q-42 -61 -161 -61l-19 29l24 31q103 0 128 48l-26 213h60l17 -205q37 -56 110 -56q67 0 93 48l-26 213h60l17 -205q35 -56 109 -56q63 0 91 39q-9 114 -45 282l63 13
q24 -140 32 -291q53 -43 146 -43z" />
    <glyph glyph-name="uniFEB6" unicode="&#x634;" horiz-adv-x="1233" arabic-form="final" 
d="M819 562l-37 -47l-45 37l37 47zM850 425l-45 37l38 46l45 -36zM771 464l-38 -47l-45 37l37 46zM1253 30l-20 -30q-105 0 -163 54q-44 -54 -122 -54q-86 0 -129 61q-20 -31 -55 -46t-71 -15q-53 0 -87 31q2 -24 2 -48q0 -99 -89.5 -164t-216.5 -65q-128 0 -188.5 61
t-60.5 167q0 93 42 184l41 -13q-31 -79 -31 -164q0 -175 203 -175q78 0 142.5 31t106.5 83q6 74 -9 146.5t-31.5 109.5t-47.5 96l59 25q39 -101 65 -179q15 -38 40.5 -52t64.5 -14q68 0 93 48l-26 213h60l17 -205q37 -56 110 -56q63 0 91 39q-9 102 -42 282l63 13
q22 -148 29 -292q56 -42 145 -42z" />
    <glyph glyph-name="uniFEB7" unicode="&#x634;" horiz-adv-x="753" arabic-form="initial" 
d="M413 562l-37 -47l-45 37l37 47zM444 425l-45 37l38 46l45 -36zM365 464l-38 -47l-45 37l37 46zM636 394q54 -145 54 -271q0 -56 -45.5 -89.5t-99.5 -33.5q-89 0 -132 61q-40 -61 -126 -61t-127 61q-42 -61 -161 -61l-19 29l24 31q103 0 128 48l-26 213h60l17 -205
q37 -56 110 -56q67 0 93 48l-26 213h60l17 -205q35 -56 112 -56q28 0 53.5 11t38.5 28q-2 125 -66 274z" />
    <glyph glyph-name="uniFEB8" unicode="&#x634;" horiz-adv-x="828" arabic-form="medial" 
d="M414 562l-37 -47l-45 37l37 47zM445 425l-45 37l38 46l45 -36zM366 464l-38 -47l-45 37l37 46zM848 30l-20 -30q-105 0 -163 54q-43 -54 -122 -54q-87 0 -130 61q-40 -61 -126 -61t-127 61q-42 -61 -161 -61l-19 29l24 31q103 0 128 48l-26 213h60l17 -205
q37 -56 110 -56q67 0 93 48l-26 213h60l17 -205q35 -56 109 -56q63 0 91 39q-9 114 -45 282l63 13q24 -140 32 -291q53 -43 146 -43z" />
    <glyph glyph-name="uniFEBA" unicode="&#x635;" horiz-adv-x="1334" arabic-form="final" 
d="M1339 60l15 -31l-20 -29q-80 0 -132 82q-76 -82 -377 -82h-132q-53 0 -87 31q2 -24 2 -48q0 -99 -89.5 -164t-216.5 -65q-128 0 -188.5 61t-60.5 167q0 93 42 184l41 -13q-31 -79 -31 -164q0 -175 203 -175q78 0 142.5 31t106.5 83q6 74 -9 146.5t-31.5 109.5t-47.5 96
l59 25q39 -101 65 -179q22 -58 79 -64q80 165 177 259.5t201 94.5q86 0 134.5 -63t48.5 -188q0 -23 -6 -42q19 -28 49 -45.5t63 -17.5zM1181 133q8 122 -29.5 173t-97.5 51q-89 0 -167.5 -72t-165.5 -225h104q162 0 234 16.5t122 56.5z" />
    <glyph glyph-name="uniFEBB" unicode="&#x635;" horiz-adv-x="901" arabic-form="initial" 
d="M655 416q87 0 135 -63t48 -188q0 -88 -98.5 -126.5t-309.5 -38.5h-132q-101 0 -143 64q-46 -64 -156 -64l-19 29l24 31q92 0 125 48l-23 272h60l14 -258q26 -52 97 -60q80 165 177 259.5t201 94.5zM786 133q8 122 -29.5 173t-97.5 51q-89 0 -167.5 -72t-165.5 -225h104
q162 0 234 16.5t122 56.5z" />
    <glyph glyph-name="uniFEBC" unicode="&#x635;" horiz-adv-x="939" arabic-form="medial" 
d="M945 60l14 -31l-20 -29q-81 0 -131 82q-76 -82 -378 -82h-132q-101 0 -143 64q-46 -64 -156 -64l-19 29l24 31q92 0 125 48l-23 272h60l14 -258q26 -52 97 -60q80 165 177 259.5t201 94.5q87 0 135 -63t48 -188q0 -23 -6 -41q18 -29 48.5 -46.5t64.5 -17.5zM786 133
q8 122 -29.5 173t-97.5 51q-89 0 -167.5 -72t-165.5 -225h104q162 0 234 16.5t122 56.5z" />
    <glyph glyph-name="uniFEBE" unicode="&#x636;" horiz-adv-x="1334" arabic-form="final" 
d="M1041 530l-44 -56l-56 47l44 55zM1339 60l15 -31l-20 -29q-80 0 -132 82q-76 -82 -377 -82h-132q-53 0 -87 31q2 -24 2 -48q0 -99 -89.5 -164t-216.5 -65q-128 0 -188.5 61t-60.5 167q0 93 42 184l41 -13q-31 -79 -31 -164q0 -175 203 -175q78 0 142.5 31t106.5 83
q6 74 -9 146.5t-31.5 109.5t-47.5 96l59 25q39 -101 65 -179q22 -58 79 -64q80 165 177 259.5t201 94.5q86 0 134.5 -63t48.5 -188q0 -23 -6 -42q19 -28 49 -45.5t63 -17.5zM1181 133q8 122 -29.5 173t-97.5 51q-89 0 -167.5 -72t-165.5 -225h104q162 0 234 16.5t122 56.5z
" />
    <glyph glyph-name="uniFEBF" unicode="&#x636;" horiz-adv-x="901" arabic-form="initial" 
d="M646 530l-44 -55l-56 46l44 55zM655 416q87 0 135 -63t48 -188q0 -88 -98.5 -126.5t-309.5 -38.5h-132q-101 0 -143 64q-46 -64 -156 -64l-19 29l24 31q92 0 125 48l-23 272h60l14 -258q26 -52 97 -60q80 165 177 259.5t201 94.5zM786 133q8 122 -29.5 173t-97.5 51
q-89 0 -167.5 -72t-165.5 -225h104q162 0 234 16.5t122 56.5z" />
    <glyph glyph-name="uniFEC0" unicode="&#x636;" horiz-adv-x="939" arabic-form="medial" 
d="M646 530l-44 -55l-56 46l44 55zM945 60l14 -31l-20 -29q-81 0 -131 82q-76 -82 -378 -82h-132q-101 0 -143 64q-46 -64 -156 -64l-19 29l24 31q92 0 125 48l-23 272h60l14 -258q26 -52 97 -60q80 165 177 259.5t201 94.5q87 0 135 -63t48 -188q0 -23 -6 -41
q18 -29 48.5 -46.5t64.5 -17.5zM786 133q8 122 -29.5 173t-97.5 51q-89 0 -167.5 -72t-165.5 -225h104q162 0 234 16.5t122 56.5z" />
    <glyph glyph-name="uniFEC2" unicode="&#x637;" horiz-adv-x="807" arabic-form="final" 
d="M812 60l15 -31l-20 -29q-80 0 -132 82q-75 -82 -373 -82h-257l12 60h91q24 48 43 81l-20 603l60 7l9 -532q137 197 287 197q86 0 134.5 -61.5t48.5 -178.5q0 -31 -10 -55q44 -61 112 -61zM661 149q3 114 -34 161t-96 47q-89 0 -167.5 -72t-165.5 -225h104q169 0 241 19.5
t118 69.5z" />
    <glyph glyph-name="uniFEC3" unicode="&#x637;" horiz-adv-x="756" arabic-form="initial" 
d="M511 416q86 0 134 -61.5t48 -178.5q0 -96 -98 -136t-310 -40h-285l-20 29l25 31h126q24 48 43 81l-20 603l60 7l9 -532q137 197 288 197zM644 149q3 114 -34 161t-96 47q-89 0 -167.5 -72.5t-164.5 -224.5h103q169 0 241.5 19.5t117.5 69.5z" />
    <glyph glyph-name="uniFEC4" unicode="&#x637;" horiz-adv-x="790" arabic-form="medial" 
d="M795 60l15 -31l-20 -29q-81 0 -131 82q-78 -82 -374 -82h-285l-20 29l25 31h126q24 48 43 81l-20 603l60 7l9 -532q137 197 288 197q86 0 134 -61.5t48 -178.5q0 -30 -9 -54q43 -62 111 -62zM644 149q3 114 -34 161t-96 47q-89 0 -167.5 -72.5t-164.5 -224.5h103
q169 0 241.5 19.5t117.5 69.5z" />
    <glyph glyph-name="uniFEC6" unicode="&#x638;" horiz-adv-x="807" arabic-form="final" 
d="M812 60l15 -31l-20 -29q-80 0 -132 82q-75 -82 -373 -82h-257l12 60h91q24 48 43 81l-20 603l60 7l9 -532q137 197 287 197q86 0 134.5 -61.5t48.5 -178.5q0 -31 -10 -55q44 -61 112 -61zM518 535l-44 -56l-56 47l44 55zM661 149q3 114 -34 161t-96 47q-89 0 -167.5 -72
t-165.5 -225h104q169 0 241 19.5t118 69.5z" />
    <glyph glyph-name="uniFEC7" unicode="&#x638;" horiz-adv-x="756" arabic-form="initial" 
d="M511 416q86 0 134 -61.5t48 -178.5q0 -96 -98 -136t-310 -40h-285l-20 29l25 31h126q24 48 43 81l-20 603l60 7l9 -532q137 197 288 197zM501 535l-44 -56l-56 47l44 55zM644 149q3 114 -34 161t-96 47q-89 0 -167.5 -72.5t-164.5 -224.5h103q169 0 241.5 19.5
t117.5 69.5z" />
    <glyph glyph-name="uniFEC8" unicode="&#x638;" horiz-adv-x="790" arabic-form="medial" 
d="M795 60l15 -31l-20 -29q-81 0 -131 82q-78 -82 -374 -82h-285l-20 29l25 31h126q24 48 43 81l-20 603l60 7l9 -532q137 197 288 197q86 0 134 -61.5t48 -178.5q0 -30 -9 -54q43 -62 111 -62zM501 535l-44 -56l-56 47l44 55zM644 149q3 114 -34 161t-96 47
q-89 0 -167.5 -72.5t-164.5 -224.5h103q169 0 241.5 19.5t117.5 69.5z" />
    <glyph glyph-name="uniFECA" unicode="&#x639;" horiz-adv-x="558" arabic-form="final" 
d="M292 97q-107 -72 -153.5 -121.5t-46.5 -117.5q0 -63 52.5 -107t165.5 -44q115 0 222 44l22 -53q-111 -52 -250 -52q-71 0 -123.5 18t-81.5 48.5t-42.5 66t-13.5 74.5q0 84 53 147.5t158 132.5q-8 8 -32.5 34.5t-41.5 43.5t-49.5 45.5t-68.5 56.5l7 58q112 44 216 44
q94 0 149 -26.5t55 -62.5q0 -56 -37.5 -100.5t-113.5 -97.5q48 -41 87 -54.5t109 -13.5h28l16 -31l-20 -29h-35q-123 0 -231 97zM122 328q33 -26 61 -51.5t68.5 -67t47.5 -47.5q135 90 149 163q-69 31 -163 31q-83 0 -163 -28z" />
    <glyph glyph-name="uniFECB" unicode="&#x639;" horiz-adv-x="548" arabic-form="initial" 
d="M521 113l7 -61q-132 -31 -220.5 -41.5t-205.5 -10.5h-102l-20 29l25 31h85q75 0 107 2q-61 38 -92 90t-31 107q0 72 50.5 122t144.5 50q80 0 141 -36l-19 -58q-59 33 -122 33q-72 0 -106.5 -32t-34.5 -84q0 -111 145 -187q96 9 248 46z" />
    <glyph glyph-name="uniFECC" unicode="&#x639;" horiz-adv-x="553" arabic-form="medial" 
d="M558 60l15 -32l-20 -28h-28q-131 0 -229 88q-68 -40 -140.5 -64t-126.5 -24h-29l-20 28l25 32h14q114 0 237 67q-8 9 -29 32.5t-34 36.5t-34.5 34t-46 41.5t-53.5 41.5l7 57q106 45 216 45q95 0 150 -27.5t55 -63.5q0 -102 -142 -205q43 -34 83.5 -46.5t108.5 -12.5h21z
M120 327q32 -24 62.5 -52.5t65 -63.5t56.5 -55q119 81 141 168q-66 32 -163 32q-81 0 -162 -29z" />
    <glyph glyph-name="uniFECE" unicode="&#x63a;" horiz-adv-x="558" arabic-form="final" 
d="M339 549l-44 -56l-56 47l44 55zM292 97q-107 -72 -153.5 -121.5t-46.5 -117.5q0 -63 52.5 -107t165.5 -44q115 0 222 44l22 -53q-111 -52 -250 -52q-71 0 -123.5 18t-81.5 48.5t-42.5 66t-13.5 74.5q0 84 53 147.5t158 132.5q-8 8 -32.5 34.5t-41.5 43.5t-49.5 45.5
t-68.5 56.5l7 58q112 44 216 44q94 0 149 -26.5t55 -62.5q0 -56 -37.5 -100.5t-113.5 -97.5q48 -41 87 -54.5t109 -13.5h28l16 -31l-20 -29h-35q-123 0 -231 97zM122 328q33 -26 61 -51.5t68.5 -67t47.5 -47.5q135 90 149 163q-69 31 -163 31q-83 0 -163 -28z" />
    <glyph glyph-name="uniFECF" unicode="&#x63a;" horiz-adv-x="548" arabic-form="initial" 
d="M308 555l-44 -56l-56 47l44 55zM521 113l7 -61q-132 -31 -220.5 -41.5t-205.5 -10.5h-102l-20 29l25 31h85q75 0 107 2q-61 38 -92 90t-31 107q0 72 50.5 122t144.5 50q80 0 141 -36l-19 -58q-59 33 -122 33q-72 0 -106.5 -32t-34.5 -84q0 -111 145 -187q96 9 248 46z
" />
    <glyph glyph-name="uniFED0" unicode="&#x63a;" horiz-adv-x="553" arabic-form="medial" 
d="M322 550l-44 -56l-56 47l44 55zM558 60l15 -32l-20 -28h-28q-131 0 -229 88q-68 -40 -140.5 -64t-126.5 -24h-29l-20 28l25 32h14q114 0 237 67q-8 9 -29 32.5t-34 36.5t-34.5 34t-46 41.5t-53.5 41.5l7 57q106 45 216 45q95 0 150 -27.5t55 -63.5q0 -102 -142 -205
q43 -34 83.5 -46.5t108.5 -12.5h21zM120 327q32 -24 62.5 -52.5t65 -63.5t56.5 -55q119 81 141 168q-66 32 -163 32q-81 0 -162 -29z" />
    <glyph glyph-name="uniFED2" unicode="&#x641;" horiz-adv-x="931" arabic-form="final" 
d="M733 588l-44 -56l-56 47l44 55zM936 60l15 -31l-20 -29h-36q-105 0 -199 44q-134 -57 -334 -57h-30q-147 0 -213 46t-66 143q0 76 36 153l41 -14q-25 -64 -25 -132q0 -72 53.5 -104t178.5 -32h32q158 0 265 31q-109 75 -109 177q0 80 53 141.5t117 61.5q69 0 123 -61.5
t54 -143.5q0 -104 -112 -176q66 -17 135 -17h41zM574 249q0 -95 122 -150q126 55 126 149q0 62 -39.5 106.5t-86.5 44.5q-45 0 -83.5 -44.5t-38.5 -105.5z" />
    <glyph glyph-name="uniFED3" unicode="&#x641;" horiz-adv-x="456" arabic-form="initial" 
d="M247 673l-44 -56l-56 47l44 55zM208 547q78 0 133.5 -90.5t51.5 -280.5q-1 -75 -98 -125.5t-295 -50.5l-20 30l25 30q244 0 336 80q2 28 2 79q-42 -35 -115 -35q-80 0 -134.5 48.5t-54.5 119.5q0 76 52.5 135.5t116.5 59.5zM243 240q55 0 98 20q-7 120 -45 174t-90 54
q-44 0 -81 -41t-37 -93t42.5 -83t112.5 -31z" />
    <glyph glyph-name="uniFED4" unicode="&#x641;" horiz-adv-x="475" arabic-form="medial" 
d="M277 587l-44 -56l-56 47l44 55zM480 60l15 -31l-20 -29h-37q-101 0 -192 41q-93 -41 -216 -41h-30l-20 29l25 31h32q81 0 144 15q-112 75 -112 180q0 80 53 141.5t117 61.5q68 0 122 -61.5t54 -143.5q0 -103 -106 -177q60 -16 129 -16h42zM118 249q0 -99 128 -153
q120 51 120 152q0 62 -39.5 106.5t-86.5 44.5q-45 0 -83.5 -44.5t-38.5 -105.5z" />
    <glyph glyph-name="uniFED6" unicode="&#x642;" horiz-adv-x="758" arabic-form="final" 
d="M568 498l-40 -49l-49 39l40 50zM444 490l-40 -50l-48 40l40 49zM778 29l-20 -29h-91v-16q0 -39 -19 -78.5t-55.5 -74t-97.5 -56t-138 -21.5q-165 0 -234.5 59t-69.5 169q0 93 42 184l41 -13q-31 -79 -31 -164q0 -84 57.5 -129.5t200.5 -45.5q93 0 155.5 33t94.5 79
q2 51 1 74h-94q-92 0 -149 47.5t-57 123.5q0 75 52.5 135t116.5 60q70 0 121.5 -71.5t60.5 -234.5h99zM363 174q0 -56 44.5 -85t127.5 -29h78q-15 246 -131 246q-44 0 -81.5 -41t-37.5 -91z" />
    <glyph glyph-name="uniFED7" unicode="&#x642;" horiz-adv-x="456" arabic-form="initial" 
d="M292 681l-40 -49l-49 39l40 50zM168 673l-40 -50l-48 40l40 49zM208 547q78 0 133.5 -90.5t51.5 -280.5q-1 -75 -98 -125.5t-295 -50.5l-20 30l25 30q244 0 336 80q2 28 2 79q-42 -35 -115 -35q-80 0 -134.5 48.5t-54.5 119.5q0 76 52.5 135.5t116.5 59.5zM243 240
q55 0 98 20q-7 120 -45 174t-90 54q-44 0 -81 -41t-37 -93t42.5 -83t112.5 -31z" />
    <glyph glyph-name="uniFED8" unicode="&#x642;" horiz-adv-x="475" arabic-form="medial" 
d="M322 595l-40 -49l-49 39l40 50zM198 587l-40 -50l-48 40l40 49zM480 60l15 -31l-20 -29h-37q-101 0 -192 41q-93 -41 -216 -41h-30l-20 29l25 31h32q81 0 144 15q-112 75 -112 180q0 80 53 141.5t117 61.5q68 0 122 -61.5t54 -143.5q0 -103 -106 -177q60 -16 129 -16h42z
M118 249q0 -99 128 -153q120 51 120 152q0 62 -39.5 106.5t-86.5 44.5q-45 0 -83.5 -44.5t-38.5 -105.5z" />
    <glyph glyph-name="uniFEDA" unicode="&#x643;" horiz-adv-x="814" arabic-form="final" 
d="M820 60l14 -30l-20 -30q-79 0 -128 81q-66 -47 -149 -70.5t-205 -23.5q-147 0 -213 46t-66 143q0 76 36 153l41 -14q-25 -64 -25 -132q0 -72 53.5 -104t178.5 -32q204 0 331 86l-8 611l59 6v-586q0 -104 101 -104zM303 276l-7 38q107 0 165 25q-1 18 -41.5 43t-91.5 40
l8 40l159 93l-2 -44l-119 -67q49 -20 83.5 -47t34.5 -53q0 -34 -56 -51t-133 -17z" />
    <glyph glyph-name="uniFEDB" unicode="&#x643;" horiz-adv-x="460" arabic-form="initial" 
d="M407 755l-4 -63l-342 -222q258 -177 291 -354q-31 -50 -124.5 -83t-227.5 -33l-20 29l25 31q196 0 288 67q-26 143 -290 319l12 54z" />
    <glyph glyph-name="uniFEDC" unicode="&#x643;" horiz-adv-x="533" arabic-form="medial" 
d="M538 60l15 -30l-20 -30q-73 0 -124 32.5t-115 114.5q-37 -69 -104.5 -108t-189.5 -39l-20 29l25 31q193 0 257 127l-208 260l12 53l392 255l-4 -61l-349 -226l164 -204q76 -95 112 -132.5t71 -54.5t86 -17z" />
    <glyph glyph-name="uniFEDE" unicode="&#x644;" horiz-adv-x="699" arabic-form="final" 
d="M719 30l-20 -30q-61 0 -109 39l1 -98q-34 -61 -110.5 -100.5t-178.5 -39.5q-128 0 -188.5 61t-60.5 168q0 92 42 183l41 -12q-31 -81 -31 -164q0 -175 203 -175q79 0 141 27.5t91 70.5l-19 784l59 6l9 -638q46 -52 115 -52z" />
    <glyph glyph-name="uniFEDF" unicode="&#x644;" horiz-adv-x="219" arabic-form="initial" 
d="M0 0l-20 29l25 31q55 0 82 44l-17 640l59 6l10 -660q-16 -39 -53.5 -64.5t-85.5 -25.5z" />
    <glyph glyph-name="uniFEE0" unicode="&#x644;" horiz-adv-x="244" arabic-form="medial" 
d="M249 60l15 -31l-20 -29q-87 0 -121 65q-34 -65 -123 -65l-20 29l25 31q61 0 92 50l-6 634l58 7v-592q0 -99 100 -99z" />
    <glyph glyph-name="uniFEE2" unicode="&#x645;" horiz-adv-x="687" arabic-form="final" 
d="M692 60l15 -30l-20 -30q-86 0 -139 55q-37 -68 -129 -68q-55 0 -110 22t-94 44t-56 22q-29 0 -40.5 -23.5t-11.5 -75.5q0 -72 47 -275q2 -6 2.5 -9t1.5 -7.5t2 -8.5l-63 -27q-44 210 -44 323q0 171 94 171q16 0 35 -8q60 149 104 206.5t109 57.5q70 0 119 -78t49 -206v-4
h1q49 -51 128 -51zM514 87q3 107 -33 178t-89 71q-48 0 -80 -45t-88 -177q4 -2 18.5 -10.5t20.5 -11.5t20.5 -10.5t23 -10.5t23.5 -8.5t26.5 -7.5t26.5 -4t30 -2q66 0 101 38z" />
    <glyph glyph-name="uniFEE3" unicode="&#x645;" horiz-adv-x="584" arabic-form="initial" 
d="M354 399q69 0 118 -78t49 -207q0 -52 -37.5 -89.5t-108.5 -37.5q-108 0 -228 77q-52 -64 -139 -64h-8l-20 29l25 31h12q47 0 76 24.5t63 97.5q62 130 99.5 173.5t98.5 43.5zM472 87q2 112 -35 181t-87 69q-43 0 -75 -39.5t-88 -166.5q-8 -18 -13 -26q99 -56 196 -56
q64 0 102 38z" />
    <glyph glyph-name="uniFEE4" unicode="&#x645;" horiz-adv-x="641" arabic-form="medial" 
d="M661 30l-20 -30q-82 0 -136 52q-37 -65 -130 -65q-108 0 -228 77q-52 -64 -139 -64h-8l-20 29l25 31h12q47 0 76 24.5t63 97.5q62 130 99.5 173.5t98.5 43.5q69 0 118 -78t49 -207v-6q48 -48 125 -48zM472 87q2 112 -35 181t-87 69q-43 0 -75 -39.5t-88 -166.5
q-8 -18 -13 -26q99 -56 196 -56q64 0 102 38z" />
    <glyph glyph-name="uniFEE6" unicode="&#x646;" horiz-adv-x="693" arabic-form="final" 
d="M354 381l-44 -56l-56 47l44 55zM713 29l-20 -29q-53 0 -87 31q2 -24 2 -48q0 -99 -89.5 -164t-216.5 -65q-128 0 -188.5 61t-60.5 167q0 93 42 184l41 -13q-31 -79 -31 -164q0 -175 203 -175q78 0 142.5 31t106.5 83q6 74 -9 146.5t-31.5 109.5t-47.5 96l59 25
q39 -101 65 -179q15 -38 40.5 -52t64.5 -14z" />
    <glyph glyph-name="uniFEE7" unicode="&#x646;" horiz-adv-x="264" arabic-form="initial" 
d="M109 474l-56 47l44 55l56 -46zM0 0l-20 30l25 30q91 0 145 49q0 119 -53 266l60 21q44 -141 44 -267q0 -57 -57 -93t-144 -36z" />
    <glyph glyph-name="uniFEE8" unicode="&#x646;" horiz-adv-x="307" arabic-form="medial" 
d="M177 459l-44 -56l-56 47l44 55zM312 60l15 -31l-20 -29q-101 0 -146 63q-49 -63 -162 -63l-19 29l24 31q98 0 130 48l-26 213h61l16 -205q37 -56 127 -56z" />
    <glyph glyph-name="uniFEEA" unicode="&#x647;" horiz-adv-x="498" arabic-form="final" 
d="M503 60l15 -32l-20 -28h-14q-104 0 -136 89q-66 -52 -166 -52q-65 0 -110 33.5t-45 76.5q0 88 89 154t214 91l-4 102l54 7l10 -327q2 -64 25 -89t75 -25h13zM72 145q11 -22 42 -36.5t77 -14.5q86 0 148 45l-7 196q-106 -20 -181 -69t-79 -121z" />
    <glyph glyph-name="uniFEEB" unicode="&#x647;" horiz-adv-x="631" arabic-form="initial" 
d="M132 527q234 -138 335 -235t101 -200q0 -41 -47 -73t-118 -32q-101 0 -187 47q-84 -34 -193 -34h-23l-20 29l25 31h37q64 0 117 12q-95 79 -95 186q0 61 36.5 108.5t93.5 57.5q-41 25 -91 53zM107 256q0 -48 30.5 -91t82.5 -72q116 52 116 160q0 52 -33 88.5t-81 36.5
q-50 0 -82.5 -35t-32.5 -87zM402 45q82 0 122 34q-3 104 -152 223q7 -21 7 -46q0 -119 -103 -189q61 -22 126 -22z" />
    <glyph glyph-name="uniFEEC" unicode="&#x647;" horiz-adv-x="484" arabic-form="medial" 
d="M504 29l-20 -29h-132q82 -49 82 -151q0 -46 -36.5 -77t-96.5 -31q-89 0 -150 72.5t-65 186.5h-86l-20 29l25 31h81q6 125 77 224t153 99q54 0 86.5 -41.5t32.5 -107.5q0 -51 -27 -98t-76 -76h158zM307 322q-59 0 -113 -77.5t-63 -184.5h64q84 0 136.5 47t52.5 116
q0 43 -21 71t-56 28zM296 -200q36 0 60 11.5t31 24.5q0 76 -46.5 120t-116.5 44h-19h-74q6 -93 50.5 -146.5t114.5 -53.5z" />
    <glyph glyph-name="uniFEEE" unicode="&#x648;" horiz-adv-x="521" arabic-form="final" 
d="M541 29l-20 -29h-92q-38 -200 -354 -257l-22 59q275 47 323 198h-66q-110 0 -171.5 46.5t-61.5 120.5q0 76 52.5 136t116.5 60q71 0 129 -81.5t59 -221.5h93zM302 60h83q-3 118 -46 180.5t-95 62.5q-44 0 -81.5 -41t-37.5 -92q0 -52 44.5 -81t132.5 -29z" />
    <glyph glyph-name="uniFEF0" unicode="&#x649;" horiz-adv-x="712" arabic-form="final" 
d="M732 29l-20 -29q-54 0 -114 26q28 -33 28 -81t-93 -97.5t-231 -49.5q-128 0 -188.5 61t-60.5 168q0 92 42 183l41 -12q-31 -81 -31 -164q0 -176 203 -176q105 0 176.5 27t98.5 53q-2 52 -42.5 84.5t-152.5 61.5l32 49q48 -13 113 -34.5t103 -30t82 -8.5z" />
    <glyph glyph-name="uniFEF2" unicode="&#x64a;" horiz-adv-x="712" arabic-form="final" 
d="M732 29l-20 -29q-54 0 -114 26q28 -33 28 -81t-93 -97.5t-231 -49.5q-128 0 -188.5 61t-60.5 168q0 92 42 183l41 -12q-31 -81 -31 -164q0 -176 203 -176q105 0 176.5 27t98.5 53q-2 52 -42.5 84.5t-152.5 61.5l32 49q48 -13 113 -34.5t103 -30t82 -8.5zM321 -327l40 50
l49 -40l-40 -49zM198 -335l39 49l49 -39l-40 -50z" />
    <glyph glyph-name="uniFEF3" unicode="&#x64a;" horiz-adv-x="264" arabic-form="initial" 
d="M0 0l-20 30l25 30q91 0 145 49q0 119 -53 266l60 21q44 -141 44 -267q0 -57 -57 -93t-144 -36zM181 -175l-49 39l40 50l49 -40zM57 -184l-48 40l39 49l49 -39z" />
    <glyph glyph-name="uniFEF4" unicode="&#x64a;" horiz-adv-x="307" arabic-form="medial" 
d="M312 60l15 -31l-20 -29q-101 0 -146 63q-49 -63 -162 -63l-19 29l24 31q98 0 130 48l-26 213h61l16 -205q37 -56 127 -56zM177 -136l40 50l49 -40l-40 -49zM54 -144l39 49l49 -39l-40 -50z" />
    <glyph glyph-name=".notdef" horiz-adv-x="663" 
d="M652 1050l-198 -1400h-418l198 1400h418zM590 998h-309l-183 -1296h309zM346 451q61 0 83 -33t14 -85q-7 -52 -32.5 -80t-76.5 -35l-8 -47q-3 -22 -25 -22q-11 0 -18 7.5t-6 18.5l10 82q53 3 75.5 21t28.5 59q4 32 -6 49t-43 17q-31 0 -54 -12q-12 -2 -13 -2
q-12 0 -18.5 7.5t-4.5 18.5q2 18 31.5 27t62.5 9zM291 120q16 0 25 -11t7 -27q-1 -15 -11.5 -24.5t-24.5 -9.5q-16 0 -25 11.5t-7 28.5q1 14 11.5 23t24.5 9z" />
    <glyph glyph-name=".null" 
 />
    <glyph glyph-name="nonmarkingreturn" horiz-adv-x="333" 
 />
    <glyph glyph-name="CR" unicode="&#xd;" horiz-adv-x="276" 
 />
    <glyph glyph-name="space" unicode=" " horiz-adv-x="276" 
 />
    <glyph glyph-name="exclam" unicode="!" horiz-adv-x="238" 
d="M86 218l61 467h62l-71 -467h-52zM87 -11q-20 0 -32 12.5t-12 31.5q0 22 15 37t36 15q20 0 32 -12.5t12 -31.5q0 -22 -14.5 -37t-36.5 -15z" />
    <glyph glyph-name="quotedbl" unicode="&#x22;" horiz-adv-x="360" 
d="M103 433l26 252h63l-45 -252h-44zM261 433l27 252h62l-44 -252h-45z" />
    <glyph glyph-name="numbersign" unicode="#" horiz-adv-x="501" 
d="M513 452h-79l-61 -225h72l-7 -47h-78l-49 -180h-54l49 180h-178l-49 -180h-53l49 180h-72l7 47h78l61 225h-70l6 47h77l45 166h54l-45 -166h178l45 166h53l-45 -166h72zM141 227h178l62 225h-178z" />
    <glyph glyph-name="dollar" unicode="$" horiz-adv-x="522" 
d="M291 378q83 -26 126.5 -67.5t43.5 -108.5q0 -81 -53.5 -142t-160.5 -70l-20 -141h-51l20 140q-110 7 -184 84l37 35q67 -69 169 -69q88 0 135.5 45t47.5 114q0 47 -31 77t-104 55q-88 29 -128 68.5t-40 100.5q0 77 52.5 124t142.5 52l19 144h51l-21 -146q86 -9 154 -73
l-36 -36q-65 62 -153 62q-68 0 -109 -32t-41 -92q0 -45 30 -73t104 -51z" />
    <glyph glyph-name="percent" unicode="%" horiz-adv-x="791" 
d="M669 703l-559 -699l40 -28l559 699zM218 351q-59 0 -95 37t-36 98q0 31 9.5 63t29 61t53.5 47.5t78 18.5q60 0 95.5 -36t35.5 -97q0 -44 -15 -85t-55.5 -74t-99.5 -33zM218 393q44 0 72 29t36.5 60.5t8.5 61.5q0 90 -77 90q-34 0 -58.5 -16t-36.5 -40.5t-17.5 -48
t-5.5 -45.5q0 -41 19 -66t59 -25zM553 -11q-59 0 -95 37t-36 98q0 32 9.5 63.5t29 61t54 48t78.5 18.5q59 0 95 -36.5t36 -97.5q0 -31 -9.5 -63t-28.5 -62t-53.5 -48.5t-79.5 -18.5zM553 32q34 0 58.5 16t36.5 41.5t17.5 48.5t5.5 44q0 90 -78 90q-34 0 -58.5 -16
t-36.5 -40.5t-17.5 -48t-5.5 -45.5q0 -90 78 -90z" />
    <glyph glyph-name="ampersand" unicode="&#x26;" horiz-adv-x="720" 
d="M349 696q71 0 115.5 -38t44.5 -96q0 -62 -41.5 -104.5t-140.5 -93.5l177 -192q52 87 88 173l52 -19q-48 -108 -107 -190l104 -113l-47 -33l-94 105q-98 -106 -232 -106q-85 0 -135.5 46.5t-50.5 119.5q0 66 36.5 117t128.5 101q-77 88 -77 160q0 68 48 115.5t131 47.5z
M349 650q-59 0 -90 -34t-31 -83q0 -63 66 -136q88 45 122.5 81t34.5 84q0 40 -28.5 64t-73.5 24zM278 339q-79 -42 -108 -85.5t-29 -98.5q0 -53 34.5 -85t96.5 -32q110 0 195 93z" />
    <glyph glyph-name="quotesingle" unicode="'" horiz-adv-x="202" 
d="M103 433l26 252h63l-45 -252h-44z" />
    <glyph glyph-name="parenleft" unicode="(" horiz-adv-x="321" 
d="M311 839l35 -28q-121 -149 -175.5 -278.5t-54.5 -300.5q0 -101 24.5 -177t75.5 -170l-40 -21q-40 70 -61 112.5t-39.5 113.5t-18.5 147q0 125 31.5 230t82.5 185.5t140 186.5z" />
    <glyph glyph-name="parenright" unicode=")" horiz-adv-x="321" 
d="M170 836q30 -52 46 -84t36 -80.5t28.5 -99t8.5 -108.5q0 -125 -31.5 -230t-82.5 -186t-140 -187l-35 28q121 150 176 280t55 301q0 100 -25 176t-75 169z" />
    <glyph glyph-name="asterisk" unicode="*" horiz-adv-x="433" 
d="M445 582l-158 -40l82 -122l-49 -34l-67 131l-103 -131l-43 33l117 122l-146 41l22 50l141 -55l13 159h59l-31 -159l152 58z" />
    <glyph glyph-name="plus" unicode="+" horiz-adv-x="490" 
d="M308 508l-22 -152h149l-7 -51h-149l-22 -151h-55l22 151h-149l7 51h149l21 152h56z" />
    <glyph glyph-name="comma" unicode="," horiz-adv-x="207" 
d="M75 85q20 0 32 -12.5t12 -31.5q0 -24 -21 -60l-75 -132h-43l62 148q-18 11 -18 36q0 21 15 36.5t36 15.5z" />
    <glyph glyph-name="hyphen" unicode="-" horiz-adv-x="398" 
d="M70 288l8 50h263l-7 -50h-264z" />
    <glyph glyph-name="period" unicode="." horiz-adv-x="208" 
d="M68 -11q-19 0 -31 12.5t-12 31.5q0 22 14.5 37t36.5 15q20 0 32 -12.5t12 -31.5q0 -22 -15 -37t-37 -15z" />
    <glyph glyph-name="slash" unicode="/" horiz-adv-x="517" 
d="M424 804l50 -13l-356 -891l-50 14z" />
    <glyph glyph-name="zero" unicode="0" horiz-adv-x="547" 
d="M331 676q-56 0 -102.5 -29.5t-75.5 -76t-49 -107.5t-28.5 -120.5t-8.5 -118.5q0 -115 43.5 -175t125.5 -60q69 0 122.5 43.5t83 113.5t44 145t14.5 151q0 115 -43 174.5t-126 59.5zM330 628q111 0 111 -177q0 -70 -12 -140t-35 -132.5t-63.5 -101.5t-92.5 -39
q-112 0 -112 177q0 70 12 139.5t35.5 132.5t64 102t92.5 39z" />
    <glyph glyph-name="one" unicode="1" horiz-adv-x="410" 
d="M347 665l-94 -665h-58l84 596l-177 -102l-21 48l216 123h50z" />
    <glyph glyph-name="two" unicode="2" horiz-adv-x="476" 
d="M276 676q78 0 123 -43t45 -114q0 -57 -28 -110.5t-104 -135.5t-230 -223l313 2l-17 -52h-373l7 51q166 155 243 237.5t103 130t26 98.5q0 52 -30 80.5t-82 28.5q-83 0 -157 -77l-39 35q89 92 200 92z" />
    <glyph glyph-name="three" unicode="3" horiz-adv-x="484" 
d="M276 676q77 0 120 -41.5t43 -108.5q0 -61 -40 -110.5t-116 -62.5q57 -2 93 -39t36 -103q0 -38 -14 -75.5t-41 -71t-75 -54.5t-108 -21q-116 0 -180 88l40 32q53 -70 142 -70q87 0 132 53.5t45 124.5q0 110 -130 110h-46l14 47h32q74 0 115.5 44.5t41.5 106.5q0 49 -29 76
t-79 27q-80 0 -159 -65l-29 38q90 75 192 75z" />
    <glyph glyph-name="four" unicode="4" horiz-adv-x="516" 
d="M475 223l-7 -48h-88l-25 -175h-58l25 175h-289l6 44l263 457l50 -20l-249 -433h226l34 195h51l-28 -195h89z" />
    <glyph glyph-name="five" unicode="5" horiz-adv-x="484" 
d="M469 665l-15 -48h-269l-33 -227q54 31 115 31q76 0 119.5 -47.5t43.5 -129.5q0 -41 -13.5 -83.5t-41 -82t-77 -64.5t-112.5 -25q-111 0 -179 82l40 33q52 -65 140 -65q64 0 107.5 36t59.5 80.5t16 89.5q0 64 -31.5 96.5t-84.5 32.5q-57 0 -117 -32h-47l45 323h334z" />
    <glyph glyph-name="six" unicode="6" horiz-adv-x="521" 
d="M315 434q68 0 111 -44t43 -126q0 -44 -13.5 -90t-39.5 -88.5t-71.5 -69.5t-103.5 -27q-177 0 -177 223q0 84 19.5 165.5t56 148.5t94 108.5t126.5 41.5q67 0 120 -40l-29 -39q-42 31 -93 31q-82 0 -142.5 -81t-83.5 -213q77 100 183 100zM242 38q45 0 80 23.5t53 60
t27 73t9 69.5q0 61 -28.5 91t-76.5 30q-102 0 -181 -115q-3 -34 -3 -65q0 -83 28.5 -125t91.5 -42z" />
    <glyph glyph-name="seven" unicode="7" horiz-adv-x="434" 
d="M456 665l-6 -45l-347 -628l-54 18l338 606h-307l6 49h370z" />
    <glyph glyph-name="eight" unicode="8" horiz-adv-x="535" 
d="M348 352q124 -54 124 -155q0 -92 -67.5 -150t-173.5 -58q-89 0 -140.5 46t-51.5 120q0 140 170 203q-94 46 -94 138q0 80 60 130t146 50q71 0 120.5 -38.5t49.5 -107.5q0 -61 -33.5 -102t-109.5 -76zM172 497q0 -43 24.5 -69.5t80.5 -47.5l30 -11q70 36 98.5 73.5
t28.5 87.5q0 48 -30.5 74t-83.5 26q-67 0 -107.5 -38t-40.5 -95zM233 38q79 0 129 43.5t50 118.5q0 44 -29 71.5t-98 54.5l-32 12q-155 -59 -155 -183q0 -55 36.5 -86t98.5 -31z" />
    <glyph glyph-name="nine" unicode="9" horiz-adv-x="515" 
d="M304 676q88 0 132 -53.5t44 -149.5q0 -64 -9 -119t-35 -114.5t-69 -106t-115 -87.5t-168 -66l-11 46q144 43 227.5 116.5t109.5 200.5q-74 -95 -176 -95q-70 0 -113.5 49t-43.5 129q0 44 13.5 86.5t39.5 80t71.5 60.5t102.5 23zM244 297q93 0 173 104q5 48 5 72
q0 155 -119 155q-46 0 -80.5 -20t-52.5 -52t-26.5 -65.5t-8.5 -66.5q0 -60 29 -93.5t80 -33.5z" />
    <glyph glyph-name="colon" unicode=":" horiz-adv-x="208" 
d="M123 379q-19 0 -31 13t-12 31q0 22 15 37t36 15q20 0 32 -12.5t12 -31.5q0 -22 -15 -37t-37 -15zM68 -11q-19 0 -31 12.5t-12 31.5q0 22 14.5 37t36.5 15q20 0 32 -12.5t12 -31.5q0 -22 -15 -37t-37 -15z" />
    <glyph glyph-name="semicolon" unicode=";" horiz-adv-x="209" 
d="M125 379q-19 0 -31 13t-12 31q0 22 14.5 37t36.5 15q20 0 32 -12.5t12 -31.5q0 -22 -15 -37t-37 -15zM75 85q20 0 32 -12.5t12 -31.5q0 -24 -21 -60l-75 -132h-43l62 148q-18 11 -18 36q0 21 15 36.5t36 15.5z" />
    <glyph glyph-name="less" unicode="&#x3c;" horiz-adv-x="494" 
d="M446 529l17 -51l-338 -146l295 -149l-28 -48l-323 170l8 56z" />
    <glyph glyph-name="equal" unicode="=" horiz-adv-x="492" 
d="M88 393l7 51h353l-7 -51h-353zM63 218l7 51h354l-8 -51h-353z" />
    <glyph glyph-name="greater" unicode="&#x3e;" horiz-adv-x="494" 
d="M122 529l323 -168l-8 -56l-370 -170l-16 49l338 152l-295 144z" />
    <glyph glyph-name="question" unicode="?" horiz-adv-x="445" 
d="M291 696q74 0 114.5 -36t40.5 -92q0 -50 -24 -87t-59 -59t-69.5 -41.5t-58.5 -48t-24 -65.5q0 -20 5 -40l-52 -11q-10 28 -10 55q0 45 24 78.5t58 54.5t67.5 41t57.5 50.5t24 70.5q0 38 -26 59.5t-72 21.5q-85 0 -162 -77l-37 35q91 91 203 91zM179 -11q-19 0 -31 12.5
t-12 30.5q0 22 14.5 37t36.5 15q20 0 32 -12.5t12 -31.5q0 -22 -15 -36.5t-37 -14.5z" />
    <glyph glyph-name="at" unicode="@" horiz-adv-x="1017" 
d="M572 696q176 0 273 -95.5t97 -245.5q0 -58 -12.5 -115t-37.5 -110t-70 -85.5t-103 -32.5q-50 0 -78 30.5t-31 77.5q-60 -106 -158 -106q-64 0 -104.5 45.5t-40.5 125.5q0 51 13.5 101t41 95.5t77 74t113.5 28.5q73 0 141 -37l-36 -269q-17 -119 61 -119q43 0 77 28.5
t52.5 74.5t27.5 96t9 99q0 133 -81.5 211t-231.5 78q-93 0 -168.5 -30.5t-124.5 -78.5t-82 -111t-47 -124.5t-14 -122.5q0 -150 91.5 -242t245.5 -92q102 0 194 34l12 -49q-110 -35 -208 -35q-174 0 -284 106t-110 278q0 67 16 136t54.5 138.5t93.5 122.5t141.5 86.5
t190.5 33.5zM459 60q48 0 85.5 33.5t57.5 77.5l35 248q-40 20 -84 20q-52 0 -90.5 -25t-59 -65.5t-30 -82.5t-9.5 -85q0 -59 25 -90t70 -31z" />
    <glyph glyph-name="A" unicode="A" horiz-adv-x="562" 
d="M447 0l-33 187h-287l-86 -187h-62l324 685h75l131 -685h-62zM151 238h254l-71 397z" />
    <glyph glyph-name="B" unicode="B" horiz-adv-x="595" 
d="M394 362q140 -18 140 -144q0 -93 -64 -155.5t-209 -62.5h-188l97 685h170q96 0 151.5 -38t55.5 -113q0 -69 -42 -114.5t-111 -57.5zM342 635h-119l-35 -250h131q78 0 122.5 40.5t44.5 107.5q0 102 -144 102zM265 51q113 0 160 47.5t47 120.5q0 60 -40 88.5t-108 28.5
h-143l-40 -285h124z" />
    <glyph glyph-name="C" unicode="C" horiz-adv-x="547" 
d="M399 696q100 0 170 -64l-35 -36q-61 49 -133 49q-57 0 -104 -25t-76.5 -64.5t-50 -91t-29 -102.5t-8.5 -102q0 -108 48 -163t128 -55q49 0 85 14.5t75 43.5l29 -42q-87 -69 -193 -69t-170 71.5t-64 202.5q0 57 11 115.5t36.5 116t62 102t93 72t125.5 27.5z" />
    <glyph glyph-name="D" unicode="D" horiz-adv-x="630" 
d="M304 685q58 0 104 -11t87.5 -37.5t64 -79t22.5 -128.5q0 -85 -19.5 -158.5t-60.5 -136t-112.5 -98.5t-167.5 -36h-149l97 685h134zM308 635h-85l-82 -585h89q79 0 137.5 33.5t91 90t47.5 120.5t15 136q0 52 -12.5 89.5t-32 59.5t-48.5 35t-57 17t-63 4z" />
    <glyph glyph-name="E" unicode="E" horiz-adv-x="510" 
d="M516 685l-14 -50h-279l-36 -255h242l-7 -50h-242l-40 -279h294l-7 -51h-354l97 685h346z" />
    <glyph glyph-name="F" unicode="F" horiz-adv-x="478" 
d="M510 685l-14 -50h-273l-38 -267h237l-7 -50h-237l-45 -318h-60l97 685h340z" />
    <glyph glyph-name="G" unicode="G" horiz-adv-x="615" 
d="M406 696q106 0 183 -69l-38 -34q-64 52 -145 52q-68 0 -122 -35.5t-85.5 -93t-48 -125t-16.5 -138.5q0 -212 182 -212q78 0 147 36l35 242h-132l-1 51h199l-44 -323q-98 -58 -210 -58t-175.5 69.5t-63.5 201.5q0 78 20.5 153.5t60.5 139.5t106 103.5t148 39.5z" />
    <glyph glyph-name="H" unicode="H" horiz-adv-x="668" 
d="M133 0h-60l97 685h60l-42 -299h327l42 299h60l-97 -685h-60l47 335h-327z" />
    <glyph glyph-name="I" unicode="I" horiz-adv-x="281" 
d="M230 685l-97 -685h-60l97 685h60z" />
    <glyph glyph-name="J" unicode="J" horiz-adv-x="289" 
d="M243 685l-83 -595q-12 -88 -52 -132t-131 -78l-13 46q71 30 99 65.5t37 105.5l83 588h60z" />
    <glyph glyph-name="K" unicode="K" horiz-adv-x="545" 
d="M73 0l97 685h60l-96 -685h-61zM437 0l-248 367l327 318h72l-330 -320l250 -365h-71z" />
    <glyph glyph-name="L" unicode="L" horiz-adv-x="472" 
d="M230 685l-89 -631h285l-16 -54h-337l97 685h60z" />
    <glyph glyph-name="M" unicode="M" horiz-adv-x="768" 
d="M692 685l-30 -685h-58l15 330q6 165 16 297l-248 -546h-57l-101 545q-11 -69 -64 -298l-75 -328h-58l161 685h79l96 -533l237 533h87z" />
    <glyph glyph-name="N" unicode="N" horiz-adv-x="670" 
d="M619 685l-96 -685h-77l-236 631q-3 -94 -26 -251l-54 -380h-57l97 685h78l236 -629q3 101 20 215l58 414h57z" />
    <glyph glyph-name="O" unicode="O" horiz-adv-x="688" 
d="M404 696q110 0 173 -70.5t63 -201.5q0 -73 -17.5 -144.5t-54 -139t-103.5 -109.5t-156 -42q-110 0 -174 71t-64 202q0 55 10.5 112t35.5 115.5t62 104t95.5 74t129.5 28.5zM401 645q-73 0 -128 -38.5t-83.5 -99.5t-42 -123t-13.5 -124q0 -110 46.5 -164.5t129.5 -54.5
q60 0 108.5 26t77.5 66.5t48 93.5t26.5 102.5t7.5 97.5q0 109 -46 163.5t-131 54.5z" />
    <glyph glyph-name="P" unicode="P" horiz-adv-x="567" 
d="M328 685q229 0 229 -173q0 -49 -14.5 -90.5t-46 -77.5t-89.5 -56.5t-136 -20.5h-100l-38 -267h-60l97 685h158zM274 317q219 0 219 195q0 66 -42.5 95t-126.5 29h-101l-45 -319h96z" />
    <glyph glyph-name="Q" unicode="Q" horiz-adv-x="678" 
d="M640 424q0 -59 -11.5 -117.5t-35.5 -116.5t-67 -103t-100 -65q111 -5 179 -67l-44 -48q-47 47 -102.5 64.5t-149.5 17.5q-110 0 -174 71t-64 202q0 55 10.5 112t35.5 115.5t62 104t95.5 74t129.5 28.5q110 0 173 -70.5t63 -201.5zM134 256q0 -107 46.5 -161t129.5 -54
q61 0 109 26t77 67t48 94.5t26.5 103.5t7.5 100q0 106 -46.5 159.5t-130.5 53.5q-73 0 -128 -38.5t-83.5 -100t-42 -124.5t-13.5 -126z" />
    <glyph glyph-name="R" unicode="R" horiz-adv-x="587" 
d="M554 524q0 -71 -44 -129t-137 -79l144 -316h-67l-136 307h-138l-43 -307h-60l97 685h168q216 0 216 -161zM183 356h119q100 0 144.5 50t44.5 118q0 58 -37.5 85t-119.5 27h-111z" />
    <glyph glyph-name="S" unicode="S" horiz-adv-x="536" 
d="M324 696q112 0 187 -77l-38 -37q-60 63 -149 63q-72 0 -117 -35.5t-45 -93.5q0 -47 30.5 -74t108.5 -53q87 -27 130.5 -68.5t43.5 -115.5q0 -85 -64.5 -150.5t-189.5 -65.5q-127 0 -208 88l38 36q69 -72 171 -72q93 0 142 47.5t49 113.5q0 52 -31 82.5t-108 56.5
q-92 31 -132 69t-40 104q0 73 60 127.5t162 54.5z" />
    <glyph glyph-name="T" unicode="T" horiz-adv-x="493" 
d="M543 685l-15 -53h-200l-89 -632h-60l89 632h-202l8 53h469z" />
    <glyph glyph-name="U" unicode="U" horiz-adv-x="649" 
d="M608 685l-66 -473q-14 -102 -79 -162.5t-174 -60.5q-111 0 -160.5 62t-34.5 165l66 469h60l-66 -468q-24 -176 137 -176q84 0 132 47.5t60 132.5l65 464h60z" />
    <glyph glyph-name="V" unicode="V" horiz-adv-x="544" 
d="M587 685l-319 -685h-67l-126 685h63l104 -622l282 622h63z" />
    <glyph glyph-name="W" unicode="W" horiz-adv-x="807" 
d="M836 685l-246 -685h-75l-62 617l-236 -617h-73l-54 685h59l41 -628l238 628h68l63 -629l220 629h57z" />
    <glyph glyph-name="X" unicode="X" horiz-adv-x="512" 
d="M533 685l-229 -315l160 -370h-65l-134 327l-225 -327h-67l260 369l-143 316h66l115 -276l196 276h66z" />
    <glyph glyph-name="Y" unicode="Y" horiz-adv-x="520" 
d="M567 685l-275 -417l-38 -268h-61l38 267l-158 418h63l131 -362l233 362h67z" />
    <glyph glyph-name="Z" unicode="Z" horiz-adv-x="513" 
d="M-2 0l7 50l445 583h-326l7 52h395l-7 -50l-443 -582h354l-15 -53h-417z" />
    <glyph glyph-name="bracketleft" unicode="[" horiz-adv-x="314" 
d="M326 807l-7 -48h-112l-116 -824h112l-6 -47h-166l129 919h166z" />
    <glyph glyph-name="backslash" unicode="\" horiz-adv-x="517" 
d="M243 802l106 -890l-51 -12l-105 891z" />
    <glyph glyph-name="bracketright" unicode="]" horiz-adv-x="314" 
d="M308 807l-129 -919h-166l6 47h112l117 824h-112l6 48h166z" />
    <glyph glyph-name="asciicircum" unicode="^" horiz-adv-x="528" 
d="M369 832l141 -305h-64l-108 248l-179 -248h-66l227 305h49z" />
    <glyph glyph-name="underscore" unicode="_" horiz-adv-x="517" 
d="M-26 -122l7 51h462l-7 -51h-462z" />
    <glyph glyph-name="grave" unicode="`" horiz-adv-x="270" 
d="M126 783l173 -105l-20 -33l-183 85z" />
    <glyph glyph-name="a" unicode="a" horiz-adv-x="560" 
d="M327 534q85 0 168 -43l-55 -377q-5 -36 1 -54.5t30 -29.5l-17 -41q-35 8 -53 29.5t-17 65.5q-65 -95 -161 -95q-78 0 -121.5 54.5t-43.5 148.5q0 57 15 114t45 109.5t84.5 85.5t124.5 33zM329 487q-54 0 -96.5 -28.5t-66 -74t-35 -94.5t-11.5 -98q0 -76 29 -115t83 -39
q86 0 156 110l45 315q-48 24 -104 24z" />
    <glyph glyph-name="b" unicode="b" horiz-adv-x="571" 
d="M354 534q75 0 117 -51.5t42 -146.5q0 -58 -14.5 -115.5t-44 -111t-84.5 -87t-128 -33.5q-76 0 -171 34l101 713l58 8l-40 -286q76 76 164 76zM342 485q-80 0 -160 -87l-47 -339q53 -21 110 -21q56 0 98.5 29.5t65 77t33.5 96.5t11 98q0 146 -111 146z" />
    <glyph glyph-name="c" unicode="c" horiz-adv-x="467" 
d="M320 534q87 0 141 -54l-33 -37q-45 42 -109 42q-53 0 -93.5 -28t-62.5 -73t-32.5 -92.5t-10.5 -94.5q0 -79 34.5 -118t96.5 -39q64 0 129 44l25 -41q-71 -54 -157 -54q-88 0 -138 55.5t-50 155.5q0 55 14.5 110.5t43.5 107t81.5 84t120.5 32.5z" />
    <glyph glyph-name="d" unicode="d" horiz-adv-x="576" 
d="M482 743l57 -7l-104 -736h-50l8 106q-68 -117 -173 -117q-76 0 -118.5 55t-42.5 151q0 55 13.5 111t40.5 109t76.5 86t114.5 33q89 0 138 -72zM312 486q-51 0 -90.5 -29t-60.5 -75t-31 -94t-10 -96q0 -75 28.5 -114.5t79.5 -39.5q54 0 94 36t81 107l33 228
q-46 77 -124 77z" />
    <glyph glyph-name="e" unicode="e" horiz-adv-x="513" 
d="M481 408q0 -65 -47.5 -108.5t-124 -64t-189.5 -29.5v-6q0 -160 133 -160q75 0 148 52l26 -41q-86 -62 -178 -62q-90 0 -140 55t-50 155q0 58 15.5 114.5t46 107t84 82t121.5 31.5q73 0 114 -35.5t41 -90.5zM326 486q-47 0 -84.5 -20.5t-61 -55.5t-37.5 -74.5t-20 -83.5
q150 12 224 48t74 106q0 34 -24 57t-71 23z" />
    <glyph glyph-name="f" unicode="f" horiz-adv-x="319" 
d="M320 695q-91 0 -103 -89l-12 -83h137l-13 -47h-130l-64 -459q-10 -68 -32 -110t-51.5 -64t-85.5 -47l-18 45q41 19 63.5 36t40 51.5t25.5 90.5l63 457h-90l7 47h90l12 87q9 62 51.5 98t107.5 36q63 0 121 -36l-23 -40q-46 27 -96 27z" />
    <glyph glyph-name="g" unicode="g" horiz-adv-x="565" 
d="M331 534q85 0 168 -43l-71 -487q-31 -211 -219 -211q-90 0 -173 49l23 45q74 -43 148 -43q141 0 164 159l12 87q-65 -90 -158 -90q-77 0 -121 54t-45 146q0 57 15.5 113t46 107t85 82.5t125.5 31.5zM331 487q-55 0 -97 -27t-66 -71t-35.5 -92.5t-11.5 -96.5
q0 -73 30 -112t83 -39q86 0 159 109l44 305q-48 24 -106 24z" />
    <glyph glyph-name="h" unicode="h" horiz-adv-x="578" 
d="M374 534q69 0 100.5 -43t20.5 -120l-53 -371h-58l52 367q17 118 -73 118q-103 0 -194 -172l-44 -313h-58l104 736l58 7l-49 -347q79 138 194 138z" />
    <glyph glyph-name="i" unicode="i" horiz-adv-x="266" 
d="M193 669q-18 0 -29 10.5t-11 27.5q0 20 13.5 33t33.5 13q18 0 29 -10.5t11 -27.5q0 -20 -13.5 -33t-33.5 -13zM199 523l-74 -523h-58l74 523h58z" />
    <glyph glyph-name="j" unicode="j" horiz-adv-x="268" 
d="M195 669q-18 0 -29 10.5t-11 27.5q0 20 13.5 33t33.5 13q18 0 29 -10.5t11 -27.5q0 -20 -13.5 -33t-33.5 -13zM-40 -204l-16 44q60 28 88 63t40 116l71 504h58l-72 -506q-13 -99 -49.5 -141.5t-119.5 -79.5z" />
    <glyph glyph-name="k" unicode="k" horiz-adv-x="521" 
d="M229 744l-48 -348q79 138 195 138q54 0 87 -30.5t33 -81.5q0 -131 -173 -186l119 -236h-64l-125 254q181 50 181 163q0 70 -71 70q-54 0 -104.5 -47.5t-90.5 -134.5l-43 -305h-58l104 736z" />
    <glyph glyph-name="l" unicode="l" horiz-adv-x="280" 
d="M224 744l-92 -656q-6 -49 33 -49q14 0 38 8l13 -44q-31 -14 -61 -14q-45 0 -66 27t-14 81l91 639z" />
    <glyph glyph-name="m" unicode="m" horiz-adv-x="845" 
d="M655 534q59 0 88.5 -43.5t18.5 -118.5l-52 -372h-58l52 367q16 118 -65 118q-85 0 -178 -171l-44 -314h-58l52 367q16 118 -64 118q-87 0 -178 -172l-44 -313h-58l74 523h49l-13 -129q82 140 185 140q51 0 81 -34t29 -96q83 130 183 130z" />
    <glyph glyph-name="n" unicode="n" horiz-adv-x="577" 
d="M375 534q67 0 98.5 -43.5t20.5 -121.5l-52 -369h-58l52 367q17 118 -74 118q-100 0 -193 -172l-44 -313h-58l74 523h49l-13 -130q83 141 198 141z" />
    <glyph glyph-name="o" unicode="o" horiz-adv-x="569" 
d="M249 -11q-90 0 -139.5 56t-49.5 156q0 42 8 85.5t27.5 88.5t48.5 80t74.5 57t102.5 22q91 0 140 -55t49 -155q0 -41 -7.5 -84.5t-27 -89t-48.5 -81t-75 -58t-103 -22.5zM251 38q54 0 95 29t62 75t31 93t10 93q0 158 -129 158q-55 0 -96 -29t-62.5 -75.5t-31.5 -93.5
t-10 -92q0 -78 34 -118t97 -40z" />
    <glyph glyph-name="p" unicode="p" horiz-adv-x="570" 
d="M38 -207l103 730h50l-5 -71q76 82 168 82q75 0 116.5 -51.5t41.5 -146.5q0 -58 -14 -115.5t-43.5 -111t-84.5 -87t-127 -33.5q-59 0 -117 21l-30 -209zM245 38q56 0 98.5 29.5t65 77t33 96.5t10.5 98q0 146 -110 146q-47 0 -84 -22.5t-76 -64.5l-48 -339q53 -21 111 -21z
" />
    <glyph glyph-name="q" unicode="q" horiz-adv-x="565" 
d="M342 -207l39 285q-27 -40 -68.5 -64.5t-89.5 -24.5q-78 0 -121.5 54.5t-43.5 148.5q0 57 15 114t45 109.5t84.5 85.5t124.5 33q88 0 171 -43l-98 -690zM232 38q88 0 158 110l46 315q-48 24 -107 24q-54 0 -96.5 -28.5t-66 -74t-35 -94.5t-11.5 -98q0 -76 29 -115t83 -39z
" />
    <glyph glyph-name="r" unicode="r" horiz-adv-x="370" 
d="M344 534q27 0 50 -7l-17 -55q-16 6 -41 6q-55 0 -94.5 -45t-73.5 -135l-43 -298h-58l74 523h50l-14 -127q63 138 167 138z" />
    <glyph glyph-name="s" unicode="s" horiz-adv-x="455" 
d="M258 534q92 0 160 -59l-31 -35q-58 45 -130 45q-56 0 -89.5 -23.5t-33.5 -64.5q0 -34 25 -55.5t89 -40.5q78 -24 112.5 -59t34.5 -92q0 -72 -55.5 -116.5t-148.5 -44.5q-110 0 -185 71l34 34q68 -56 152 -56q67 0 104.5 29.5t37.5 77.5q0 42 -25.5 65t-94.5 45
q-77 24 -108.5 56.5t-31.5 82.5q0 58 50 99t134 41z" />
    <glyph glyph-name="t" unicode="t" horiz-adv-x="339" 
d="M193 476l-49 -347q-12 -90 60 -90q38 0 85 25l20 -43q-54 -32 -112 -32q-60 0 -90.5 36.5t-20.5 103.5l49 347h-88l7 47h89l29 127l46 5l-19 -132h135l-14 -47h-127z" />
    <glyph glyph-name="u" unicode="u" horiz-adv-x="573" 
d="M204 -11q-67 0 -99.5 43t-21.5 119l52 372h58l-52 -370q-17 -116 74 -116q104 0 188 165l45 321h58l-74 -523h-48l14 133q-79 -144 -194 -144z" />
    <glyph glyph-name="v" unicode="v" horiz-adv-x="468" 
d="M490 523l-255 -523h-71l-112 523h63l91 -471l219 471h65z" />
    <glyph glyph-name="w" unicode="w" horiz-adv-x="696" 
d="M707 523l-200 -523h-78l-49 469l-183 -469h-77l-57 523h57l46 -478l187 478h68l51 -478l178 478h57z" />
    <glyph glyph-name="x" unicode="x" horiz-adv-x="457" 
d="M461 523l-195 -247l143 -276h-65l-118 241l-184 -241h-69l223 281l-125 242h64l100 -209l158 209h68z" />
    <glyph glyph-name="y" unicode="y" horiz-adv-x="465" 
d="M487 523l-249 -527q-43 -90 -96 -136.5t-147 -63.5l-3 46q77 18 113.5 50.5t75.5 107.5h-22l-107 523h62l89 -479l222 479h62z" />
    <glyph glyph-name="z" unicode="z" horiz-adv-x="409" 
d="M418 523l-6 -45l-347 -428h284l-13 -50h-351l7 45l346 427h-262l7 51h335z" />
    <glyph glyph-name="braceleft" unicode="{" horiz-adv-x="323" 
d="M338 828l-3 -45q-47 0 -70.5 -19t-29.5 -61l-35 -253q-7 -50 -27 -71t-62 -31q37 -10 52 -31.5t8 -71.5l-36 -253q-6 -41 11 -58.5t64 -17.5l-3 -46q-142 0 -125 128l36 255q5 39 -11 55t-57 16l7 50q78 0 89 76l35 255q10 66 46 94.5t111 28.5z" />
    <glyph glyph-name="bar" unicode="|" horiz-adv-x="404" 
d="M305 804l-126 -904h-55l127 904h54z" />
    <glyph glyph-name="braceright" unicode="}" horiz-adv-x="323" 
d="M10 -130l3 46q47 0 70 19t29 61l36 253q7 50 27 71t62 31q-38 10 -53 31.5t-8 70.5l37 253q5 42 -11.5 59.5t-63.5 17.5l3 45q142 0 125 -127l-36 -255q-6 -39 10 -55t57 -16l-6 -50q-78 0 -89 -76l-36 -255q-9 -66 -46 -95t-110 -29z" />
    <glyph glyph-name="asciitilde" unicode="~" horiz-adv-x="469" 
d="M314 264q-34 0 -78.5 29t-65.5 29q-39 0 -80 -49l-35 23q27 35 54 55t65 20q34 0 78 -29t65 -29q39 0 78 46l34 -23q-52 -72 -115 -72z" />
    <glyph glyph-name="uni00A0" unicode="&#xa0;" horiz-adv-x="277" 
 />
    <glyph glyph-name="exclamdown" unicode="&#xa1;" horiz-adv-x="238" 
d="M142 379q-19 0 -31.5 13t-12.5 31q0 22 15 37t37 15q20 0 32 -12.5t12 -31.5q0 -22 -15 -37t-37 -15zM148 249l-59 -446h-62l68 446h53z" />
    <glyph glyph-name="cent" unicode="&#xa2;" horiz-adv-x="467" 
d="M319 485q-53 0 -93.5 -28t-62.5 -73t-32.5 -92.5t-10.5 -94.5q0 -79 34.5 -118t96.5 -39q64 0 129 44l25 -41q-66 -51 -147 -54l-19 -139h-51l20 142q-70 12 -109 66t-39 142q0 51 12.5 103t38 101.5t71 84.5t103.5 43l21 148h50l-20 -146q76 -5 125 -54l-33 -37
q-45 42 -109 42z" />
    <glyph glyph-name="sterling" unicode="&#xa3;" horiz-adv-x="506" 
d="M359 676q98 0 154 -77l-41 -29q-41 57 -111 57q-57 0 -93 -35.5t-44 -94.5l-17 -123h212l-6 -43h-212l-23 -161q-7 -49 -24.5 -74.5t-56.5 -44.5h325l-15 -51h-394l6 49q52 22 73.5 47t28.5 77l22 158h-65l6 43h65l18 127q11 78 61 126.5t131 48.5z" />
    <glyph glyph-name="currency" unicode="&#xa4;" horiz-adv-x="560" 
d="M473 341q0 -73 -41 -125l79 -78l-36 -36l-80 78q-49 -34 -115 -34q-67 0 -114 36l-81 -80l-36 36l80 79q-40 52 -40 124q0 69 39 122l-79 80l36 36l80 -80q49 36 115 36t116 -34l79 78l36 -36l-78 -78q40 -52 40 -124zM281 194q66 0 100.5 39.5t34.5 107.5t-34.5 108
t-100.5 40q-65 0 -100 -40t-35 -108t35 -107.5t100 -39.5z" />
    <glyph glyph-name="yen" unicode="&#xa5;" horiz-adv-x="509" 
d="M553 665l-238 -327h116l-7 -43h-134l-14 -103h134l-6 -43h-135l-21 -149h-59l21 149h-135l6 43h136l14 103h-136l7 43h117l-149 327h65l133 -313l222 313h63z" />
    <glyph glyph-name="brokenbar" unicode="&#xa6;" horiz-adv-x="404" 
d="M305 804l-50 -361h-55l51 361h54zM229 262l-50 -362h-55l51 362h54z" />
    <glyph glyph-name="section" unicode="&#xa7;" horiz-adv-x="530" 
d="M326 628q-63 0 -92 -25.5t-29 -64.5q0 -35 23 -56t89 -45q72 -26 103.5 -57.5t31.5 -77.5q0 -43 -23 -75.5t-75 -63.5q44 -34 44 -89q0 -58 -48 -100t-142 -42q-89 0 -159 47l27 40q56 -39 135 -39q68 0 98 26t30 66q0 34 -23 54.5t-87 43.5q-76 27 -107.5 56.5
t-31.5 78.5q0 83 101 140q-44 34 -44 90q0 62 49.5 101t129.5 39q88 0 157 -50l-27 -37q-62 40 -130 40zM394 296q0 32 -21.5 54.5t-78.5 43.5q-38 13 -69 29q-42 -27 -59.5 -53t-17.5 -60q0 -33 21.5 -54.5t78.5 -41.5q41 -14 70 -29q44 28 60 53.5t16 57.5z" />
    <glyph glyph-name="dieresis" unicode="&#xa8;" horiz-adv-x="329" 
d="M129 663q-16 0 -26.5 10t-10.5 25q0 19 12.5 31.5t31.5 12.5q16 0 26.5 -10t10.5 -26q0 -18 -12.5 -30.5t-31.5 -12.5zM317 663q-16 0 -26.5 10t-10.5 25q0 19 13 31.5t32 12.5q16 0 26 -10t10 -26q0 -18 -12.5 -30.5t-31.5 -12.5z" />
    <glyph glyph-name="copyright" unicode="&#xa9;" horiz-adv-x="810" 
d="M430 736q126 0 211 -85t85 -216t-85 -216.5t-211 -85.5q-127 0 -212 85t-85 217q0 131 85 216t212 85zM431 697q-111 0 -182 -73t-71 -189q0 -117 71 -189.5t182 -72.5q109 0 180 73.5t71 188.5q0 116 -71 189t-180 73zM431 616q57 0 102 -35l-24 -33q-34 25 -76 25
q-40 0 -69 -33t-29 -104q0 -68 27 -103t72 -35q42 0 83 30l23 -34q-47 -40 -108 -40q-66 0 -107.5 49t-41.5 133q0 86 44 133t104 47z" />
    <glyph glyph-name="ordfeminine" unicode="&#xaa;" horiz-adv-x="502" 
d="M212 274q-55 0 -86 30.5t-31 78.5q0 60 47 99t145 39h77l5 33q7 46 -11 65t-65 19q-52 0 -118 -22l-12 43q73 26 139 26q139 0 124 -128l-25 -184q-2 -15 -2.5 -26t6 -20t19.5 -14l-16 -39q-28 6 -42.5 20t-18.5 43q-53 -63 -135 -63zM222 319q75 0 124 69l13 93h-72
q-69 0 -101 -26t-32 -70q0 -31 17.5 -48.5t50.5 -17.5zM38 0l7 51h354l-7 -51h-354z" />
    <glyph glyph-name="guillemotleft" unicode="&#xab;" horiz-adv-x="553" 
d="M267 520l35 -25l-166 -207l108 -208l-38 -24l-134 211l4 40zM480 520l35 -25l-166 -207l108 -208l-38 -24l-134 211l5 40z" />
    <glyph glyph-name="logicalnot" unicode="&#xac;" horiz-adv-x="497" 
d="M439 346l-24 -178h-57l18 127h-302l6 51h359z" />
    <glyph glyph-name="uni00AD" unicode="&#xad;" horiz-adv-x="398" 
d="M70 288l8 50h263l-7 -50h-264z" />
    <glyph glyph-name="registered" unicode="&#xae;" horiz-adv-x="639" 
d="M353 737q101 0 170.5 -69t69.5 -171q0 -100 -69.5 -170.5t-170.5 -70.5t-170.5 69t-69.5 170t70 171.5t170 70.5zM353 293q85 0 142.5 58.5t57.5 145.5q0 88 -57 145.5t-143 57.5q-84 0 -142 -59t-58 -146t57.5 -144.5t142.5 -57.5zM452 555q0 -57 -63 -74l74 -117h-51
l-64 111h-36v-111h-42v272h69q113 0 113 -81zM312 601v-91h39q58 0 58 45q0 25 -15.5 35.5t-48.5 10.5h-33z" />
    <glyph glyph-name="macron" unicode="&#xaf;" horiz-adv-x="300" 
d="M328 676h-240l7 47h240z" />
    <glyph glyph-name="degree" unicode="&#xb0;" horiz-adv-x="518" 
d="M238 395q-58 0 -94.5 34t-36.5 95q0 74 49 123t117 49q58 0 94.5 -34t36.5 -95q0 -74 -49 -123t-117 -49zM239 439q50 0 82 35.5t32 93.5q0 41 -21.5 62.5t-59.5 21.5q-50 0 -82 -35.5t-32 -93.5q0 -40 21.5 -62t59.5 -22z" />
    <glyph glyph-name="plusminus" unicode="&#xb1;" horiz-adv-x="491" 
d="M310 519l-22 -152h149l-7 -51h-149l-22 -152h-55l22 152h-149l7 51h149l21 152h56zM32 0l7 51h354l-7 -51h-354z" />
    <glyph glyph-name="uni00B2" unicode="&#xb2;" horiz-adv-x="397" 
d="M261 743q53 0 82.5 -28.5t29.5 -74.5q0 -42 -31 -88.5t-60.5 -73t-105.5 -89.5q-17 -15 -26 -22h197l-14 -44h-250l5 43q12 10 41.5 35.5t41 35t35 31t33.5 32t26.5 28t23.5 29.5t16 27t12 28.5t3 27.5q0 28 -17 44t-47 16q-51 0 -101 -48l-32 30q65 61 138 61z" />
    <glyph glyph-name="uni00B3" unicode="&#xb3;" horiz-adv-x="397" 
d="M264 744q53 0 83 -26t30 -67q0 -42 -27.5 -71.5t-72.5 -37.5q36 -2 59.5 -24.5t23.5 -60.5q0 -62 -45 -102t-114 -40q-79 0 -124 58l34 25q36 -40 90 -40q50 0 78.5 27.5t28.5 73.5q0 62 -79 62h-32l12 39h19q41 0 69 25t28 63q0 27 -17.5 41t-48.5 14q-49 0 -101 -37
l-25 31q61 47 131 47z" />
    <glyph glyph-name="acute" unicode="&#xb4;" horiz-adv-x="273" 
d="M289 783l20 -53l-206 -85l-15 33z" />
    <glyph glyph-name="uni00B5" unicode="&#xb5;" horiz-adv-x="581" 
d="M456 175q-14 -97 2 -176l-53 -7q-14 50 -11 108q-79 -111 -175 -111q-71 0 -96 51q1 -44 -10 -122l-16 -115l-58 -6l102 726h58l-53 -375q-8 -57 15 -83t65 -26q96 0 170 120l51 364h58z" />
    <glyph glyph-name="paragraph" unicode="&#xb6;" horiz-adv-x="706" 
d="M389 685h226l-124 -882l-54 -9l118 842h-131l-116 -833l-54 -9l71 500q-101 4 -148 48t-47 117q0 106 70.5 166t188.5 60z" />
    <glyph glyph-name="periodcentered" unicode="&#xb7;" horiz-adv-x="207" 
d="M108 271q-20 0 -32 12.5t-12 30.5q0 22 15 37t36 15q20 0 32 -12.5t12 -31.5q0 -22 -14.5 -36.5t-36.5 -14.5z" />
    <glyph glyph-name="cedilla" unicode="&#xb8;" horiz-adv-x="245" 
d="M89 16l-14 -80q83 -7 83 -73q0 -40 -31.5 -65t-81.5 -25q-49 0 -80 22l21 35q28 -15 59 -15q27 0 44.5 12t17.5 35t-18 32.5t-64 9.5l25 112h39z" />
    <glyph glyph-name="uni00B9" unicode="&#xb9;" horiz-adv-x="397" 
d="M323 737l-59 -414h-50l50 359l-109 -60l-20 36l144 79h44z" />
    <glyph glyph-name="ordmasculine" unicode="&#xba;" horiz-adv-x="497" 
d="M306 685q75 0 116 -42.5t41 -120.5q0 -107 -57 -177.5t-153 -70.5q-75 0 -116 43t-41 121q0 106 57 176.5t153 70.5zM305 638q-73 0 -111.5 -58.5t-38.5 -144.5q0 -56 25.5 -85t73.5 -29q73 0 111 59t38 146q0 112 -98 112zM35 0l7 51h354l-8 -51h-353z" />
    <glyph glyph-name="guillemotright" unicode="&#xbb;" horiz-adv-x="553" 
d="M140 520l135 -213l-5 -40l-191 -211l-35 24l166 208l-107 207zM353 520l135 -213l-4 -40l-192 -211l-34 24l165 208l-107 207z" />
    <glyph glyph-name="onequarter" unicode="&#xbc;" horiz-adv-x="906" 
d="M703 747l38 -20l-517 -798l-38 20zM207 271l50 359l-109 -60l-20 36l144 79h44l-59 -414h-50zM838 145l-6 -42h-55l-15 -103h-50l14 103h-187l5 37l168 281l42 -17l-155 -259h133l22 115h45l-16 -115h55z" />
    <glyph glyph-name="onehalf" unicode="&#xbd;" horiz-adv-x="906" 
d="M703 747l38 -20l-517 -798l-38 20zM316 685l-59 -414h-50l50 359l-109 -60l-20 36l144 79h44zM725 420q53 0 82.5 -28.5t29.5 -74.5q0 -42 -31 -88.5t-60.5 -73t-105.5 -89.5q-17 -15 -26 -22h197l-14 -44h-250l5 43q12 10 41.5 35.5t41 35t35 31t33.5 32t26.5 28
t23.5 29.5t16 27t12 28.5t3 27.5q0 28 -17 44t-47 16q-51 0 -101 -48l-32 30q65 61 138 61z" />
    <glyph glyph-name="threequarters" unicode="&#xbe;" horiz-adv-x="906" 
d="M703 747l38 -20l-517 -798l-38 20zM353 405q0 -62 -45 -102t-114 -40q-79 0 -124 58l34 25q36 -40 90 -40q50 0 78.5 27.5t28.5 73.5q0 62 -79 62h-32l12 39h19q41 0 69 25t28 63q0 27 -17.5 41t-48.5 14q-49 0 -101 -37l-25 31q61 47 131 47q53 0 83 -26t30 -67
q0 -42 -27.5 -71.5t-72.5 -37.5q36 -2 59.5 -24.5t23.5 -60.5zM838 145l-6 -42h-55l-15 -103h-50l14 103h-187l5 37l168 281l42 -17l-155 -259h133l22 115h45l-16 -115h55z" />
    <glyph glyph-name="questiondown" unicode="&#xbf;" horiz-adv-x="445" 
d="M261 505q19 0 31 -12.5t12 -30.5q0 -22 -14.5 -37t-36.5 -15q-20 0 -32 12.5t-12 31.5q0 22 15 36.5t37 14.5zM149 -207q-74 0 -114.5 36.5t-40.5 92.5q0 50 24 87t58.5 58.5t69.5 41t59 48t24 65.5q0 19 -5 41l52 10q10 -28 10 -54q0 -45 -24 -79t-58 -55t-67.5 -41
t-57.5 -50.5t-24 -70.5q0 -37 26 -58.5t72 -21.5q85 0 162 76l37 -35q-92 -91 -203 -91z" />
    <glyph glyph-name="Agrave" unicode="&#xc0;" horiz-adv-x="562" 
d="M464 791l-20 -33l-183 75l27 52zM447 0l-33 187h-287l-86 -187h-62l324 685h75l131 -685h-62zM151 238h254l-71 397z" />
    <glyph glyph-name="Aacute" unicode="&#xc1;" horiz-adv-x="562" 
d="M461 833l-206 -75l-14 34l200 94zM447 0l-33 187h-287l-86 -187h-62l324 685h75l131 -685h-62zM151 238h254l-71 397z" />
    <glyph glyph-name="Acircumflex" unicode="&#xc2;" horiz-adv-x="562" 
d="M360 842l-132 -80l-24 31l142 101h37l114 -102l-27 -30zM447 0l-33 187h-287l-86 -187h-62l324 685h75l131 -685h-62zM151 238h254l-71 397z" />
    <glyph glyph-name="Atilde" unicode="&#xc3;" horiz-adv-x="562" 
d="M306 838q-18 0 -31 -9.5t-32 -32.5l-34 22q46 66 98 66q27 0 60.5 -22.5t50.5 -22.5q28 0 62 44l35 -21q-44 -70 -96 -70q-29 0 -63 23t-50 23zM303 685h75l131 -685h-62l-33 187h-287l-86 -187h-62zM151 238h254l-71 397z" />
    <glyph glyph-name="Adieresis" unicode="&#xc4;" horiz-adv-x="562" 
d="M264 789q-16 0 -26.5 10t-10.5 25q0 19 13 31.5t32 12.5q16 0 26 -10t10 -26q0 -18 -12.5 -30.5t-31.5 -12.5zM453 789q-16 0 -26.5 10t-10.5 25q0 19 12.5 31.5t31.5 12.5q16 0 26.5 -10t10.5 -26q0 -18 -12.5 -30.5t-31.5 -12.5zM447 0l-33 187h-287l-86 -187h-62
l324 685h75l131 -685h-62zM151 238h254l-71 397z" />
    <glyph glyph-name="Aring" unicode="&#xc5;" horiz-adv-x="562" 
d="M355 759q-39 0 -64 23.5t-25 59.5q0 45 32 75t78 30q40 0 64.5 -23.5t24.5 -59.5q0 -45 -32 -75t-78 -30zM374 911q-30 0 -47 -20t-17 -48q0 -48 47 -48q30 0 47.5 20.5t17.5 47.5q0 48 -48 48zM447 0l-33 187h-287l-86 -187h-62l324 685h75l131 -685h-62zM151 238h254
l-71 397z" />
    <glyph glyph-name="AE" unicode="&#xc6;" horiz-adv-x="780" 
d="M732 635h-323l30 -256h257l-7 -50h-244l32 -278h228l-8 -51h-272l-20 184h-284l-95 -184h-64l363 685h422zM147 234h253l-44 403z" />
    <glyph glyph-name="Ccedilla" unicode="&#xc7;" horiz-adv-x="547" 
d="M401 645q-57 0 -104 -25t-76.5 -64.5t-50 -91t-29 -102.5t-8.5 -102q0 -108 48 -163t128 -55q49 0 85 14.5t75 43.5l29 -42q-82 -64 -176 -69l-9 -53q83 -7 83 -73q0 -40 -31.5 -65t-81.5 -25q-49 0 -80 22l21 35q28 -15 59 -15q27 0 44.5 12t17.5 35t-18 32.5t-64 9.5
l19 86q-96 8 -153.5 78.5t-57.5 194.5q0 57 11 115.5t36.5 116t62 102t93 72t125.5 27.5q100 0 170 -64l-35 -36q-61 49 -133 49z" />
    <glyph glyph-name="Egrave" unicode="&#xc8;" horiz-adv-x="510" 
d="M294 885l176 -94l-20 -33l-183 75zM516 685l-14 -50h-279l-36 -255h242l-7 -50h-242l-40 -279h294l-7 -51h-354l97 685h346z" />
    <glyph glyph-name="Eacute" unicode="&#xc9;" horiz-adv-x="510" 
d="M447 886l20 -53l-206 -75l-14 34zM516 685l-14 -50h-279l-36 -255h242l-7 -50h-242l-40 -279h294l-7 -51h-354l97 685h346z" />
    <glyph glyph-name="Ecircumflex" unicode="&#xca;" horiz-adv-x="510" 
d="M234 762l-24 31l142 101h37l114 -102l-27 -30l-110 80zM516 685l-14 -50h-279l-36 -255h242l-7 -50h-242l-40 -279h294l-7 -51h-354l97 685h346z" />
    <glyph glyph-name="Edieresis" unicode="&#xcb;" horiz-adv-x="510" 
d="M270 789q-16 0 -26.5 10t-10.5 25q0 19 13 31.5t32 12.5q16 0 26 -10t10 -26q0 -18 -12.5 -30.5t-31.5 -12.5zM459 789q-16 0 -26.5 10t-10.5 25q0 19 12.5 31.5t31.5 12.5q16 0 26.5 -10t10.5 -26q0 -18 -12.5 -30.5t-31.5 -12.5zM516 685l-14 -50h-279l-36 -255h242
l-7 -50h-242l-40 -279h294l-7 -51h-354l97 685h346z" />
    <glyph glyph-name="Igrave" unicode="&#xcc;" horiz-adv-x="281" 
d="M147 885l176 -94l-20 -33l-183 75zM230 685l-97 -685h-60l97 685h60z" />
    <glyph glyph-name="Iacute" unicode="&#xcd;" horiz-adv-x="281" 
d="M300 886l20 -53l-206 -75l-14 34zM230 685l-97 -685h-60l97 685h60z" />
    <glyph glyph-name="Icircumflex" unicode="&#xce;" horiz-adv-x="281" 
d="M87 762l-24 31l142 101h37l114 -102l-27 -30l-110 80zM230 685l-97 -685h-60l97 685h60z" />
    <glyph glyph-name="Idieresis" unicode="&#xcf;" horiz-adv-x="281" 
d="M123 789q-16 0 -26.5 10t-10.5 25q0 19 13 31.5t32 12.5q16 0 26 -10t10 -26q0 -18 -12.5 -30.5t-31.5 -12.5zM312 789q-16 0 -26.5 10t-10.5 25q0 19 12.5 31.5t31.5 12.5q16 0 26.5 -10t10.5 -26q0 -18 -12.5 -30.5t-31.5 -12.5zM230 685l-97 -685h-60l97 685h60z" />
    <glyph glyph-name="Eth" unicode="&#xd0;" horiz-adv-x="635" 
d="M309 685q58 0 104 -11t87.5 -37.5t64 -79t22.5 -128.5q0 -85 -19.5 -158.5t-60.5 -136t-112.5 -98.5t-167.5 -36h-149l47 329h-87l6 48h87l44 308h134zM235 50q79 0 137.5 33.5t91 90t47.5 120.5t15 136q0 52 -12.5 89.5t-32 59.5t-48.5 35t-57 17t-63 4h-85l-36 -258
h177l-6 -48h-178l-39 -279h89z" />
    <glyph glyph-name="Ntilde" unicode="&#xd1;" horiz-adv-x="670" 
d="M482 792q-29 0 -63 23t-50 23q-18 0 -31 -9.5t-32 -32.5l-34 22q46 66 98 66q27 0 60.5 -22.5t50.5 -22.5q28 0 62 44l35 -21q-44 -70 -96 -70zM619 685l-96 -685h-77l-236 631q-3 -94 -26 -251l-54 -380h-57l97 685h78l236 -629q3 101 20 215l58 414h57z" />
    <glyph glyph-name="Ograve" unicode="&#xd2;" horiz-adv-x="688" 
d="M352 885l176 -94l-20 -33l-183 75zM404 696q110 0 173 -70.5t63 -201.5q0 -73 -17.5 -144.5t-54 -139t-103.5 -109.5t-156 -42q-110 0 -174 71t-64 202q0 55 10.5 112t35.5 115.5t62 104t95.5 74t129.5 28.5zM401 645q-73 0 -128 -38.5t-83.5 -99.5t-42 -123t-13.5 -124
q0 -110 46.5 -164.5t129.5 -54.5q60 0 108.5 26t77.5 66.5t48 93.5t26.5 102.5t7.5 97.5q0 109 -46 163.5t-131 54.5z" />
    <glyph glyph-name="Oacute" unicode="&#xd3;" horiz-adv-x="688" 
d="M505 886l20 -53l-206 -75l-14 34zM404 696q110 0 173 -70.5t63 -201.5q0 -73 -17.5 -144.5t-54 -139t-103.5 -109.5t-156 -42q-110 0 -174 71t-64 202q0 55 10.5 112t35.5 115.5t62 104t95.5 74t129.5 28.5zM401 645q-73 0 -128 -38.5t-83.5 -99.5t-42 -123t-13.5 -124
q0 -110 46.5 -164.5t129.5 -54.5q60 0 108.5 26t77.5 66.5t48 93.5t26.5 102.5t7.5 97.5q0 109 -46 163.5t-131 54.5z" />
    <glyph glyph-name="Ocircumflex" unicode="&#xd4;" horiz-adv-x="688" 
d="M293 762l-24 31l142 101h37l114 -102l-27 -30l-110 80zM404 696q110 0 173 -70.5t63 -201.5q0 -73 -17.5 -144.5t-54 -139t-103.5 -109.5t-156 -42q-110 0 -174 71t-64 202q0 55 10.5 112t35.5 115.5t62 104t95.5 74t129.5 28.5zM401 645q-73 0 -128 -38.5t-83.5 -99.5
t-42 -123t-13.5 -124q0 -110 46.5 -164.5t129.5 -54.5q60 0 108.5 26t77.5 66.5t48 93.5t26.5 102.5t7.5 97.5q0 109 -46 163.5t-131 54.5z" />
    <glyph glyph-name="Otilde" unicode="&#xd5;" horiz-adv-x="688" 
d="M484 792q-29 0 -63 23t-50 23q-18 0 -31 -9.5t-32 -32.5l-34 22q46 66 98 66q27 0 60.5 -22.5t50.5 -22.5q28 0 62 44l35 -21q-44 -70 -96 -70zM404 696q110 0 173 -70.5t63 -201.5q0 -73 -17.5 -144.5t-54 -139t-103.5 -109.5t-156 -42q-110 0 -174 71t-64 202
q0 55 10.5 112t35.5 115.5t62 104t95.5 74t129.5 28.5zM401 645q-73 0 -128 -38.5t-83.5 -99.5t-42 -123t-13.5 -124q0 -110 46.5 -164.5t129.5 -54.5q60 0 108.5 26t77.5 66.5t48 93.5t26.5 102.5t7.5 97.5q0 109 -46 163.5t-131 54.5z" />
    <glyph glyph-name="Odieresis" unicode="&#xd6;" horiz-adv-x="688" 
d="M328 789q-16 0 -26.5 10t-10.5 25q0 19 13 31.5t32 12.5q16 0 26 -10t10 -26q0 -18 -12.5 -30.5t-31.5 -12.5zM517 789q-16 0 -26.5 10t-10.5 25q0 19 12.5 31.5t31.5 12.5q16 0 26.5 -10t10.5 -26q0 -18 -12.5 -30.5t-31.5 -12.5zM404 696q110 0 173 -70.5t63 -201.5
q0 -73 -17.5 -144.5t-54 -139t-103.5 -109.5t-156 -42q-110 0 -174 71t-64 202q0 55 10.5 112t35.5 115.5t62 104t95.5 74t129.5 28.5zM401 645q-73 0 -128 -38.5t-83.5 -99.5t-42 -123t-13.5 -124q0 -110 46.5 -164.5t129.5 -54.5q60 0 108.5 26t77.5 66.5t48 93.5
t26.5 102.5t7.5 97.5q0 109 -46 163.5t-131 54.5z" />
    <glyph glyph-name="multiply" unicode="&#xd7;" horiz-adv-x="491" 
d="M398 471l33 -37l-142 -127l108 -127l-42 -36l-106 127l-142 -127l-34 37l142 126l-107 128l42 36l104 -128z" />
    <glyph glyph-name="Oslash" unicode="&#xd8;" horiz-adv-x="688" 
d="M524 668q116 -64 116 -244q0 -73 -17.5 -144.5t-54 -139t-103.5 -109.5t-156 -42q-40 0 -78 11l-52 -120l-50 15l56 124q-114 65 -114 243q0 55 10.5 112t35.5 115.5t62 104t95.5 74t129.5 28.5q42 0 75 -10l53 124l50 -14zM134 256q0 -139 78 -190l250 571q-30 8 -61 8
q-73 0 -128 -38.5t-83.5 -100t-42 -124.5t-13.5 -126zM310 41q61 0 109 26t77 67t48 94.5t26.5 103.5t7.5 100q0 141 -80 190l-250 -572q29 -9 62 -9z" />
    <glyph glyph-name="Ugrave" unicode="&#xd9;" horiz-adv-x="649" 
d="M331 885l176 -94l-20 -33l-183 75zM608 685l-66 -473q-14 -102 -79 -162.5t-174 -60.5q-111 0 -160.5 62t-34.5 165l66 469h60l-66 -468q-24 -176 137 -176q84 0 132 47.5t60 132.5l65 464h60z" />
    <glyph glyph-name="Uacute" unicode="&#xda;" horiz-adv-x="649" 
d="M484 886l20 -53l-206 -75l-14 34zM608 685l-66 -473q-14 -102 -79 -162.5t-174 -60.5q-111 0 -160.5 62t-34.5 165l66 469h60l-66 -468q-24 -176 137 -176q84 0 132 47.5t60 132.5l65 464h60z" />
    <glyph glyph-name="Ucircumflex" unicode="&#xdb;" horiz-adv-x="649" 
d="M271 762l-24 31l142 101h37l114 -102l-27 -30l-110 80zM608 685l-66 -473q-14 -102 -79 -162.5t-174 -60.5q-111 0 -160.5 62t-34.5 165l66 469h60l-66 -468q-24 -176 137 -176q84 0 132 47.5t60 132.5l65 464h60z" />
    <glyph glyph-name="Udieresis" unicode="&#xdc;" horiz-adv-x="649" 
d="M307 789q-16 0 -26.5 10t-10.5 25q0 19 13 31.5t32 12.5q16 0 26 -10t10 -26q0 -18 -12.5 -30.5t-31.5 -12.5zM496 789q-16 0 -26.5 10t-10.5 25q0 19 12.5 31.5t31.5 12.5q16 0 26.5 -10t10.5 -26q0 -18 -12.5 -30.5t-31.5 -12.5zM608 685l-66 -473q-14 -102 -79 -162.5
t-174 -60.5q-111 0 -160.5 62t-34.5 165l66 469h60l-66 -468q-24 -176 137 -176q84 0 132 47.5t60 132.5l65 464h60z" />
    <glyph glyph-name="Yacute" unicode="&#xdd;" horiz-adv-x="520" 
d="M419 886l20 -53l-206 -75l-14 34zM567 685l-275 -417l-38 -268h-61l38 267l-158 418h63l131 -362l233 362h67z" />
    <glyph glyph-name="Thorn" unicode="&#xde;" horiz-adv-x="567" 
d="M311 563q228 0 228 -178q0 -47 -14 -88.5t-45 -79t-89.5 -59.5t-138.5 -22h-100l-19 -136h-60l97 685h60l-17 -122h98zM256 186q61 0 106 16.5t68.5 46t34.5 63t11 72.5q0 70 -42 99.5t-126 29.5h-102l-47 -327h97z" />
    <glyph glyph-name="germandbls" unicode="&#xdf;" horiz-adv-x="581" 
d="M-39 -204l-17 45q61 28 89 63t39 115l74 523q13 97 70 149.5t142 52.5q68 0 108 -33.5t40 -86.5q0 -43 -22.5 -75t-49 -48t-49 -38.5t-22.5 -46.5q0 -21 16 -39.5t39 -36t46 -38.5t39 -55.5t16 -77.5q0 -66 -49 -123t-139 -57q-60 0 -112 28l22 41q42 -20 86 -20
q67 0 100.5 41.5t33.5 88.5q0 36 -16 65.5t-38.5 49t-45 37.5t-38.5 40.5t-16 49.5q0 29 14.5 51.5t35.5 37.5t42.5 30.5t36 39t14.5 53.5q0 35 -25 54.5t-67 19.5q-61 0 -102.5 -40.5t-52.5 -119.5l-73 -519q-10 -68 -32 -110t-51.5 -64t-85.5 -47z" />
    <glyph glyph-name="agrave" unicode="&#xe0;" horiz-adv-x="560" 
d="M302 783l173 -105l-20 -33l-183 85zM327 534q85 0 168 -43l-55 -377q-5 -36 1 -54.5t30 -29.5l-17 -41q-35 8 -53 29.5t-17 65.5q-65 -95 -161 -95q-78 0 -121.5 54.5t-43.5 148.5q0 57 15 114t45 109.5t84.5 85.5t124.5 33zM329 487q-54 0 -96.5 -28.5t-66 -74
t-35 -94.5t-11.5 -98q0 -76 29 -115t83 -39q86 0 156 110l45 315q-48 24 -104 24z" />
    <glyph glyph-name="aacute" unicode="&#xe1;" horiz-adv-x="560" 
d="M455 783l20 -53l-206 -85l-15 33zM327 534q85 0 168 -43l-55 -377q-5 -36 1 -54.5t30 -29.5l-17 -41q-35 8 -53 29.5t-17 65.5q-65 -95 -161 -95q-78 0 -121.5 54.5t-43.5 148.5q0 57 15 114t45 109.5t84.5 85.5t124.5 33zM329 487q-54 0 -96.5 -28.5t-66 -74t-35 -94.5
t-11.5 -98q0 -76 29 -115t83 -39q86 0 156 110l45 315q-48 24 -104 24z" />
    <glyph glyph-name="acircumflex" unicode="&#xe2;" horiz-adv-x="560" 
d="M235 643l-26 31l144 106h36l114 -106l-28 -31l-110 85zM327 534q85 0 168 -43l-55 -377q-5 -36 1 -54.5t30 -29.5l-17 -41q-35 8 -53 29.5t-17 65.5q-65 -95 -161 -95q-78 0 -121.5 54.5t-43.5 148.5q0 57 15 114t45 109.5t84.5 85.5t124.5 33zM329 487
q-54 0 -96.5 -28.5t-66 -74t-35 -94.5t-11.5 -98q0 -76 29 -115t83 -39q86 0 156 110l45 315q-48 24 -104 24z" />
    <glyph glyph-name="atilde" unicode="&#xe3;" horiz-adv-x="560" 
d="M421 666q-29 0 -63 23t-50 23q-18 0 -31 -9.5t-32 -32.5l-33 22q45 66 97 66q27 0 60.5 -22.5t50.5 -22.5q30 0 62 44l36 -21q-44 -70 -97 -70zM327 534q85 0 168 -43l-55 -377q-5 -36 1 -54.5t30 -29.5l-17 -41q-35 8 -53 29.5t-17 65.5q-65 -95 -161 -95
q-78 0 -121.5 54.5t-43.5 148.5q0 57 15 114t45 109.5t84.5 85.5t124.5 33zM329 487q-54 0 -96.5 -28.5t-66 -74t-35 -94.5t-11.5 -98q0 -76 29 -115t83 -39q86 0 156 110l45 315q-48 24 -104 24z" />
    <glyph glyph-name="adieresis" unicode="&#xe4;" horiz-adv-x="560" 
d="M265 663q-16 0 -26.5 10t-10.5 25q0 19 12.5 31.5t31.5 12.5q16 0 26.5 -10t10.5 -26q0 -18 -12.5 -30.5t-31.5 -12.5zM453 663q-16 0 -26.5 10t-10.5 25q0 19 13 31.5t32 12.5q16 0 26 -10t10 -26q0 -18 -12.5 -30.5t-31.5 -12.5zM327 534q85 0 168 -43l-55 -377
q-5 -36 1 -54.5t30 -29.5l-17 -41q-35 8 -53 29.5t-17 65.5q-65 -95 -161 -95q-78 0 -121.5 54.5t-43.5 148.5q0 57 15 114t45 109.5t84.5 85.5t124.5 33zM329 487q-54 0 -96.5 -28.5t-66 -74t-35 -94.5t-11.5 -98q0 -76 29 -115t83 -39q86 0 156 110l45 315q-48 24 -104 24
z" />
    <glyph glyph-name="aring" unicode="&#xe5;" horiz-adv-x="560" 
d="M377 821q40 0 64.5 -23.5t24.5 -59.5q0 -45 -31.5 -75t-77.5 -30q-40 0 -64.5 23.5t-24.5 59.5q0 45 32 75t77 30zM376 785q-30 0 -47 -19.5t-17 -48.5q0 -48 46 -48q30 0 47.5 20t17.5 48q0 48 -47 48zM327 534q85 0 168 -43l-55 -377q-5 -36 1 -54.5t30 -29.5l-17 -41
q-35 8 -53 29.5t-17 65.5q-65 -95 -161 -95q-78 0 -121.5 54.5t-43.5 148.5q0 57 15 114t45 109.5t84.5 85.5t124.5 33zM329 487q-54 0 -96.5 -28.5t-66 -74t-35 -94.5t-11.5 -98q0 -76 29 -115t83 -39q86 0 156 110l45 315q-48 24 -104 24z" />
    <glyph glyph-name="ae" unicode="&#xe6;" horiz-adv-x="818" 
d="M284 534q127 0 155 -101q24 40 75.5 70.5t114.5 30.5q73 0 115 -35.5t42 -91.5q0 -65 -48.5 -108t-125.5 -63t-190 -29q0 -167 136 -167q74 0 147 52l27 -41q-87 -62 -178 -62q-128 0 -171 104q-84 -104 -199 -104q-69 0 -109.5 37t-40.5 99q0 77 58 128t183 51h102
q9 43 24 78q-2 47 -35 75t-88 28q-58 0 -143 -29l-13 45q86 33 162 33zM628 486q-89 0 -139.5 -69t-62.5 -164q151 12 225 47.5t74 104.5q0 34 -24.5 57.5t-72.5 23.5zM369 261h-89q-183 0 -183 -136q0 -89 94 -89q99 0 178 106q-10 51 0 119z" />
    <glyph glyph-name="ccedilla" unicode="&#xe7;" horiz-adv-x="467" 
d="M319 485q-53 0 -93.5 -28t-62.5 -73t-32.5 -92.5t-10.5 -94.5q0 -79 34.5 -118t96.5 -39q64 0 129 44l25 -41q-66 -51 -147 -54l-9 -53q83 -7 83 -73q0 -40 -31.5 -65t-81.5 -25q-49 0 -80 22l21 35q28 -15 59 -15q27 0 44.5 12t17.5 35t-18 32.5t-64 9.5l19 87
q-74 9 -116 63.5t-42 145.5q0 55 14.5 110.5t43.5 107t81.5 84t120.5 32.5q87 0 141 -54l-33 -37q-45 42 -109 42z" />
    <glyph glyph-name="egrave" unicode="&#xe8;" horiz-adv-x="513" 
d="M450 678l-20 -33l-183 85l30 53zM481 408q0 -65 -47.5 -108.5t-124 -64t-189.5 -29.5v-6q0 -160 133 -160q75 0 148 52l26 -41q-86 -62 -178 -62q-90 0 -140 55t-50 155q0 58 15.5 114.5t46 107t84 82t121.5 31.5q73 0 114 -35.5t41 -90.5zM326 486q-47 0 -84.5 -20.5
t-61 -55.5t-37.5 -74.5t-20 -83.5q150 12 224 48t74 106q0 34 -24 57t-71 23z" />
    <glyph glyph-name="eacute" unicode="&#xe9;" horiz-adv-x="513" 
d="M450 730l-206 -85l-15 33l201 105zM481 408q0 -65 -47.5 -108.5t-124 -64t-189.5 -29.5v-6q0 -160 133 -160q75 0 148 52l26 -41q-86 -62 -178 -62q-90 0 -140 55t-50 155q0 58 15.5 114.5t46 107t84 82t121.5 31.5q73 0 114 -35.5t41 -90.5zM326 486q-47 0 -84.5 -20.5
t-61 -55.5t-37.5 -74.5t-20 -83.5q150 12 224 48t74 106q0 34 -24 57t-71 23z" />
    <glyph glyph-name="ecircumflex" unicode="&#xea;" horiz-adv-x="513" 
d="M340 728l-130 -85l-26 31l144 106h36l114 -106l-28 -31zM481 408q0 -65 -47.5 -108.5t-124 -64t-189.5 -29.5v-6q0 -160 133 -160q75 0 148 52l26 -41q-86 -62 -178 -62q-90 0 -140 55t-50 155q0 58 15.5 114.5t46 107t84 82t121.5 31.5q73 0 114 -35.5t41 -90.5z
M326 486q-47 0 -84.5 -20.5t-61 -55.5t-37.5 -74.5t-20 -83.5q150 12 224 48t74 106q0 34 -24 57t-71 23z" />
    <glyph glyph-name="edieresis" unicode="&#xeb;" horiz-adv-x="513" 
d="M240 663q-16 0 -26.5 10t-10.5 25q0 19 12.5 31.5t31.5 12.5q16 0 26.5 -10t10.5 -26q0 -18 -12.5 -30.5t-31.5 -12.5zM428 663q-16 0 -26.5 10t-10.5 25q0 19 13 31.5t32 12.5q16 0 26 -10t10 -26q0 -18 -12.5 -30.5t-31.5 -12.5zM481 408q0 -65 -47.5 -108.5t-124 -64
t-189.5 -29.5v-6q0 -160 133 -160q75 0 148 52l26 -41q-86 -62 -178 -62q-90 0 -140 55t-50 155q0 58 15.5 114.5t46 107t84 82t121.5 31.5q73 0 114 -35.5t41 -90.5zM326 486q-47 0 -84.5 -20.5t-61 -55.5t-37.5 -74.5t-20 -83.5q150 12 224 48t74 106q0 34 -24 57t-71 23z
" />
    <glyph glyph-name="igrave" unicode="&#xec;" horiz-adv-x="266" 
d="M134 783l173 -105l-20 -33l-183 85zM199 523l-74 -523h-58l74 523h58z" />
    <glyph glyph-name="iacute" unicode="&#xed;" horiz-adv-x="266" 
d="M287 783l20 -53l-206 -85l-15 33zM199 523l-74 -523h-58l74 523h58z" />
    <glyph glyph-name="icircumflex" unicode="&#xee;" horiz-adv-x="266" 
d="M67 643l-26 31l144 106h36l114 -106l-28 -31l-110 85zM199 523l-74 -523h-58l74 523h58z" />
    <glyph glyph-name="idieresis" unicode="&#xef;" horiz-adv-x="266" 
d="M97 663q-16 0 -26.5 10t-10.5 25q0 19 12.5 31.5t31.5 12.5q16 0 26.5 -10t10.5 -26q0 -18 -12.5 -30.5t-31.5 -12.5zM285 663q-16 0 -26.5 10t-10.5 25q0 19 13 31.5t32 12.5q16 0 26 -10t10 -26q0 -18 -12.5 -30.5t-31.5 -12.5zM199 523l-74 -523h-58l74 523h58z" />
    <glyph glyph-name="eth" unicode="&#xf0;" horiz-adv-x="564" 
d="M378 661q118 -98 118 -276q0 -79 -15.5 -148.5t-46 -126t-81.5 -89t-116 -32.5q-84 0 -132 51.5t-48 142.5q0 50 13 98.5t39 91.5t71.5 69.5t104.5 26.5q97 0 153 -78q0 148 -96 237l-89 -77l-40 20l92 84q-60 32 -115 43l16 46q76 -15 137 -56l80 74l32 -31zM238 38
q88 0 138 84.5t59 209.5q-52 88 -144 88q-48 0 -83.5 -21.5t-54.5 -57.5t-28 -76t-9 -83q0 -70 31.5 -107t90.5 -37z" />
    <glyph glyph-name="ntilde" unicode="&#xf1;" horiz-adv-x="577" 
d="M410 666q-29 0 -63 23t-50 23q-18 0 -31 -9.5t-32 -32.5l-33 22q45 66 97 66q27 0 60.5 -22.5t50.5 -22.5q30 0 62 44l36 -21q-44 -70 -97 -70zM375 534q67 0 98.5 -43.5t20.5 -121.5l-52 -369h-58l52 367q17 118 -74 118q-100 0 -193 -172l-44 -313h-58l74 523h49
l-13 -130q83 141 198 141z" />
    <glyph glyph-name="ograve" unicode="&#xf2;" horiz-adv-x="569" 
d="M287 783l173 -105l-20 -33l-183 85zM249 -11q-90 0 -139.5 56t-49.5 156q0 42 8 85.5t27.5 88.5t48.5 80t74.5 57t102.5 22q91 0 140 -55t49 -155q0 -41 -7.5 -84.5t-27 -89t-48.5 -81t-75 -58t-103 -22.5zM251 38q54 0 95 29t62 75t31 93t10 93q0 158 -129 158
q-55 0 -96 -29t-62.5 -75.5t-31.5 -93.5t-10 -92q0 -78 34 -118t97 -40z" />
    <glyph glyph-name="oacute" unicode="&#xf3;" horiz-adv-x="569" 
d="M440 783l20 -53l-206 -85l-15 33zM249 -11q-90 0 -139.5 56t-49.5 156q0 42 8 85.5t27.5 88.5t48.5 80t74.5 57t102.5 22q91 0 140 -55t49 -155q0 -41 -7.5 -84.5t-27 -89t-48.5 -81t-75 -58t-103 -22.5zM251 38q54 0 95 29t62 75t31 93t10 93q0 158 -129 158
q-55 0 -96 -29t-62.5 -75.5t-31.5 -93.5t-10 -92q0 -78 34 -118t97 -40z" />
    <glyph glyph-name="ocircumflex" unicode="&#xf4;" horiz-adv-x="569" 
d="M220 643l-26 31l144 106h36l114 -106l-28 -31l-110 85zM249 -11q-90 0 -139.5 56t-49.5 156q0 42 8 85.5t27.5 88.5t48.5 80t74.5 57t102.5 22q91 0 140 -55t49 -155q0 -41 -7.5 -84.5t-27 -89t-48.5 -81t-75 -58t-103 -22.5zM251 38q54 0 95 29t62 75t31 93t10 93
q0 158 -129 158q-55 0 -96 -29t-62.5 -75.5t-31.5 -93.5t-10 -92q0 -78 34 -118t97 -40z" />
    </font>
</defs>
</svg>
