<?xml version="1.0" standalone="no"?>
<!DOCTYPE svg PUBLIC "-//W3C//DTD SVG 1.1//EN" "http://www.w3.org/Graphics/SVG/1.1/DTD/svg11.dtd" >
<svg xmlns="http://www.w3.org/2000/svg" xmlns:xlink="http://www.w3.org/1999/xlink" version="1.1">
<metadata>
Created by FontForge 20170731 at Tue Mar 20 17:35:42 2018
 By Aleksey,,,
Digitized data copyright 2012-2018 for FiraGO, bBox Type GmbH and HERE Europe B.V. All rights reserved, with Reserved Font Name "Fira" / Digitized data copyright 2012-2018 for Fira Sans The Mozilla Foundation, Telefonica S.A., Carrois Corporate GbR and bBox Type GmbH, with Reserved Font Name "Fira"
</metadata>
<defs>
<font id="FiraGO-Light" horiz-adv-x="0" >
  <font-face 
    font-family="FiraGO Light"
    font-weight="300"
    font-stretch="normal"
    units-per-em="1000"
    panose-1="2 11 4 3 5 0 0 2 0 4"
    ascent="800"
    descent="-200"
    x-height="523"
    cap-height="685"
    bbox="-734 -709 2412 1266"
    underline-thickness="50"
    underline-position="-200"
    unicode-range="U+000D-FEFF"
  />
<missing-glyph horiz-adv-x="666" 
d="M543 1050v-1400h-420v1400h420zM489 998h-311v-1296h311v1296zM324 451q111 0 111 -115q0 -104 -95 -118v-45q0 -11 -7.5 -17.5t-17.5 -6.5t-17.5 6.5t-7.5 17.5v84q53 3 72 19.5t19 57.5q0 33 -13 51t-48 18q-29 0 -52 -11q-8 -3 -13 -3q-24 0 -24 23q0 19 29.5 29
t63.5 10zM315 120q15 0 25 -10t10 -25q0 -16 -10 -26.5t-25 -10.5t-25 10.5t-10 26.5q0 15 10 25t25 10z" />
    <glyph glyph-name="fi" unicode="fi" horiz-adv-x="562" 
d="M260 743q78 0 147 -37l-21 -42q-64 30 -124 30q-51 0 -74 -20.5t-23 -68.5v-82h292v-523h-58v476h-234v-476h-58v476h-86v47h86v85q0 64 39.5 99.5t113.5 35.5z" />
    <glyph glyph-name="fl" unicode="fl" horiz-adv-x="591" 
d="M536 46l16 -43q-32 -14 -62 -14q-90 0 -90 101v583q-70 22 -133 22q-53 0 -77.5 -21t-24.5 -67v-84h138l-7 -47h-131v-476h-58v476h-86v47h86v86q0 63 40.5 98.5t115.5 35.5q65 0 137 -23l58 8v-638q0 -51 43 -51q20 0 35 7z" />
    <glyph glyph-name="uniFDF2" unicode="&#x627;&#xfedf;&#xfee0;&#xfeea;" horiz-adv-x="1107" arabic-form="isolated" 
d="M583 909v-168h-38v164zM509 592q-25 0 -44.5 19t-19.5 55q0 29 11 62l31 -7q-7 -23 -7 -48q0 -42 32 -42q16 0 26 13t10 34v41h33v-43q0 -19 8.5 -31t23.5 -12q34 0 34 47q0 32 -13 62l31 11q18 -42 18 -83q0 -36 -18 -55t-48 -19q-37 0 -52 29q-18 -33 -56 -33zM973 743
l53 7v-750h-53v743zM762 165v475l53 6v-483q0 -87 -34.5 -125t-99.5 -38q-86 0 -115 68q-26 -68 -112 -68q-113 0 -131 109q-48 -72 -148 -72q-69 0 -108.5 36t-39.5 95q0 77 75.5 130.5t211.5 68.5v90l54 7v-286q0 -67 19.5 -94t65.5 -27q45 0 65.5 24.5t20.5 84.5v377
l53 6v-383q0 -59 20.5 -84t66.5 -25q43 0 63 25.5t20 82.5zM314 161v157q-114 -8 -175 -48.5t-61 -96.5q0 -39 26 -62.5t75 -23.5q91 0 135 74z" />
    <glyph glyph-name="uniFEF5" unicode="&#xfedf;&#xfe82;" horiz-adv-x="628" arabic-form="isolated" 
d="M173 714q-19 0 -44.5 14.5t-40.5 14.5q-26 0 -45 -44l-32 10q11 32 31.5 52.5t45.5 20.5q22 0 48 -15t44 -15q16 0 45 19l16 -27q-37 -30 -68 -30zM457 330q95 -101 95 -184q0 -74 -52.5 -110t-167.5 -36h-230l4 53q114 79 182.5 141t108.5 127l-3 3l-311 300l66 10
l272 -268q46 101 46 253v125l53 6v-135q0 -165 -63 -285zM328 56q95 0 136.5 19.5t41.5 70.5q0 60 -75 140q-77 -117 -248 -230h145z" />
    <glyph glyph-name="uniFEF6" unicode="&#xfee0;&#xfe82;" horiz-adv-x="666" arabic-form="final" 
d="M671 57l15 -28l-20 -29q-113 0 -134 101q-28 -53 -90 -77t-167 -24h-186l-6 57h199q92 0 146 20l-289 481l61 9l164 -283q55 -94 98 -190q54 37 54 139v511l53 7v-562q0 -74 24 -103t78 -29zM139 684q-26 0 -45 -44l-32 10q11 32 31.5 52.5t45.5 20.5q22 0 48 -15t44 -15
q17 0 45 19l16 -27q-37 -30 -68 -30q-19 0 -44.5 14.5t-40.5 14.5z" />
    <glyph glyph-name="uniFEF7" unicode="&#xfedf;&#xfe84;" horiz-adv-x="628" arabic-form="isolated" 
d="M217 754l5 -34l-198 -33l-5 34l68 12q-48 37 -48 76q0 34 25 57t71 23q33 0 68 -18l-19 -32q-29 15 -52 15q-29 0 -42.5 -13.5t-13.5 -32.5q0 -34 51 -69zM457 330q95 -101 95 -184q0 -74 -52.5 -110t-167.5 -36h-230l4 53q114 79 182.5 141t108.5 127l-3 3l-311 300
l66 10l272 -268q46 101 46 253v125l53 6v-135q0 -165 -63 -285zM328 56q95 0 136.5 19.5t41.5 70.5q0 60 -75 140q-77 -117 -248 -230h145z" />
    <glyph glyph-name="uniFEF8" unicode="&#xfee0;&#xfe84;" horiz-adv-x="666" arabic-form="final" 
d="M269 695l5 -34l-198 -33l-5 34l68 12q-48 37 -48 76q0 34 25 57t71 23q33 0 68 -18l-19 -32q-29 15 -52 15q-29 0 -42.5 -13.5t-13.5 -32.5q0 -34 51 -69zM671 57l15 -28l-20 -29q-113 0 -134 101q-28 -53 -90 -77t-167 -24h-186l-6 57h199q92 0 146 20l-289 481l61 9
l164 -283q55 -94 98 -190q54 37 54 139v511l53 7v-562q0 -74 24 -103t78 -29z" />
    <glyph glyph-name="uniFEF9" unicode="&#xfedf;&#xfe88;" horiz-adv-x="628" arabic-form="isolated" 
d="M457 330q95 -101 95 -184q0 -74 -52.5 -110t-167.5 -36h-230l4 53q114 79 182.5 141t108.5 127l-3 3l-311 300l66 10l272 -268q46 101 46 253v125l53 6v-135q0 -165 -63 -285zM328 56q95 0 136.5 19.5t41.5 70.5q0 60 -75 140q-77 -117 -248 -230h145zM199 -200l90 15
l4 -35l-198 -32l-4 34l68 11q-48 37 -48 76q0 35 24.5 58t71.5 23q34 0 68 -19l-20 -32q-27 15 -51 15q-29 0 -42.5 -13t-13.5 -32q0 -35 51 -69z" />
    <glyph glyph-name="uniFEFA" unicode="&#xfee0;&#xfe88;" horiz-adv-x="666" arabic-form="final" 
d="M671 57l15 -28l-20 -29q-113 0 -134 101q-28 -53 -90 -77t-167 -24h-186l-6 57h199q92 0 146 20l-289 481l61 9l164 -283q55 -94 98 -190q54 37 54 139v511l53 7v-562q0 -74 24 -103t78 -29zM200 -200l90 15l4 -35l-198 -32l-4 34l68 11q-48 36 -48 76q0 35 24.5 58
t71.5 23q34 0 68 -19l-20 -32q-27 15 -51 15q-56 0 -56 -45q0 -35 51 -69z" />
    <glyph glyph-name="uniFEFB" unicode="&#xfedf;&#xfe8e;" horiz-adv-x="628" arabic-form="isolated" 
d="M457 330q95 -101 95 -184q0 -74 -52.5 -110t-167.5 -36h-230l4 53q114 79 182.5 141t108.5 127l-3 3l-311 300l66 10l272 -268q46 101 46 253v125l53 6v-135q0 -165 -63 -285zM328 56q95 0 136.5 19.5t41.5 70.5q0 60 -75 140q-77 -117 -248 -230h145z" />
    <glyph glyph-name="uniFEFC" unicode="&#xfee0;&#xfe8e;" horiz-adv-x="666" arabic-form="final" 
d="M671 57l15 -28l-20 -29q-113 0 -134 101q-28 -53 -90 -77t-167 -24h-186l-6 57h199q92 0 146 20l-289 481l61 9l164 -283q55 -94 98 -190q54 37 54 139v511l53 7v-562q0 -74 24 -103t78 -29z" />
    <glyph glyph-name="f_f" unicode="ff" horiz-adv-x="601" 
d="M540 695q-90 0 -90 -88v-84h137l-7 -47h-130v-476h-58v476h-227v-476h-58v476h-86v47h86v76q0 63 40.5 98.5t115.5 35.5q76 0 159 -35q39 45 115 45q62 0 121 -28l-19 -43q-52 23 -99 23zM392 523v86q0 25 8 49q-69 27 -133 27q-53 0 -77.5 -21t-24.5 -67v-74h227z" />
    <glyph glyph-name="f_f_i" unicode="ffi" horiz-adv-x="846" 
d="M450 523h291v-523h-58v476h-233v-476h-58v476h-227v-476h-58v476h-86v47h86v76q0 63 40.5 98.5t115.5 35.5q76 0 158 -35q40 45 124 45q76 0 147 -37l-21 -42q-65 30 -125 30q-50 0 -73 -20.5t-23 -68.5v-82zM392 523v85q0 29 7 50q-67 27 -132 27q-53 0 -77.5 -21
t-24.5 -67v-74h227z" />
    <glyph glyph-name="f_f_j" unicode="ffj" horiz-adv-x="846" 
d="M741 523v-504q0 -68 -16.5 -110t-43.5 -64.5t-80 -47.5l-17 43q38 19 57 36t30.5 51t11.5 90v459h-233v-476h-58v476h-227v-476h-58v476h-86v47h86v76q0 63 40.5 98.5t115.5 35.5q76 0 158 -35q40 45 124 45q76 0 147 -37l-21 -42q-65 30 -125 30q-50 0 -73 -20.5
t-23 -68.5v-82h291zM392 523v85q0 29 7 50q-67 27 -132 27q-53 0 -77.5 -21t-24.5 -67v-74h227z" />
    <glyph glyph-name="f_f_l" unicode="ffl" horiz-adv-x="875" 
d="M821 46l16 -43q-33 -14 -62 -14q-91 0 -91 101v583q-69 22 -133 22q-53 0 -77 -21t-24 -67v-84h137l-7 -47h-130v-476h-58v476h-227v-476h-58v476h-86v47h86v76q0 63 40.5 98.5t115.5 35.5q76 0 159 -35q40 45 125 45q65 0 137 -23l58 8v-638q0 -51 43 -51q21 0 36 7z
M392 523v86q0 23 7 49q-67 27 -132 27q-53 0 -77.5 -21t-24.5 -67v-74h227z" />
    <glyph glyph-name="f_j" unicode="fj" horiz-adv-x="562" 
d="M457 523v-504q0 -98 -31 -141.5t-109 -80.5l-17 43q38 19 57 36t30.5 51t11.5 90v459h-234v-476h-58v476h-86v47h86v85q0 64 39.5 99.5t113.5 35.5q78 0 147 -37l-21 -42q-64 30 -124 30q-51 0 -74 -20.5t-23 -68.5v-82h292z" />
    <glyph glyph-name="uni0E240E45" unicode="&#xe24;&#xe45;" horiz-adv-x="920" 
d="M619 581q102 0 150 -41.5t48 -124.5v-602l-58 8v591q0 62 -34.5 90.5t-112.5 28.5q-60 0 -134 -20q44 -49 44 -133v-575l-58 8v565q0 147 -153 147q-114 0 -184 -82q83 -13 150 -44v-47q-61 -5 -90.5 -36t-29.5 -94v-126q0 -55 51 -55q19 0 50 11l13 -43q-43 -18 -74 -18
q-96 0 -96 106v125q0 67 32.5 107t90.5 49q-76 27 -152 35v40q93 120 241 120q77 0 127 -29q93 39 179 39z" />
    <glyph glyph-name="uni0E260E45" unicode="&#xe26;&#xe45;" horiz-adv-x="913" 
d="M612 581q102 0 149.5 -41t47.5 -125v-602l-58 8v591q0 62 -34 90.5t-113 28.5q-59 0 -133 -20q44 -49 44 -133v-575l-58 8v565q0 147 -150 147q-111 0 -181 -82q83 -13 150 -44v-47q-50 -7 -75.5 -38.5t-25.5 -97.5v-99q0 -60 -19 -90.5t-76 -30.5q-11 0 -21 1l-2 43h10
q15 0 25 4t15 8t7.5 19t2.5 22.5v32.5v99q0 127 111 151q-81 30 -157 37v40q93 120 237 120q76 0 125 -29q94 39 179 39z" />
    <glyph glyph-name="uni06440671" unicode="&#xfedf;&#xfb51;" horiz-adv-x="628" 
d="M142 719q-35 0 -85 16l-18 -41l-31 11l24 72q28 -10 34 -11q46 98 115 98q31 0 50.5 -18.5t19.5 -48.5q0 -40 -30 -59t-79 -19zM178 827q-45 0 -83 -67q29 -6 54 -6q67 0 67 40q0 33 -38 33zM457 330q95 -101 95 -184q0 -74 -52.5 -110t-167.5 -36h-230l4 53
q114 79 182.5 141t108.5 127l-3 3l-311 300l66 10l272 -268q46 101 46 253v125l53 6v-135q0 -165 -63 -285zM328 56q95 0 136.5 19.5t41.5 70.5q0 60 -75 140q-77 -117 -248 -230h145z" />
    <glyph glyph-name="uni06440671.fina" unicode="&#xfee0;&#xfb51;" horiz-adv-x="666" 
d="M109 676l-18 -41l-31 11l24 72q29 -10 34 -11q46 98 115 98q31 0 50.5 -18.5t19.5 -48.5q0 -40 -30 -59t-79 -19q-35 0 -85 16zM230 768q-45 0 -83 -67q28 -6 54 -6q67 0 67 40q0 33 -38 33zM671 57l15 -28l-20 -29q-113 0 -134 101q-28 -53 -90 -77t-167 -24h-186l-6 57
h199q92 0 146 20l-289 481l61 9l164 -283q55 -94 98 -190q54 37 54 139v511l53 7v-562q0 -74 24 -103t78 -29z" />
    <glyph glyph-name="uni0E1B0E31" unicode="&#xe1b;&#xe31;" horiz-adv-x="607" 
d="M639 688q-59 -17 -136 -26v-460q0 -97 -52 -154.5t-153 -57.5q-99 0 -149 56t-50 156v199q0 89 -26 156l55 7q29 -58 29 -126v-232q0 -80 35 -124t106 -44q147 0 147 168v452q-9 -1 -25 -1q-67 0 -100 19.5t-33 65.5q0 24 7 52h45q-6 -26 -6 -43q0 -29 20 -40.5t75 -11.5
h17v81l58 -7v-69q72 7 127 23z" />
    <glyph glyph-name="uni0E1B0E49" unicode="&#xe1b;&#xe49;" horiz-adv-x="607" 
d="M445 780l58 -7v-571q0 -97 -52 -154.5t-153 -57.5q-99 0 -149 56t-50 156v199q0 89 -26 156l55 7q29 -58 29 -126v-232q0 -80 35 -124t106 -44q147 0 147 168v516q-38 -35 -98.5 -50.5t-158.5 -17.5l-14 20q29 36 29 65q0 46 -47 46q-19 0 -39 -5l-5 36q23 9 53 9
q38 0 63 -19t25 -55q0 -30 -19 -57q83 3 131.5 23t78.5 63h1z" />
    <glyph glyph-name="uni0E1B0E4A" unicode="&#xe1b;&#xe4a;" horiz-adv-x="606" 
d="M445 780l58 -7v-571q0 -97 -52 -154.5t-153 -57.5q-99 0 -149 56t-50 156v199q0 89 -26 156l55 7q29 -58 29 -126v-232q0 -80 35 -124t106 -44q147 0 147 168v505q-46 -54 -142 -54q-23 0 -35 2q7 34 7 70q0 56 -47 56q-25 0 -40.5 -22t-15.5 -58v-29l-48 -4v33
q0 37 -14 58.5t-40 21.5q-48 0 -48 -57q0 -33 9 -69h-46q-10 32 -10 72q0 42 23.5 68t65.5 26q68 0 84 -69q5 28 27 48.5t61 20.5q41 0 64 -24t23 -62q0 -23 -8 -47q96 4 130 88z" />
    <glyph glyph-name="uni0E1B0E4B" unicode="&#xe1b;&#xe4b;" horiz-adv-x="606" 
d="M267 659l1 67l-77 -1l5 40h72l-1 57l48 6v-63h74v-40l-74 1v-67h-48zM445 780l58 -7v-571q0 -97 -52 -154.5t-153 -57.5q-99 0 -149 56t-50 156v199q0 89 -26 156l55 7q29 -58 29 -126v-232q0 -80 35 -124t106 -44q147 0 147 168v574z" />
    <glyph glyph-name="uni0E1B0E4C" unicode="&#xe1b;&#xe4c;" horiz-adv-x="607" 
d="M593 746v-41h-90v-503q0 -97 -52 -154.5t-153 -57.5q-99 0 -149 56t-50 156v199q0 89 -26 156l55 7q29 -58 29 -126v-232q0 -80 35 -124t106 -44q147 0 147 168v499h-66q-26 0 -36 -11t-10 -37q0 -13 2 -39h-48q-4 28 -4 48q0 80 91 80h71v34l58 -7v-27h90z" />
    <glyph glyph-name="uni0E1B0E4D" unicode="&#xe1b;&#xe4d;" horiz-adv-x="606" 
d="M301 655q-40 0 -65 24t-25 62t25 62.5t65 24.5t65 -24.5t25 -62.5t-25 -62t-65 -24zM301 789q-22 0 -34 -12.5t-12 -35.5t12 -35.5t34 -12.5q45 0 45 48t-45 48zM445 780l58 -7v-571q0 -97 -52 -154.5t-153 -57.5q-99 0 -149 56t-50 156v199q0 89 -26 156l55 7
q29 -58 29 -126v-232q0 -80 35 -124t106 -44q147 0 147 168v574z" />
    <glyph glyph-name="uni0E1D0E31" unicode="&#xe1d;&#xe31;" horiz-adv-x="731" 
d="M764 688q-66 -18 -136 -26v-457q0 -115 -41 -165.5t-105 -50.5q-109 0 -125 120q-20 -120 -128 -120q-66 0 -104.5 52.5t-38.5 165.5v94q0 153 36.5 211.5t111.5 58.5q33 0 61 -14l-10 -41q-24 8 -44 8q-49 0 -73 -50t-24 -174v-90q0 -94 24 -133t69 -39q43 0 67 31.5
t24 109.5v121l57 7v-128q0 -141 90 -141q95 0 95 167v453q-9 -1 -25 -1q-67 0 -100.5 19.5t-33.5 65.5q0 20 8 52h45q-6 -20 -6 -43q0 -29 19.5 -40.5t74.5 -11.5h18v81l58 -7v-69q63 6 127 23z" />
    <glyph glyph-name="uni0E1D0E49" unicode="&#xe1d;&#xe49;" horiz-adv-x="732" 
d="M570 780l58 -7v-568q0 -115 -41 -165.5t-105 -50.5q-109 0 -125 120q-20 -120 -128 -120q-66 0 -104.5 52.5t-38.5 165.5v94q0 153 36.5 211.5t111.5 58.5q33 0 61 -14l-10 -41q-24 8 -44 8q-49 0 -73 -50t-24 -174v-90q0 -94 24 -133t69 -39q43 0 67 31.5t24 109.5v121
l57 7v-128q0 -141 90 -141q95 0 95 167v517q-38 -35 -98.5 -50.5t-158.5 -17.5l-14 20q29 36 29 65q0 46 -47 46q-19 0 -39 -5l-5 36q23 9 53 9q38 0 63 -19t25 -55q0 -30 -19 -57q83 3 131.5 23t78.5 63h1z" />
    <glyph glyph-name="uni0E1D0E4A" unicode="&#xe1d;&#xe4a;" horiz-adv-x="731" 
d="M570 780l58 -7v-568q0 -115 -41 -165.5t-105 -50.5q-109 0 -125 120q-20 -120 -128 -120q-66 0 -104.5 52.5t-38.5 165.5v94q0 153 36.5 211.5t111.5 58.5q33 0 61 -14l-10 -41q-24 8 -44 8q-49 0 -73 -50t-24 -174v-90q0 -94 24 -133t69 -39q43 0 67 31.5t24 109.5v121
l57 7v-128q0 -141 90 -141q95 0 95 167v506q-46 -54 -142 -54q-23 0 -35 2q7 34 7 70q0 56 -47 56q-25 0 -40.5 -22t-15.5 -58v-29l-48 -4v33q0 37 -14 58.5t-40 21.5q-48 0 -48 -57q0 -33 9 -69h-46q-10 32 -10 72q0 42 23.5 68t65.5 26q68 0 84 -69q5 28 27 48.5t61 20.5
q41 0 64 -24t23 -62q0 -23 -8 -47q96 4 130 88z" />
    <glyph glyph-name="uni0E1D0E4B" unicode="&#xe1d;&#xe4b;" horiz-adv-x="731" 
d="M392 659l1 67l-77 -1l5 40h72l-1 57l48 6v-63h74v-40l-74 1v-67h-48zM570 780l58 -7v-568q0 -115 -41 -165.5t-105 -50.5q-109 0 -125 120q-20 -120 -128 -120q-66 0 -104.5 52.5t-38.5 165.5v94q0 153 36.5 211.5t111.5 58.5q33 0 61 -14l-10 -41q-24 8 -44 8
q-49 0 -73 -50t-24 -174v-90q0 -94 24 -133t69 -39q43 0 67 31.5t24 109.5v121l57 7v-128q0 -141 90 -141q95 0 95 167v575z" />
    <glyph glyph-name="uni0E1D0E4C" unicode="&#xe1d;&#xe4c;" horiz-adv-x="731" 
d="M717 746v-41h-89v-500q0 -115 -41 -165.5t-105 -50.5q-109 0 -125 120q-20 -120 -128 -120q-66 0 -104.5 52.5t-38.5 165.5v94q0 153 36.5 211.5t111.5 58.5q33 0 61 -14l-10 -41q-24 8 -44 8q-49 0 -73 -50t-24 -174v-90q0 -94 24 -133t69 -39q43 0 67 31.5t24 109.5
v121l57 7v-128q0 -141 90 -141q95 0 95 167v500h-66q-26 0 -36.5 -11t-10.5 -37q0 -19 3 -39h-48q-4 28 -4 48q0 80 91 80h71v34l58 -7v-27h89z" />
    <glyph glyph-name="uni0E1D0E4D" unicode="&#xe1d;&#xe4d;" horiz-adv-x="731" 
d="M426 655q-40 0 -65 24t-25 62t25 62.5t65 24.5t65 -24.5t25 -62.5t-25 -62t-65 -24zM426 789q-22 0 -34 -12.5t-12 -35.5t12 -35.5t34 -12.5q45 0 45 48t-45 48zM570 780l58 -7v-568q0 -115 -41 -165.5t-105 -50.5q-109 0 -125 120q-20 -120 -128 -120q-66 0 -104.5 52.5
t-38.5 165.5v94q0 153 36.5 211.5t111.5 58.5q33 0 61 -14l-10 -41q-24 8 -44 8q-49 0 -73 -50t-24 -174v-90q0 -94 24 -133t69 -39q43 0 67 31.5t24 109.5v121l57 7v-128q0 -141 90 -141q95 0 95 167v575z" />
    <glyph glyph-name="uni0E1F0E31" unicode="&#xe1f;&#xe31;" horiz-adv-x="766" 
d="M871 688q-70 -19 -154 -28l-19 -98l-106 -562h-74l-138 497l-140 -497h-71l-71 393q-22 112 -61 164l52 12q43 -49 63 -172l57 -345l140 510h63l142 -510l89 510l17 95h-8q-67 0 -100 19.5t-33 65.5q0 24 7 52h45q-6 -26 -6 -43q0 -29 19.5 -40.5t74.5 -11.5h9l15 81h57
l-15 -77q73 7 137 24z" />
    <glyph glyph-name="uni0E1F0E49" unicode="&#xe1f;&#xe49;" horiz-adv-x="756" 
d="M682 780h57l-41 -218l-106 -562h-74l-138 497l-140 -497h-71l-71 393q-22 112 -61 164l52 12q43 -49 63 -172l57 -345l140 510h63l142 -510l89 510l15 85q8 40 15 68q-71 -56 -241 -61l-13 21q28 37 28 64q0 47 -47 47q-9 0 -39 -5l-5 36q26 8 53 8q38 0 63 -19t25 -56
q0 -29 -19 -54q76 3 124.5 22.5t79.5 61.5z" />
    <glyph glyph-name="uni0E1F0E4A" unicode="&#xe1f;&#xe4a;" horiz-adv-x="756" 
d="M683 780h57l-41 -218h-1l-106 -562h-74l-138 497l-140 -497h-71l-71 393q-22 112 -61 164l52 12q43 -49 63 -172l57 -345l140 510h63l142 -510l89 510h1l13 74q5 32 14 63q-43 -42 -125 -42q-23 0 -35 2q7 34 7 70q0 56 -47 56q-25 0 -40.5 -22t-15.5 -58v-29l-48 -4v33
q0 37 -14 58.5t-40 21.5q-48 0 -48 -57q0 -33 9 -69h-46q-10 32 -10 72q0 42 23.5 68t65.5 26q68 0 84 -69q5 28 27 48.5t61 20.5q41 0 64 -24t23 -62q0 -23 -8 -47q94 4 125 88z" />
    <glyph glyph-name="uni0E1F0E4B" unicode="&#xe1f;&#xe4b;" horiz-adv-x="756" 
d="M496 659l1 67l-77 -1l5 40h72l-1 57l48 6v-63h74v-40l-74 1v-67h-48zM683 780h57l-42 -218l-106 -562h-74l-138 497l-140 -497h-71l-71 393q-22 112 -61 164l52 12q43 -49 63 -172l57 -345l140 510h63l142 -510l89 510z" />
    <glyph glyph-name="uni0E1F0E4C" unicode="&#xe1f;&#xe4c;" horiz-adv-x="766" 
d="M825 746v-41h-99l-28 -143l-106 -562h-74l-138 497l-140 -497h-71l-71 393q-22 112 -61 164l52 12q43 -49 63 -172l57 -345l140 510h63l142 -510l89 510l26 143h-58q-26 0 -36.5 -11t-10.5 -37q0 -19 3 -39h-48q-4 28 -4 48q0 80 91 80h71l6 34h57l-7 -34h92z" />
    <glyph glyph-name="uni0E1F0E4D" unicode="&#xe1f;&#xe4d;" horiz-adv-x="756" 
d="M530 655q-40 0 -65 24t-25 62t25 62.5t65 24.5t65 -24.5t25 -62.5t-25 -62t-65 -24zM530 789q-22 0 -34 -12.5t-12 -35.5t12 -35.5t34 -12.5q45 0 45 48t-45 48zM683 780h57l-42 -218l-106 -562h-74l-138 497l-140 -497h-71l-71 393q-22 112 -61 164l52 12
q43 -49 63 -172l57 -345l140 510h63l142 -510l89 510z" />
    <glyph glyph-name="uni0E310E4A" unicode="&#xe31;&#xe4a;" 
d="M-71 987l41 -10q-28 -68 -73 -95.5t-107 -27.5q-21 0 -31 2q6 32 6 63q0 50 -42 50q-23 0 -37 -19.5t-14 -52.5v-26l-42 -3v29q0 33 -13 52.5t-36 19.5q-43 0 -43 -51q0 -30 7 -62h-41q-9 32 -9 65q0 38 21.5 61t58.5 23q34 0 52.5 -18.5t23.5 -43.5q4 25 24 43.5
t55 18.5q37 0 57.5 -21.5t20.5 -55.5q0 -19 -7 -42q92 4 128 101zM-358 700q91 0 189 36l11 -42q-110 -38 -207 -38q-65 0 -97 20t-32 67q0 29 8 51h45q-6 -19 -6 -43q0 -28 18.5 -39.5t70.5 -11.5z" />
    <glyph glyph-name="uni0620.init" unicode="&#x620;" horiz-adv-x="269" 
d="M169 42q47 -21 47 -72q0 -34 -22.5 -56.5t-57.5 -22.5t-58 23t-23 56q0 16 7 33q-27 -3 -62 -3l-20 29l25 28q91 0 120 24.5t29 89.5q0 83 -43 206l54 18q41 -120 41 -227q0 -90 -37 -126zM136 -75q22 0 34 12.5t12 32.5t-13 32t-33 12q-21 0 -34 -12t-13 -32t12.5 -32.5
t34.5 -12.5z" />
    <glyph glyph-name="uni0620.medi" unicode="&#x620;" horiz-adv-x="327" 
d="M327 0q-124 0 -162 85q-8 -21 -24 -38q54 -19 54 -75q0 -33 -22.5 -55.5t-57.5 -22.5t-58 22.5t-23 55.5q0 16 6 30q-26 -2 -40 -2l-20 29l26 28q78 0 104 28t26 91v145h54v-145q0 -62 31.5 -90.5t110.5 -28.5l15 -28zM161 -28q0 21 -12.5 32.5t-33.5 11.5t-34 -11.5
t-13 -32.5q0 -20 12.5 -32.5t34.5 -12.5t34 12.5t12 32.5z" />
    <glyph glyph-name="uni0620.fina" unicode="&#x620;" horiz-adv-x="722" 
d="M742 29l-20 -29q-49 0 -97 21q11 -19 11 -40q0 -67 -69.5 -118t-198.5 -62q15 -22 15 -47q0 -33 -22.5 -55.5t-57.5 -22.5t-58 22.5t-23 55.5q0 27 16 49q-95 14 -140 72.5t-45 150.5q0 93 42 184l40 -13q-30 -78 -30 -164q0 -178 203 -178q131 0 205 41t74 90
q0 28 -35.5 49t-142.5 54l24 50q40 -13 90 -31.5t75.5 -27.5t60 -16t68.5 -7zM349 -246q0 37 -36 44h-11h-10q-36 -7 -36 -44q0 -19 12.5 -31.5t34.5 -12.5t34 12.5t12 31.5z" />
    <glyph glyph-name="uni063B.init" unicode="&#x63b;" horiz-adv-x="459" 
d="M13 748q0 -15 -10 -25t-24 -10t-24.5 10t-10.5 25q0 14 10.5 24.5t24.5 10.5t24 -10.5t10 -24.5zM117 713q-15 0 -25 10t-10 25q0 14 10 24.5t25 10.5q14 0 24.5 -10.5t10.5 -24.5q0 -15 -10.5 -25t-24.5 -10zM406 755l-4 -60l-341 -220q156 -67 217.5 -128t61.5 -136
q0 -104 -89 -157.5t-251 -53.5l-20 29l25 28q284 0 284 159q0 56 -62.5 110t-223.5 120l12 54z" />
    <glyph glyph-name="uni063B.medi" unicode="&#x63b;" horiz-adv-x="543" 
d="M24 713q-14 0 -24.5 10t-10.5 25q0 14 10.5 24.5t24.5 10.5t24 -10.5t10 -24.5q0 -15 -10 -25t-24 -10zM162 713q-15 0 -25 10t-10 25q0 14 10 24.5t25 10.5q14 0 24.5 -10.5t10.5 -24.5q0 -15 -10.5 -25t-24.5 -10zM548 57l15 -27l-20 -30q-84 0 -144.5 41.5
t-146.5 159.5q1 -6 1 -16q0 -85 -65 -135t-188 -50l-20 29l25 28q102 0 152 36.5t50 101.5q0 63 -55 131l-98 121l12 52l391 256l-3 -60l-350 -226l164 -205q59 -74 88 -107.5t62.5 -60t60.5 -33t69 -6.5z" />
    <glyph glyph-name="uni063B.fina" unicode="&#x63b;" horiz-adv-x="983" 
d="M457 713q-14 0 -24.5 10t-10.5 25q0 14 10.5 24.5t24.5 10.5t24 -10.5t10 -24.5q0 -15 -10 -25t-24 -10zM595 713q-15 0 -25 10t-10 25q0 14 10 24.5t25 10.5q14 0 24.5 -10.5t10.5 -24.5q0 -15 -10.5 -25t-24.5 -10zM988 57l15 -27l-20 -30q-84 0 -145 41.5t-147 161.5
q1 -7 1 -18q0 -61 -31 -102.5t-113 -68.5t-216 -27q-147 0 -213 46t-66 143q0 76 36 153l41 -14q-26 -66 -26 -132q0 -73 54 -106t179 -33q91 0 153.5 11t96 32t47 47t13.5 61q0 62 -55 131l-98 121l12 52l392 256l-4 -60l-350 -226l164 -205q59 -74 88 -107.5t62.5 -60
t60.5 -33t69 -6.5z" />
    <glyph glyph-name="uni063C.init" unicode="&#x63c;" horiz-adv-x="459" 
d="M406 755l-4 -60l-341 -220q156 -67 217.5 -128t61.5 -136q0 -104 -89 -157.5t-251 -53.5l-20 29l25 28q284 0 284 159q0 56 -62.5 110t-223.5 120l12 54zM123 -128q5 0 8.5 -4t3.5 -9t-3.5 -8.5t-8.5 -3.5t-9 3.5t-4 8.5q0 13 13 13zM164 -180q12 0 12 -12t-12 -12
q-4 0 -8 4t-4 8q0 12 12 12zM91 -183q13 0 13 -13q0 -5 -4 -8.5t-9 -3.5t-8.5 4t-3.5 8q0 5 3.5 9t8.5 4z" />
    <glyph glyph-name="uni063C.medi" unicode="&#x63c;" horiz-adv-x="543" 
d="M548 57l15 -27l-20 -30q-84 0 -144.5 41.5t-146.5 159.5q1 -6 1 -16q0 -85 -65 -135t-188 -50l-20 29l25 28q102 0 152 36.5t50 101.5q0 63 -55 131l-98 121l12 52l391 256l-3 -60l-350 -226l164 -205q59 -74 88 -107.5t62.5 -60t60.5 -33t69 -6.5zM275 -128q5 0 8.5 -4
t3.5 -9t-3.5 -8.5t-8.5 -3.5t-9 3.5t-4 8.5q0 13 13 13zM316 -180q12 0 12 -12t-12 -12q-4 0 -8 4t-4 8q0 12 12 12zM243 -183q13 0 13 -13q0 -5 -4 -8.5t-9 -3.5t-8.5 4t-3.5 8q0 5 3.5 9t8.5 4z" />
    <glyph glyph-name="uni063C.fina" unicode="&#x63c;" horiz-adv-x="983" 
d="M988 57l15 -27l-20 -30q-84 0 -145 41.5t-147 161.5q1 -7 1 -18q0 -61 -31 -102.5t-113 -68.5t-216 -27q-147 0 -213 46t-66 143q0 76 36 153l41 -14q-26 -66 -26 -132q0 -73 54 -106t179 -33q91 0 153.5 11t96 32t47 47t13.5 61q0 62 -55 131l-98 121l12 52l392 256
l-4 -60l-350 -226l164 -205q59 -74 88 -107.5t62.5 -60t60.5 -33t69 -6.5zM371 -128q5 0 8.5 -4t3.5 -9t-3.5 -8.5t-8.5 -3.5t-9 3.5t-4 8.5q0 13 13 13zM412 -180q12 0 12 -12t-12 -12q-4 0 -8 4t-4 8q0 12 12 12zM339 -183q13 0 13 -13q0 -5 -4 -8.5t-9 -3.5t-8.5 4
t-3.5 8q0 5 3.5 9t8.5 4z" />
    <glyph glyph-name="uni066E.init" unicode="&#x66e;" horiz-adv-x="269" 
d="M5 57q91 0 120 24.5t29 89.5q0 83 -43 206l54 18q41 -120 41 -227q0 -95 -43 -131.5t-163 -36.5l-20 29z" />
    <glyph glyph-name="uni066E.medi" unicode="&#x66e;" horiz-adv-x="327" 
d="M332 57l15 -28l-20 -29q-124 0 -162 85q-35 -85 -165 -85l-20 29l26 28q78 0 104 28t26 91v145h54v-145q0 -62 31.5 -90.5t110.5 -28.5z" />
    <glyph glyph-name="uni066E.fina" unicode="&#x66e;" horiz-adv-x="917" 
d="M922 57l15 -27l-20 -30q-114 0 -167 82q-155 -95 -418 -95q-147 0 -213 46t-66 143q0 76 36 153l41 -14q-26 -66 -26 -132q0 -73 54 -106t179 -33q257 0 392 88v189h52v-147q0 -56 30 -86.5t111 -30.5z" />
    <glyph glyph-name="uni066F.init" unicode="&#x66f;" horiz-adv-x="459" 
d="M214 546q81 0 131.5 -71.5t50.5 -198.5q0 -103 -33.5 -161t-119.5 -86.5t-243 -28.5l-20 30l25 27q133 0 207.5 19.5t101.5 53t32 92.5q-41 -38 -124 -38t-133.5 48t-50.5 125t51 133t125 56zM239 234q63 0 109 26v7q0 111 -36 166.5t-99 55.5q-55 0 -90.5 -37.5
t-35.5 -90.5q0 -59 39 -93t113 -34z" />
    <glyph glyph-name="uni066F.medi" unicode="&#x66f;" horiz-adv-x="494" 
d="M499 57l15 -28l-20 -29h-37q-108 0 -203 46q-100 -46 -223 -46h-31l-20 29l25 28h32q90 0 159 21q-117 80 -117 190q0 79 49.5 136.5t119.5 57.5q79 0 128 -57t49 -138q0 -50 -30 -100.5t-85 -88.5q69 -21 147 -21h42zM128 268q0 -106 125 -168q123 59 123 167
q0 60 -34.5 99t-91.5 39q-53 0 -87.5 -39t-34.5 -98z" />
    <glyph glyph-name="uni066F.fina" unicode="&#x66f;" horiz-adv-x="764" 
d="M784 29l-20 -29h-98q-14 -120 -83.5 -183t-225.5 -63q-165 0 -234.5 59t-69.5 169q0 91 42 184l40 -13q-30 -78 -30 -164q0 -85 57.5 -131.5t199.5 -46.5q134 0 190 49.5t67 139.5h-88q-105 0 -161 48.5t-56 127.5q0 77 51 132.5t124 55.5q81 0 131.5 -72t50.5 -203
q0 -22 -1 -32h99zM526 57h97v24q0 114 -35.5 170.5t-98.5 56.5q-55 0 -91 -37.5t-36 -90.5q0 -58 42.5 -90.5t121.5 -32.5z" />
    <glyph glyph-name="uni0676.fina" unicode="&#x676;" horiz-adv-x="527" 
d="M210 515l-4 34l68 11q-48 37 -48 76q0 35 24.5 58t71.5 23q34 0 68 -19l-20 -32q-27 15 -51 15q-29 0 -42.5 -13t-13.5 -32q0 -34 51 -69l90 15l5 -35zM547 29l-20 -29h-108q-23 -102 -106.5 -165.5t-242.5 -92.5l-17 56q141 26 216 75.5t99 126.5h-84q-102 0 -157 48.5
t-55 126.5q0 76 51 132t124 56q81 0 131.5 -70.5t50.5 -194.5q0 -15 -2 -41h105zM120 178q0 -121 171 -121h88q1 11 1 34q0 106 -35.5 160.5t-98.5 54.5q-54 0 -90 -37.5t-36 -90.5z" />
    <glyph glyph-name="uni0677.fina" unicode="&#x677;" horiz-adv-x="527" 
d="M179 644l-15 31q51 19 87 44q-71 27 -71 82q0 36 23.5 57.5t55.5 21.5q37 0 56.5 -23t19.5 -57q0 -44 -42 -86.5t-114 -69.5zM215 800q0 -38 63 -57q24 27 24 54q0 19 -11.5 32.5t-32.5 13.5q-19 0 -31 -11.5t-12 -31.5zM352 451l-198 -33l-5 34l68 12q-48 37 -48 76
q0 34 25 57t71 23q33 0 68 -18l-19 -32q-29 15 -52 15q-29 0 -42.5 -13.5t-13.5 -32.5q0 -34 51 -69l90 15zM547 29l-20 -29h-108q-23 -102 -106.5 -165.5t-242.5 -92.5l-17 56q141 26 216 75.5t99 126.5h-84q-102 0 -157 48.5t-55 126.5q0 76 51 132t124 56
q81 0 131.5 -70.5t50.5 -194.5q0 -15 -2 -41h105zM120 178q0 -121 171 -121h88q1 11 1 34q0 106 -35.5 160.5t-98.5 54.5q-54 0 -90 -37.5t-36 -90.5z" />
    <glyph glyph-name="uni0678.init" unicode="&#x678;" horiz-adv-x="269" 
d="M249 622l4 -35l-198 -32l-4 34l68 11q-48 37 -48 76q0 35 24.5 58t71.5 23q34 0 68 -19l-20 -32q-27 15 -51 15q-29 0 -42.5 -13t-13.5 -32q0 -35 51 -69zM5 57q91 0 120 24.5t29 89.5q0 83 -43 206l54 18q41 -120 41 -227q0 -95 -43 -131.5t-163 -36.5l-20 29z" />
    <glyph glyph-name="uni0678.medi" unicode="&#x678;" horiz-adv-x="327" 
d="M100 485l-4 34l68 11q-48 37 -48 76q0 35 24.5 58t71.5 23q34 0 68 -19l-20 -32q-27 15 -51 15q-29 0 -42.5 -13t-13.5 -32q0 -35 51 -69l90 15l4 -35zM332 57l15 -28l-20 -29q-124 0 -162 85q-35 -85 -165 -85l-20 29l26 28q78 0 104 28t26 91v145h54v-145
q0 -62 31.5 -90.5t110.5 -28.5z" />
    <glyph glyph-name="uni0678.fina" unicode="&#x678;" horiz-adv-x="722" 
d="M398 266l-4 34l68 11q-49 36 -49 76q0 35 25 58t72 23q35 0 67 -19l-19 -32q-27 15 -51 15q-30 0 -43.5 -13t-13.5 -32q0 -34 51 -69l90 15l5 -35zM742 29l-20 -29q-49 0 -97 21q11 -19 11 -40q0 -75 -87 -129t-247 -54q-128 0 -188.5 61t-60.5 167q0 93 42 184l40 -13
q-30 -78 -30 -164q0 -178 203 -178q131 0 205 41t74 90q0 28 -35.5 49t-142.5 54l24 50q40 -13 90 -31.5t75.5 -27.5t60 -16t68.5 -7z" />
    <glyph glyph-name="uni067C.init" unicode="&#x67c;" horiz-adv-x="274" 
d="M51 497q-14 0 -24.5 10t-10.5 25q0 14 10.5 24.5t24.5 10.5t24 -10.5t10 -24.5q0 -15 -10 -25t-24 -10zM189 567q14 0 24.5 -10.5t10.5 -24.5q0 -15 -10.5 -25t-24.5 -10q-15 0 -25 10t-10 25q0 14 10 24.5t25 10.5zM206 168q0 -97 -46 -134q36 -21 36 -66
q0 -33 -22.5 -55.5t-57.5 -22.5t-58 22.5t-23 55.5q0 19 7 33q-13 -1 -42 -1l-20 29l25 28q91 0 120 24.5t29 89.5q0 83 -43 206l54 18q41 -120 41 -227zM162 -32q0 21 -12.5 33t-32.5 12q-10 -3 -28 -7q-20 -12 -20 -38q0 -19 12.5 -31.5t34.5 -12.5t34 12.5t12 31.5z" />
    <glyph glyph-name="uni067C.medi" unicode="&#x67c;" horiz-adv-x="327" 
d="M94 427q-14 0 -24.5 10t-10.5 25q0 14 10.5 24.5t24.5 10.5t24 -10.5t10 -24.5q0 -15 -10 -25t-24 -10zM232 427q-15 0 -25 10t-10 25q0 14 10 24.5t25 10.5q14 0 24.5 -10.5t10.5 -24.5q0 -15 -10.5 -25t-24.5 -10zM332 57l15 -28l-20 -29q-124 0 -162 85
q-12 -26 -25 -40q23 -8 36.5 -28t13.5 -45q0 -33 -22 -55.5t-58 -22.5q-35 0 -58 22.5t-23 55.5q0 16 6 29q-11 -1 -35 -1l-20 29l26 28q78 0 104 28t26 91v145h54v-145q0 -62 31.5 -90.5t110.5 -28.5zM157 -28q0 21 -13 32.5t-34 11.5t-33.5 -11.5t-12.5 -32.5
q0 -20 12.5 -32.5t33.5 -12.5q23 0 35 12.5t12 32.5z" />
    <glyph glyph-name="uni067C.fina" unicode="&#x67c;" horiz-adv-x="917" 
d="M357 401q-14 0 -24.5 10t-10.5 25q0 14 10.5 24.5t24.5 10.5t24 -10.5t10 -24.5q0 -15 -10 -25t-24 -10zM495 401q-15 0 -25 10t-10 25q0 14 10 24.5t25 10.5q14 0 24.5 -10.5t10.5 -24.5q0 -15 -10.5 -25t-24.5 -10zM922 57l15 -27l-20 -30q-114 0 -167 82
q-128 -80 -328 -92q15 -19 15 -47q0 -33 -22 -55.5t-58 -22.5q-35 0 -58 22.5t-23 55.5q0 25 14 45q-124 6 -180.5 52t-56.5 136q0 76 36 153l41 -14q-26 -66 -26 -132q0 -73 54 -106t179 -33q257 0 392 88v189h52v-147q0 -56 30 -86.5t111 -30.5zM357 -101q23 0 35 12.5
t12 31.5q0 21 -13 32.5t-34 11.5t-33.5 -11.5t-12.5 -32.5q0 -19 12.5 -31.5t33.5 -12.5z" />
    <glyph glyph-name="uni067D.init" unicode="&#x67d;" horiz-adv-x="269" 
d="M117 623q12 0 12 -12t-12 -12q-13 0 -13 12t13 12zM158 572q12 0 12 -12t-12 -12t-12 12q0 4 4 8t8 4zM85 568q13 0 13 -12q0 -13 -13 -13q-5 0 -8.5 4t-3.5 9q0 12 12 12zM5 57q91 0 120 24.5t29 89.5q0 83 -43 206l54 18q41 -120 41 -227q0 -95 -43 -131.5t-163 -36.5
l-20 29z" />
    <glyph glyph-name="uni067D.medi" unicode="&#x67d;" horiz-adv-x="327" 
d="M160 529q-13 0 -13 12t13 12q12 0 12 -12t-12 -12zM201 478q-12 0 -12 12q0 4 3.5 8t8.5 4q12 0 12 -12t-12 -12zM128 473q-5 0 -8.5 4t-3.5 9q0 12 12 12q13 0 13 -12q0 -13 -13 -13zM332 57l15 -28l-20 -29q-124 0 -162 85q-35 -85 -165 -85l-20 29l26 28q78 0 104 28
t26 91v145h54v-145q0 -62 31.5 -90.5t110.5 -28.5z" />
    <glyph glyph-name="uni067D.fina" unicode="&#x67d;" horiz-adv-x="917" 
d="M423 503q-13 0 -13 12t13 12q12 0 12 -12t-12 -12zM464 452q-12 0 -12 12q0 4 4 8t8 4q12 0 12 -12t-12 -12zM391 447q-5 0 -8.5 4t-3.5 9q0 12 12 12q13 0 13 -12q0 -13 -13 -13zM922 57l15 -27l-20 -30q-114 0 -167 82q-155 -95 -418 -95q-147 0 -213 46t-66 143
q0 76 36 153l41 -14q-26 -66 -26 -132q0 -73 54 -106t179 -33q257 0 392 88v189h52v-147q0 -56 30 -86.5t111 -30.5z" />
    <glyph glyph-name="uni0681.init" unicode="&#x681;" horiz-adv-x="695" 
d="M127 492l-5 34l69 12q-49 35 -49 76q0 34 25 57t71 23q34 0 68 -18l-19 -32q-29 15 -52 15q-29 0 -42.5 -13.5t-13.5 -32.5q0 -34 51 -69l90 15l5 -34zM224 440q56 0 98.5 -17t73 -44t60.5 -56t80.5 -59.5t114.5 -47.5l-9 -50l-65 -5q-83 -4 -164.5 -30t-136.5 -55
t-129.5 -52.5t-146.5 -23.5l-20 29l25 29q65 0 133.5 21t120.5 47.5t130 51.5t159 31q-46 17 -84.5 42t-62.5 47t-49 42t-57 31.5t-73 11.5q-59 0 -118 -36l-27 50q72 43 147 43z" />
    <glyph glyph-name="uni0681.medi" unicode="&#x681;" horiz-adv-x="727" 
d="M126 492l-5 34l69 12q-49 35 -49 76q0 34 25 57t71 23q33 0 68 -18l-19 -32q-29 15 -52 15q-29 0 -42.5 -13.5t-13.5 -32.5q0 -34 51 -69l90 15l5 -34zM732 57l15 -28l-20 -29q-206 0 -234 187q-54 -14 -121 -47t-118 -63t-120 -53.5t-134 -23.5l-20 29l25 28
q65 0 134.5 25t122 56t127.5 62t146 40q-54 18 -100 45t-70.5 47.5t-61.5 35.5t-81 15q-58 0 -120 -34l-27 49q75 42 148 42q52 0 91 -13.5t68.5 -35.5t60 -46.5t82 -51t117.5 -43.5l-7 -50l-65 -2q-18 0 -34 -3q16 -80 63 -109t133 -29z" />
    <glyph glyph-name="uni0681.fina" unicode="&#x681;" horiz-adv-x="681" 
d="M130 492l-5 34l69 12q-49 35 -49 76q0 34 25 57t71 23q33 0 68 -18l-19 -32q-29 15 -52 15q-29 0 -42.5 -13.5t-13.5 -32.5q0 -34 51 -69l90 15l5 -34zM458 198q-171 -19 -258.5 -92t-87.5 -184q0 -100 71.5 -159t207.5 -59q125 0 215 46l22 -50q-92 -54 -243 -54
q-159 0 -240 73.5t-81 194.5q0 143 109.5 231.5t316.5 102.5q-51 21 -99 57t-84.5 57t-83.5 21q-66 0 -125 -36l-27 50q72 43 156 43q44 0 80.5 -15t65.5 -39t58 -49t72 -48t94 -34l-6 -49l-59 -2q-11 0 -31 -2q17 -85 59 -115t126 -30l15 -28l-20 -29q-99 0 -155 47.5
t-68 150.5z" />
    <glyph glyph-name="uni0682.init" unicode="&#x682;" horiz-adv-x="695" 
d="M225 632q-14 0 -24.5 10t-10.5 25q0 14 10.5 24.5t24.5 10.5t24 -10.5t10 -24.5q0 -15 -10 -25t-24 -10zM225 497q-14 0 -24.5 10t-10.5 25q0 14 10.5 24t24.5 10t24 -10t10 -24q0 -15 -10 -25t-24 -10zM224 440q56 0 98.5 -17t73 -44t60.5 -56t80.5 -59.5t114.5 -47.5
l-9 -50l-65 -5q-83 -4 -164.5 -30t-136.5 -55t-129.5 -52.5t-146.5 -23.5l-20 29l25 29q65 0 133.5 21t120.5 47.5t130 51.5t159 31q-46 17 -84.5 42t-62.5 47t-49 42t-57 31.5t-73 11.5q-59 0 -118 -36l-27 50q72 43 147 43z" />
    <glyph glyph-name="uni0682.medi" unicode="&#x682;" horiz-adv-x="727" 
d="M224 632q-14 0 -24.5 10t-10.5 25q0 14 10.5 24.5t24.5 10.5t24 -10.5t10 -24.5q0 -15 -10 -25t-24 -10zM224 497q-14 0 -24.5 10t-10.5 25q0 14 10.5 24t24.5 10t24 -10t10 -24q0 -15 -10 -25t-24 -10zM732 57l15 -28l-20 -29q-206 0 -234 187q-54 -14 -121 -47
t-118 -63t-120 -53.5t-134 -23.5l-20 29l25 28q65 0 134.5 25t122 56t127.5 62t146 40q-54 18 -100 45t-70.5 47.5t-61.5 35.5t-81 15q-58 0 -120 -34l-27 49q75 42 148 42q52 0 91 -13.5t68.5 -35.5t60 -46.5t82 -51t117.5 -43.5l-7 -50l-65 -2q-18 0 -34 -3
q16 -80 63 -109t133 -29z" />
    <glyph glyph-name="uni0682.fina" unicode="&#x682;" horiz-adv-x="681" 
d="M227 632q-14 0 -24.5 10t-10.5 25q0 14 10.5 24.5t24.5 10.5t24 -10.5t10 -24.5q0 -15 -10 -25t-24 -10zM227 497q-14 0 -24.5 10t-10.5 25q0 14 10.5 24t24.5 10t24 -10t10 -24q0 -15 -10 -25t-24 -10zM458 198q-171 -19 -258.5 -92t-87.5 -184q0 -100 71.5 -159
t207.5 -59q125 0 215 46l22 -50q-92 -54 -243 -54q-159 0 -240 73.5t-81 194.5q0 143 109.5 231.5t316.5 102.5q-51 21 -99 57t-84.5 57t-83.5 21q-66 0 -125 -36l-27 50q72 43 156 43q44 0 80.5 -15t65.5 -39t58 -49t72 -48t94 -34l-6 -49l-59 -2q-11 0 -31 -2
q17 -85 59 -115t126 -30l15 -28l-20 -29q-99 0 -155 47.5t-68 150.5z" />
    <glyph glyph-name="uni0685.init" unicode="&#x685;" horiz-adv-x="695" 
d="M224 609q-14 0 -24 10t-10 24t10 24t24 10t24 -10t10 -24t-10 -24t-24 -10zM152 503q-15 0 -25 10t-10 24t10 23.5t25 9.5q14 0 24 -10t10 -23q0 -14 -10 -24t-24 -10zM296 503q-14 0 -24 10t-10 24q0 13 10 23t24 10q15 0 25 -9.5t10 -23.5t-10 -24t-25 -10zM224 440
q56 0 98.5 -17t73 -44t60.5 -56t80.5 -59.5t114.5 -47.5l-9 -50l-65 -5q-83 -4 -164.5 -30t-136.5 -55t-129.5 -52.5t-146.5 -23.5l-20 29l25 29q65 0 133.5 21t120.5 47.5t130 51.5t159 31q-46 17 -84.5 42t-62.5 47t-49 42t-57 31.5t-73 11.5q-59 0 -118 -36l-27 50
q72 43 147 43z" />
    <glyph glyph-name="uni0685.medi" unicode="&#x685;" horiz-adv-x="727" 
d="M223 609q-14 0 -24 10t-10 24t10 24t24 10t24 -10t10 -24t-10 -24t-24 -10zM151 503q-15 0 -25 10t-10 24t10 23.5t25 9.5q14 0 24 -10t10 -23q0 -14 -10 -24t-24 -10zM295 503q-14 0 -24 10t-10 24q0 13 10 23t24 10q15 0 25 -9.5t10 -23.5t-10 -24t-25 -10zM732 57
l15 -28l-20 -29q-206 0 -234 187q-54 -14 -121 -47t-118 -63t-120 -53.5t-134 -23.5l-20 29l25 28q65 0 134.5 25t122 56t127.5 62t146 40q-54 18 -100 45t-70.5 47.5t-61.5 35.5t-81 15q-58 0 -120 -34l-27 49q75 42 148 42q52 0 91 -13.5t68.5 -35.5t60 -46.5t82 -51
t117.5 -43.5l-7 -50l-65 -2q-18 0 -34 -3q16 -80 63 -109t133 -29z" />
    <glyph glyph-name="uni0685.fina" unicode="&#x685;" horiz-adv-x="681" 
d="M227 609q-14 0 -24 10t-10 24t10 24t24 10t24 -10t10 -24t-10 -24t-24 -10zM155 503q-15 0 -25 10t-10 24t10 23.5t25 9.5q14 0 24 -10t10 -23q0 -14 -10 -24t-24 -10zM299 503q-14 0 -24 10t-10 24q0 13 10 23t24 10q15 0 25 -9.5t10 -23.5t-10 -24t-25 -10zM458 198
q-171 -19 -258.5 -92t-87.5 -184q0 -100 71.5 -159t207.5 -59q125 0 215 46l22 -50q-92 -54 -243 -54q-159 0 -240 73.5t-81 194.5q0 143 109.5 231.5t316.5 102.5q-51 21 -99 57t-84.5 57t-83.5 21q-66 0 -125 -36l-27 50q72 43 156 43q44 0 80.5 -15t65.5 -39t58 -49
t72 -48t94 -34l-6 -49l-59 -2q-11 0 -31 -2q17 -85 59 -115t126 -30l15 -28l-20 -29q-99 0 -155 47.5t-68 150.5z" />
    <glyph glyph-name="uni0689.fina" unicode="&#x689;" horiz-adv-x="518" 
d="M522 57l16 -28l-20 -29q-95 0 -133 81q-41 -63 -125 -85q20 -22 20 -53q0 -33 -22 -55.5t-58 -22.5q-35 0 -58 22.5t-23 55.5q0 27 15 46q-49 4 -107 23l17 56q73 -22 141 -22q116 0 181 73l-150 355l57 27l131 -340q23 -59 47 -81.5t71 -22.5zM200 -101q22 0 34.5 12.5
t12.5 31.5q0 21 -13 32.5t-34 11.5t-33.5 -11.5t-12.5 -32.5q0 -19 12.5 -31.5t33.5 -12.5z" />
    <glyph glyph-name="uni068A.fina" unicode="&#x68a;" horiz-adv-x="518" 
d="M522 57l16 -28l-20 -29q-95 0 -133 81q-61 -94 -204 -94q-75 0 -154 25l17 56q73 -22 141 -22q116 0 181 73l-150 355l57 27l131 -340q23 -59 47 -81.5t71 -22.5zM206 -107q16 0 26.5 -11t10.5 -26q0 -16 -10.5 -26.5t-26.5 -10.5t-26.5 10.5t-10.5 26.5q0 15 10.5 26
t26.5 11z" />
    <glyph glyph-name="uni068B.fina" unicode="&#x68b;" horiz-adv-x="518" 
d="M309 654q0 -31 -23.5 -55.5t-70.5 -24.5h-147l3 34h23q5 9 15 25v145h33v-98q45 54 92 54q33 0 54 -22.5t21 -57.5zM125 608h83q68 0 68 47q0 44 -45 44q-52 0 -106 -91zM522 57l16 -28l-20 -29q-95 0 -133 81q-61 -94 -204 -94q-75 0 -154 25l17 56q73 -22 141 -22
q116 0 181 73l-150 355l57 27l131 -340q23 -59 47 -81.5t71 -22.5zM206 -107q16 0 26.5 -11t10.5 -26q0 -16 -10.5 -26.5t-26.5 -10.5t-26.5 10.5t-10.5 26.5q0 15 10.5 26t26.5 11z" />
    <glyph glyph-name="uni068F.fina" unicode="&#x68f;" horiz-adv-x="518" 
d="M186 707q-13 0 -13 12t13 12q12 0 12 -12t-12 -12zM227 656q-12 0 -12 12q0 4 3.5 8t8.5 4q12 0 12 -12t-12 -12zM154 651q-5 0 -8.5 4t-3.5 9q0 12 12 12q13 0 13 -12q0 -13 -13 -13zM522 57l16 -28l-20 -29q-95 0 -133 81q-61 -94 -204 -94q-75 0 -154 25l17 56
q73 -22 141 -22q116 0 181 73l-150 355l57 27l131 -340q23 -59 47 -81.5t71 -22.5z" />
    <glyph glyph-name="uni0690.fina" unicode="&#x690;" horiz-adv-x="518" 
d="M121 689q-14 0 -24 9.5t-10 22.5q0 15 10 25.5t24 10.5t24 -10.5t10 -25.5q0 -13 -10 -22.5t-24 -9.5zM258 689q-14 0 -24 9.5t-10 22.5q0 15 10 25.5t24 10.5t24 -10.5t10 -25.5q0 -13 -10 -22.5t-24 -9.5zM121 560q-14 0 -24 10t-10 24t10 24t24 10t24 -10t10 -24
t-10 -24t-24 -10zM258 560q-14 0 -24 10t-10 24t10 24t24 10t24 -10t10 -24t-10 -24t-24 -10zM522 57l16 -28l-20 -29q-95 0 -133 81q-61 -94 -204 -94q-75 0 -154 25l17 56q73 -22 141 -22q116 0 181 73l-150 355l57 27l131 -340q23 -59 47 -81.5t71 -22.5z" />
    <glyph glyph-name="uni0692.fina" unicode="&#x692;" horiz-adv-x="382" 
d="M205 408h-33l-77 139l30 13l64 -109l64 109l30 -13zM388 57l14 -28l-20 -29q-77 0 -103 56q-15 -220 -283 -303l-23 55q262 79 262 269q0 89 -58 234l58 19q21 -70 36 -149q13 -67 39.5 -95.5t77.5 -28.5z" />
    <glyph glyph-name="uni0693.fina" unicode="&#x693;" horiz-adv-x="382" 
d="M388 57l14 -28l-20 -29q-77 0 -103 56q-7 -117 -85 -195q4 1 11 1q34 0 57 -22.5t23 -56.5q0 -33 -22 -55.5t-58 -22.5q-35 0 -58 22.5t-23 55.5q0 13 5 28q-53 -33 -133 -58l-23 55q262 79 262 269q0 89 -58 234l58 19q21 -70 36 -149q13 -67 39.5 -95.5t77.5 -28.5z
M252 -217q0 21 -13 32.5t-34 11.5t-34 -11.5t-13 -32.5q0 -19 13 -31.5t34 -12.5q22 0 34.5 12.5t12.5 31.5z" />
    <glyph glyph-name="uni0694.fina" unicode="&#x694;" horiz-adv-x="382" 
d="M388 57l14 -28l-20 -29q-77 0 -103 56q-15 -220 -283 -303l-23 55q262 79 262 269q0 89 -58 234l58 19q21 -70 36 -149q13 -67 39.5 -95.5t77.5 -28.5zM204 -277q16 0 26.5 -11t10.5 -26q0 -16 -10.5 -26.5t-26.5 -10.5t-26.5 10.5t-10.5 26.5q0 15 10.5 26t26.5 11z" />
    <glyph glyph-name="uni0695.fina" unicode="&#x695;" horiz-adv-x="382" 
d="M388 57l14 -28l-20 -29q-77 0 -103 56q-15 -220 -283 -303l-23 55q262 79 262 269q0 89 -58 234l58 19q21 -70 36 -149q13 -67 39.5 -95.5t77.5 -28.5zM204 -344l64 109l30 -13l-78 -140h-33l-77 140l30 13z" />
    <glyph glyph-name="uni0696.fina" unicode="&#x696;" horiz-adv-x="382" 
d="M188 427q-16 0 -26.5 10.5t-10.5 26.5q0 15 10.5 26t26.5 11t26.5 -11t10.5 -26q0 -16 -10.5 -26.5t-26.5 -10.5zM388 57l14 -28l-20 -29q-77 0 -103 56q-15 -220 -283 -303l-23 55q262 79 262 269q0 89 -58 234l58 19q21 -70 36 -149q13 -67 39.5 -95.5t77.5 -28.5z
M204 -277q16 0 26.5 -11t10.5 -26q0 -16 -10.5 -26.5t-26.5 -10.5t-26.5 10.5t-10.5 26.5q0 15 10.5 26t26.5 11z" />
    <glyph glyph-name="uni0697.fina" unicode="&#x697;" horiz-adv-x="382" 
d="M120 455q-14 0 -24.5 10t-10.5 25q0 14 10.5 24.5t24.5 10.5t24 -10.5t10 -24.5q0 -15 -10 -25t-24 -10zM258 455q-15 0 -25 10t-10 25q0 14 10 24.5t25 10.5q14 0 24.5 -10.5t10.5 -24.5q0 -15 -10.5 -25t-24.5 -10zM388 57l14 -28l-20 -29q-77 0 -103 56
q-15 -220 -283 -303l-23 55q262 79 262 269q0 89 -58 234l58 19q21 -70 36 -149q13 -67 39.5 -95.5t77.5 -28.5z" />
    <glyph glyph-name="uni0699.fina" unicode="&#x699;" horiz-adv-x="382" 
d="M121 539q-14 0 -24 9.5t-10 22.5q0 15 10 25.5t24 10.5t24 -10.5t10 -25.5q0 -13 -10 -22.5t-24 -9.5zM258 539q-14 0 -24 9.5t-10 22.5q0 15 10 25.5t24 10.5t24 -10.5t10 -25.5q0 -13 -10 -22.5t-24 -9.5zM121 410q-14 0 -24 10t-10 24t10 24t24 10t24 -10t10 -24
t-10 -24t-24 -10zM258 410q-14 0 -24 10t-10 24t10 24t24 10t24 -10t10 -24t-10 -24t-24 -10zM388 57l14 -28l-20 -29q-77 0 -103 56q-15 -220 -283 -303l-23 55q262 79 262 269q0 89 -58 234l58 19q21 -70 36 -149q13 -67 39.5 -95.5t77.5 -28.5z" />
    <glyph glyph-name="uni069A.init" unicode="&#x69a;" horiz-adv-x="813" 
d="M453 399q-16 0 -26.5 10.5t-10.5 26.5q0 15 10.5 26t26.5 11t26.5 -11t10.5 -26q0 -16 -10.5 -26.5t-26.5 -10.5zM709 394q41 -110 41 -219q0 -88 -41 -131.5t-115 -43.5q-101 0 -138 78q-36 -78 -136 -78q-50 0 -86 20t-51 56q-41 -76 -183 -76l-20 29l25 28
q77 0 114.5 26t37.5 82v156h51v-142q0 -67 28.5 -94.5t84.5 -27.5q107 0 107 121v143h52v-142q0 -122 118 -122q51 0 75 27.5t24 85.5q0 94 -39 207zM462 -107q16 0 26.5 -11t10.5 -26q0 -16 -10.5 -26.5t-26.5 -10.5t-26.5 10.5t-10.5 26.5q0 15 10.5 26t26.5 11z" />
    <glyph glyph-name="uni069A.medi" unicode="&#x69a;" horiz-adv-x="926" 
d="M463 399q-16 0 -26.5 10.5t-10.5 26.5q0 15 10.5 26t26.5 11t26.5 -11t10.5 -26q0 -16 -10.5 -26.5t-26.5 -10.5zM931 57l15 -28l-20 -29q-145 0 -178 76q-38 -76 -143 -76q-102 0 -139 77q-38 -77 -137 -77q-50 0 -86.5 20t-52.5 56q-42 -76 -190 -76l-20 29l26 28
q157 0 157 108v156h52v-142q0 -66 29.5 -94t85.5 -28q108 0 108 121v143h52v-142q0 -122 118 -122q106 0 106 109v200h53v-184q0 -70 36 -97.5t128 -27.5zM464 -107q16 0 26.5 -11t10.5 -26q0 -16 -10.5 -26.5t-26.5 -10.5t-26.5 10.5t-10.5 26.5q0 15 10.5 26t26.5 11z" />
    <glyph glyph-name="uni069A.fina" unicode="&#x69a;" horiz-adv-x="1310" 
d="M848 399q-16 0 -26.5 10.5t-10.5 26.5q0 15 10.5 26t26.5 11t26.5 -11t10.5 -26q0 -16 -10.5 -26.5t-26.5 -10.5zM1315 57l15 -28l-20 -29q-146 0 -178 77q-38 -77 -144 -77q-100 0 -136 77q-37 -77 -137 -77h-1q-74 0 -112 44q-4 -156 -76 -223t-224 -67
q-128 0 -188.5 61t-60.5 167q0 91 42 184l40 -13q-30 -78 -30 -164q0 -178 203 -178q132 0 187.5 56t55.5 185q0 85 -59 228l58 24q38 -132 40 -138q17 -60 46.5 -84.5t83.5 -24.5q103 0 103 121v143h53v-142q0 -122 115 -122q107 0 107 109v195h53v-179q0 -70 36 -97.5
t128 -27.5zM851 -107q16 0 26.5 -11t10.5 -26q0 -16 -10.5 -26.5t-26.5 -10.5t-26.5 10.5t-10.5 26.5q0 15 10.5 26t26.5 11z" />
    <glyph glyph-name="uni069B.init" unicode="&#x69b;" horiz-adv-x="813" 
d="M709 394q41 -110 41 -219q0 -88 -41 -131.5t-115 -43.5q-101 0 -138 78q-36 -78 -136 -78q-50 0 -86 20t-51 56q-41 -76 -183 -76l-20 29l25 28q77 0 114.5 26t37.5 82v156h51v-142q0 -67 28.5 -94.5t84.5 -27.5q107 0 107 121v143h52v-142q0 -122 118 -122q51 0 75 27.5
t24 85.5q0 94 -39 207zM459 -128q5 0 8.5 -4t3.5 -9t-3.5 -8.5t-8.5 -3.5t-9 3.5t-4 8.5q0 13 13 13zM500 -180q12 0 12 -12t-12 -12q-4 0 -8 4t-4 8q0 12 12 12zM427 -183q13 0 13 -13q0 -5 -4 -8.5t-9 -3.5t-8.5 4t-3.5 8q0 5 3.5 9t8.5 4z" />
    <glyph glyph-name="uni069B.medi" unicode="&#x69b;" horiz-adv-x="926" 
d="M931 57l15 -28l-20 -29q-145 0 -178 76q-38 -76 -143 -76q-102 0 -139 77q-38 -77 -137 -77q-50 0 -86.5 20t-52.5 56q-42 -76 -190 -76l-20 29l26 28q157 0 157 108v156h52v-142q0 -66 29.5 -94t85.5 -28q108 0 108 121v143h52v-142q0 -122 118 -122q106 0 106 109v200
h53v-184q0 -70 36 -97.5t128 -27.5zM461 -128q5 0 8.5 -4t3.5 -9t-3.5 -8.5t-8.5 -3.5t-9 3.5t-4 8.5q0 13 13 13zM502 -180q12 0 12 -12t-12 -12q-4 0 -8 4t-4 8q0 12 12 12zM429 -183q13 0 13 -13q0 -5 -4 -8.5t-9 -3.5t-8.5 4t-3.5 8q0 5 3.5 9t8.5 4z" />
    <glyph glyph-name="uni069B.fina" unicode="&#x69b;" horiz-adv-x="1310" 
d="M1315 57l15 -28l-20 -29q-146 0 -178 77q-38 -77 -144 -77q-100 0 -136 77q-37 -77 -137 -77h-1q-74 0 -112 44q-4 -156 -76 -223t-224 -67q-128 0 -188.5 61t-60.5 167q0 91 42 184l40 -13q-30 -78 -30 -164q0 -178 203 -178q132 0 187.5 56t55.5 185q0 85 -59 228
l58 24q38 -132 40 -138q17 -60 46.5 -84.5t83.5 -24.5q103 0 103 121v143h53v-142q0 -122 115 -122q107 0 107 109v195h53v-179q0 -70 36 -97.5t128 -27.5zM847 -128q13 0 13 -13q0 -5 -4 -8.5t-9 -3.5q-12 0 -12 12q0 13 12 13zM889 -180q12 0 12 -12t-12 -12q-5 0 -8.5 4
t-3.5 8q0 12 12 12zM816 -183q5 0 8.5 -4t3.5 -9q0 -4 -4 -8t-8 -4t-8 4t-4 8q0 5 3.5 9t8.5 4z" />
    <glyph glyph-name="uni069C.init" unicode="&#x69c;" horiz-adv-x="813" 
d="M454 503q-14 0 -24 10t-10 24t10 24t24 10t24 -10t10 -24t-10 -24t-24 -10zM382 397q-15 0 -25 10t-10 24t10 23.5t25 9.5q14 0 24 -10t10 -23q0 -14 -10 -24t-24 -10zM526 397q-14 0 -24 10t-10 24q0 13 10 23t24 10q15 0 25 -9.5t10 -23.5t-10 -24t-25 -10zM709 394
q41 -110 41 -219q0 -88 -41 -131.5t-115 -43.5q-101 0 -138 78q-36 -78 -136 -78q-50 0 -86 20t-51 56q-41 -76 -183 -76l-20 29l25 28q77 0 114.5 26t37.5 82v156h51v-142q0 -67 28.5 -94.5t84.5 -27.5q107 0 107 121v143h52v-142q0 -122 118 -122q51 0 75 27.5t24 85.5
q0 94 -39 207zM459 -128q5 0 8.5 -4t3.5 -9t-3.5 -8.5t-8.5 -3.5t-9 3.5t-4 8.5q0 13 13 13zM500 -180q12 0 12 -12t-12 -12q-4 0 -8 4t-4 8q0 12 12 12zM427 -183q13 0 13 -13q0 -5 -4 -8.5t-9 -3.5t-8.5 4t-3.5 8q0 5 3.5 9t8.5 4z" />
    <glyph glyph-name="uni069C.medi" unicode="&#x69c;" horiz-adv-x="926" 
d="M464 503q-14 0 -24 10t-10 24t10 24t24 10t24 -10t10 -24t-10 -24t-24 -10zM392 397q-15 0 -25 10t-10 24t10 23.5t25 9.5q14 0 24 -10t10 -23q0 -14 -10 -24t-24 -10zM536 397q-14 0 -24 10t-10 24q0 13 10 23t24 10q15 0 25 -9.5t10 -23.5t-10 -24t-25 -10zM931 57
l15 -28l-20 -29q-145 0 -178 76q-38 -76 -143 -76q-102 0 -139 77q-38 -77 -137 -77q-50 0 -86.5 20t-52.5 56q-42 -76 -190 -76l-20 29l26 28q157 0 157 108v156h52v-142q0 -66 29.5 -94t85.5 -28q108 0 108 121v143h52v-142q0 -122 118 -122q106 0 106 109v200h53v-184
q0 -70 36 -97.5t128 -27.5zM461 -128q5 0 8.5 -4t3.5 -9t-3.5 -8.5t-8.5 -3.5t-9 3.5t-4 8.5q0 13 13 13zM502 -180q12 0 12 -12t-12 -12q-4 0 -8 4t-4 8q0 12 12 12zM429 -183q13 0 13 -13q0 -5 -4 -8.5t-9 -3.5t-8.5 4t-3.5 8q0 5 3.5 9t8.5 4z" />
    <glyph glyph-name="uni069C.fina" unicode="&#x69c;" horiz-adv-x="1310" 
d="M850 503q-14 0 -24 10t-10 24t10 24t24 10t24 -10t10 -24t-10 -24t-24 -10zM778 397q-15 0 -25 10t-10 24t10 23.5t25 9.5q14 0 24 -10t10 -23q0 -14 -10 -24t-24 -10zM922 397q-14 0 -24 10t-10 24q0 13 10 23t24 10q15 0 25 -9.5t10 -23.5t-10 -24t-25 -10zM1315 57
l15 -28l-20 -29q-146 0 -178 77q-38 -77 -144 -77q-100 0 -136 77q-37 -77 -137 -77h-1q-74 0 -112 44q-4 -156 -76 -223t-224 -67q-128 0 -188.5 61t-60.5 167q0 91 42 184l40 -13q-30 -78 -30 -164q0 -178 203 -178q132 0 187.5 56t55.5 185q0 85 -59 228l58 24
q38 -132 40 -138q17 -60 46.5 -84.5t83.5 -24.5q103 0 103 121v143h53v-142q0 -122 115 -122q107 0 107 109v195h53v-179q0 -70 36 -97.5t128 -27.5zM848 -128q5 0 8.5 -4t3.5 -9t-4 -8.5t-8 -3.5q-5 0 -9 3.5t-4 8.5q0 13 13 13zM889 -180q12 0 12 -12t-12 -12q-5 0 -8.5 4
t-3.5 8q0 12 12 12zM816 -183q13 0 13 -13q0 -5 -4 -8.5t-9 -3.5q-4 0 -8 4t-4 8q0 5 3.5 9t8.5 4z" />
    <glyph glyph-name="uni069D.init" unicode="&#x69d;" horiz-adv-x="923" 
d="M657 437q95 0 149 -59.5t54 -166.5q0 -53 -14 -89.5t-42 -60.5t-79.5 -37.5t-116 -18.5t-161.5 -5h-132q-118 0 -156 83q-35 -83 -159 -83l-20 29l26 28q74 0 99.5 27.5t25.5 88.5v207h53v-207q0 -54 24.5 -82t82.5 -33q56 175 154.5 277t211.5 102zM447 57
q209 0 286.5 31.5t77.5 125.5q0 164 -150 164q-195 0 -321 -321h107zM89 -107q14 0 24 -10.5t10 -24.5t-10 -24t-24 -10t-24.5 10t-10.5 24t10.5 24.5t24.5 10.5zM227 -107q14 0 24.5 -10.5t10.5 -24.5t-10.5 -24t-24.5 -10q-15 0 -25 10t-10 24t10 24.5t25 10.5z" />
    <glyph glyph-name="uni069D.medi" unicode="&#x69d;" horiz-adv-x="957" 
d="M962 57l15 -28l-20 -29q-87 0 -139 74q-40 -42 -126.5 -58t-244.5 -16h-132q-118 0 -156 83q-35 -83 -159 -83l-20 29l26 28q74 0 99.5 27.5t25.5 88.5v207h53v-207q0 -54 24.5 -82t82.5 -33q56 175 154.5 277t211.5 102q95 0 149 -59.5t54 -166.5q0 -58 -16 -96
q42 -58 118 -58zM447 57q209 0 286.5 31.5t77.5 125.5q0 164 -150 164q-195 0 -321 -321h107zM89 -107q14 0 24 -10.5t10 -24.5t-10 -24t-24 -10t-24.5 10t-10.5 24t10.5 24.5t24.5 10.5zM227 -107q14 0 24.5 -10.5t10.5 -24.5t-10.5 -24t-24.5 -10q-15 0 -25 10t-10 24
t10 24.5t25 10.5z" />
    <glyph glyph-name="uni069D.fina" unicode="&#x69d;" horiz-adv-x="1356" 
d="M1361 57l15 -28l-20 -29q-87 0 -139 74q-40 -42 -126 -58t-244 -16h-132v2q-75 0 -113 44q-4 -156 -76 -223t-224 -67q-128 0 -188.5 61t-60.5 167q0 91 42 184l40 -13q-30 -78 -30 -164q0 -178 203 -178q132 0 187.5 56t55.5 185q0 85 -59 228l58 24q38 -132 40 -138
q15 -52 38.5 -77t63.5 -30q56 174 154 275t210 101q96 0 149.5 -59.5t53.5 -166.5q0 -58 -16 -96q42 -58 118 -58zM847 57q209 0 286.5 31.5t77.5 125.5q0 164 -151 164q-196 0 -320 -321h107zM246 -338q14 0 24 -10.5t10 -24.5t-10 -24t-24 -10t-24.5 10t-10.5 24
t10.5 24.5t24.5 10.5zM384 -338q14 0 24.5 -10.5t10.5 -24.5t-10.5 -24t-24.5 -10q-15 0 -25 10t-10 24t10 24.5t25 10.5z" />
    <glyph glyph-name="uni069E.init" unicode="&#x69e;" horiz-adv-x="923" 
d="M625 595q-14 0 -24 10t-10 24t10 24t24 10q13 0 23.5 -10.5t10.5 -23.5q0 -14 -10 -24t-24 -10zM552 489q-14 0 -24 10t-10 24t10 23.5t24 9.5t24 -10t10 -23q0 -14 -10 -24t-24 -10zM697 489q-14 0 -24 10t-10 24q0 13 10 23t24 10t24 -9.5t10 -23.5t-10 -24t-24 -10z
M657 437q95 0 149 -59.5t54 -166.5q0 -53 -14 -89.5t-42 -60.5t-79.5 -37.5t-116 -18.5t-161.5 -5h-132q-118 0 -156 83q-35 -83 -159 -83l-20 29l26 28q74 0 99.5 27.5t25.5 88.5v207h53v-207q0 -54 24.5 -82t82.5 -33q56 175 154.5 277t211.5 102zM447 57
q209 0 286.5 31.5t77.5 125.5q0 164 -150 164q-195 0 -321 -321h107z" />
    <glyph glyph-name="uni069E.medi" unicode="&#x69e;" horiz-adv-x="957" 
d="M625 595q-14 0 -24 10t-10 24t10 24t24 10q13 0 23.5 -10.5t10.5 -23.5q0 -14 -10 -24t-24 -10zM552 489q-14 0 -24 10t-10 24t10 23.5t24 9.5t24 -10t10 -23q0 -14 -10 -24t-24 -10zM697 489q-14 0 -24 10t-10 24q0 13 10 23t24 10t24 -9.5t10 -23.5t-10 -24t-24 -10z
M962 57l15 -28l-20 -29q-87 0 -139 74q-40 -42 -126.5 -58t-244.5 -16h-132q-118 0 -156 83q-35 -83 -159 -83l-20 29l26 28q74 0 99.5 27.5t25.5 88.5v207h53v-207q0 -54 24.5 -82t82.5 -33q56 175 154.5 277t211.5 102q95 0 149 -59.5t54 -166.5q0 -58 -16 -96
q42 -58 118 -58zM447 57q209 0 286.5 31.5t77.5 125.5q0 164 -150 164q-195 0 -321 -321h107z" />
    <glyph glyph-name="uni069E.fina" unicode="&#x69e;" horiz-adv-x="1356" 
d="M1024 594q-14 0 -24 10t-10 24t10 24t24 10t24 -10t10 -24t-10 -24t-24 -10zM952 488q-15 0 -25 10t-10 24t10 23.5t25 9.5q14 0 24 -10t10 -23q0 -14 -10 -24t-24 -10zM1096 488q-14 0 -24 10t-10 24q0 13 10 23t24 10q15 0 25 -9.5t10 -23.5t-10 -24t-25 -10zM1361 57
l15 -28l-20 -29q-87 0 -139 74q-40 -42 -126 -58t-244 -16h-132v2q-75 0 -113 44q-4 -156 -76 -223t-224 -67q-128 0 -188.5 61t-60.5 167q0 91 42 184l40 -13q-30 -78 -30 -164q0 -178 203 -178q132 0 187.5 56t55.5 185q0 85 -59 228l58 24q38 -132 40 -138
q15 -52 38.5 -77t63.5 -30q56 174 154 275t210 101q96 0 149.5 -59.5t53.5 -166.5q0 -58 -16 -96q42 -58 118 -58zM847 57q209 0 286.5 31.5t77.5 125.5q0 164 -151 164q-196 0 -320 -321h107z" />
    <glyph glyph-name="uni069F.init" unicode="&#x69f;" horiz-adv-x="793" 
d="M528 437q95 0 149 -59.5t54 -166.5q0 -53 -14 -89.5t-42 -60.5t-79.5 -37.5t-116 -18.5t-161.5 -5h-318l-20 29l25 28h157q10 33 31 84v602l53 8v-508q57 93 130.5 143.5t151.5 50.5zM488 595q-14 0 -24 10t-10 24q0 13 10 23.5t24 10.5t24 -10t10 -24t-10 -24t-24 -10z
M416 489q-14 0 -24.5 10t-10.5 24q0 13 10.5 23t24.5 10t24 -10t10 -23q0 -14 -10 -24t-24 -10zM561 489q-14 0 -24 10t-10 24q0 13 10 23t24 10t24 -9.5t10 -23.5t-10 -24t-24 -10zM318 57q209 0 286.5 31.5t77.5 125.5q0 164 -151 164q-196 0 -320 -321h107z" />
    <glyph glyph-name="uni069F.medi" unicode="&#x69f;" horiz-adv-x="827" 
d="M833 57l15 -28l-20 -29q-87 0 -139 74q-40 -42 -126.5 -58t-244.5 -16h-318l-20 29l25 28h157q10 33 31 84v602l53 8v-508q57 93 130.5 143.5t151.5 50.5q95 0 149 -59.5t54 -166.5q0 -58 -16 -96q42 -58 118 -58zM488 595q-14 0 -24 10t-10 24q0 13 10 23.5t24 10.5
t24 -10t10 -24t-10 -24t-24 -10zM416 489q-14 0 -24.5 10t-10.5 24q0 13 10.5 23t24.5 10t24 -10t10 -23q0 -14 -10 -24t-24 -10zM561 489q-14 0 -24 10t-10 24q0 13 10 23t24 10t24 -9.5t10 -23.5t-10 -24t-24 -10zM318 57q209 0 286.5 31.5t77.5 125.5q0 164 -151 164
q-196 0 -320 -321h107z" />
    <glyph glyph-name="uni069F.fina" unicode="&#x69f;" horiz-adv-x="826" 
d="M831 57l15 -28l-20 -29q-87 0 -139 74q-40 -42 -126.5 -58t-244.5 -16h-281l11 57h114q10 33 31 84v602l53 8v-508q57 93 130.5 143.5t151.5 50.5q95 0 149 -59.5t54 -166.5q0 -58 -16 -96q42 -58 118 -58zM487 594q-14 0 -24 10t-10 24t10 24t24 10t24 -10t10 -24
t-10 -24t-24 -10zM415 488q-15 0 -25 10t-10 24t10 23.5t25 9.5q14 0 24 -10t10 -23q0 -14 -10 -24t-24 -10zM559 488q-14 0 -24 10t-10 24q0 13 10 23t24 10q15 0 25 -9.5t10 -23.5t-10 -24t-25 -10zM316 57q209 0 286.5 31.5t77.5 125.5q0 164 -151 164q-196 0 -320 -321
h107z" />
    <glyph glyph-name="uni06A0.init" unicode="&#x6a0;" horiz-adv-x="548" 
d="M281 599q-14 0 -24 10t-10 24t10 24t24 10t24 -10t10 -24t-10 -24t-24 -10zM209 493q-15 0 -25 10t-10 24t10 23.5t25 9.5q14 0 24 -10t10 -23q0 -14 -10 -24t-24 -10zM353 493q-14 0 -24 10t-10 24q0 13 10 23t24 10q15 0 25 -9.5t10 -23.5t-10 -24t-25 -10zM521 109
l6 -57q-131 -31 -219.5 -41.5t-205.5 -10.5h-102l-20 29l25 28h85q78 0 110 2q-126 75 -126 192q0 73 54.5 126.5t152.5 53.5q79 0 146 -37l-25 -54q-61 33 -121 33q-76 0 -115 -36.5t-39 -89.5q0 -107 149 -183q92 9 245 45z" />
    <glyph glyph-name="uni06A0.medi" unicode="&#x6a0;" horiz-adv-x="562" 
d="M282 593q-14 0 -24 10t-10 24t10 24t24 10t24 -10t10 -24t-10 -24t-24 -10zM210 487q-15 0 -25 10t-10 24t10 23.5t25 9.5q14 0 24 -10t10 -23q0 -14 -10 -24t-24 -10zM354 487q-14 0 -24 10t-10 24q0 13 10 23t24 10q15 0 25 -9.5t10 -23.5t-10 -24t-25 -10zM568 57
l14 -29l-20 -28h-27q-125 0 -224 80q-69 -37 -146 -58.5t-136 -21.5h-29l-20 28l25 29h14q121 0 251 60q-13 13 -52 54.5t-74.5 74t-84.5 67.5l7 57q107 44 216 44q102 0 152.5 -33.5t50.5 -93.5q0 -94 -124 -177q41 -30 80.5 -41.5t104.5 -11.5h22zM116 329q45 -33 111 -98
t93 -88q117 66 117 139q0 77 -155 77q-82 0 -166 -30z" />
    <glyph glyph-name="uni06A0.fina" unicode="&#x6a0;" horiz-adv-x="559" 
d="M284 592q-14 0 -24 10t-10 24t10 24t24 10t24 -10t10 -24t-10 -24t-24 -10zM212 486q-15 0 -25 10t-10 24t10 23.5t25 9.5q14 0 24 -10t10 -23q0 -14 -10 -24t-24 -10zM356 486q-14 0 -24 10t-10 24q0 13 10 23t24 10q15 0 25 -9.5t10 -23.5t-10 -24t-25 -10zM344 -296
q116 0 202 44l22 -50q-91 -52 -230 -52q-141 0 -215.5 66.5t-74.5 167.5q0 176 188 259q-6 6 -32.5 33.5t-42.5 43t-48 43.5t-67 54l7 57q109 44 225 44q199 0 199 -123q0 -52 -35 -90.5t-110 -74.5q51 -41 91.5 -55t112.5 -14h28l15 -28l-20 -29h-34q-70 0 -127 23.5
t-121 77.5q-95 -42 -137.5 -92t-42.5 -121q0 -81 64 -132.5t183 -51.5zM104 329q44 -33 106.5 -93t78.5 -74q73 31 106.5 59t33.5 65q0 73 -151 73q-86 0 -174 -30z" />
    <glyph glyph-name="uni06A1.init" unicode="&#x6a1;" horiz-adv-x="459" 
d="M214 546q81 0 131.5 -71.5t50.5 -198.5q0 -103 -33.5 -161t-119.5 -86.5t-243 -28.5l-20 30l25 27q133 0 207.5 19.5t101.5 53t32 92.5q-41 -38 -124 -38t-133.5 48t-50.5 125t51 133t125 56zM239 234q63 0 109 26v7q0 111 -36 166.5t-99 55.5q-55 0 -90.5 -37.5
t-35.5 -90.5q0 -59 39 -93t113 -34z" />
    <glyph glyph-name="uni06A1.medi" unicode="&#x6a1;" horiz-adv-x="494" 
d="M499 57l15 -28l-20 -29h-37q-108 0 -203 46q-100 -46 -223 -46h-31l-20 29l25 28h32q90 0 159 21q-117 80 -117 190q0 79 49.5 136.5t119.5 57.5q79 0 128 -57t49 -138q0 -50 -30 -100.5t-85 -88.5q69 -21 147 -21h42zM128 268q0 -106 125 -168q123 59 123 167
q0 60 -34.5 99t-91.5 39q-53 0 -87.5 -39t-34.5 -98z" />
    <glyph glyph-name="uni06A1.fina" unicode="&#x6a1;" horiz-adv-x="959" 
d="M963 57l16 -28l-20 -29h-37q-110 0 -209 48q-142 -61 -381 -61q-147 0 -213 46t-66 143q0 76 36 153l41 -14q-26 -66 -26 -132q0 -73 54 -106t179 -33q194 0 319 37q-113 79 -113 187q0 79 49.5 136.5t119.5 57.5q79 0 128 -57t49 -138q0 -114 -118 -188q74 -22 151 -22
h41zM592 268q0 -106 121 -165q127 58 127 164q0 60 -34.5 99t-90.5 39q-54 0 -88.5 -39t-34.5 -98z" />
    <glyph glyph-name="uni06A2.init" unicode="&#x6a2;" horiz-adv-x="459" 
d="M214 546q81 0 131.5 -71.5t50.5 -198.5q0 -103 -33.5 -161t-119.5 -86.5t-243 -28.5l-20 30l25 27q133 0 207.5 19.5t101.5 53t32 92.5q-41 -38 -124 -38t-133.5 48t-50.5 125t51 133t125 56zM239 234q63 0 109 26v7q0 111 -36 166.5t-99 55.5q-55 0 -90.5 -37.5
t-35.5 -90.5q0 -59 39 -93t113 -34zM202 -107q16 0 26.5 -11t10.5 -26q0 -16 -10.5 -26.5t-26.5 -10.5t-26.5 10.5t-10.5 26.5q0 15 10.5 26t26.5 11z" />
    <glyph glyph-name="uni06A2.medi" unicode="&#x6a2;" horiz-adv-x="494" 
d="M499 57l15 -28l-20 -29h-37q-108 0 -203 46q-100 -46 -223 -46h-31l-20 29l25 28h32q90 0 159 21q-117 80 -117 190q0 79 49.5 136.5t119.5 57.5q79 0 128 -57t49 -138q0 -50 -30 -100.5t-85 -88.5q69 -21 147 -21h42zM128 268q0 -106 125 -168q123 59 123 167
q0 60 -34.5 99t-91.5 39q-53 0 -87.5 -39t-34.5 -98zM253 -107q16 0 26.5 -11t10.5 -26q0 -16 -10.5 -26.5t-26.5 -10.5t-26.5 10.5t-10.5 26.5q0 15 10.5 26t26.5 11z" />
    <glyph glyph-name="uni06A2.fina" unicode="&#x6a2;" horiz-adv-x="959" 
d="M963 57l16 -28l-20 -29h-37q-110 0 -209 48q-142 -61 -381 -61q-147 0 -213 46t-66 143q0 76 36 153l41 -14q-26 -66 -26 -132q0 -73 54 -106t179 -33q194 0 319 37q-113 79 -113 187q0 79 49.5 136.5t119.5 57.5q79 0 128 -57t49 -138q0 -114 -118 -188q74 -22 151 -22
h41zM592 268q0 -106 121 -165q127 58 127 164q0 60 -34.5 99t-90.5 39q-54 0 -88.5 -39t-34.5 -98zM719 -107q16 0 26.5 -11t10.5 -26q0 -16 -10.5 -26.5t-26.5 -10.5t-26.5 10.5t-10.5 26.5q0 15 10.5 26t26.5 11z" />
    <glyph glyph-name="uni06A3.init" unicode="&#x6a3;" horiz-adv-x="459" 
d="M212 613q-16 0 -26.5 10.5t-10.5 26.5q0 15 10.5 26t26.5 11t26.5 -11t10.5 -26q0 -16 -10.5 -26.5t-26.5 -10.5zM214 546q81 0 131.5 -71.5t50.5 -198.5q0 -103 -33.5 -161t-119.5 -86.5t-243 -28.5l-20 30l25 27q133 0 207.5 19.5t101.5 53t32 92.5q-41 -38 -124 -38
t-133.5 48t-50.5 125t51 133t125 56zM239 234q63 0 109 26v7q0 111 -36 166.5t-99 55.5q-55 0 -90.5 -37.5t-35.5 -90.5q0 -59 39 -93t113 -34zM209 -107q16 0 26.5 -11t10.5 -26q0 -16 -10.5 -26.5t-26.5 -10.5t-26.5 10.5t-10.5 26.5q0 15 10.5 26t26.5 11z" />
    <glyph glyph-name="uni06A3.medi" unicode="&#x6a3;" horiz-adv-x="494" 
d="M246 527q-16 0 -26.5 10.5t-10.5 26.5q0 15 10.5 26t26.5 11t26.5 -11t10.5 -26q0 -16 -10.5 -26.5t-26.5 -10.5zM499 57l15 -28l-20 -29h-37q-108 0 -203 46q-100 -46 -223 -46h-31l-20 29l25 28h32q90 0 159 21q-117 80 -117 190q0 79 49.5 136.5t119.5 57.5
q79 0 128 -57t49 -138q0 -50 -30 -100.5t-85 -88.5q69 -21 147 -21h42zM128 268q0 -106 125 -168q123 59 123 167q0 60 -34.5 99t-91.5 39q-53 0 -87.5 -39t-34.5 -98zM253 -107q16 0 26.5 -11t10.5 -26q0 -16 -10.5 -26.5t-26.5 -10.5t-26.5 10.5t-10.5 26.5q0 15 10.5 26
t26.5 11z" />
    <glyph glyph-name="uni06A3.fina" unicode="&#x6a3;" horiz-adv-x="959" 
d="M711 528q-16 0 -26.5 10.5t-10.5 26.5q0 15 10.5 26t26.5 11t26.5 -11t10.5 -26q0 -16 -10.5 -26.5t-26.5 -10.5zM963 57l16 -28l-20 -29h-37q-110 0 -209 48q-142 -61 -381 -61q-147 0 -213 46t-66 143q0 76 36 153l41 -14q-26 -66 -26 -132q0 -73 54 -106t179 -33
q194 0 319 37q-113 79 -113 187q0 79 49.5 136.5t119.5 57.5q79 0 128 -57t49 -138q0 -114 -118 -188q74 -22 151 -22h41zM592 268q0 -106 121 -165q127 58 127 164q0 60 -34.5 99t-90.5 39q-54 0 -88.5 -39t-34.5 -98zM711 -107q16 0 26.5 -11t10.5 -26q0 -16 -10.5 -26.5
t-26.5 -10.5t-26.5 10.5t-10.5 26.5q0 15 10.5 26t26.5 11z" />
    <glyph glyph-name="uni06A5.init" unicode="&#x6a5;" horiz-adv-x="459" 
d="M214 546q81 0 131.5 -71.5t50.5 -198.5q0 -103 -33.5 -161t-119.5 -86.5t-243 -28.5l-20 30l25 27q133 0 207.5 19.5t101.5 53t32 92.5q-41 -38 -124 -38t-133.5 48t-50.5 125t51 133t125 56zM239 234q63 0 109 26v7q0 111 -36 166.5t-99 55.5q-55 0 -90.5 -37.5
t-35.5 -90.5q0 -59 39 -93t113 -34zM199 -128q5 0 8.5 -4t3.5 -9t-3.5 -8.5t-8.5 -3.5t-9 3.5t-4 8.5q0 13 13 13zM240 -180q12 0 12 -12t-12 -12q-4 0 -8 4t-4 8q0 12 12 12zM167 -183q13 0 13 -13q0 -5 -4 -8.5t-9 -3.5t-8.5 4t-3.5 8q0 5 3.5 9t8.5 4z" />
    <glyph glyph-name="uni06A5.medi" unicode="&#x6a5;" horiz-adv-x="494" 
d="M499 57l15 -28l-20 -29h-37q-108 0 -203 46q-100 -46 -223 -46h-31l-20 29l25 28h32q90 0 159 21q-117 80 -117 190q0 79 49.5 136.5t119.5 57.5q79 0 128 -57t49 -138q0 -50 -30 -100.5t-85 -88.5q69 -21 147 -21h42zM128 268q0 -106 125 -168q123 59 123 167
q0 60 -34.5 99t-91.5 39q-53 0 -87.5 -39t-34.5 -98zM250 -128q5 0 8.5 -4t3.5 -9t-4 -8.5t-8 -3.5q-5 0 -9 3.5t-4 8.5q0 13 13 13zM291 -180q12 0 12 -12t-12 -12q-5 0 -8.5 4t-3.5 8q0 12 12 12zM218 -183q13 0 13 -13q0 -5 -4 -8.5t-9 -3.5q-4 0 -8 4t-4 8q0 5 3.5 9
t8.5 4z" />
    <glyph glyph-name="uni06A5.fina" unicode="&#x6a5;" horiz-adv-x="959" 
d="M963 57l16 -28l-20 -29h-37q-110 0 -209 48q-142 -61 -381 -61q-147 0 -213 46t-66 143q0 76 36 153l41 -14q-26 -66 -26 -132q0 -73 54 -106t179 -33q194 0 319 37q-113 79 -113 187q0 79 49.5 136.5t119.5 57.5q79 0 128 -57t49 -138q0 -114 -118 -188q74 -22 151 -22
h41zM592 268q0 -106 121 -165q127 58 127 164q0 60 -34.5 99t-90.5 39q-54 0 -88.5 -39t-34.5 -98zM716 -128q5 0 8.5 -4t3.5 -9t-4 -8.5t-8 -3.5q-5 0 -9 3.5t-4 8.5q0 13 13 13zM757 -180q12 0 12 -12t-12 -12q-5 0 -8.5 4t-3.5 8q0 12 12 12zM684 -183q13 0 13 -13
q0 -5 -4 -8.5t-9 -3.5q-4 0 -8 4t-4 8q0 5 3.5 9t8.5 4z" />
    <glyph glyph-name="uni06A7.init" unicode="&#x6a7;" horiz-adv-x="459" 
d="M212 613q-16 0 -26.5 10.5t-10.5 26.5q0 15 10.5 26t26.5 11t26.5 -11t10.5 -26q0 -16 -10.5 -26.5t-26.5 -10.5zM214 546q81 0 131.5 -71.5t50.5 -198.5q0 -103 -33.5 -161t-119.5 -86.5t-243 -28.5l-20 30l25 27q133 0 207.5 19.5t101.5 53t32 92.5q-41 -38 -124 -38
t-133.5 48t-50.5 125t51 133t125 56zM239 234q63 0 109 26v7q0 111 -36 166.5t-99 55.5q-55 0 -90.5 -37.5t-35.5 -90.5q0 -59 39 -93t113 -34z" />
    <glyph glyph-name="uni06A7.medi" unicode="&#x6a7;" horiz-adv-x="494" 
d="M246 527q-16 0 -26.5 10.5t-10.5 26.5q0 15 10.5 26t26.5 11t26.5 -11t10.5 -26q0 -16 -10.5 -26.5t-26.5 -10.5zM499 57l15 -28l-20 -29h-37q-108 0 -203 46q-100 -46 -223 -46h-31l-20 29l25 28h32q90 0 159 21q-117 80 -117 190q0 79 49.5 136.5t119.5 57.5
q79 0 128 -57t49 -138q0 -50 -30 -100.5t-85 -88.5q69 -21 147 -21h42zM128 268q0 -106 125 -168q123 59 123 167q0 60 -34.5 99t-91.5 39q-53 0 -87.5 -39t-34.5 -98z" />
    <glyph glyph-name="uni06A7.fina" unicode="&#x6a7;" horiz-adv-x="764" 
d="M489 429q-16 0 -26.5 10.5t-10.5 26.5q0 15 10.5 26t26.5 11t26.5 -11t10.5 -26q0 -16 -10.5 -26.5t-26.5 -10.5zM784 29l-20 -29h-98q-14 -120 -83.5 -183t-225.5 -63q-165 0 -234.5 59t-69.5 169q0 91 42 184l40 -13q-30 -78 -30 -164q0 -85 57.5 -131.5t199.5 -46.5
q134 0 190 49.5t67 139.5h-88q-105 0 -161 48.5t-56 127.5q0 77 51 132.5t124 55.5q81 0 131.5 -72t50.5 -203q0 -22 -1 -32h99zM526 57h97v24q0 114 -35.5 170.5t-98.5 56.5q-55 0 -91 -37.5t-36 -90.5q0 -58 42.5 -90.5t121.5 -32.5z" />
    <glyph glyph-name="uni06A8.init" unicode="&#x6a8;" horiz-adv-x="459" 
d="M213 717q-14 0 -24 10t-10 24t10 24t24 10t24 -10t10 -24t-10 -24t-24 -10zM141 611q-15 0 -25 10t-10 24t10 23.5t25 9.5q14 0 24 -10t10 -23q0 -14 -10 -24t-24 -10zM285 611q-14 0 -24 10t-10 24q0 13 10 23t24 10q15 0 25 -9.5t10 -23.5t-10 -24t-25 -10zM214 546
q81 0 131.5 -71.5t50.5 -198.5q0 -103 -33.5 -161t-119.5 -86.5t-243 -28.5l-20 30l25 27q133 0 207.5 19.5t101.5 53t32 92.5q-41 -38 -124 -38t-133.5 48t-50.5 125t51 133t125 56zM239 234q63 0 109 26v7q0 111 -36 166.5t-99 55.5q-55 0 -90.5 -37.5t-35.5 -90.5
q0 -59 39 -93t113 -34z" />
    <glyph glyph-name="uni06A8.medi" unicode="&#x6a8;" horiz-adv-x="494" 
d="M248 631q-14 0 -24 10t-10 24t10 24t24 10t24 -10t10 -24t-10 -24t-24 -10zM176 525q-15 0 -25 10t-10 24t10 23.5t25 9.5q14 0 24 -10t10 -23q0 -14 -10 -24t-24 -10zM320 525q-14 0 -24 10t-10 24q0 13 10 23t24 10q15 0 25 -9.5t10 -23.5t-10 -24t-25 -10zM499 57
l15 -28l-20 -29h-37q-108 0 -203 46q-100 -46 -223 -46h-31l-20 29l25 28h32q90 0 159 21q-117 80 -117 190q0 79 49.5 136.5t119.5 57.5q79 0 128 -57t49 -138q0 -50 -30 -100.5t-85 -88.5q69 -21 147 -21h42zM128 268q0 -106 125 -168q123 59 123 167q0 60 -34.5 99
t-91.5 39q-53 0 -87.5 -39t-34.5 -98z" />
    <glyph glyph-name="uni06A8.fina" unicode="&#x6a8;" horiz-adv-x="764" 
d="M490 533q-14 0 -24 10t-10 24t10 24t24 10t24 -10t10 -24t-10 -24t-24 -10zM418 427q-15 0 -25 10t-10 24t10 23.5t25 9.5q14 0 24 -10t10 -23q0 -14 -10 -24t-24 -10zM562 427q-14 0 -24 10t-10 24q0 13 10 23t24 10q15 0 25 -9.5t10 -23.5t-10 -24t-25 -10zM784 29
l-20 -29h-98q-14 -120 -83.5 -183t-225.5 -63q-165 0 -234.5 59t-69.5 169q0 91 42 184l40 -13q-30 -78 -30 -164q0 -85 57.5 -131.5t199.5 -46.5q134 0 190 49.5t67 139.5h-88q-105 0 -161 48.5t-56 127.5q0 77 51 132.5t124 55.5q81 0 131.5 -72t50.5 -203q0 -22 -1 -32
h99zM526 57h97v24q0 114 -35.5 170.5t-98.5 56.5q-55 0 -91 -37.5t-36 -90.5q0 -58 42.5 -90.5t121.5 -32.5z" />
    <glyph glyph-name="uni06AA.init" unicode="&#x6aa;" horiz-adv-x="1171" 
d="M819 339q289 0 289 -161q0 -72 -102 -115q-163 -63 -607 -63h-399l-20 29l25 28h384q670 0 670 121q0 49 -57.5 79t-182.5 29q-100 -1 -259.5 -12t-242.5 -11q-137 0 -220 15l6 48q31 102 116 180.5t210 108.5l-10 -56q-97 -25 -170 -87.5t-103 -145.5q83 -10 178 -10
q84 0 242 11.5t253 11.5z" />
    <glyph glyph-name="uni06AA.medi" unicode="&#x6aa;" horiz-adv-x="1266" 
d="M1271 57l15 -28l-20 -29q-175 0 -186 110q-26 -27 -74 -47q-163 -63 -607 -63h-399l-20 29l25 28h384q670 0 670 121q0 49 -57.5 79t-182.5 29q-100 -1 -259.5 -12t-242.5 -11q-137 0 -220 15l6 48q31 102 116 180.5t210 108.5l-10 -56q-97 -25 -170 -87.5t-103 -145.5
q83 -10 178 -10q84 0 242 11.5t253 11.5q289 0 289 -161q0 -7 -1 -11q4 -61 40.5 -85.5t123.5 -24.5z" />
    <glyph glyph-name="uni06AA.fina" unicode="&#x6aa;" horiz-adv-x="1338" 
d="M1343 57l15 -28l-20 -29q-175 0 -186 110q-25 -27 -73 -47q-163 -63 -608 -63h-410l-17 57h417q670 0 670 121q0 49 -57.5 79t-182.5 29q-100 -1 -259.5 -12t-242.5 -11q-137 0 -220 15l6 48q31 102 116 180.5t211 108.5l-11 -56q-98 -26 -170.5 -88t-101.5 -145
q82 -10 177 -10q84 0 242 11.5t253 11.5q289 0 289 -161q0 -7 -1 -11q4 -61 40.5 -85.5t123.5 -24.5z" />
    <glyph glyph-name="uni06AB.init" unicode="&#x6ab;" horiz-adv-x="459" 
d="M406 755l-4 -60l-81 -52q25 -8 41 -28t16 -48q0 -33 -22.5 -55.5t-57.5 -22.5t-58 22.5t-23 55.5v9l-156 -101q156 -67 217.5 -128t61.5 -136q0 -104 -89 -157.5t-251 -53.5l-20 29l25 28q284 0 284 159q0 56 -62.5 110t-223.5 120l12 54zM344 567q0 21 -12.5 33
t-33.5 12t-34 -12t-13 -33q0 -19 12.5 -31.5t34.5 -12.5t34 12.5t12 31.5z" />
    <glyph glyph-name="uni06AB.medi" unicode="&#x6ab;" horiz-adv-x="543" 
d="M548 57l15 -27l-20 -30q-84 0 -144.5 41.5t-146.5 159.5q1 -6 1 -16q0 -85 -65 -135t-188 -50l-20 29l25 28q102 0 152 36.5t50 101.5q0 63 -55 131l-98 121l12 52l391 256l-3 -60l-83 -53q24 -8 38.5 -28.5t14.5 -46.5q0 -33 -22.5 -55.5t-57.5 -22.5t-58 22.5t-23 55.5
v5l-159 -103l164 -205q59 -74 88 -107.5t62.5 -60t60.5 -33t69 -6.5zM390 567q0 21 -12.5 33t-33.5 12t-34 -12t-13 -33q0 -19 12.5 -31.5t34.5 -12.5t34 12.5t12 31.5z" />
    <glyph glyph-name="uni06AB.fina" unicode="&#x6ab;" horiz-adv-x="983" 
d="M988 57l15 -27l-20 -30q-84 0 -145 41.5t-147 161.5q1 -7 1 -18q0 -61 -31 -102.5t-113 -68.5t-216 -27q-147 0 -213 46t-66 143q0 76 36 153l41 -14q-26 -66 -26 -132q0 -73 54 -106t179 -33q91 0 153.5 11t96 32t47 47t13.5 61q0 62 -55 131l-98 121l12 52l392 256
l-4 -60l-84 -54q23 -8 36.5 -28t13.5 -46q0 -33 -22 -55.5t-58 -22.5q-35 0 -57.5 22.5t-22.5 55.5v3l-156 -101l164 -205q59 -74 88 -107.5t62.5 -60t60.5 -33t69 -6.5zM780 612q-13 0 -21 -4l-11 -7q-14 -12 -14 -34q0 -19 12.5 -31.5t33.5 -12.5q22 0 34.5 12.5
t12.5 31.5q0 21 -13 33t-34 12z" />
    <glyph glyph-name="uni06AC.init" unicode="&#x6ac;" horiz-adv-x="459" 
d="M47 685q-16 0 -26.5 10.5t-10.5 26.5q0 15 10.5 26t26.5 11t26.5 -11t10.5 -26q0 -16 -10.5 -26.5t-26.5 -10.5zM406 755l-4 -60l-341 -220q156 -67 217.5 -128t61.5 -136q0 -104 -89 -157.5t-251 -53.5l-20 29l25 28q284 0 284 159q0 56 -62.5 110t-223.5 120l12 54z
" />
    <glyph glyph-name="uni06AC.medi" unicode="&#x6ac;" horiz-adv-x="543" 
d="M92 685q-16 0 -26.5 10.5t-10.5 26.5q0 15 10.5 26t26.5 11t26.5 -11t10.5 -26q0 -16 -10.5 -26.5t-26.5 -10.5zM548 57l15 -27l-20 -30q-84 0 -144.5 41.5t-146.5 159.5q1 -6 1 -16q0 -85 -65 -135t-188 -50l-20 29l25 28q102 0 152 36.5t50 101.5q0 63 -55 131l-98 121
l12 52l391 256l-3 -60l-350 -226l164 -205q59 -74 88 -107.5t62.5 -60t60.5 -33t69 -6.5z" />
    <glyph glyph-name="uni06AC.fina" unicode="&#x6ac;" horiz-adv-x="832" 
d="M704 821q-16 0 -26.5 10.5t-10.5 26.5q0 15 10.5 26t26.5 11t26.5 -11t10.5 -26q0 -16 -10.5 -26.5t-26.5 -10.5zM838 57l14 -27l-20 -30q-86 0 -133 81q-133 -94 -367 -94q-147 0 -213 46t-66 143q0 76 36 153l41 -14q-26 -66 -26 -132q0 -73 54 -106t179 -33
q215 0 342 89v612l53 6v-587q0 -107 106 -107zM297 314q152 0 152 46q0 19 -26 33t-95 28l8 41l159 93l-2 -43l-116 -66q60 -16 85.5 -36t25.5 -50q0 -84 -185 -84z" />
    <glyph glyph-name="uni06AE.init" unicode="&#x6ae;" horiz-adv-x="459" 
d="M406 755l-4 -60l-341 -220q156 -67 217.5 -128t61.5 -136q0 -104 -89 -157.5t-251 -53.5l-20 29l25 28q284 0 284 159q0 56 -62.5 110t-223.5 120l12 54zM123 -128q5 0 8.5 -4t3.5 -9t-3.5 -8.5t-8.5 -3.5t-9 3.5t-4 8.5q0 13 13 13zM164 -180q12 0 12 -12t-12 -12
q-4 0 -8 4t-4 8q0 12 12 12zM91 -183q13 0 13 -13q0 -5 -4 -8.5t-9 -3.5t-8.5 4t-3.5 8q0 5 3.5 9t8.5 4z" />
    <glyph glyph-name="uni06AE.medi" unicode="&#x6ae;" horiz-adv-x="543" 
d="M548 57l15 -27l-20 -30q-84 0 -144.5 41.5t-146.5 159.5q1 -6 1 -16q0 -85 -65 -135t-188 -50l-20 29l25 28q102 0 152 36.5t50 101.5q0 63 -55 131l-98 121l12 52l391 256l-3 -60l-350 -226l164 -205q59 -74 88 -107.5t62.5 -60t60.5 -33t69 -6.5zM275 -128q5 0 8.5 -4
t3.5 -9t-3.5 -8.5t-8.5 -3.5t-9 3.5t-4 8.5q0 13 13 13zM316 -180q12 0 12 -12t-12 -12q-4 0 -8 4t-4 8q0 12 12 12zM243 -183q13 0 13 -13q0 -5 -4 -8.5t-9 -3.5t-8.5 4t-3.5 8q0 5 3.5 9t8.5 4z" />
    <glyph glyph-name="uni06AE.fina" unicode="&#x6ae;" horiz-adv-x="832" 
d="M838 57l14 -27l-20 -30q-86 0 -133 81q-133 -94 -367 -94q-147 0 -213 46t-66 143q0 76 36 153l41 -14q-26 -66 -26 -132q0 -73 54 -106t179 -33q215 0 342 89v612l53 6v-587q0 -107 106 -107zM297 314q152 0 152 46q0 19 -26 33t-95 28l8 41l159 93l-2 -43l-116 -66
q60 -16 85.5 -36t25.5 -50q0 -84 -185 -84zM384 -128q5 0 8.5 -4t3.5 -9t-4 -8.5t-8 -3.5q-5 0 -9 3.5t-4 8.5q0 13 13 13zM425 -180q12 0 12 -12t-12 -12q-5 0 -8.5 4t-3.5 8q0 12 12 12zM352 -183q13 0 13 -13q0 -5 -4 -8.5t-9 -3.5q-4 0 -8 4t-4 8q0 5 3.5 9t8.5 4z" />
    <glyph glyph-name="uni06B0.init" unicode="&#x6b0;" horiz-adv-x="459" 
d="M397 875l-3 -47l-385 -252l11 50zM406 755l-4 -60l-70 -45q24 -8 38.5 -28.5t14.5 -46.5q0 -33 -22 -55.5t-58 -22.5q-35 0 -57.5 22.5t-22.5 55.5v6l-164 -106q156 -67 217.5 -128t61.5 -136q0 -104 -89 -157.5t-251 -53.5l-20 29l25 28q284 0 284 159q0 56 -62.5 110
t-223.5 120l12 54zM352 575q0 21 -13 32.5t-34 11.5t-33.5 -11.5t-12.5 -32.5q0 -19 12.5 -31.5t33.5 -12.5q23 0 35 12.5t12 31.5z" />
    <glyph glyph-name="uni06B0.medi" unicode="&#x6b0;" horiz-adv-x="543" 
d="M454 875l-3 -47l-385 -252l11 50zM548 57l15 -27l-20 -30q-84 0 -144.5 41.5t-146.5 159.5q1 -6 1 -16q0 -85 -65 -135t-188 -50l-20 29l25 28q102 0 152 36.5t50 101.5q0 63 -55 131l-98 121l12 52l391 256l-3 -60l-71 -46q23 -8 37 -28t14 -46q0 -33 -22.5 -55.5
t-57.5 -22.5t-58 22.5t-23 55.5v3l-169 -109l164 -205q59 -74 88 -107.5t62.5 -60t60.5 -33t69 -6.5zM400 575q0 21 -12.5 32.5t-33.5 11.5t-34 -11.5t-13 -32.5q0 -19 12.5 -31.5t34.5 -12.5t34 12.5t12 31.5z" />
    <glyph glyph-name="uni06B0.fina" unicode="&#x6b0;" horiz-adv-x="983" 
d="M892 875l-3 -47l-384 -252l11 50zM988 57l15 -27l-20 -30q-84 0 -145 41.5t-147 161.5q1 -7 1 -18q0 -61 -31 -102.5t-113 -68.5t-216 -27q-147 0 -213 46t-66 143q0 76 36 153l41 -14q-26 -66 -26 -132q0 -73 54 -106t179 -33q91 0 153.5 11t96 32t47 47t13.5 61
q0 62 -55 131l-98 121l12 52l392 256l-4 -60l-80 -51q23 -8 37 -28t14 -46q0 -34 -22 -56.5t-58 -22.5q-35 0 -58 23t-23 56v3l-160 -104l164 -205q59 -74 88 -107.5t62.5 -60t60.5 -33t69 -6.5zM832 570q0 20 -13 32t-34 12t-34 -12t-13 -32t13 -32.5t34 -12.5
q22 0 34.5 12.5t12.5 32.5z" />
    <glyph glyph-name="uni06B2.init" unicode="&#x6b2;" horiz-adv-x="459" 
d="M397 875l-3 -47l-385 -252l11 50zM406 755l-4 -60l-341 -220q156 -67 217.5 -128t61.5 -136q0 -104 -89 -157.5t-251 -53.5l-20 29l25 28q284 0 284 159q0 56 -62.5 110t-223.5 120l12 54zM56 -107q14 0 24 -10.5t10 -24.5t-10 -24t-24 -10t-24.5 10t-10.5 24t10.5 24.5
t24.5 10.5zM194 -107q14 0 24.5 -10.5t10.5 -24.5t-10.5 -24t-24.5 -10q-15 0 -25 10t-10 24t10 24.5t25 10.5z" />
    <glyph glyph-name="uni06B2.medi" unicode="&#x6b2;" horiz-adv-x="543" 
d="M454 875l-3 -47l-385 -252l11 50zM548 57l15 -27l-20 -30q-84 0 -144.5 41.5t-146.5 159.5q1 -6 1 -16q0 -85 -65 -135t-188 -50l-20 29l25 28q102 0 152 36.5t50 101.5q0 63 -55 131l-98 121l12 52l391 256l-3 -60l-350 -226l164 -205q59 -74 88 -107.5t62.5 -60
t60.5 -33t69 -6.5zM209 -107q14 0 24 -10.5t10 -24.5t-10 -24t-24 -10t-24.5 10t-10.5 24t10.5 24.5t24.5 10.5zM347 -107q14 0 24.5 -10.5t10.5 -24.5t-10.5 -24t-24.5 -10q-15 0 -25 10t-10 24t10 24.5t25 10.5z" />
    <glyph glyph-name="uni06B2.fina" unicode="&#x6b2;" horiz-adv-x="983" 
d="M892 875l-3 -47l-384 -252l11 50zM988 57l15 -27l-20 -30q-84 0 -145 41.5t-147 161.5q1 -7 1 -18q0 -61 -31 -102.5t-113 -68.5t-216 -27q-147 0 -213 46t-66 143q0 76 36 153l41 -14q-26 -66 -26 -132q0 -73 54 -106t179 -33q91 0 153.5 11t96 32t47 47t13.5 61
q0 62 -55 131l-98 121l12 52l392 256l-4 -60l-350 -226l164 -205q59 -74 88 -107.5t62.5 -60t60.5 -33t69 -6.5zM304 -107q15 0 25 -10.5t10 -24.5t-10 -24t-25 -10q-14 0 -24.5 10t-10.5 24t10.5 24.5t24.5 10.5zM442 -107q15 0 25 -10.5t10 -24.5t-10 -24t-25 -10
q-14 0 -24 10t-10 24t10 24.5t24 10.5z" />
    <glyph glyph-name="uni06B4.init" unicode="&#x6b4;" horiz-adv-x="459" 
d="M25 847q-14 0 -24 10t-10 24t10 24t24 10t24 -10t10 -24t-10 -24t-24 -10zM9 576l11 50l377 249l-3 -47zM-47 808q14 0 24 -10t10 -23q0 -14 -10 -24t-24 -10q-15 0 -25 10t-10 24t10 23.5t25 9.5zM97 741q-14 0 -24 10t-10 24q0 13 10 23t24 10q15 0 25 -9.5t10 -23.5
t-10 -24t-25 -10zM406 755l-4 -60l-341 -220q156 -67 217.5 -128t61.5 -136q0 -104 -89 -157.5t-251 -53.5l-20 29l25 28q284 0 284 159q0 56 -62.5 110t-223.5 120l12 54z" />
    <glyph glyph-name="uni06B4.medi" unicode="&#x6b4;" horiz-adv-x="543" 
d="M83 847q-14 0 -24 10t-10 24t10 24t24 10t24 -10t10 -24t-10 -24t-24 -10zM66 576l11 50l377 249l-3 -47zM11 741q-15 0 -25 10t-10 24t10 23.5t25 9.5q14 0 24 -10t10 -23q0 -14 -10 -24t-24 -10zM155 741q-14 0 -24 10t-10 24q0 13 10 23t24 10q15 0 25 -9.5t10 -23.5
t-10 -24t-25 -10zM548 57l15 -27l-20 -30q-84 0 -144.5 41.5t-146.5 159.5q1 -6 1 -16q0 -85 -65 -135t-188 -50l-20 29l25 28q102 0 152 36.5t50 101.5q0 63 -55 131l-98 121l12 52l391 256l-3 -60l-350 -226l164 -205q59 -74 88 -107.5t62.5 -60t60.5 -33t69 -6.5z" />
    <glyph glyph-name="uni06B4.fina" unicode="&#x6b4;" horiz-adv-x="983" 
d="M519 847q-14 0 -24 10t-10 24t10 24t24 10t24 -10t10 -24t-10 -24t-24 -10zM505 576l11 50l376 249l-3 -47zM447 741q-15 0 -25 10t-10 24t10 23.5t25 9.5q14 0 24 -10t10 -23q0 -14 -10 -24t-24 -10zM592 741q-14 0 -24 10t-10 24t10 23.5t24 9.5t24 -9.5t10 -23.5
t-10 -24t-24 -10zM988 57l15 -27l-20 -30q-84 0 -145 41.5t-147 161.5q1 -7 1 -18q0 -61 -31 -102.5t-113 -68.5t-216 -27q-147 0 -213 46t-66 143q0 76 36 153l41 -14q-26 -66 -26 -132q0 -73 54 -106t179 -33q91 0 153.5 11t96 32t47 47t13.5 61q0 62 -55 131l-98 121
l12 52l392 256l-4 -60l-350 -226l164 -205q59 -74 88 -107.5t62.5 -60t60.5 -33t69 -6.5z" />
    <glyph glyph-name="uni06B5.init" unicode="&#x6b5;" horiz-adv-x="232" 
d="M61 955l64 -109l64 109l30 -13l-78 -139h-33l-77 139zM0 0l-20 29l25 28q47 0 69.5 26.5t22.5 85.5v574l54 7v-584q0 -93 -39 -129.5t-112 -36.5z" />
    <glyph glyph-name="uni06B5.medi" unicode="&#x6b5;" horiz-adv-x="244" 
d="M139 802h-34l-77 140l30 13l64 -109l64 109l30 -13zM249 57l15 -28l-20 -29q-89 0 -121 66q-31 -66 -123 -66l-20 29l25 28q52 0 71.5 24.5t19.5 77.5v585l53 7v-592q0 -53 24.5 -77.5t75.5 -24.5z" />
    <glyph glyph-name="uni06B5.fina" unicode="&#x6b5;" horiz-adv-x="703" 
d="M580 801h-33l-77 139l30 13l64 -109l64 109l30 -13zM708 57l15 -28l-20 -29q-80 0 -114 47q-9 -133 -82.5 -189t-204.5 -56q-128 0 -188.5 61t-60.5 167q0 92 42 183l40 -12q-30 -78 -30 -164q0 -178 203 -178q123 0 176 53t53 169v662l53 7v-566q0 -71 26.5 -99
t91.5 -28z" />
    <glyph glyph-name="uni06B6.init" unicode="&#x6b6;" horiz-adv-x="232" 
d="M123 822q-16 0 -26.5 10.5t-10.5 26.5q0 15 10.5 26t26.5 11t26.5 -11t10.5 -26q0 -16 -10.5 -26.5t-26.5 -10.5zM0 0l-20 29l25 28q47 0 69.5 26.5t22.5 85.5v574l54 7v-584q0 -93 -39 -129.5t-112 -36.5z" />
    <glyph glyph-name="uni06B6.medi" unicode="&#x6b6;" horiz-adv-x="244" 
d="M121 822q-16 0 -26.5 10.5t-10.5 26.5q0 15 10.5 26t26.5 11t26.5 -11t10.5 -26q0 -16 -10.5 -26.5t-26.5 -10.5zM249 57l15 -28l-20 -29q-89 0 -121 66q-31 -66 -123 -66l-20 29l25 28q52 0 71.5 24.5t19.5 77.5v585l53 7v-592q0 -53 24.5 -77.5t75.5 -24.5z" />
    <glyph glyph-name="uni06B6.fina" unicode="&#x6b6;" horiz-adv-x="703" 
d="M563 820q-16 0 -26.5 10.5t-10.5 26.5q0 15 10.5 26t26.5 11t26.5 -11t10.5 -26q0 -16 -10.5 -26.5t-26.5 -10.5zM708 57l15 -28l-20 -29q-80 0 -114 47q-9 -133 -82.5 -189t-204.5 -56q-128 0 -188.5 61t-60.5 167q0 92 42 183l40 -12q-30 -78 -30 -164q0 -178 203 -178
q123 0 176 53t53 169v662l53 7v-566q0 -71 26.5 -99t91.5 -28z" />
    <glyph glyph-name="uni06B7.init" unicode="&#x6b7;" horiz-adv-x="232" 
d="M125 926q-14 0 -24 10t-10 24t10 24t24 10t24 -10t10 -24t-10 -24t-24 -10zM53 820q-15 0 -25 10t-10 24t10 23.5t25 9.5q14 0 24 -10t10 -23q0 -14 -10 -24t-24 -10zM197 820q-14 0 -24 10t-10 24q0 13 10 23t24 10q15 0 25 -9.5t10 -23.5t-10 -24t-25 -10zM0 0l-20 29
l25 28q47 0 69.5 26.5t22.5 85.5v574l54 7v-584q0 -93 -39 -129.5t-112 -36.5z" />
    <glyph glyph-name="uni06B7.medi" unicode="&#x6b7;" horiz-adv-x="244" 
d="M122 926q-14 0 -24 10t-10 24t10 24t24 10t24 -10t10 -24t-10 -24t-24 -10zM50 820q-14 0 -24.5 10t-10.5 24q0 13 10.5 23t24.5 10t24 -10t10 -23q0 -14 -10 -24t-24 -10zM195 820q-14 0 -24 10t-10 24t10 23.5t24 9.5t24 -9.5t10 -23.5t-10 -24t-24 -10zM249 57l15 -28
l-20 -29q-89 0 -121 66q-31 -66 -123 -66l-20 29l25 28q52 0 71.5 24.5t19.5 77.5v585l53 7v-592q0 -53 24.5 -77.5t75.5 -24.5z" />
    <glyph glyph-name="uni06B7.fina" unicode="&#x6b7;" horiz-adv-x="703" 
d="M564 924q-14 0 -24 10t-10 24t10 24t24 10t24 -10t10 -24t-10 -24t-24 -10zM492 818q-15 0 -25 10t-10 24t10 23.5t25 9.5q14 0 24 -10t10 -23q0 -14 -10 -24t-24 -10zM636 818q-14 0 -24 10t-10 24q0 13 10 23t24 10q15 0 25 -9.5t10 -23.5t-10 -24t-25 -10zM708 57
l15 -28l-20 -29q-80 0 -114 47q-9 -133 -82.5 -189t-204.5 -56q-128 0 -188.5 61t-60.5 167q0 92 42 183l40 -12q-30 -78 -30 -164q0 -178 203 -178q123 0 176 53t53 169v662l53 7v-566q0 -71 26.5 -99t91.5 -28z" />
    <glyph glyph-name="uni06B8.init" unicode="&#x6b8;" horiz-adv-x="232" 
d="M0 0l-20 29l25 28q47 0 69.5 26.5t22.5 85.5v574l54 7v-584q0 -93 -39 -129.5t-112 -36.5zM120 -128q5 0 8.5 -4t3.5 -9t-4 -8.5t-8 -3.5q-5 0 -9 3.5t-4 8.5q0 13 13 13zM161 -180q12 0 12 -12t-12 -12q-5 0 -8.5 4t-3.5 8q0 12 12 12zM88 -183q13 0 13 -13
q0 -5 -4 -8.5t-9 -3.5q-4 0 -8 4t-4 8q0 5 3.5 9t8.5 4z" />
    <glyph glyph-name="uni06B8.medi" unicode="&#x6b8;" horiz-adv-x="244" 
d="M249 57l15 -28l-20 -29q-89 0 -121 66q-31 -66 -123 -66l-20 29l25 28q52 0 71.5 24.5t19.5 77.5v585l53 7v-592q0 -53 24.5 -77.5t75.5 -24.5zM119 -128q5 0 8.5 -4t3.5 -9t-3.5 -8.5t-8.5 -3.5t-9 3.5t-4 8.5q0 13 13 13zM160 -180q13 0 13 -12q0 -5 -4 -8.5t-9 -3.5
q-4 0 -8 4t-4 8q0 12 12 12zM88 -183q5 0 8.5 -4t3.5 -9q0 -4 -4 -8t-8 -4q-12 0 -12 12q0 13 12 13z" />
    <glyph glyph-name="uni06B8.fina" unicode="&#x6b8;" horiz-adv-x="703" 
d="M708 57l15 -28l-20 -29q-80 0 -114 47q-9 -133 -82.5 -189t-204.5 -56q-128 0 -188.5 61t-60.5 167q0 92 42 183l40 -12q-30 -78 -30 -164q0 -178 203 -178q123 0 176 53t53 169v662l53 7v-566q0 -71 26.5 -99t91.5 -28zM299 -325q5 0 8.5 -4t3.5 -9q0 -4 -3.5 -8
t-8.5 -4t-9 3.5t-4 8.5q0 13 13 13zM340 -377q12 0 12 -12t-12 -12q-4 0 -8 3.5t-4 8.5q0 12 12 12zM267 -380q13 0 13 -13q0 -5 -4 -8.5t-9 -3.5t-8.5 3.5t-3.5 8.5t3.5 9t8.5 4z" />
    <glyph glyph-name="uni06B9.init" unicode="&#x6b9;" horiz-adv-x="269" 
d="M119 469q-16 0 -26.5 10.5t-10.5 26.5q0 15 10.5 26t26.5 11t26.5 -11t10.5 -26q0 -16 -10.5 -26.5t-26.5 -10.5zM5 57q91 0 120 24.5t29 89.5q0 83 -43 206l54 18q41 -120 41 -227q0 -95 -43 -131.5t-163 -36.5l-20 29zM123 -181q-16 0 -26.5 10.5t-10.5 26.5
q0 15 10.5 26t26.5 11t26.5 -11t10.5 -26q0 -16 -10.5 -26.5t-26.5 -10.5z" />
    <glyph glyph-name="uni06B9.medi" unicode="&#x6b9;" horiz-adv-x="327" 
d="M162 399q-16 0 -26.5 10.5t-10.5 26.5q0 15 10.5 26t26.5 11t26.5 -11t10.5 -26q0 -16 -10.5 -26.5t-26.5 -10.5zM332 57l15 -28l-20 -29q-124 0 -162 85q-35 -85 -165 -85l-20 29l26 28q78 0 104 28t26 91v145h54v-145q0 -62 31.5 -90.5t110.5 -28.5zM163 -107
q16 0 26.5 -11t10.5 -26q0 -16 -10.5 -26.5t-26.5 -10.5t-26.5 10.5t-10.5 26.5q0 15 10.5 26t26.5 11z" />
    <glyph glyph-name="uni06B9.fina" unicode="&#x6b9;" horiz-adv-x="715" 
d="M314 319q-16 0 -26.5 10.5t-10.5 26.5q0 15 10.5 26t26.5 11t26.5 -11t10.5 -26q0 -16 -10.5 -26.5t-26.5 -10.5zM720 57l15 -28l-20 -29q-75 0 -113 44q-4 -156 -76 -223t-224 -67q-128 0 -188.5 61t-60.5 167q0 91 42 184l40 -13q-30 -78 -30 -164q0 -178 203 -178
q132 0 187.5 56t55.5 185q0 85 -59 228l58 24q38 -132 40 -138q17 -60 46.5 -84.5t83.5 -24.5zM315 -340q16 0 26.5 -11t10.5 -26q0 -16 -10.5 -26.5t-26.5 -10.5t-26.5 10.5t-10.5 26.5q0 15 10.5 26t26.5 11z" />
    <glyph glyph-name="uni06BC.init" unicode="&#x6bc;" horiz-adv-x="269" 
d="M119 469q-16 0 -26.5 10.5t-10.5 26.5q0 15 10.5 26t26.5 11t26.5 -11t10.5 -26q0 -16 -10.5 -26.5t-26.5 -10.5zM160 34q36 -21 36 -66q0 -33 -22.5 -55.5t-57.5 -22.5t-58 22.5t-23 55.5q0 19 7 33q-13 -1 -42 -1l-20 29l25 28q91 0 120 24.5t29 89.5q0 83 -43 206
l54 18q41 -120 41 -227q0 -97 -46 -134zM116 -76q22 0 34 12.5t12 31.5q0 21 -12.5 33t-32.5 12q-10 -3 -28 -7q-20 -12 -20 -38q0 -19 12.5 -31.5t34.5 -12.5z" />
    <glyph glyph-name="uni06BC.medi" unicode="&#x6bc;" horiz-adv-x="327" 
d="M162 399q-16 0 -26.5 10.5t-10.5 26.5q0 15 10.5 26t26.5 11t26.5 -11t10.5 -26q0 -16 -10.5 -26.5t-26.5 -10.5zM332 57l15 -28l-20 -29q-124 0 -162 85q-12 -26 -25 -40q23 -8 36.5 -28t13.5 -45q0 -33 -22 -55.5t-58 -22.5q-35 0 -58 22.5t-23 55.5q0 16 6 29
q-11 -1 -35 -1l-20 29l26 28q78 0 104 28t26 91v145h54v-145q0 -62 31.5 -90.5t110.5 -28.5zM157 -28q0 21 -13 32.5t-34 11.5t-33.5 -11.5t-12.5 -32.5q0 -20 12.5 -32.5t33.5 -12.5q23 0 35 12.5t12 32.5z" />
    <glyph glyph-name="uni06BC.fina" unicode="&#x6bc;" horiz-adv-x="715" 
d="M314 319q-16 0 -26.5 10.5t-10.5 26.5q0 15 10.5 26t26.5 11t26.5 -11t10.5 -26q0 -16 -10.5 -26.5t-26.5 -10.5zM720 57l15 -28l-20 -29q-75 0 -113 44q-3 -140 -61.5 -208t-179.5 -79q11 -19 11 -40q0 -33 -22.5 -56t-57.5 -23t-58 23t-23 56q0 25 13 44
q-171 34 -171 221q0 91 42 184l40 -13q-30 -78 -30 -164q0 -178 203 -178q132 0 187.5 56t55.5 185q0 85 -59 228l58 24q38 -132 40 -138q17 -60 46.5 -84.5t83.5 -24.5zM338 -283q0 26 -20 37h-16q-24 0 -35 1q-22 -11 -22 -38q0 -20 12.5 -32.5t34.5 -12.5t34 12.5
t12 32.5z" />
    <glyph glyph-name="uni06BD.init" unicode="&#x6bd;" horiz-adv-x="269" 
d="M120 573q-14 0 -24 10t-10 24t10 24t24 10t24 -10t10 -24t-10 -24t-24 -10zM48 467q-15 0 -25 10t-10 24t10 23.5t25 9.5q14 0 24 -10t10 -23q0 -14 -10 -24t-24 -10zM192 467q-14 0 -24 10t-10 24q0 13 10 23t24 10q15 0 25 -9.5t10 -23.5t-10 -24t-25 -10zM5 57
q91 0 120 24.5t29 89.5q0 83 -43 206l54 18q41 -120 41 -227q0 -95 -43 -131.5t-163 -36.5l-20 29z" />
    <glyph glyph-name="uni06BD.medi" unicode="&#x6bd;" horiz-adv-x="327" 
d="M163 503q-14 0 -24 10t-10 24t10 24t24 10t24 -10t10 -24t-10 -24t-24 -10zM91 397q-15 0 -25 10t-10 24t10 23.5t25 9.5q14 0 24 -10t10 -23q0 -14 -10 -24t-24 -10zM235 397q-14 0 -24 10t-10 24q0 13 10 23t24 10q15 0 25 -9.5t10 -23.5t-10 -24t-25 -10zM332 57
l15 -28l-20 -29q-124 0 -162 85q-35 -85 -165 -85l-20 29l26 28q78 0 104 28t26 91v145h54v-145q0 -62 31.5 -90.5t110.5 -28.5z" />
    <glyph glyph-name="uni06BD.fina" unicode="&#x6bd;" horiz-adv-x="715" 
d="M315 423q-14 0 -24 10t-10 24t10 24t24 10t24 -10t10 -24t-10 -24t-24 -10zM243 317q-15 0 -25 10t-10 24t10 23.5t25 9.5q14 0 24 -10t10 -23q0 -14 -10 -24t-24 -10zM387 317q-14 0 -24 10t-10 24q0 13 10 23t24 10q15 0 25 -9.5t10 -23.5t-10 -24t-25 -10zM720 57
l15 -28l-20 -29q-75 0 -113 44q-4 -156 -76 -223t-224 -67q-128 0 -188.5 61t-60.5 167q0 91 42 184l40 -13q-30 -78 -30 -164q0 -178 203 -178q132 0 187.5 56t55.5 185q0 85 -59 228l58 24q38 -132 40 -138q17 -60 46.5 -84.5t83.5 -24.5z" />
    <glyph glyph-name="uni06BF.init" unicode="&#x6bf;" horiz-adv-x="695" 
d="M223 505q-16 0 -26.5 10.5t-10.5 26.5q0 15 10.5 26t26.5 11t26.5 -11t10.5 -26q0 -16 -10.5 -26.5t-26.5 -10.5zM224 440q56 0 98.5 -17t73 -44t60.5 -56t80.5 -59.5t114.5 -47.5l-9 -50l-65 -5q-83 -4 -164.5 -30t-136.5 -55t-129.5 -52.5t-146.5 -23.5l-20 29l25 29
q65 0 133.5 21t120.5 47.5t130 51.5t159 31q-46 17 -84.5 42t-62.5 47t-49 42t-57 31.5t-73 11.5q-59 0 -118 -36l-27 50q72 43 147 43zM295 -128q5 0 8.5 -4t3.5 -9t-3.5 -8.5t-8.5 -3.5t-9 3.5t-4 8.5q0 13 13 13zM336 -180q12 0 12 -12t-12 -12q-4 0 -8 4t-4 8
q0 12 12 12zM263 -183q13 0 13 -13q0 -5 -4 -8.5t-9 -3.5t-8.5 4t-3.5 8q0 5 3.5 9t8.5 4z" />
    <glyph glyph-name="uni06BF.medi" unicode="&#x6bf;" horiz-adv-x="727" 
d="M222 505q-16 0 -26.5 10.5t-10.5 26.5q0 15 10.5 26t26.5 11t26.5 -11t10.5 -26q0 -16 -10.5 -26.5t-26.5 -10.5zM733 57l14 -28l-20 -29q-205 0 -234 187q-54 -13 -121 -46.5t-118 -63.5t-120 -53.5t-134 -23.5l-20 29l25 28q65 0 134.5 25t122 56t127.5 62t146 40
q-54 18 -100 45t-70.5 47.5t-61.5 35.5t-81 15q-58 0 -120 -34l-27 49q75 42 148 42q52 0 91 -13.5t68.5 -35.5t60 -46.5t82 -51t117.5 -43.5l-7 -50l-65 -2q-18 0 -34 -3q16 -80 63 -109t134 -29zM381 -78q5 0 8.5 -4t3.5 -9t-3.5 -8.5t-8.5 -3.5t-9 3.5t-4 8.5q0 13 13 13
zM422 -130q12 0 12 -12t-12 -12q-4 0 -8 4t-4 8q0 12 12 12zM349 -133q13 0 13 -13q0 -5 -4 -8.5t-9 -3.5t-8.5 4t-3.5 8q0 5 3.5 9t8.5 4z" />
    <glyph glyph-name="uni06BF.fina" unicode="&#x6bf;" horiz-adv-x="681" 
d="M225 505q-16 0 -26.5 10.5t-10.5 26.5q0 15 10.5 26t26.5 11t26.5 -11t10.5 -26q0 -16 -10.5 -26.5t-26.5 -10.5zM681 0q-99 0 -155 47.5t-68 150.5q-171 -19 -258.5 -92t-87.5 -184q0 -100 71.5 -159t207.5 -59q125 0 215 46l22 -50q-92 -54 -243 -54q-159 0 -240 73.5
t-81 194.5q0 143 109.5 231.5t316.5 102.5q-51 21 -99 57t-84.5 57t-83.5 21q-66 0 -125 -36l-27 50q72 43 156 43q44 0 80.5 -15t65.5 -39t58 -49t72 -48t94 -34l-6 -49l-59 -2q-11 0 -31 -2q17 -85 59 -115t126 -30l15 -28zM344 -22q0 13 13 13q5 0 8.5 -4t3.5 -9
q0 -12 -12 -12q-13 0 -13 12zM386 -73q0 12 12 12t12 -12t-12 -12t-12 12zM313 -77q0 12 12 12q13 0 13 -12t-13 -12q-12 0 -12 12z" />
    <glyph glyph-name="uni06C2.fina" unicode="&#x6c2;" horiz-adv-x="576" 
d="M161 319l-5 34l69 12q-49 35 -49 76q0 34 25 57t71 23q34 0 68 -18l-19 -32q-29 15 -52 15q-29 0 -42.5 -13.5t-13.5 -32.5q0 -34 51 -69l90 15l5 -34zM581 57l15 -28l-20 -29q-47 0 -84.5 11.5t-61.5 30t-43 41t-33 45t-27.5 41t-30.5 30t-38 11.5q-104 0 -176 -248
l-55 11q79 294 231 294q37 0 65.5 -15.5t44.5 -39t35.5 -50.5t39 -50.5t55.5 -39t83 -15.5z" />
    <glyph glyph-name="uni06C3.fina" unicode="&#x6c3;" horiz-adv-x="576" 
d="M189 360q-14 0 -24.5 10t-10.5 25q0 14 10.5 24.5t24.5 10.5t24 -10.5t10 -24.5q0 -15 -10 -25t-24 -10zM327 360q-15 0 -25 10t-10 25q0 14 10 24.5t25 10.5q14 0 24.5 -10.5t10.5 -24.5q0 -15 -10.5 -25t-24.5 -10zM82 -38l-55 11q79 294 231 294q37 0 65.5 -15.5
t44.5 -39t35.5 -50.5t39 -50.5t55.5 -39t83 -15.5l15 -28l-20 -29q-47 0 -84.5 11.5t-61.5 30t-43 41t-33 45t-27.5 41t-30.5 30t-38 11.5q-104 0 -176 -248z" />
    <glyph glyph-name="uni06C4.fina" unicode="&#x6c4;" horiz-adv-x="527" 
d="M547 29l-20 -29h-108q-23 -102 -106.5 -165.5t-242.5 -92.5l-17 56q46 9 56 12q-32 22 -32 63q0 34 23 56.5t58 22.5q33 0 56.5 -23t23.5 -56q0 -7 -2 -19q102 52 132 146h-84q-102 0 -157 48.5t-55 126.5q0 76 51 132t124 56q81 0 131.5 -70.5t50.5 -194.5q0 -15 -2 -41
h105zM120 178q0 -121 171 -121h88q1 11 1 34q0 106 -35.5 160.5t-98.5 54.5q-54 0 -90 -37.5t-36 -90.5zM158 -83q-21 0 -34 -12t-13 -32t12.5 -32.5t34.5 -12.5t34 12.5t12 32.5t-13 32t-33 12z" />
    <glyph glyph-name="uni06CA.fina" unicode="&#x6ca;" horiz-adv-x="527" 
d="M182 459q-14 0 -24.5 10t-10.5 25q0 14 10.5 24.5t24.5 10.5t24 -10.5t10 -24.5q0 -15 -10 -25t-24 -10zM320 459q-15 0 -25 10t-10 25q0 14 10 24.5t25 10.5q14 0 24.5 -10.5t10.5 -24.5q0 -15 -10.5 -25t-24.5 -10zM547 29l-20 -29h-108q-23 -102 -106.5 -165.5
t-242.5 -92.5l-17 56q141 26 216 75.5t99 126.5h-84q-102 0 -157 48.5t-55 126.5q0 76 51 132t124 56q81 0 131.5 -70.5t50.5 -194.5q0 -15 -2 -41h105zM120 178q0 -121 171 -121h88q1 11 1 34q0 106 -35.5 160.5t-98.5 54.5q-54 0 -90 -37.5t-36 -90.5z" />
    <glyph glyph-name="uni06CD.fina" unicode="&#x6cd;" horiz-adv-x="752" 
d="M772 29l-20 -29q-50 0 -98 21q11 -19 11 -40q0 -75 -87 -129t-246 -54q-128 0 -188.5 61t-60.5 167q0 59 16 115q-42 -23 -96 -31l-6 31q75 20 128 69l40 -13q-30 -78 -30 -164q0 -178 202 -178q132 0 205.5 41t73.5 90q0 28 -35 49t-142 54l24 50q40 -13 90 -31.5
t75.5 -27.5t60 -16t68.5 -7z" />
    <glyph glyph-name="uni06CE.init" unicode="&#x6ce;" horiz-adv-x="269" 
d="M56 602l64 -109l64 109l30 -13l-78 -139h-33l-77 139zM5 57q91 0 120 24.5t29 89.5q0 83 -43 206l54 18q41 -120 41 -227q0 -95 -43 -131.5t-163 -36.5l-20 29zM54 -176q-14 0 -24.5 10t-10.5 24t10.5 24.5t24.5 10.5t24 -10.5t10 -24.5t-10 -24t-24 -10zM192 -176
q-15 0 -25 10t-10 24t10 24.5t25 10.5q14 0 24.5 -10.5t10.5 -24.5t-10.5 -24t-24.5 -10z" />
    <glyph glyph-name="uni06CE.medi" unicode="&#x6ce;" horiz-adv-x="327" 
d="M179 380h-33l-77 139l30 13l64 -109l64 109l30 -13zM332 57l15 -28l-20 -29q-124 0 -162 85q-35 -85 -165 -85l-20 29l26 28q78 0 104 28t26 91v145h54v-145q0 -62 31.5 -90.5t110.5 -28.5zM94 -107q14 0 24 -10.5t10 -24.5t-10 -24t-24 -10t-24.5 10t-10.5 24t10.5 24.5
t24.5 10.5zM232 -107q14 0 24.5 -10.5t10.5 -24.5t-10.5 -24t-24.5 -10q-15 0 -25 10t-10 24t10 24.5t25 10.5z" />
    <glyph glyph-name="uni06CE.fina" unicode="&#x6ce;" horiz-adv-x="722" 
d="M157 294h-33l-77 139l30 13l64 -109l64 109l30 -13zM742 29l-20 -29q-49 0 -97 21q11 -19 11 -40q0 -75 -87 -129t-247 -54q-128 0 -188.5 61t-60.5 167q0 93 42 184l40 -13q-30 -78 -30 -164q0 -178 203 -178q131 0 205 41t74 90q0 28 -35.5 49t-142.5 54l24 50
q40 -13 90 -31.5t75.5 -27.5t60 -16t68.5 -7z" />
    <glyph glyph-name="uni06CF.fina" unicode="&#x6cf;" horiz-adv-x="527" 
d="M249 431q-16 0 -26.5 10.5t-10.5 26.5q0 15 10.5 26t26.5 11t26.5 -11t10.5 -26q0 -16 -10.5 -26.5t-26.5 -10.5zM547 29l-20 -29h-108q-23 -102 -106.5 -165.5t-242.5 -92.5l-17 56q141 26 216 75.5t99 126.5h-84q-102 0 -157 48.5t-55 126.5q0 76 51 132t124 56
q81 0 131.5 -70.5t50.5 -194.5q0 -15 -2 -41h105zM120 178q0 -121 171 -121h88q1 11 1 34q0 106 -35.5 160.5t-98.5 54.5q-54 0 -90 -37.5t-36 -90.5z" />
    <glyph glyph-name="uni06D1.init" unicode="&#x6d1;" horiz-adv-x="269" 
d="M5 57q91 0 120 24.5t29 89.5q0 83 -43 206l54 18q41 -120 41 -227q0 -95 -43 -131.5t-163 -36.5l-20 29zM120 -128q5 0 8.5 -4t3.5 -9t-4 -8.5t-8 -3.5q-5 0 -9 3.5t-4 8.5q0 13 13 13zM161 -180q12 0 12 -12t-12 -12q-5 0 -8.5 4t-3.5 8q0 12 12 12zM88 -183
q13 0 13 -13q0 -5 -4 -8.5t-9 -3.5q-4 0 -8 4t-4 8q0 5 3.5 9t8.5 4z" />
    <glyph glyph-name="uni06D1.medi" unicode="&#x6d1;" horiz-adv-x="327" 
d="M332 57l15 -28l-20 -29q-124 0 -162 85q-35 -85 -165 -85l-20 29l26 28q78 0 104 28t26 91v145h54v-145q0 -62 31.5 -90.5t110.5 -28.5zM160 -128q5 0 8.5 -4t3.5 -9t-4 -8.5t-8 -3.5q-5 0 -9 3.5t-4 8.5q0 13 13 13zM201 -180q12 0 12 -12t-12 -12q-5 0 -8.5 4t-3.5 8
q0 12 12 12zM128 -183q13 0 13 -13q0 -5 -4 -8.5t-9 -3.5q-4 0 -8 4t-4 8q0 5 3.5 9t8.5 4z" />
    <glyph glyph-name="uni06D1.fina" unicode="&#x6d1;" horiz-adv-x="722" 
d="M742 29l-20 -29q-49 0 -97 21q11 -19 11 -40q0 -75 -87 -129t-247 -54q-128 0 -188.5 61t-60.5 167q0 93 42 184l40 -13q-30 -78 -30 -164q0 -178 203 -178q131 0 205 41t74 90q0 28 -35.5 49t-142.5 54l24 50q40 -13 90 -31.5t75.5 -27.5t60 -16t68.5 -7zM304 -318
q5 0 8.5 -4t3.5 -9t-4 -8.5t-8 -3.5q-5 0 -9 3.5t-4 8.5q0 13 13 13zM345 -370q12 0 12 -12t-12 -12q-5 0 -8.5 4t-3.5 8q0 12 12 12zM272 -373q13 0 13 -13q0 -5 -4 -8.5t-9 -3.5q-4 0 -8 4t-4 8q0 5 3.5 9t8.5 4z" />
    <glyph glyph-name="uni06D5.fina" unicode="&#x6d5;" horiz-adv-x="498" 
d="M503 57l15 -29l-20 -28h-15q-113 0 -139 111q-26 -34 -68.5 -54t-89.5 -20q-73 0 -116 39t-43 101q0 85 81.5 143.5t228.5 66.5v107l53 7v-319q0 -68 24.5 -96.5t73.5 -28.5h15zM194 91q91 0 143 68v176q-129 -5 -194 -47.5t-65 -105.5q0 -41 29 -66t87 -25z" />
    <glyph glyph-name="uni06EE.fina" unicode="&#x6ee;" horiz-adv-x="518" 
d="M189 683l-64 -109l-30 13l77 140h33l78 -140l-30 -13zM522 57l16 -28l-20 -29q-95 0 -133 81q-61 -94 -204 -94q-75 0 -154 25l17 56q73 -22 141 -22q116 0 181 73l-150 355l57 27l131 -340q23 -59 47 -81.5t71 -22.5z" />
    <glyph glyph-name="uni06FA.init" unicode="&#x6fa;" horiz-adv-x="813" 
d="M454 503q-14 0 -24 10t-10 24t10 24t24 10t24 -10t10 -24t-10 -24t-24 -10zM382 397q-15 0 -25 10t-10 24t10 23.5t25 9.5q14 0 24 -10t10 -23q0 -14 -10 -24t-24 -10zM526 397q-14 0 -24 10t-10 24q0 13 10 23t24 10q15 0 25 -9.5t10 -23.5t-10 -24t-25 -10zM709 394
q41 -110 41 -219q0 -88 -41 -131.5t-115 -43.5q-101 0 -138 78q-36 -78 -136 -78q-50 0 -86 20t-51 56q-41 -76 -183 -76l-20 29l25 28q77 0 114.5 26t37.5 82v156h51v-142q0 -67 28.5 -94.5t84.5 -27.5q107 0 107 121v143h52v-142q0 -122 118 -122q51 0 75 27.5t24 85.5
q0 94 -39 207zM462 -107q16 0 26.5 -11t10.5 -26q0 -16 -10.5 -26.5t-26.5 -10.5t-26.5 10.5t-10.5 26.5q0 15 10.5 26t26.5 11z" />
    <glyph glyph-name="uni06FA.medi" unicode="&#x6fa;" horiz-adv-x="926" 
d="M464 503q-14 0 -24 10t-10 24t10 24t24 10t24 -10t10 -24t-10 -24t-24 -10zM392 397q-15 0 -25 10t-10 24t10 23.5t25 9.5q14 0 24 -10t10 -23q0 -14 -10 -24t-24 -10zM536 397q-14 0 -24 10t-10 24q0 13 10 23t24 10q15 0 25 -9.5t10 -23.5t-10 -24t-25 -10zM931 57
l15 -28l-20 -29q-145 0 -178 76q-38 -76 -143 -76q-102 0 -139 77q-38 -77 -137 -77q-50 0 -86.5 20t-52.5 56q-42 -76 -190 -76l-20 29l26 28q157 0 157 108v156h52v-142q0 -66 29.5 -94t85.5 -28q108 0 108 121v143h52v-142q0 -122 118 -122q106 0 106 109v200h53v-184
q0 -70 36 -97.5t128 -27.5zM464 -107q16 0 26.5 -11t10.5 -26q0 -16 -10.5 -26.5t-26.5 -10.5t-26.5 10.5t-10.5 26.5q0 15 10.5 26t26.5 11z" />
    <glyph glyph-name="uni06FA.fina" unicode="&#x6fa;" horiz-adv-x="1310" 
d="M850 503q-14 0 -24 10t-10 24t10 24t24 10t24 -10t10 -24t-10 -24t-24 -10zM778 397q-15 0 -25 10t-10 24t10 23.5t25 9.5q14 0 24 -10t10 -23q0 -14 -10 -24t-24 -10zM922 397q-14 0 -24 10t-10 24q0 13 10 23t24 10q15 0 25 -9.5t10 -23.5t-10 -24t-25 -10zM1315 57
l15 -28l-20 -29q-146 0 -178 77q-38 -77 -144 -77q-100 0 -136 77q-37 -77 -137 -77h-1q-74 0 -112 44q-4 -156 -76 -223t-224 -67q-128 0 -188.5 61t-60.5 167q0 91 42 184l40 -13q-30 -78 -30 -164q0 -178 203 -178q132 0 187.5 56t55.5 185q0 85 -59 228l58 24
q38 -132 40 -138q17 -60 46.5 -84.5t83.5 -24.5q103 0 103 121v143h53v-142q0 -122 115 -122q107 0 107 109v195h53v-179q0 -70 36 -97.5t128 -27.5zM851 -107q16 0 26.5 -11t10.5 -26q0 -16 -10.5 -26.5t-26.5 -10.5t-26.5 10.5t-10.5 26.5q0 15 10.5 26t26.5 11z" />
    <glyph glyph-name="uni06FB.init" unicode="&#x6fb;" horiz-adv-x="923" 
d="M623 490q-16 0 -26.5 11t-10.5 26q0 16 10.5 26.5t26.5 10.5t26.5 -10.5t10.5 -26.5q0 -15 -10.5 -26t-26.5 -11zM657 437q95 0 149 -59.5t54 -166.5q0 -53 -14 -89.5t-42 -60.5t-79.5 -37.5t-116 -18.5t-161.5 -5h-132q-118 0 -156 83q-35 -83 -159 -83l-20 29l26 28
q74 0 99.5 27.5t25.5 88.5v207h53v-207q0 -54 24.5 -82t82.5 -33q56 175 154.5 277t211.5 102zM447 57q209 0 286.5 31.5t77.5 125.5q0 164 -150 164q-195 0 -321 -321h107zM491 -107q16 0 26.5 -11t10.5 -26q0 -16 -10.5 -26.5t-26.5 -10.5t-26.5 10.5t-10.5 26.5
q0 15 10.5 26t26.5 11z" />
    <glyph glyph-name="uni06FB.medi" unicode="&#x6fb;" horiz-adv-x="957" 
d="M623 490q-16 0 -26.5 11t-10.5 26q0 16 10.5 26.5t26.5 10.5t26.5 -10.5t10.5 -26.5q0 -15 -10.5 -26t-26.5 -11zM962 57l15 -28l-20 -29q-87 0 -139 74q-40 -42 -126.5 -58t-244.5 -16h-132q-118 0 -156 83q-35 -83 -159 -83l-20 29l26 28q74 0 99.5 27.5t25.5 88.5v207
h53v-207q0 -54 24.5 -82t82.5 -33q56 175 154.5 277t211.5 102q95 0 149 -59.5t54 -166.5q0 -58 -16 -96q42 -58 118 -58zM447 57q209 0 286.5 31.5t77.5 125.5q0 164 -150 164q-195 0 -321 -321h107zM491 -107q16 0 26.5 -11t10.5 -26q0 -16 -10.5 -26.5t-26.5 -10.5
t-26.5 10.5t-10.5 26.5q0 15 10.5 26t26.5 11z" />
    <glyph glyph-name="uni06FB.fina" unicode="&#x6fb;" horiz-adv-x="1356" 
d="M1023 490q-16 0 -26.5 10.5t-10.5 26.5q0 15 10.5 26t26.5 11t26.5 -11t10.5 -26q0 -16 -10.5 -26.5t-26.5 -10.5zM1361 57l15 -28l-20 -29q-87 0 -139 74q-40 -42 -126 -58t-244 -16h-132v2q-75 0 -113 44q-4 -156 -76 -223t-224 -67q-128 0 -188.5 61t-60.5 167
q0 91 42 184l40 -13q-30 -78 -30 -164q0 -178 203 -178q132 0 187.5 56t55.5 185q0 85 -59 228l58 24q38 -132 40 -138q15 -52 38.5 -77t63.5 -30q56 174 154 275t210 101q96 0 149.5 -59.5t53.5 -166.5q0 -58 -16 -96q42 -58 118 -58zM847 57q209 0 286.5 31.5t77.5 125.5
q0 164 -151 164q-196 0 -320 -321h107zM890 -107q16 0 26.5 -11t10.5 -26q0 -16 -10.5 -26.5t-26.5 -10.5t-26.5 10.5t-10.5 26.5q0 15 10.5 26t26.5 11z" />
    <glyph glyph-name="uni06FC.init" unicode="&#x6fc;" horiz-adv-x="548" 
d="M280 495q-16 0 -26.5 10.5t-10.5 26.5q0 15 10.5 26t26.5 11t26.5 -11t10.5 -26q0 -16 -10.5 -26.5t-26.5 -10.5zM521 109l6 -57q-131 -31 -219.5 -41.5t-205.5 -10.5h-102l-20 29l25 28h85q78 0 110 2q-126 75 -126 192q0 73 54.5 126.5t152.5 53.5q79 0 146 -37
l-25 -54q-61 33 -121 33q-76 0 -115 -36.5t-39 -89.5q0 -107 149 -183q92 9 245 45zM260 -107q16 0 26.5 -11t10.5 -26q0 -16 -10.5 -26.5t-26.5 -10.5t-26.5 10.5t-10.5 26.5q0 15 10.5 26t26.5 11z" />
    <glyph glyph-name="uni06FC.medi" unicode="&#x6fc;" horiz-adv-x="562" 
d="M280 489q-16 0 -26.5 10.5t-10.5 26.5q0 15 10.5 26t26.5 11t26.5 -11t10.5 -26q0 -16 -10.5 -26.5t-26.5 -10.5zM568 57l14 -29l-20 -28h-27q-125 0 -224 80q-69 -37 -146 -58.5t-136 -21.5h-29l-20 28l25 29h14q121 0 251 60q-13 13 -52 54.5t-74.5 74t-84.5 67.5l7 57
q107 44 216 44q102 0 152.5 -33.5t50.5 -93.5q0 -94 -124 -177q41 -30 80.5 -41.5t104.5 -11.5h22zM116 329q45 -33 111 -98t93 -88q117 66 117 139q0 77 -155 77q-82 0 -166 -30zM308 -107q16 0 26.5 -11t10.5 -26q0 -16 -10.5 -26.5t-26.5 -10.5t-26.5 10.5t-10.5 26.5
q0 15 10.5 26t26.5 11z" />
    <glyph glyph-name="uni06FC.fina" unicode="&#x6fc;" horiz-adv-x="559" 
d="M283 488q-16 0 -26.5 10.5t-10.5 26.5q0 15 10.5 26t26.5 11t26.5 -11t10.5 -26q0 -16 -10.5 -26.5t-26.5 -10.5zM344 -296q116 0 202 44l22 -50q-91 -52 -230 -52q-141 0 -215.5 66.5t-74.5 167.5q0 176 188 259q-6 6 -32.5 33.5t-42.5 43t-48 43.5t-67 54l7 57
q109 44 225 44q199 0 199 -123q0 -52 -35 -90.5t-110 -74.5q51 -41 91.5 -55t112.5 -14h28l15 -28l-20 -29h-34q-70 0 -127 23.5t-121 77.5q-95 -42 -137.5 -92t-42.5 -121q0 -81 64 -132.5t183 -51.5zM104 329q44 -33 106.5 -93t78.5 -74q73 31 106.5 59t33.5 65
q0 73 -151 73q-86 0 -174 -30zM277 -102q0 15 10.5 26t26.5 11t26.5 -11t10.5 -26q0 -16 -10.5 -26.5t-26.5 -10.5t-26.5 10.5t-10.5 26.5z" />
    <glyph glyph-name="uni06FF.init" unicode="&#x6ff;" horiz-adv-x="631" 
d="M360 649l-64 -109l-30 13l77 140h33l78 -140l-30 -13zM132 527q248 -141 341.5 -217.5t93.5 -154.5q0 -69 -50 -118.5t-116 -49.5q-97 0 -184 49q-81 -36 -194 -36h-23l-20 29l25 28h14q80 0 143 17q-98 83 -98 189q0 62 34.5 108.5t89.5 58.5q-75 42 -85 47zM107 261
q0 -48 31 -91t83 -74q115 55 115 163q0 56 -32.5 94t-81.5 38q-50 0 -82.5 -37t-32.5 -93zM401 44q49 0 84.5 28t35.5 72q0 73 -153 177q10 -27 10 -59q0 -120 -103 -193q63 -25 126 -25z" />
    <glyph glyph-name="uni06FF.medi" unicode="&#x6ff;" horiz-adv-x="483" 
d="M311 561l-63 -108l-31 12l77 140h34l77 -140l-30 -12zM504 29l-20 -29h-141q89 -44 89 -134q0 -55 -35 -90.5t-95 -35.5q-90 0 -151 73t-65 187h-86l-20 29l25 28h81q4 139 71 236.5t156 97.5q57 0 90.5 -36t33.5 -105q0 -53 -31 -108.5t-83 -84.5h167zM305 334
q-65 0 -116 -79t-58 -198h65q82 0 136 57.5t54 128.5q0 44 -21.5 67.5t-59.5 23.5zM383 -124q0 57 -47.5 90.5t-116.5 33.5h-88q6 -94 50.5 -148.5t114.5 -54.5q43 0 65 22.5t22 56.5z" />
    <glyph glyph-name="uni06FF.fina" unicode="&#x6ff;" horiz-adv-x="569" 
d="M398 561l-64 -109l-30 13l77 140h33l78 -140l-30 -13zM589 29l-20 -29h-141q89 -44 89 -134q0 -55 -35.5 -90.5t-95.5 -35.5q-89 0 -150 73t-65 187q-84 3 -138 30l26 50q45 -20 112 -23q4 139 71 236.5t156 97.5q57 0 90.5 -36t33.5 -105q0 -53 -31 -108.5t-83 -84.5
h166zM390 334q-65 0 -116 -78.5t-58 -198.5h65q82 0 136 57.5t54 128.5q0 44 -21.5 67.5t-59.5 23.5zM468 -124q0 57 -47.5 90.5t-117.5 33.5h-87q6 -94 50.5 -148.5t114.5 -54.5q42 0 64.5 22.5t22.5 56.5z" />
    <glyph glyph-name="uniFB51" unicode="&#x671;" horiz-adv-x="229" arabic-form="final" 
d="M127 780q-35 0 -85 16l-18 -41l-31 11l24 72q28 -10 34 -11q46 98 115 98q31 0 50.5 -18.5t19.5 -48.5q0 -40 -30 -59t-79 -19zM163 888q-45 0 -83 -67q29 -6 54 -6q67 0 67 40q0 33 -38 33zM235 57l14 -28l-20 -29q-150 0 -150 169v516l53 6v-518q0 -64 23.5 -90
t79.5 -26z" />
    <glyph glyph-name="uniFB53" unicode="&#x67b;" horiz-adv-x="917" arabic-form="final" 
d="M922 57l15 -27l-20 -30q-114 0 -167 82q-155 -95 -418 -95q-147 0 -213 46t-66 143q0 76 36 153l41 -14q-26 -66 -26 -132q0 -73 54 -106t179 -33q257 0 392 88v189h52v-147q0 -56 30 -86.5t111 -30.5zM364 -92q14 0 24 -10t10 -25q0 -14 -10 -24t-24 -10t-24.5 10
t-10.5 24q0 15 10.5 25t24.5 10zM364 -227q14 0 24 -10t10 -24q0 -15 -10 -25t-24 -10t-24.5 10t-10.5 25q0 14 10.5 24t24.5 10z" />
    <glyph glyph-name="uniFB54" unicode="&#x67b;" horiz-adv-x="269" arabic-form="initial" 
d="M5 57q91 0 120 24.5t29 89.5q0 83 -43 206l54 18q41 -120 41 -227q0 -95 -43 -131.5t-163 -36.5l-20 29zM124 -161q-14 0 -24.5 10t-10.5 24q0 15 10.5 25t24.5 10t24 -10t10 -25q0 -14 -10 -24t-24 -10zM124 -296q-14 0 -24.5 10t-10.5 25q0 14 10.5 24t24.5 10t24 -10
t10 -24q0 -15 -10 -25t-24 -10z" />
    <glyph glyph-name="uniFB55" unicode="&#x67b;" horiz-adv-x="327" arabic-form="medial" 
d="M332 57l15 -28l-20 -29q-124 0 -162 85q-35 -85 -165 -85l-20 29l26 28q78 0 104 28t26 91v145h54v-145q0 -62 31.5 -90.5t110.5 -28.5zM164 -92q14 0 24 -10t10 -25q0 -14 -10 -24t-24 -10t-24.5 10t-10.5 24q0 15 10.5 25t24.5 10zM164 -227q14 0 24 -10t10 -24
q0 -15 -10 -25t-24 -10t-24.5 10t-10.5 25q0 14 10.5 24t24.5 10z" />
    <glyph glyph-name="uniFB57" unicode="&#x67e;" horiz-adv-x="917" arabic-form="final" 
d="M922 57l15 -27l-20 -30q-114 0 -167 82q-155 -95 -418 -95q-147 0 -213 46t-66 143q0 76 36 153l41 -14q-26 -66 -26 -132q0 -73 54 -106t179 -33q257 0 392 88v189h52v-147q0 -56 30 -86.5t111 -30.5zM360 -128q5 0 8.5 -4t3.5 -9t-4 -8.5t-8 -3.5q-5 0 -9 3.5t-4 8.5
q0 13 13 13zM401 -180q12 0 12 -12t-12 -12q-5 0 -8.5 4t-3.5 8q0 12 12 12zM328 -183q13 0 13 -13q0 -5 -4 -8.5t-9 -3.5q-4 0 -8 4t-4 8q0 5 3.5 9t8.5 4z" />
    <glyph glyph-name="uniFB58" unicode="&#x67e;" horiz-adv-x="269" arabic-form="initial" 
d="M5 57q91 0 120 24.5t29 89.5q0 83 -43 206l54 18q41 -120 41 -227q0 -95 -43 -131.5t-163 -36.5l-20 29zM120 -128q5 0 8.5 -4t3.5 -9t-4 -8.5t-8 -3.5q-5 0 -9 3.5t-4 8.5q0 13 13 13zM161 -180q12 0 12 -12t-12 -12q-5 0 -8.5 4t-3.5 8q0 12 12 12zM88 -183
q13 0 13 -13q0 -5 -4 -8.5t-9 -3.5q-4 0 -8 4t-4 8q0 5 3.5 9t8.5 4z" />
    <glyph glyph-name="uniFB59" unicode="&#x67e;" horiz-adv-x="327" arabic-form="medial" 
d="M332 57l15 -28l-20 -29q-124 0 -162 85q-35 -85 -165 -85l-20 29l26 28q78 0 104 28t26 91v145h54v-145q0 -62 31.5 -90.5t110.5 -28.5zM160 -128q5 0 8.5 -4t3.5 -9t-4 -8.5t-8 -3.5q-5 0 -9 3.5t-4 8.5q0 13 13 13zM201 -180q12 0 12 -12t-12 -12q-5 0 -8.5 4t-3.5 8
q0 12 12 12zM128 -183q13 0 13 -13q0 -5 -4 -8.5t-9 -3.5q-4 0 -8 4t-4 8q0 5 3.5 9t8.5 4z" />
    <glyph glyph-name="uniFB5B" unicode="&#x680;" horiz-adv-x="917" arabic-form="final" 
d="M922 57l15 -27l-20 -30q-114 0 -167 82q-155 -95 -418 -95q-147 0 -213 46t-66 143q0 76 36 153l41 -14q-26 -66 -26 -132q0 -73 54 -106t179 -33q257 0 392 88v189h52v-147q0 -56 30 -86.5t111 -30.5zM294 -81q14 0 24 -10t10 -25q0 -14 -10 -23.5t-24 -9.5t-24 9.5
t-10 23.5q0 15 10 25t24 10zM431 -81q14 0 24 -10t10 -25q0 -14 -10 -23.5t-24 -9.5t-24 9.5t-10 23.5q0 15 10 25t24 10zM294 -209q14 0 24 -10t10 -24t-10 -24t-24 -10t-24 10t-10 24t10 24t24 10zM431 -209q14 0 24 -10t10 -24t-10 -24t-24 -10t-24 10t-10 24t10 24
t24 10z" />
    <glyph glyph-name="uniFB5C" unicode="&#x680;" horiz-adv-x="269" arabic-form="initial" 
d="M5 57q91 0 120 24.5t29 89.5q0 83 -43 206l54 18q41 -120 41 -227q0 -95 -43 -131.5t-163 -36.5l-20 29zM54 -149q-14 0 -24 9.5t-10 23.5q0 15 10 25t24 10t24 -10t10 -25q0 -14 -10 -23.5t-24 -9.5zM191 -149q-14 0 -24 9.5t-10 23.5q0 15 10 25t24 10t24 -10t10 -25
q0 -14 -10 -23.5t-24 -9.5zM54 -277q-14 0 -24 10t-10 24t10 24t24 10t24 -10t10 -24t-10 -24t-24 -10zM191 -277q-14 0 -24 10t-10 24t10 24t24 10t24 -10t10 -24t-10 -24t-24 -10z" />
    <glyph glyph-name="uniFB5D" unicode="&#x680;" horiz-adv-x="327" arabic-form="medial" 
d="M332 57l15 -28l-20 -29q-124 0 -162 85q-35 -85 -165 -85l-20 29l26 28q78 0 104 28t26 91v145h54v-145q0 -62 31.5 -90.5t110.5 -28.5zM94 -81q14 0 24 -10t10 -25q0 -14 -10 -23.5t-24 -9.5t-24 9.5t-10 23.5q0 15 10 25t24 10zM231 -81q14 0 24 -10t10 -25
q0 -14 -10 -23.5t-24 -9.5t-24 9.5t-10 23.5q0 15 10 25t24 10zM94 -209q14 0 24 -10t10 -24t-10 -24t-24 -10t-24 10t-10 24t10 24t24 10zM231 -209q14 0 24 -10t10 -24t-10 -24t-24 -10t-24 10t-10 24t10 24t24 10z" />
    <glyph glyph-name="uniFB5F" unicode="&#x67a;" horiz-adv-x="917" arabic-form="final" 
d="M427 500q-14 0 -24.5 10t-10.5 25q0 14 10.5 24.5t24.5 10.5t24 -10.5t10 -24.5q0 -15 -10 -25t-24 -10zM427 365q-14 0 -24.5 10t-10.5 25q0 14 10.5 24t24.5 10t24 -10t10 -24q0 -15 -10 -25t-24 -10zM922 57l15 -27l-20 -30q-114 0 -167 82q-155 -95 -418 -95
q-147 0 -213 46t-66 143q0 76 36 153l41 -14q-26 -66 -26 -132q0 -73 54 -106t179 -33q257 0 392 88v189h52v-147q0 -56 30 -86.5t111 -30.5z" />
    <glyph glyph-name="uniFB60" unicode="&#x67a;" horiz-adv-x="269" arabic-form="initial" 
d="M121 596q-14 0 -24.5 10t-10.5 25q0 14 10.5 24.5t24.5 10.5t24 -10.5t10 -24.5q0 -15 -10 -25t-24 -10zM121 461q-14 0 -24.5 10t-10.5 25q0 14 10.5 24t24.5 10t24 -10t10 -24q0 -15 -10 -25t-24 -10zM5 57q91 0 120 24.5t29 89.5q0 83 -43 206l54 18q41 -120 41 -227
q0 -95 -43 -131.5t-163 -36.5l-20 29z" />
    <glyph glyph-name="uniFB61" unicode="&#x67a;" horiz-adv-x="327" arabic-form="medial" 
d="M164 526q-14 0 -24.5 10t-10.5 25q0 14 10.5 24.5t24.5 10.5t24 -10.5t10 -24.5q0 -15 -10 -25t-24 -10zM164 391q-14 0 -24.5 10t-10.5 25q0 14 10.5 24t24.5 10t24 -10t10 -24q0 -15 -10 -25t-24 -10zM332 57l15 -28l-20 -29q-124 0 -162 85q-35 -85 -165 -85l-20 29
l26 28q78 0 104 28t26 91v145h54v-145q0 -62 31.5 -90.5t110.5 -28.5z" />
    <glyph glyph-name="uniFB63" unicode="&#x67f;" horiz-adv-x="917" arabic-form="final" 
d="M358 485q-14 0 -24 9.5t-10 22.5q0 15 10 25.5t24 10.5t24 -10.5t10 -25.5q0 -13 -10 -22.5t-24 -9.5zM495 485q-14 0 -24 9.5t-10 22.5q0 15 10 25.5t24 10.5t24 -10.5t10 -25.5q0 -13 -10 -22.5t-24 -9.5zM358 356q-14 0 -24 10t-10 24t10 24t24 10t24 -10t10 -24
t-10 -24t-24 -10zM495 356q-14 0 -24 10t-10 24t10 24t24 10t24 -10t10 -24t-10 -24t-24 -10zM922 57l15 -27l-20 -30q-114 0 -167 82q-155 -95 -418 -95q-147 0 -213 46t-66 143q0 76 36 153l41 -14q-26 -66 -26 -132q0 -73 54 -106t179 -33q257 0 392 88v189h52v-147
q0 -56 30 -86.5t111 -30.5z" />
    <glyph glyph-name="uniFB64" unicode="&#x67f;" horiz-adv-x="269" arabic-form="initial" 
d="M52 581q-14 0 -24 9.5t-10 22.5q0 15 10 25.5t24 10.5t24 -10.5t10 -25.5q0 -13 -10 -22.5t-24 -9.5zM189 581q-14 0 -24 9.5t-10 22.5q0 15 10 25.5t24 10.5t24 -10.5t10 -25.5q0 -13 -10 -22.5t-24 -9.5zM52 452q-14 0 -24 10t-10 24t10 24t24 10t24 -10t10 -24
t-10 -24t-24 -10zM189 452q-14 0 -24 10t-10 24t10 24t24 10t24 -10t10 -24t-10 -24t-24 -10zM5 57q91 0 120 24.5t29 89.5q0 83 -43 206l54 18q41 -120 41 -227q0 -95 -43 -131.5t-163 -36.5l-20 29z" />
    <glyph glyph-name="uniFB65" unicode="&#x67f;" horiz-adv-x="327" arabic-form="medial" 
d="M95 511q-14 0 -24 9.5t-10 22.5q0 15 10 25.5t24 10.5t24 -10.5t10 -25.5q0 -13 -10 -22.5t-24 -9.5zM232 511q-14 0 -24 9.5t-10 22.5q0 15 10 25.5t24 10.5t24 -10.5t10 -25.5q0 -13 -10 -22.5t-24 -9.5zM95 382q-14 0 -24 10t-10 24t10 24t24 10t24 -10t10 -24
t-10 -24t-24 -10zM232 382q-14 0 -24 10t-10 24t10 24t24 10t24 -10t10 -24t-10 -24t-24 -10zM332 57l15 -28l-20 -29q-124 0 -162 85q-35 -85 -165 -85l-20 29l26 28q78 0 104 28t26 91v145h54v-145q0 -62 31.5 -90.5t110.5 -28.5z" />
    <glyph glyph-name="uniFB67" unicode="&#x679;" horiz-adv-x="917" arabic-form="final" 
d="M546 450q0 -31 -23.5 -55.5t-70.5 -24.5h-147l3 34h23q5 9 15 25v145h33v-98q45 54 92 54q33 0 54 -22.5t21 -57.5zM362 404h83q68 0 68 47q0 44 -45 44q-52 0 -106 -91zM922 57l15 -27l-20 -30q-114 0 -167 82q-155 -95 -418 -95q-147 0 -213 46t-66 143q0 76 36 153
l41 -14q-26 -66 -26 -132q0 -73 54 -106t179 -33q257 0 392 88v189h52v-147q0 -56 30 -86.5t111 -30.5z" />
    <glyph glyph-name="uniFB68" unicode="&#x679;" horiz-adv-x="269" arabic-form="initial" 
d="M165 626q33 0 54 -22.5t21 -57.5q0 -31 -23.5 -55.5t-70.5 -24.5h-147l3 34h23q5 9 15 25v145h33v-98q45 54 92 54zM139 500q68 0 68 47q0 44 -45 44q-52 0 -106 -91h83zM111 377l54 18q41 -120 41 -227q0 -95 -43 -131.5t-163 -36.5l-20 29l25 28q91 0 120 24.5t29 89.5
q0 83 -43 206z" />
    <glyph glyph-name="uniFB69" unicode="&#x679;" horiz-adv-x="327" arabic-form="medial" 
d="M283 476q0 -31 -23.5 -55.5t-70.5 -24.5h-147l3 34h23q5 9 15 25v145h33v-98q45 54 92 54q33 0 54 -22.5t21 -57.5zM99 430h83q68 0 68 47q0 44 -45 44q-52 0 -106 -91zM332 57l15 -28l-20 -29q-124 0 -162 85q-35 -85 -165 -85l-20 29l26 28q78 0 104 28t26 91v145h54
v-145q0 -62 31.5 -90.5t110.5 -28.5z" />
    <glyph glyph-name="uniFB6B" unicode="&#x6a4;" horiz-adv-x="959" arabic-form="final" 
d="M713 632q-14 0 -24 10t-10 24t10 24t24 10t24 -10t10 -24t-10 -24t-24 -10zM641 526q-15 0 -25 10t-10 24t10 23.5t25 9.5q14 0 24 -10t10 -23q0 -14 -10 -24t-24 -10zM785 526q-14 0 -24 10t-10 24q0 13 10 23t24 10q15 0 25 -9.5t10 -23.5t-10 -24t-25 -10zM963 57
l16 -28l-20 -29h-37q-110 0 -209 48q-142 -61 -381 -61q-147 0 -213 46t-66 143q0 76 36 153l41 -14q-26 -66 -26 -132q0 -73 54 -106t179 -33q194 0 319 37q-113 79 -113 187q0 79 49.5 136.5t119.5 57.5q79 0 128 -57t49 -138q0 -114 -118 -188q74 -22 151 -22h41z
M592 268q0 -106 121 -165q127 58 127 164q0 60 -34.5 99t-90.5 39q-54 0 -88.5 -39t-34.5 -98z" />
    <glyph glyph-name="uniFB6C" unicode="&#x6a4;" horiz-adv-x="459" arabic-form="initial" 
d="M213 717q-14 0 -24 10t-10 24t10 24t24 10t24 -10t10 -24t-10 -24t-24 -10zM141 611q-15 0 -25 10t-10 24t10 23.5t25 9.5q14 0 24 -10t10 -23q0 -14 -10 -24t-24 -10zM285 611q-14 0 -24 10t-10 24q0 13 10 23t24 10q15 0 25 -9.5t10 -23.5t-10 -24t-25 -10zM214 546
q81 0 131.5 -71.5t50.5 -198.5q0 -103 -33.5 -161t-119.5 -86.5t-243 -28.5l-20 30l25 27q133 0 207.5 19.5t101.5 53t32 92.5q-41 -38 -124 -38t-133.5 48t-50.5 125t51 133t125 56zM239 234q63 0 109 26v7q0 111 -36 166.5t-99 55.5q-55 0 -90.5 -37.5t-35.5 -90.5
q0 -59 39 -93t113 -34z" />
    <glyph glyph-name="uniFB6D" unicode="&#x6a4;" horiz-adv-x="494" arabic-form="medial" 
d="M248 631q-14 0 -24 10t-10 24t10 24t24 10t24 -10t10 -24t-10 -24t-24 -10zM176 525q-15 0 -25 10t-10 24t10 23.5t25 9.5q14 0 24 -10t10 -23q0 -14 -10 -24t-24 -10zM320 525q-14 0 -24 10t-10 24q0 13 10 23t24 10q15 0 25 -9.5t10 -23.5t-10 -24t-25 -10zM499 57
l15 -28l-20 -29h-37q-108 0 -203 46q-100 -46 -223 -46h-31l-20 29l25 28h32q90 0 159 21q-117 80 -117 190q0 79 49.5 136.5t119.5 57.5q79 0 128 -57t49 -138q0 -50 -30 -100.5t-85 -88.5q69 -21 147 -21h42zM128 268q0 -106 125 -168q123 59 123 167q0 60 -34.5 99
t-91.5 39q-53 0 -87.5 -39t-34.5 -98z" />
    <glyph glyph-name="uniFB6F" unicode="&#x6a6;" horiz-adv-x="959" arabic-form="final" 
d="M645 640q-14 0 -24 9.5t-10 22.5q0 15 10 25.5t24 10.5t24 -10.5t10 -25.5q0 -13 -10 -22.5t-24 -9.5zM782 640q-14 0 -24 9.5t-10 22.5q0 15 10 25.5t24 10.5t24 -10.5t10 -25.5q0 -13 -10 -22.5t-24 -9.5zM645 511q-14 0 -24 10t-10 24t10 24t24 10t24 -10t10 -24
t-10 -24t-24 -10zM782 511q-14 0 -24 10t-10 24t10 24t24 10t24 -10t10 -24t-10 -24t-24 -10zM963 57l16 -28l-20 -29h-37q-110 0 -209 48q-142 -61 -381 -61q-147 0 -213 46t-66 143q0 76 36 153l41 -14q-26 -66 -26 -132q0 -73 54 -106t179 -33q194 0 319 37
q-113 79 -113 187q0 79 49.5 136.5t119.5 57.5q79 0 128 -57t49 -138q0 -114 -118 -188q74 -22 151 -22h41zM592 268q0 -106 121 -165q127 58 127 164q0 60 -34.5 99t-90.5 39q-54 0 -88.5 -39t-34.5 -98z" />
    <glyph glyph-name="uniFB70" unicode="&#x6a6;" horiz-adv-x="459" arabic-form="initial" 
d="M145 725q-14 0 -24 9.5t-10 22.5q0 15 10 25.5t24 10.5t24 -10.5t10 -25.5q0 -13 -10 -22.5t-24 -9.5zM282 725q-14 0 -24 9.5t-10 22.5q0 15 10 25.5t24 10.5t24 -10.5t10 -25.5q0 -13 -10 -22.5t-24 -9.5zM145 596q-14 0 -24 10t-10 24t10 24t24 10t24 -10t10 -24
t-10 -24t-24 -10zM282 596q-14 0 -24 10t-10 24t10 24t24 10t24 -10t10 -24t-10 -24t-24 -10zM214 546q81 0 131.5 -71.5t50.5 -198.5q0 -103 -33.5 -161t-119.5 -86.5t-243 -28.5l-20 30l25 27q133 0 207.5 19.5t101.5 53t32 92.5q-41 -38 -124 -38t-133.5 48t-50.5 125
t51 133t125 56zM239 234q63 0 109 26v7q0 111 -36 166.5t-99 55.5q-55 0 -90.5 -37.5t-35.5 -90.5q0 -59 39 -93t113 -34z" />
    <glyph glyph-name="uniFB71" unicode="&#x6a6;" horiz-adv-x="494" arabic-form="medial" 
d="M180 639q-14 0 -24 9.5t-10 22.5q0 15 10 25.5t24 10.5t24 -10.5t10 -25.5q0 -13 -10 -22.5t-24 -9.5zM317 639q-14 0 -24 9.5t-10 22.5q0 15 10 25.5t24 10.5t24 -10.5t10 -25.5q0 -13 -10 -22.5t-24 -9.5zM180 510q-14 0 -24 10t-10 24t10 24t24 10t24 -10t10 -24
t-10 -24t-24 -10zM317 510q-14 0 -24 10t-10 24t10 24t24 10t24 -10t10 -24t-10 -24t-24 -10zM499 57l15 -28l-20 -29h-37q-108 0 -203 46q-100 -46 -223 -46h-31l-20 29l25 28h32q90 0 159 21q-117 80 -117 190q0 79 49.5 136.5t119.5 57.5q79 0 128 -57t49 -138
q0 -50 -30 -100.5t-85 -88.5q69 -21 147 -21h42zM128 268q0 -106 125 -168q123 59 123 167q0 60 -34.5 99t-91.5 39q-53 0 -87.5 -39t-34.5 -98z" />
    <glyph glyph-name="uniFB73" unicode="&#x684;" horiz-adv-x="681" arabic-form="final" 
d="M681 0q-99 0 -155 47.5t-68 150.5q-171 -19 -258.5 -92t-87.5 -184q0 -100 71.5 -159t207.5 -59q125 0 215 46l22 -50q-92 -54 -243 -54q-159 0 -240 73.5t-81 194.5q0 143 109.5 231.5t316.5 102.5q-51 21 -99 57t-84.5 57t-83.5 21q-66 0 -125 -36l-27 50q72 43 156 43
q44 0 80.5 -15t65.5 -39t58 -49t72 -48t94 -34l-6 -49l-59 -2q-11 0 -31 -2q17 -85 59 -115t126 -30l15 -28zM361 28q15 0 25 -10t10 -25q0 -14 -10 -24t-25 -10q-14 0 -24.5 10t-10.5 24q0 15 10.5 25t24.5 10zM362 -107q14 0 24 -10t10 -24q0 -15 -10 -25t-24 -10
t-24.5 10t-10.5 25q0 14 10.5 24t24.5 10z" />
    <glyph glyph-name="uniFB74" unicode="&#x684;" horiz-adv-x="695" arabic-form="initial" 
d="M224 440q56 0 98.5 -17t73 -44t60.5 -56t80.5 -59.5t114.5 -47.5l-9 -50l-65 -5q-83 -4 -164.5 -30t-136.5 -55t-129.5 -52.5t-146.5 -23.5l-20 29l25 29q65 0 133.5 21t120.5 47.5t130 51.5t159 31q-46 17 -84.5 42t-62.5 47t-49 42t-57 31.5t-73 11.5q-59 0 -118 -36
l-27 50q72 43 147 43zM299 -92q14 0 24 -10t10 -25q0 -14 -10 -24t-24 -10t-24.5 10t-10.5 24q0 15 10.5 25t24.5 10zM299 -227q14 0 24 -10t10 -24q0 -15 -10 -25t-24 -10t-24.5 10t-10.5 25q0 14 10.5 24t24.5 10z" />
    <glyph glyph-name="uniFB75" unicode="&#x684;" horiz-adv-x="727" arabic-form="medial" 
d="M733 57l14 -28l-20 -29q-205 0 -234 187q-54 -13 -121 -46.5t-118 -63.5t-120 -53.5t-134 -23.5l-20 29l25 28q65 0 134.5 25t122 56t127.5 62t146 40q-54 18 -100 45t-70.5 47.5t-61.5 35.5t-81 15q-58 0 -120 -34l-27 49q75 42 148 42q52 0 91 -13.5t68.5 -35.5
t60 -46.5t82 -51t117.5 -43.5l-7 -50l-65 -2q-18 0 -34 -3q16 -80 63 -109t134 -29zM384 -42q14 0 24 -10t10 -25q0 -14 -10 -24t-24 -10t-24.5 10t-10.5 24q0 15 10.5 25t24.5 10zM384 -177q14 0 24 -10t10 -24q0 -15 -10 -25t-24 -10t-24.5 10t-10.5 25q0 14 10.5 24
t24.5 10z" />
    <glyph glyph-name="uniFB77" unicode="&#x683;" horiz-adv-x="681" arabic-form="final" 
d="M681 0q-99 0 -155 47.5t-68 150.5q-171 -19 -258.5 -92t-87.5 -184q0 -100 71.5 -159t207.5 -59q125 0 215 46l22 -50q-92 -54 -243 -54q-159 0 -240 73.5t-81 194.5q0 143 109.5 231.5t316.5 102.5q-51 21 -99 57t-84.5 57t-83.5 21q-66 0 -125 -36l-27 50q72 43 156 43
q44 0 80.5 -15t65.5 -39t58 -49t72 -48t94 -34l-6 -49l-59 -2q-11 0 -31 -2q17 -85 59 -115t126 -30l15 -28zM256 -67q0 14 10.5 24.5t24.5 10.5t24 -10.5t10 -24.5q0 -15 -10 -25t-24 -10t-24.5 10t-10.5 25zM394 -67q0 14 10 24.5t25 10.5q14 0 24.5 -10.5t10.5 -24.5
q0 -15 -10.5 -25t-24.5 -10q-15 0 -25 10t-10 25z" />
    <glyph glyph-name="uniFB78" unicode="&#x683;" horiz-adv-x="695" arabic-form="initial" 
d="M224 440q56 0 98.5 -17t73 -44t60.5 -56t80.5 -59.5t114.5 -47.5l-9 -50l-65 -5q-83 -4 -164.5 -30t-136.5 -55t-129.5 -52.5t-146.5 -23.5l-20 29l25 29q65 0 133.5 21t120.5 47.5t130 51.5t159 31q-46 17 -84.5 42t-62.5 47t-49 42t-57 31.5t-73 11.5q-59 0 -118 -36
l-27 50q72 43 147 43zM229 -107q14 0 24 -10.5t10 -24.5t-10 -24t-24 -10t-24.5 10t-10.5 24t10.5 24.5t24.5 10.5zM367 -107q14 0 24.5 -10.5t10.5 -24.5t-10.5 -24t-24.5 -10q-15 0 -25 10t-10 24t10 24.5t25 10.5z" />
    <glyph glyph-name="uniFB79" unicode="&#x683;" horiz-adv-x="727" arabic-form="medial" 
d="M733 57l14 -28l-20 -29q-205 0 -234 187q-54 -13 -121 -46.5t-118 -63.5t-120 -53.5t-134 -23.5l-20 29l25 28q65 0 134.5 25t122 56t127.5 62t146 40q-54 18 -100 45t-70.5 47.5t-61.5 35.5t-81 15q-58 0 -120 -34l-27 49q75 42 148 42q52 0 91 -13.5t68.5 -35.5
t60 -46.5t82 -51t117.5 -43.5l-7 -50l-65 -2q-18 0 -34 -3q16 -80 63 -109t134 -29zM315 -57q14 0 24 -10.5t10 -24.5t-10 -24t-24 -10t-24.5 10t-10.5 24t10.5 24.5t24.5 10.5zM453 -57q14 0 24.5 -10.5t10.5 -24.5t-10.5 -24t-24.5 -10q-15 0 -25 10t-10 24t10 24.5
t25 10.5z" />
    <glyph glyph-name="uniFB7B" unicode="&#x686;" horiz-adv-x="681" arabic-form="final" 
d="M681 0q-99 0 -155 47.5t-68 150.5q-171 -19 -258.5 -92t-87.5 -184q0 -100 71.5 -159t207.5 -59q125 0 215 46l22 -50q-92 -54 -243 -54q-159 0 -240 73.5t-81 194.5q0 143 109.5 231.5t316.5 102.5q-51 21 -99 57t-84.5 57t-83.5 21q-66 0 -125 -36l-27 50q72 43 156 43
q44 0 80.5 -15t65.5 -39t58 -49t72 -48t94 -34l-6 -49l-59 -2q-11 0 -31 -2q17 -85 59 -115t126 -30l15 -28zM344 -22q0 13 13 13q5 0 8.5 -4t3.5 -9q0 -12 -12 -12q-13 0 -13 12zM386 -73q0 12 12 12t12 -12t-12 -12t-12 12zM313 -77q0 12 12 12q13 0 13 -12t-13 -12
q-12 0 -12 12z" />
    <glyph glyph-name="uniFB7C" unicode="&#x686;" horiz-adv-x="695" arabic-form="initial" 
d="M224 440q56 0 98.5 -17t73 -44t60.5 -56t80.5 -59.5t114.5 -47.5l-9 -50l-65 -5q-83 -4 -164.5 -30t-136.5 -55t-129.5 -52.5t-146.5 -23.5l-20 29l25 29q65 0 133.5 21t120.5 47.5t130 51.5t159 31q-46 17 -84.5 42t-62.5 47t-49 42t-57 31.5t-73 11.5q-59 0 -118 -36
l-27 50q72 43 147 43zM295 -128q5 0 8.5 -4t3.5 -9t-3.5 -8.5t-8.5 -3.5t-9 3.5t-4 8.5q0 13 13 13zM336 -180q12 0 12 -12t-12 -12q-4 0 -8 4t-4 8q0 12 12 12zM263 -183q13 0 13 -13q0 -5 -4 -8.5t-9 -3.5t-8.5 4t-3.5 8q0 5 3.5 9t8.5 4z" />
    <glyph glyph-name="uniFB7D" unicode="&#x686;" horiz-adv-x="727" arabic-form="medial" 
d="M733 57l14 -28l-20 -29q-205 0 -234 187q-54 -13 -121 -46.5t-118 -63.5t-120 -53.5t-134 -23.5l-20 29l25 28q65 0 134.5 25t122 56t127.5 62t146 40q-54 18 -100 45t-70.5 47.5t-61.5 35.5t-81 15q-58 0 -120 -34l-27 49q75 42 148 42q52 0 91 -13.5t68.5 -35.5
t60 -46.5t82 -51t117.5 -43.5l-7 -50l-65 -2q-18 0 -34 -3q16 -80 63 -109t134 -29zM381 -78q5 0 8.5 -4t3.5 -9t-3.5 -8.5t-8.5 -3.5t-9 3.5t-4 8.5q0 13 13 13zM422 -130q12 0 12 -12t-12 -12q-4 0 -8 4t-4 8q0 12 12 12zM349 -133q13 0 13 -13q0 -5 -4 -8.5t-9 -3.5
t-8.5 4t-3.5 8q0 5 3.5 9t8.5 4z" />
    <glyph glyph-name="uniFB7F" unicode="&#x687;" horiz-adv-x="681" arabic-form="final" 
d="M681 0q-99 0 -155 47.5t-68 150.5q-171 -19 -258.5 -92t-87.5 -184q0 -100 71.5 -159t207.5 -59q125 0 215 46l22 -50q-92 -54 -243 -54q-159 0 -240 73.5t-81 194.5q0 143 109.5 231.5t316.5 102.5q-51 21 -99 57t-84.5 57t-83.5 21q-66 0 -125 -36l-27 50q72 43 156 43
q44 0 80.5 -15t65.5 -39t58 -49t72 -48t94 -34l-6 -49l-59 -2q-11 0 -31 -2q17 -85 59 -115t126 -30l15 -28zM292 36q14 0 24 -10t10 -25q0 -14 -10 -23.5t-24 -9.5t-24 9.5t-10 23.5q0 15 10 25t24 10zM429 36q14 0 24 -10t10 -25q0 -14 -10 -23.5t-24 -9.5t-24 9.5
t-10 23.5q0 15 10 25t24 10zM292 -92q14 0 24 -10t10 -24t-10 -24t-24 -10t-24 10t-10 24t10 24t24 10zM429 -92q14 0 24 -10t10 -24t-10 -24t-24 -10t-24 10t-10 24t10 24t24 10z" />
    <glyph glyph-name="uniFB80" unicode="&#x687;" horiz-adv-x="695" arabic-form="initial" 
d="M224 440q56 0 98.5 -17t73 -44t60.5 -56t80.5 -59.5t114.5 -47.5l-9 -50l-65 -5q-83 -4 -164.5 -30t-136.5 -55t-129.5 -52.5t-146.5 -23.5l-20 29l25 29q65 0 133.5 21t120.5 47.5t130 51.5t159 31q-46 17 -84.5 42t-62.5 47t-49 42t-57 31.5t-73 11.5q-59 0 -118 -36
l-27 50q72 43 147 43zM229 -81q14 0 24 -10t10 -25q0 -14 -10 -23.5t-24 -9.5t-24 9.5t-10 23.5q0 15 10 25t24 10zM366 -81q14 0 24 -10t10 -25q0 -14 -10 -23.5t-24 -9.5t-24 9.5t-10 23.5q0 15 10 25t24 10zM229 -209q14 0 24 -10t10 -24t-10 -24t-24 -10t-24 10t-10 24
t10 24t24 10zM366 -209q14 0 24 -10t10 -24t-10 -24t-24 -10t-24 10t-10 24t10 24t24 10z" />
    <glyph glyph-name="uniFB81" unicode="&#x687;" horiz-adv-x="727" arabic-form="medial" 
d="M733 57l14 -28l-20 -29q-205 0 -234 187q-54 -13 -121 -46.5t-118 -63.5t-120 -53.5t-134 -23.5l-20 29l25 28q65 0 134.5 25t122 56t127.5 62t146 40q-54 18 -100 45t-70.5 47.5t-61.5 35.5t-81 15q-58 0 -120 -34l-27 49q75 42 148 42q52 0 91 -13.5t68.5 -35.5
t60 -46.5t82 -51t117.5 -43.5l-7 -50l-65 -2q-18 0 -34 -3q16 -80 63 -109t134 -29zM315 -31q14 0 24 -10t10 -25q0 -14 -10 -23.5t-24 -9.5t-24 9.5t-10 23.5q0 15 10 25t24 10zM452 -31q14 0 24 -10t10 -25q0 -14 -10 -23.5t-24 -9.5t-24 9.5t-10 23.5q0 15 10 25t24 10z
M315 -159q14 0 24 -10t10 -24t-10 -24t-24 -10t-24 10t-10 24t10 24t24 10zM452 -159q14 0 24 -10t10 -24t-10 -24t-24 -10t-24 10t-10 24t10 24t24 10z" />
    <glyph glyph-name="uniFB83" unicode="&#x68d;" horiz-adv-x="518" arabic-form="final" 
d="M522 57l16 -28l-20 -29q-95 0 -133 81q-61 -94 -204 -94q-75 0 -154 25l17 56q73 -22 141 -22q116 0 181 73l-150 355l57 27l131 -340q23 -59 47 -81.5t71 -22.5zM137 -107q14 0 24 -10.5t10 -24.5t-10 -24t-24 -10t-24.5 10t-10.5 24t10.5 24.5t24.5 10.5zM275 -107
q14 0 24.5 -10.5t10.5 -24.5t-10.5 -24t-24.5 -10q-15 0 -25 10t-10 24t10 24.5t25 10.5z" />
    <glyph glyph-name="uniFB85" unicode="&#x68c;" horiz-adv-x="518" arabic-form="final" 
d="M120 605q-14 0 -24.5 10t-10.5 25q0 14 10.5 24.5t24.5 10.5t24 -10.5t10 -24.5q0 -15 -10 -25t-24 -10zM258 605q-15 0 -25 10t-10 25q0 14 10 24.5t25 10.5q14 0 24.5 -10.5t10.5 -24.5q0 -15 -10.5 -25t-24.5 -10zM522 57l16 -28l-20 -29q-95 0 -133 81
q-61 -94 -204 -94q-75 0 -154 25l17 56q73 -22 141 -22q116 0 181 73l-150 355l57 27l131 -340q23 -59 47 -81.5t71 -22.5z" />
    <glyph glyph-name="uniFB87" unicode="&#x68e;" horiz-adv-x="518" arabic-form="final" 
d="M189 681q-14 0 -24 10t-10 24t10 24t24 10t24 -10t10 -24t-10 -24t-24 -10zM117 575q-15 0 -25 10t-10 24t10 23.5t25 9.5q14 0 24 -10t10 -23q0 -14 -10 -24t-24 -10zM261 575q-14 0 -24 10t-10 24q0 13 10 23t24 10q15 0 25 -9.5t10 -23.5t-10 -24t-25 -10zM522 57
l16 -28l-20 -29q-95 0 -133 81q-61 -94 -204 -94q-75 0 -154 25l17 56q73 -22 141 -22q116 0 181 73l-150 355l57 27l131 -340q23 -59 47 -81.5t71 -22.5z" />
    <glyph glyph-name="uniFB89" unicode="&#x688;" horiz-adv-x="518" arabic-form="final" 
d="M309 654q0 -31 -23.5 -55.5t-70.5 -24.5h-147l3 34h23q5 9 15 25v145h33v-98q45 54 92 54q33 0 54 -22.5t21 -57.5zM125 608h83q68 0 68 47q0 44 -45 44q-52 0 -106 -91zM522 57l16 -28l-20 -29q-95 0 -133 81q-61 -94 -204 -94q-75 0 -154 25l17 56q73 -22 141 -22
q116 0 181 73l-150 355l57 27l131 -340q23 -59 47 -81.5t71 -22.5z" />
    <glyph glyph-name="uniFB8B" unicode="&#x698;" horiz-adv-x="382" arabic-form="final" 
d="M189 531q-14 0 -24 10t-10 24t10 24t24 10t24 -10t10 -24t-10 -24t-24 -10zM117 425q-15 0 -25 10t-10 24t10 23.5t25 9.5q14 0 24 -10t10 -23q0 -14 -10 -24t-24 -10zM261 425q-14 0 -24 10t-10 24q0 13 10 23t24 10q15 0 25 -9.5t10 -23.5t-10 -24t-25 -10zM388 57
l14 -28l-20 -29q-77 0 -103 56q-15 -220 -283 -303l-23 55q262 79 262 269q0 89 -58 234l58 19q21 -70 36 -149q13 -67 39.5 -95.5t77.5 -28.5z" />
    <glyph glyph-name="uniFB8D" unicode="&#x691;" horiz-adv-x="382" arabic-form="final" 
d="M309 504q0 -31 -23.5 -55.5t-70.5 -24.5h-147l3 34h23q5 9 15 25v145h33v-98q45 54 92 54q33 0 54 -22.5t21 -57.5zM125 458h83q68 0 68 47q0 44 -45 44q-52 0 -106 -91zM388 57l14 -28l-20 -29q-77 0 -103 56q-15 -220 -283 -303l-23 55q262 79 262 269q0 89 -58 234
l58 19q21 -70 36 -149q13 -67 39.5 -95.5t77.5 -28.5z" />
    <glyph glyph-name="uniFB8F" unicode="&#x6a9;" horiz-adv-x="983" arabic-form="final" 
d="M988 57l15 -27l-20 -30q-84 0 -145 41.5t-147 161.5q1 -7 1 -18q0 -61 -31 -102.5t-113 -68.5t-216 -27q-147 0 -213 46t-66 143q0 76 36 153l41 -14q-26 -66 -26 -132q0 -73 54 -106t179 -33q91 0 153.5 11t96 32t47 47t13.5 61q0 62 -55 131l-98 121l12 52l392 256
l-4 -60l-350 -226l164 -205q59 -74 88 -107.5t62.5 -60t60.5 -33t69 -6.5z" />
    <glyph glyph-name="uniFB90" unicode="&#x6a9;" horiz-adv-x="459" arabic-form="initial" 
d="M406 755l-4 -60l-341 -220q156 -67 217.5 -128t61.5 -136q0 -104 -89 -157.5t-251 -53.5l-20 29l25 28q284 0 284 159q0 56 -62.5 110t-223.5 120l12 54z" />
    <glyph glyph-name="uniFB91" unicode="&#x6a9;" horiz-adv-x="543" arabic-form="medial" 
d="M548 57l15 -27l-20 -30q-84 0 -144.5 41.5t-146.5 159.5q1 -6 1 -16q0 -85 -65 -135t-188 -50l-20 29l25 28q102 0 152 36.5t50 101.5q0 63 -55 131l-98 121l12 52l391 256l-3 -60l-350 -226l164 -205q59 -74 88 -107.5t62.5 -60t60.5 -33t69 -6.5z" />
    <glyph glyph-name="uniFB93" unicode="&#x6af;" horiz-adv-x="983" arabic-form="final" 
d="M892 875l-3 -47l-384 -252l11 50zM988 57l15 -27l-20 -30q-84 0 -145 41.5t-147 161.5q1 -7 1 -18q0 -61 -31 -102.5t-113 -68.5t-216 -27q-147 0 -213 46t-66 143q0 76 36 153l41 -14q-26 -66 -26 -132q0 -73 54 -106t179 -33q91 0 153.5 11t96 32t47 47t13.5 61
q0 62 -55 131l-98 121l12 52l392 256l-4 -60l-350 -226l164 -205q59 -74 88 -107.5t62.5 -60t60.5 -33t69 -6.5z" />
    <glyph glyph-name="uniFB94" unicode="&#x6af;" horiz-adv-x="459" arabic-form="initial" 
d="M397 875l-3 -47l-385 -252l11 50zM406 755l-4 -60l-341 -220q156 -67 217.5 -128t61.5 -136q0 -104 -89 -157.5t-251 -53.5l-20 29l25 28q284 0 284 159q0 56 -62.5 110t-223.5 120l12 54z" />
    <glyph glyph-name="uniFB95" unicode="&#x6af;" horiz-adv-x="543" arabic-form="medial" 
d="M454 875l-3 -47l-385 -252l11 50zM548 57l15 -27l-20 -30q-84 0 -144.5 41.5t-146.5 159.5q1 -6 1 -16q0 -85 -65 -135t-188 -50l-20 29l25 28q102 0 152 36.5t50 101.5q0 63 -55 131l-98 121l12 52l391 256l-3 -60l-350 -226l164 -205q59 -74 88 -107.5t62.5 -60
t60.5 -33t69 -6.5z" />
    <glyph glyph-name="uniFB97" unicode="&#x6b3;" horiz-adv-x="983" arabic-form="final" 
d="M892 875l-3 -47l-384 -252l11 50zM988 57l15 -27l-20 -30q-84 0 -145 41.5t-147 161.5q1 -7 1 -18q0 -61 -31 -102.5t-113 -68.5t-216 -27q-147 0 -213 46t-66 143q0 76 36 153l41 -14q-26 -66 -26 -132q0 -73 54 -106t179 -33q91 0 153.5 11t96 32t47 47t13.5 61
q0 62 -55 131l-98 121l12 52l392 256l-4 -60l-350 -226l164 -205q59 -74 88 -107.5t62.5 -60t60.5 -33t69 -6.5zM374 -161q-14 0 -24.5 10t-10.5 24q0 15 10.5 25t24.5 10t24 -10t10 -25q0 -14 -10 -24t-24 -10zM374 -227q14 0 24.5 -10t10.5 -24q0 -15 -10.5 -25t-24.5 -10
t-24.5 10t-10.5 25q0 14 10.5 24t24.5 10z" />
    <glyph glyph-name="uniFB98" unicode="&#x6b3;" horiz-adv-x="459" arabic-form="initial" 
d="M397 875l-3 -47l-385 -252l11 50zM406 755l-4 -60l-341 -220q156 -67 217.5 -128t61.5 -136q0 -104 -89 -157.5t-251 -53.5l-20 29l25 28q284 0 284 159q0 56 -62.5 110t-223.5 120l12 54zM126 -92q14 0 24 -10t10 -25q0 -14 -10 -24t-24 -10t-24.5 10t-10.5 24
q0 15 10.5 25t24.5 10zM126 -227q14 0 24 -10t10 -24q0 -15 -10 -25t-24 -10t-24.5 10t-10.5 25q0 14 10.5 24t24.5 10z" />
    <glyph glyph-name="uniFB99" unicode="&#x6b3;" horiz-adv-x="543" arabic-form="medial" 
d="M454 875l-3 -47l-385 -252l11 50zM548 57l15 -27l-20 -30q-84 0 -144.5 41.5t-146.5 159.5q1 -6 1 -16q0 -85 -65 -135t-188 -50l-20 29l25 28q102 0 152 36.5t50 101.5q0 63 -55 131l-98 121l12 52l391 256l-3 -60l-350 -226l164 -205q59 -74 88 -107.5t62.5 -60
t60.5 -33t69 -6.5zM279 -92q14 0 24 -10t10 -25q0 -14 -10 -24t-24 -10t-24.5 10t-10.5 24q0 15 10.5 25t24.5 10zM279 -227q14 0 24 -10t10 -24q0 -15 -10 -25t-24 -10t-24.5 10t-10.5 25q0 14 10.5 24t24.5 10z" />
    <glyph glyph-name="uniFB9B" unicode="&#x6b1;" horiz-adv-x="983" arabic-form="final" 
d="M892 875l-3 -47l-384 -252l11 50zM450 771q-14 0 -24.5 10t-10.5 24t10.5 24.5t24.5 10.5t24 -10.5t10 -24.5t-10 -24t-24 -10zM588 771q-15 0 -25 10t-10 24t10 24.5t25 10.5q14 0 24.5 -10.5t10.5 -24.5t-10.5 -24t-24.5 -10zM988 57l15 -27l-20 -30q-84 0 -145 41.5
t-147 161.5q1 -7 1 -18q0 -61 -31 -102.5t-113 -68.5t-216 -27q-147 0 -213 46t-66 143q0 76 36 153l41 -14q-26 -66 -26 -132q0 -73 54 -106t179 -33q91 0 153.5 11t96 32t47 47t13.5 61q0 62 -55 131l-98 121l12 52l392 256l-4 -60l-350 -226l164 -205q59 -74 88 -107.5
t62.5 -60t60.5 -33t69 -6.5z" />
    <glyph glyph-name="uniFB9C" unicode="&#x6b1;" horiz-adv-x="459" arabic-form="initial" 
d="M397 875l-3 -47l-385 -252l11 50zM-44 841q14 0 24 -10.5t10 -24.5q0 -15 -10 -25t-24 -10t-24.5 10t-10.5 25q0 14 10.5 24.5t24.5 10.5zM94 771q-15 0 -25 10t-10 25q0 14 10 24.5t25 10.5q14 0 24.5 -10.5t10.5 -24.5q0 -15 -10.5 -25t-24.5 -10zM406 755l-4 -60
l-341 -220q156 -67 217.5 -128t61.5 -136q0 -104 -89 -157.5t-251 -53.5l-20 29l25 28q284 0 284 159q0 56 -62.5 110t-223.5 120l12 54z" />
    <glyph glyph-name="uniFB9D" unicode="&#x6b1;" horiz-adv-x="543" arabic-form="medial" 
d="M454 875l-3 -47l-385 -252l11 50zM14 771q-14 0 -24.5 10t-10.5 25q0 14 10.5 24.5t24.5 10.5t24 -10.5t10 -24.5q0 -15 -10 -25t-24 -10zM152 771q-15 0 -25 10t-10 25q0 14 10 24.5t25 10.5q14 0 24.5 -10.5t10.5 -24.5q0 -15 -10.5 -25t-24.5 -10zM548 57l15 -27
l-20 -30q-84 0 -144.5 41.5t-146.5 159.5q1 -6 1 -16q0 -85 -65 -135t-188 -50l-20 29l25 28q102 0 152 36.5t50 101.5q0 63 -55 131l-98 121l12 52l391 256l-3 -60l-350 -226l164 -205q59 -74 88 -107.5t62.5 -60t60.5 -33t69 -6.5z" />
    <glyph glyph-name="uniFB9F" unicode="&#x6ba;" horiz-adv-x="715" arabic-form="final" 
d="M720 57l15 -28l-20 -29q-75 0 -113 44q-4 -156 -76 -223t-224 -67q-128 0 -188.5 61t-60.5 167q0 91 42 184l40 -13q-30 -78 -30 -164q0 -178 203 -178q132 0 187.5 56t55.5 185q0 85 -59 228l58 24q38 -132 40 -138q17 -60 46.5 -84.5t83.5 -24.5z" />
    <glyph glyph-name="uniFBA1" unicode="&#x6bb;" horiz-adv-x="715" arabic-form="final" 
d="M435 396q0 -31 -23.5 -55.5t-70.5 -24.5h-147l3 34h23q5 9 15 25v145h33v-98q45 54 92 54q33 0 54 -22.5t21 -57.5zM251 350h83q68 0 68 47q0 44 -45 44q-52 0 -106 -91zM720 57l15 -28l-20 -29q-75 0 -113 44q-4 -156 -76 -223t-224 -67q-128 0 -188.5 61t-60.5 167
q0 91 42 184l40 -13q-30 -78 -30 -164q0 -178 203 -178q132 0 187.5 56t55.5 185q0 85 -59 228l58 24q38 -132 40 -138q17 -60 46.5 -84.5t83.5 -24.5z" />
    <glyph glyph-name="uniFBA2" unicode="&#x6bb;" horiz-adv-x="269" arabic-form="initial" 
d="M165 626q33 0 54 -22.5t21 -57.5q0 -31 -23.5 -55.5t-70.5 -24.5h-147l3 34h23q5 9 15 25v145h33v-98q45 54 92 54zM139 500q68 0 68 47q0 44 -45 44q-52 0 -106 -91h83zM111 377l54 18q41 -120 41 -227q0 -95 -43 -131.5t-163 -36.5l-20 29l25 28q91 0 120 24.5t29 89.5
q0 83 -43 206z" />
    <glyph glyph-name="uniFBA3" unicode="&#x6bb;" horiz-adv-x="327" arabic-form="medial" 
d="M283 476q0 -31 -23.5 -55.5t-70.5 -24.5h-147l3 34h23q5 9 15 25v145h33v-98q45 54 92 54q33 0 54 -22.5t21 -57.5zM99 430h83q68 0 68 47q0 44 -45 44q-52 0 -106 -91zM332 57l15 -28l-20 -29q-124 0 -162 85q-35 -85 -165 -85l-20 29l26 28q78 0 104 28t26 91v145h54
v-145q0 -62 31.5 -90.5t110.5 -28.5z" />
    <glyph glyph-name="uniFBA5" unicode="&#x6c0;" horiz-adv-x="498" arabic-form="final" 
d="M266 562l-5 34l69 12q-49 35 -49 76q0 34 25 57t71 23q33 0 68 -18l-19 -32q-29 15 -52 15q-29 0 -42.5 -13.5t-13.5 -32.5q0 -34 51 -69l90 15l5 -34zM503 57l15 -29l-20 -28h-15q-113 0 -139 111q-26 -34 -68.5 -54t-89.5 -20q-73 0 -116 39t-43 101q0 85 81.5 143.5
t228.5 66.5v107l53 7v-319q0 -68 24.5 -96.5t73.5 -28.5h15zM194 91q91 0 143 68v176q-129 -5 -194 -47.5t-65 -105.5q0 -41 29 -66t87 -25z" />
    <glyph glyph-name="uniFBA7" unicode="&#x6c1;" horiz-adv-x="576" arabic-form="final" 
d="M82 -38l-55 11q79 294 231 294q37 0 65.5 -15.5t44.5 -39t35.5 -50.5t39 -50.5t55.5 -39t83 -15.5l15 -28l-20 -29q-47 0 -84.5 11.5t-61.5 30t-43 41t-33 45t-27.5 41t-30.5 30t-38 11.5q-104 0 -176 -248z" />
    <glyph glyph-name="uniFBA8" unicode="&#x6c1;" horiz-adv-x="269" arabic-form="initial" 
d="M5 57q91 0 120 24.5t29 89.5q0 83 -43 206l54 18q41 -120 41 -227q0 -95 -43 -131.5t-163 -36.5l-20 29zM109 -227q-39 0 -39 39q0 13 14 50l25 78h22l-14 -97q27 -6 27 -36q0 -14 -10 -24t-25 -10z" />
    <glyph glyph-name="uniFBA9" unicode="&#x6c1;" horiz-adv-x="560" arabic-form="medial" 
d="M566 57l14 -28l-20 -29h-26q-73 0 -115.5 -43.5t-42.5 -137.5q0 -48 10 -102l-48 -17q-149 159 -149 360q0 14 1 20q-54 -80 -163 -80h-27l-20 29l25 28h28q67 0 112.5 48t76.5 159l11 44l50 -13q-40 -152 -40 -226q0 -75 19 -140t70 -140q-2 32 -2 44q0 114 55.5 169
t155.5 55h25z" />
    <glyph glyph-name="uniFBAB" unicode="&#x6be;" horiz-adv-x="569" arabic-form="final" 
d="M589 29l-20 -29h-141q89 -44 89 -134q0 -55 -35.5 -90.5t-95.5 -35.5q-89 0 -150 73t-65 187q-84 3 -138 30l26 50q45 -20 112 -23q4 139 71 236.5t156 97.5q57 0 90.5 -36t33.5 -105q0 -53 -31 -108.5t-83 -84.5h166zM390 334q-65 0 -116 -78.5t-58 -198.5h65
q82 0 136 57.5t54 128.5q0 44 -21.5 67.5t-59.5 23.5zM468 -124q0 57 -47.5 90.5t-117.5 33.5h-87q6 -94 50.5 -148.5t114.5 -54.5q42 0 64.5 22.5t22.5 56.5z" />
    <glyph glyph-name="uniFBAC" unicode="&#x6be;" horiz-adv-x="631" arabic-form="initial" 
d="M132 527q248 -141 341.5 -217.5t93.5 -154.5q0 -69 -50 -118.5t-116 -49.5q-97 0 -184 49q-81 -36 -194 -36h-23l-20 29l25 28h14q80 0 143 17q-98 83 -98 189q0 62 34.5 108.5t89.5 58.5q-75 42 -85 47zM107 261q0 -48 31 -91t83 -74q115 55 115 163q0 56 -32.5 94
t-81.5 38q-50 0 -82.5 -37t-32.5 -93zM401 44q49 0 84.5 28t35.5 72q0 73 -153 177q10 -27 10 -59q0 -120 -103 -193q63 -25 126 -25z" />
    <glyph glyph-name="uniFBAD" unicode="&#x6be;" horiz-adv-x="484" arabic-form="medial" 
d="M504 29l-20 -29h-141q89 -44 89 -134q0 -55 -35 -90.5t-95 -35.5q-90 0 -151 73t-65 187h-86l-20 29l25 28h81q4 139 71 236.5t156 97.5q57 0 90.5 -36t33.5 -105q0 -53 -31 -108.5t-83 -84.5h167zM305 334q-65 0 -116 -79t-58 -198h65q82 0 136 57.5t54 128.5
q0 44 -21.5 67.5t-59.5 23.5zM383 -124q0 57 -47.5 90.5t-116.5 33.5h-88q6 -94 50.5 -148.5t114.5 -54.5q43 0 65 22.5t22 56.5z" />
    <glyph glyph-name="uniFBAF" unicode="&#x6d2;" horiz-adv-x="748" arabic-form="final" 
d="M713 -255h-507q-84 0 -126 29.5t-42 79.5q0 79 81.5 141.5t241.5 62.5h392l15 -29l-20 -29h-399q-132 0 -197 -42.5t-65 -96.5q0 -59 107 -59h537z" />
    <glyph glyph-name="uniFBB1" unicode="&#x6d3;" horiz-adv-x="748" arabic-form="final" 
d="M333 243l5 -34l-198 -33l-5 34l68 12q-48 37 -48 76q0 34 25 57t71 23q33 0 68 -18l-19 -32q-29 15 -52 15q-29 0 -42.5 -13.5t-13.5 -32.5q0 -34 51 -69zM713 -255h-507q-84 0 -126 29.5t-42 79.5q0 79 81.5 141.5t241.5 62.5h392l15 -29l-20 -29h-399
q-132 0 -197 -42.5t-65 -96.5q0 -59 107 -59h537z" />
    <glyph glyph-name="uniFBD4" unicode="&#x6ad;" horiz-adv-x="832" arabic-form="final" 
d="M705 925q-14 0 -24 10t-10 24t10 24t24 10t24 -10t10 -24t-10 -24t-24 -10zM633 819q-15 0 -25 10t-10 24t10 23.5t25 9.5q14 0 24 -10t10 -23q0 -14 -10 -24t-24 -10zM777 819q-14 0 -24 10t-10 24q0 13 10 23t24 10q15 0 25 -9.5t10 -23.5t-10 -24t-25 -10zM838 57
l14 -27l-20 -30q-86 0 -133 81q-133 -94 -367 -94q-147 0 -213 46t-66 143q0 76 36 153l41 -14q-26 -66 -26 -132q0 -73 54 -106t179 -33q215 0 342 89v612l53 6v-587q0 -107 106 -107zM297 314q152 0 152 46q0 19 -26 33t-95 28l8 41l159 93l-2 -43l-116 -66
q60 -16 85.5 -36t25.5 -50q0 -84 -185 -84z" />
    <glyph glyph-name="uniFBD5" unicode="&#x6ad;" horiz-adv-x="459" arabic-form="initial" 
d="M48 789q-14 0 -24 10t-10 24t10 24t24 10t24 -10t10 -24t-10 -24t-24 -10zM406 755l-4 -60l-341 -220q156 -67 217.5 -128t61.5 -136q0 -104 -89 -157.5t-251 -53.5l-20 29l25 28q284 0 284 159q0 56 -62.5 110t-223.5 120l12 54zM10 717q0 -14 -10 -24t-24 -10
q-15 0 -25 10t-10 24t10 23.5t25 9.5q14 0 24 -10t10 -23zM120 683q-14 0 -24 10t-10 24q0 13 10 23t24 10q15 0 25 -9.5t10 -23.5t-10 -24t-25 -10z" />
    <glyph glyph-name="uniFBD6" unicode="&#x6ad;" horiz-adv-x="543" arabic-form="medial" 
d="M93 789q-14 0 -24 10t-10 24t10 24t24 10t24 -10t10 -24t-10 -24t-24 -10zM548 57l15 -27l-20 -30q-84 0 -144.5 41.5t-146.5 159.5q1 -6 1 -16q0 -85 -65 -135t-188 -50l-20 29l25 28q102 0 152 36.5t50 101.5q0 63 -55 131l-98 121l12 52l391 256l-3 -60l-350 -226
l164 -205q59 -74 88 -107.5t62.5 -60t60.5 -33t69 -6.5zM21 683q-15 0 -25 10t-10 24t10 23.5t25 9.5q14 0 24 -10t10 -23q0 -14 -10 -24t-24 -10zM165 683q-14 0 -24 10t-10 24q0 13 10 23t24 10q15 0 25 -9.5t10 -23.5t-10 -24t-25 -10z" />
    <glyph glyph-name="uniFBD8" unicode="&#x6c7;" horiz-adv-x="527" arabic-form="final" 
d="M181 405l-15 31q51 19 87 44q-71 27 -71 82q0 36 23.5 57.5t55.5 21.5q37 0 56.5 -23t19.5 -57q0 -44 -42 -86.5t-114 -69.5zM217 561q0 -38 63 -57q24 27 24 54q0 19 -11.5 32.5t-32.5 13.5q-19 0 -31 -11.5t-12 -31.5zM547 29l-20 -29h-108q-23 -102 -106.5 -165.5
t-242.5 -92.5l-17 56q141 26 216 75.5t99 126.5h-84q-102 0 -157 48.5t-55 126.5q0 76 51 132t124 56q81 0 131.5 -70.5t50.5 -194.5q0 -15 -2 -41h105zM120 178q0 -121 171 -121h88q1 11 1 34q0 106 -35.5 160.5t-98.5 54.5q-54 0 -90 -37.5t-36 -90.5z" />
    <glyph glyph-name="uniFBDA" unicode="&#x6c6;" horiz-adv-x="527" arabic-form="final" 
d="M267 412h-33l-77 139l30 13l64 -109l64 109l30 -13zM547 29l-20 -29h-108q-23 -102 -106.5 -165.5t-242.5 -92.5l-17 56q141 26 216 75.5t99 126.5h-84q-102 0 -157 48.5t-55 126.5q0 76 51 132t124 56q81 0 131.5 -70.5t50.5 -194.5q0 -15 -2 -41h105zM120 178
q0 -121 171 -121h88q1 11 1 34q0 106 -35.5 160.5t-98.5 54.5q-54 0 -90 -37.5t-36 -90.5z" />
    <glyph glyph-name="uniFBDC" unicode="&#x6c8;" horiz-adv-x="527" arabic-form="final" 
d="M270 591v-168h-39v164zM547 29l-20 -29h-108q-23 -102 -106.5 -165.5t-242.5 -92.5l-17 56q141 26 216 75.5t99 126.5h-84q-102 0 -157 48.5t-55 126.5q0 76 51 132t124 56q81 0 131.5 -70.5t50.5 -194.5q0 -15 -2 -41h105zM120 178q0 -121 171 -121h88q1 11 1 34
q0 106 -35.5 160.5t-98.5 54.5q-54 0 -90 -37.5t-36 -90.5z" />
    <glyph glyph-name="uniFBDF" unicode="&#x6cb;" horiz-adv-x="527" arabic-form="final" 
d="M251 535q-14 0 -24 10t-10 24t10 24t24 10t24 -10t10 -24t-10 -24t-24 -10zM179 429q-15 0 -25 10t-10 24t10 23.5t25 9.5q14 0 24 -10t10 -23q0 -14 -10 -24t-24 -10zM323 429q-14 0 -24 10t-10 24q0 13 10 23t24 10q15 0 25 -9.5t10 -23.5t-10 -24t-25 -10zM547 29
l-20 -29h-108q-23 -102 -106.5 -165.5t-242.5 -92.5l-17 56q141 26 216 75.5t99 126.5h-84q-102 0 -157 48.5t-55 126.5q0 76 51 132t124 56q81 0 131.5 -70.5t50.5 -194.5q0 -15 -2 -41h105zM120 178q0 -121 171 -121h88q1 11 1 34q0 106 -35.5 160.5t-98.5 54.5
q-54 0 -90 -37.5t-36 -90.5z" />
    <glyph glyph-name="uniFBE1" unicode="&#x6c5;" horiz-adv-x="527" arabic-form="final" 
d="M547 29l-20 -29h-108q-23 -102 -106.5 -165.5t-242.5 -92.5l-17 56q142 26 218 77l-184 4l-21 40l248 -10q37 38 54 91h-84q-102 0 -157 48.5t-55 126.5q0 76 51 132t124 56q81 0 131.5 -70.5t50.5 -194.5q0 -15 -2 -41h105zM120 178q0 -121 171 -121h88q1 11 1 34
q0 106 -35.5 160.5t-98.5 54.5q-54 0 -90 -37.5t-36 -90.5z" />
    <glyph glyph-name="uniFBE3" unicode="&#x6c9;" horiz-adv-x="527" arabic-form="final" 
d="M251 537l-64 -109l-30 13l77 140h33l78 -140l-30 -13zM547 29l-20 -29h-108q-23 -102 -106.5 -165.5t-242.5 -92.5l-17 56q141 26 216 75.5t99 126.5h-84q-102 0 -157 48.5t-55 126.5q0 76 51 132t124 56q81 0 131.5 -70.5t50.5 -194.5q0 -15 -2 -41h105zM120 178
q0 -121 171 -121h88q1 11 1 34q0 106 -35.5 160.5t-98.5 54.5q-54 0 -90 -37.5t-36 -90.5z" />
    <glyph glyph-name="uniFBE5" unicode="&#x6d0;" horiz-adv-x="722" arabic-form="final" 
d="M742 29l-20 -29q-49 0 -97 21q11 -19 11 -40q0 -75 -87 -129t-247 -54q-128 0 -188.5 61t-60.5 167q0 93 42 184l40 -13q-30 -78 -30 -164q0 -178 203 -178q131 0 205 41t74 90q0 28 -35.5 49t-142.5 54l24 50q40 -13 90 -31.5t75.5 -27.5t60 -16t68.5 -7zM308 -282
q14 0 24 -10t10 -25q0 -14 -10 -24t-24 -10t-24.5 10t-10.5 24q0 15 10.5 25t24.5 10zM308 -417q14 0 24 -10t10 -24q0 -15 -10 -25t-24 -10t-24.5 10t-10.5 25q0 14 10.5 24t24.5 10z" />
    <glyph glyph-name="uniFBE6" unicode="&#x6d0;" horiz-adv-x="269" arabic-form="initial" 
d="M5 57q91 0 120 24.5t29 89.5q0 83 -43 206l54 18q41 -120 41 -227q0 -95 -43 -131.5t-163 -36.5l-20 29zM124 -161q-14 0 -24.5 10t-10.5 24q0 15 10.5 25t24.5 10t24 -10t10 -25q0 -14 -10 -24t-24 -10zM124 -296q-14 0 -24.5 10t-10.5 25q0 14 10.5 24t24.5 10t24 -10
t10 -24q0 -15 -10 -25t-24 -10z" />
    <glyph glyph-name="uniFBE7" unicode="&#x6d0;" horiz-adv-x="327" arabic-form="medial" 
d="M332 57l15 -28l-20 -29q-124 0 -162 85q-35 -85 -165 -85l-20 29l26 28q78 0 104 28t26 91v145h54v-145q0 -62 31.5 -90.5t110.5 -28.5zM164 -92q14 0 24 -10t10 -25q0 -14 -10 -24t-24 -10t-24.5 10t-10.5 24q0 15 10.5 25t24.5 10zM164 -227q14 0 24 -10t10 -24
q0 -15 -10 -25t-24 -10t-24.5 10t-10.5 25q0 14 10.5 24t24.5 10z" />
    <glyph glyph-name="uniFBE8" unicode="&#x649;" horiz-adv-x="269" arabic-form="initial" 
d="M5 57q91 0 120 24.5t29 89.5q0 83 -43 206l54 18q41 -120 41 -227q0 -95 -43 -131.5t-163 -36.5l-20 29z" />
    <glyph glyph-name="uniFBE9" unicode="&#x649;" horiz-adv-x="327" arabic-form="medial" 
d="M332 57l15 -28l-20 -29q-124 0 -162 85q-35 -85 -165 -85l-20 29l26 28q78 0 104 28t26 91v145h54v-145q0 -62 31.5 -90.5t110.5 -28.5z" />
    <glyph glyph-name="uniFBFD" unicode="&#x6cc;" horiz-adv-x="722" arabic-form="final" 
d="M742 29l-20 -29q-49 0 -97 21q11 -19 11 -40q0 -75 -87 -129t-247 -54q-128 0 -188.5 61t-60.5 167q0 93 42 184l40 -13q-30 -78 -30 -164q0 -178 203 -178q131 0 205 41t74 90q0 28 -35.5 49t-142.5 54l24 50q40 -13 90 -31.5t75.5 -27.5t60 -16t68.5 -7z" />
    <glyph glyph-name="uniFBFE" unicode="&#x6cc;" horiz-adv-x="269" arabic-form="initial" 
d="M5 57q91 0 120 24.5t29 89.5q0 83 -43 206l54 18q41 -120 41 -227q0 -95 -43 -131.5t-163 -36.5l-20 29zM54 -176q-14 0 -24.5 10t-10.5 24t10.5 24.5t24.5 10.5t24 -10.5t10 -24.5t-10 -24t-24 -10zM192 -176q-15 0 -25 10t-10 24t10 24.5t25 10.5q14 0 24.5 -10.5
t10.5 -24.5t-10.5 -24t-24.5 -10z" />
    <glyph glyph-name="uniFBFF" unicode="&#x6cc;" horiz-adv-x="327" arabic-form="medial" 
d="M332 57l15 -28l-20 -29q-124 0 -162 85q-35 -85 -165 -85l-20 29l26 28q78 0 104 28t26 91v145h54v-145q0 -62 31.5 -90.5t110.5 -28.5zM94 -107q14 0 24 -10.5t10 -24.5t-10 -24t-24 -10t-24.5 10t-10.5 24t10.5 24.5t24.5 10.5zM232 -107q14 0 24.5 -10.5t10.5 -24.5
t-10.5 -24t-24.5 -10q-15 0 -25 10t-10 24t10 24.5t25 10.5z" />
    <glyph glyph-name="uniFC5B" unicode="&#xfc5b;" horiz-adv-x="463" arabic-form="isolated" 
d="M140 887l39 4v-168h-39v164zM160 576q-16 0 -26.5 10.5t-10.5 26.5q0 15 10.5 26t26.5 11t26.5 -11t10.5 -26q0 -16 -10.5 -26.5t-26.5 -10.5zM187 -13q-93 0 -160 21l17 56q69 -19 143 -19q69 0 121.5 25.5t52.5 72.5q0 130 -189 321l42 38q196 -198 196 -359
q0 -43 -21.5 -75t-56.5 -48.5t-71.5 -24.5t-73.5 -8z" />
    <glyph glyph-name="uniFC5C" unicode="&#xfc5c;" horiz-adv-x="346" arabic-form="isolated" 
d="M171 583l39 4v-168h-39v164zM-3 -247l-24 57q262 79 262 264q0 93 -57 236l58 20q47 -139 47 -252q0 -235 -286 -325z" />
    <glyph glyph-name="uniFC61" unicode="&#xfc61;" arabic-form="isolated" 
d="M64 773l-15 32q55 20 87 44q-71 25 -71 81q0 36 23.5 57.5t55.5 21.5q37 0 56.5 -23t19.5 -57q0 -43 -42 -86t-114 -70zM100 929q0 -37 63 -56q24 27 24 54q0 19 -11.5 32.5t-32.5 13.5q-19 0 -31 -11.5t-12 -32.5zM235 765q18 -42 18 -83q0 -36 -18 -55t-48 -19
q-38 0 -53 30q-18 -34 -56 -34q-25 0 -44.5 19t-19.5 55q0 31 12 62l31 -7q-7 -23 -7 -48q0 -42 31 -42q17 0 27 13t10 34v41h32v-43q0 -19 9 -31t24 -12q34 0 34 47q0 29 -14 62z" />
    <glyph glyph-name="uniFC63" unicode="&#xfc63;" arabic-form="isolated" 
d="M152 959v-167h-39v163zM235 765q18 -42 18 -83q0 -36 -18 -55t-48 -19q-38 0 -53 30q-18 -34 -56 -34q-25 0 -44.5 19t-19.5 55q0 31 12 62l31 -7q-7 -23 -7 -48q0 -42 31 -42q17 0 27 13t10 34v41h32v-43q0 -19 9 -31t24 -12q34 0 34 47q0 29 -14 62z" />
    <glyph glyph-name="uniFD3C" unicode="&#xfd3c;" horiz-adv-x="229" arabic-form="final" 
d="M-2 818l2 37l212 41l-2 -37zM-2 739l2 37l212 41l-2 -37zM79 169v516l53 6v-518q0 -64 23.5 -90t79.5 -26l14 -28l-20 -29q-150 0 -150 169z" />
    <glyph glyph-name="uniFD3D" unicode="&#xfd3d;" horiz-adv-x="215" arabic-form="isolated" 
d="M-1 760l2 37l212 41l-2 -37zM-1 681l2 37l212 41l-2 -37zM134 0h-53v625l53 7v-632z" />
    <glyph glyph-name="uniFE70" unicode="&#xfe70;" horiz-adv-x="600" arabic-form="isolated" 
d="M36 656l2 37l212 41l-2 -37zM36 577l2 37l212 41l-2 -37z" />
    <glyph glyph-name="uniFE72" unicode="&#xfe72;" horiz-adv-x="600" arabic-form="isolated" 
d="M242 810q36 0 55 -23t19 -55q0 -42 -39 -84.5t-103 -71.5l-33 14q0 65 -27 65q-18 0 -44 -28l-20 23q35 40 64 40q54 0 58 -77q36 17 62 39q-70 26 -70 81q0 35 23 56t55 21zM259 676q24 27 24 53q0 17 -11 30.5t-31 13.5q-18 0 -30.5 -12t-12.5 -30q0 -37 61 -55z" />
    <glyph glyph-name="uniFE74" unicode="&#xfe74;" horiz-adv-x="600" arabic-form="isolated" 
d="M36 -130l2 37l212 41l-2 -37zM37 -206l1 37l212 41l-1 -37z" />
    <glyph glyph-name="uniFE76" unicode="&#xfe76;" horiz-adv-x="600" arabic-form="isolated" 
d="M36 594l2 37l212 41l-2 -37z" />
    <glyph glyph-name="uniFE78" unicode="&#xfe78;" horiz-adv-x="600" arabic-form="isolated" 
d="M112 811q37 0 56.5 -23t19.5 -57q0 -44 -42 -86.5t-114 -69.5l-15 31q51 19 87 44q-71 27 -71 82q0 36 23.5 57.5t55.5 21.5zM131 674q24 27 24 54q0 19 -11.5 32.5t-32.5 13.5q-19 0 -31 -11.5t-12 -31.5q0 -38 63 -57z" />
    <glyph glyph-name="uniFE7C" unicode="&#xfe7c;" horiz-adv-x="600" arabic-form="isolated" 
d="M235 765q18 -42 18 -83q0 -36 -18 -55t-48 -19q-38 0 -53 30q-18 -34 -56 -34q-25 0 -44.5 19t-19.5 55q0 31 12 62l31 -7q-7 -23 -7 -48q0 -42 31 -42q17 0 27 13t10 34v41h32v-43q0 -19 9 -31t24 -12q34 0 34 47q0 29 -14 62z" />
    <glyph glyph-name="uniFE7E" unicode="&#xfe7e;" horiz-adv-x="600" arabic-form="isolated" 
d="M194 673q0 -41 -27 -66.5t-67 -25.5t-67 25.5t-27 66.5t27 66.5t67 25.5t67 -25.5t27 -66.5zM159 673q0 25 -16 41t-43 16t-43 -16t-16 -41t16 -41t43 -16t43 16t16 41z" />
    <glyph glyph-name="uniFE82" unicode="&#x622;" horiz-adv-x="229" arabic-form="final" 
d="M28 760l-32 10q11 32 31.5 52.5t45.5 20.5q22 0 48 -15t44 -15q17 0 45 19l16 -27q-37 -30 -68 -30q-19 0 -44.5 14.5t-40.5 14.5q-26 0 -45 -44zM79 169v516l53 6v-518q0 -64 23.5 -90t79.5 -26l14 -28l-20 -29q-150 0 -150 169z" />
    <glyph glyph-name="uniFE84" unicode="&#x623;" horiz-adv-x="229" arabic-form="final" 
d="M202 815l5 -34l-198 -33l-5 34l69 12q-49 35 -49 76q0 34 25 57t71 23q34 0 68 -18l-19 -32q-29 15 -52 15q-29 0 -42.5 -13.5t-13.5 -32.5q0 -34 51 -69zM235 57l14 -28l-20 -29q-150 0 -150 169v516l53 6v-518q0 -64 23.5 -90t79.5 -26z" />
    <glyph glyph-name="uniFE86" unicode="&#x624;" horiz-adv-x="527" arabic-form="final" 
d="M154 418l-5 34l69 12q-49 35 -49 76q0 34 25 57t71 23q33 0 68 -18l-19 -32q-29 15 -52 15q-29 0 -42.5 -13.5t-13.5 -32.5q0 -34 51 -69l90 15l5 -34zM547 29l-20 -29h-108q-23 -102 -106.5 -165.5t-242.5 -92.5l-17 56q141 26 216 75.5t99 126.5h-84q-102 0 -157 48.5
t-55 126.5q0 76 51 132t124 56q81 0 131.5 -70.5t50.5 -194.5q0 -15 -2 -41h105zM120 178q0 -121 171 -121h88q1 11 1 34q0 106 -35.5 160.5t-98.5 54.5q-54 0 -90 -37.5t-36 -90.5z" />
    <glyph glyph-name="uniFE88" unicode="&#x625;" horiz-adv-x="223" arabic-form="final" 
d="M223 0q-74 0 -109 41.5t-35 127.5v574l53 7v-577q0 -65 20.5 -90.5t75.5 -25.5l15 -28zM132 -200l90 15l5 -35l-198 -32l-5 34l68 11q-48 37 -48 76q0 35 24.5 58t71.5 23q34 0 68 -19l-19 -32q-29 15 -52 15q-29 0 -42.5 -13t-13.5 -32q0 -34 51 -69z" />
    <glyph glyph-name="uniFE8A" unicode="&#x626;" horiz-adv-x="722" arabic-form="final" 
d="M237 367l5 -34l-198 -33l-5 34l69 12q-49 35 -49 76q0 34 25 57t71 23q33 0 68 -18l-19 -32q-29 15 -52 15q-29 0 -42.5 -13.5t-13.5 -32.5q0 -34 51 -69zM742 29l-20 -29q-49 0 -97 21q11 -19 11 -40q0 -75 -87 -129t-247 -54q-128 0 -188.5 61t-60.5 167q0 93 42 184
l40 -13q-30 -78 -30 -164q0 -178 203 -178q131 0 205 41t74 90q0 28 -35.5 49t-142.5 54l24 50q40 -13 90 -31.5t75.5 -27.5t60 -16t68.5 -7z" />
    <glyph glyph-name="uniFE8B" unicode="&#x626;" horiz-adv-x="269" arabic-form="initial" 
d="M23 456l-5 34l69 12q-49 35 -49 76q0 34 25 57t71 23q34 0 68 -18l-19 -32q-29 15 -52 15q-29 0 -42.5 -13.5t-13.5 -32.5q0 -34 51 -69l90 15l5 -34zM111 377l54 18q41 -120 41 -227q0 -95 -43 -131.5t-163 -36.5l-20 29l25 28q91 0 120 24.5t29 89.5q0 83 -43 206z" />
    <glyph glyph-name="uniFE8C" unicode="&#x626;" horiz-adv-x="327" arabic-form="medial" 
d="M66 386l-5 34l69 12q-49 35 -49 76q0 34 25 57t71 23q33 0 68 -18l-19 -32q-29 15 -52 15q-29 0 -42.5 -13.5t-13.5 -32.5q0 -34 51 -69l90 15l5 -34zM332 57l15 -28l-20 -29q-124 0 -162 85q-35 -85 -165 -85l-20 29l26 28q78 0 104 28t26 91v145h54v-145
q0 -62 31.5 -90.5t110.5 -28.5z" />
    <glyph glyph-name="uniFE8E" unicode="&#x627;" horiz-adv-x="223" arabic-form="final" 
d="M79 169v574l53 7v-577q0 -65 20.5 -90.5t75.5 -25.5l15 -28l-20 -29q-74 0 -109 41.5t-35 127.5z" />
    <glyph glyph-name="uniFE90" unicode="&#x628;" horiz-adv-x="917" arabic-form="final" 
d="M922 57l15 -27l-20 -30q-114 0 -167 82q-155 -95 -418 -95q-147 0 -213 46t-66 143q0 76 36 153l41 -14q-26 -66 -26 -132q0 -73 54 -106t179 -33q257 0 392 88v189h52v-147q0 -56 30 -86.5t111 -30.5zM363 -107q16 0 26.5 -11t10.5 -26q0 -16 -10.5 -26.5t-26.5 -10.5
t-26.5 10.5t-10.5 26.5q0 15 10.5 26t26.5 11z" />
    <glyph glyph-name="uniFE91" unicode="&#x628;" horiz-adv-x="269" arabic-form="initial" 
d="M5 57q91 0 120 24.5t29 89.5q0 83 -43 206l54 18q41 -120 41 -227q0 -95 -43 -131.5t-163 -36.5l-20 29zM123 -181q-16 0 -26.5 10.5t-10.5 26.5q0 15 10.5 26t26.5 11t26.5 -11t10.5 -26q0 -16 -10.5 -26.5t-26.5 -10.5z" />
    <glyph glyph-name="uniFE92" unicode="&#x628;" horiz-adv-x="327" arabic-form="medial" 
d="M332 57l15 -28l-20 -29q-124 0 -162 85q-35 -85 -165 -85l-20 29l26 28q78 0 104 28t26 91v145h54v-145q0 -62 31.5 -90.5t110.5 -28.5zM163 -107q16 0 26.5 -11t10.5 -26q0 -16 -10.5 -26.5t-26.5 -10.5t-26.5 10.5t-10.5 26.5q0 15 10.5 26t26.5 11z" />
    <glyph glyph-name="uniFE94" unicode="&#x629;" horiz-adv-x="498" arabic-form="final" 
d="M294 603q-14 0 -24.5 10t-10.5 25q0 14 10.5 24.5t24.5 10.5t24 -10.5t10 -24.5q0 -15 -10 -25t-24 -10zM432 603q-15 0 -25 10t-10 25q0 14 10 24.5t25 10.5q14 0 24.5 -10.5t10.5 -24.5q0 -15 -10.5 -25t-24.5 -10zM503 57l15 -29l-20 -28h-15q-113 0 -139 111
q-26 -34 -68.5 -54t-89.5 -20q-73 0 -116 39t-43 101q0 85 81.5 143.5t228.5 66.5v107l53 7v-319q0 -68 24.5 -96.5t73.5 -28.5h15zM194 91q91 0 143 68v176q-129 -5 -194 -47.5t-65 -105.5q0 -41 29 -66t87 -25z" />
    <glyph glyph-name="uniFE96" unicode="&#x62a;" horiz-adv-x="917" arabic-form="final" 
d="M357 401q-14 0 -24.5 10t-10.5 25q0 14 10.5 24.5t24.5 10.5t24 -10.5t10 -24.5q0 -15 -10 -25t-24 -10zM495 401q-15 0 -25 10t-10 25q0 14 10 24.5t25 10.5q14 0 24.5 -10.5t10.5 -24.5q0 -15 -10.5 -25t-24.5 -10zM922 57l15 -27l-20 -30q-114 0 -167 82
q-155 -95 -418 -95q-147 0 -213 46t-66 143q0 76 36 153l41 -14q-26 -66 -26 -132q0 -73 54 -106t179 -33q257 0 392 88v189h52v-147q0 -56 30 -86.5t111 -30.5z" />
    <glyph glyph-name="uniFE97" unicode="&#x62a;" horiz-adv-x="269" arabic-form="initial" 
d="M51 497q-14 0 -24.5 10t-10.5 25q0 14 10.5 24.5t24.5 10.5t24 -10.5t10 -24.5q0 -15 -10 -25t-24 -10zM189 497q-15 0 -25 10t-10 25q0 14 10 24.5t25 10.5q14 0 24.5 -10.5t10.5 -24.5q0 -15 -10.5 -25t-24.5 -10zM5 57q91 0 120 24.5t29 89.5q0 83 -43 206l54 18
q41 -120 41 -227q0 -95 -43 -131.5t-163 -36.5l-20 29z" />
    <glyph glyph-name="uniFE98" unicode="&#x62a;" horiz-adv-x="327" arabic-form="medial" 
d="M94 427q-14 0 -24.5 10t-10.5 25q0 14 10.5 24.5t24.5 10.5t24 -10.5t10 -24.5q0 -15 -10 -25t-24 -10zM232 427q-15 0 -25 10t-10 25q0 14 10 24.5t25 10.5q14 0 24.5 -10.5t10.5 -24.5q0 -15 -10.5 -25t-24.5 -10zM332 57l15 -28l-20 -29q-124 0 -162 85
q-35 -85 -165 -85l-20 29l26 28q78 0 104 28t26 91v145h54v-145q0 -62 31.5 -90.5t110.5 -28.5z" />
    <glyph glyph-name="uniFE9A" unicode="&#x62b;" horiz-adv-x="917" arabic-form="final" 
d="M426 477q-14 0 -24 10t-10 24t10 24t24 10t24 -10t10 -24t-10 -24t-24 -10zM354 371q-15 0 -25 10t-10 24t10 23.5t25 9.5q14 0 24 -10t10 -23q0 -14 -10 -24t-24 -10zM498 371q-14 0 -24 10t-10 24q0 13 10 23t24 10q15 0 25 -9.5t10 -23.5t-10 -24t-25 -10zM922 57
l15 -27l-20 -30q-114 0 -167 82q-155 -95 -418 -95q-147 0 -213 46t-66 143q0 76 36 153l41 -14q-26 -66 -26 -132q0 -73 54 -106t179 -33q257 0 392 88v189h52v-147q0 -56 30 -86.5t111 -30.5z" />
    <glyph glyph-name="uniFE9B" unicode="&#x62b;" horiz-adv-x="269" arabic-form="initial" 
d="M120 573q-14 0 -24 10t-10 24t10 24t24 10t24 -10t10 -24t-10 -24t-24 -10zM48 467q-15 0 -25 10t-10 24t10 23.5t25 9.5q14 0 24 -10t10 -23q0 -14 -10 -24t-24 -10zM192 467q-14 0 -24 10t-10 24q0 13 10 23t24 10q15 0 25 -9.5t10 -23.5t-10 -24t-25 -10zM5 57
q91 0 120 24.5t29 89.5q0 83 -43 206l54 18q41 -120 41 -227q0 -95 -43 -131.5t-163 -36.5l-20 29z" />
    <glyph glyph-name="uniFE9C" unicode="&#x62b;" horiz-adv-x="327" arabic-form="medial" 
d="M163 503q-14 0 -24 10t-10 24t10 24t24 10t24 -10t10 -24t-10 -24t-24 -10zM91 397q-15 0 -25 10t-10 24t10 23.5t25 9.5q14 0 24 -10t10 -23q0 -14 -10 -24t-24 -10zM235 397q-14 0 -24 10t-10 24q0 13 10 23t24 10q15 0 25 -9.5t10 -23.5t-10 -24t-25 -10zM332 57
l15 -28l-20 -29q-124 0 -162 85q-35 -85 -165 -85l-20 29l26 28q78 0 104 28t26 91v145h54v-145q0 -62 31.5 -90.5t110.5 -28.5z" />
    <glyph glyph-name="uniFE9E" unicode="&#x62c;" horiz-adv-x="681" arabic-form="final" 
d="M681 0q-99 0 -155 47.5t-68 150.5q-171 -19 -258.5 -92t-87.5 -184q0 -100 71.5 -159t207.5 -59q125 0 215 46l22 -50q-92 -54 -243 -54q-159 0 -240 73.5t-81 194.5q0 143 109.5 231.5t316.5 102.5q-51 21 -99 57t-84.5 57t-83.5 21q-66 0 -125 -36l-27 50q72 43 156 43
q44 0 80.5 -15t65.5 -39t58 -49t72 -48t94 -34l-6 -49l-59 -2q-11 0 -31 -2q17 -85 59 -115t126 -30l15 -28zM323 -69q0 15 10.5 26t26.5 11t26.5 -11t10.5 -26q0 -16 -10.5 -26.5t-26.5 -10.5t-26.5 10.5t-10.5 26.5z" />
    <glyph glyph-name="uniFE9F" unicode="&#x62c;" horiz-adv-x="695" arabic-form="initial" 
d="M224 440q56 0 98.5 -17t73 -44t60.5 -56t80.5 -59.5t114.5 -47.5l-9 -50l-65 -5q-83 -4 -164.5 -30t-136.5 -55t-129.5 -52.5t-146.5 -23.5l-20 29l25 29q65 0 133.5 21t120.5 47.5t130 51.5t159 31q-46 17 -84.5 42t-62.5 47t-49 42t-57 31.5t-73 11.5q-59 0 -118 -36
l-27 50q72 43 147 43zM298 -107q16 0 26.5 -11t10.5 -26q0 -16 -10.5 -26.5t-26.5 -10.5t-26.5 10.5t-10.5 26.5q0 15 10.5 26t26.5 11z" />
    <glyph glyph-name="uniFEA0" unicode="&#x62c;" horiz-adv-x="727" arabic-form="medial" 
d="M733 57l14 -28l-20 -29q-205 0 -234 187q-54 -13 -121 -46.5t-118 -63.5t-120 -53.5t-134 -23.5l-20 29l25 28q65 0 134.5 25t122 56t127.5 62t146 40q-54 18 -100 45t-70.5 47.5t-61.5 35.5t-81 15q-58 0 -120 -34l-27 49q75 42 148 42q52 0 91 -13.5t68.5 -35.5
t60 -46.5t82 -51t117.5 -43.5l-7 -50l-65 -2q-18 0 -34 -3q16 -80 63 -109t134 -29zM384 -57q16 0 26.5 -11t10.5 -26q0 -16 -10.5 -26.5t-26.5 -10.5t-26.5 10.5t-10.5 26.5q0 15 10.5 26t26.5 11z" />
    <glyph glyph-name="uniFEA2" unicode="&#x62d;" horiz-adv-x="681" arabic-form="final" 
d="M458 198q-171 -19 -258.5 -92t-87.5 -184q0 -100 71.5 -159t207.5 -59q125 0 215 46l22 -50q-92 -54 -243 -54q-159 0 -240 73.5t-81 194.5q0 143 109.5 231.5t316.5 102.5q-51 21 -99 57t-84.5 57t-83.5 21q-66 0 -125 -36l-27 50q72 43 156 43q44 0 80.5 -15t65.5 -39
t58 -49t72 -48t94 -34l-6 -49l-59 -2q-11 0 -31 -2q17 -85 59 -115t126 -30l15 -28l-20 -29q-99 0 -155 47.5t-68 150.5z" />
    <glyph glyph-name="uniFEA3" unicode="&#x62d;" horiz-adv-x="695" arabic-form="initial" 
d="M224 440q56 0 98.5 -17t73 -44t60.5 -56t80.5 -59.5t114.5 -47.5l-9 -50l-65 -5q-83 -4 -164.5 -30t-136.5 -55t-129.5 -52.5t-146.5 -23.5l-20 29l25 29q65 0 133.5 21t120.5 47.5t130 51.5t159 31q-46 17 -84.5 42t-62.5 47t-49 42t-57 31.5t-73 11.5q-59 0 -118 -36
l-27 50q72 43 147 43z" />
    <glyph glyph-name="uniFEA4" unicode="&#x62d;" horiz-adv-x="727" arabic-form="medial" 
d="M732 57l15 -28l-20 -29q-206 0 -234 187q-54 -14 -121 -47t-118 -63t-120 -53.5t-134 -23.5l-20 29l25 28q65 0 134.5 25t122 56t127.5 62t146 40q-54 18 -100 45t-70.5 47.5t-61.5 35.5t-81 15q-58 0 -120 -34l-27 49q75 42 148 42q52 0 91 -13.5t68.5 -35.5t60 -46.5
t82 -51t117.5 -43.5l-7 -50l-65 -2q-18 0 -34 -3q16 -80 63 -109t133 -29z" />
    <glyph glyph-name="uniFEA6" unicode="&#x62e;" horiz-adv-x="681" arabic-form="final" 
d="M225 505q-16 0 -26.5 10.5t-10.5 26.5q0 15 10.5 26t26.5 11t26.5 -11t10.5 -26q0 -16 -10.5 -26.5t-26.5 -10.5zM458 198q-171 -19 -258.5 -92t-87.5 -184q0 -100 71.5 -159t207.5 -59q125 0 215 46l22 -50q-92 -54 -243 -54q-159 0 -240 73.5t-81 194.5
q0 143 109.5 231.5t316.5 102.5q-51 21 -99 57t-84.5 57t-83.5 21q-66 0 -125 -36l-27 50q72 43 156 43q44 0 80.5 -15t65.5 -39t58 -49t72 -48t94 -34l-6 -49l-59 -2q-11 0 -31 -2q17 -85 59 -115t126 -30l15 -28l-20 -29q-99 0 -155 47.5t-68 150.5z" />
    <glyph glyph-name="uniFEA7" unicode="&#x62e;" horiz-adv-x="695" arabic-form="initial" 
d="M223 505q-16 0 -26.5 10.5t-10.5 26.5q0 15 10.5 26t26.5 11t26.5 -11t10.5 -26q0 -16 -10.5 -26.5t-26.5 -10.5zM224 440q56 0 98.5 -17t73 -44t60.5 -56t80.5 -59.5t114.5 -47.5l-9 -50l-65 -5q-83 -4 -164.5 -30t-136.5 -55t-129.5 -52.5t-146.5 -23.5l-20 29l25 29
q65 0 133.5 21t120.5 47.5t130 51.5t159 31q-46 17 -84.5 42t-62.5 47t-49 42t-57 31.5t-73 11.5q-59 0 -118 -36l-27 50q72 43 147 43z" />
    <glyph glyph-name="uniFEA8" unicode="&#x62e;" horiz-adv-x="727" arabic-form="medial" 
d="M222 505q-16 0 -26.5 10.5t-10.5 26.5q0 15 10.5 26t26.5 11t26.5 -11t10.5 -26q0 -16 -10.5 -26.5t-26.5 -10.5zM732 57l15 -28l-20 -29q-206 0 -234 187q-54 -14 -121 -47t-118 -63t-120 -53.5t-134 -23.5l-20 29l25 28q65 0 134.5 25t122 56t127.5 62t146 40
q-54 18 -100 45t-70.5 47.5t-61.5 35.5t-81 15q-58 0 -120 -34l-27 49q75 42 148 42q52 0 91 -13.5t68.5 -35.5t60 -46.5t82 -51t117.5 -43.5l-7 -50l-65 -2q-18 0 -34 -3q16 -80 63 -109t133 -29z" />
    <glyph glyph-name="uniFEAA" unicode="&#x62f;" horiz-adv-x="518" arabic-form="final" 
d="M522 57l16 -28l-20 -29q-95 0 -133 81q-61 -94 -204 -94q-75 0 -154 25l17 56q73 -22 141 -22q116 0 181 73l-150 355l57 27l131 -340q23 -59 47 -81.5t71 -22.5z" />
    <glyph glyph-name="uniFEAC" unicode="&#x630;" horiz-adv-x="518" arabic-form="final" 
d="M188 577q-16 0 -26.5 10.5t-10.5 26.5q0 15 10.5 26t26.5 11t26.5 -11t10.5 -26q0 -16 -10.5 -26.5t-26.5 -10.5zM522 57l16 -28l-20 -29q-95 0 -133 81q-61 -94 -204 -94q-75 0 -154 25l17 56q73 -22 141 -22q116 0 181 73l-150 355l57 27l131 -340q23 -59 47 -81.5
t71 -22.5z" />
    <glyph glyph-name="uniFEAE" unicode="&#x631;" horiz-adv-x="382" arabic-form="final" 
d="M388 57l14 -28l-20 -29q-77 0 -103 56q-15 -220 -283 -303l-23 55q262 79 262 269q0 89 -58 234l58 19q21 -70 36 -149q13 -67 39.5 -95.5t77.5 -28.5z" />
    <glyph glyph-name="uniFEB0" unicode="&#x632;" horiz-adv-x="382" arabic-form="final" 
d="M188 427q-16 0 -26.5 10.5t-10.5 26.5q0 15 10.5 26t26.5 11t26.5 -11t10.5 -26q0 -16 -10.5 -26.5t-26.5 -10.5zM388 57l14 -28l-20 -29q-77 0 -103 56q-15 -220 -283 -303l-23 55q262 79 262 269q0 89 -58 234l58 19q21 -70 36 -149q13 -67 39.5 -95.5t77.5 -28.5z" />
    <glyph glyph-name="uniFEB2" unicode="&#x633;" horiz-adv-x="1310" arabic-form="final" 
d="M1315 57l15 -28l-20 -29q-146 0 -178 77q-38 -77 -144 -77q-100 0 -136 77q-37 -77 -137 -77h-1q-74 0 -112 44q-4 -156 -76 -223t-224 -67q-128 0 -188.5 61t-60.5 167q0 91 42 184l40 -13q-30 -78 -30 -164q0 -178 203 -178q132 0 187.5 56t55.5 185q0 85 -59 228
l58 24q38 -132 40 -138q17 -60 46.5 -84.5t83.5 -24.5q103 0 103 121v143h53v-142q0 -122 115 -122q107 0 107 109v195h53v-179q0 -70 36 -97.5t128 -27.5z" />
    <glyph glyph-name="uniFEB3" unicode="&#x633;" horiz-adv-x="813" arabic-form="initial" 
d="M709 394q41 -110 41 -219q0 -88 -41 -131.5t-115 -43.5q-101 0 -138 78q-36 -78 -136 -78q-50 0 -86 20t-51 56q-41 -76 -183 -76l-20 29l25 28q77 0 114.5 26t37.5 82v156h51v-142q0 -67 28.5 -94.5t84.5 -27.5q107 0 107 121v143h52v-142q0 -122 118 -122q51 0 75 27.5
t24 85.5q0 94 -39 207z" />
    <glyph glyph-name="uniFEB4" unicode="&#x633;" horiz-adv-x="926" arabic-form="medial" 
d="M931 57l15 -28l-20 -29q-145 0 -178 76q-38 -76 -143 -76q-102 0 -139 77q-38 -77 -137 -77q-50 0 -86.5 20t-52.5 56q-42 -76 -190 -76l-20 29l26 28q157 0 157 108v156h52v-142q0 -66 29.5 -94t85.5 -28q108 0 108 121v143h52v-142q0 -122 118 -122q106 0 106 109v200
h53v-184q0 -70 36 -97.5t128 -27.5z" />
    <glyph glyph-name="uniFEB6" unicode="&#x634;" horiz-adv-x="1310" arabic-form="final" 
d="M850 503q-14 0 -24 10t-10 24t10 24t24 10t24 -10t10 -24t-10 -24t-24 -10zM778 397q-15 0 -25 10t-10 24t10 23.5t25 9.5q14 0 24 -10t10 -23q0 -14 -10 -24t-24 -10zM922 397q-14 0 -24 10t-10 24q0 13 10 23t24 10q15 0 25 -9.5t10 -23.5t-10 -24t-25 -10zM1315 57
l15 -28l-20 -29q-146 0 -178 77q-38 -77 -144 -77q-100 0 -136 77q-37 -77 -137 -77h-1q-74 0 -112 44q-4 -156 -76 -223t-224 -67q-128 0 -188.5 61t-60.5 167q0 91 42 184l40 -13q-30 -78 -30 -164q0 -178 203 -178q132 0 187.5 56t55.5 185q0 85 -59 228l58 24
q38 -132 40 -138q17 -60 46.5 -84.5t83.5 -24.5q103 0 103 121v143h53v-142q0 -122 115 -122q107 0 107 109v195h53v-179q0 -70 36 -97.5t128 -27.5z" />
    <glyph glyph-name="uniFEB7" unicode="&#x634;" horiz-adv-x="813" arabic-form="initial" 
d="M454 503q-14 0 -24 10t-10 24t10 24t24 10t24 -10t10 -24t-10 -24t-24 -10zM382 397q-15 0 -25 10t-10 24t10 23.5t25 9.5q14 0 24 -10t10 -23q0 -14 -10 -24t-24 -10zM526 397q-14 0 -24 10t-10 24q0 13 10 23t24 10q15 0 25 -9.5t10 -23.5t-10 -24t-25 -10zM709 394
q41 -110 41 -219q0 -88 -41 -131.5t-115 -43.5q-101 0 -138 78q-36 -78 -136 -78q-50 0 -86 20t-51 56q-41 -76 -183 -76l-20 29l25 28q77 0 114.5 26t37.5 82v156h51v-142q0 -67 28.5 -94.5t84.5 -27.5q107 0 107 121v143h52v-142q0 -122 118 -122q51 0 75 27.5t24 85.5
q0 94 -39 207z" />
    <glyph glyph-name="uniFEB8" unicode="&#x634;" horiz-adv-x="926" arabic-form="medial" 
d="M464 503q-14 0 -24 10t-10 24t10 24t24 10t24 -10t10 -24t-10 -24t-24 -10zM392 397q-15 0 -25 10t-10 24t10 23.5t25 9.5q14 0 24 -10t10 -23q0 -14 -10 -24t-24 -10zM536 397q-14 0 -24 10t-10 24q0 13 10 23t24 10q15 0 25 -9.5t10 -23.5t-10 -24t-25 -10zM931 57
l15 -28l-20 -29q-145 0 -178 76q-38 -76 -143 -76q-102 0 -139 77q-38 -77 -137 -77q-50 0 -86.5 20t-52.5 56q-42 -76 -190 -76l-20 29l26 28q157 0 157 108v156h52v-142q0 -66 29.5 -94t85.5 -28q108 0 108 121v143h52v-142q0 -122 118 -122q106 0 106 109v200h53v-184
q0 -70 36 -97.5t128 -27.5z" />
    <glyph glyph-name="uniFEBA" unicode="&#x635;" horiz-adv-x="1356" arabic-form="final" 
d="M1361 57l15 -28l-20 -29q-87 0 -139 74q-40 -42 -126 -58t-244 -16h-132v2q-75 0 -113 44q-4 -156 -76 -223t-224 -67q-128 0 -188.5 61t-60.5 167q0 91 42 184l40 -13q-30 -78 -30 -164q0 -178 203 -178q132 0 187.5 56t55.5 185q0 85 -59 228l58 24q38 -132 40 -138
q15 -52 38.5 -77t63.5 -30q56 174 154 275t210 101q96 0 149.5 -59.5t53.5 -166.5q0 -58 -16 -96q42 -58 118 -58zM847 57q209 0 286.5 31.5t77.5 125.5q0 164 -151 164q-196 0 -320 -321h107z" />
    <glyph glyph-name="uniFEBB" unicode="&#x635;" horiz-adv-x="923" arabic-form="initial" 
d="M657 437q95 0 149 -59.5t54 -166.5q0 -53 -14 -89.5t-42 -60.5t-79.5 -37.5t-116 -18.5t-161.5 -5h-132q-118 0 -156 83q-35 -83 -159 -83l-20 29l26 28q74 0 99.5 27.5t25.5 88.5v207h53v-207q0 -54 24.5 -82t82.5 -33q56 175 154.5 277t211.5 102zM447 57
q209 0 286.5 31.5t77.5 125.5q0 164 -150 164q-195 0 -321 -321h107z" />
    <glyph glyph-name="uniFEBC" unicode="&#x635;" horiz-adv-x="957" arabic-form="medial" 
d="M962 57l15 -28l-20 -29q-87 0 -139 74q-40 -42 -126.5 -58t-244.5 -16h-132q-118 0 -156 83q-35 -83 -159 -83l-20 29l26 28q74 0 99.5 27.5t25.5 88.5v207h53v-207q0 -54 24.5 -82t82.5 -33q56 175 154.5 277t211.5 102q95 0 149 -59.5t54 -166.5q0 -58 -16 -96
q42 -58 118 -58zM447 57q209 0 286.5 31.5t77.5 125.5q0 164 -150 164q-195 0 -321 -321h107z" />
    <glyph glyph-name="uniFEBE" unicode="&#x636;" horiz-adv-x="1356" arabic-form="final" 
d="M1023 490q-16 0 -26.5 10.5t-10.5 26.5q0 15 10.5 26t26.5 11t26.5 -11t10.5 -26q0 -16 -10.5 -26.5t-26.5 -10.5zM1361 57l15 -28l-20 -29q-87 0 -139 74q-40 -42 -126 -58t-244 -16h-132v2q-75 0 -113 44q-4 -156 -76 -223t-224 -67q-128 0 -188.5 61t-60.5 167
q0 91 42 184l40 -13q-30 -78 -30 -164q0 -178 203 -178q132 0 187.5 56t55.5 185q0 85 -59 228l58 24q38 -132 40 -138q15 -52 38.5 -77t63.5 -30q56 174 154 275t210 101q96 0 149.5 -59.5t53.5 -166.5q0 -58 -16 -96q42 -58 118 -58zM847 57q209 0 286.5 31.5t77.5 125.5
q0 164 -151 164q-196 0 -320 -321h107z" />
    <glyph glyph-name="uniFEBF" unicode="&#x636;" horiz-adv-x="923" arabic-form="initial" 
d="M623 490q-16 0 -26.5 11t-10.5 26q0 16 10.5 26.5t26.5 10.5t26.5 -10.5t10.5 -26.5q0 -15 -10.5 -26t-26.5 -11zM657 437q95 0 149 -59.5t54 -166.5q0 -53 -14 -89.5t-42 -60.5t-79.5 -37.5t-116 -18.5t-161.5 -5h-132q-118 0 -156 83q-35 -83 -159 -83l-20 29l26 28
q74 0 99.5 27.5t25.5 88.5v207h53v-207q0 -54 24.5 -82t82.5 -33q56 175 154.5 277t211.5 102zM447 57q209 0 286.5 31.5t77.5 125.5q0 164 -150 164q-195 0 -321 -321h107z" />
    <glyph glyph-name="uniFEC0" unicode="&#x636;" horiz-adv-x="957" arabic-form="medial" 
d="M623 490q-16 0 -26.5 11t-10.5 26q0 16 10.5 26.5t26.5 10.5t26.5 -10.5t10.5 -26.5q0 -15 -10.5 -26t-26.5 -11zM962 57l15 -28l-20 -29q-87 0 -139 74q-40 -42 -126.5 -58t-244.5 -16h-132q-118 0 -156 83q-35 -83 -159 -83l-20 29l26 28q74 0 99.5 27.5t25.5 88.5v207
h53v-207q0 -54 24.5 -82t82.5 -33q56 175 154.5 277t211.5 102q95 0 149 -59.5t54 -166.5q0 -58 -16 -96q42 -58 118 -58zM447 57q209 0 286.5 31.5t77.5 125.5q0 164 -150 164q-195 0 -321 -321h107z" />
    <glyph glyph-name="uniFEC2" unicode="&#x637;" horiz-adv-x="826" arabic-form="final" 
d="M831 57l15 -28l-20 -29q-87 0 -139 74q-40 -42 -126.5 -58t-244.5 -16h-281l11 57h114q10 33 31 84v602l53 8v-508q57 93 130.5 143.5t151.5 50.5q95 0 149 -59.5t54 -166.5q0 -58 -16 -96q42 -58 118 -58zM316 57q209 0 286.5 31.5t77.5 125.5q0 164 -151 164
q-196 0 -320 -321h107z" />
    <glyph glyph-name="uniFEC3" unicode="&#x637;" horiz-adv-x="794" arabic-form="initial" 
d="M528 437q95 0 149 -59.5t54 -166.5q0 -53 -14 -89.5t-42 -60.5t-79.5 -37.5t-116 -18.5t-161.5 -5h-318l-20 29l25 28h157q10 33 31 84v602l53 8v-508q57 93 130.5 143.5t151.5 50.5zM318 57q209 0 286.5 31.5t77.5 125.5q0 164 -151 164q-196 0 -320 -321h107z" />
    <glyph glyph-name="uniFEC4" unicode="&#x637;" horiz-adv-x="828" arabic-form="medial" 
d="M833 57l15 -28l-20 -29q-87 0 -139 74q-40 -42 -126.5 -58t-244.5 -16h-318l-20 29l25 28h157q10 33 31 84v602l53 8v-508q57 93 130.5 143.5t151.5 50.5q95 0 149 -59.5t54 -166.5q0 -58 -16 -96q42 -58 118 -58zM318 57q209 0 286.5 31.5t77.5 125.5q0 164 -151 164
q-196 0 -320 -321h107z" />
    <glyph glyph-name="uniFEC6" unicode="&#x638;" horiz-adv-x="826" arabic-form="final" 
d="M831 57l15 -28l-20 -29q-87 0 -139 74q-40 -42 -126.5 -58t-244.5 -16h-281l11 57h114q10 33 31 84v602l53 8v-508q57 93 130.5 143.5t151.5 50.5q95 0 149 -59.5t54 -166.5q0 -58 -16 -96q42 -58 118 -58zM486 490q-16 0 -26.5 10.5t-10.5 26.5q0 15 10.5 26t26.5 11
t26.5 -11t10.5 -26q0 -16 -10.5 -26.5t-26.5 -10.5zM316 57q209 0 286.5 31.5t77.5 125.5q0 164 -151 164q-196 0 -320 -321h107z" />
    <glyph glyph-name="uniFEC7" unicode="&#x638;" horiz-adv-x="793" arabic-form="initial" 
d="M528 437q95 0 149 -59.5t54 -166.5q0 -53 -14 -89.5t-42 -60.5t-79.5 -37.5t-116 -18.5t-161.5 -5h-318l-20 29l25 28h157q10 33 31 84v602l53 8v-508q57 93 130.5 143.5t151.5 50.5zM487 490q-16 0 -26.5 11t-10.5 26q0 16 10.5 26.5t26.5 10.5t26.5 -10.5t10.5 -26.5
q0 -15 -10.5 -26t-26.5 -11zM318 57q209 0 286.5 31.5t77.5 125.5q0 164 -151 164q-196 0 -320 -321h107z" />
    <glyph glyph-name="uniFEC8" unicode="&#x638;" horiz-adv-x="827" arabic-form="medial" 
d="M833 57l15 -28l-20 -29q-87 0 -139 74q-40 -42 -126.5 -58t-244.5 -16h-318l-20 29l25 28h157q10 33 31 84v602l53 8v-508q57 93 130.5 143.5t151.5 50.5q95 0 149 -59.5t54 -166.5q0 -58 -16 -96q42 -58 118 -58zM487 490q-16 0 -26.5 11t-10.5 26q0 16 10.5 26.5
t26.5 10.5t26.5 -10.5t10.5 -26.5q0 -15 -10.5 -26t-26.5 -11zM318 57q209 0 286.5 31.5t77.5 125.5q0 164 -151 164q-196 0 -320 -321h107z" />
    <glyph glyph-name="uniFECA" unicode="&#x639;" horiz-adv-x="559" arabic-form="final" 
d="M344 -296q116 0 202 44l22 -50q-91 -52 -230 -52q-141 0 -215.5 66.5t-74.5 167.5q0 176 188 259q-6 6 -32.5 33.5t-42.5 43t-48 43.5t-67 54l7 57q109 44 225 44q199 0 199 -123q0 -52 -35 -90.5t-110 -74.5q51 -41 91.5 -55t112.5 -14h28l15 -28l-20 -29h-34
q-70 0 -127 23.5t-121 77.5q-95 -42 -137.5 -92t-42.5 -121q0 -81 64 -132.5t183 -51.5zM104 329q44 -33 106.5 -93t78.5 -74q73 31 106.5 59t33.5 65q0 73 -151 73q-86 0 -174 -30z" />
    <glyph glyph-name="uniFECB" unicode="&#x639;" horiz-adv-x="548" arabic-form="initial" 
d="M521 109l6 -57q-131 -31 -219.5 -41.5t-205.5 -10.5h-102l-20 29l25 28h85q78 0 110 2q-126 75 -126 192q0 73 54.5 126.5t152.5 53.5q79 0 146 -37l-25 -54q-61 33 -121 33q-76 0 -115 -36.5t-39 -89.5q0 -107 149 -183q92 9 245 45z" />
    <glyph glyph-name="uniFECC" unicode="&#x639;" horiz-adv-x="562" arabic-form="medial" 
d="M568 57l14 -29l-20 -28h-27q-125 0 -224 80q-69 -37 -146 -58.5t-136 -21.5h-29l-20 28l25 29h14q121 0 251 60q-13 13 -52 54.5t-74.5 74t-84.5 67.5l7 57q107 44 216 44q102 0 152.5 -33.5t50.5 -93.5q0 -94 -124 -177q41 -30 80.5 -41.5t104.5 -11.5h22zM116 329
q45 -33 111 -98t93 -88q117 66 117 139q0 77 -155 77q-82 0 -166 -30z" />
    <glyph glyph-name="uniFECE" unicode="&#x63a;" horiz-adv-x="559" arabic-form="final" 
d="M283 488q-16 0 -26.5 10.5t-10.5 26.5q0 15 10.5 26t26.5 11t26.5 -11t10.5 -26q0 -16 -10.5 -26.5t-26.5 -10.5zM344 -296q116 0 202 44l22 -50q-91 -52 -230 -52q-141 0 -215.5 66.5t-74.5 167.5q0 176 188 259q-6 6 -32.5 33.5t-42.5 43t-48 43.5t-67 54l7 57
q109 44 225 44q199 0 199 -123q0 -52 -35 -90.5t-110 -74.5q51 -41 91.5 -55t112.5 -14h28l15 -28l-20 -29h-34q-70 0 -127 23.5t-121 77.5q-95 -42 -137.5 -92t-42.5 -121q0 -81 64 -132.5t183 -51.5zM104 329q44 -33 106.5 -93t78.5 -74q73 31 106.5 59t33.5 65
q0 73 -151 73q-86 0 -174 -30z" />
    <glyph glyph-name="uniFECF" unicode="&#x63a;" horiz-adv-x="548" arabic-form="initial" 
d="M280 495q-16 0 -26.5 10.5t-10.5 26.5q0 15 10.5 26t26.5 11t26.5 -11t10.5 -26q0 -16 -10.5 -26.5t-26.5 -10.5zM521 109l6 -57q-131 -31 -219.5 -41.5t-205.5 -10.5h-102l-20 29l25 28h85q78 0 110 2q-126 75 -126 192q0 73 54.5 126.5t152.5 53.5q79 0 146 -37
l-25 -54q-61 33 -121 33q-76 0 -115 -36.5t-39 -89.5q0 -107 149 -183q92 9 245 45z" />
    <glyph glyph-name="uniFED0" unicode="&#x63a;" horiz-adv-x="562" arabic-form="medial" 
d="M280 489q-16 0 -26.5 10.5t-10.5 26.5q0 15 10.5 26t26.5 11t26.5 -11t10.5 -26q0 -16 -10.5 -26.5t-26.5 -10.5zM568 57l14 -29l-20 -28h-27q-125 0 -224 80q-69 -37 -146 -58.5t-136 -21.5h-29l-20 28l25 29h14q121 0 251 60q-13 13 -52 54.5t-74.5 74t-84.5 67.5l7 57
q107 44 216 44q102 0 152.5 -33.5t50.5 -93.5q0 -94 -124 -177q41 -30 80.5 -41.5t104.5 -11.5h22zM116 329q45 -33 111 -98t93 -88q117 66 117 139q0 77 -155 77q-82 0 -166 -30z" />
    <glyph glyph-name="uniFED2" unicode="&#x641;" horiz-adv-x="959" arabic-form="final" 
d="M711 528q-16 0 -26.5 10.5t-10.5 26.5q0 15 10.5 26t26.5 11t26.5 -11t10.5 -26q0 -16 -10.5 -26.5t-26.5 -10.5zM963 57l16 -28l-20 -29h-37q-110 0 -209 48q-142 -61 -381 -61q-147 0 -213 46t-66 143q0 76 36 153l41 -14q-26 -66 -26 -132q0 -73 54 -106t179 -33
q194 0 319 37q-113 79 -113 187q0 79 49.5 136.5t119.5 57.5q79 0 128 -57t49 -138q0 -114 -118 -188q74 -22 151 -22h41zM592 268q0 -106 121 -165q127 58 127 164q0 60 -34.5 99t-90.5 39q-54 0 -88.5 -39t-34.5 -98z" />
    <glyph glyph-name="uniFED3" unicode="&#x641;" horiz-adv-x="459" arabic-form="initial" 
d="M212 613q-16 0 -26.5 10.5t-10.5 26.5q0 15 10.5 26t26.5 11t26.5 -11t10.5 -26q0 -16 -10.5 -26.5t-26.5 -10.5zM214 546q81 0 131.5 -71.5t50.5 -198.5q0 -103 -33.5 -161t-119.5 -86.5t-243 -28.5l-20 30l25 27q133 0 207.5 19.5t101.5 53t32 92.5q-41 -38 -124 -38
t-133.5 48t-50.5 125t51 133t125 56zM239 234q63 0 109 26v7q0 111 -36 166.5t-99 55.5q-55 0 -90.5 -37.5t-35.5 -90.5q0 -59 39 -93t113 -34z" />
    <glyph glyph-name="uniFED4" unicode="&#x641;" horiz-adv-x="494" arabic-form="medial" 
d="M246 527q-16 0 -26.5 10.5t-10.5 26.5q0 15 10.5 26t26.5 11t26.5 -11t10.5 -26q0 -16 -10.5 -26.5t-26.5 -10.5zM499 57l15 -28l-20 -29h-37q-108 0 -203 46q-100 -46 -223 -46h-31l-20 29l25 28h32q90 0 159 21q-117 80 -117 190q0 79 49.5 136.5t119.5 57.5
q79 0 128 -57t49 -138q0 -50 -30 -100.5t-85 -88.5q69 -21 147 -21h42zM128 268q0 -106 125 -168q123 59 123 167q0 60 -34.5 99t-91.5 39q-53 0 -87.5 -39t-34.5 -98z" />
    <glyph glyph-name="uniFED6" unicode="&#x642;" horiz-adv-x="764" arabic-form="final" 
d="M421 457q-14 0 -24.5 10t-10.5 25q0 14 10.5 24.5t24.5 10.5t24 -10.5t10 -24.5q0 -15 -10 -25t-24 -10zM559 457q-15 0 -25 10t-10 25q0 14 10 24.5t25 10.5q14 0 24.5 -10.5t10.5 -24.5q0 -15 -10.5 -25t-24.5 -10zM784 29l-20 -29h-98q-14 -120 -83.5 -183t-225.5 -63
q-165 0 -234.5 59t-69.5 169q0 91 42 184l40 -13q-30 -78 -30 -164q0 -85 57.5 -131.5t199.5 -46.5q134 0 190 49.5t67 139.5h-88q-105 0 -161 48.5t-56 127.5q0 77 51 132.5t124 55.5q81 0 131.5 -72t50.5 -203q0 -22 -1 -32h99zM526 57h97v24q0 114 -35.5 170.5
t-98.5 56.5q-55 0 -91 -37.5t-36 -90.5q0 -58 42.5 -90.5t121.5 -32.5z" />
    <glyph glyph-name="uniFED7" unicode="&#x642;" horiz-adv-x="459" arabic-form="initial" 
d="M144 641q-14 0 -24.5 10t-10.5 25q0 14 10.5 24.5t24.5 10.5t24 -10.5t10 -24.5q0 -15 -10 -25t-24 -10zM282 641q-15 0 -25 10t-10 25q0 14 10 24.5t25 10.5q14 0 24.5 -10.5t10.5 -24.5q0 -15 -10.5 -25t-24.5 -10zM214 546q81 0 131.5 -71.5t50.5 -198.5
q0 -103 -33.5 -161t-119.5 -86.5t-243 -28.5l-20 30l25 27q133 0 207.5 19.5t101.5 53t32 92.5q-41 -38 -124 -38t-133.5 48t-50.5 125t51 133t125 56zM239 234q63 0 109 26v7q0 111 -36 166.5t-99 55.5q-55 0 -90.5 -37.5t-35.5 -90.5q0 -59 39 -93t113 -34z" />
    <glyph glyph-name="uniFED8" unicode="&#x642;" horiz-adv-x="494" arabic-form="medial" 
d="M179 555q-14 0 -24.5 10t-10.5 25q0 14 10.5 24.5t24.5 10.5t24 -10.5t10 -24.5q0 -15 -10 -25t-24 -10zM317 555q-15 0 -25 10t-10 25q0 14 10 24.5t25 10.5q14 0 24.5 -10.5t10.5 -24.5q0 -15 -10.5 -25t-24.5 -10zM499 57l15 -28l-20 -29h-37q-108 0 -203 46
q-100 -46 -223 -46h-31l-20 29l25 28h32q90 0 159 21q-117 80 -117 190q0 79 49.5 136.5t119.5 57.5q79 0 128 -57t49 -138q0 -50 -30 -100.5t-85 -88.5q69 -21 147 -21h42zM128 268q0 -106 125 -168q123 59 123 167q0 60 -34.5 99t-91.5 39q-53 0 -87.5 -39t-34.5 -98z" />
    <glyph glyph-name="uniFEDA" unicode="&#x643;" horiz-adv-x="832" arabic-form="final" 
d="M838 57l14 -27l-20 -30q-86 0 -133 81q-133 -94 -367 -94q-147 0 -213 46t-66 143q0 76 36 153l41 -14q-26 -66 -26 -132q0 -73 54 -106t179 -33q215 0 342 89v612l53 6v-587q0 -107 106 -107zM297 314q152 0 152 46q0 19 -26 33t-95 28l8 41l159 93l-2 -43l-116 -66
q60 -16 85.5 -36t25.5 -50q0 -84 -185 -84z" />
    <glyph glyph-name="uniFEDB" unicode="&#x643;" horiz-adv-x="459" arabic-form="initial" 
d="M406 755l-4 -60l-341 -220q156 -67 217.5 -128t61.5 -136q0 -104 -89 -157.5t-251 -53.5l-20 29l25 28q284 0 284 159q0 56 -62.5 110t-223.5 120l12 54z" />
    <glyph glyph-name="uniFEDC" unicode="&#x643;" horiz-adv-x="543" arabic-form="medial" 
d="M548 57l15 -27l-20 -30q-84 0 -144.5 41.5t-146.5 159.5q1 -6 1 -16q0 -85 -65 -135t-188 -50l-20 29l25 28q102 0 152 36.5t50 101.5q0 63 -55 131l-98 121l12 52l391 256l-3 -60l-350 -226l164 -205q59 -74 88 -107.5t62.5 -60t60.5 -33t69 -6.5z" />
    <glyph glyph-name="uniFEDE" unicode="&#x644;" horiz-adv-x="703" arabic-form="final" 
d="M708 57l15 -28l-20 -29q-80 0 -114 47q-9 -133 -82.5 -189t-204.5 -56q-128 0 -188.5 61t-60.5 167q0 92 42 183l40 -12q-30 -78 -30 -164q0 -178 203 -178q123 0 176 53t53 169v662l53 7v-566q0 -71 26.5 -99t91.5 -28z" />
    <glyph glyph-name="uniFEDF" unicode="&#x644;" horiz-adv-x="232" arabic-form="initial" 
d="M0 0l-20 29l25 28q47 0 69.5 26.5t22.5 85.5v574l54 7v-584q0 -93 -39 -129.5t-112 -36.5z" />
    <glyph glyph-name="uniFEE0" unicode="&#x644;" horiz-adv-x="244" arabic-form="medial" 
d="M249 57l15 -28l-20 -29q-89 0 -121 66q-31 -66 -123 -66l-20 29l25 28q52 0 71.5 24.5t19.5 77.5v585l53 7v-592q0 -53 24.5 -77.5t75.5 -24.5z" />
    <glyph glyph-name="uniFEE2" unicode="&#x645;" horiz-adv-x="703" arabic-form="final" 
d="M708 57l15 -28l-20 -29q-119 0 -146 79q-36 -92 -122 -92q-40 0 -85 18.5t-76.5 40t-64 40t-51.5 18.5q-51 0 -51 -109q0 -110 45 -325l-59 -9q-40 197 -40 329q0 178 98 178q17 0 32 -7q55 129 109 183t123 54q70 0 115 -56.5t45 -150.5v-8q0 -71 29.5 -98.5
t103.5 -27.5zM430 46q46 0 71 38t25 106q0 71 -33 110t-87 39q-51 0 -89.5 -44t-89.5 -157q7 -4 44 -28t54 -33t48 -20t57 -11z" />
    <glyph glyph-name="uniFEE3" unicode="&#x645;" horiz-adv-x="602" arabic-form="initial" 
d="M382 398q68 0 112.5 -56.5t44.5 -151.5q0 -94 -37.5 -148.5t-103.5 -54.5q-92 0 -234 101q-54 -88 -156 -88h-8l-20 29l25 28h12q47 0 76 25.5t64 99.5q58 124 105.5 170t119.5 46zM396 46q45 0 69.5 39t24.5 105q0 71 -32.5 110.5t-84.5 39.5q-54 0 -91.5 -40.5
t-92.5 -164.5q70 -46 118 -67.5t89 -21.5z" />
    <glyph glyph-name="uniFEE4" unicode="&#x645;" horiz-adv-x="667" arabic-form="medial" 
d="M672 57l15 -28l-20 -29q-117 0 -146 77q-36 -90 -123 -90q-92 0 -234 101q-54 -88 -156 -88h-8l-20 29l25 28h12q47 0 76 25.5t64 99.5q58 124 105.5 170t119.5 46q68 0 112.5 -56.5t44.5 -151.5v-7q0 -71 29 -98.5t104 -27.5zM396 46q45 0 69.5 39t24.5 105
q0 71 -32.5 110.5t-84.5 39.5q-54 0 -91.5 -40.5t-92.5 -164.5q70 -46 118 -67.5t89 -21.5z" />
    <glyph glyph-name="uniFEE6" unicode="&#x646;" horiz-adv-x="715" arabic-form="final" 
d="M314 319q-16 0 -26.5 10.5t-10.5 26.5q0 15 10.5 26t26.5 11t26.5 -11t10.5 -26q0 -16 -10.5 -26.5t-26.5 -10.5zM720 57l15 -28l-20 -29q-75 0 -113 44q-4 -156 -76 -223t-224 -67q-128 0 -188.5 61t-60.5 167q0 91 42 184l40 -13q-30 -78 -30 -164q0 -178 203 -178
q132 0 187.5 56t55.5 185q0 85 -59 228l58 24q38 -132 40 -138q17 -60 46.5 -84.5t83.5 -24.5z" />
    <glyph glyph-name="uniFEE7" unicode="&#x646;" horiz-adv-x="269" arabic-form="initial" 
d="M119 469q-16 0 -26.5 10.5t-10.5 26.5q0 15 10.5 26t26.5 11t26.5 -11t10.5 -26q0 -16 -10.5 -26.5t-26.5 -10.5zM5 57q91 0 120 24.5t29 89.5q0 83 -43 206l54 18q41 -120 41 -227q0 -95 -43 -131.5t-163 -36.5l-20 29z" />
    <glyph glyph-name="uniFEE8" unicode="&#x646;" horiz-adv-x="327" arabic-form="medial" 
d="M162 399q-16 0 -26.5 10.5t-10.5 26.5q0 15 10.5 26t26.5 11t26.5 -11t10.5 -26q0 -16 -10.5 -26.5t-26.5 -10.5zM332 57l15 -28l-20 -29q-124 0 -162 85q-35 -85 -165 -85l-20 29l26 28q78 0 104 28t26 91v145h54v-145q0 -62 31.5 -90.5t110.5 -28.5z" />
    <glyph glyph-name="uniFEEA" unicode="&#x647;" horiz-adv-x="498" arabic-form="final" 
d="M503 57l15 -29l-20 -28h-15q-113 0 -139 111q-26 -34 -68.5 -54t-89.5 -20q-73 0 -116 39t-43 101q0 85 81.5 143.5t228.5 66.5v107l53 7v-319q0 -68 24.5 -96.5t73.5 -28.5h15zM194 91q91 0 143 68v176q-129 -5 -194 -47.5t-65 -105.5q0 -41 29 -66t87 -25z" />
    <glyph glyph-name="uniFEEB" unicode="&#x647;" horiz-adv-x="631" arabic-form="initial" 
d="M132 527q248 -141 341.5 -217.5t93.5 -154.5q0 -69 -50 -118.5t-116 -49.5q-97 0 -184 49q-81 -36 -194 -36h-23l-20 29l25 28h14q80 0 143 17q-98 83 -98 189q0 62 34.5 108.5t89.5 58.5q-75 42 -85 47zM107 261q0 -48 31 -91t83 -74q115 55 115 163q0 56 -32.5 94
t-81.5 38q-50 0 -82.5 -37t-32.5 -93zM401 44q49 0 84.5 28t35.5 72q0 73 -153 177q10 -27 10 -59q0 -120 -103 -193q63 -25 126 -25z" />
    <glyph glyph-name="uniFEEC" unicode="&#x647;" horiz-adv-x="484" arabic-form="medial" 
d="M504 29l-20 -29h-141q89 -44 89 -134q0 -55 -35 -90.5t-95 -35.5q-90 0 -151 73t-65 187h-86l-20 29l25 28h81q4 139 71 236.5t156 97.5q57 0 90.5 -36t33.5 -105q0 -53 -31 -108.5t-83 -84.5h167zM305 334q-65 0 -116 -79t-58 -198h65q82 0 136 57.5t54 128.5
q0 44 -21.5 67.5t-59.5 23.5zM383 -124q0 57 -47.5 90.5t-116.5 33.5h-88q6 -94 50.5 -148.5t114.5 -54.5q43 0 65 22.5t22 56.5z" />
    <glyph glyph-name="uniFEEE" unicode="&#x648;" horiz-adv-x="527" arabic-form="final" 
d="M547 29l-20 -29h-108q-23 -102 -106.5 -165.5t-242.5 -92.5l-17 56q141 26 216 75.5t99 126.5h-84q-102 0 -157 48.5t-55 126.5q0 76 51 132t124 56q81 0 131.5 -70.5t50.5 -194.5q0 -15 -2 -41h105zM120 178q0 -121 171 -121h88q1 11 1 34q0 106 -35.5 160.5t-98.5 54.5
q-54 0 -90 -37.5t-36 -90.5z" />
    <glyph glyph-name="uniFEF0" unicode="&#x649;" horiz-adv-x="722" arabic-form="final" 
d="M742 29l-20 -29q-49 0 -97 21q11 -19 11 -40q0 -75 -87 -129t-247 -54q-128 0 -188.5 61t-60.5 167q0 93 42 184l40 -13q-30 -78 -30 -164q0 -178 203 -178q131 0 205 41t74 90q0 28 -35.5 49t-142.5 54l24 50q40 -13 90 -31.5t75.5 -27.5t60 -16t68.5 -7z" />
    <glyph glyph-name="uniFEF2" unicode="&#x64a;" horiz-adv-x="722" arabic-form="final" 
d="M742 29l-20 -29q-49 0 -97 21q11 -19 11 -40q0 -75 -87 -129t-247 -54q-128 0 -188.5 61t-60.5 167q0 93 42 184l40 -13q-30 -78 -30 -164q0 -178 203 -178q131 0 205 41t74 90q0 28 -35.5 49t-142.5 54l24 50q40 -13 90 -31.5t75.5 -27.5t60 -16t68.5 -7zM238 -297
q14 0 24 -10.5t10 -24.5t-10 -24t-24 -10t-24.5 10t-10.5 24t10.5 24.5t24.5 10.5zM376 -297q14 0 24.5 -10.5t10.5 -24.5t-10.5 -24t-24.5 -10q-15 0 -25 10t-10 24t10 24.5t25 10.5z" />
    <glyph glyph-name="uniFEF3" unicode="&#x64a;" horiz-adv-x="269" arabic-form="initial" 
d="M5 57q91 0 120 24.5t29 89.5q0 83 -43 206l54 18q41 -120 41 -227q0 -95 -43 -131.5t-163 -36.5l-20 29zM54 -176q-14 0 -24.5 10t-10.5 24t10.5 24.5t24.5 10.5t24 -10.5t10 -24.5t-10 -24t-24 -10zM192 -176q-15 0 -25 10t-10 24t10 24.5t25 10.5q14 0 24.5 -10.5
t10.5 -24.5t-10.5 -24t-24.5 -10z" />
    <glyph glyph-name="uniFEF4" unicode="&#x64a;" horiz-adv-x="327" arabic-form="medial" 
d="M332 57l15 -28l-20 -29q-124 0 -162 85q-35 -85 -165 -85l-20 29l26 28q78 0 104 28t26 91v145h54v-145q0 -62 31.5 -90.5t110.5 -28.5zM94 -107q14 0 24 -10.5t10 -24.5t-10 -24t-24 -10t-24.5 10t-10.5 24t10.5 24.5t24.5 10.5zM232 -107q14 0 24.5 -10.5t10.5 -24.5
t-10.5 -24t-24.5 -10q-15 0 -25 10t-10 24t10 24.5t25 10.5z" />
    <glyph glyph-name=".notdef" horiz-adv-x="666" 
d="M543 1050v-1400h-420v1400h420zM489 998h-311v-1296h311v1296zM324 451q111 0 111 -115q0 -104 -95 -118v-45q0 -11 -7.5 -17.5t-17.5 -6.5t-17.5 6.5t-7.5 17.5v84q53 3 72 19.5t19 57.5q0 33 -13 51t-48 18q-29 0 -52 -11q-8 -3 -13 -3q-24 0 -24 23q0 19 29.5 29
t63.5 10zM315 120q15 0 25 -10t10 -25q0 -16 -10 -26.5t-25 -10.5t-25 10.5t-10 26.5q0 15 10 25t25 10z" />
    <glyph glyph-name=".null" 
 />
    <glyph glyph-name="nonmarkingreturn" horiz-adv-x="333" 
 />
    <glyph glyph-name="CR" unicode="&#xd;" horiz-adv-x="279" 
 />
    <glyph glyph-name="space" unicode=" " horiz-adv-x="279" 
 />
    <glyph glyph-name="exclam" unicode="!" horiz-adv-x="240" 
d="M150 685l-4 -467h-53l-5 467h62zM120 84q21 0 34.5 -13.5t13.5 -33.5t-13.5 -34t-34.5 -14q-20 0 -34 14t-14 34t14 33.5t34 13.5z" />
    <glyph glyph-name="quotedbl" unicode="&#x22;" horiz-adv-x="362" 
d="M80 434l-9 251h62l-9 -251h-44zM238 434l-9 251h62l-9 -251h-44z" />
    <glyph glyph-name="numbersign" unicode="#" horiz-adv-x="503" 
d="M488 452h-78l-30 -226h71v-46h-77l-24 -180h-52l24 180h-183l-24 -180h-52l24 180h-72v46h78l30 226h-71v47h77l22 166h52l-22 -166h183l22 166h52l-22 -166h72v-47zM145 226h183l30 226h-183z" />
    <glyph glyph-name="dollar" unicode="$" horiz-adv-x="526" 
d="M472 182q0 -77 -49.5 -128.5t-133.5 -62.5v-142h-51v140q-117 4 -199 83l35 37q75 -70 176 -70q72 0 117 37.5t45 103.5q0 59 -33.5 90t-124.5 59q-102 32 -145.5 72.5t-43.5 109.5q0 67 47.5 112t125.5 51v145h51v-145q90 -8 162 -73l-35 -37q-65 61 -155 61
q-61 0 -98.5 -30t-37.5 -82q0 -51 32.5 -79t121.5 -55q100 -32 146.5 -73.5t46.5 -123.5z" />
    <glyph glyph-name="percent" unicode="%" horiz-adv-x="793" 
d="M610 703l43 -27l-464 -700l-42 28zM203 676q67 0 108 -44t41 -118t-40.5 -118.5t-108.5 -44.5q-67 0 -108.5 44t-41.5 118t41 118.5t109 44.5zM203 634q-50 0 -73 -34t-23 -87q0 -52 23 -86t73 -34t72.5 34t22.5 87q0 52 -22.5 86t-72.5 34zM590 314q67 0 108.5 -44
t41.5 -117q0 -75 -41 -119.5t-109 -44.5q-66 0 -107.5 44.5t-41.5 117.5q0 75 40.5 119t108.5 44zM590 272q-49 0 -72 -34t-23 -87q0 -52 23 -86t72 -34q50 0 73 34t23 88q0 51 -23 85t-73 34z" />
    <glyph glyph-name="ampersand" unicode="&#x26;" horiz-adv-x="722" 
d="M301 696q73 0 119.5 -41.5t46.5 -106.5q0 -57 -37.5 -99t-115.5 -85l205 -192q44 90 66 190l55 -16q-32 -120 -85 -209l124 -114l-43 -34l-112 105q-88 -105 -224 -105q-91 0 -150.5 50.5t-59.5 131.5q0 64 36 110.5t108 88.5q-55 52 -78 88.5t-23 85.5q0 66 46 109
t122 43zM301 651q-50 0 -80 -30.5t-30 -75.5q0 -38 18.5 -68.5t70.5 -80.5q67 37 98.5 71.5t31.5 78.5q0 49 -30.5 77t-78.5 28zM269 338q-60 -36 -89.5 -75.5t-29.5 -89.5q0 -61 43.5 -98.5t111.5 -37.5q109 0 183 90z" />
    <glyph glyph-name="quotesingle" unicode="'" horiz-adv-x="204" 
d="M80 434l-9 251h62l-9 -251h-44z" />
    <glyph glyph-name="parenleft" unicode="(" horiz-adv-x="324" 
d="M233 837l37 -24q-53 -79 -82 -132.5t-51.5 -140.5t-22.5 -190t22.5 -189.5t51.5 -140.5t82 -133l-37 -24q-37 52 -57 81.5t-47 80t-40.5 93.5t-24 103.5t-10.5 128.5t10.5 128.5t24 103.5t40.5 93.5t47 80t57 81.5z" />
    <glyph glyph-name="parenright" unicode=")" horiz-adv-x="324" 
d="M91 837q37 -52 57 -81.5t47 -80t40.5 -93.5t24 -103.5t10.5 -128.5t-10.5 -128.5t-24 -103.5t-40.5 -93.5t-47 -80t-57 -81.5l-37 24q53 79 82 133t51.5 140.5t22.5 189.5t-22.5 190t-51.5 140.5t-82 132.5z" />
    <glyph glyph-name="asterisk" unicode="*" horiz-adv-x="436" 
d="M402 582l-152 -40l99 -122l-46 -34l-85 132l-85 -132l-46 33l99 122l-152 41l17 52l147 -57l-9 159h57l-8 -159l146 57z" />
    <glyph glyph-name="plus" unicode="+" horiz-adv-x="493" 
d="M274 508v-152h150v-50h-150v-152h-55v152h-150v50h150v152h55z" />
    <glyph glyph-name="comma" unicode="," horiz-adv-x="207" 
d="M103 84q21 0 34.5 -13.5t13.5 -33.5q0 -22 -15 -55l-56 -133h-42l40 147q-23 13 -23 41q0 20 14 33.5t34 13.5z" />
    <glyph glyph-name="hyphen" unicode="-" horiz-adv-x="401" 
d="M68 288v50h265v-50h-265z" />
    <glyph glyph-name="period" unicode="." horiz-adv-x="207" 
d="M103 84q21 0 34.5 -13.5t13.5 -33.5q0 -21 -13.5 -34.5t-34.5 -13.5q-20 0 -34 14t-14 34t14 33.5t34 13.5z" />
    <glyph glyph-name="slash" unicode="/" horiz-adv-x="520" 
d="M351 803l50 -13l-232 -890l-50 13z" />
    <glyph glyph-name="zero" unicode="0" horiz-adv-x="550" 
d="M275 676q103 0 156 -87.5t53 -256.5q0 -168 -53.5 -255.5t-155.5 -87.5q-103 0 -156 87.5t-53 256.5t53 256t156 87zM275 628q-149 0 -149 -295q0 -296 149 -296q148 0 148 295q0 296 -148 296z" />
    <glyph glyph-name="one" unicode="1" horiz-adv-x="413" 
d="M292 665v-665h-58v601l-164 -102l-27 43l199 123h50z" />
    <glyph glyph-name="two" unicode="2" horiz-adv-x="479" 
d="M225 676q84 0 133.5 -49t49.5 -126q0 -40 -11 -76.5t-28 -69.5t-58.5 -84t-81.5 -94t-118 -126h315l-8 -51h-375v49q195 207 250 286t55 163q0 59 -34.5 94t-91.5 35q-85 0 -149 -76l-40 30q79 95 192 95z" />
    <glyph glyph-name="three" unicode="3" horiz-adv-x="486" 
d="M221 676q85 0 134 -47t49 -119q0 -65 -36.5 -105.5t-94.5 -50.5q65 -3 107.5 -46.5t42.5 -119.5q0 -88 -58 -143.5t-154 -55.5q-116 0 -191 86l37 33q65 -70 152 -70q72 0 113 41t41 108q0 140 -150 140h-44l8 47h32q57 0 97 34.5t40 98.5q0 55 -35 87.5t-93 32.5
q-80 0 -148 -62l-31 36q78 75 182 75z" />
    <glyph glyph-name="four" unicode="4" horiz-adv-x="518" 
d="M483 223v-48h-90v-175h-57v175h-291v43l203 458l49 -20l-190 -433h229l7 195h50v-195h90z" />
    <glyph glyph-name="five" unicode="5" horiz-adv-x="487" 
d="M414 665l-9 -48h-270v-227q55 31 114 31q86 0 136.5 -55.5t50.5 -151.5q0 -99 -58.5 -162t-155.5 -63q-111 0 -188 80l36 35q63 -66 152 -66q71 0 112 47.5t41 129.5q0 80 -37.5 119.5t-101.5 39.5q-55 0 -111 -32h-46v323h335z" />
    <glyph glyph-name="six" unicode="6" horiz-adv-x="524" 
d="M296 433q77 0 127 -53.5t50 -155.5q0 -107 -55 -171t-141 -64q-110 0 -160.5 84.5t-50.5 226.5q0 174 64 275t176 101q67 0 124 -39l-25 -40q-48 31 -100 31q-81 0 -129 -81t-51 -212q67 98 171 98zM277 37q66 0 101.5 50.5t35.5 134.5q0 83 -34.5 123t-91.5 40
q-100 0 -163 -110q6 -238 152 -238z" />
    <glyph glyph-name="seven" unicode="7" horiz-adv-x="437" 
d="M401 665v-45l-262 -628l-54 18l256 606h-311v49h371z" />
    <glyph glyph-name="eight" unicode="8" horiz-adv-x="538" 
d="M337 352q77 -31 112.5 -72.5t35.5 -106.5q0 -83 -60.5 -133.5t-157.5 -50.5t-155.5 50.5t-58.5 132.5q0 128 143 185q-59 27 -86.5 62.5t-27.5 90.5q0 77 55 121.5t132 44.5t132.5 -43.5t55.5 -121.5q0 -52 -29 -89.5t-91 -69.5zM140 509q0 -48 27.5 -76t95.5 -53l31 -11
q56 30 80.5 62t24.5 78q0 57 -35.5 89t-94.5 32q-57 0 -93 -32t-36 -89zM268 38q71 0 113.5 35.5t42.5 99.5q0 59 -33 90.5t-115 62.5l-34 13q-128 -50 -128 -167q0 -64 42 -99t112 -35z" />
    <glyph glyph-name="nine" unicode="9" horiz-adv-x="518" 
d="M255 676q101 0 151.5 -70.5t50.5 -197.5q0 -188 -79 -281t-255 -146l-15 45q138 42 210.5 115t79.5 200q-64 -93 -164 -93q-79 0 -130 57t-51 153q0 100 57 159t145 59zM244 296q88 0 154 100q1 119 -33 175.5t-108 56.5q-67 0 -105.5 -44.5t-38.5 -126.5
q0 -77 35.5 -119t95.5 -42z" />
    <glyph glyph-name="colon" unicode=":" horiz-adv-x="207" 
d="M103 475q21 0 34.5 -13.5t13.5 -34.5q0 -20 -13.5 -33.5t-34.5 -13.5q-20 0 -34 13.5t-14 33.5t14 34t34 14zM103 84q21 0 34.5 -13.5t13.5 -33.5q0 -21 -13.5 -34.5t-34.5 -13.5q-20 0 -34 14t-14 34t14 33.5t34 13.5z" />
    <glyph glyph-name="semicolon" unicode=";" horiz-adv-x="207" 
d="M103 475q21 0 34.5 -13.5t13.5 -34.5q0 -20 -13.5 -33.5t-34.5 -13.5q-20 0 -34 13.5t-14 33.5t14 34t34 14zM103 84q21 0 34.5 -13.5t13.5 -33.5q0 -22 -15 -55l-56 -133h-42l40 147q-23 13 -23 41q0 20 14 33.5t34 13.5z" />
    <glyph glyph-name="less" unicode="&#x3c;" horiz-adv-x="497" 
d="M412 529l21 -49l-318 -147l318 -150l-21 -48l-348 171v54z" />
    <glyph glyph-name="equal" unicode="=" horiz-adv-x="493" 
d="M69 393v51h355v-51h-355zM69 218v51h355v-51h-355z" />
    <glyph glyph-name="greater" unicode="&#x3e;" horiz-adv-x="497" 
d="M85 529l348 -169v-54l-348 -171l-21 48l317 150l-317 147z" />
    <glyph glyph-name="question" unicode="?" horiz-adv-x="447" 
d="M234 696q80 0 126.5 -42.5t46.5 -103.5q0 -42 -19 -73t-45.5 -50t-53.5 -37.5t-46 -47.5t-19 -69v-55h-57v59q0 39 13.5 69.5t33 48t43 34.5t43 31t33 36.5t13.5 50.5q0 46 -31 72.5t-84 26.5q-85 0 -150 -74l-40 32q80 92 193 92zM198 84q21 0 34.5 -13.5t13.5 -33.5
t-13.5 -34t-34.5 -14t-34.5 14t-13.5 34t13.5 33.5t34.5 13.5z" />
    <glyph glyph-name="at" unicode="@" horiz-adv-x="1020" 
d="M526 696q130 0 224.5 -54.5t139.5 -141t45 -192.5q0 -144 -50 -220t-131 -76q-50 0 -81 31t-41 79q-46 -108 -148 -108q-74 0 -121 58t-47 160q0 123 58.5 187.5t150.5 64.5q75 0 145 -36v-258q0 -131 83 -131q123 0 123 247q0 150 -92.5 245t-257.5 95
q-171 0 -276.5 -115.5t-105.5 -291.5q0 -180 103.5 -287.5t277.5 -107.5q97 0 189 34l16 -47q-103 -36 -206 -36q-195 0 -317 120.5t-122 323.5q0 196 123 326.5t318 130.5zM490 60q48 0 80 31.5t46 74.5v253q-42 20 -89 20q-73 0 -113 -54t-40 -153q0 -84 31 -128t85 -44z
" />
    <glyph glyph-name="A" unicode="A" horiz-adv-x="565" 
d="M485 0l-60 187h-288l-60 -187h-61l229 685h75l228 -685h-63zM154 238h255l-127 398z" />
    <glyph glyph-name="B" unicode="B" horiz-adv-x="598" 
d="M386 363q70 -8 114 -49.5t44 -123.5q0 -96 -65 -143t-181 -47h-187v685h153q119 0 183.5 -43t64.5 -128q0 -63 -34.5 -102t-91.5 -49zM270 635h-99v-251h138q64 0 103 33.5t39 92.5q0 67 -45.5 96t-135.5 29zM298 50q184 0 184 140q0 74 -45.5 110t-120.5 36h-145v-286
h127z" />
    <glyph glyph-name="C" unicode="C" horiz-adv-x="550" 
d="M343 696q57 0 96.5 -15.5t79.5 -47.5l-32 -40q-66 52 -140 52q-97 0 -157.5 -74t-60.5 -228q0 -149 60 -225t155 -76q81 0 152 57l31 -39q-75 -71 -185 -71q-123 0 -199.5 93t-76.5 261q0 169 78.5 261t198.5 92z" />
    <glyph glyph-name="D" unicode="D" horiz-adv-x="632" 
d="M247 685q52 0 94.5 -7.5t86 -30t72.5 -59t47.5 -97.5t18.5 -143t-19 -145t-48.5 -100.5t-71.5 -61.5t-82.5 -32.5t-86.5 -8.5h-147v685h136zM255 635h-84v-585h91q241 0 241 298q0 73 -15 126t-37.5 83.5t-57 48.5t-66.5 23.5t-72 5.5z" />
    <glyph glyph-name="E" unicode="E" horiz-adv-x="512" 
d="M459 685l-7 -50h-281v-255h243v-50h-243v-280h295v-50h-355v685h348z" />
    <glyph glyph-name="F" unicode="F" horiz-adv-x="481" 
d="M111 0v685h342l-7 -50h-275v-267h237v-50h-237v-318h-60z" />
    <glyph glyph-name="G" unicode="G" horiz-adv-x="618" 
d="M352 696q58 0 101 -16.5t87 -51.5l-36 -38q-69 55 -152 55q-93 0 -158 -74t-65 -226q0 -153 58 -229t162 -76q80 0 144 36v243h-134l-7 50h200v-324q-98 -56 -203 -56q-131 0 -207 91t-76 265q0 168 83.5 259.5t202.5 91.5z" />
    <glyph glyph-name="H" unicode="H" horiz-adv-x="670" 
d="M499 0v335h-328v-335h-60v685h60v-299h328v299h60v-685h-60z" />
    <glyph glyph-name="I" unicode="I" horiz-adv-x="282" 
d="M171 685v-685h-60v685h60z" />
    <glyph glyph-name="J" unicode="J" horiz-adv-x="291" 
d="M185 685v-593q0 -89 -34.5 -133.5t-121.5 -77.5l-16 44q67 30 89.5 64.5t22.5 105.5v590h60z" />
    <glyph glyph-name="K" unicode="K" horiz-adv-x="547" 
d="M171 685v-685h-60v685h60zM530 685l-284 -315l301 -370h-73l-299 367l286 318h69z" />
    <glyph glyph-name="L" unicode="L" horiz-adv-x="477" 
d="M171 685v-631h286l-8 -54h-338v685h60z" />
    <glyph glyph-name="M" unicode="M" horiz-adv-x="770" 
d="M635 685l66 -685h-58l-31 328q-19 191 -26 298l-172 -545h-57l-178 545q-3 -57 -23 -296l-30 -330h-57l65 685h83l170 -533l164 533h84z" />
    <glyph glyph-name="N" unicode="N" horiz-adv-x="673" 
d="M562 685v-685h-79l-323 619q8 -125 8 -236v-383h-57v685h77l325 -619q-8 116 -8 203v416h57z" />
    <glyph glyph-name="O" unicode="O" horiz-adv-x="691" 
d="M345 696q128 0 204 -92t76 -262q0 -167 -75.5 -260t-204.5 -93q-127 0 -203 92.5t-76 259.5q0 166 77 260.5t202 94.5zM345 645q-100 0 -158 -76.5t-58 -227.5q0 -149 58.5 -225t157.5 -76q103 0 160 75.5t57 226.5q0 152 -57.5 227.5t-159.5 75.5z" />
    <glyph glyph-name="P" unicode="P" horiz-adv-x="574" 
d="M272 685q253 0 253 -205q0 -110 -68.5 -161.5t-187.5 -51.5h-98v-267h-60v685h161zM269 316q93 0 143 37t50 126q0 84 -48.5 120.5t-142.5 36.5h-100v-320h98z" />
    <glyph glyph-name="Q" unicode="Q" horiz-adv-x="690" 
d="M452 24q118 -2 197 -66l-40 -51q-54 48 -112 66t-152 18q-127 0 -203 91.5t-76 258.5q0 166 77 260.5t202 94.5q128 0 204 -92t76 -262q0 -255 -173 -318zM129 341q0 -149 58.5 -225t157.5 -76q103 0 160 75.5t57 226.5q0 152 -57.5 227.5t-159.5 75.5q-100 0 -158 -76.5
t-58 -227.5z" />
    <glyph glyph-name="R" unicode="R" horiz-adv-x="590" 
d="M485 0l-177 307h-137v-307h-60v685h166q244 0 244 -186q0 -142 -153 -181l188 -318h-71zM171 356h114q172 0 172 143q0 70 -43 103.5t-139 33.5h-104v-280z" />
    <glyph glyph-name="S" unicode="S" horiz-adv-x="539" 
d="M267 696q63 0 108.5 -18.5t88.5 -57.5l-35 -38q-73 63 -160 63q-64 0 -103 -31.5t-39 -84.5q0 -52 34 -81.5t126 -57.5q102 -32 150 -75t48 -128q0 -88 -62 -143t-165 -55q-128 0 -219 86l34 38q85 -73 184 -73q74 0 120.5 39t46.5 106q0 61 -35 93.5t-128 61.5
q-105 32 -150 74t-45 114q0 73 56 120.5t145 47.5z" />
    <glyph glyph-name="T" unicode="T" horiz-adv-x="495" 
d="M485 685l-7 -53h-201v-632h-59v632h-203v53h470z" />
    <glyph glyph-name="U" unicode="U" horiz-adv-x="652" 
d="M551 685v-471q0 -102 -58 -163.5t-167 -61.5q-110 0 -167.5 61t-57.5 164v471h60v-466q0 -178 165 -178q164 0 164 178v466h61z" />
    <glyph glyph-name="V" unicode="V" horiz-adv-x="546" 
d="M530 685l-223 -685h-67l-224 685h65l193 -623l194 623h62z" />
    <glyph glyph-name="W" unicode="W" horiz-adv-x="810" 
d="M779 685l-150 -685h-75l-150 618l-150 -618h-73l-151 685h61l130 -629l150 629h67l153 -629l131 629h57z" />
    <glyph glyph-name="X" unicode="X" horiz-adv-x="514" 
d="M290 371l214 -371h-68l-182 329l-179 -329h-65l209 368l-188 317h68l156 -277l156 277h65z" />
    <glyph glyph-name="Y" unicode="Y" horiz-adv-x="523" 
d="M509 685l-217 -417v-268h-60v267l-219 418h67l184 -364l181 364h64z" />
    <glyph glyph-name="Z" unicode="Z" horiz-adv-x="516" 
d="M468 685v-49l-364 -583h358l-8 -53h-419v50l367 583h-329v52h395z" />
    <glyph glyph-name="bracketleft" unicode="[" horiz-adv-x="317" 
d="M251 807v-49h-112v-822h112v-48h-167v919h167z" />
    <glyph glyph-name="backslash" unicode="\" horiz-adv-x="520" 
d="M169 803l232 -890l-51 -13l-231 891z" />
    <glyph glyph-name="bracketright" unicode="]" horiz-adv-x="317" 
d="M233 807v-919h-167v48h112v822h-112v49h167z" />
    <glyph glyph-name="asciicircum" unicode="^" horiz-adv-x="531" 
d="M290 832l184 -305h-65l-144 248l-143 -248h-66l185 305h49z" />
    <glyph glyph-name="underscore" unicode="_" horiz-adv-x="520" 
d="M29 -122v51h463v-51h-463z" />
    <glyph glyph-name="grave" unicode="`" horiz-adv-x="274" 
d="M56 782l188 -103l-18 -34l-196 85z" />
    <glyph glyph-name="a" unicode="a" horiz-adv-x="536" 
d="M431 116q0 -41 10.5 -59t33.5 -27l-13 -41q-36 7 -55.5 27t-25.5 61q-54 -88 -163 -88q-75 0 -118.5 42.5t-43.5 113.5q0 81 57.5 125t159.5 44h100v51q0 63 -28 91.5t-93 28.5q-60 0 -142 -30l-15 44q88 35 165 35q171 0 171 -166v-252zM228 36q94 0 145 92v144h-91
q-164 0 -164 -124q0 -54 29 -83t81 -29z" />
    <glyph glyph-name="b" unicode="b" horiz-adv-x="574" 
d="M320 534q90 0 140 -70t50 -200q0 -127 -52 -201t-146 -74q-92 0 -151 77l-6 -66h-50v736l58 7v-292q61 83 157 83zM301 37q70 0 109 57.5t39 169.5q0 222 -141 222q-82 0 -145 -90v-277q56 -82 138 -82z" />
    <glyph glyph-name="c" unicode="c" horiz-adv-x="469" 
d="M285 534q87 0 148 -53l-29 -38q-52 41 -116 41q-74 0 -118 -57.5t-44 -167.5q0 -109 43.5 -164t117.5 -55q63 0 121 44l28 -39q-66 -56 -150 -56q-102 0 -162 71.5t-60 197.5t60 201t161 75z" />
    <glyph glyph-name="d" unicode="d" horiz-adv-x="579" 
d="M416 743l58 -7v-736h-50l-7 80q-54 -91 -157 -91q-91 0 -143.5 72.5t-52.5 197.5q0 123 55 199t150 76q89 0 147 -71v280zM269 37q91 0 147 97v273q-56 79 -137 79q-71 0 -112.5 -59t-40.5 -167q0 -108 38 -165.5t105 -57.5z" />
    <glyph glyph-name="e" unicode="e" horiz-adv-x="535" 
d="M477 281q0 -22 -2 -42h-349q5 -102 48.5 -151.5t114.5 -49.5t141 52l27 -37q-78 -64 -171 -64q-104 0 -163 71t-59 197t56.5 201.5t152.5 75.5q100 0 152 -67.5t52 -185.5zM420 284v15q0 88 -36.5 137.5t-108.5 49.5q-65 0 -105 -50t-44 -152h294z" />
    <glyph glyph-name="f" unicode="f" horiz-adv-x="321" 
d="M260 695q-90 0 -90 -88v-84h138l-8 -47h-130v-476h-58v476h-91v47h91v86q0 62 38.5 98t106.5 36q61 0 122 -28l-20 -43q-52 23 -99 23z" />
    <glyph glyph-name="g" unicode="g" horiz-adv-x="506" 
d="M477 568l18 -56q-48 -13 -145 -15q89 -42 89 -142q0 -77 -51 -124.5t-138 -47.5q-39 0 -68 10q-40 -22 -40 -60q0 -54 83 -54h85q77 0 122.5 -37.5t45.5 -96.5q0 -72 -57 -111t-170 -39q-117 0 -167.5 35.5t-50.5 114.5h54q1 -56 36.5 -79t127.5 -23q168 0 168 99
q0 42 -31 64.5t-87 22.5h-85q-62 0 -95.5 26t-33.5 66q0 53 57 89q-88 45 -88 147q0 79 53 128t139 49q66 -1 111.5 4t65.5 11t52 19zM248 489q-65 0 -98.5 -36t-33.5 -96q0 -62 35.5 -97t96.5 -35q64 0 98 34.5t34 96.5q0 63 -33.5 98t-98.5 35z" />
    <glyph glyph-name="h" unicode="h" horiz-adv-x="581" 
d="M336 534q70 0 107.5 -42.5t37.5 -117.5v-374h-58v366q0 121 -98 121q-91 0 -162 -108v-379h-58v736l58 7v-306q71 97 173 97z" />
    <glyph glyph-name="i" unicode="i" horiz-adv-x="267" 
d="M133 753q20 0 32 -12t12 -30t-12 -30t-32 -12q-19 0 -31 12t-12 30t12 30t31 12zM163 523v-523h-58v523h58z" />
    <glyph glyph-name="j" unicode="j" horiz-adv-x="268" 
d="M134 753q20 0 32 -12t12 -30t-12 -30t-32 -12q-19 0 -31 12t-12 30t12 30t31 12zM164 523v-504q0 -99 -31.5 -142.5t-109.5 -79.5l-17 42q57 28 78.5 62t21.5 116v506h58z" />
    <glyph glyph-name="k" unicode="k" horiz-adv-x="487" 
d="M163 743v-743h-58v736zM456 523l-220 -234l243 -289h-70l-240 286l219 237h68z" />
    <glyph glyph-name="l" unicode="l" horiz-adv-x="290" 
d="M192 -11q-43 0 -68 25t-25 74v648l58 7v-653q0 -51 42 -51q22 0 37 7l15 -43q-28 -14 -59 -14z" />
    <glyph glyph-name="m" unicode="m" horiz-adv-x="849" 
d="M614 534q64 0 100 -43t36 -117v-374h-58v366q0 121 -89 121q-44 0 -79 -28t-68 -80v-379h-58v366q0 121 -88 121q-81 0 -147 -108v-379h-58v523h50l5 -87q66 98 161 98q49 0 83 -27.5t46 -76.5q67 104 164 104z" />
    <glyph glyph-name="n" unicode="n" horiz-adv-x="581" 
d="M336 534q71 0 108 -42t37 -118v-374h-58v366q0 121 -98 121q-91 0 -162 -108v-379h-58v523h50l5 -88q70 99 176 99z" />
    <glyph glyph-name="o" unicode="o" horiz-adv-x="571" 
d="M286 534q104 0 162.5 -71.5t58.5 -199.5q0 -127 -59.5 -200.5t-162.5 -73.5q-104 0 -162.5 72.5t-58.5 199.5q0 126 59.5 199.5t162.5 73.5zM286 485q-76 0 -118 -57t-42 -167q0 -109 41.5 -166t117.5 -57t118.5 57t42.5 168q0 109 -41.5 165.5t-118.5 56.5z" />
    <glyph glyph-name="p" unicode="p" horiz-adv-x="574" 
d="M320 534q95 0 142.5 -70.5t47.5 -199.5q0 -127 -51 -201t-147 -74q-92 0 -149 72v-258l-58 -8v728h50l4 -77q62 88 161 88zM301 38q148 0 148 226q0 222 -139 222q-82 0 -147 -90v-279q54 -79 138 -79z" />
    <glyph glyph-name="q" unicode="q" horiz-adv-x="579" 
d="M424 523h50v-728l-58 8v273q-54 -87 -156 -87q-91 0 -143.5 72.5t-52.5 197.5q0 123 55.5 199t150.5 76q90 0 150 -74zM270 37q91 0 146 96v275q-55 78 -136 78q-71 0 -113 -59t-41 -167q0 -108 38 -165.5t106 -57.5z" />
    <glyph glyph-name="r" unicode="r" horiz-adv-x="372" 
d="M307 534q33 0 52 -6l-11 -55q-21 6 -46 6q-53 0 -85 -38.5t-54 -120.5v-320h-58v523h50l5 -117q40 128 147 128z" />
    <glyph glyph-name="s" unicode="s" horiz-adv-x="458" 
d="M231 534q92 0 167 -58l-27 -38q-69 48 -138 48q-52 0 -84 -24t-32 -64q0 -38 27.5 -59t99.5 -40q90 -23 129 -58t39 -100q0 -71 -53.5 -111.5t-135.5 -40.5q-108 0 -187 67l32 37q71 -55 155 -55q58 0 93 26.5t35 73.5t-27.5 70t-109.5 46q-84 22 -120.5 55t-36.5 88
q0 60 49.5 98.5t124.5 38.5z" />
    <glyph glyph-name="t" unicode="t" horiz-adv-x="344" 
d="M321 62l23 -40q-50 -33 -110 -33t-94 35.5t-34 102.5v349h-88v47h88v125l58 7v-132h135l-7 -47h-128v-346q0 -91 77 -91q40 0 80 23z" />
    <glyph glyph-name="u" unicode="u" horiz-adv-x="576" 
d="M471 523v-523h-49l-4 93q-60 -104 -171 -104q-70 0 -109 41.5t-39 118.5v374h58v-368q0 -61 25.5 -89.5t78.5 -28.5q90 0 152 107v379h58z" />
    <glyph glyph-name="v" unicode="v" horiz-adv-x="470" 
d="M455 523l-181 -523h-72l-187 523h64l159 -472l155 472h62z" />
    <glyph glyph-name="w" unicode="w" horiz-adv-x="698" 
d="M673 523l-128 -523h-78l-116 469l-118 -469h-77l-131 523h60l112 -478l122 478h66l120 -479l111 479h57z" />
    <glyph glyph-name="x" unicode="x" horiz-adv-x="459" 
d="M264 280l184 -280h-70l-151 243l-150 -243h-67l184 278l-160 245h68l128 -209l129 209h66z" />
    <glyph glyph-name="y" unicode="y" horiz-adv-x="468" 
d="M452 523l-179 -525q-31 -91 -77 -137.5t-137 -64.5l-6 45q75 18 106 51.5t58 107.5h-20l-182 523h63l158 -480l155 480h61z" />
    <glyph glyph-name="z" unicode="z" horiz-adv-x="417" 
d="M388 523v-45l-292 -428h290l-6 -50h-352v45l292 428h-268v50h336z" />
    <glyph glyph-name="braceleft" unicode="{" horiz-adv-x="326" 
d="M262 828v-45q-47 0 -67 -18.5t-20 -59.5v-254q0 -49 -18 -70t-58 -32q41 -11 58.5 -31.5t17.5 -70.5v-253q0 -41 20 -59.5t67 -18.5v-45q-74 0 -108 29.5t-34 95.5v255q0 39 -18.5 56t-57.5 17v50q39 0 57.5 17t18.5 57v255q0 66 34 95.5t108 29.5z" />
    <glyph glyph-name="bar" unicode="|" horiz-adv-x="407" 
d="M230 804v-904h-54v904h54z" />
    <glyph glyph-name="braceright" unicode="}" horiz-adv-x="326" 
d="M64 828q73 0 107.5 -29.5t34.5 -95.5v-255q0 -40 18.5 -57t57.5 -17v-50q-39 0 -57.5 -17t-18.5 -56v-255q0 -66 -34.5 -95.5t-107.5 -29.5v45q47 0 67 18.5t20 59.5v253q0 50 17.5 70.5t58.5 31.5q-40 11 -58 32t-18 70v254q0 41 -20 59.5t-67 18.5v45z" />
    <glyph glyph-name="asciitilde" unicode="~" horiz-adv-x="472" 
d="M312 264q-34 0 -84 29t-70 29q-36 0 -70 -47l-37 20q22 36 47.5 56t63.5 20q35 0 84 -29t70 -29q36 0 68 44l36 -20q-44 -73 -108 -73z" />
    <glyph glyph-name="uni00A0" unicode="&#xa0;" horiz-adv-x="279" 
 />
    <glyph glyph-name="exclamdown" unicode="&#xa1;" horiz-adv-x="240" 
d="M120 475q21 0 34.5 -14t13.5 -34t-13.5 -33.5t-34.5 -13.5t-34.5 13.5t-13.5 33.5t13.5 34t34.5 14zM147 249l5 -446h-62l5 446h52z" />
    <glyph glyph-name="cent" unicode="&#xa2;" horiz-adv-x="469" 
d="M436 45q-56 -48 -125 -55v-140h-51v140q-90 9 -143 79.5t-53 188.5t53.5 192t143.5 83v147h50v-147q69 -6 122 -52l-29 -38q-52 41 -116 41q-74 0 -118 -57.5t-44 -167.5q0 -109 43.5 -164t117.5 -55q63 0 121 44z" />
    <glyph glyph-name="sterling" unicode="&#xa3;" horiz-adv-x="509" 
d="M192 171q0 -49 -15 -75t-52 -45h328l-7 -51h-395v48q48 21 65.5 46t17.5 76v161h-65v43h65v126q0 77 45 126.5t127 49.5q97 0 162 -75l-39 -31q-50 57 -121 57q-56 0 -86 -34.5t-30 -93.5v-125h214v-43h-214v-160z" />
    <glyph glyph-name="currency" unicode="&#xa4;" horiz-adv-x="560" 
d="M473 341q0 -74 -41 -126l79 -77l-36 -36l-79 79q-49 -35 -116 -35t-115 37l-81 -81l-35 36l81 79q-40 52 -40 124q0 71 39 122l-80 80l36 36l80 -80q49 36 115 36q67 0 116 -35l80 79l35 -36l-78 -78q40 -52 40 -124zM281 193q66 0 101 40t35 108t-35 108t-101 40
q-65 0 -100 -40t-35 -108t35 -108t100 -40z" />
    <glyph glyph-name="yen" unicode="&#xa5;" horiz-adv-x="512" 
d="M499 665l-195 -327h118v-43h-136v-103h136v-43h-136v-149h-59v149h-136v43h136v103h-136v43h117l-195 327h66l179 -312l178 312h63z" />
    <glyph glyph-name="brokenbar" unicode="&#xa6;" horiz-adv-x="407" 
d="M230 804v-361h-54v361h54zM230 262v-362h-54v362h54z" />
    <glyph glyph-name="section" unicode="&#xa7;" horiz-adv-x="532" 
d="M372 167q54 -35 54 -99q0 -62 -49 -99t-126 -37q-89 0 -163 47l25 41q61 -40 140 -40q52 0 83 23t31 60q0 39 -24 59.5t-100 47.5q-89 29 -124 59.5t-35 87.5q0 73 79 124q-54 36 -54 99q0 61 47 98t120 37q84 0 158 -49l-24 -39q-64 40 -134 40q-50 0 -79.5 -23.5
t-29.5 -60.5q0 -38 25.5 -59.5t104.5 -48.5q82 -28 117 -60t35 -86q0 -71 -77 -122zM141 323q0 -41 23.5 -62t95.5 -46q51 -18 75 -29q57 43 57 96q0 40 -23 62.5t-95 47.5q-44 15 -75 30q-58 -45 -58 -99z" />
    </font>
</defs>
</svg>
