<?xml version="1.0" standalone="no"?>
<!DOCTYPE svg PUBLIC "-//W3C//DTD SVG 1.1//EN" "http://www.w3.org/Graphics/SVG/1.1/DTD/svg11.dtd" >
<svg xmlns="http://www.w3.org/2000/svg" xmlns:xlink="http://www.w3.org/1999/xlink" version="1.1">
<metadata>
Created by FontForge 20170731 at Tue Mar 20 17:52:51 2018
 By Aleksey,,,
Digitized data copyright 2012-2018 for FiraGO, bBox Type GmbH and HERE Europe B.V. All rights reserved, with Reserved Font Name "Fira" / Digitized data copyright 2012-2018 for Fira Sans The Mozilla Foundation, Telefonica S.A., Carrois Corporate GbR and bBox Type GmbH, with Reserved Font Name "Fira"
</metadata>
<defs>
<font id="FiraGO-FourItalic" horiz-adv-x="0" >
  <font-face 
    font-family="FiraGO Four"
    font-weight="100"
    font-style="italic"
    font-stretch="normal"
    units-per-em="1000"
    panose-1="2 11 2 3 5 0 0 2 0 4"
    ascent="800"
    descent="-200"
    x-height="517"
    cap-height="680"
    bbox="-737 -702 2511 1428"
    underline-thickness="50"
    underline-position="-200"
    slope="-8"
    unicode-range="U+000D-FEFF"
  />
<missing-glyph horiz-adv-x="666" 
d="M654 1050l-197 -1400h-420l197 1400h420zM648 1044h-409l-196 -1388h409zM351 451q110 0 95 -115q-8 -53 -34.5 -82t-76.5 -36l-7 -45q-2 -11 -10.5 -17.5t-17.5 -6.5q-7 0 -12.5 3t-8 8.5t-1.5 12.5l12 84q53 3 74.5 20t27.5 57q4 33 -6.5 51t-45.5 18q-28 0 -53 -11
q-8 -3 -13 -3q-11 0 -17 6.5t-5 16.5q3 19 34 29t65 10zM295 120q15 0 24 -10t7 -25q-2 -10 -7.5 -18.5t-14 -13.5t-18.5 -5q-15 0 -23.5 10.5t-6.5 26.5q2 15 13 25t26 10z" />
    <glyph glyph-name="fi" unicode="fi" horiz-adv-x="540" 
d="M452 517l-72 -517h-4l71 513h-280l-73 -512q-12 -86 -39 -124.5t-87 -67.5l-2 2q59 30 86 68t38 123l73 511h-93l1 4h92l14 101q8 56 44 85.5t92 29.5q65 0 123 -38l-2 -2q-58 37 -121 37q-55 0 -89.5 -28.5t-42.5 -83.5l-14 -101h285z" />
    <glyph glyph-name="fl" unicode="fl" horiz-adv-x="574" 
d="M486 3l1 -4q-21 -8 -43 -8q-63 0 -53 74l91 633q-84 32 -158 32q-59 0 -97 -28.5t-46 -83.5l-14 -101h150l-1 -4h-149l-73 -512q-12 -86 -39 -124.5t-87 -67.5l-2 2q59 30 86 68t38 123l73 511h-93l1 4h92l14 101q6 37 25.5 63.5t50.5 39t71 12.5q76 0 160 -32h2
l-91 -636q-9 -70 50 -70q21 0 41 8z" />
    <glyph glyph-name="uniFDF2" unicode="&#x627;&#xfedf;&#xfee0;&#xfeea;" horiz-adv-x="1060" arabic-form="isolated" 
d="M547 737h-3l-6 144l3 1zM951 730l10 -730h-4l-10 730h4zM500 575q-50 0 -50 65q0 28 9 53l3 -1q-9 -23 -9 -52q0 -61 47 -61q24 0 37 18t13 44v47h3v-47q0 -17 5.5 -30.5t17 -22.5t26.5 -9q50 0 50 61q0 36 -19 74l3 1q19 -41 19 -75q0 -32 -14 -48.5t-38 -16.5
q-23 0 -36.5 16t-14.5 39q-3 -23 -16 -39t-36 -16zM756 611h4l10 -541q-9 -29 -36 -49.5t-71 -20.5q-18 0 -33.5 3.5t-28.5 10t-22.5 16t-15.5 23t-9 29.5q-16 -82 -107 -82q-49 0 -77.5 28t-31.5 78q-75 -63 -163 -63q-57 0 -94 22.5t-51 50.5q0 86 84.5 152.5t216.5 89.5
l-2 79h4l8 -327q2 -51 30 -78.5t76 -27.5q91 0 105 85l-10 431h4l10 -416q3 -100 107 -100q42 0 68 19.5t35 46.5zM175 47q85 0 163 62l-7 246q-86 -15 -153 -49.5t-105.5 -84t-38.5 -105.5q15 -27 51 -48t90 -21z" />
    <glyph glyph-name="uniFEF5" unicode="&#xfedf;&#xfe82;" horiz-adv-x="631" arabic-form="isolated" 
d="M199 735q-21 -14 -35 -19.5t-31 -5.5q-16 0 -41.5 11.5t-38.5 11.5q-15 0 -29 -10t-22 -26l-3 1q8 17 23 27.5t31 10.5q13 0 39 -11t41 -11q12 0 22.5 2.5t19 7.5t23.5 14zM432 287q94 -110 105 -219q-30 -32 -96 -50t-156 -18h-162v4q223 133 305 282q-31 36 -78.5 80.5
t-81.5 74t-106 89.5l-66 55l4 2l64 -54q74 -62 106.5 -89.5t80.5 -72.5t79 -81q66 121 58 284l-7 156h4l7 -157q7 -163 -60 -286zM285 4q88 0 153 17.5t95 48.5q-12 106 -103 213q-82 -148 -301 -279h156z" />
    <glyph glyph-name="uniFEF6" unicode="&#xfee0;&#xfe82;" horiz-adv-x="630" arabic-form="final" 
d="M630 4l2 -2l-2 -2q-19 0 -36 5.5t-30 15t-21.5 21t-11.5 24.5q-36 -66 -193 -66h-242v4h243q76 0 123 16l-293 508l4 1l31 -53q230 -399 261 -455q46 16 65 47l-11 662l4 1l10 -660q6 -27 33 -47t64 -20zM202 640q-16 0 -41 11t-38 11q-15 0 -29 -10t-22 -25l-3 1
q8 17 23 27.5t31 10.5q13 0 38.5 -11.5t41.5 -11.5q17 0 30 5.5t34 19.5l2 -3q-22 -14 -35.5 -19.5t-31.5 -5.5z" />
    <glyph glyph-name="uniFEF7" unicode="&#xfedf;&#xfe84;" horiz-adv-x="631" arabic-form="isolated" 
d="M184 721v-4l-171 -26v3l85 13q-66 37 -66 85q0 27 20 45.5t58 18.5q27 0 53 -12l-1 -3q-25 12 -52 12q-36 0 -55.5 -17.5t-19.5 -43.5q0 -47 67 -84zM432 287q94 -110 105 -219q-30 -32 -96 -50t-156 -18h-162v4q223 133 305 282q-31 36 -78.5 80.5t-81.5 74t-106 89.5
l-66 55l4 2l64 -54q74 -62 106.5 -89.5t80.5 -72.5t79 -81q66 121 58 284l-7 156l4 1l7 -158q7 -163 -60 -286zM285 4q88 0 153 17.5t95 48.5q-12 106 -103 213q-82 -148 -301 -279h156z" />
    <glyph glyph-name="uniFEF8" unicode="&#xfee0;&#xfe84;" horiz-adv-x="630" arabic-form="final" 
d="M254 650v-3l-171 -26v3l84 13q-66 37 -66 84q0 18 8.5 32t27 23.5t43.5 9.5q27 0 52 -12v-3q-26 12 -52 12q-37 0 -56 -18t-19 -43q0 -47 67 -84zM630 4l2 -2l-2 -2q-37 0 -65 20t-34 46q-36 -66 -192 -66h-243v4h243q76 0 123 16l-293 508l4 1l31 -53q230 -399 261 -455
q46 16 65 47l-11 662l4 1l10 -660q6 -27 33 -47t64 -20z" />
    <glyph glyph-name="uniFEF9" unicode="&#xfedf;&#xfe88;" horiz-adv-x="631" arabic-form="isolated" 
d="M432 287q94 -110 105 -219q-30 -32 -96 -50t-156 -18h-162v4q223 133 305 282q-31 36 -78.5 80.5t-81.5 74t-106 89.5l-66 55l4 2l64 -54q74 -62 106.5 -89.5t80.5 -72.5t79 -81q66 121 58 284l-7 156l4 1l7 -158q7 -163 -60 -286zM285 4q88 0 153 17.5t95 48.5
q-12 106 -103 213q-82 -148 -301 -279h156zM126 -132q0 -47 67 -84l82 13v-4l-171 -26v4l84 13q-66 36 -66 84q0 27 20.5 46t58.5 19q27 0 52 -12v-4q-26 12 -52 12q-37 0 -56 -17.5t-19 -43.5z" />
    <glyph glyph-name="uniFEFA" unicode="&#xfee0;&#xfe88;" horiz-adv-x="630" arabic-form="final" 
d="M630 4l2 -2l-2 -2q-19 0 -36 5.5t-30 15t-21.5 21t-11.5 24.5q-36 -66 -193 -66h-242v4h243q76 0 123 16l-293 508l4 1l31 -53q230 -399 261 -455q46 16 65 47l-11 662l4 1l10 -660q6 -27 33 -47t64 -20zM126 -132q0 -47 67 -84l82 13v-4l-171 -26v4l84 13q-66 36 -66 84
q0 17 8.5 31.5t26.5 24t44 9.5q27 0 52 -12v-4q-26 12 -52 12q-37 0 -56 -17.5t-19 -43.5z" />
    <glyph glyph-name="uniFEFB" unicode="&#xfedf;&#xfe8e;" horiz-adv-x="631" arabic-form="isolated" 
d="M432 287q94 -110 105 -219q-30 -32 -96 -50t-156 -18h-162v4q223 133 305 282q-31 36 -78.5 80.5t-81.5 74t-106 89.5l-66 55l4 2l64 -54q74 -62 106.5 -89.5t80.5 -72.5t79 -81q66 121 58 284l-7 156l4 1l7 -158q7 -163 -60 -286zM285 4q88 0 153 17.5t95 48.5
q-12 106 -103 213q-82 -148 -301 -279h156z" />
    <glyph glyph-name="uniFEFC" unicode="&#xfee0;&#xfe8e;" horiz-adv-x="630" arabic-form="final" 
d="M630 4l2 -2l-2 -2q-19 0 -36 5.5t-30 15t-21.5 21t-11.5 24.5q-36 -66 -193 -66h-242v4h243q76 0 123 16l-293 508l4 1l31 -53q230 -399 261 -455q46 16 65 47l-11 662l4 1l10 -660q6 -27 33 -47t64 -20z" />
    <glyph glyph-name="f_f" unicode="ff" horiz-adv-x="590" 
d="M596 730q-49 0 -83 -29t-42 -83l-14 -101h150v-4h-150l-72 -512q-8 -53 -21 -87t-31.5 -53.5t-47.5 -34.5l-2 2q43 23 65.5 60.5t32.5 113.5l72 511h-287l-72 -512q-12 -86 -39 -124.5t-87 -67.5l-2 2q59 30 85.5 68t38.5 123l72 511h-92l1 4h92l12 91q8 56 47.5 86
t98.5 30q82 0 164 -52q34 62 111 62q61 0 110 -37l-3 -3q-48 36 -107 36zM453 517l15 101q4 29 15 51q-82 52 -162 52q-57 0 -95.5 -29.5t-46.5 -83.5l-12 -91h286z" />
    <glyph glyph-name="f_f_i" unicode="ffi" horiz-adv-x="830" 
d="M742 517l-72 -517h-4l71 513h-280l-72 -512q-8 -53 -21 -87t-31.5 -53.5t-47.5 -34.5l-2 2q43 23 65.5 60.5t32.5 113.5l72 511h-287l-72 -512q-12 -86 -39 -124.5t-87 -67.5l-2 2q59 30 85.5 68t39.5 123l71 511h-92l1 4h92l12 91q8 56 47.5 86t98.5 30q83 0 164 -52
q35 61 118 61q66 0 124 -38l-3 -2q-57 37 -121 37q-54 0 -89 -28.5t-43 -83.5l-14 -101h285zM453 517l15 101q4 29 16 51q-83 52 -163 52q-38 0 -68 -13t-49.5 -38.5t-24.5 -61.5l-12 -91h286z" />
    <glyph glyph-name="f_f_j" unicode="ffj" horiz-adv-x="835" 
d="M747 517l-72 -516q-6 -40 -14 -68.5t-21 -48.5t-28 -33.5t-37 -24.5l-2 2q43 23 65 60t33 114l71 511h-285l-72 -512q-8 -53 -21 -87t-31.5 -53.5t-47.5 -34.5l-2 2q43 23 65 60t33 114l72 511h-287l-72 -512q-12 -86 -39 -124.5t-87 -67.5l-2 2q59 30 85.5 68t39.5 123
l71 511h-92l1 4h92l12 91q8 56 47.5 86t98.5 30q83 0 164 -52q35 61 118 61q66 0 124 -38l-3 -2q-57 37 -121 37q-54 0 -89 -28.5t-43 -83.5l-14 -101h290zM453 517l15 101q4 29 16 51q-83 52 -163 52q-57 0 -95.5 -29.5t-46.5 -83.5l-12 -91h286z" />
    <glyph glyph-name="f_f_l" unicode="ffl" horiz-adv-x="864" 
d="M777 3v-4q-21 -8 -42 -8q-63 0 -53 74l90 633q-84 32 -158 32q-59 0 -97 -28.5t-46 -83.5l-14 -101h150v-4h-150l-72 -512q-11 -77 -33.5 -114.5t-66.5 -60.5l-2 2q43 23 65.5 60.5t32.5 113.5l72 511h-287l-72 -512q-12 -86 -39 -124.5t-87 -67.5l-2 2q59 30 85.5 68
t39.5 123l71 511h-92l1 4h92l12 91q8 56 47.5 86t98.5 30q83 0 165 -53l-2 -2q-83 52 -163 52q-57 0 -95.5 -29.5t-46.5 -83.5l-12 -91h286l15 101q5 37 24.5 63.5t50.5 39t71 12.5q77 0 160 -32h2l-90 -636q-10 -70 49 -70q21 0 42 8z" />
    <glyph glyph-name="f_j" unicode="fj" horiz-adv-x="545" 
d="M457 517l-72 -516q-11 -77 -33.5 -114.5t-66.5 -60.5l-2 2q43 23 65 60t33 114l71 511h-285l-73 -512q-12 -86 -39 -124.5t-87 -67.5l-2 2q59 30 86 68t38 123l73 511h-93l1 4h92l14 101q8 56 44 85.5t92 29.5q65 0 123 -38l-2 -2q-58 37 -121 37q-55 0 -89.5 -28.5
t-42.5 -83.5l-14 -101h290z" />
    <glyph glyph-name="uni0E240E45" unicode="&#xe24;&#xe45;" horiz-adv-x="878" 
d="M626 575q96 0 133 -46.5t26 -135.5l-57 -409l-27 -188h-4l27 188l57 410q7 58 -5 96t-49 59.5t-101 21.5q-84 0 -186 -32q68 -42 53 -150l-32 -230l-22 -159l-27 -188h-4l27 188l54 388q24 173 -163 173q-74 0 -130 -34t-90 -79q75 -10 144 -49v-3q-69 -13 -100 -55
t-42 -114l-21 -145q-13 -87 50 -87q27 0 56 10l1 -4q-31 -10 -57 -10q-67 0 -54 91l21 145q11 72 42.5 115t98.5 56q-69 37 -144 47l1 3q33 47 90.5 82t133.5 35q69 0 110 -24q105 34 190 34z" />
    <glyph glyph-name="uni0E260E45" unicode="&#xe26;&#xe45;" horiz-adv-x="874" 
d="M622 575q97 0 134 -46.5t26 -135.5h-1l-56 -409l-27 -188h-4l27 188l57 410q10 87 -25.5 132t-130.5 45q-83 0 -185 -32q68 -42 53 -150l-33 -230l-21 -159l-27 -188h-4l27 188l54 389q24 172 -163 172q-74 0 -130 -34t-90 -79q75 -10 144 -49v-4q-37 -9 -60 -23t-36 -36
t-18.5 -43t-11.5 -57l-16 -113q-4 -28 -6 -41.5t-8.5 -33t-14.5 -28t-22.5 -15.5t-34.5 -7q-8 0 -16 1v3q7 -1 16 -1q11 0 20 2.5t16 5t13 9.5t9.5 11t7.5 15t5.5 16t4 20t3.5 20.5t3 23.5l16 112q5 36 11 57.5t19 44t36 36.5t59 24q-69 37 -144 47v3q34 47 91.5 82
t133.5 35q69 0 110 -24q104 34 189 34z" />
    <glyph glyph-name="uni06440671" unicode="&#xfedf;&#xfb51;" horiz-adv-x="631" 
d="M125 686q-35 0 -103 23l-17 -49l-2 2l17 50q19 -6 32 -10q49 95 107 95q31 0 45 -15t14 -36q0 -18 -11 -31.5t-32 -21t-50 -7.5zM159 794q-57 0 -104 -93q42 -12 70 -12q42 0 65.5 15.5t23.5 41.5q0 20 -13 34t-42 14zM432 287q94 -110 105 -219q-30 -32 -96 -50
t-156 -18h-162v4q223 133 305 282q-31 36 -78.5 80.5t-81.5 74t-106 89.5l-66 55l4 2l64 -54q74 -62 106.5 -89.5t80.5 -72.5t79 -81q66 121 58 284l-7 156l4 1l7 -158q7 -163 -60 -286zM285 4q88 0 153 17.5t95 48.5q-12 106 -103 213q-82 -148 -301 -279h156z" />
    <glyph glyph-name="uni06440671.fina" unicode="&#xfee0;&#xfb51;" horiz-adv-x="630" 
d="M630 4l2 -2l-2 -2q-19 0 -36 5.5t-30 15t-21.5 21t-11.5 24.5q-36 -66 -193 -66h-242v4h243q76 0 123 16l-293 508l4 1l31 -53q230 -399 261 -455q46 16 65 47l-11 662l4 1l10 -660q6 -27 33 -47t64 -20zM195 616q-35 0 -103 22l-17 -48l-3 1l18 51q18 -6 32 -10
q49 95 107 95q30 0 44 -15t14 -37q0 -27 -24.5 -43t-67.5 -16zM229 724q-57 0 -104 -93q42 -12 70 -12t48 7t30.5 19.5t10.5 29.5q0 20 -13 34.5t-42 14.5z" />
    <glyph glyph-name="uni0E1B0E31" unicode="&#xe1b;&#xe31;" horiz-adv-x="594" 
d="M687 708q-67 -21 -148 -29l-17 -122l-49 -349q-15 -106 -61.5 -160.5t-140.5 -54.5t-127 54.5t-18 160.5l32 240q9 63 -5 108h4q15 -45 5 -108l-32 -239q-15 -106 17 -159t124 -53q93 0 138 53.5t60 158.5l49 348l17 121q-33 -3 -58 -3q-41 0 -59 10.5t-18 35.5
q0 28 15 51h4q-16 -24 -16 -50q0 -12 4 -20.5t13.5 -13.5t23 -7t33.5 -2q25 0 59 3l11 83h4l-11 -83q81 9 147 29v-3z" />
    <glyph glyph-name="uni0E1B0E49" unicode="&#xe1b;&#xe49;" horiz-adv-x="594" 
d="M547 765h4l-29 -208l-49 -349q-15 -106 -61.5 -160.5t-140.5 -54.5t-127 54.5t-19 160.5l33 240q9 63 -5 108h4q15 -45 5 -108l-33 -239q-14 -106 18 -159t124 -53q93 0 138 53.5t60 158.5l49 348l29 203q-54 -51 -113.5 -68.5t-170.5 -17.5l-2 2q49 36 49 84
q0 21 -13 34.5t-37 13.5q-20 0 -43 -7v4q23 7 43 7q25 0 39.5 -14.5t14.5 -37.5q0 -22 -13 -45t-32 -37q108 0 166 18t112 69z" />
    <glyph glyph-name="uni0E1B0E4A" unicode="&#xe1b;&#xe4a;" horiz-adv-x="594" 
d="M547 765h4l-29 -208l-49 -349q-15 -106 -61.5 -160.5t-140.5 -54.5t-127 54.5t-18 160.5l32 240q9 63 -5 108h4q15 -45 5 -108l-32 -239q-15 -106 17 -159t124 -53q93 0 138 53.5t60 158.5l49 348l28 201q-55 -82 -174 -82q-10 0 -17 1q15 37 15 70q0 27 -15.5 44
t-46.5 17q-35 0 -60 -29t-30 -67l-4 -26h-4l4 26q5 40 -11 68t-54.5 28t-61 -27.5t-22.5 -70.5q0 -20 3 -33h-4q-3 13 -3 33q0 29 11 52.5t31 36.5t46 13q38 0 54 -25t15 -58q4 14 11 28t18 26.5t27 20.5t34 8q33 0 49.5 -18t16.5 -47q0 -32 -15 -67h13q121 0 175 85z" />
    <glyph glyph-name="uni0E1B0E4B" unicode="&#xe1b;&#xe4b;" horiz-adv-x="594" 
d="M386 677l8 63h-76l2 3h76l8 59l3 1l-8 -60h77l-1 -3h-77l-8 -63h-4zM547 765h4l-29 -208l-49 -349q-15 -106 -61.5 -160.5t-140.5 -54.5t-127 54.5t-18 160.5l32 240q9 63 -5 108h4q15 -45 5 -108l-32 -239q-15 -106 17 -159t124 -53q93 0 138 53.5t60 158.5l49 348z" />
    <glyph glyph-name="uni0E1B0E4C" unicode="&#xe1b;&#xe4c;" horiz-adv-x="594" 
d="M613 732v-4h-67l-24 -171l-49 -349q-15 -106 -61.5 -160.5t-140.5 -54.5t-127 54.5t-18 161.5l32 239q9 63 -5 108h4q15 -45 5 -108l-32 -239q-15 -106 17 -159t124 -53q93 0 138 53.5t60 158.5l49 348l24 171h-100q-69 0 -69 -63q0 -9 2 -27h-4q-2 18 -2 27q0 67 73 67
h101l4 33h4l-4 -33h66z" />
    <glyph glyph-name="uni0E1B0E4D" unicode="&#xe1b;&#xe4d;" horiz-adv-x="594" 
d="M390 675q-27 0 -43 15.5t-16 41.5q0 30 20.5 55t58.5 25q27 0 43 -16t16 -42q0 -30 -20.5 -54.5t-58.5 -24.5zM410 808q-37 0 -56 -23.5t-19 -52.5q0 -25 15 -39t40 -14q37 0 56.5 23.5t19.5 51.5q0 25 -15.5 39.5t-40.5 14.5zM547 765h4l-29 -208l-49 -349
q-15 -106 -61.5 -160.5t-140.5 -54.5t-127 54.5t-18 160.5l32 240q9 63 -5 108h4q15 -45 5 -108l-32 -239q-15 -106 17 -159t124 -53q93 0 138 53.5t60 158.5l49 348z" />
    <glyph glyph-name="uni0E1D0E31" unicode="&#xe1d;&#xe31;" horiz-adv-x="711" 
d="M804 708q-67 -21 -148 -29l-17 -122l-44 -316q-8 -58 -21 -102t-28 -72t-34.5 -45t-39 -24t-42.5 -7q-50 0 -75.5 40t-17.5 119q-29 -159 -136 -159q-27 0 -47.5 12t-36 40.5t-18.5 77t6 120.5l12 90q17 122 51.5 178t103.5 56q33 0 50 -8l-1 -4q-16 8 -49 8
q-67 0 -101 -55t-50 -175l-12 -90q-8 -72 -5.5 -119.5t17.5 -75.5t34.5 -39.5t45.5 -11.5q111 0 137 180l16 114h4l-16 -116q-12 -92 12.5 -135t75.5 -43q28 0 51 11.5t45 38t38.5 76t26.5 120.5l44 316l17 121q-33 -3 -58 -3q-41 0 -59 10.5t-18 35.5q0 28 16 51h4
q-16 -24 -16 -50q0 -16 7.5 -25.5t23 -13.5t42.5 -4q26 0 59 3l12 83h3l-11 -83q81 9 147 29v-3z" />
    <glyph glyph-name="uni0E1D0E49" unicode="&#xe1d;&#xe49;" horiz-adv-x="711" 
d="M665 765h3l-29 -208l-44 -316q-8 -58 -21 -102t-28 -72t-34.5 -45t-39 -24t-42.5 -7q-50 0 -75.5 40t-17.5 119q-29 -159 -136 -159q-27 0 -47.5 12t-36 40.5t-18.5 77t6 120.5l12 90q17 122 51.5 178t103.5 56q33 0 50 -8l-1 -4q-16 8 -49 8q-67 0 -101 -55t-50 -175
l-12 -90q-8 -72 -5.5 -119.5t17.5 -75.5t34.5 -39.5t45.5 -11.5q111 0 137 180l16 114h4l-16 -116q-12 -92 12.5 -135t75.5 -43q28 0 51 11.5t45 38t38.5 76t26.5 120.5l44 316l29 203q-54 -51 -113.5 -68.5t-170.5 -17.5l-2 2q50 36 50 84q0 21 -13.5 34.5t-37.5 13.5
q-20 0 -42 -7v4q23 7 43 7q16 0 28.5 -7t19 -18.5t6.5 -26.5q0 -22 -13 -45t-33 -37q108 0 166 18t112 69h1z" />
    <glyph glyph-name="uni0E1D0E4A" unicode="&#xe1d;&#xe4a;" horiz-adv-x="711" 
d="M665 765h4l-30 -208l-44 -316q-8 -58 -21 -102t-28 -72t-34.5 -45t-39 -24t-42.5 -7q-50 0 -75.5 40t-17.5 119q-29 -159 -136 -159q-27 0 -47.5 12t-36 40.5t-18.5 77t6 120.5l12 90q17 122 51.5 178t103.5 56q33 0 50 -8l-1 -4q-16 8 -49 8q-67 0 -101 -55t-50 -175
l-12 -90q-8 -72 -5.5 -119.5t17.5 -75.5t34.5 -39.5t45.5 -11.5q111 0 137 180l16 114h4l-16 -116q-12 -92 12.5 -135t75.5 -43q28 0 51 11.5t45 38t38.5 76t26.5 120.5l44 316l29 201q-55 -82 -174 -82q-10 0 -18 1q15 37 15 70q0 27 -15 44t-47 17q-34 0 -59.5 -29
t-30.5 -67l-4 -26h-4l4 26q5 40 -10.5 68t-54 28t-61.5 -27.5t-23 -70.5q0 -20 3 -33h-3q-3 13 -3 33q0 29 10.5 52.5t30.5 36.5t46 13q39 0 54.5 -25t14.5 -58q8 32 32 57.5t59 25.5q22 0 37 -9t21.5 -23t6.5 -33q0 -32 -14 -67h13q121 0 175 85z" />
    <glyph glyph-name="uni0E1D0E4B" unicode="&#xe1d;&#xe4b;" horiz-adv-x="711" 
d="M504 677l8 63h-76l1 3h76l8 59l4 1l-8 -60h76l-1 -3h-76l-9 -63h-3zM665 765h4l-30 -208l-44 -316q-8 -58 -21 -102t-28 -72t-34.5 -45t-39 -24t-42.5 -7q-50 0 -75.5 40t-17.5 119q-29 -159 -136 -159q-27 0 -47.5 12t-36 40.5t-18.5 77t6 120.5l12 90q17 122 51.5 178
t103.5 56q33 0 50 -8l-1 -4q-16 8 -49 8q-67 0 -101 -55t-50 -175l-12 -90q-8 -72 -5.5 -119.5t17.5 -75.5t34.5 -39.5t45.5 -11.5q111 0 137 180l16 114h4l-16 -116q-12 -92 12.5 -135t75.5 -43q28 0 51 11.5t45 38t38.5 76t26.5 120.5l44 316z" />
    <glyph glyph-name="uni0E1D0E4C" unicode="&#xe1d;&#xe4c;" horiz-adv-x="711" 
d="M730 732v-4h-67l-24 -171l-44 -316q-8 -58 -21 -102t-28 -72t-34.5 -45t-39 -24t-42.5 -7q-50 0 -75.5 40t-17.5 119q-29 -159 -136 -159q-27 0 -47.5 12t-36 40.5t-18.5 77t6 120.5l12 90q17 122 51.5 178t103.5 56q33 0 50 -8l-1 -4q-16 8 -49 8q-67 0 -101 -55
t-50 -175l-12 -90q-8 -72 -5.5 -119.5t17.5 -75.5t34.5 -39.5t45.5 -11.5q111 0 137 180l16 114h4l-16 -116q-12 -92 12.5 -135t75.5 -43q28 0 51 11.5t45 38t38.5 76t26.5 120.5l44 316l24 171h-100q-69 0 -69 -63q0 -9 2 -27h-4q-2 18 -2 27q0 67 73 67h101l5 33h3l-4 -33
h66z" />
    <glyph glyph-name="uni0E1D0E4D" unicode="&#xe1d;&#xe4d;" horiz-adv-x="711" 
d="M507 675q-26 0 -42 15.5t-16 41.5q0 30 20 55t59 25q26 0 42.5 -16t16.5 -42q0 -30 -20.5 -54.5t-59.5 -24.5zM528 808q-38 0 -56.5 -23.5t-18.5 -52.5q0 -25 14.5 -39t39.5 -14t43 12.5t25.5 29t7.5 33.5t-7 29t-19.5 18.5t-28.5 6.5zM665 765h4l-30 -208l-44 -316
q-8 -58 -21 -102t-28 -72t-34.5 -45t-39 -24t-42.5 -7q-50 0 -75.5 40t-17.5 119q-29 -159 -136 -159q-27 0 -47.5 12t-36 40.5t-18.5 77t6 120.5l12 90q17 122 51.5 178t103.5 56q33 0 50 -8l-1 -4q-16 8 -49 8q-67 0 -101 -55t-50 -175l-12 -90q-8 -72 -5.5 -119.5
t17.5 -75.5t34.5 -39.5t45.5 -11.5q111 0 137 180l16 114h4l-16 -116q-12 -92 12.5 -135t75.5 -43q28 0 51 11.5t45 38t38.5 76t26.5 120.5l44 316z" />
    <glyph glyph-name="uni0E1F0E31" unicode="&#xe1f;&#xe31;" horiz-adv-x="768" 
d="M905 708q-70 -22 -154 -30l-37 -121l-168 -557h-6l-116 553l-272 -553h-5l7 455q1 73 -19 108h4q20 -33 19 -109l-8 -450l273 553h5l115 -553l167 553l37 121q-30 -3 -52 -3q-41 0 -59 10.5t-18 35.5q0 28 16 51h3q-15 -24 -15 -50q0 -16 7.5 -25.5t23 -13.5t42.5 -4
q23 0 53 2l25 84h4l-25 -83q84 8 153 29v-3z" />
    <glyph glyph-name="uni0E1F0E49" unicode="&#xe1f;&#xe49;" horiz-adv-x="758" 
d="M774 765h3l-63 -208l-168 -557h-6l-116 553l-272 -553h-5l7 455q1 73 -19 108h4q20 -33 19 -109l-8 -450l273 553h5l115 -553l200 663q15 48 29 93q-52 -51 -110.5 -68.5t-166.5 -17.5l-2 2q49 36 49 83q0 22 -13 35.5t-37 13.5q-20 0 -43 -7v4q23 7 43 7
q25 0 39.5 -14.5t14.5 -38.5q0 -23 -12.5 -45t-33.5 -36q105 0 162.5 18t109.5 69h2z" />
    <glyph glyph-name="uni0E1F0E4A" unicode="&#xe1f;&#xe4a;" horiz-adv-x="758" 
d="M773 765h4l-63 -208l-168 -557h-6l-115 553l-273 -553h-5l7 455q1 73 -19 108h4q20 -33 19 -109l-8 -450l273 553h5l115 -553l200 663q5 15 13 42t14 45q-54 -78 -168 -78q-10 0 -18 1q16 37 16 70q0 27 -15.5 44t-46.5 17q-23 0 -43 -14t-32 -36t-15 -46l-4 -25l-4 -1
l4 26q5 40 -11 68t-54.5 28t-61 -28t-22.5 -72q0 -15 3 -31h-4q-3 14 -3 32q0 45 24 74t64 29q38 0 54 -25t15 -58q2 9 6 18.5t10 19t13.5 17.5t16.5 14t20.5 10t23.5 4q33 0 49.5 -18t16.5 -47q0 -32 -15 -67h13q119 0 171 85z" />
    <glyph glyph-name="uni0E1F0E4B" unicode="&#xe1f;&#xe4b;" horiz-adv-x="758" 
d="M604 677l9 63h-76l1 3h76l8 59l4 1l-9 -60h77l-1 -3h-77l-8 -63h-4zM773 765h4l-63 -208l-168 -557h-6l-116 553l-272 -553h-5l7 455q1 73 -19 108h4q20 -33 19 -109l-8 -450l273 553h5l115 -553l167 553z" />
    <glyph glyph-name="uni0E1F0E4C" unicode="&#xe1f;&#xe4c;" horiz-adv-x="768" 
d="M831 732v-4h-65l-52 -171l-168 -557h-6l-116 553l-272 -553h-5l7 455q1 73 -19 108h4q20 -33 19 -109l-8 -450l273 553h5l115 -553l167 553l52 171h-102q-69 0 -69 -63q0 -9 2 -27h-4q-2 18 -2 27q0 67 73 67h103l10 33h4l-10 -33h64z" />
    <glyph glyph-name="uni0E1F0E4D" unicode="&#xe1f;&#xe4d;" horiz-adv-x="758" 
d="M608 675q-27 0 -42.5 15.5t-15.5 41.5q0 30 20 55t58 25q27 0 43 -16t16 -42q0 -30 -20.5 -54.5t-58.5 -24.5zM628 808q-25 0 -43 -12.5t-25 -29t-7 -34.5q0 -25 15 -39t40 -14t43 12.5t25.5 29t7.5 33.5q0 25 -15.5 39.5t-40.5 14.5zM773 765h4l-63 -208l-168 -557h-6
l-116 553l-272 -553h-5l7 455q1 73 -19 108h4q20 -33 19 -109l-8 -450l273 553h5l115 -553l167 553z" />
    <glyph glyph-name="uni0E310E4A" unicode="&#xe31;&#xe4a;" 
d="M60 920l3 -1q-25 -47 -63.5 -74.5t-105.5 -27.5q-7 0 -15 1q13 36 13 63q0 55 -55 55q-21 0 -39 -13t-28.5 -32.5t-14.5 -41.5l-3 -23h-4l4 23q3 17 0 33t-9.5 27.5t-19.5 19t-29 7.5q-23 0 -40.5 -12t-26 -32.5t-8.5 -46.5q0 -19 2 -27h-3q-2 8 -2 27q0 41 21 67.5
t57 26.5q32 0 48 -22.5t14 -52.5q8 30 29 52.5t52 22.5q59 0 59 -58q0 -27 -13 -60q5 -1 11 -1q66 0 103.5 27t62.5 73zM-314 679q104 0 202 32v-4q-99 -32 -203 -32q-38 0 -56 10.5t-18 35.5q0 27 16 51h4q-16 -24 -16 -51q0 -23 17 -32.5t54 -9.5z" />
    <glyph glyph-name="uni0620.init" unicode="&#x620;" horiz-adv-x="273" 
d="M126 25q29 0 49 -20t20 -48q0 -17 -8.5 -32.5t-24.5 -25t-36 -9.5q-29 0 -49 20t-20 47q0 34 28 55q-39 -12 -85 -12l-2 2l2 2q118 0 180 72q2 143 -50 293l4 2q52 -148 50 -295q-26 -33 -65 -52q3 1 7 1zM126 -107q29 0 47 19t18 45q0 27 -19 45.5t-46 18.5
q-28 0 -47 -19t-19 -45q0 -25 19 -44.5t47 -19.5z" />
    <glyph glyph-name="uni0620.medi" unicode="&#x620;" horiz-adv-x="280" 
d="M141 52q-6 -9 -35 -25q5 1 9 1q29 0 49 -20t20 -47t-19.5 -47.5t-49.5 -20.5q-29 0 -49 20.5t-20 47.5q0 31 25 51q-36 -12 -71 -12l-2 2l2 2q34 0 67.5 11.5t50.5 22.5t21 17l-20 249h4l19 -249q46 -51 138 -51l2 -2l-2 -2q-42 0 -76 12t-46.5 22.5t-16.5 17.5zM115 24
q-13 0 -25 -4l-1 -1h-2q-11 -6 -19.5 -14.5t-13.5 -20t-5 -23.5q0 -26 19 -45t47 -19q29 0 47 19t18 45t-19 44.5t-46 18.5z" />
    <glyph glyph-name="uni0620.fina" unicode="&#x620;" horiz-adv-x="697" 
d="M700 2l-3 -2q-43 0 -81 10.5t-103 39.5q50 -27 68 -52.5t18 -77.5q-26 -33 -98.5 -65t-174.5 -37q22 -6 35.5 -24t13.5 -41q0 -27 -19.5 -47t-49.5 -20q-29 0 -49 20.5t-20 46.5q0 22 13.5 40t34.5 25q-112 3 -164 55.5t-52 138.5q0 90 34 172l3 -2q-33 -81 -33 -170
q0 -87 54 -139t171 -52q110 0 189 32.5t108 67.5q0 33 -5.5 52t-27 40t-61 39.5t-110.5 44.5l2 3q49 -18 104.5 -41t79 -32t55.5 -16t65 -7zM371 -247q0 27 -18.5 45.5t-46.5 18.5q-27 0 -46.5 -19t-19.5 -45q0 -25 19 -44.5t47 -19.5q29 0 47 19.5t18 44.5z" />
    <glyph glyph-name="uni063B.init" unicode="&#x63b;" horiz-adv-x="455" 
d="M386 738l-1 -5l-374 -274q151 -93 226.5 -183t85.5 -187q-56 -44 -131 -66.5t-192 -22.5l-2 2l2 2q116 0 189.5 21.5t129.5 64.5q-10 96 -85 184.5t-227 182.5v4zM74 726l-8 -11l-11 9l9 11zM-61 719l8 12l10 -9l-8 -12z" />
    <glyph glyph-name="uni063B.medi" unicode="&#x63b;" horiz-adv-x="530" 
d="M530 4l2 -2l-2 -2q-30 0 -52.5 5.5t-41 15t-43 35t-45.5 50.5t-62 77q-44 -98 -109.5 -140.5t-176.5 -42.5l-2 2l2 2q110 0 174.5 42.5t108.5 139.5l-215 271l1 4l378 277l-1 -5l-374 -274l211 -266q36 -46 54.5 -69t42 -48.5t37.5 -36t33.5 -20.5t37.5 -12.5t42 -2.5z
M131 726l-8 -11l-10 9l8 11zM14 722l-8 -12l-10 9l8 12z" />
    <glyph glyph-name="uni063B.fina" unicode="&#x63b;" horiz-adv-x="962" 
d="M962 4l2 -2l-2 -2q-30 0 -52.5 5.5t-41 15t-43 35t-45.5 50.5t-62 77q-23 -52 -50 -86t-71 -60t-108.5 -37.5t-156.5 -11.5q-263 0 -263 167q0 71 35 144l4 -2q-35 -72 -35 -142q0 -163 259 -163q92 0 156 11.5t107.5 37.5t70 59.5t49.5 85.5l-215 271l1 4l378 277l-1 -5
l-374 -274l211 -266q36 -46 54.5 -69t42.5 -48.5t37.5 -36t33 -20.5t37.5 -12.5t42 -2.5zM562 726l-8 -11l-10 9l8 11zM445 722l-8 -12l-10 9l8 12z" />
    <glyph glyph-name="uni063C.init" unicode="&#x63c;" horiz-adv-x="455" 
d="M386 738l-1 -5l-374 -274q151 -93 226.5 -183t85.5 -187q-56 -44 -131 -66.5t-192 -22.5l-2 2l2 2q116 0 189.5 21.5t129.5 64.5q-10 96 -85 184.5t-227 182.5v4zM186 -142l8 11l10 -9l-8 -11zM69 -146l8 11l11 -9l-9 -11zM129 -243l8 11l10 -9l-8 -11z" />
    <glyph glyph-name="uni063C.medi" unicode="&#x63c;" horiz-adv-x="530" 
d="M530 4l2 -2l-2 -2q-30 0 -52.5 5.5t-41 15t-43 35t-45.5 50.5t-62 77q-44 -98 -109.5 -140.5t-176.5 -42.5l-2 2l2 2q110 0 174.5 42.5t108.5 139.5l-215 271l1 4l378 277l-1 -5l-374 -274l211 -266q36 -46 54.5 -69t42 -48.5t37.5 -36t33.5 -20.5t37.5 -12.5t42 -2.5z
M320 -142l8 11l10 -9l-8 -11zM203 -146l8 11l11 -9l-9 -11zM263 -243l8 11l10 -9l-8 -11z" />
    <glyph glyph-name="uni063C.fina" unicode="&#x63c;" horiz-adv-x="962" 
d="M962 4l2 -2l-2 -2q-30 0 -52.5 5.5t-41 15t-43 35t-45.5 50.5t-62 77q-23 -52 -50 -86t-71 -60t-108.5 -37.5t-156.5 -11.5q-263 0 -263 167q0 71 35 144l4 -2q-35 -72 -35 -142q0 -163 259 -163q92 0 156 11.5t107.5 37.5t70 59.5t49.5 85.5l-215 271l1 4l378 277l-1 -5
l-374 -274l211 -266q36 -46 54.5 -69t42.5 -48.5t37.5 -36t33 -20.5t37.5 -12.5t42 -2.5zM426 -142l8 11l11 -9l-8 -11zM310 -146l8 11l10 -9l-8 -11zM369 -243l9 11l10 -9l-8 -11z" />
    <glyph glyph-name="uni066E.init" unicode="&#x66e;" horiz-adv-x="273" 
d="M0 0l-2 2l2 2q118 0 180 72q2 143 -50 293l4 2q52 -148 50 -295q-61 -76 -184 -76z" />
    <glyph glyph-name="uni066E.medi" unicode="&#x66e;" horiz-adv-x="280" 
d="M280 4l2 -2l-2 -2q-42 0 -76 12t-46.5 22.5t-16.5 17.5q-4 -6 -21.5 -17.5t-51.5 -23t-68 -11.5l-2 2l2 2q34 0 67.5 11.5t50.5 22.5t21 17l-20 249h4l19 -249q46 -51 138 -51z" />
    <glyph glyph-name="uni066E.fina" unicode="&#x66e;" horiz-adv-x="843" 
d="M843 4l2 -2l-2 -2q-35 0 -62.5 12.5t-41 30t-20 31t-7.5 21.5q-128 -107 -380 -107q-263 0 -263 167q0 71 35 144l4 -2q-35 -72 -35 -142q0 -163 259 -163q251 0 378 107l-25 205h4l25 -201q0 -9 6 -22.5t19.5 -32t40.5 -31.5t63 -13z" />
    <glyph glyph-name="uni066F.init" unicode="&#x66f;" horiz-adv-x="459" 
d="M200 525q27 0 52.5 -13t49 -43.5t40 -75t24 -113.5t1.5 -153q-37 -52 -137 -89.5t-230 -37.5l-2 2l2 2q127 0 225 35.5t139 86.5q4 69 0 128q-55 -53 -140 -53q-70 0 -120.5 42.5t-50.5 105.5q0 69 47 122.5t100 53.5zM225 205q83 0 139 52q-9 134 -56.5 199t-107.5 65
q-24 0 -50 -14t-46.5 -36.5t-34 -55t-13.5 -66.5q0 -61 50 -102.5t119 -41.5z" />
    <glyph glyph-name="uni066F.medi" unicode="&#x66f;" horiz-adv-x="449" 
d="M449 4l2 -2l-2 -2h-14q-109 0 -203 43q-95 -43 -222 -43h-10l-2 2l2 2h10q125 0 217 41q-45 22 -79 50.5t-54 65t-20 74.5q0 64 50 125t100 61q60 0 110 -62t50 -127q0 -51 -38.5 -102t-109.5 -85q93 -41 199 -41h14zM78 235q0 -57 42 -106.5t112 -81.5q71 33 109.5 83.5
t38.5 100.5q0 42 -22 85t-58.5 72t-74.5 29q-50 0 -98.5 -60t-48.5 -122z" />
    <glyph glyph-name="uni066F.fina" unicode="&#x66f;" horiz-adv-x="755" 
d="M757 2l-2 -2h-112q0 -38 -3 -79q-33 -75 -113.5 -115.5t-171.5 -40.5q-148 0 -217 50.5t-69 153.5q0 82 36 167l3 -1q-35 -85 -35 -166q0 -67 29 -111t92 -66.5t161 -22.5q57 0 110.5 15.5t100.5 50.5t71 85q2 42 2 80h-113q-90 0 -145 42t-55 106q0 70 47 123.5
t101 53.5q24 0 46.5 -9.5t45 -33t39 -58.5t27 -91.5t11.5 -128.5h112zM630 4h9q-1 71 -11 127t-26 91t-38 57.5t-44 32t-46 9.5q-52 0 -98 -52.5t-46 -120.5q0 -63 54 -103.5t142 -40.5h104z" />
    <glyph glyph-name="uni0676.fina" unicode="&#x676;" horiz-adv-x="507" 
d="M398 564l1 -4l-172 -26v4l85 13q-66 36 -66 84q0 27 20.5 46t58.5 19q27 0 52 -12v-4q-26 12 -52 12q-37 0 -56 -17.5t-19 -43.5q0 -47 67 -84zM510 2l-3 -2h-105q-18 -95 -99 -156.5t-232 -79.5l-2 4q151 18 231.5 78.5t97.5 153.5h-98q-95 0 -152 41.5t-57 106.5
q0 69 47.5 122.5t100.5 53.5q65 0 116.5 -75.5t51.5 -193.5q0 -26 -4 -51h104zM399 4q4 24 4 50q0 60 -14.5 111t-38 84.5t-52.5 52t-59 18.5q-51 0 -97.5 -52t-46.5 -120q0 -63 56 -103.5t150 -40.5h98z" />
    <glyph glyph-name="uni0677.fina" unicode="&#x677;" horiz-adv-x="507" 
d="M181 612l-2 2q60 25 98 59q-41 8 -61 29t-20 49q0 29 18.5 46.5t44.5 17.5q31 0 47 -20t16 -49q0 -39 -41.5 -74.5t-99.5 -59.5zM199 751q0 -27 19.5 -47.5t60.5 -28.5q39 35 39 71q0 28 -15 47t-44 19q-25 0 -42.5 -16.5t-17.5 -44.5zM337 442v-3l-171 -27v4l85 13
q-66 36 -66 84q0 27 20.5 46t58.5 19q26 0 52 -12v-4q-26 12 -52 12q-25 0 -42.5 -8.5t-25.5 -22t-8 -30.5q0 -47 68 -84zM510 2l-3 -2h-105q-18 -95 -99 -156.5t-232 -79.5l-2 4q151 18 231.5 78.5t97.5 153.5h-98q-95 0 -152 41.5t-57 106.5q0 69 47.5 122.5t100.5 53.5
q65 0 116.5 -75.5t51.5 -193.5q0 -26 -4 -51h104zM399 4q4 24 4 50q0 60 -14.5 111t-38 84.5t-52.5 52t-59 18.5q-51 0 -97.5 -52t-46.5 -120q0 -63 56 -103.5t150 -40.5h98z" />
    <glyph glyph-name="uni0678.init" unicode="&#x678;" horiz-adv-x="273" 
d="M137 591l81 13v-4l-171 -26v4l85 13q-66 36 -66 84q0 17 8 31.5t26.5 24t44.5 9.5t52 -12v-4q-26 12 -52 12q-37 0 -56.5 -17.5t-19.5 -43.5q0 -47 68 -84zM0 0l-2 2l2 2q118 0 180 72q2 143 -50 293l4 2q52 -148 50 -295q-61 -76 -184 -76z" />
    <glyph glyph-name="uni0678.medi" unicode="&#x678;" horiz-adv-x="280" 
d="M236 534v-4l-171 -26v4l85 13q-66 36 -66 84q0 17 8 31.5t26.5 24t43.5 9.5q27 0 53 -12l-1 -4q-25 12 -52 12q-36 0 -55.5 -17.5t-19.5 -43.5q0 -47 67 -84zM280 4l2 -2l-2 -2q-42 0 -76 12t-46.5 22.5t-16.5 17.5q-4 -6 -21.5 -17.5t-51.5 -23t-68 -11.5l-2 2l2 2
q34 0 67.5 11.5t50.5 22.5t21 17l-20 249h4l19 -249q46 -51 138 -51z" />
    <glyph glyph-name="uni0678.fina" unicode="&#x678;" horiz-adv-x="697" 
d="M528 315v-4l-171 -26v4l85 13q-66 36 -66 84q0 27 20.5 46t57.5 19q27 0 53 -12l-1 -4q-25 12 -51 12q-37 0 -56.5 -17.5t-19.5 -43.5q0 -47 68 -84zM700 2l-3 -2q-29 0 -56 5t-55.5 15t-72.5 30q50 -27 68 -52.5t18 -77.5q-28 -35 -108.5 -69t-192.5 -34q-61 0 -106 15
t-71.5 42t-39 61t-12.5 77q0 90 34 172l3 -2q-33 -81 -33 -170q0 -87 54 -139t171 -52q110 0 189 32.5t108 67.5q0 33 -5.5 52t-27 40t-61 39.5t-110.5 44.5l2 3q49 -18 104.5 -41t79 -32t55.5 -16t65 -7z" />
    <glyph glyph-name="uni067C.init" unicode="&#x67c;" horiz-adv-x="273" 
d="M172 520l-8 -11l-10 9l8 11zM56 516l-9 -11l-10 9l8 11zM118 20q29 0 49 -20t20 -47t-19.5 -47.5t-49.5 -20.5q-14 0 -27.5 6t-22.5 15t-14 21.5t-5 25.5q0 18 9 33.5t25 24.5q-38 -11 -83 -11l-2 2l2 2q118 0 180 72q2 143 -50 293l4 2q52 -148 50 -295q-30 -37 -76 -56
h10zM118 -111q29 0 47 19t18 45t-19 45t-46 19t-46.5 -19t-19.5 -45t19 -45t47 -19z" />
    <glyph glyph-name="uni067C.medi" unicode="&#x67c;" horiz-adv-x="280" 
d="M165 442l-9 -12l-10 9l8 12zM48 437l-8 -11l-11 9l9 11zM141 52q-6 -9 -34 -24h3q28 0 48 -20t20 -47t-19 -47.5t-49 -20.5q-29 0 -49.5 20.5t-20.5 47.5q0 28 22 48q-31 -9 -62 -9l-2 2l2 2q36 0 71 12q12 8 25 11q35 17 43 28l-20 249h4l19 -249q46 -51 138 -51l2 -2
l-2 -2q-42 0 -76 12t-46.5 22.5t-16.5 17.5zM110 24h-12q-13 -7 -27 -12q-27 -19 -27 -51q0 -26 19 -45t47 -19q29 0 47 19t18 45t-19 44.5t-46 18.5z" />
    <glyph glyph-name="uni067C.fina" unicode="&#x67c;" horiz-adv-x="843" 
d="M446 429l-8 -11l-11 9l9 11zM329 425l-8 -11l-10 9l8 11zM843 4l2 -2l-2 -2q-35 0 -62.5 12.5t-41 30t-20 31t-7.5 21.5q-117 -97 -339 -106q22 -6 35.5 -24.5t13.5 -40.5q0 -18 -8 -33t-24 -25t-36 -10q-30 0 -50 20.5t-20 47.5q0 21 13.5 39t34.5 25q-263 0 -263 167
q0 71 35 144l4 -2q-35 -72 -35 -142q0 -163 259 -163q251 0 378 107l-25 205h4l25 -201q0 -9 6 -22.5t19.5 -32t40.5 -31.5t63 -13zM419 -76q0 17 -8.5 31.5t-23.5 23.5t-33 9q-28 0 -47 -19t-19 -45t19 -45t47 -19q29 0 47 19t18 45z" />
    <glyph glyph-name="uni067D.init" unicode="&#x67d;" horiz-adv-x="273" 
d="M187 598l-10 9l8 11l11 -9zM71 594l-11 9l8 11l11 -9zM130 497l-10 9l8 11l11 -9zM0 0l-2 2l2 2q118 0 180 72q2 143 -50 293l4 2q52 -148 50 -295q-61 -76 -184 -76z" />
    <glyph glyph-name="uni067D.medi" unicode="&#x67d;" horiz-adv-x="280" 
d="M188 530l-8 -11l-11 9l9 11zM71 526l-8 -11l-10 9l8 11zM131 429l-8 -11l-11 9l9 11zM280 4l2 -2l-2 -2q-42 0 -76 12t-46.5 22.5t-16.5 17.5q-4 -6 -21.5 -17.5t-51.5 -23t-68 -11.5l-2 2l2 2q34 0 67.5 11.5t50.5 22.5t21 17l-20 249h4l19 -249q46 -51 138 -51z" />
    <glyph glyph-name="uni067D.fina" unicode="&#x67d;" horiz-adv-x="843" 
d="M469 518l-8 -11l-10 9l8 11zM352 514l-8 -11l-10 9l8 11zM412 417l-8 -11l-10 9l8 11zM843 4l2 -2l-2 -2q-35 0 -62.5 12.5t-41 30t-20 31t-7.5 21.5q-128 -107 -380 -107q-263 0 -263 167q0 71 35 144l4 -2q-35 -72 -35 -142q0 -163 259 -163q251 0 378 107l-25 205h4
l25 -201q0 -9 6 -22.5t19.5 -32t40.5 -31.5t63 -13z" />
    <glyph glyph-name="uni0681.init" unicode="&#x681;" horiz-adv-x="696" 
d="M304 516v-4l-171 -26v4l85 13q-66 36 -66 84q0 17 8 31.5t26.5 24t44.5 9.5t52 -12v-4q-26 12 -52 12q-37 0 -56.5 -17.5t-19.5 -43.5q0 -47 68 -84zM220 411q22 0 42 -4t47 -16t46 -22t57 -35t60 -40.5t76 -53.5t86 -60l-1 -5l-10 -1q-72 -9 -160 -38.5t-155.5 -59
t-152 -53t-155.5 -23.5l-2 2l2 2q70 0 154.5 23.5t152.5 53t157.5 59.5t163.5 39q-28 19 -75 52.5t-67.5 48t-55 38t-51.5 33t-42.5 23.5t-42 19t-36 9.5t-38.5 4.5q-58 0 -113 -33l-2 3q56 34 115 34z" />
    <glyph glyph-name="uni0681.medi" unicode="&#x681;" horiz-adv-x="772" 
d="M304 528v-3l-171 -27v4l85 13q-66 37 -66 84q0 27 20.5 46t58.5 19q26 0 52 -12v-4q-26 13 -52 13q-25 0 -42.5 -9t-25.5 -22.5t-8 -30.5q0 -47 68 -84zM772 4l2 -2l-2 -2q-101 0 -169 44t-99 147q-52 -17 -121.5 -52.5t-121.5 -64.5t-123 -51.5t-138 -22.5l-2 2l2 2
q61 0 124 18.5t118 46.5t108 57t114 54t116 33q-60 33 -153 91t-142 80.5t-94 22.5q-58 0 -114 -33l-2 3q57 34 116 34q45 0 95.5 -23.5t144 -81.5t155.5 -92l-1 -4l-8 -2q-34 -5 -69 -16q31 -102 98 -145t166 -43z" />
    <glyph glyph-name="uni0681.fina" unicode="&#x681;" horiz-adv-x="712" 
d="M307 516v-4l-171 -26v4l84 13q-66 36 -66 84q0 17 8.5 31.5t27 24t43.5 9.5q27 0 52 -12v-4q-26 12 -52 12q-37 0 -56 -17.5t-19 -43.5q0 -47 67 -84zM712 4l2 -2l-2 -2q-103 0 -160 48.5t-69 162.5q-178 -43 -283 -133.5t-105 -215.5q0 -91 58.5 -145.5t157.5 -54.5
q131 0 229 44l2 -4q-100 -44 -231 -44q-101 0 -160.5 55.5t-59.5 148.5q0 126 105.5 217.5t285.5 135.5q0 6 -1 12h4q0 -6 1 -12q41 10 84 17q-39 22 -99 60t-94 58.5t-77.5 37.5t-77.5 17q-59 0 -109 -36l-2 4q52 36 111 36q29 0 60 -10t66.5 -29t67.5 -39t78 -48.5
t82 -49.5l-1 -4l-7 -1q-42 -7 -82 -16q12 -113 68 -160.5t158 -47.5z" />
    <glyph glyph-name="uni0682.init" unicode="&#x682;" horiz-adv-x="696" 
d="M221 604l-8 -12l-10 9l8 12zM224 485l-11 9l9 11l10 -9zM220 411q22 0 42 -4t47 -16t46 -22t57 -35t60 -40.5t76 -53.5t86 -60l-2 -5l-9 -1q-72 -9 -160 -38.5t-155.5 -59t-152 -53t-155.5 -23.5l-2 2l2 2q70 0 154.5 23.5t152.5 53t157.5 59.5t163.5 39q-28 19 -75 52.5
t-67.5 48t-55 38t-51.5 33t-42.5 23.5t-42 19t-36 9.5t-38.5 4.5q-58 0 -113 -33l-3 3q57 34 116 34z" />
    <glyph glyph-name="uni0682.medi" unicode="&#x682;" horiz-adv-x="772" 
d="M222 616l-9 -12l-10 9l8 12zM224 497l-10 9l8 11l10 -9zM772 4l2 -2l-2 -2q-101 0 -169 44t-99 147q-52 -17 -121.5 -52.5t-121.5 -64.5t-123 -51.5t-138 -22.5l-2 2l2 2q61 0 124 18.5t118 46.5t108 57t114 54t116 33q-60 33 -153 91t-142 80.5t-94 22.5q-58 0 -114 -33
l-2 3q57 34 116 34q45 0 95.5 -23.5t144 -81.5t155.5 -92l-1 -4l-8 -1q-34 -6 -69 -17q31 -102 98 -145t166 -43z" />
    <glyph glyph-name="uni0682.fina" unicode="&#x682;" horiz-adv-x="712" 
d="M224 604l-8 -12l-11 9l9 12zM226 485l-10 9l8 11l10 -9zM712 4l2 -2l-2 -2q-103 0 -160 48.5t-69 162.5q-178 -43 -283 -133.5t-105 -215.5q0 -91 58.5 -145.5t157.5 -54.5q131 0 229 44l2 -4q-100 -44 -231 -44q-101 0 -160.5 55.5t-59.5 148.5q0 126 105.5 217.5
t285.5 135.5q0 6 -1 12l4 1q0 -7 1 -13q41 10 84 17q-39 22 -99 60t-94 58.5t-77.5 37.5t-77.5 17q-59 0 -109 -36l-2 4q52 36 111 36q45 0 94 -22t135 -77t125 -76l-1 -5l-7 -1q-42 -7 -82 -16q12 -113 68 -160.5t158 -47.5z" />
    <glyph glyph-name="uni0685.init" unicode="&#x685;" horiz-adv-x="696" 
d="M195 641l-8 -11l-10 9l8 11zM255 544l-8 -11l-11 9l9 12zM138 540l-8 -11l-10 9l8 11zM220 411q22 0 42 -4t47 -16t46 -22t57 -35t60 -40.5t76 -53.5t86 -60l-2 -5l-9 -1q-72 -9 -160 -38.5t-155.5 -59t-152 -53t-155.5 -23.5l-2 2l2 2q70 0 154.5 23.5t152.5 53
t157.5 59.5t163.5 39q-28 19 -75 52.5t-67.5 48t-55 38t-51.5 33t-42.5 23.5t-42 19t-36 9.5t-38.5 4.5q-58 0 -113 -33l-3 3q57 34 116 34z" />
    <glyph glyph-name="uni0685.medi" unicode="&#x685;" horiz-adv-x="772" 
d="M195 653l-8 -11l-10 9l8 11zM255 557l-8 -12l-10 9l8 12zM138 552l-8 -11l-10 9l8 11zM772 4l2 -2l-2 -2q-101 0 -169 44t-99 147q-52 -17 -121.5 -52.5t-121.5 -64.5t-123 -51.5t-138 -22.5l-2 2l2 2q61 0 124 18.5t118 46.5t108 57t114 54t116 33q-60 33 -153 91
t-142 80.5t-94 22.5q-58 0 -114 -33l-2 3q57 34 116 34q45 0 95.5 -23.5t144 -81.5t155.5 -92l-1 -4l-8 -2q-34 -5 -69 -16q31 -102 98 -145t166 -43z" />
    <glyph glyph-name="uni0685.fina" unicode="&#x685;" horiz-adv-x="712" 
d="M198 641l-9 -11l-10 9l8 11zM257 544l-8 -11l-10 9l8 12zM141 540l-9 -11l-10 9l8 11zM712 4l2 -2l-2 -2q-103 0 -160 48.5t-69 162.5q-178 -43 -283 -133.5t-105 -215.5q0 -91 58.5 -145.5t157.5 -54.5q131 0 229 44l2 -4q-100 -44 -231 -44q-101 0 -160.5 55.5
t-59.5 148.5q0 126 105.5 217.5t285.5 135.5q0 6 -1 12l4 1q0 -7 1 -13q41 10 84 17q-39 22 -99 60t-94 58.5t-77.5 37.5t-77.5 17q-59 0 -109 -36l-2 4q52 36 111 36q45 0 94 -22t135 -77t125 -76l-1 -5l-7 -1q-42 -7 -82 -16q12 -113 68 -160.5t158 -47.5z" />
    <glyph glyph-name="uni0689.fina" unicode="&#x689;" horiz-adv-x="503" 
d="M503 4l3 -2l-3 -2q-35 0 -56.5 5.5t-35.5 19.5t-24 39q-74 -68 -173 -75q21 -6 35 -24t14 -41q0 -27 -19.5 -47t-48.5 -20q-30 0 -50 20t-20 47q0 22 13.5 39.5t34.5 24.5q-68 2 -143 33l2 4q75 -33 156 -33q116 0 197 76l-153 397l4 2l152 -396q15 -41 39.5 -54
t75.5 -13zM260 -76q0 26 -19 45t-46 19q-28 0 -47 -19t-19 -45q0 -16 8 -31t23.5 -24t34.5 -9q28 0 46.5 19t18.5 45z" />
    <glyph glyph-name="uni068A.fina" unicode="&#x68a;" horiz-adv-x="503" 
d="M503 4l3 -2l-3 -2q-35 0 -56.5 5.5t-35.5 19.5t-24 39q-82 -76 -199 -76q-78 0 -158 33l2 4q75 -33 156 -33q116 0 197 76l-153 397l4 2l152 -396q15 -41 39.5 -54t75.5 -13zM189 -126l8 12l11 -9l-9 -12z" />
    <glyph glyph-name="uni068B.fina" unicode="&#x68b;" horiz-adv-x="503" 
d="M272 620q-17 -54 -92 -54h-122v3h21q10 21 20 38l-6 153h3l6 -148q53 88 108 88q29 0 45.5 -20t16.5 -60zM82 569h98q71 0 89 51q0 77 -59 77q-33 0 -63.5 -30t-64.5 -98zM503 4l3 -2l-3 -2q-52 0 -77 13.5t-39 50.5q-82 -76 -199 -76q-78 0 -158 33l2 4q75 -33 156 -33
q116 0 197 76l-153 397l4 2l152 -396q15 -41 39.5 -54t75.5 -13zM189 -126l8 12l11 -10l-9 -11z" />
    <glyph glyph-name="uni068F.fina" unicode="&#x68f;" horiz-adv-x="503" 
d="M231 717l-9 -11l-10 8l8 12zM114 713l-8 -12l-10 9l8 12zM174 616l-8 -12l-11 10l9 11zM503 4l3 -2l-3 -2q-35 0 -56.5 5.5t-35.5 19.5t-24 39q-82 -76 -199 -76q-78 0 -158 33l2 4q75 -33 156 -33q116 0 197 76l-153 397l4 2l152 -396q15 -41 39.5 -54t75.5 -13z" />
    <glyph glyph-name="uni0690.fina" unicode="&#x690;" horiz-adv-x="503" 
d="M201 715l-8 -11l-10 9l8 11zM85 711l-9 -11l-10 9l8 11zM204 597l-11 9l9 11l10 -9zM87 592l-10 9l8 12l10 -9zM503 4l3 -2l-3 -2q-35 0 -56.5 5.5t-35.5 19.5t-24 39q-82 -76 -199 -76q-78 0 -158 33l2 4q75 -33 156 -33q116 0 197 76l-153 397l4 2l152 -396
q15 -41 39.5 -54t75.5 -13z" />
    <glyph glyph-name="uni0692.fina" unicode="&#x692;" horiz-adv-x="401" 
d="M265 344h-3l-78 136l3 1l76 -133l77 133l3 -1zM401 4l2 -2l-2 -2q-40 0 -60.5 9.5t-29.5 29.5q-50 -87 -123 -151t-208 -137l-1 4q132 71 206 135t124 152q-20 115 -53 209l4 2q31 -92 52 -208q5 -14 14 -22.5t27.5 -13.5t47.5 -5z" />
    <glyph glyph-name="uni0693.fina" unicode="&#x693;" horiz-adv-x="401" 
d="M401 4l2 -2l-2 -2q-40 0 -60.5 9.5t-29.5 29.5q-57 -101 -150 -173q13 5 27 5q28 0 48 -20t20 -48q0 -27 -19.5 -47t-48.5 -20q-30 0 -50 20t-20 47q0 23 15 41q-60 -43 -153 -93l-1 4q132 71 206 135t124 152q-20 115 -53 209l4 2q31 -92 52 -208q5 -14 14 -22.5
t27.5 -13.5t47.5 -5zM253 -197q0 27 -19 45.5t-46 18.5q-28 0 -47 -19t-19 -45q0 -25 18.5 -44.5t47.5 -19.5q28 0 46.5 19t18.5 45z" />
    <glyph glyph-name="uni0694.fina" unicode="&#x694;" horiz-adv-x="401" 
d="M401 4l2 -2l-2 -2q-40 0 -60.5 9.5t-29.5 29.5q-50 -87 -123 -151t-208 -137l-1 4q132 71 206 135t124 152q-20 115 -53 209l4 2q31 -92 52 -208q5 -14 14 -22.5t27.5 -13.5t47.5 -5zM195 -296l8 12l11 -10l-9 -11z" />
    <glyph glyph-name="uni0695.fina" unicode="&#x695;" horiz-adv-x="401" 
d="M401 4l2 -2l-2 -2q-40 0 -60.5 9.5t-29.5 29.5q-50 -87 -123 -151t-208 -137l-1 4q132 71 206 135t124 152q-20 115 -53 209l4 2q31 -92 52 -208q5 -14 14 -22.5t27.5 -13.5t47.5 -5zM201 -381l76 133l3 -1l-78 -135h-3l-78 135l3 1z" />
    <glyph glyph-name="uni0696.fina" unicode="&#x696;" horiz-adv-x="401" 
d="M260 430l-9 -12l-10 9l8 12zM401 4l2 -2l-2 -2q-40 0 -60.5 9.5t-29.5 29.5q-50 -87 -123 -151t-208 -137l-1 4q132 71 206 135t124 152q-20 115 -53 209l4 2q31 -92 52 -208q5 -14 14 -22.5t27.5 -13.5t47.5 -5zM195 -296l8 12l11 -10l-9 -11z" />
    <glyph glyph-name="uni0697.fina" unicode="&#x697;" horiz-adv-x="401" 
d="M307 413l-8 -11l-10 9l8 11zM191 409l-9 -11l-10 9l8 11zM401 4l2 -2l-2 -2q-40 0 -60.5 9.5t-29.5 29.5q-50 -87 -123 -151t-208 -137l-1 4q132 71 206 135t124 152q-20 115 -53 209l4 2q31 -92 52 -208q8 -21 27.5 -31t61.5 -10z" />
    <glyph glyph-name="uni0699.fina" unicode="&#x699;" horiz-adv-x="401" 
d="M301 501l-8 -12l-10 9l8 12zM184 496l-8 -11l-10 9l8 11zM303 382l-10 9l8 11l11 -9zM187 378l-11 9l9 11l10 -9zM401 4l2 -2l-2 -2q-40 0 -60.5 9.5t-29.5 29.5q-50 -87 -123 -151t-208 -137l-1 4q132 71 206 135t124 152q-20 115 -53 209l4 2q31 -92 52 -208
q5 -14 14 -22.5t27.5 -13.5t47.5 -5z" />
    <glyph glyph-name="uni069A.init" unicode="&#x69a;" horiz-adv-x="724" 
d="M393 458l-8 -12l-11 10l9 11zM575 370q20 -46 30.5 -78.5t20 -92t9.5 -131.5q-14 -28 -51 -48t-76 -20q-34 0 -62.5 12t-40.5 22.5t-16 17.5q-3 -7 -15.5 -18t-41.5 -22.5t-63 -11.5q-26 0 -49 6.5t-37 16.5t-22.5 17.5t-10.5 11.5q-2 -5 -11 -12.5t-26 -17t-47 -16
t-66 -6.5l-2 2l2 2q30 0 55.5 4.5t41 11t27.5 14.5t17 13t7 8l-20 249h4l20 -249q44 -51 117 -51q34 0 62.5 12t40 22t15.5 17l-20 249h4l20 -249q44 -51 117 -51q37 0 72.5 18.5t50.5 44.5q0 72 -9.5 131.5t-20 91t-30.5 78.5zM414 -126l8 12l11 -9l-8 -12z" />
    <glyph glyph-name="uni069A.medi" unicode="&#x69a;" horiz-adv-x="811" 
d="M366 458l-9 -12l-11 10l9 11zM811 4l2 -2l-2 -2q-47 0 -84 10.5t-56 23t-37 31.5q-16 -28 -52 -46.5t-74 -18.5q-34 0 -62.5 12t-40.5 22.5t-16 17.5q-3 -7 -15.5 -18t-41.5 -22.5t-63 -11.5t-62.5 12t-40.5 22.5t-16 17.5q-2 -5 -11 -12.5t-26 -17t-47 -16t-66 -6.5
l-2 2l2 2q30 0 55.5 4.5t41 11t27.5 14.5t17 13t7 8l-20 249h4l20 -249q44 -51 117 -51q34 0 62.5 12t40 22t15.5 17l-20 249h4l20 -249q44 -51 117 -51q38 0 73 18.5t50 44.5q0 36 -16 131t-33 170l5 2q16 -75 31.5 -170t16.5 -132q32 -30 70.5 -47t105.5 -17zM387 -126
l9 12l10 -10l-8 -11z" />
    <glyph glyph-name="uni069A.fina" unicode="&#x69a;" horiz-adv-x="1201" 
d="M755 458l-8 -12l-11 10l8 11zM1201 4l2 -2l-2 -2q-68 0 -108.5 17.5t-69.5 47.5q-16 -28 -51.5 -46.5t-74.5 -18.5q-33 0 -62 12t-41 22.5t-16 17.5q-3 -7 -15.5 -18t-41.5 -22.5t-63 -11.5v0q-38 0 -63 19.5t-35 47.5q10 -56 10 -136q-7 -27 -30 -56t-57.5 -53.5
t-83 -40.5t-101.5 -16q-61 0 -106 15t-71.5 41.5t-39 61t-12.5 76.5q0 91 34 172l3 -1q-33 -81 -33 -171q0 -86 54 -138t171 -52q52 0 99.5 15.5t81.5 39.5t56.5 51.5t30.5 53.5q0 57 -4 101.5t-15.5 84t-16.5 55.5t-24.5 56t-21.5 45l4 2q4 -10 15 -32.5t15 -32t12 -27.5
t11.5 -30t8 -28t7.5 -32q6 -38 32.5 -62.5t69.5 -24.5q34 0 62.5 12t39.5 22t15 17l-20 249h4l20 -249q45 -51 117 -51q38 0 73.5 18.5t50.5 44.5q-1 36 -16.5 131t-32.5 170l4 2q17 -75 32.5 -170t16.5 -132q20 -19 38 -31t54.5 -22.5t83.5 -10.5zM777 -126l8 12l11 -10
l-9 -11z" />
    <glyph glyph-name="uni069B.init" unicode="&#x69b;" horiz-adv-x="724" 
d="M575 370q20 -46 30.5 -78.5t20 -92t9.5 -131.5q-14 -28 -51 -48t-76 -20q-34 0 -62.5 12t-40.5 22.5t-16 17.5q-3 -7 -15.5 -18t-41.5 -22.5t-63 -11.5q-26 0 -49 6.5t-37 16.5t-22.5 17.5t-10.5 11.5q-2 -5 -11 -12.5t-26 -17t-47 -16t-66 -6.5l-2 2l2 2q30 0 55.5 4.5
t41 11t27.5 14.5t17 13t7 8l-20 249h4l20 -249q44 -51 117 -51q34 0 62.5 12t40 22t15.5 17l-20 249h4l20 -249q44 -51 117 -51q37 0 72.5 18.5t50.5 44.5q0 72 -9.5 131.5t-20 91t-30.5 78.5zM472 -142l8 11l11 -9l-8 -11zM356 -146l8 11l10 -9l-8 -11zM415 -243l9 11
l10 -9l-8 -11z" />
    <glyph glyph-name="uni069B.medi" unicode="&#x69b;" horiz-adv-x="811" 
d="M811 4l2 -2l-2 -2q-47 0 -84 10.5t-56 23t-37 31.5q-16 -28 -52 -46.5t-74 -18.5q-34 0 -62.5 12t-40.5 22.5t-16 17.5q-3 -7 -15.5 -18t-41.5 -22.5t-63 -11.5t-62.5 12t-40.5 22.5t-16 17.5q-2 -5 -11 -12.5t-26 -17t-47 -16t-66 -6.5l-2 2l2 2q30 0 55.5 4.5t41 11
t27.5 14.5t17 13t7 8l-20 249h4l20 -249q44 -51 117 -51q34 0 62.5 12t40 22t15.5 17l-20 249h4l20 -249q44 -51 117 -51q38 0 73 18.5t50 44.5q0 36 -16 131t-33 170l5 2q16 -75 31.5 -170t16.5 -132q32 -30 70.5 -47t105.5 -17zM445 -142l9 11l10 -9l-8 -11zM329 -146
l8 11l10 -9l-8 -11zM389 -243l8 11l10 -9l-8 -11z" />
    <glyph glyph-name="uni069B.fina" unicode="&#x69b;" horiz-adv-x="1201" 
d="M1201 4l2 -2l-2 -2q-68 0 -108.5 17.5t-69.5 47.5q-16 -28 -51.5 -46.5t-74.5 -18.5q-33 0 -62 12t-41 22.5t-16 17.5q-3 -7 -15.5 -18t-41.5 -22.5t-63 -11.5v0q-38 0 -63 19.5t-35 47.5q10 -56 10 -136q-15 -60 -92 -113t-180 -53q-119 0 -174 53t-55 141q0 91 34 172
l3 -1q-33 -81 -33 -171q0 -86 54 -138t171 -52q52 0 99.5 15.5t81.5 39.5t56.5 51.5t30.5 53.5q0 57 -4 101.5t-15.5 84t-16.5 55.5t-24.5 56t-21.5 45l4 2q4 -10 15 -32.5t15 -32t12 -27.5t11.5 -30t8 -28t7.5 -32q6 -38 32.5 -62.5t69.5 -24.5q34 0 62.5 12t39.5 22t15 17
l-20 249h4l20 -249q45 -51 117 -51q38 0 73.5 18.5t50.5 44.5q-1 36 -16.5 131t-32.5 170l4 2q17 -75 32.5 -170t16.5 -132q20 -19 38 -31t54.5 -22.5t83.5 -10.5zM835 -142l8 11l10 -9l-8 -11zM718 -146l8 11l11 -9l-9 -11zM778 -243l8 11l10 -9l-8 -11z" />
    <glyph glyph-name="uni069C.init" unicode="&#x69c;" horiz-adv-x="724" 
d="M372 548l-8 -12l-10 9l8 12zM432 451l-8 -11l-10 9l8 11zM315 447l-8 -12l-10 9l8 12zM575 370q20 -46 30.5 -78.5t20 -92t9.5 -131.5q-14 -28 -51 -48t-76 -20q-34 0 -62.5 12t-40.5 22.5t-16 17.5q-3 -7 -15.5 -18t-41.5 -22.5t-63 -11.5t-62.5 12t-40.5 22.5t-16 17.5
q-2 -5 -11 -12.5t-26 -17t-47 -16t-66 -6.5l-2 2l2 2q30 0 55.5 4.5t41 11t27.5 14.5t17 13t7 8l-20 249h4l20 -249q44 -51 117 -51q34 0 62.5 12t40 22t15.5 17l-20 249h4l20 -249q44 -51 117 -51q37 0 72.5 18.5t50.5 44.5q0 72 -9.5 131.5t-20 91t-30.5 78.5zM472 -142
l8 11l11 -9l-8 -11zM356 -146l8 11l10 -9l-8 -11zM415 -243l9 11l10 -9l-8 -11z" />
    <glyph glyph-name="uni069C.medi" unicode="&#x69c;" horiz-adv-x="811" 
d="M344 548l-8 -12l-10 9l8 12zM404 451l-8 -11l-10 9l8 11zM288 447l-9 -12l-10 9l8 12zM811 4l2 -2l-2 -2q-47 0 -84 10.5t-56 23t-37 31.5q-16 -28 -52 -46.5t-74 -18.5q-34 0 -62.5 12t-40.5 22.5t-16 17.5q-3 -7 -15.5 -18t-41.5 -22.5t-63 -11.5t-62.5 12t-40.5 22.5
t-16 17.5q-2 -5 -11 -12.5t-26 -17t-47 -16t-66 -6.5l-2 2l2 2q30 0 55.5 4.5t41 11t27.5 14.5t17 13t7 8l-20 249h4l20 -249q44 -51 117 -51q34 0 62.5 12t40 22t15.5 17l-20 249h4l20 -249q44 -51 117 -51q38 0 73 18.5t50 44.5q0 36 -16 131t-33 170l5 2
q16 -75 31.5 -170t16.5 -132q32 -30 70.5 -47t105.5 -17zM445 -142l9 11l10 -9l-8 -11zM329 -146l8 11l10 -9l-8 -11zM389 -243l8 11l10 -9l-8 -11z" />
    <glyph glyph-name="uni069C.fina" unicode="&#x69c;" horiz-adv-x="1201" 
d="M734 548l-8 -12l-10 9l8 12zM794 451l-8 -11l-11 9l9 11zM677 447l-8 -12l-10 9l8 12zM1201 4l2 -2l-2 -2q-68 0 -108.5 17.5t-69.5 47.5q-16 -28 -51.5 -46.5t-74.5 -18.5q-33 0 -62 12t-41 22.5t-16 17.5q-3 -7 -15.5 -18t-41.5 -22.5t-63 -11.5v0q-38 0 -63 19.5
t-35 47.5q10 -56 10 -136q-7 -27 -30 -56t-57.5 -53.5t-83 -40.5t-101.5 -16q-61 0 -106 15t-71.5 41.5t-39 61t-12.5 76.5q0 91 34 172l3 -1q-33 -81 -33 -171q0 -86 54 -138t171 -52q52 0 99.5 15.5t81.5 39.5t56.5 51.5t30.5 53.5q0 57 -4 101.5t-15.5 84t-16.5 55.5
t-24.5 56t-21.5 45l4 2q4 -10 15 -32.5t15 -32t12 -27.5t11.5 -30t8 -28t7.5 -32q4 -25 16.5 -44t34.5 -31t51 -12q34 0 62.5 12t39.5 22t15 17l-20 249h4l20 -249q45 -51 117 -51q38 0 73.5 18.5t50.5 44.5q-1 36 -16.5 131t-32.5 170l4 2q17 -75 32.5 -170t16.5 -132
q14 -14 27.5 -23.5t34.5 -20t49.5 -15.5t64.5 -5zM835 -142l8 11l10 -9l-8 -11zM718 -146l8 11l11 -9l-9 -11zM778 -243l8 11l10 -9l-8 -11z" />
    <glyph glyph-name="uni069D.init" unicode="&#x69d;" horiz-adv-x="889" 
d="M653 353q77 0 115.5 -67t30.5 -197q-49 -47 -131.5 -68t-222.5 -21h-172q-31 0 -58 6.5t-42.5 16t-24 17.5t-11.5 13q-7 -13 -48 -33t-89 -20l-2 2l2 2q48 0 87.5 19.5t48.5 33.5l-18 306h4l17 -306q7 -10 19 -20t43 -21.5t71 -11.5q36 93 95 171.5t135.5 128t150.5 49.5
zM795 88q8 128 -29 194.5t-112 66.5q-74 0 -149.5 -49t-134 -126.5t-94.5 -169.5h169q137 0 218 19.5t132 64.5zM192 -142l9 11l10 -9l-8 -11zM76 -146l8 11l10 -9l-8 -11z" />
    <glyph glyph-name="uni069D.medi" unicode="&#x69d;" horiz-adv-x="924" 
d="M924 4l2 -2l-2 -2q-90 0 -129 86q-33 -31 -79 -49.5t-112.5 -27.5t-158.5 -9h-172q-31 0 -58 6.5t-42.5 16t-24 17.5t-11.5 13q-7 -13 -48 -33t-89 -20l-2 2l2 2q48 0 87.5 19.5t48.5 33.5l-18 306h4l17 -306q7 -10 19 -20t43 -21.5t71 -11.5q36 93 95 171.5t135.5 128
t150.5 49.5q77 0 115.5 -67t30.5 -197h-1q37 -85 126 -85zM276 4h169q137 0 218 19.5t132 64.5q4 64 -4 113.5t-26 82t-46 49t-65 16.5q-74 0 -149.5 -49t-134 -126.5t-94.5 -169.5zM192 -142l9 11l10 -9l-8 -11zM76 -146l8 11l10 -9l-8 -11z" />
    <glyph glyph-name="uni069D.fina" unicode="&#x69d;" horiz-adv-x="1309" 
d="M1309 4l3 -2l-3 -2q-90 0 -128 86q-49 -46 -131 -66t-220 -20h-172q-38 0 -63 19.5t-35 47.5q10 -56 10 -136q-15 -60 -92 -113t-180 -53q-61 0 -106 15t-71.5 41.5t-39 61t-12.5 76.5q0 91 34 172l3 -1q-33 -81 -33 -171q0 -86 54 -138t171 -52q100 0 175.5 51.5
t92.5 108.5q0 57 -4 101.5t-15.5 84t-16.5 55.5t-24.5 56t-21.5 45l4 2q4 -10 15 -32.5t15 -32t12 -27.5t11.5 -30t8 -28t7.5 -32q6 -38 32 -62.5t69 -24.5q36 93 95 171.5t135 128t151 49.5q77 0 115 -67t31 -197h-1q36 -85 125 -85zM662 4h168q138 0 219 19.5t132 64.5
q5 85 -10.5 144t-48.5 88t-83 29q-74 0 -149 -49t-133.5 -126.5t-94.5 -169.5zM361 -365l8 11l10 -9l-8 -11zM244 -369l8 11l11 -9l-9 -11z" />
    <glyph glyph-name="uni069E.init" unicode="&#x69e;" horiz-adv-x="889" 
d="M559 583l-8 -12l-10 9l8 12zM619 486l-8 -11l-10 9l8 11zM502 482l-8 -12l-10 9l8 12zM653 353q77 0 115.5 -67t30.5 -197q-49 -47 -131.5 -68t-222.5 -21h-172q-31 0 -58 6.5t-42.5 16t-24 17.5t-11.5 13q-7 -13 -48 -33t-89 -20l-2 2l2 2q48 0 87.5 19.5t48.5 33.5
l-18 306h4l17 -306q7 -10 19 -20t43 -21.5t71 -11.5q36 93 95 171.5t135.5 128t150.5 49.5zM795 88q8 128 -29 194.5t-112 66.5q-74 0 -149.5 -49t-134 -126.5t-94.5 -169.5h169q137 0 218 19.5t132 64.5z" />
    <glyph glyph-name="uni069E.medi" unicode="&#x69e;" horiz-adv-x="924" 
d="M559 583l-8 -12l-10 9l8 12zM619 486l-8 -11l-10 9l8 11zM502 482l-8 -12l-10 9l8 12zM924 4l2 -2l-2 -2q-90 0 -129 86q-49 -46 -130.5 -66t-219.5 -20h-172q-31 0 -58 6.5t-42.5 16t-24 17.5t-11.5 13q-7 -13 -48 -33t-89 -20l-2 2l2 2q48 0 87.5 19.5t48.5 33.5
l-18 306h4l17 -306q7 -10 19 -20t43 -21.5t71 -11.5q36 93 95 171.5t135.5 128t150.5 49.5q77 0 115.5 -67t30.5 -197h-1q37 -85 126 -85zM276 4h169q137 0 218 19.5t132 64.5q4 64 -4 113.5t-26 82t-46 49t-65 16.5q-74 0 -149.5 -49t-134 -126.5t-94.5 -169.5z" />
    <glyph glyph-name="uni069E.fina" unicode="&#x69e;" horiz-adv-x="1309" 
d="M945 583l-8 -12l-11 9l9 12zM1005 486l-9 -11l-10 9l8 11zM888 482l-8 -12l-10 9l8 12zM1309 4l3 -2l-3 -2q-90 0 -128 86q-49 -46 -131 -66t-220 -20h-172q-38 0 -63 19.5t-35 47.5q10 -56 10 -136q-15 -60 -92 -113t-180 -53q-61 0 -106 15t-71.5 41.5t-39 61
t-12.5 76.5q0 91 34 172l3 -1q-33 -81 -33 -171q0 -86 54 -138t171 -52q52 0 99.5 15.5t81.5 39.5t56.5 51.5t30.5 53.5q0 57 -4 101.5t-15.5 84t-16.5 55.5t-24.5 56t-21.5 45l4 2q5 -10 13.5 -28t12.5 -27.5t10.5 -24.5t10.5 -25.5t8.5 -23.5t7.5 -26t6 -27
q6 -38 32 -62.5t69 -24.5q36 93 95 171.5t135 128t151 49.5q77 0 115 -67t31 -197h-1q36 -85 125 -85zM662 4h168q138 0 219 19.5t132 64.5q5 85 -10.5 144t-48.5 88t-83 29q-74 0 -149 -49t-133.5 -126.5t-94.5 -169.5z" />
    <glyph glyph-name="uni069F.init" unicode="&#x69f;" horiz-adv-x="776" 
d="M541 353q77 0 115 -66.5t31 -195.5q-49 -49 -131.5 -70t-223.5 -21h-332l-2 2l2 2h160q23 60 57 115l-10 611h4l10 -605q41 66 91.5 116.5t110.5 81t118 30.5zM418 638l-8 -11l-10 9l8 11zM478 542l-8 -12l-11 9l9 12zM361 537l-8 -11l-10 9l8 11zM683 90q7 127 -30 193
t-112 66q-74 0 -149 -49t-133.5 -126.5t-94.5 -169.5h168q139 0 220 20t131 66z" />
    <glyph glyph-name="uni069F.medi" unicode="&#x69f;" horiz-adv-x="812" 
d="M812 4l2 -2l-3 -2q-49 0 -79.5 22.5t-48.5 64.5q-49 -46 -131 -66.5t-220 -20.5h-332l-2 2l2 2h160q23 60 57 115l-10 611h4l10 -605q41 66 91.5 116.5t110.5 81t118 30.5q77 0 115 -66.5t31 -195.5l-4 -4l3 2q36 -85 126 -85zM418 638l-8 -11l-10 9l8 11zM478 542
l-8 -12l-11 9l9 12zM361 537l-8 -11l-10 9l8 11zM164 4h168q139 0 220 20t131 66q7 127 -30 193t-112 66q-74 0 -149 -49t-133.5 -126.5t-94.5 -169.5z" />
    <glyph glyph-name="uni069F.fina" unicode="&#x69f;" horiz-adv-x="858" 
d="M858 4l2 -2l-2 -2q-50 0 -80 22.5t-49 64.5q-49 -46 -130.5 -66.5t-219.5 -20.5h-309l1 4h135q24 60 58 115l-11 611h4l10 -605q42 66 92.5 116.5t110.5 81t118 30.5q77 0 115 -66.5t30 -195.5l-4 -4l3 2q37 -85 126 -85zM465 638l-9 -11l-10 9l8 11zM524 542l-8 -12
l-10 9l8 12zM408 537l-9 -11l-10 9l8 11zM210 4h169q93 0 159 9t112 27.5t80 49.5q7 127 -30 193t-112 66q-74 0 -149.5 -49t-133.5 -126.5t-95 -169.5z" />
    <glyph glyph-name="uni06A0.init" unicode="&#x6a0;" horiz-adv-x="514" 
d="M209 616l-8 -12l-11 9l9 12zM269 519l-9 -11l-10 9l8 11zM152 515l-8 -12l-10 9l8 12zM484 55v-4q-133 -31 -213.5 -41t-215.5 -10h-55l-2 2l2 2h54q114 0 186 7q-56 31 -93 65t-57 74.5t-20 86.5q0 64 42.5 105.5t120.5 41.5q68 0 130 -33l-2 -4q-60 33 -128 33
q-77 0 -118 -40t-41 -103q0 -129 172 -226q87 9 238 44z" />
    <glyph glyph-name="uni06A0.medi" unicode="&#x6a0;" horiz-adv-x="529" 
d="M255 596l-8 -11l-10 9l8 12zM315 500l-8 -12l-10 9l8 12zM198 496l-8 -12l-10 9l8 11zM530 4l2 -2l-3 -2h-17q-115 0 -229 100q-67 -45 -139.5 -72.5t-130.5 -27.5h-13l-2 2l2 2h13q58 0 129.5 27t137.5 71q-24 22 -58 57.5t-74 72.5t-94 78v4q116 51 226 51
q56 0 101 -12t65 -32q0 -36 -21.5 -75.5t-56.5 -75.5t-82 -68q54 -47 108 -72.5t119 -25.5h17zM57 312q73 -55 142.5 -124.5t83.5 -82.5q71 49 115.5 106t44.5 109q-47 41 -163 41q-108 0 -223 -49z" />
    <glyph glyph-name="uni06A0.fina" unicode="&#x6a0;" horiz-adv-x="552" 
d="M259 606l-8 -12l-10 9l8 12zM319 509l-8 -11l-10 9l8 11zM202 505l-8 -12l-10 9l8 12zM552 4l3 -2l-3 -2h-18q-121 0 -227 89q-13 11 -27 25q-46 -28 -81 -55t-67.5 -61t-50.5 -73.5t-18 -80.5q0 -57 27 -97.5t80 -62.5t128 -22q131 0 229 44l2 -4q-100 -44 -231 -44
q-114 0 -176.5 49.5t-62.5 135.5q0 42 18 82t51 74.5t68 61.5t81 55q-17 15 -43 41.5t-47 47t-53.5 49.5t-66.5 56v4q116 51 226 51q56 0 100.5 -12t65.5 -32q0 -34 -10 -60t-36 -51.5t-52.5 -44t-77.5 -49.5q15 -14 28 -25q105 -87 224 -87h17zM71 312q43 -34 80 -68
t75 -72l54 -54q51 31 77.5 50t52 43.5t35.5 50t10 58.5q-45 41 -162 41q-108 0 -222 -49z" />
    <glyph glyph-name="uni06A1.init" unicode="&#x6a1;" horiz-adv-x="459" 
d="M200 525q27 0 52.5 -13t49 -43.5t40 -75t24 -113.5t1.5 -153q-37 -52 -137 -89.5t-230 -37.5l-2 2l2 2q127 0 225 35.5t139 86.5q4 69 0 128q-55 -53 -140 -53q-70 0 -120.5 42.5t-50.5 105.5q0 69 47 122.5t100 53.5zM225 205q83 0 139 52q-9 134 -56.5 199t-107.5 65
q-24 0 -50 -14t-46.5 -36.5t-34 -55t-13.5 -66.5q0 -61 50 -102.5t119 -41.5z" />
    <glyph glyph-name="uni06A1.medi" unicode="&#x6a1;" horiz-adv-x="449" 
d="M449 4l2 -2l-2 -2h-14q-109 0 -203 43q-95 -43 -222 -43h-10l-2 2l2 2h10q125 0 217 41q-45 22 -79 50.5t-54 65t-20 74.5q0 64 50 125t100 61q60 0 110 -62t50 -127q0 -51 -38.5 -102t-109.5 -85q93 -41 199 -41h14zM78 235q0 -57 42 -106.5t112 -81.5q71 33 109.5 83.5
t38.5 100.5q0 42 -22 85t-58.5 72t-74.5 29q-50 0 -98.5 -60t-48.5 -122z" />
    <glyph glyph-name="uni06A1.fina" unicode="&#x6a1;" horiz-adv-x="928" 
d="M928 4l2 -2l-2 -2h-15q-112 0 -209 46q-136 -58 -362 -58h-10q-263 0 -263 167q0 71 35 144l4 -2q-35 -72 -35 -142q0 -163 259 -163h10q223 0 358 56q-44 22 -76.5 50t-51.5 63.5t-19 74.5q0 63 50 124t100 61q60 0 110 -62t50 -127q0 -51 -37.5 -100t-116.5 -84
q95 -44 205 -44h14zM557 235q0 -56 40 -104.5t107 -80.5q80 34 117.5 82.5t37.5 98.5q0 65 -49 125.5t-107 60.5q-49 0 -97.5 -60t-48.5 -122z" />
    <glyph glyph-name="uni06A2.init" unicode="&#x6a2;" horiz-adv-x="459" 
d="M200 525q27 0 52.5 -13t49 -43.5t40 -75t24 -113.5t1.5 -153q-37 -52 -137 -89.5t-230 -37.5l-2 2l2 2q127 0 225 35.5t139 86.5q4 69 0 128q-55 -53 -140 -53q-70 0 -120.5 42.5t-50.5 105.5q0 69 47 122.5t100 53.5zM225 205q83 0 139 52q-9 134 -56.5 199t-107.5 65
q-24 0 -50 -14t-46.5 -36.5t-34 -55t-13.5 -66.5q0 -61 50 -102.5t119 -41.5zM190 -126l8 12l11 -9l-9 -12z" />
    <glyph glyph-name="uni06A2.medi" unicode="&#x6a2;" horiz-adv-x="449" 
d="M449 4l2 -2l-2 -2h-14q-109 0 -203 43q-95 -43 -222 -43h-10l-2 2l2 2h10q125 0 217 41q-45 22 -79 50.5t-54 65t-20 74.5q0 64 50 125t100 61q60 0 110 -62t50 -127q0 -51 -38.5 -102t-109.5 -85q93 -41 199 -41h14zM78 235q0 -57 42 -106.5t112 -81.5q71 33 109.5 83.5
t38.5 100.5q0 42 -22 85t-58.5 72t-74.5 29q-50 0 -98.5 -60t-48.5 -122zM224 -126l8 12l11 -9l-9 -12z" />
    <glyph glyph-name="uni06A2.fina" unicode="&#x6a2;" horiz-adv-x="928" 
d="M928 4l2 -2l-2 -2h-15q-112 0 -209 46q-136 -58 -362 -58h-10q-263 0 -263 167q0 71 35 144l4 -2q-35 -72 -35 -142q0 -163 259 -163h10q223 0 358 56q-44 22 -76.5 50t-51.5 63.5t-19 74.5q0 63 50 124t100 61q60 0 110 -62t50 -127q0 -51 -37.5 -100t-116.5 -84
q95 -44 205 -44h14zM557 235q0 -56 40 -104.5t107 -80.5q80 34 117.5 82.5t37.5 98.5q0 65 -49 125.5t-107 60.5q-49 0 -97.5 -60t-48.5 -122zM694 -126l9 12l11 -10l-9 -11z" />
    <glyph glyph-name="uni06A3.init" unicode="&#x6a3;" horiz-adv-x="459" 
d="M207 671l-8 -12l-11 10l9 11zM200 525q27 0 52.5 -13t49 -43.5t40 -75t24 -113.5t1.5 -153q-37 -52 -137 -89.5t-230 -37.5l-2 2l2 2q127 0 225 35.5t139 86.5q4 69 0 128q-55 -53 -140 -53q-70 0 -120.5 42.5t-50.5 105.5q0 69 47 122.5t100 53.5zM225 205q83 0 139 52
q-9 134 -56.5 199t-107.5 65q-24 0 -50 -14t-46.5 -36.5t-34 -55t-13.5 -66.5q0 -61 50 -102.5t119 -41.5zM199 -126l8 12l11 -9l-8 -12z" />
    <glyph glyph-name="uni06A3.medi" unicode="&#x6a3;" horiz-adv-x="449" 
d="M221 574l-8 -11l-11 9l8 12zM449 4l2 -2l-2 -2h-14q-109 0 -203 43q-95 -43 -222 -43h-10l-2 2l2 2h10q125 0 217 41q-45 22 -79 50.5t-54 65t-20 75.5q0 63 50 124t100 61q60 0 110 -62t50 -127q0 -51 -38.5 -102t-109.5 -85q93 -41 199 -41h14zM78 235q0 -57 42 -106.5
t112 -81.5q71 33 109.5 83.5t38.5 100.5q0 65 -49 125.5t-106 60.5q-50 0 -98.5 -60t-48.5 -122zM233 -126l8 12l11 -9l-8 -12z" />
    <glyph glyph-name="uni06A3.fina" unicode="&#x6a3;" horiz-adv-x="928" 
d="M700 577l-8 -11l-11 9l8 12zM928 4l2 -2l-2 -2h-14q-113 0 -210 46q-136 -58 -362 -58h-10q-263 0 -263 167q0 71 35 144l4 -2q-35 -72 -35 -142q0 -163 259 -163h10q223 0 358 56q-44 22 -76.5 50t-51.5 63.5t-19 74.5q0 63 50 124t100 61q60 0 110 -62t50 -127
q0 -51 -37.5 -100t-116.5 -84q95 -44 205 -44h14zM557 235q0 -56 40 -104.5t107 -80.5q80 34 117.5 82.5t37.5 98.5q0 65 -49 125.5t-107 60.5q-49 0 -97.5 -60t-48.5 -122zM714 -126l8 12l11 -10l-9 -11z" />
    <glyph glyph-name="uni06A5.init" unicode="&#x6a5;" horiz-adv-x="459" 
d="M200 525q27 0 52.5 -13t49 -43.5t40 -75t24 -113.5t1.5 -153q-37 -52 -137 -89.5t-230 -37.5l-2 2l2 2q127 0 225 35.5t139 86.5q4 69 0 128q-55 -53 -140 -53q-70 0 -120.5 42.5t-50.5 105.5q0 69 47 122.5t100 53.5zM225 205q83 0 139 52q-9 134 -56.5 199t-107.5 65
q-24 0 -50 -14t-46.5 -36.5t-34 -55t-13.5 -66.5q0 -61 50 -102.5t119 -41.5zM248 -142l8 11l10 -9l-8 -11zM131 -146l8 11l11 -9l-8 -11zM191 -243l8 11l11 -9l-9 -11z" />
    <glyph glyph-name="uni06A5.medi" unicode="&#x6a5;" horiz-adv-x="449" 
d="M449 4l2 -2l-2 -2h-14q-109 0 -203 43q-95 -43 -222 -43h-10l-2 2l2 2h10q125 0 217 41q-45 22 -79 50.5t-54 65t-20 74.5q0 64 50 125t100 61q60 0 110 -62t50 -127q0 -51 -38.5 -102t-109.5 -85q93 -41 199 -41h14zM78 235q0 -57 42 -106.5t112 -81.5q71 33 109.5 83.5
t38.5 100.5q0 42 -22 85t-58.5 72t-74.5 29q-50 0 -98.5 -60t-48.5 -122zM282 -142l8 11l11 -9l-9 -11zM165 -146l9 11l10 -9l-8 -11zM225 -243l8 11l11 -9l-9 -11z" />
    <glyph glyph-name="uni06A5.fina" unicode="&#x6a5;" horiz-adv-x="928" 
d="M928 4l2 -2l-2 -2h-15q-112 0 -209 46q-136 -58 -362 -58h-10q-263 0 -263 167q0 71 35 144l4 -2q-35 -72 -35 -142q0 -163 259 -163h10q223 0 358 56q-44 22 -76.5 50t-51.5 63.5t-19 74.5q0 63 50 124t100 61q60 0 110 -62t50 -127q0 -51 -37.5 -100t-116.5 -84
q95 -44 205 -44h14zM557 235q0 -56 40 -104.5t107 -80.5q80 34 117.5 82.5t37.5 98.5q0 65 -49 125.5t-107 60.5q-49 0 -97.5 -60t-48.5 -122zM753 -142l8 11l10 -9l-8 -11zM636 -146l8 11l11 -9l-9 -11zM696 -243l8 11l10 -9l-8 -11z" />
    <glyph glyph-name="uni06A7.init" unicode="&#x6a7;" horiz-adv-x="459" 
d="M207 671l-8 -12l-11 10l9 11zM200 525q27 0 52.5 -13t49 -43.5t40 -75t24 -113.5t1.5 -153q-37 -52 -137 -89.5t-230 -37.5l-2 2l2 2q127 0 225 35.5t139 86.5q4 69 0 128q-55 -53 -140 -53q-70 0 -120.5 42.5t-50.5 105.5q0 69 47 122.5t100 53.5zM225 205q83 0 139 52
q-9 134 -56.5 199t-107.5 65q-24 0 -50 -14t-46.5 -36.5t-34 -55t-13.5 -66.5q0 -61 50 -102.5t119 -41.5z" />
    <glyph glyph-name="uni06A7.medi" unicode="&#x6a7;" horiz-adv-x="449" 
d="M221 574l-8 -11l-11 9l8 12zM449 4l2 -2l-2 -2h-14q-109 0 -203 43q-95 -43 -222 -43h-10l-2 2l2 2h10q125 0 217 41q-45 22 -79 50.5t-54 65t-20 75.5q0 63 50 124t100 61q60 0 110 -62t50 -127q0 -51 -38.5 -102t-109.5 -85q93 -41 199 -41h14zM78 235q0 -57 42 -106.5
t112 -81.5q71 33 109.5 83.5t38.5 100.5q0 65 -49 125.5t-106 60.5q-50 0 -98.5 -60t-48.5 -122z" />
    <glyph glyph-name="uni06A7.fina" unicode="&#x6a7;" horiz-adv-x="755" 
d="M470 468l-8 -12l-11 10l9 12zM757 2l-2 -2h-112q0 -38 -3 -79q-33 -75 -113.5 -115.5t-171.5 -40.5q-148 0 -217 50.5t-69 153.5q0 82 36 167l3 -1q-35 -85 -35 -166q0 -67 29 -111t92 -66.5t161 -22.5q57 0 110.5 15.5t100.5 50.5t71 85q2 42 2 80h-113q-90 0 -145 42
t-55 106q0 70 47 123.5t101 53.5q24 0 46.5 -9.5t45 -33t39 -58.5t27 -91.5t11.5 -128.5h112zM630 4h9q-1 71 -11 127t-26 91t-38 57.5t-44 32t-46 9.5q-52 0 -98 -52.5t-46 -120.5q0 -63 54 -103.5t142 -40.5h104z" />
    <glyph glyph-name="uni06A8.init" unicode="&#x6a8;" horiz-adv-x="459" 
d="M186 761l-8 -12l-10 9l8 12zM246 664l-8 -11l-10 9l8 11zM129 660l-8 -12l-10 9l8 12zM201 525q26 0 51.5 -13t49 -43.5t40 -75t24 -113.5t1.5 -153q-37 -52 -137 -89.5t-230 -37.5l-2 2l2 2q127 0 225 35.5t139 86.5q4 69 0 128q-55 -53 -140 -53q-45 0 -84.5 19
t-63 53.5t-23.5 75.5q0 69 47 122.5t101 53.5zM225 205q83 0 139 52q-9 134 -56.5 199t-107.5 65q-24 0 -50 -14t-46.5 -36.5t-34 -55t-13.5 -66.5q0 -61 50 -102.5t119 -41.5z" />
    <glyph glyph-name="uni06A8.medi" unicode="&#x6a8;" horiz-adv-x="449" 
d="M200 664l-8 -11l-10 9l8 11zM260 567l-8 -11l-11 9l9 11zM143 563l-8 -11l-10 9l8 11zM449 4l2 -2l-2 -2h-14q-109 0 -203 43q-95 -43 -222 -43h-10l-2 2l2 2h10q125 0 217 41q-45 22 -79 50.5t-54 65t-20 74.5q0 64 50 125t100 61q60 0 110 -62t50 -127
q0 -51 -38.5 -102t-109.5 -85q93 -41 199 -41h14zM78 235q0 -57 42 -106.5t112 -81.5q71 33 109.5 83.5t38.5 100.5q0 65 -49 125.5t-106 60.5q-50 0 -98.5 -60t-48.5 -122z" />
    <glyph glyph-name="uni06A8.fina" unicode="&#x6a8;" horiz-adv-x="755" 
d="M449 558l-8 -12l-10 10l8 11zM509 461l-8 -11l-11 9l9 11zM392 457l-8 -11l-10 8l8 12zM757 2l-2 -2h-112q0 -38 -3 -79q-33 -75 -113.5 -115.5t-171.5 -40.5q-148 0 -217 50.5t-69 153.5q0 82 36 167l3 -1q-35 -85 -35 -166q0 -67 29 -111t92 -66.5t161 -22.5
q57 0 110.5 15.5t100.5 50.5t71 85q2 42 2 80h-113q-90 0 -145 42t-55 106q0 70 47 123.5t101 53.5q24 0 46.5 -9.5t45 -33t39 -58.5t27 -91.5t11.5 -128.5h112zM630 4h9q-1 71 -11 127t-26 91t-38 57.5t-44 32t-46 9.5q-52 0 -98 -52.5t-46 -120.5q0 -63 54 -103.5
t142 -40.5h104z" />
    <glyph glyph-name="uni06AA.init" unicode="&#x6aa;" horiz-adv-x="1185" 
d="M809 295q287 2 287 -168q-13 -26 -35.5 -42.5t-61.5 -30.5q-146 -54 -541 -54h-458l-2 2l2 2h457q92 0 170.5 3t136 7.5t105.5 12.5t79.5 15t57 18t38.5 18t24.5 18t15 16t9.5 15q-2 166 -284 165q-104 -1 -252 -11.5t-225 -10.5q-140 0 -211 12v3q23 96 100 178.5
t181 106.5l-1 -4q-101 -25 -177.5 -106t-98.5 -175q83 -12 206 -12q77 0 226 11t252 11z" />
    <glyph glyph-name="uni06AA.medi" unicode="&#x6aa;" horiz-adv-x="1209" 
d="M1209 4l2 -2l-2 -2q-69 0 -109.5 18t-70.5 49q-13 -7 -30 -13q-146 -54 -541 -54h-458l-2 2l2 2h457q92 0 170.5 3t136 7.5t105.5 12.5t79.5 15t57 18t38.5 18t24.5 18t15 16t9.5 15q-2 166 -284 165q-104 -1 -252 -11.5t-225 -10.5q-140 0 -211 12v3q23 96 100 178.5
t182 106.5l-2 -4q-101 -25 -177.5 -106t-98.5 -175q83 -12 206 -12q77 0 226 11t252 11q288 2 288 -168q-20 -37 -65 -59q32 -30 70.5 -47t106.5 -17z" />
    <glyph glyph-name="uni06AA.fina" unicode="&#x6aa;" horiz-adv-x="1262" 
d="M1262 4l2 -2l-2 -2q-69 0 -109.5 18t-70.5 49q-13 -7 -30 -13q-150 -54 -541 -54h-460l-1 4h460q92 0 170.5 3t136 7.5t105.5 12.5t79 15t57 18t39 18t24.5 18t15 16t9.5 15q-2 166 -284 165q-104 -1 -252 -11.5t-225 -10.5q-140 0 -211 12v3q23 96 100 178.5t181 106.5
l-1 -4q-101 -25 -177.5 -106t-98.5 -175q83 -12 206 -12q77 0 225.5 11t252.5 11q287 2 287 -168q-19 -37 -64 -59q32 -30 70.5 -47t106.5 -17z" />
    <glyph glyph-name="uni06AB.init" unicode="&#x6ab;" horiz-adv-x="455" 
d="M11 459q151 -93 226.5 -183t85.5 -187q-56 -44 -131 -66.5t-192 -22.5l-2 2l2 2q116 0 189.5 21.5t129.5 64.5q-10 96 -85 184.5t-227 182.5v4l379 277l-1 -5zM341 647q28 0 48 -20t20 -48q0 -27 -19 -47t-49 -20q-20 0 -36 9.5t-25 25t-9 32.5q0 27 20.5 47.5t49.5 20.5
zM341 515q28 0 46.5 19t18.5 45q0 13 -5 25t-14 20.5t-21 13.5t-25 5q-28 0 -47 -19t-19 -45q0 -16 8 -31t23.5 -24t34.5 -9z" />
    <glyph glyph-name="uni06AB.medi" unicode="&#x6ab;" horiz-adv-x="530" 
d="M530 4l2 -2l-2 -2q-30 0 -52.5 5.5t-41 15t-43 35t-45.5 50.5t-62 77q-44 -98 -109.5 -140.5t-176.5 -42.5l-2 2l2 2q110 0 174.5 42.5t108.5 139.5l-215 271l1 4l378 277l-1 -5l-124 -91q12 5 25 5q28 0 48 -20t20 -48q0 -27 -19 -47t-49 -20q-20 0 -36 9.5t-25 25
t-9 32.5q0 23 15 41l-220 -161l211 -266q36 -46 54.5 -69t42 -48.5t37.5 -36t33.5 -20.5t37.5 -12.5t42 -2.5zM412 579q0 26 -19 45t-46 19q-28 0 -47 -19t-19 -45q0 -16 8 -31t23.5 -24t34.5 -9q28 0 46.5 19t18.5 45z" />
    <glyph glyph-name="uni06AB.fina" unicode="&#x6ab;" horiz-adv-x="962" 
d="M962 4l2 -2l-2 -2q-30 0 -52.5 5.5t-41 15t-43 35t-45.5 50.5t-62 77q-23 -52 -50 -86t-71 -60t-108.5 -37.5t-156.5 -11.5q-263 0 -263 167q0 71 35 144l4 -2q-35 -72 -35 -142q0 -163 259 -163q92 0 156 11.5t107.5 37.5t70 59.5t49.5 85.5l-215 271l1 4l378 277l-1 -5
l-123 -90q11 4 23 4q28 0 48 -20t20 -48q0 -27 -19.5 -47t-48.5 -20q-30 0 -50 20t-20 47q0 21 13 39l-217 -159l211 -266q36 -46 54.5 -69t42.5 -48.5t37.5 -36t33 -20.5t37.5 -12.5t42 -2.5zM843 579q0 26 -19 45t-46 19q-28 0 -47 -19t-19 -45q0 -25 18.5 -44.5
t47.5 -19.5q28 0 46.5 19t18.5 45z" />
    <glyph glyph-name="uni06AC.init" unicode="&#x6ac;" horiz-adv-x="455" 
d="M26 742l-8 -11l-11 9l9 12zM386 738l-1 -5l-374 -274q151 -93 226.5 -183t85.5 -187q-56 -44 -131 -66.5t-192 -22.5l-2 2l2 2q116 0 189.5 21.5t129.5 64.5q-10 96 -85 184.5t-227 182.5v4z" />
    <glyph glyph-name="uni06AC.medi" unicode="&#x6ac;" horiz-adv-x="530" 
d="M84 742l-9 -11l-10 9l8 12zM530 4l2 -2l-2 -2q-30 0 -52.5 5.5t-41 15t-43 35t-45.5 50.5t-62 77q-44 -98 -109.5 -140.5t-176.5 -42.5l-2 2l2 2q110 0 174.5 42.5t108.5 139.5l-215 271l1 4l378 277l-1 -5l-374 -274l211 -266q36 -46 54.5 -69t42 -48.5t37.5 -36
t33.5 -20.5t37.5 -12.5t42 -2.5z" />
    <glyph glyph-name="uni06AC.fina" unicode="&#x6ac;" horiz-adv-x="826" 
d="M693 881l-8 -12l-11 10l8 11zM826 4l2 -2l-3 -2q-34 0 -61 12.5t-40.5 30t-20 31t-7.5 21.5q-127 -107 -364 -107q-263 0 -263 167q0 71 35 144l4 -2q-35 -72 -35 -142q0 -163 259 -163q236 0 363 107l-1 631h4v-627q0 -8 6.5 -22t19.5 -32.5t40 -31.5t62 -13zM308 288
l-1 4q114 0 170 46q0 25 -40 54t-95 52l2 4l145 82v-4l-142 -80q35 -15 64 -32t49 -37.5t20 -37.5q-50 -51 -172 -51z" />
    <glyph glyph-name="uni06AE.init" unicode="&#x6ae;" horiz-adv-x="455" 
d="M386 738l-1 -5l-374 -274q151 -93 226.5 -183t85.5 -187q-56 -44 -131 -66.5t-192 -22.5l-2 2l2 2q116 0 189.5 21.5t129.5 64.5q-10 96 -85 184.5t-227 182.5v4zM186 -142l8 11l10 -9l-8 -11zM69 -146l8 11l11 -9l-9 -11zM129 -243l8 11l10 -9l-8 -11z" />
    <glyph glyph-name="uni06AE.medi" unicode="&#x6ae;" horiz-adv-x="530" 
d="M530 4l2 -2l-2 -2q-30 0 -52.5 5.5t-41 15t-43 35t-45.5 50.5t-62 77q-44 -98 -109.5 -140.5t-176.5 -42.5l-2 2l2 2q110 0 174.5 42.5t108.5 139.5l-215 271l1 4l378 277l-1 -5l-374 -274l211 -266q36 -46 54.5 -69t42 -48.5t37.5 -36t33.5 -20.5t37.5 -12.5t42 -2.5z
M320 -142l8 11l10 -9l-8 -11zM203 -146l8 11l11 -9l-9 -11zM263 -243l8 11l10 -9l-8 -11z" />
    <glyph glyph-name="uni06AE.fina" unicode="&#x6ae;" horiz-adv-x="826" 
d="M826 4l2 -2l-3 -2q-34 0 -61 12.5t-40.5 30t-20 31t-7.5 21.5q-127 -107 -364 -107q-263 0 -263 167q0 71 35 144l4 -2q-35 -72 -35 -142q0 -163 259 -163q236 0 363 107l-1 631h4v-627q0 -8 6.5 -22t19.5 -32.5t40 -31.5t62 -13zM308 288l-1 4q114 0 170 46q0 25 -40 54
t-95 52l2 4l145 82v-4l-142 -80q35 -15 64 -32t49 -37.5t20 -37.5q-50 -51 -172 -51zM433 -142l8 11l10 -9l-8 -11zM316 -146l8 11l10 -9l-8 -11zM376 -243l8 11l10 -9l-8 -11z" />
    <glyph glyph-name="uni06B0.init" unicode="&#x6b0;" horiz-adv-x="455" 
d="M386 854v-4l-375 -278l1 4zM11 459q151 -93 226.5 -183t85.5 -187q-56 -44 -131 -66.5t-192 -22.5l-2 2l2 2q116 0 189.5 21.5t129.5 64.5q-10 96 -85 184.5t-227 182.5v4l379 277l-1 -5zM341 647q29 0 49 -20t20 -47t-19.5 -47.5t-49.5 -20.5q-29 0 -49 20.5t-20 47.5
t20 47t49 20zM341 516q29 0 47 19t18 45t-18.5 45t-46.5 19q-18 0 -33 -9t-24 -23.5t-9 -31.5q0 -26 19 -45t47 -19z" />
    <glyph glyph-name="uni06B0.medi" unicode="&#x6b0;" horiz-adv-x="530" 
d="M453 854v-4l-375 -278l1 4zM530 4l2 -2l-2 -2q-30 0 -52.5 5.5t-41 15t-43 35t-45.5 50.5t-62 77q-44 -98 -109.5 -140.5t-176.5 -42.5l-2 2l2 2q110 0 174.5 42.5t108.5 139.5l-215 271l1 4l378 277l-1 -5l-123 -90q12 4 24 4q29 0 49 -20t20 -47t-19.5 -47.5
t-49.5 -20.5q-29 0 -49 20.5t-20 47.5q0 22 14 40l-220 -161l211 -266q36 -46 54.5 -69t42 -48.5t37.5 -36t33.5 -20.5t37.5 -12.5t42 -2.5zM412 580q0 26 -18.5 45t-46.5 19q-27 0 -46.5 -19t-19.5 -45t19 -45t47 -19q29 0 47 19t18 45z" />
    <glyph glyph-name="uni06B0.fina" unicode="&#x6b0;" horiz-adv-x="962" 
d="M879 854v-4l-374 -278v4zM962 4l2 -2l-2 -2q-30 0 -52.5 5.5t-41 15t-43 35t-45.5 50.5t-62 77q-23 -52 -50 -86t-71 -60t-108.5 -37.5t-156.5 -11.5q-263 0 -263 167q0 71 35 144l4 -2q-35 -72 -35 -142q0 -163 259 -163q92 0 156 11.5t107.5 37.5t70 59.5t49.5 85.5
l-215 271l1 4l219 161q11 13 27 19l132 97l-1 -5l-121 -88q8 2 17 2q28 0 48 -20t20 -48q0 -27 -19.5 -47t-48.5 -20q-30 0 -50 20t-20 47q0 18 9 34l-209 -154l211 -266q36 -46 54.5 -69t42.5 -48.5t37.5 -36t33 -20.5t37.5 -12.5t42 -2.5zM774 643q-14 0 -25 -5l-27 -19
q-14 -18 -14 -40q0 -25 18.5 -44.5t47.5 -19.5q28 0 46.5 19t18.5 45t-19 45t-46 19z" />
    <glyph glyph-name="uni06B2.init" unicode="&#x6b2;" horiz-adv-x="455" 
d="M386 854v-4l-375 -278l1 4zM7 457v4l379 277l-1 -5l-374 -274q151 -93 226.5 -183t85.5 -187q-56 -44 -131 -66.5t-192 -22.5l-2 2l2 2q116 0 189.5 21.5t129.5 64.5q-10 96 -85 184.5t-227 182.5zM186 -142l8 11l10 -9l-8 -11zM69 -146l8 11l11 -9l-9 -11z" />
    <glyph glyph-name="uni06B2.medi" unicode="&#x6b2;" horiz-adv-x="530" 
d="M453 854v-4l-375 -278l1 4zM530 4l2 -2l-2 -2q-30 0 -52.5 5.5t-41 15t-43 35t-45.5 50.5t-62 77q-44 -98 -109.5 -140.5t-176.5 -42.5l-2 2l2 2q110 0 174.5 42.5t108.5 139.5l-215 271l1 4l378 277l-1 -5l-374 -274l211 -266q36 -46 54.5 -69t42 -48.5t37.5 -36
t33.5 -20.5t37.5 -12.5t42 -2.5zM320 -142l8 11l10 -9l-8 -11zM203 -146l8 11l11 -9l-9 -11z" />
    <glyph glyph-name="uni06B2.fina" unicode="&#x6b2;" horiz-adv-x="962" 
d="M879 854v-4l-374 -278v4zM962 4l2 -2l-2 -2q-30 0 -52.5 5.5t-41 15t-43 35t-45.5 50.5t-62 77q-23 -52 -50 -86t-71 -60t-108.5 -37.5t-156.5 -11.5q-263 0 -263 167q0 71 35 144l4 -2q-35 -72 -35 -142q0 -163 259 -163q92 0 156 11.5t107.5 37.5t70 59.5t49.5 85.5
l-215 271l1 4l378 277l-1 -5l-374 -274l211 -266q36 -46 54.5 -69t42.5 -48.5t37.5 -36t33 -20.5t37.5 -12.5t42 -2.5zM426 -142l9 11l10 -9l-8 -11zM310 -146l8 11l10 -9l-8 -11z" />
    <glyph glyph-name="uni06B4.init" unicode="&#x6b4;" horiz-adv-x="455" 
d="M147 939l-8 -12l-10 9l8 12zM386 854v-4l-375 -278l1 4zM207 842l-8 -12l-10 10l8 11zM90 838l-8 -12l-10 9l8 12zM7 457v4l379 277l-1 -5l-374 -274q151 -93 226.5 -183t85.5 -187q-56 -44 -131 -66.5t-192 -22.5l-2 2l2 2q116 0 189.5 21.5t129.5 64.5
q-10 96 -85 184.5t-227 182.5z" />
    <glyph glyph-name="uni06B4.medi" unicode="&#x6b4;" horiz-adv-x="530" 
d="M111 939l-8 -12l-11 9l9 12zM453 854v-4l-375 -278l1 4zM171 842l-8 -12l-11 10l8 11zM54 838l-8 -12l-10 9l8 12zM530 4l2 -2l-2 -2q-30 0 -52.5 5.5t-41 15t-43 35t-45.5 50.5t-62 77q-44 -98 -109.5 -140.5t-176.5 -42.5l-2 2l2 2q110 0 174.5 42.5t108.5 139.5
l-215 271l1 4l378 277l-1 -5l-374 -274l211 -266q36 -46 54.5 -69t42 -48.5t37.5 -36t33.5 -20.5t37.5 -12.5t42 -2.5z" />
    <glyph glyph-name="uni06B4.fina" unicode="&#x6b4;" horiz-adv-x="962" 
d="M583 939l-8 -12l-11 9l8 12zM879 854v-4l-374 -278v4zM643 842l-9 -12l-10 10l8 11zM526 838l-8 -12l-11 9l9 12zM962 4l2 -2l-2 -2q-30 0 -52.5 5.5t-41 15t-43 35t-45.5 50.5t-62 77q-23 -52 -50 -86t-71 -60t-108.5 -37.5t-156.5 -11.5q-263 0 -263 167q0 71 35 144
l4 -2q-35 -72 -35 -142q0 -163 259 -163q92 0 156 11.5t107.5 37.5t70 59.5t49.5 85.5l-215 271l1 4l378 277l-1 -5l-374 -274l211 -266q36 -46 54.5 -69t42.5 -48.5t37.5 -36t33 -20.5t37.5 -12.5t42 -2.5z" />
    <glyph glyph-name="uni06B5.init" unicode="&#x6b5;" horiz-adv-x="216" 
d="M28 932l77 -132l76 132l3 -1l-78 -135h-3l-78 135zM0 0l-2 2l2 2q39 0 69 16t44 45l-11 665h4l10 -666q-13 -29 -44 -46.5t-72 -17.5z" />
    <glyph glyph-name="uni06B5.medi" unicode="&#x6b5;" horiz-adv-x="231" 
d="M117 796h-3l-78 135l3 2l76 -133l77 133l3 -2zM231 4l2 -2l-3 -2q-46 0 -76 18.5t-39 43.5q-12 -26 -40.5 -44t-74.5 -18l-2 2l2 2q46 0 74 18t39 43v665h4v-662q7 -26 37 -45t77 -19z" />
    <glyph glyph-name="uni06B5.fina" unicode="&#x6b5;" horiz-adv-x="702" 
d="M545 796h-4l-78 135l3 1l77 -132l77 132l3 -1zM703 4l2 -2l-3 -2q-94 0 -147 64q-4 -120 -66.5 -178.5t-190.5 -58.5q-119 0 -174 53t-55 141q0 91 34 173l3 -2q-33 -81 -33 -170q0 -87 54 -139t171 -52q86 0 142 27t83 79.5t28 133.5l-10 659h4l10 -659v-2
q56 -65 148 -65z" />
    <glyph glyph-name="uni06B6.init" unicode="&#x6b6;" horiz-adv-x="216" 
d="M93 869l-11 10l9 11l10 -9zM0 0l-2 2l2 2q39 0 69 16t44 45l-11 665h4l10 -666q-13 -29 -44 -46.5t-72 -17.5z" />
    <glyph glyph-name="uni06B6.medi" unicode="&#x6b6;" horiz-adv-x="231" 
d="M112 881l-8 -12l-11 10l8 12zM231 4l2 -2l-3 -2q-31 0 -56.5 9.5t-39 23t-19.5 29.5q-12 -26 -40.5 -44t-74.5 -18l-2 2l2 2q46 0 74 18t39 43v665l4 1v-663q7 -26 37 -45t77 -19z" />
    <glyph glyph-name="uni06B6.fina" unicode="&#x6b6;" horiz-adv-x="702" 
d="M540 881l-9 -12l-11 10l9 11zM703 4l2 -2l-3 -2q-94 0 -147 64q-4 -120 -66.5 -178.5t-190.5 -58.5q-119 0 -174 53t-55 141q0 91 34 173l3 -2q-33 -81 -33 -170q0 -87 54 -139t171 -52q129 0 190 59.5t63 180.5l-10 659h4l10 -659v-2q56 -65 148 -65z" />
    <glyph glyph-name="uni06B7.init" unicode="&#x6b7;" horiz-adv-x="216" 
d="M70 980l10 -9l-8 -12l-10 9zM130 883l10 -9l-8 -11l-10 9zM13 879l10 -9l-8 -12l-10 9zM0 0l-2 2l2 2q39 0 69 16t44 45l-11 665h4l10 -666q-13 -29 -44 -46.5t-72 -17.5z" />
    <glyph glyph-name="uni06B7.medi" unicode="&#x6b7;" horiz-adv-x="231" 
d="M91 971l-8 -11l-11 9l9 11zM151 874l-9 -11l-10 9l8 11zM34 870l-8 -11l-11 9l9 11zM231 4l2 -2l-3 -2q-31 0 -56.5 9.5t-39 23t-19.5 29.5q-12 -26 -40.5 -44t-74.5 -18l-2 2l2 2q46 0 74 18t39 43v665h4v-662q7 -26 37 -45t77 -19z" />
    <glyph glyph-name="uni06B7.fina" unicode="&#x6b7;" horiz-adv-x="702" 
d="M519 971l-9 -12l-10 9l8 12zM578 874l-8 -11l-10 9l8 11zM462 870l-9 -12l-10 9l8 12zM703 4l2 -2l-3 -2q-94 0 -147 64q-4 -120 -66.5 -178.5t-190.5 -58.5q-119 0 -174 53t-55 141q0 91 34 173l3 -2q-33 -81 -33 -170q0 -87 54 -139t171 -52q129 0 190 59.5t63 180.5
l-10 659h4l10 -659v-2q56 -65 148 -65z" />
    <glyph glyph-name="uni06B8.init" unicode="&#x6b8;" horiz-adv-x="216" 
d="M0 0l-2 2l2 2q39 0 69 16t44 45l-11 665h4l10 -666q-13 -29 -44 -46.5t-72 -17.5zM177 -151l-10 9l8 11l11 -9zM61 -155l-11 9l9 11l10 -9zM120 -252l-10 9l8 11l11 -9z" />
    <glyph glyph-name="uni06B8.medi" unicode="&#x6b8;" horiz-adv-x="231" 
d="M231 4l2 -2l-3 -2q-31 0 -56.5 9.5t-39 23t-19.5 29.5q-12 -26 -40.5 -44t-74.5 -18l-2 2l2 2q46 0 74 18t39 43v665h4v-662q7 -26 37 -45t77 -19zM168 -142l8 11l10 -9l-8 -11zM51 -146l8 11l11 -9l-9 -11zM111 -243l8 11l10 -9l-8 -11z" />
    <glyph glyph-name="uni06B8.fina" unicode="&#x6b8;" horiz-adv-x="702" 
d="M703 4l2 -2l-3 -2q-94 0 -147 64q-4 -120 -66.5 -178.5t-190.5 -58.5q-119 0 -174 53t-55 141q0 91 34 173l3 -2q-33 -81 -33 -170q0 -87 54 -139t171 -52q129 0 190 59.5t63 180.5l-10 659h4l10 -659v-2q56 -65 148 -65zM349 -314l9 12l10 -9l-8 -12zM233 -318l8 11
l10 -9l-8 -11zM293 -415l8 12l10 -9l-8 -12z" />
    <glyph glyph-name="uni06B9.init" unicode="&#x6b9;" horiz-adv-x="273" 
d="M116 525l-10 9l8 12l11 -9zM0 0l-2 2l2 2q118 0 180 72q2 143 -50 293l4 2q52 -148 50 -295q-61 -76 -184 -76zM123 -135l-11 9l9 12l11 -9z" />
    <glyph glyph-name="uni06B9.medi" unicode="&#x6b9;" horiz-adv-x="280" 
d="M117 458l-8 -12l-11 10l8 11zM280 4l2 -2l-2 -2q-42 0 -76 12t-46.5 22.5t-16.5 17.5q-4 -6 -21.5 -17.5t-51.5 -23t-68 -11.5l-2 2l2 2q34 0 67.5 11.5t50.5 22.5t21 17l-20 249h4l19 -249q46 -51 138 -51zM138 -126l8 12l11 -10l-8 -11z" />
    <glyph glyph-name="uni06B9.fina" unicode="&#x6b9;" horiz-adv-x="658" 
d="M305 384l-8 -12l-11 10l8 12zM659 4l2 -2l-3 -2q-38 0 -63 19.5t-35 47.5q10 -56 10 -136q-7 -27 -30 -56t-57.5 -53.5t-83 -40.5t-101.5 -16q-61 0 -106 15t-71.5 41.5t-39 61t-12.5 76.5q0 91 34 172l3 -1q-33 -81 -33 -171q0 -86 54 -138t171 -52q100 0 175.5 51.5
t92.5 108.5q0 57 -4 101.5t-15.5 84t-16.5 55.5t-24.5 56t-21.5 45l4 2q4 -10 15 -32.5t15 -32t12 -27.5t11.5 -30t8 -28t7.5 -32q6 -38 32.5 -62.5t69.5 -24.5zM302 -349l9 12l11 -9l-9 -12z" />
    <glyph glyph-name="uni06BC.init" unicode="&#x6bc;" horiz-adv-x="273" 
d="M125 537l-9 -12l-10 9l8 12zM118 20q29 0 49 -20t20 -47t-19.5 -47.5t-49.5 -20.5q-14 0 -27.5 6t-22.5 15t-14 21.5t-5 25.5q0 18 9 33.5t25 24.5q-38 -11 -83 -11l-2 2l2 2q118 0 180 72q2 143 -50 293l4 2q52 -148 50 -295q-30 -37 -76 -56h10zM118 -111q29 0 47 19
t18 45t-19 45t-46 19t-46.5 -19t-19.5 -45t19 -45t47 -19z" />
    <glyph glyph-name="uni06BC.medi" unicode="&#x6bc;" horiz-adv-x="280" 
d="M117 458l-8 -12l-11 10l8 11zM141 52q-6 -9 -34 -24h3q28 0 48 -20t20 -47t-19 -47.5t-49 -20.5q-29 0 -49.5 20.5t-20.5 47.5q0 28 22 48q-31 -9 -62 -9l-2 2l2 2q36 0 71 12q12 8 25 11q35 17 43 28l-20 249h4l19 -249q46 -51 138 -51l2 -2l-2 -2q-42 0 -76 12
t-46.5 22.5t-16.5 17.5zM110 24h-12q-13 -7 -27 -12q-27 -19 -27 -51q0 -26 19 -45t47 -19q29 0 47 19t18 45t-19 44.5t-46 18.5z" />
    <glyph glyph-name="uni06BC.fina" unicode="&#x6bc;" horiz-adv-x="658" 
d="M305 384l-8 -12l-11 10l8 12zM659 4l2 -2l-3 -2q-38 0 -63 19.5t-35 47.5q10 -56 10 -136q-14 -54 -81 -104.5t-158 -59.5q11 -6 19 -15t12.5 -21t4.5 -24q0 -27 -19 -47.5t-49 -20.5q-29 0 -49.5 20.5t-20.5 47.5q0 18 10 34t27 25q-102 7 -149.5 59t-47.5 134
q0 91 34 172l3 -1q-33 -81 -33 -171q0 -82 48 -133t153 -56q12 4 25 4t24 -4q91 7 159 56.5t84 102.5q0 57 -4 101.5t-15.5 84t-16.5 55.5t-24.5 56t-21.5 45l4 2q4 -10 15 -32.5t15 -32t12 -27.5t11.5 -30t8 -28t7.5 -32q6 -38 32.5 -62.5t69.5 -24.5zM299 -229
q-7 0 -14 -2h13h15q-7 2 -14 2zM364 -293q0 13 -5 24.5t-14 20.5t-21 14q-13 -1 -26 -1t-25 1q-18 -8 -29 -24t-11 -35q0 -26 19 -45t47 -19q29 0 47 19t18 45z" />
    <glyph glyph-name="uni06BD.init" unicode="&#x6bd;" horiz-adv-x="273" 
d="M93 635l11 -9l-8 -11l-11 9zM153 539l11 -9l-9 -12l-10 9zM36 534l11 -9l-8 -11l-11 9zM0 0l-2 2l2 2q118 0 180 72q2 143 -50 293l4 2q52 -148 50 -295q-61 -76 -184 -76z" />
    <glyph glyph-name="uni06BD.medi" unicode="&#x6bd;" horiz-adv-x="280" 
d="M96 548l-8 -12l-10 9l8 12zM156 451l-8 -11l-11 9l9 11zM39 447l-8 -12l-10 9l8 12zM280 4l2 -2l-2 -2q-42 0 -76 12t-46.5 22.5t-16.5 17.5q-4 -6 -21.5 -17.5t-51.5 -23t-68 -11.5l-2 2l2 2q34 0 67.5 11.5t50.5 22.5t21 17l-20 249h4l19 -249q46 -51 138 -51z" />
    <glyph glyph-name="uni06BD.fina" unicode="&#x6bd;" horiz-adv-x="658" 
d="M284 474l-8 -11l-10 9l8 11zM344 377l-8 -11l-11 9l9 11zM227 373l-8 -11l-10 9l8 11zM659 4l2 -2l-3 -2q-38 0 -63 19.5t-35 47.5q10 -56 10 -136q-15 -60 -92 -113t-180 -53q-61 0 -106 15t-71.5 41.5t-39 61t-12.5 76.5q0 91 34 172l3 -1q-33 -81 -33 -171
q0 -86 54 -138t171 -52q100 0 175.5 51.5t92.5 108.5q0 57 -4 101.5t-15.5 84t-16.5 55.5t-24.5 56t-21.5 45l4 2q4 -10 15 -32.5t15 -32t12 -27.5t11.5 -30t8 -28t7.5 -32q6 -38 32.5 -62.5t69.5 -24.5z" />
    <glyph glyph-name="uni06BF.init" unicode="&#x6bf;" horiz-adv-x="696" 
d="M216 551l-8 -11l-11 9l9 12zM220 411q22 0 42 -4t47 -16t46 -22t57 -35t60 -40.5t76 -53.5t86 -60l-1 -5l-10 -1q-72 -9 -160 -38.5t-155.5 -59t-152 -53t-155.5 -23.5l-2 2l2 2q70 0 154.5 23.5t152.5 53t157.5 59.5t163.5 39q-28 19 -75 52.5t-67.5 48t-55 38t-51.5 33
t-42.5 23.5t-42 19t-36 9.5t-38.5 4.5q-58 0 -113 -33l-2 3q56 34 115 34zM349 -142l8 11l11 -9l-9 -11zM232 -146l9 11l10 -9l-8 -11zM292 -243l8 11l11 -9l-8 -11z" />
    <glyph glyph-name="uni06BF.medi" unicode="&#x6bf;" horiz-adv-x="772" 
d="M216 564l-8 -12l-11 9l9 12zM772 4l2 -2l-2 -2q-101 0 -169 44t-99 147q-52 -17 -121.5 -52.5t-121.5 -64.5t-123 -51.5t-138 -22.5l-2 2l2 2q61 0 124 18.5t118 46.5t108 57t114 54t116 33q-60 33 -153 91t-142 80.5t-94 22.5q-58 0 -114 -33l-2 3q57 34 116 34
q45 0 95.5 -23.5t144 -81.5t155.5 -92l-1 -4l-8 -2q-34 -5 -69 -16q31 -102 98 -145t166 -43zM420 -92l8 11l11 -9l-9 -11zM303 -96l9 11l10 -9l-8 -11zM363 -193l8 11l11 -9l-9 -11z" />
    <glyph glyph-name="uni06BF.fina" unicode="&#x6bf;" horiz-adv-x="712" 
d="M219 551l-9 -11l-10 9l8 12zM712 4l2 -2l-2 -2q-103 0 -160 48.5t-69 162.5q-178 -43 -283 -133.5t-105 -215.5q0 -91 58.5 -145.5t157.5 -54.5q131 0 229 44l2 -4q-100 -44 -231 -44q-101 0 -160.5 55.5t-59.5 148.5q0 126 105.5 217.5t285.5 135.5q0 6 -1 12l4 1
q0 -7 1 -13q41 10 84 17q-39 22 -99 60t-94 58.5t-77.5 37.5t-77.5 17q-59 0 -109 -36l-2 4q52 36 111 36q45 0 94 -22t135 -77t125 -76l-1 -5l-7 -1q-42 -7 -82 -16q12 -113 68 -160.5t158 -47.5zM414 -45l-11 9l9 12l10 -9zM297 -49l-10 9l8 11l10 -9zM357 -146l-11 9
l9 12l10 -9z" />
    <glyph glyph-name="uni06C2.fina" unicode="&#x6c2;" horiz-adv-x="514" 
d="M286 310v-3l-171 -26v3l85 13q-66 37 -66 84q0 27 20.5 46t58.5 19q26 0 52 -12v-3q-26 12 -52 12q-37 0 -56.5 -18t-19.5 -44q0 -46 68 -83zM514 4l2 -2l-2 -2q-42 0 -75 11t-54.5 28.5t-39 39t-31.5 43t-29 39t-36 28.5t-47 11q-107 0 -167 -224l-5 1q64 227 172 227
q23 0 42.5 -8.5t33 -22.5t27.5 -32t26.5 -37t30 -37t37 -32t49.5 -22.5t66 -8.5z" />
    <glyph glyph-name="uni06C3.fina" unicode="&#x6c3;" horiz-adv-x="514" 
d="M238 318l-11 9l9 11l10 -8zM121 314l-10 9l8 11l10 -9zM35 -24l-5 1q64 227 172 227q23 0 42.5 -8.5t33 -22.5t27.5 -32t26.5 -37t30 -37t37 -32t49.5 -22.5t66 -8.5l2 -2l-2 -2q-42 0 -75 11t-54.5 28.5t-39 39t-31.5 43t-29 39t-36 28.5t-47 11q-107 0 -167 -224z" />
    <glyph glyph-name="uni06C4.fina" unicode="&#x6c4;" horiz-adv-x="507" 
d="M510 2l-3 -2h-105q-18 -95 -99 -156.5t-232 -79.5l-2 4q151 18 231.5 78.5t97.5 153.5h-98q-95 0 -152 41.5t-57 106.5q0 69 47.5 122.5t100.5 53.5q65 0 116.5 -75.5t51.5 -193.5q0 -26 -4 -51h104zM399 4q4 24 4 50q0 60 -14.5 111t-38 84.5t-52.5 52t-59 18.5
q-51 0 -97.5 -52t-46.5 -120q0 -63 56 -103.5t150 -40.5h98zM238 -139q0 -27 -19.5 -47t-49.5 -20q-29 0 -49 20.5t-20 46.5q0 14 5.5 26t14.5 21.5t22 15t27 5.5q19 0 35 -9.5t25 -25t9 -33.5zM103 -139q0 -12 5 -23.5t13.5 -20.5t21 -14.5t26.5 -5.5q29 0 47 19.5t18 44.5
q0 27 -18.5 45.5t-46.5 18.5q-27 0 -46.5 -19t-19.5 -45z" />
    <glyph glyph-name="uni06CA.fina" unicode="&#x6ca;" horiz-adv-x="507" 
d="M297 461l-8 -11l-11 9l8 11zM180 457l-8 -11l-10 9l8 11zM510 2l-3 -2h-105q-18 -95 -99 -156.5t-232 -79.5l-2 4q151 18 231.5 78.5t97.5 153.5h-98q-95 0 -152 41.5t-57 106.5q0 69 47.5 122.5t100.5 53.5q65 0 116.5 -75.5t51.5 -193.5q0 -26 -4 -51h104zM399 4
q4 24 4 50q0 60 -14.5 111t-38 84.5t-52.5 52t-59 18.5q-51 0 -97.5 -52t-46.5 -120q0 -63 56 -103.5t150 -40.5h98z" />
    <glyph glyph-name="uni06CD.fina" unicode="&#x6cd;" horiz-adv-x="710" 
d="M712 2l-2 -2q-43 0 -81.5 10.5t-103.5 39.5q51 -27 69 -52.5t17 -77.5q-11 -15 -35.5 -31.5t-61 -33t-90.5 -27.5t-113 -11q-119 0 -174 53t-55 142q0 85 30 163q-43 -41 -111 -56l-1 2q72 16 115 63l4 -2q-33 -81 -33 -170q0 -87 53.5 -139t171.5 -52q110 0 188.5 32.5
t108.5 67.5q0 33 -5.5 52t-27 40t-61 39.5t-110.5 44.5l2 3q49 -18 104.5 -41t79 -32t55 -16t65.5 -7z" />
    <glyph glyph-name="uni06CE.init" unicode="&#x6ce;" horiz-adv-x="273" 
d="M52 588l76 -133l77 133l3 -1l-78 -135h-4l-78 135zM0 0l-2 2l2 2q118 0 180 72q2 143 -50 293l4 2q52 -148 50 -295q-61 -76 -184 -76zM181 -151l-10 9l8 11l10 -9zM64 -155l-10 9l8 11l11 -9z" />
    <glyph glyph-name="uni06CE.medi" unicode="&#x6ce;" horiz-adv-x="280" 
d="M122 373h-3l-78 135l3 1l77 -133l76 133l3 -1zM280 4l2 -2l-2 -2q-42 0 -76 12t-46.5 22.5t-16.5 17.5q-4 -6 -21.5 -17.5t-51.5 -23t-68 -11.5l-2 2l2 2q34 0 67.5 11.5t50.5 22.5t21 17l-20 249h4l19 -249q46 -51 138 -51zM196 -142l9 11l10 -9l-8 -11zM80 -146l8 11
l10 -9l-8 -11z" />
    <glyph glyph-name="uni06CE.fina" unicode="&#x6ce;" horiz-adv-x="697" 
d="M129 289h-3l-78 136l3 1l77 -133l76 133l3 -1zM700 2l-3 -2q-29 0 -56 5t-55.5 15t-72.5 30q50 -27 68 -52.5t18 -77.5q-12 -15 -36.5 -31.5t-61 -33t-90.5 -27.5t-113 -11q-61 0 -106 15t-71.5 42t-39 61t-12.5 77q0 90 34 172l3 -2q-33 -81 -33 -170q0 -87 54 -139
t171 -52q110 0 189 32.5t108 67.5q0 33 -5.5 52t-27 40t-61 39.5t-110.5 44.5l2 3q49 -18 104.5 -41t79 -32t55.5 -16t65 -7z" />
    <glyph glyph-name="uni06CF.fina" unicode="&#x6cf;" horiz-adv-x="507" 
d="M249 477l-8 -11l-11 9l9 12zM510 2l-3 -2h-105q-18 -95 -99 -156.5t-232 -79.5l-2 4q151 18 231.5 78.5t97.5 153.5h-98q-95 0 -152 41.5t-57 106.5q0 69 47.5 122.5t100.5 53.5q65 0 116.5 -75.5t51.5 -193.5q0 -26 -4 -51h104zM399 4q4 24 4 50q0 60 -14.5 111
t-38 84.5t-52.5 52t-59 18.5q-51 0 -97.5 -52t-46.5 -120q0 -63 56 -103.5t150 -40.5h98z" />
    <glyph glyph-name="uni06D1.init" unicode="&#x6d1;" horiz-adv-x="273" 
d="M0 0l-2 2l2 2q118 0 180 72q2 143 -50 293l4 2q52 -148 50 -295q-61 -76 -184 -76zM181 -151l-10 9l8 11l10 -9zM64 -155l-10 9l8 11l11 -9zM124 -252l-10 9l8 11l10 -9z" />
    <glyph glyph-name="uni06D1.medi" unicode="&#x6d1;" horiz-adv-x="280" 
d="M280 4l2 -2l-2 -2q-42 0 -76 12t-46.5 22.5t-16.5 17.5q-4 -6 -21.5 -17.5t-51.5 -23t-68 -11.5l-2 2l2 2q34 0 67.5 11.5t50.5 22.5t21 17l-20 249h4l19 -249q46 -51 138 -51zM196 -142l9 11l10 -9l-8 -11zM80 -146l8 11l10 -9l-8 -11zM139 -243l9 11l10 -9l-8 -11z" />
    <glyph glyph-name="uni06D1.fina" unicode="&#x6d1;" horiz-adv-x="697" 
d="M700 2l-3 -2q-43 0 -81 10.5t-103 39.5q50 -27 68 -52.5t18 -77.5q-12 -15 -36.5 -31.5t-61 -33t-90.5 -27.5t-113 -11q-61 0 -106 15t-71.5 42t-39 61t-12.5 77q0 90 34 172l3 -2q-33 -81 -33 -170q0 -87 54 -139t171 -52q110 0 189 32.5t108 67.5q0 33 -5.5 52t-27 40
t-61 39.5t-110.5 44.5l2 3q49 -18 104.5 -41t79 -32t55.5 -16t65 -7zM359 -322l8 11l11 -9l-9 -11zM242 -326l9 11l10 -9l-8 -11zM302 -423l8 11l11 -9l-9 -11z" />
    <glyph glyph-name="uni06D5.fina" unicode="&#x6d5;" horiz-adv-x="475" 
d="M475 4l2 -2l-2 -2h-3q-62 0 -95.5 27t-36.5 77q-26 -22 -70.5 -41.5t-99.5 -19.5t-93 24t-47 49q0 61 40.5 110.5t107 82t155.5 51.5l-3 118l4 1l10 -370q1 -51 33.5 -78t94.5 -27h3zM34 116q10 -23 46.5 -46t90.5 -23t98 19t71 42l-7 248q-135 -28 -217 -90t-82 -150z
" />
    <glyph glyph-name="uni06EE.fina" unicode="&#x6ee;" horiz-adv-x="503" 
d="M163 702l-76 -133l-3 2l78 135h3l78 -135l-3 -2zM503 4l3 -2l-3 -2q-35 0 -56.5 5.5t-35.5 19.5t-24 39q-82 -76 -199 -76q-78 0 -158 33l2 4q75 -33 156 -33q116 0 197 76l-153 397l4 2l152 -396q15 -41 39.5 -54t75.5 -13z" />
    <glyph glyph-name="uni06FA.init" unicode="&#x6fa;" horiz-adv-x="724" 
d="M372 548l-8 -12l-10 9l8 12zM432 451l-8 -11l-10 9l8 11zM315 447l-8 -12l-10 9l8 12zM575 370q20 -46 30.5 -78.5t20 -92t9.5 -131.5q-14 -28 -51 -48t-76 -20q-34 0 -62.5 12t-40.5 22.5t-16 17.5q-3 -7 -15.5 -18t-41.5 -22.5t-63 -11.5t-62.5 12t-40.5 22.5t-16 17.5
q-2 -5 -11 -12.5t-26 -17t-47 -16t-66 -6.5l-2 2l2 2q30 0 55.5 4.5t41 11t27.5 14.5t17 13t7 8l-20 249h4l20 -249q44 -51 117 -51q34 0 62.5 12t40 22t15.5 17l-20 249h4l20 -249q44 -51 117 -51q37 0 72.5 18.5t50.5 44.5q0 72 -9.5 131.5t-20 91t-30.5 78.5zM414 -126
l8 12l11 -10l-8 -11z" />
    <glyph glyph-name="uni06FA.medi" unicode="&#x6fa;" horiz-adv-x="811" 
d="M344 548l-8 -12l-10 9l8 12zM404 451l-8 -11l-10 9l8 11zM288 447l-9 -12l-10 9l8 12zM811 4l2 -2l-2 -2q-47 0 -84 10.5t-56 23t-37 31.5q-16 -28 -52 -46.5t-74 -18.5q-34 0 -62.5 12t-40.5 22.5t-16 17.5q-3 -7 -15.5 -18t-41.5 -22.5t-63 -11.5t-62.5 12t-40.5 22.5
t-16 17.5q-2 -5 -11 -12.5t-26 -17t-47 -16t-66 -6.5l-2 2l2 2q30 0 55.5 4.5t41 11t27.5 14.5t17 13t7 8l-20 249h4l20 -249q44 -51 117 -51q34 0 62.5 12t40 22t15.5 17l-20 249h4l20 -249q44 -51 117 -51q38 0 73 18.5t50 44.5q0 36 -16 131t-33 170l5 2
q16 -75 31.5 -170t16.5 -132q32 -30 70.5 -47t105.5 -17zM387 -126l9 12l10 -10l-8 -11z" />
    <glyph glyph-name="uni06FA.fina" unicode="&#x6fa;" horiz-adv-x="1201" 
d="M734 548l-8 -12l-10 9l8 12zM794 451l-8 -11l-11 9l9 11zM677 447l-8 -12l-10 9l8 12zM1201 4l2 -2l-2 -2q-68 0 -108.5 17.5t-69.5 47.5q-16 -28 -51.5 -46.5t-74.5 -18.5q-33 0 -62 12t-41 22.5t-16 17.5q-3 -7 -15.5 -18t-41.5 -22.5t-63 -11.5v0q-38 0 -63 19.5
t-35 47.5q10 -56 10 -136q-7 -27 -30 -56t-57.5 -53.5t-83 -40.5t-101.5 -16q-61 0 -106 15t-71.5 41.5t-39 61t-12.5 76.5q0 91 34 172l3 -1q-33 -81 -33 -171q0 -86 54 -138t171 -52q52 0 99.5 15.5t81.5 39.5t56.5 51.5t30.5 53.5q0 57 -4 101.5t-15.5 84t-16.5 55.5
t-24.5 56t-21.5 45l4 2q4 -10 15 -32.5t15 -32t12 -27.5t11.5 -30t8 -28t7.5 -32q4 -25 16.5 -44t34.5 -31t51 -12q34 0 62.5 12t39.5 22t15 17l-20 249h4l20 -249q45 -51 117 -51q38 0 73.5 18.5t50.5 44.5q-1 36 -16.5 131t-32.5 170l4 2q17 -75 32.5 -170t16.5 -132
q14 -14 27.5 -23.5t34.5 -20t49.5 -15.5t64.5 -5zM777 -126l8 12l11 -10l-9 -11z" />
    <glyph glyph-name="uni06FB.init" unicode="&#x6fb;" horiz-adv-x="889" 
d="M580 493l-8 -12l-11 10l9 11zM653 353q77 0 115.5 -67t30.5 -197q-49 -47 -131.5 -68t-222.5 -21h-172q-31 0 -58 6.5t-42.5 16t-24 17.5t-11.5 13q-7 -13 -48 -33t-89 -20l-2 2l2 2q48 0 87.5 19.5t48.5 33.5l-18 306h4l17 -306q7 -10 19 -20t43 -21.5t71 -11.5
q36 93 95 171.5t135.5 128t150.5 49.5zM795 88q8 128 -29 194.5t-112 66.5q-74 0 -149.5 -49t-134 -126.5t-94.5 -169.5h169q137 0 218 19.5t132 64.5zM440 -126l8 12l11 -10l-9 -11z" />
    <glyph glyph-name="uni06FB.medi" unicode="&#x6fb;" horiz-adv-x="924" 
d="M580 493l-8 -12l-11 10l9 11zM924 4l2 -2l-2 -2q-90 0 -129 86q-49 -46 -130.5 -66t-219.5 -20h-172q-31 0 -58 6.5t-42.5 16t-24 17.5t-11.5 13q-7 -13 -48 -33t-89 -20l-2 2l2 2q48 0 87.5 19.5t48.5 33.5l-18 306h4l17 -306q7 -10 19 -20t43 -21.5t71 -11.5
q36 93 95 171.5t135.5 128t150.5 49.5q77 0 115.5 -67t30.5 -197h-1q37 -85 126 -85zM276 4h169q137 0 218 19.5t132 64.5q4 64 -4 113.5t-26 82t-46 49t-65 16.5q-74 0 -149.5 -49t-134 -126.5t-94.5 -169.5zM440 -126l8 12l11 -10l-9 -11z" />
    <glyph glyph-name="uni06FB.fina" unicode="&#x6fb;" horiz-adv-x="1309" 
d="M966 493l-8 -12l-11 10l8 11zM1309 4l3 -2l-3 -2q-90 0 -128 86q-49 -46 -131 -66t-220 -20h-172q-38 0 -63 19.5t-35 47.5q10 -56 10 -136q-15 -60 -92 -113t-180 -53q-61 0 -106 15t-71.5 41.5t-39 61t-12.5 76.5q0 91 34 172l3 -1q-33 -81 -33 -171q0 -86 54 -138
t171 -52q52 0 99.5 15.5t81.5 39.5t56.5 51.5t30.5 53.5q0 57 -4 101.5t-15.5 84t-16.5 55.5t-24.5 56t-21.5 45l4 2q5 -10 13.5 -28t12.5 -27.5t10.5 -24.5t10.5 -25.5t8.5 -23.5t7.5 -26t6 -27q6 -38 32 -62.5t69 -24.5q36 93 95 171.5t135 128t151 49.5q77 0 115 -67
t31 -197h-1q36 -85 125 -85zM662 4h168q138 0 219 19.5t132 64.5q5 85 -10.5 144t-48.5 88t-83 29q-74 0 -149 -49t-133.5 -126.5t-94.5 -169.5zM825 -126l8 12l11 -9l-8 -12z" />
    <glyph glyph-name="uni06FC.init" unicode="&#x6fc;" horiz-adv-x="514" 
d="M230 526l-8 -12l-11 10l8 11zM484 55v-4q-133 -31 -213.5 -41t-215.5 -10h-55l-2 2l2 2h54q114 0 186 7q-56 31 -93 65t-57 74.5t-20 86.5q0 64 42.5 105.5t120.5 41.5q68 0 130 -33l-2 -4q-60 33 -128 33q-39 0 -69.5 -11t-50 -30.5t-29.5 -45.5t-10 -56
q0 -129 172 -226q87 9 238 44zM254 -126l9 12l10 -10l-8 -11z" />
    <glyph glyph-name="uni06FC.medi" unicode="&#x6fc;" horiz-adv-x="529" 
d="M276 507l-8 -12l-11 9l9 12zM530 4l2 -2l-3 -2h-17q-115 0 -229 100q-67 -45 -139.5 -72.5t-130.5 -27.5h-13l-2 2l2 2h13q58 0 129.5 27t137.5 71q-24 22 -58 57.5t-74 72.5t-95 78l1 4q116 51 226 51q56 0 101 -12t65 -32q0 -36 -21.5 -75.5t-56.5 -75.5t-82 -68
q54 -47 108 -72.5t119 -25.5h17zM57 312q73 -55 142.5 -124.5t83.5 -82.5q71 49 115.5 106t44.5 109q-47 41 -163 41q-108 0 -223 -49zM284 -126l9 12l10 -10l-8 -11z" />
    <glyph glyph-name="uni06FC.fina" unicode="&#x6fc;" horiz-adv-x="552" 
d="M280 516l-8 -12l-11 10l9 11zM552 4l3 -2l-3 -2h-18q-121 0 -227 89q-13 11 -27 25q-46 -28 -81 -55t-67.5 -61t-50.5 -73.5t-18 -80.5q0 -57 27 -97.5t80 -62.5t128 -22q131 0 229 44l2 -4q-100 -44 -231 -44q-114 0 -176.5 49.5t-62.5 135.5q0 42 18 82t51 74.5
t68 61.5t81 55q-17 15 -43 41.5t-47 47t-53.5 49.5t-66.5 56v4q116 51 226 51q56 0 100.5 -12t65.5 -32q0 -34 -10 -60t-36 -51.5t-52.5 -44t-77.5 -49.5q15 -14 28 -25q105 -87 224 -87h17zM71 312q43 -34 80 -68t75 -72l54 -54q51 31 77.5 50t52 43.5t35.5 50t10 58.5
q-45 41 -162 41q-108 0 -222 -49zM327 -125l-11 9l8 12l11 -10z" />
    <glyph glyph-name="uni06FF.init" unicode="&#x6ff;" horiz-adv-x="642" 
d="M360 648l-76 -133l-3 2l78 135h3l78 -135l-3 -2zM128 488q110 -55 204.5 -125.5t158 -152.5t63.5 -151q-14 -31 -56.5 -51t-93.5 -20q-96 0 -184 50q-87 -38 -209 -38h-11l-2 2l2 2h10q120 0 206 37q-29 17 -53 38.5t-42 46.5t-28 54.5t-10 60.5q0 68 43 115t107 47
q26 0 49 -10q-75 51 -156 91zM86 241q0 -60 37 -111.5t98 -86.5q72 32 110 84t38 110q0 33 -10.5 63t-28 52t-43 35t-54.5 13q-63 0 -105 -46t-42 -113zM404 -8q32 0 61.5 8t52.5 23.5t32 35.5q0 68 -61 147.5t-163 155.5q46 -50 46 -125q0 -58 -37.5 -111t-109.5 -86
q86 -48 179 -48z" />
    <glyph glyph-name="uni06FF.medi" unicode="&#x6ff;" horiz-adv-x="466" 
d="M302 516l-77 -133l-3 1l78 135h3l78 -135l-3 -1zM468 2l-2 -2h-227q31 -5 58.5 -16.5t52 -31.5t38.5 -53t14 -76q-3 -11 -13 -22t-24.5 -20.5t-36 -16t-45.5 -6.5q-80 0 -132 69t-52 173h-99l-2 2l2 2h99q0 53 18 109.5t46 101t65.5 73t73.5 28.5q40 0 68 -36t28 -93
q0 -64 -48.5 -118.5t-120.5 -64.5h237zM301 312q-47 0 -93.5 -47t-75.5 -119t-29 -142h94q84 0 141 57t57 125q0 56 -27.5 91t-66.5 35zM399 -178q0 47 -17.5 82.5t-47 55.5t-63.5 30t-72 10h-8h-88q0 -103 51 -170.5t129 -67.5q45 0 76 19t40 41z" />
    <glyph glyph-name="uni06FF.fina" unicode="&#x6ff;" horiz-adv-x="548" 
d="M384 516l-77 -133l-3 1l78 135h3l78 -135l-3 -1zM550 2l-2 -2h-227q31 -5 58.5 -16.5t52 -31.5t38.5 -53t14 -76q-3 -11 -13 -22t-24.5 -20.5t-36 -16t-45.5 -6.5q-80 0 -132 69t-52 173q-79 1 -132 23l2 4q30 -13 60 -18t70 -5q0 53 18 109.5t46 101t65.5 73t73.5 28.5
q40 0 68 -36t28 -93q0 -64 -48.5 -118.5t-120.5 -64.5h237zM383 312q-47 0 -93.5 -47t-75.5 -119t-29 -142h5h89q84 0 141 57t57 125q0 56 -27.5 91t-66.5 35zM481 -178q0 47 -17.5 82.5t-47 55.5t-63.5 30t-72 10h-96q0 -103 51 -170.5t129 -67.5q45 0 76 19t40 41z" />
    <glyph glyph-name="uniFB51" unicode="&#x671;" horiz-adv-x="217" arabic-form="final" 
d="M127 711q-35 0 -103 23l-17 -49l-2 2l17 51q18 -6 32 -11q49 96 107 96q16 0 27.5 -4.5t18 -12.5t10 -16.5t3.5 -18.5q0 -18 -11 -31.5t-32 -21t-50 -7.5zM161 819q-57 0 -104 -92q42 -12 70 -12q42 0 65.5 15t23.5 41q0 12 -4.5 22.5t-17.5 18t-33 7.5zM103 114
q0 -56 30.5 -83t83.5 -27l2 -2l-2 -2q-55 0 -86.5 28t-31.5 86v514h4v-514z" />
    <glyph glyph-name="uniFB53" unicode="&#x67b;" horiz-adv-x="843" arabic-form="final" 
d="M843 4l2 -2l-2 -2q-35 0 -62.5 12.5t-41 30t-20 31t-7.5 21.5q-128 -107 -380 -107q-263 0 -263 167q0 71 35 144l4 -2q-35 -72 -35 -142q0 -163 259 -163q251 0 378 107l-25 205h4l25 -201q0 -9 6 -22.5t19.5 -32t40.5 -31.5t63 -13zM346 -114l10 -9l-8 -12l-10 9z
M348 -233l9 11l10 -9l-8 -11z" />
    <glyph glyph-name="uniFB54" unicode="&#x67b;" horiz-adv-x="273" arabic-form="initial" 
d="M0 0l-2 2l2 2q118 0 180 72q2 143 -50 293l4 2q52 -148 50 -295q-61 -76 -184 -76zM113 -135l-11 9l8 12l11 -9zM123 -242l-10 9l8 11l10 -9z" />
    <glyph glyph-name="uniFB55" unicode="&#x67b;" horiz-adv-x="280" arabic-form="medial" 
d="M280 4l2 -2l-2 -2q-42 0 -76 12t-46.5 22.5t-16.5 17.5q-4 -6 -21.5 -17.5t-51.5 -23t-68 -11.5l-2 2l2 2q34 0 67.5 11.5t50.5 22.5t21 17l-20 249h4l19 -249q46 -51 138 -51zM136 -114l10 -9l-8 -12l-10 9zM138 -233l9 11l10 -9l-8 -11z" />
    <glyph glyph-name="uniFB57" unicode="&#x67e;" horiz-adv-x="843" arabic-form="final" 
d="M843 4l2 -2l-2 -2q-35 0 -62.5 12.5t-41 30t-20 31t-7.5 21.5q-128 -107 -380 -107q-263 0 -263 167q0 71 35 144l4 -2q-35 -72 -35 -142q0 -163 259 -163q251 0 378 107l-25 205h4l25 -201q0 -9 6 -22.5t19.5 -32t40.5 -31.5t63 -13zM406 -142l9 11l10 -9l-8 -11z
M290 -146l8 11l10 -9l-8 -11zM350 -243l8 11l10 -9l-8 -11z" />
    <glyph glyph-name="uniFB58" unicode="&#x67e;" horiz-adv-x="273" arabic-form="initial" 
d="M0 0l-2 2l2 2q118 0 180 72q2 143 -50 293l4 2q52 -148 50 -295q-61 -76 -184 -76zM181 -151l-10 9l8 11l10 -9zM64 -155l-10 9l8 11l11 -9zM124 -252l-10 9l8 11l10 -9z" />
    <glyph glyph-name="uniFB59" unicode="&#x67e;" horiz-adv-x="280" arabic-form="medial" 
d="M280 4l2 -2l-2 -2q-42 0 -76 12t-46.5 22.5t-16.5 17.5q-4 -6 -21.5 -17.5t-51.5 -23t-68 -11.5l-2 2l2 2q34 0 67.5 11.5t50.5 22.5t21 17l-20 249h4l19 -249q46 -51 138 -51zM196 -142l9 11l10 -9l-8 -11zM80 -146l8 11l10 -9l-8 -11zM139 -243l9 11l10 -9l-8 -11z" />
    <glyph glyph-name="uniFB5B" unicode="&#x680;" horiz-adv-x="843" arabic-form="final" 
d="M843 4l2 -2l-2 -2q-35 0 -62.5 12.5t-41 30t-20 31t-7.5 21.5q-128 -107 -380 -107q-263 0 -263 167q0 71 35 144l4 -2q-35 -72 -35 -142q0 -163 259 -163q251 0 378 107l-25 205h4l25 -201q0 -9 6 -22.5t19.5 -32t40.5 -31.5t63 -13zM410 -90l10 -9l-8 -12l-10 9z
M293 -95l10 -9l-8 -11l-10 9zM412 -209l8 11l11 -9l-9 -11zM295 -213l9 11l10 -9l-8 -11z" />
    <glyph glyph-name="uniFB5C" unicode="&#x680;" horiz-adv-x="273" arabic-form="initial" 
d="M0 0l-2 2l2 2q118 0 180 72q2 143 -50 293l4 2q52 -148 50 -295q-61 -76 -184 -76zM176 -111l-10 9l8 12l10 -9zM60 -115l-11 9l9 11l10 -9zM187 -218l-11 9l9 11l10 -9zM70 -222l-10 9l8 11l10 -9z" />
    <glyph glyph-name="uniFB5D" unicode="&#x680;" horiz-adv-x="280" arabic-form="medial" 
d="M280 4l2 -2l-2 -2q-42 0 -76 12t-46.5 22.5t-16.5 17.5q-4 -6 -21.5 -17.5t-51.5 -23t-68 -11.5l-2 2l2 2q34 0 67.5 11.5t50.5 22.5t21 17l-20 249h4l19 -249q46 -51 138 -51zM200 -90l10 -9l-8 -12l-10 9zM83 -95l10 -9l-8 -11l-10 9zM202 -209l8 11l11 -9l-9 -11z
M85 -213l9 11l10 -9l-8 -11z" />
    <glyph glyph-name="uniFB5F" unicode="&#x67a;" horiz-adv-x="843" arabic-form="final" 
d="M404 498l-8 -12l-11 10l8 11zM406 379l-10 9l8 11l10 -9zM843 4l2 -2l-2 -2q-35 0 -62.5 12.5t-41 30t-20 31t-7.5 21.5q-128 -107 -380 -107q-263 0 -263 167q0 71 35 144l4 -2q-35 -72 -35 -142q0 -163 259 -163q251 0 378 107l-25 205h4l25 -201q0 -9 6 -22.5
t19.5 -32t40.5 -31.5t63 -13z" />
    <glyph glyph-name="uniFB60" unicode="&#x67a;" horiz-adv-x="273" arabic-form="initial" 
d="M122 578l-10 8l8 12l10 -9zM132 470l-10 9l8 11l10 -9zM0 0l-2 2l2 2q118 0 180 72q2 143 -50 293l4 2q52 -148 50 -295q-61 -76 -184 -76z" />
    <glyph glyph-name="uniFB61" unicode="&#x67a;" horiz-adv-x="280" arabic-form="medial" 
d="M122 510l-8 -11l-10 9l8 11zM125 391l-11 9l9 12l10 -9zM280 4l2 -2l-2 -2q-42 0 -76 12t-46.5 22.5t-16.5 17.5q-4 -6 -21.5 -17.5t-51.5 -23t-68 -11.5l-2 2l2 2q34 0 67.5 11.5t50.5 22.5t21 17l-20 249h4l19 -249q46 -51 138 -51z" />
    <glyph glyph-name="uniFB63" unicode="&#x67f;" horiz-adv-x="843" arabic-form="final" 
d="M440 517l-8 -12l-11 9l9 12zM323 513l-8 -12l-10 9l8 12zM442 398l-10 9l8 11l10 -9zM325 394l-10 9l8 11l11 -9zM843 4l2 -2l-2 -2q-35 0 -62.5 12.5t-41 30t-20 31t-7.5 21.5q-128 -107 -380 -107q-263 0 -263 167q0 71 35 144l4 -2q-35 -72 -35 -142q0 -163 259 -163
q251 0 378 107l-25 205h4l25 -201q0 -9 6 -22.5t19.5 -32t40.5 -31.5t63 -13z" />
    <glyph glyph-name="uniFB64" unicode="&#x67f;" horiz-adv-x="273" arabic-form="initial" 
d="M158 596l-10 9l8 12l10 -9zM41 592l-10 9l8 11l10 -8zM168 489l-10 9l8 11l11 -9zM52 485l-11 9l9 11l10 -9zM0 0l-2 2l2 2q118 0 180 72q2 143 -50 293l4 2q52 -148 50 -295q-61 -76 -184 -76z" />
    <glyph glyph-name="uniFB65" unicode="&#x67f;" horiz-adv-x="280" arabic-form="medial" 
d="M158 529l-8 -11l-10 9l8 11zM42 525l-8 -12l-11 9l9 12zM161 410l-11 9l9 12l10 -9zM44 406l-10 9l8 11l10 -9zM280 4l2 -2l-2 -2q-42 0 -76 12t-46.5 22.5t-16.5 17.5q-4 -6 -21.5 -17.5t-51.5 -23t-68 -11.5l-2 2l2 2q34 0 67.5 11.5t50.5 22.5t21 17l-20 249h4
l19 -249q46 -51 138 -51z" />
    <glyph glyph-name="uniFB67" unicode="&#x679;" horiz-adv-x="843" arabic-form="final" 
d="M510 422q-16 -55 -91 -55h-123l1 4h20q11 20 20 37l-6 153h4l5 -148q53 88 109 88q29 0 45 -20t16 -59zM320 371h99q71 0 88 50q0 77 -58 77q-33 0 -64 -30t-65 -97zM843 4l2 -2l-2 -2q-35 0 -62.5 12.5t-41 30t-20 31t-7.5 21.5q-128 -107 -380 -107q-263 0 -263 167
q0 71 35 144l4 -2q-35 -72 -35 -142q0 -163 259 -163q251 0 378 107l-25 205h4l25 -201q0 -9 6 -22.5t19.5 -32t40.5 -31.5t63 -13z" />
    <glyph glyph-name="uniFB68" unicode="&#x679;" horiz-adv-x="273" arabic-form="initial" 
d="M175 592q29 0 45 -20t16 -59q-16 -55 -91 -55h-122v4h20q11 20 21 37l-6 153h3l5 -148q53 88 109 88zM145 462q71 0 88 50q0 77 -58 77q-33 0 -63.5 -30t-64.5 -97h98zM130 369l4 2q52 -148 50 -295q-61 -76 -184 -76l-2 2l2 2q118 0 180 72q2 143 -50 293z" />
    <glyph glyph-name="uniFB69" unicode="&#x679;" horiz-adv-x="280" arabic-form="medial" 
d="M229 434q-17 -54 -91 -54h-123v3h21q10 21 20 37l-6 153h4l5 -148q53 89 109 89q28 0 44.5 -20t16.5 -60zM39 383h98q71 0 89 51q0 76 -59 76q-33 0 -63.5 -30t-64.5 -97zM280 4l2 -2l-2 -2q-42 0 -76 12t-46.5 22.5t-16.5 17.5q-4 -6 -21.5 -17.5t-51.5 -23t-68 -11.5
l-2 2l2 2q34 0 67.5 11.5t50.5 22.5t21 17l-20 249h4l19 -249q46 -51 138 -51z" />
    <glyph glyph-name="uniFB6B" unicode="&#x6a4;" horiz-adv-x="928" arabic-form="final" 
d="M679 667l-8 -11l-11 9l9 11zM739 570l-9 -11l-10 9l8 11zM622 566l-8 -11l-10 9l8 11zM928 4l2 -2l-2 -2h-14q-113 0 -210 46q-136 -58 -362 -58h-10q-263 0 -263 167q0 71 35 144l4 -2q-35 -72 -35 -142q0 -163 259 -163h10q223 0 358 56q-44 22 -76.5 50t-51.5 63.5
t-19 74.5q0 63 50 124t100 61q60 0 110 -62t50 -127q0 -51 -37.5 -100t-116.5 -84q95 -44 205 -44h14zM557 235q0 -56 40 -104.5t107 -80.5q80 34 117.5 82.5t37.5 98.5q0 65 -49 125.5t-107 60.5q-49 0 -97.5 -60t-48.5 -122z" />
    <glyph glyph-name="uniFB6C" unicode="&#x6a4;" horiz-adv-x="459" arabic-form="initial" 
d="M186 761l-8 -12l-10 9l8 12zM246 664l-8 -11l-10 9l8 11zM129 660l-8 -12l-10 9l8 12zM201 525q26 0 51.5 -13t49 -43.5t40 -75t24 -113.5t1.5 -153q-37 -52 -137 -89.5t-230 -37.5l-2 2l2 2q127 0 225 35.5t139 86.5q4 69 0 128q-55 -53 -140 -53q-45 0 -84.5 19
t-63 53.5t-23.5 75.5q0 69 47 122.5t101 53.5zM225 205q83 0 139 52q-9 134 -56.5 199t-107.5 65q-24 0 -50 -14t-46.5 -36.5t-34 -55t-13.5 -66.5q0 -61 50 -102.5t119 -41.5z" />
    <glyph glyph-name="uniFB6D" unicode="&#x6a4;" horiz-adv-x="449" arabic-form="medial" 
d="M200 664l-8 -11l-10 9l8 11zM260 567l-8 -11l-11 9l9 11zM143 563l-8 -11l-10 9l8 11zM449 4l2 -2l-2 -2h-14q-109 0 -203 43q-95 -43 -222 -43h-10l-2 2l2 2h10q125 0 217 41q-45 22 -79 50.5t-54 65t-20 74.5q0 64 50 125t100 61q60 0 110 -62t50 -127
q0 -51 -38.5 -102t-109.5 -85q93 -41 199 -41h14zM78 235q0 -57 42 -106.5t112 -81.5q71 33 109.5 83.5t38.5 100.5q0 65 -49 125.5t-106 60.5q-50 0 -98.5 -60t-48.5 -122z" />
    <glyph glyph-name="uniFB6F" unicode="&#x6a6;" horiz-adv-x="928" arabic-form="final" 
d="M741 648l-8 -11l-10 9l8 11zM625 644l-9 -11l-10 9l8 11zM744 530l-11 9l9 11l10 -9zM627 525l-10 9l8 12l10 -9zM928 4l2 -2l-2 -2h-14q-113 0 -210 46q-136 -58 -362 -58h-10q-263 0 -263 167q0 71 35 144l4 -2q-35 -72 -35 -142q0 -163 259 -163h10q223 0 358 56
q-44 22 -76.5 50t-51.5 63.5t-19 74.5q0 63 50 124t100 61q60 0 110 -62t50 -127q0 -51 -37.5 -100t-116.5 -84q95 -44 205 -44h14zM557 235q0 -56 40 -104.5t107 -80.5q80 34 117.5 82.5t37.5 98.5q0 65 -49 125.5t-107 60.5q-49 0 -97.5 -60t-48.5 -122z" />
    <glyph glyph-name="uniFB70" unicode="&#x6a6;" horiz-adv-x="459" arabic-form="initial" 
d="M249 742l-9 -11l-10 9l8 11zM132 738l-8 -12l-11 9l9 12zM251 623l-10 9l8 12l10 -9zM134 619l-10 9l8 11l10 -9zM200 525q27 0 52.5 -13t49 -43.5t40 -75t24 -113.5t1.5 -153q-37 -52 -137 -89.5t-230 -37.5l-2 2l2 2q127 0 225 35.5t139 86.5q4 69 0 128
q-55 -53 -140 -53q-70 0 -120.5 42.5t-50.5 105.5q0 69 47 122.5t100 53.5zM225 205q83 0 139 52q-9 134 -56.5 199t-107.5 65q-24 0 -50 -14t-46.5 -36.5t-34 -55t-13.5 -66.5q0 -61 50 -102.5t119 -41.5z" />
    <glyph glyph-name="uniFB71" unicode="&#x6a6;" horiz-adv-x="449" arabic-form="medial" 
d="M262 646l-8 -12l-10 9l8 11zM146 641l-9 -11l-10 9l8 11zM265 527l-11 9l9 11l10 -9zM148 522l-10 9l8 12l10 -9zM449 4l2 -2l-2 -2h-14q-109 0 -203 43q-95 -43 -222 -43h-10l-2 2l2 2h10q125 0 217 41q-45 22 -79 50.5t-54 65t-20 74.5q0 64 50 125t100 61
q60 0 110 -62t50 -127q0 -51 -38.5 -102t-109.5 -85q93 -41 199 -41h14zM78 235q0 -57 42 -106.5t112 -81.5q71 33 109.5 83.5t38.5 100.5q0 42 -22 85t-58.5 72t-74.5 29q-50 0 -98.5 -60t-48.5 -122z" />
    <glyph glyph-name="uniFB73" unicode="&#x684;" horiz-adv-x="712" arabic-form="final" 
d="M712 4l2 -2l-2 -2q-103 0 -160 48.5t-69 162.5q-178 -43 -283 -133.5t-105 -215.5q0 -91 58.5 -145.5t157.5 -54.5q131 0 229 44l2 -4q-100 -44 -231 -44q-101 0 -160.5 55.5t-59.5 148.5q0 126 105.5 217.5t285.5 135.5q0 6 -1 12l4 1q0 -7 1 -13q41 10 84 17
q-39 22 -99 60t-94 58.5t-77.5 37.5t-77.5 17q-59 0 -109 -36l-2 4q52 36 111 36q45 0 94 -22t135 -77t125 -76l-1 -5l-7 -1q-42 -7 -82 -16q12 -113 68 -160.5t158 -47.5zM334 -27l8 12l10 -9l-8 -12zM363 -132l-8 -11l-11 9l9 11z" />
    <glyph glyph-name="uniFB74" unicode="&#x684;" horiz-adv-x="696" arabic-form="initial" 
d="M220 411q22 0 42 -4t47 -16t46 -22t57 -35t60 -40.5t76 -53.5t86 -60l-2 -5l-9 -1q-72 -9 -160 -38.5t-155.5 -59t-152 -53t-155.5 -23.5l-2 2l2 2q70 0 154.5 23.5t152.5 53t157.5 59.5t163.5 39q-28 19 -75 52.5t-67.5 48t-55 38t-51.5 33t-42.5 23.5t-42 19t-36 9.5
t-38.5 4.5q-58 0 -113 -33l-3 3q57 34 116 34zM289 -114l10 -9l-8 -12l-10 9zM291 -233l8 11l11 -9l-9 -11z" />
    <glyph glyph-name="uniFB75" unicode="&#x684;" horiz-adv-x="772" arabic-form="medial" 
d="M772 4l2 -2l-2 -2q-101 0 -169 44t-99 147q-52 -17 -121.5 -52.5t-121.5 -64.5t-123 -51.5t-138 -22.5l-2 2l2 2q61 0 124 18.5t118 46.5t108 57t114 54t116 33q-60 33 -153 91t-142 80.5t-94 22.5q-58 0 -114 -33l-2 3q57 34 116 34q45 0 95.5 -23.5t144 -81.5
t155.5 -92l-1 -4l-8 -2q-34 -5 -69 -16q31 -102 98 -145t166 -43zM360 -64l10 -9l-8 -12l-10 9zM362 -183l8 11l11 -9l-9 -11z" />
    <glyph glyph-name="uniFB77" unicode="&#x683;" horiz-adv-x="712" arabic-form="final" 
d="M712 4l2 -2l-2 -2q-103 0 -160 48.5t-69 162.5q-178 -43 -283 -133.5t-105 -215.5q0 -91 58.5 -145.5t157.5 -54.5q131 0 229 44l2 -4q-100 -44 -231 -44q-101 0 -160.5 55.5t-59.5 148.5q0 126 105.5 217.5t285.5 135.5q0 6 -1 12l4 1q0 -7 1 -13q41 10 84 17
q-39 22 -99 60t-94 58.5t-77.5 37.5t-77.5 17q-59 0 -109 -36l-2 4q52 36 111 36q45 0 94 -22t135 -77t125 -76l-1 -5l-7 -1q-42 -7 -82 -16q12 -113 68 -160.5t158 -47.5zM414 -89l-11 9l9 11l10 -9zM297 -94l-10 9l8 12l10 -9z" />
    <glyph glyph-name="uniFB78" unicode="&#x683;" horiz-adv-x="696" arabic-form="initial" 
d="M220 411q22 0 42 -4t47 -16t46 -22t57 -35t60 -40.5t76 -53.5t86 -60l-2 -5l-9 -1q-72 -9 -160 -38.5t-155.5 -59t-152 -53t-155.5 -23.5l-2 2l2 2q70 0 154.5 23.5t152.5 53t157.5 59.5t163.5 39q-28 19 -75 52.5t-67.5 48t-55 38t-51.5 33t-42.5 23.5t-42 19t-36 9.5
t-38.5 4.5q-58 0 -113 -33l-3 3q57 34 116 34zM349 -142l8 11l11 -9l-9 -11zM232 -146l9 11l10 -9l-8 -11z" />
    <glyph glyph-name="uniFB79" unicode="&#x683;" horiz-adv-x="772" arabic-form="medial" 
d="M772 4l2 -2l-2 -2q-101 0 -169 44t-99 147q-52 -17 -121.5 -52.5t-121.5 -64.5t-123 -51.5t-138 -22.5l-2 2l2 2q61 0 124 18.5t118 46.5t108 57t114 54t116 33q-60 33 -153 91t-142 80.5t-94 22.5q-58 0 -114 -33l-2 3q57 34 116 34q45 0 95.5 -23.5t144 -81.5
t155.5 -92l-1 -4l-8 -2q-34 -5 -69 -16q31 -102 98 -145t166 -43zM420 -92l8 11l11 -9l-9 -11zM303 -96l9 11l10 -9l-8 -11z" />
    <glyph glyph-name="uniFB7B" unicode="&#x686;" horiz-adv-x="712" arabic-form="final" 
d="M712 4l2 -2l-2 -2q-103 0 -160 48.5t-69 162.5q-178 -43 -283 -133.5t-105 -215.5q0 -91 58.5 -145.5t157.5 -54.5q131 0 229 44l2 -4q-100 -44 -231 -44q-101 0 -160.5 55.5t-59.5 148.5q0 126 105.5 217.5t285.5 135.5q0 6 -1 12l4 1q0 -7 1 -13q41 10 84 17
q-39 22 -99 60t-94 58.5t-77.5 37.5t-77.5 17q-59 0 -109 -36l-2 4q52 36 111 36q45 0 94 -22t135 -77t125 -76l-1 -5l-7 -1q-42 -7 -82 -16q12 -113 68 -160.5t158 -47.5zM414 -45l-11 9l9 12l10 -9zM297 -49l-10 9l8 11l10 -9zM357 -146l-11 9l9 12l10 -9z" />
    <glyph glyph-name="uniFB7C" unicode="&#x686;" horiz-adv-x="696" arabic-form="initial" 
d="M220 411q22 0 42 -4t47 -16t46 -22t57 -35t60 -40.5t76 -53.5t86 -60l-2 -5l-9 -1q-72 -9 -160 -38.5t-155.5 -59t-152 -53t-155.5 -23.5l-2 2l2 2q70 0 154.5 23.5t152.5 53t157.5 59.5t163.5 39q-28 19 -75 52.5t-67.5 48t-55 38t-51.5 33t-42.5 23.5t-42 19t-36 9.5
t-38.5 4.5q-58 0 -113 -33l-3 3q57 34 116 34zM349 -142l8 11l11 -9l-9 -11zM232 -146l9 11l10 -9l-8 -11zM292 -243l8 11l11 -9l-8 -11z" />
    <glyph glyph-name="uniFB7D" unicode="&#x686;" horiz-adv-x="772" arabic-form="medial" 
d="M772 4l2 -2l-2 -2q-101 0 -169 44t-99 147q-52 -17 -121.5 -52.5t-121.5 -64.5t-123 -51.5t-138 -22.5l-2 2l2 2q61 0 124 18.5t118 46.5t108 57t114 54t116 33q-60 33 -153 91t-142 80.5t-94 22.5q-58 0 -114 -33l-2 3q57 34 116 34q45 0 95.5 -23.5t144 -81.5
t155.5 -92l-1 -4l-8 -2q-34 -5 -69 -16q31 -102 98 -145t166 -43zM420 -92l8 11l11 -9l-9 -11zM303 -96l9 11l10 -9l-8 -11zM363 -193l8 11l11 -9l-9 -11z" />
    <glyph glyph-name="uniFB7F" unicode="&#x687;" horiz-adv-x="712" arabic-form="final" 
d="M712 4l2 -2l-2 -2q-103 0 -160 48.5t-69 162.5q-178 -43 -283 -133.5t-105 -215.5q0 -91 58.5 -145.5t157.5 -54.5q131 0 229 44l2 -4q-100 -44 -231 -44q-101 0 -160.5 55.5t-59.5 148.5q0 126 105.5 217.5t285.5 135.5q0 6 -1 12l4 1q0 -7 1 -13q41 10 84 17
q-39 22 -99 60t-94 58.5t-77.5 37.5t-77.5 17q-59 0 -109 -36l-2 4q52 36 111 36q45 0 94 -22t135 -77t125 -76l-1 -5l-7 -1q-42 -7 -82 -16q12 -113 68 -160.5t158 -47.5zM399 -18l8 12l10 -9l-8 -12zM282 -22l8 11l10 -9l-8 -11zM428 -123l-9 -11l-10 9l8 11zM311 -127
l-8 -11l-11 9l9 11z" />
    <glyph glyph-name="uniFB80" unicode="&#x687;" horiz-adv-x="696" arabic-form="initial" 
d="M220 411q22 0 42 -4t47 -16t46 -22t57 -35t60 -40.5t76 -53.5t86 -60l-2 -5l-9 -1q-72 -9 -160 -38.5t-155.5 -59t-152 -53t-155.5 -23.5l-2 2l2 2q70 0 154.5 23.5t152.5 53t157.5 59.5t163.5 39q-28 19 -75 52.5t-67.5 48t-55 38t-51.5 33t-42.5 23.5t-42 19t-36 9.5
t-38.5 4.5q-58 0 -113 -33l-3 3q57 34 116 34zM353 -90l10 -9l-8 -12l-11 9zM236 -95l10 -9l-8 -11l-10 9zM355 -209l8 11l10 -9l-8 -11zM238 -213l8 11l11 -9l-9 -11z" />
    <glyph glyph-name="uniFB81" unicode="&#x687;" horiz-adv-x="772" arabic-form="medial" 
d="M772 4l2 -2l-2 -2q-101 0 -169 44t-99 147q-52 -17 -121.5 -52.5t-121.5 -64.5t-123 -51.5t-138 -22.5l-2 2l2 2q61 0 124 18.5t118 46.5t108 57t114 54t116 33q-60 33 -153 91t-142 80.5t-94 22.5q-58 0 -114 -33l-2 3q57 34 116 34q45 0 95.5 -23.5t144 -81.5
t155.5 -92l-1 -4l-8 -2q-34 -5 -69 -16q31 -102 98 -145t166 -43zM423 -40l11 -9l-8 -12l-11 9zM307 -45l10 -9l-8 -11l-10 9zM426 -159l8 11l10 -9l-8 -11zM309 -163l8 11l11 -9l-9 -11z" />
    <glyph glyph-name="uniFB83" unicode="&#x68d;" horiz-adv-x="503" arabic-form="final" 
d="M503 4l3 -2l-3 -2q-35 0 -56.5 5.5t-35.5 19.5t-24 39q-82 -76 -199 -76q-78 0 -158 33l2 4q75 -33 156 -33q116 0 197 76l-153 397l4 2l152 -396q15 -41 39.5 -54t75.5 -13zM247 -142l8 11l11 -9l-9 -11zM130 -146l9 11l10 -9l-8 -11z" />
    <glyph glyph-name="uniFB85" unicode="&#x68c;" horiz-adv-x="503" arabic-form="final" 
d="M207 628l-8 -11l-10 9l8 11zM91 624l-9 -12l-10 9l8 12zM503 4l3 -2l-3 -2q-35 0 -56.5 5.5t-35.5 19.5t-24 39q-82 -76 -199 -76q-78 0 -158 33l2 4q75 -33 156 -33q116 0 197 76l-153 397l4 2l152 -396q15 -41 39.5 -54t75.5 -13z" />
    <glyph glyph-name="uniFB87" unicode="&#x68e;" horiz-adv-x="503" arabic-form="final" 
d="M139 734l-8 -11l-11 9l9 11zM199 637l-9 -11l-10 9l8 11zM82 633l-8 -11l-10 9l8 11zM503 4l3 -2l-3 -2q-35 0 -56.5 5.5t-35.5 19.5t-24 39q-82 -76 -199 -76q-78 0 -158 33l2 4q75 -33 156 -33q116 0 197 76l-153 397l4 2l152 -396q15 -41 39.5 -54t75.5 -13z" />
    <glyph glyph-name="uniFB89" unicode="&#x688;" horiz-adv-x="503" arabic-form="final" 
d="M272 620q-17 -54 -92 -54h-122v3h21q10 21 20 38l-6 153h3l6 -148q53 88 108 88q29 0 45.5 -20t16.5 -60zM82 569h98q71 0 89 51q0 77 -59 77q-33 0 -63.5 -30t-64.5 -98zM503 4l3 -2l-3 -2q-52 0 -77 13.5t-39 50.5q-82 -76 -199 -76q-78 0 -158 33l2 4q75 -33 156 -33
q116 0 197 76l-153 397l4 2l152 -396q15 -41 39.5 -54t75.5 -13z" />
    <glyph glyph-name="uniFB8B" unicode="&#x698;" horiz-adv-x="401" arabic-form="final" 
d="M239 519l-8 -11l-11 9l8 11zM299 423l-9 -12l-10 9l8 12zM182 418l-8 -11l-11 9l9 11zM401 4l2 -2l-2 -2q-40 0 -60.5 9.5t-29.5 29.5q-50 -87 -123 -151t-208 -137l-1 4q132 71 206 135t124 152q-20 115 -53 209l4 2q31 -92 52 -208q5 -14 14 -22.5t27.5 -13.5t47.5 -5z
" />
    <glyph glyph-name="uniFB8D" unicode="&#x691;" horiz-adv-x="401" arabic-form="final" 
d="M372 406q-17 -55 -92 -55h-122v4h20q11 20 21 37l-6 153h3l6 -148q52 88 108 88q29 0 45.5 -20t16.5 -59zM182 355h98q71 0 88 50q0 77 -58 77q-33 0 -63.5 -30t-64.5 -97zM401 4l2 -2l-2 -2q-40 0 -60.5 9.5t-29.5 29.5q-50 -87 -123 -151t-208 -137l-1 4
q132 71 206 135t124 152q-20 115 -53 209l4 2q31 -92 52 -208q8 -21 27.5 -31t61.5 -10z" />
    <glyph glyph-name="uniFB8F" unicode="&#x6a9;" horiz-adv-x="962" arabic-form="final" 
d="M962 4l2 -2l-2 -2q-30 0 -52.5 5.5t-41 15t-43 35t-45.5 50.5t-62 77q-23 -52 -50 -86t-71 -60t-108.5 -37.5t-156.5 -11.5q-263 0 -263 167q0 71 35 144l4 -2q-35 -72 -35 -142q0 -163 259 -163q92 0 156 11.5t107.5 37.5t70 59.5t49.5 85.5l-215 271l1 4l378 277l-1 -5
l-374 -274l211 -266q36 -46 54.5 -69t42.5 -48.5t37.5 -36t33 -20.5t37.5 -12.5t42 -2.5z" />
    <glyph glyph-name="uniFB90" unicode="&#x6a9;" horiz-adv-x="455" arabic-form="initial" 
d="M386 738l-1 -5l-374 -274q151 -93 226.5 -183t85.5 -187q-56 -44 -131 -66.5t-192 -22.5l-2 2l2 2q116 0 189.5 21.5t129.5 64.5q-10 96 -85 184.5t-227 182.5v4z" />
    <glyph glyph-name="uniFB91" unicode="&#x6a9;" horiz-adv-x="530" arabic-form="medial" 
d="M530 4l2 -2l-2 -2q-30 0 -52.5 5.5t-41 15t-43 35t-45.5 50.5t-62 77q-44 -98 -109.5 -140.5t-176.5 -42.5l-2 2l2 2q110 0 174.5 42.5t108.5 139.5l-215 271l1 4l378 277l-1 -5l-374 -274l211 -266q36 -46 54.5 -69t42 -48.5t37.5 -36t33.5 -20.5t37.5 -12.5t42 -2.5z
" />
    <glyph glyph-name="uniFB93" unicode="&#x6af;" horiz-adv-x="962" arabic-form="final" 
d="M879 854v-4l-374 -278v4zM962 4l2 -2l-2 -2q-30 0 -52.5 5.5t-41 15t-43 35t-45.5 50.5t-62 77q-23 -52 -50 -86t-71 -60t-108.5 -37.5t-156.5 -11.5q-263 0 -263 167q0 71 35 144l4 -2q-35 -72 -35 -142q0 -163 259 -163q92 0 156 11.5t107.5 37.5t70 59.5t49.5 85.5
l-215 271l1 4l378 277l-1 -5l-374 -274l211 -266q36 -46 54.5 -69t42.5 -48.5t37.5 -36t33 -20.5t37.5 -12.5t42 -2.5z" />
    <glyph glyph-name="uniFB94" unicode="&#x6af;" horiz-adv-x="455" arabic-form="initial" 
d="M386 854v-4l-375 -278l1 4zM7 457v4l379 277l-1 -5l-374 -274q151 -93 226.5 -183t85.5 -187q-56 -44 -131 -66.5t-192 -22.5l-2 2l2 2q116 0 189.5 21.5t129.5 64.5q-10 96 -85 184.5t-227 182.5z" />
    <glyph glyph-name="uniFB95" unicode="&#x6af;" horiz-adv-x="530" arabic-form="medial" 
d="M453 854v-4l-375 -278l1 4zM530 4l2 -2l-2 -2q-30 0 -52.5 5.5t-41 15t-43 35t-45.5 50.5t-62 77q-44 -98 -109.5 -140.5t-176.5 -42.5l-2 2l2 2q110 0 174.5 42.5t108.5 139.5l-215 271l1 4l378 277l-1 -5l-374 -274l211 -266q36 -46 54.5 -69t42 -48.5t37.5 -36
t33.5 -20.5t37.5 -12.5t42 -2.5z" />
    <glyph glyph-name="uniFB97" unicode="&#x6b3;" horiz-adv-x="962" arabic-form="final" 
d="M879 854v-4l-374 -278v4zM962 4l2 -2l-2 -2q-30 0 -52.5 5.5t-41 15t-43 35t-45.5 50.5t-62 77q-23 -52 -50 -86t-71 -60t-108.5 -37.5t-156.5 -11.5q-263 0 -263 167q0 71 35 144l4 -2q-35 -72 -35 -142q0 -163 259 -163q92 0 156 11.5t107.5 37.5t70 59.5t49.5 85.5
l-215 271l1 4l378 277l-1 -5l-374 -274l211 -266q36 -46 54.5 -69t42.5 -48.5t37.5 -36t33 -20.5t37.5 -12.5t42 -2.5zM366 -114l10 -9l-8 -12l-10 9zM368 -233l9 11l10 -9l-8 -11z" />
    <glyph glyph-name="uniFB98" unicode="&#x6b3;" horiz-adv-x="455" arabic-form="initial" 
d="M386 854v-4l-375 -278l1 4zM7 457v4l379 277l-1 -5l-374 -274q151 -93 226.5 -183t85.5 -187q-56 -44 -131 -66.5t-192 -22.5l-2 2l2 2q116 0 189.5 21.5t129.5 64.5q-10 96 -85 184.5t-227 182.5zM126 -114l10 -9l-8 -12l-11 9zM128 -233l8 11l10 -9l-8 -11z" />
    <glyph glyph-name="uniFB99" unicode="&#x6b3;" horiz-adv-x="530" arabic-form="medial" 
d="M453 854v-4l-375 -278l1 4zM530 4l2 -2l-2 -2q-30 0 -52.5 5.5t-41 15t-43 35t-45.5 50.5t-62 77q-44 -98 -109.5 -140.5t-176.5 -42.5l-2 2l2 2q110 0 174.5 42.5t108.5 139.5l-215 271l1 4l378 277l-1 -5l-374 -274l211 -266q36 -46 54.5 -69t42 -48.5t37.5 -36
t33.5 -20.5t37.5 -12.5t42 -2.5zM260 -114l10 -9l-8 -12l-11 9zM262 -233l8 11l10 -9l-8 -11z" />
    <glyph glyph-name="uniFB9B" unicode="&#x6b1;" horiz-adv-x="962" arabic-form="final" 
d="M879 854v-4l-374 -278v4zM651 832l-8 -11l-10 9l8 12zM535 828l-9 -11l-10 9l8 11zM962 4l2 -2l-2 -2q-30 0 -52.5 5.5t-41 15t-43 35t-45.5 50.5t-62 77q-23 -52 -50 -86t-71 -60t-108.5 -37.5t-156.5 -11.5q-263 0 -263 167q0 71 35 144l4 -2q-35 -72 -35 -142
q0 -163 259 -163q92 0 156 11.5t107.5 37.5t70 59.5t49.5 85.5l-215 271l1 4l378 277l-1 -5l-374 -274l211 -266q36 -46 54.5 -69t42.5 -48.5t37.5 -36t33 -20.5t37.5 -12.5t42 -2.5z" />
    <glyph glyph-name="uniFB9C" unicode="&#x6b1;" horiz-adv-x="455" arabic-form="initial" 
d="M386 854v-4l-375 -278l1 4zM216 832l-8 -11l-11 9l9 12zM99 828l-8 -11l-10 9l8 11zM7 457v4l379 277l-1 -5l-374 -274q151 -93 226.5 -183t85.5 -187q-56 -44 -131 -66.5t-192 -22.5l-2 2l2 2q116 0 189.5 21.5t129.5 64.5q-10 96 -85 184.5t-227 182.5z" />
    <glyph glyph-name="uniFB9D" unicode="&#x6b1;" horiz-adv-x="530" arabic-form="medial" 
d="M453 854v-4l-375 -278l1 4zM180 832l-9 -11l-10 9l8 12zM63 828l-8 -11l-11 9l9 11zM530 4l2 -2l-2 -2q-30 0 -52.5 5.5t-41 15t-43 35t-45.5 50.5t-62 77q-44 -98 -109.5 -140.5t-176.5 -42.5l-2 2l2 2q110 0 174.5 42.5t108.5 139.5l-215 271l1 4l378 277l-1 -5
l-374 -274l211 -266q36 -46 54.5 -69t42 -48.5t37.5 -36t33.5 -20.5t37.5 -12.5t42 -2.5z" />
    <glyph glyph-name="uniFB9F" unicode="&#x6ba;" horiz-adv-x="658" arabic-form="final" 
d="M659 4l2 -2l-3 -2q-38 0 -63 19.5t-35 47.5q10 -56 10 -136q-15 -60 -92 -113t-180 -53q-61 0 -106 15t-71.5 41.5t-39 61t-12.5 76.5q0 91 34 172l3 -1q-33 -81 -33 -171q0 -86 54 -138t171 -52q100 0 175.5 51.5t92.5 108.5q0 57 -4 101.5t-15.5 84t-16.5 55.5
t-24.5 56t-21.5 45l4 2q4 -10 15 -32.5t15 -32t12 -27.5t11.5 -30t8 -28t7.5 -32q6 -38 32.5 -62.5t69.5 -24.5z" />
    <glyph glyph-name="uniFBA1" unicode="&#x6bb;" horiz-adv-x="658" arabic-form="final" 
d="M417 360q-17 -54 -91 -54h-123v3h21q10 21 20 38l-6 152h3l6 -148q53 89 109 89q28 0 44.5 -20t16.5 -60zM227 309h98q71 0 89 51q0 76 -59 76q-33 0 -63.5 -29.5t-64.5 -97.5zM659 4l2 -2l-3 -2q-38 0 -63 19.5t-35 47.5q10 -56 10 -136q-15 -60 -92 -113t-180 -53
q-119 0 -174 53t-55 141q0 91 34 172l3 -1q-33 -81 -33 -171q0 -86 54 -138t171 -52q52 0 99.5 15.5t81.5 39.5t56.5 51.5t30.5 53.5q0 57 -4 101.5t-15.5 84t-16.5 55.5t-24.5 56t-21.5 45l4 2q4 -10 15 -32.5t15 -32t12 -27.5t11.5 -30t8 -28t7.5 -32q6 -38 32.5 -62.5
t69.5 -24.5z" />
    <glyph glyph-name="uniFBA2" unicode="&#x6bb;" horiz-adv-x="273" arabic-form="initial" 
d="M175 592q29 0 45 -20t16 -59q-16 -55 -91 -55h-122v4h20q11 20 21 37l-6 153h3l5 -148q53 88 109 88zM145 462q71 0 88 50q0 77 -58 77q-33 0 -63.5 -30t-64.5 -97h98zM130 369l4 2q52 -148 50 -295q-61 -76 -184 -76l-2 2l2 2q118 0 180 72q2 143 -50 293z" />
    <glyph glyph-name="uniFBA3" unicode="&#x6bb;" horiz-adv-x="280" arabic-form="medial" 
d="M229 434q-17 -54 -91 -54h-123v3h21q10 21 20 37l-6 153h4l5 -148q53 89 109 89q28 0 44.5 -20t16.5 -60zM39 383h98q71 0 89 51q0 76 -59 76q-33 0 -63.5 -30t-64.5 -97zM280 4l2 -2l-2 -2q-42 0 -76 12t-46.5 22.5t-16.5 17.5q-4 -6 -21.5 -17.5t-51.5 -23t-68 -11.5
l-2 2l2 2q34 0 67.5 11.5t50.5 22.5t21 17l-20 249h4l19 -249q46 -51 138 -51z" />
    <glyph glyph-name="uniFBA5" unicode="&#x6c0;" horiz-adv-x="475" arabic-form="final" 
d="M415 596v-3l-171 -26v3l85 13q-66 37 -66 85q0 27 20.5 45.5t58.5 18.5q26 0 52 -12v-3q-26 12 -52 12q-37 0 -56.5 -18t-19.5 -43q0 -47 68 -84zM475 4l2 -2l-2 -2h-3q-62 0 -95.5 27t-36.5 77q-26 -22 -70.5 -41.5t-99.5 -19.5t-93 24t-47 49q0 61 40.5 110.5t107 82
t155.5 51.5l-3 118l4 1l10 -370q1 -51 33.5 -78t94.5 -27h3zM34 116q10 -23 46.5 -46t90.5 -23t98 19t71 42l-7 248q-135 -28 -217 -90t-82 -150z" />
    <glyph glyph-name="uniFBA7" unicode="&#x6c1;" horiz-adv-x="514" arabic-form="final" 
d="M35 -24l-5 1q64 227 172 227q23 0 42.5 -8.5t33 -22.5t27.5 -32t26.5 -37t30 -37t37 -32t49.5 -22.5t66 -8.5l2 -2l-2 -2q-42 0 -75 11t-54.5 28.5t-39 39t-31.5 43t-29 39t-36 28.5t-47 11q-107 0 -167 -224z" />
    <glyph glyph-name="uniFBA8" unicode="&#x6c1;" horiz-adv-x="273" arabic-form="initial" 
d="M0 0l-2 2l2 2q118 0 180 72q2 143 -50 293l4 2q52 -148 50 -295q-61 -76 -184 -76zM71 -241l-5 2q2 43 16.5 94.5t35.5 89.5h3q-21 -39 -35 -91t-15 -95z" />
    <glyph glyph-name="uniFBA9" unicode="&#x6c1;" horiz-adv-x="519" arabic-form="medial" 
d="M520 4l2 -2l-3 -2h-21q-71 0 -115 -52t-44 -166q0 -31 3 -66l-3 -2q-141 135 -141 324q0 56 14 121q-28 -91 -76 -125t-115 -34h-21l-2 2l2 2h22q33 0 60.5 8t54 27.5t47.5 58t35 94.5l16 67l5 -2q-15 -56 -20 -77t-11.5 -62.5t-6.5 -79.5q0 -185 136 -318q-3 34 -3 62
q0 115 45.5 168.5t117.5 53.5h22z" />
    <glyph glyph-name="uniFBAB" unicode="&#x6be;" horiz-adv-x="548" arabic-form="final" 
d="M550 2l-2 -2h-227q31 -5 58.5 -16.5t52 -31.5t38.5 -53t14 -76q-3 -11 -13 -22t-24.5 -20.5t-36 -16t-45.5 -6.5q-80 0 -132 69t-52 173q-79 1 -132 23l2 4q30 -13 60 -18t70 -5q0 53 18 109.5t46 101t65.5 73t73.5 28.5q40 0 68 -36t28 -93q0 -64 -48.5 -118.5
t-120.5 -64.5h237zM383 312q-47 0 -93.5 -47t-75.5 -119t-29 -142h5h89q84 0 141 57t57 125q0 56 -27.5 91t-66.5 35zM481 -178q0 47 -17.5 82.5t-47 55.5t-63.5 30t-72 10h-96q0 -103 51 -170.5t129 -67.5q45 0 76 19t40 41z" />
    <glyph glyph-name="uniFBAC" unicode="&#x6be;" horiz-adv-x="642" arabic-form="initial" 
d="M128 488q110 -55 204.5 -125.5t158 -152.5t63.5 -151q-14 -31 -56.5 -51t-93.5 -20q-96 0 -184 50q-87 -38 -209 -38h-11l-2 2l2 2h10q120 0 206 37q-60 35 -96.5 87t-36.5 113q0 45 19 82t54 58.5t77 21.5q26 0 49 -10q-75 51 -156 91zM86 241q0 -60 37 -111.5t98 -86.5
q72 32 110 84t38 110q0 33 -10.5 63t-28 52t-43 35t-54.5 13q-63 0 -105 -46t-42 -113zM404 -8q49 0 90.5 18.5t55.5 48.5q0 68 -61 147.5t-163 155.5q46 -50 46 -125q0 -58 -37.5 -111t-109.5 -86q86 -48 179 -48z" />
    <glyph glyph-name="uniFBAD" unicode="&#x6be;" horiz-adv-x="466" arabic-form="medial" 
d="M468 2l-2 -2h-227q31 -5 58.5 -16.5t52 -31.5t38.5 -53t14 -76q-3 -11 -13 -22t-24.5 -20.5t-36 -16t-45.5 -6.5q-80 0 -132 69t-52 173h-99l-2 2l2 2h99q0 53 18 109.5t46 101t65.5 73t73.5 28.5q40 0 68 -36t28 -93q0 -64 -48.5 -118.5t-120.5 -64.5h237zM301 312
q-47 0 -93.5 -47t-75.5 -119t-29 -142h94q84 0 141 57t57 125q0 56 -27.5 91t-66.5 35zM399 -178q0 47 -17.5 82.5t-47 55.5t-63.5 30t-72 10h-8h-88q0 -103 51 -170.5t129 -67.5q45 0 76 19t40 41z" />
    <glyph glyph-name="uniFBAF" unicode="&#x6d2;" horiz-adv-x="709" arabic-form="final" 
d="M682 -226h-482q-80 0 -115 16t-35 58q0 25 20.5 51t63 50.5t119 39.5t175.5 15h281l3 -2l-3 -2h-283q-97 0 -172.5 -15t-117 -38.5t-62.5 -48.5t-21 -50q0 -39 34 -54.5t113 -15.5h484z" />
    <glyph glyph-name="uniFBB1" unicode="&#x6d3;" horiz-adv-x="709" arabic-form="final" 
d="M216 192l81 13v-3l-171 -27v4l85 13q-66 37 -66 84q0 18 8 32t26.5 23.5t44.5 9.5t52 -12v-4q-26 13 -52 13q-37 0 -56.5 -18t-19.5 -44q0 -47 68 -84zM682 -226h-482q-80 0 -115 16t-35 58q0 25 20.5 51t63 50.5t119 39.5t175.5 15h281l2 -2l-2 -2h-283
q-97 0 -172.5 -15t-117 -38.5t-62.5 -48.5t-21 -50q0 -39 34 -54.5t113 -15.5h483z" />
    <glyph glyph-name="uniFBD4" unicode="&#x6ad;" horiz-adv-x="826" arabic-form="final" 
d="M672 971l-8 -11l-10 8l8 12zM732 874l-8 -11l-11 9l9 11zM615 870l-8 -12l-10 10l8 11zM826 4l2 -2l-3 -2q-34 0 -61 12.5t-40.5 30t-20 31t-7.5 21.5q-127 -107 -364 -107q-263 0 -263 167q0 71 35 144l4 -2q-35 -72 -35 -142q0 -163 259 -163q236 0 363 107l-1 631h4
v-627q0 -8 6.5 -22t19.5 -32.5t40 -31.5t62 -13zM308 288l-1 4q114 0 170 46q0 25 -40 54t-95 52l2 4l145 82v-4l-142 -80q35 -15 64 -32t49 -37.5t20 -37.5q-50 -51 -172 -51z" />
    <glyph glyph-name="uniFBD5" unicode="&#x6ad;" horiz-adv-x="455" arabic-form="initial" 
d="M-5 841l10 -9l-8 -11l-10 9zM65 735l-8 -11l-10 9l8 11zM-70 729l8 11l10 -9l-8 -11zM386 738l-1 -5l-374 -274q151 -93 226.5 -183t85.5 -187q-56 -44 -131 -66.5t-192 -22.5l-2 2l2 2q116 0 189.5 21.5t129.5 64.5q-10 96 -85 184.5t-227 182.5v4z" />
    <glyph glyph-name="uniFBD6" unicode="&#x6ad;" horiz-adv-x="530" arabic-form="medial" 
d="M63 832l-9 -11l-10 9l8 11zM122 735l-8 -11l-10 9l8 11zM-5 740l11 -9l-8 -11l-11 9zM530 4l2 -2l-2 -2q-30 0 -52.5 5.5t-41 15t-43 35t-45.5 50.5t-62 77q-44 -98 -109.5 -140.5t-176.5 -42.5l-2 2l2 2q110 0 174.5 42.5t108.5 139.5l-215 271l1 4l378 277l-1 -5
l-374 -274l211 -266q36 -46 54.5 -69t42 -48.5t37.5 -36t33.5 -20.5t37.5 -12.5t42 -2.5z" />
    <glyph glyph-name="uniFBD8" unicode="&#x6c7;" horiz-adv-x="507" arabic-form="final" 
d="M183 395l-2 2q60 25 98 59q-41 8 -61 29t-20 49q0 29 18.5 46.5t44.5 17.5q31 0 47 -20t16 -49q0 -39 -41.5 -74.5t-99.5 -59.5zM201 534q0 -17 7.5 -31.5t26 -27t46.5 -17.5q39 35 39 71q0 28 -15 47t-44 19q-25 0 -42.5 -16.5t-17.5 -44.5zM510 2l-3 -2h-105
q-18 -95 -99 -156.5t-232 -79.5l-2 4q151 18 231.5 78.5t97.5 153.5h-98q-95 0 -152 41.5t-57 106.5q0 69 47.5 122.5t100.5 53.5q65 0 116.5 -75.5t51.5 -193.5q0 -26 -4 -51h104zM399 4q4 24 4 50q0 60 -14.5 111t-38 84.5t-52.5 52t-59 18.5q-51 0 -97.5 -52t-46.5 -120
q0 -63 56 -103.5t150 -40.5h98z" />
    <glyph glyph-name="uniFBDA" unicode="&#x6c6;" horiz-adv-x="507" arabic-form="final" 
d="M254 392h-3l-78 136l3 1l77 -133l76 133l3 -1zM510 2l-3 -2h-105q-18 -95 -99 -156.5t-232 -79.5l-2 4q151 18 231.5 78.5t97.5 153.5h-98q-95 0 -152 41.5t-57 106.5q0 69 47.5 122.5t100.5 53.5q65 0 116.5 -75.5t51.5 -193.5q0 -26 -4 -51h104zM399 4q4 24 4 50
q0 60 -14.5 111t-38 84.5t-52.5 52t-59 18.5q-51 0 -97.5 -52t-46.5 -120q0 -63 56 -103.5t150 -40.5h98z" />
    <glyph glyph-name="uniFBDC" unicode="&#x6c8;" horiz-adv-x="507" arabic-form="final" 
d="M257 404h-3l-6 145h3zM510 2l-3 -2h-105q-18 -95 -99 -156.5t-232 -79.5l-2 4q151 18 231.5 78.5t97.5 153.5h-98q-95 0 -152 41.5t-57 106.5q0 69 47.5 122.5t100.5 53.5q65 0 116.5 -75.5t51.5 -193.5q0 -26 -4 -51h104zM399 4q4 24 4 50q0 60 -14.5 111t-38 84.5
t-52.5 52t-59 18.5q-51 0 -97.5 -52t-46.5 -120q0 -63 56 -103.5t150 -40.5h98z" />
    <glyph glyph-name="uniFBDF" unicode="&#x6cb;" horiz-adv-x="507" arabic-form="final" 
d="M228 567l-8 -11l-10 9l8 11zM288 471l-8 -12l-10 9l8 12zM171 466l-8 -11l-10 9l8 11zM510 2l-3 -2h-105q-18 -95 -99 -156.5t-232 -79.5l-2 4q151 18 231.5 78.5t97.5 153.5h-98q-95 0 -152 41.5t-57 106.5q0 69 47.5 122.5t100.5 53.5q65 0 116.5 -75.5t51.5 -193.5
q0 -26 -4 -51h104zM399 4q4 24 4 50q0 60 -14.5 111t-38 84.5t-52.5 52t-59 18.5q-51 0 -97.5 -52t-46.5 -120q0 -63 56 -103.5t150 -40.5h98z" />
    <glyph glyph-name="uniFBE1" unicode="&#x6c5;" horiz-adv-x="507" arabic-form="final" 
d="M510 2l-3 -2h-105q-18 -95 -99 -156.5t-232 -79.5l-2 4q151 18 231.5 78.5t97.5 153.5h-98q-95 0 -152 41.5t-57 106.5q0 69 47.5 122.5t100.5 53.5q65 0 116.5 -75.5t51.5 -193.5q0 -26 -4 -51h104zM399 4q4 24 4 50q0 60 -14.5 111t-38 84.5t-52.5 52t-59 18.5
q-51 0 -97.5 -52t-46.5 -120q0 -63 56 -103.5t150 -40.5h98zM321 -132l-5 -4l-209 5l-1 4z" />
    <glyph glyph-name="uniFBE3" unicode="&#x6c9;" horiz-adv-x="507" arabic-form="final" 
d="M253 535l-77 -133l-3 2l78 135h3l78 -135l-3 -2zM510 2l-3 -2h-105q-18 -95 -99 -156.5t-232 -79.5l-2 4q151 18 231.5 78.5t97.5 153.5h-98q-95 0 -152 41.5t-57 106.5q0 69 47.5 122.5t100.5 53.5q65 0 116.5 -75.5t51.5 -193.5q0 -26 -4 -51h104zM399 4q4 24 4 50
q0 60 -14.5 111t-38 84.5t-52.5 52t-59 18.5q-51 0 -97.5 -52t-46.5 -120q0 -63 56 -103.5t150 -40.5h98z" />
    <glyph glyph-name="uniFBE5" unicode="&#x6d0;" horiz-adv-x="697" arabic-form="final" 
d="M700 2l-3 -2q-43 0 -81 10.5t-103 39.5q50 -27 68 -52.5t18 -77.5q-12 -15 -36.5 -31.5t-61 -33t-90.5 -27.5t-113 -11q-61 0 -106 15t-71.5 42t-39 61t-12.5 77q0 90 34 172l3 -2q-33 -81 -33 -170q0 -87 54 -139t171 -52q110 0 189 32.5t108 67.5q0 33 -5.5 52t-27 40
t-61 39.5t-110.5 44.5l2 3q49 -18 104.5 -41t79 -32t55.5 -16t65 -7zM299 -295l10 -9l-8 -11l-10 9zM301 -413l8 11l11 -9l-9 -11z" />
    <glyph glyph-name="uniFBE6" unicode="&#x6d0;" horiz-adv-x="273" arabic-form="initial" 
d="M0 0l-2 2l2 2q118 0 180 72q2 143 -50 293l4 2q52 -148 50 -295q-61 -76 -184 -76zM113 -135l-11 9l8 12l11 -9zM123 -242l-10 9l8 11l10 -9z" />
    <glyph glyph-name="uniFBE7" unicode="&#x6d0;" horiz-adv-x="280" arabic-form="medial" 
d="M280 4l2 -2l-2 -2q-42 0 -76 12t-46.5 22.5t-16.5 17.5q-4 -6 -21.5 -17.5t-51.5 -23t-68 -11.5l-2 2l2 2q34 0 67.5 11.5t50.5 22.5t21 17l-20 249h4l19 -249q46 -51 138 -51zM136 -114l10 -9l-8 -12l-10 9zM138 -233l9 11l10 -9l-8 -11z" />
    <glyph glyph-name="uniFBE8" unicode="&#x649;" horiz-adv-x="273" arabic-form="initial" 
d="M0 0l-2 2l2 2q118 0 180 72q2 143 -50 293l4 2q52 -148 50 -295q-61 -76 -184 -76z" />
    <glyph glyph-name="uniFBE9" unicode="&#x649;" horiz-adv-x="280" arabic-form="medial" 
d="M280 4l2 -2l-2 -2q-42 0 -76 12t-46.5 22.5t-16.5 17.5q-4 -6 -21.5 -17.5t-51.5 -23t-68 -11.5l-2 2l2 2q34 0 67.5 11.5t50.5 22.5t21 17l-20 249h4l19 -249q46 -51 138 -51z" />
    <glyph glyph-name="uniFBFD" unicode="&#x6cc;" horiz-adv-x="697" arabic-form="final" 
d="M700 2l-3 -2q-43 0 -81 10.5t-103 39.5q50 -27 68 -52.5t18 -77.5q-12 -15 -36.5 -31.5t-61 -33t-90.5 -27.5t-113 -11q-61 0 -106 15t-71.5 42t-39 61t-12.5 77q0 90 34 172l3 -2q-33 -81 -33 -170q0 -87 54 -139t171 -52q110 0 189 32.5t108 67.5q0 33 -5.5 52t-27 40
t-61 39.5t-110.5 44.5l2 3q49 -18 104.5 -41t79 -32t55.5 -16t65 -7z" />
    <glyph glyph-name="uniFBFE" unicode="&#x6cc;" horiz-adv-x="273" arabic-form="initial" 
d="M0 0l-2 2l2 2q118 0 180 72q2 143 -50 293l4 2q52 -148 50 -295q-61 -76 -184 -76zM181 -151l-10 9l8 11l10 -9zM64 -155l-10 9l8 11l11 -9z" />
    <glyph glyph-name="uniFBFF" unicode="&#x6cc;" horiz-adv-x="280" arabic-form="medial" 
d="M280 4l2 -2l-2 -2q-42 0 -76 12t-46.5 22.5t-16.5 17.5q-4 -6 -21.5 -17.5t-51.5 -23t-68 -11.5l-2 2l2 2q34 0 67.5 11.5t50.5 22.5t21 17l-20 249h4l19 -249q46 -51 138 -51zM196 -142l9 11l10 -9l-8 -11zM80 -146l8 11l10 -9l-8 -11z" />
    <glyph glyph-name="uniFC5B" unicode="&#xfc5b;" horiz-adv-x="459" arabic-form="isolated" 
d="M140 875h4l6 -144h-4zM147 632l-10 10l8 11l11 -9zM178 -12q-73 0 -148 20l1 4q74 -20 147 -20q49 0 92.5 12.5t70.5 32.5t36 43q0 56 -15 110.5t-43 103.5t-57.5 88.5t-68.5 80.5l3 4q39 -43 68.5 -82.5t57.5 -88.5t43.5 -103.5t15.5 -110.5q-13 -39 -70 -66.5
t-133 -27.5z" />
    <glyph glyph-name="uniFC5C" unicode="&#xfc5c;" horiz-adv-x="411" arabic-form="isolated" 
d="M230 545h4l6 -144h-4zM-20 -249l-1 4q225 107 340 269q2 30 -6.5 74t-25 94t-38.5 101l4 1q34 -77 53 -150.5t16 -118.5q-8 -14 -19.5 -30t-41 -47.5t-64.5 -61t-92.5 -67t-124.5 -68.5z" />
    <glyph glyph-name="uniFC61" unicode="&#xfc61;" arabic-form="isolated" 
d="M63 783l-2 2q60 25 98 58q-41 9 -61 30t-20 49q0 29 18.5 46.5t44.5 17.5q31 0 47 -20t16 -49q0 -12 -4.5 -23.5t-11.5 -22.5t-17.5 -21.5t-23 -19.5t-26.5 -18t-28.5 -16t-29.5 -13zM82 922q0 -27 19 -47.5t61 -28.5q38 35 38 71q0 28 -15 47t-44 19q-25 0 -42 -17
t-17 -44zM218 737q19 -41 19 -76q0 -32 -14 -48t-39 -16q-22 0 -35.5 15.5t-15.5 38.5q-2 -23 -15.5 -38.5t-35.5 -15.5q-51 0 -51 64q0 28 9 54l3 -2q-9 -22 -9 -52q0 -61 48 -61q23 0 36 18t13 45v46h4v-46q0 -27 13 -45t36 -18q49 0 49 62q0 35 -18 73z" />
    <glyph glyph-name="uniFC63" unicode="&#xfc63;" arabic-form="isolated" 
d="M138 792h-4l-6 145h4zM218 737q19 -41 19 -76q0 -32 -14 -48t-39 -16q-22 0 -35.5 15.5t-15.5 38.5q-2 -23 -15.5 -38.5t-35.5 -15.5q-51 0 -51 64q0 28 9 54l3 -2q-9 -22 -9 -52q0 -61 48 -61q23 0 36 18t13 45v46h4v-47q0 -26 13 -44t36 -18q49 0 49 62q0 35 -18 73z
" />
    <glyph glyph-name="uniFD3C" unicode="&#xfd3c;" horiz-adv-x="217" arabic-form="final" 
d="M1 767v3l199 39v-3zM1 692v3l199 39v-3zM99 114v514h4v-514q0 -56 30.5 -83t83.5 -27l2 -2l-2 -2q-55 0 -86.5 28t-31.5 86z" />
    <glyph glyph-name="uniFD3D" unicode="&#xfd3d;" horiz-adv-x="222" arabic-form="isolated" 
d="M-10 759v3l199 40v-4zM-10 684v3l199 40v-4zM103 0h-4l-11 620l4 1z" />
    <glyph glyph-name="uniFE70" unicode="&#xfe70;" horiz-adv-x="600" arabic-form="isolated" 
d="M44 656v3l198 39v-3zM44 581v3l198 39v-3z" />
    <glyph glyph-name="uniFE72" unicode="&#xfe72;" horiz-adv-x="600" arabic-form="isolated" 
d="M238 778q30 0 46.5 -19.5t16.5 -44.5q0 -37 -39.5 -70.5t-98.5 -57.5l-3 2q-1 82 -41 82q-22 0 -51 -32l-2 2q28 33 53 33q43 0 44 -84q61 26 97 58q-41 8 -60 27t-19 42q0 25 16.5 43.5t40.5 18.5zM262 649q36 32 36 65q0 23 -15.5 41.5t-44.5 18.5q-23 0 -38 -17.5
t-15 -41.5q0 -22 18.5 -40t58.5 -26z" />
    <glyph glyph-name="uniFE74" unicode="&#xfe74;" horiz-adv-x="600" arabic-form="isolated" 
d="M44 -94v3l198 39v-3zM44 -169v3l198 39v-3z" />
    <glyph glyph-name="uniFE76" unicode="&#xfe76;" horiz-adv-x="600" arabic-form="isolated" 
d="M44 608v3l198 39v-3z" />
    <glyph glyph-name="uniFE78" unicode="&#xfe78;" horiz-adv-x="600" arabic-form="isolated" 
d="M111 792q31 0 47 -20t16 -50q0 -38 -41.5 -74t-99.5 -60l-2 2q60 25 98 59q-41 8 -61 29.5t-20 48.5q0 29 18.5 47t44.5 18zM131 651q39 36 39 71q0 28 -15 47t-44 19q-25 0 -42 -16.5t-17 -44.5q0 -27 19 -47.5t60 -28.5z" />
    <glyph glyph-name="uniFE7C" unicode="&#xfe7c;" horiz-adv-x="600" arabic-form="isolated" 
d="M218 737q19 -41 19 -76q0 -32 -14 -48t-39 -16q-22 0 -35.5 15.5t-15.5 38.5q-2 -23 -15.5 -38.5t-35.5 -15.5q-51 0 -51 64q0 28 9 54l3 -2q-9 -22 -9 -52q0 -61 48 -61q23 0 36 18t13 45v46h4v-47q0 -26 13 -44t36 -18q49 0 49 62q0 35 -18 73z" />
    <glyph glyph-name="uniFE7E" unicode="&#xfe7e;" horiz-adv-x="600" arabic-form="isolated" 
d="M189 673q0 -38 -25 -62.5t-64 -24.5t-64 24.5t-25 62.5t25 62.5t64 24.5t64 -24.5t25 -62.5zM186 673q0 24 -11 43.5t-31 30t-44 10.5q-37 0 -61.5 -23.5t-24.5 -60.5t24.5 -60.5t61.5 -23.5q24 0 44 10.5t31 30t11 43.5z" />
    <glyph glyph-name="uniFE82" unicode="&#x622;" horiz-adv-x="217" arabic-form="final" 
d="M4 722l-3 2q8 16 23 27t31 11q13 0 39 -11.5t41 -11.5q17 0 30 5t35 20l1 -3q-21 -14 -35 -20t-31 -6q-16 0 -41.5 11.5t-38.5 11.5q-15 0 -29 -10t-22 -26zM99 114v514h4v-514q0 -56 30.5 -83t83.5 -27l2 -2l-2 -2q-55 0 -86.5 28t-31.5 86z" />
    <glyph glyph-name="uniFE84" unicode="&#x623;" horiz-adv-x="217" arabic-form="final" 
d="M186 746v-3l-171 -27v4l85 13q-66 37 -66 84q0 27 20 46t58 19q27 0 53 -12l-1 -4q-25 13 -52 13q-24 0 -42 -9t-25.5 -22.5t-7.5 -30.5q0 -47 67 -84zM217 4l2 -2l-2 -2q-55 0 -86.5 28t-31.5 86v514h4v-514q0 -56 30.5 -83t83.5 -27z" />
    <glyph glyph-name="uniFE86" unicode="&#x624;" horiz-adv-x="507" arabic-form="final" 
d="M337 442v-3l-171 -27v4l85 13q-66 36 -66 84q0 27 20.5 46t58.5 19q26 0 52 -12v-4q-26 12 -52 12q-25 0 -42.5 -8.5t-25.5 -22t-8 -30.5q0 -47 68 -84zM510 2l-3 -2h-105q-18 -95 -99 -156.5t-232 -79.5l-2 4q151 18 231.5 78.5t97.5 153.5h-98q-95 0 -152 41.5
t-57 106.5q0 69 47.5 122.5t100.5 53.5q65 0 116.5 -75.5t51.5 -193.5q0 -26 -4 -51h104zM399 4q4 24 4 50q0 60 -14.5 111t-38 84.5t-52.5 52t-59 18.5q-51 0 -97.5 -52t-46.5 -120q0 -63 56 -103.5t150 -40.5h98z" />
    <glyph glyph-name="uniFE88" unicode="&#x625;" horiz-adv-x="216" arabic-form="final" 
d="M216 4l2 -2l-2 -2q-54 0 -85 28t-31 86l-10 619h4l9 -619q2 -110 113 -110zM62 -132q0 -47 68 -84l81 13v-4l-171 -26v4l85 13q-66 36 -66 84q0 27 20.5 46t58.5 19q26 0 52 -12v-4q-26 12 -52 12q-37 0 -56.5 -17.5t-19.5 -43.5z" />
    <glyph glyph-name="uniFE8A" unicode="&#x626;" horiz-adv-x="697" arabic-form="final" 
d="M212 339v-3l-171 -27v4l85 13q-66 36 -66 84q0 27 20.5 46t58.5 19q26 0 52 -12v-4q-26 12 -52 12q-37 0 -56.5 -17.5t-19.5 -43.5q0 -47 68 -84zM700 2l-3 -2q-29 0 -56 5t-55.5 15t-72.5 30q50 -27 68 -52.5t18 -77.5q-28 -35 -108.5 -69t-192.5 -34q-61 0 -106 15
t-71.5 42t-39 61t-12.5 77q0 90 34 172l3 -2q-33 -81 -33 -170q0 -87 54 -139t171 -52q110 0 189 32.5t108 67.5q0 33 -5.5 52t-27 40t-61 39.5t-110.5 44.5l2 3q49 -18 104.5 -41t79 -32t55.5 -16t65 -7z" />
    <glyph glyph-name="uniFE8B" unicode="&#x626;" horiz-adv-x="273" arabic-form="initial" 
d="M131 489l82 12v-3l-171 -27v4l85 13q-67 37 -67 84q0 27 20.5 46t58.5 19q27 0 53 -12l-1 -3q-26 12 -52 12q-36 0 -55.5 -18t-19.5 -44q0 -47 67 -83zM130 369l4 2q52 -148 50 -295q-61 -76 -184 -76l-2 2l2 2q118 0 180 72q2 143 -50 293z" />
    <glyph glyph-name="uniFE8C" unicode="&#x626;" horiz-adv-x="280" arabic-form="medial" 
d="M205 422v-3l-171 -26v3l85 13q-66 37 -66 84q0 18 8 32t26.5 23.5t44.5 9.5t52 -12v-3q-26 12 -52 12q-37 0 -56.5 -18t-19.5 -43q0 -47 68 -84zM280 4l2 -2l-2 -2q-42 0 -76 12t-46.5 22.5t-16.5 17.5q-4 -6 -21.5 -17.5t-51.5 -23t-68 -11.5l-2 2l2 2q34 0 67.5 11.5
t50.5 22.5t21 17l-20 249h4l19 -249q46 -51 138 -51z" />
    <glyph glyph-name="uniFE8E" unicode="&#x627;" horiz-adv-x="216" arabic-form="final" 
d="M100 114l-10 619h4l9 -619q2 -110 113 -110l2 -2l-2 -2q-54 0 -85 28t-31 86z" />
    <glyph glyph-name="uniFE90" unicode="&#x628;" horiz-adv-x="843" arabic-form="final" 
d="M843 4l2 -2l-2 -2q-35 0 -62.5 12.5t-41 30t-20 31t-7.5 21.5q-128 -107 -380 -107q-263 0 -263 167q0 71 35 144l4 -2q-35 -72 -35 -142q0 -163 259 -163q251 0 378 107l-25 205h4l25 -201q0 -9 6 -22.5t19.5 -32t40.5 -31.5t63 -13zM348 -126l9 12l10 -10l-8 -11z" />
    <glyph glyph-name="uniFE91" unicode="&#x628;" horiz-adv-x="273" arabic-form="initial" 
d="M0 0l-2 2l2 2q118 0 180 72q2 143 -50 293l4 2q52 -148 50 -295q-61 -76 -184 -76zM123 -135l-11 9l9 12l11 -9z" />
    <glyph glyph-name="uniFE92" unicode="&#x628;" horiz-adv-x="280" arabic-form="medial" 
d="M280 4l2 -2l-2 -2q-42 0 -76 12t-46.5 22.5t-16.5 17.5q-4 -6 -21.5 -17.5t-51.5 -23t-68 -11.5l-2 2l2 2q34 0 67.5 11.5t50.5 22.5t21 17l-20 249h4l19 -249q46 -51 138 -51zM138 -126l8 12l11 -10l-8 -11z" />
    <glyph glyph-name="uniFE94" unicode="&#x629;" horiz-adv-x="475" arabic-form="final" 
d="M375 616l-9 -12l-10 9l8 12zM258 612l-8 -12l-10 9l8 12zM475 4l2 -2l-2 -2h-3q-62 0 -95.5 27t-36.5 77q-26 -22 -70.5 -41.5t-99.5 -19.5t-93 24t-47 49q0 90 83 152.5t220 91.5l-3 118l4 1l10 -370q1 -34 15.5 -57t43 -35.5t69.5 -12.5h3zM34 116q10 -23 46.5 -46
t90.5 -23t98 19t71 42l-7 248q-135 -28 -217 -90t-82 -150z" />
    <glyph glyph-name="uniFE96" unicode="&#x62a;" horiz-adv-x="843" arabic-form="final" 
d="M446 429l-8 -11l-11 9l9 11zM329 425l-8 -11l-10 9l8 11zM843 4l2 -2l-2 -2q-35 0 -62.5 12.5t-41 30t-20 31t-7.5 21.5q-128 -107 -380 -107q-263 0 -263 167q0 71 35 144l4 -2q-35 -72 -35 -142q0 -163 259 -163q251 0 378 107l-25 205h4l25 -201q0 -9 6 -22.5
t19.5 -32t40.5 -31.5t63 -13z" />
    <glyph glyph-name="uniFE97" unicode="&#x62a;" horiz-adv-x="273" arabic-form="initial" 
d="M164 509l-10 9l8 11l10 -9zM47 505l-10 9l8 11l11 -9zM0 0l-2 2l2 2q118 0 180 72q2 143 -50 293l4 2q52 -148 50 -295q-61 -76 -184 -76z" />
    <glyph glyph-name="uniFE98" unicode="&#x62a;" horiz-adv-x="280" arabic-form="medial" 
d="M165 442l-9 -12l-10 9l8 12zM48 437l-8 -11l-11 9l9 11zM280 4l2 -2l-2 -2q-42 0 -76 12t-46.5 22.5t-16.5 17.5q-4 -6 -21.5 -17.5t-51.5 -23t-68 -11.5l-2 2l2 2q34 0 67.5 11.5t50.5 22.5t21 17l-20 249h4l19 -249q46 -51 138 -51z" />
    <glyph glyph-name="uniFE9A" unicode="&#x62b;" horiz-adv-x="843" arabic-form="final" 
d="M377 535l-8 -11l-10 9l8 11zM437 439l-8 -12l-10 9l8 12zM320 434l-8 -11l-10 9l8 11zM843 4l2 -2l-2 -2q-35 0 -62.5 12.5t-41 30t-20 31t-7.5 21.5q-128 -107 -380 -107q-263 0 -263 167q0 71 35 144l4 -2q-35 -72 -35 -142q0 -163 259 -163q251 0 378 107l-25 205h4
l25 -201q0 -9 6 -22.5t19.5 -32t40.5 -31.5t63 -13z" />
    <glyph glyph-name="uniFE9B" unicode="&#x62b;" horiz-adv-x="273" arabic-form="initial" 
d="M93 635l11 -9l-8 -11l-11 9zM153 539l11 -9l-9 -12l-10 9zM36 534l11 -9l-8 -11l-11 9zM0 0l-2 2l2 2q118 0 180 72q2 143 -50 293l4 2q52 -148 50 -295q-61 -76 -184 -76z" />
    <glyph glyph-name="uniFE9C" unicode="&#x62b;" horiz-adv-x="280" arabic-form="medial" 
d="M96 548l-8 -12l-10 9l8 12zM156 451l-8 -11l-11 9l9 11zM39 447l-8 -12l-10 9l8 12zM280 4l2 -2l-2 -2q-42 0 -76 12t-46.5 22.5t-16.5 17.5q-4 -6 -21.5 -17.5t-51.5 -23t-68 -11.5l-2 2l2 2q34 0 67.5 11.5t50.5 22.5t21 17l-20 249h4l19 -249q46 -51 138 -51z" />
    <glyph glyph-name="uniFE9E" unicode="&#x62c;" horiz-adv-x="712" arabic-form="final" 
d="M712 4l2 -2l-2 -2q-103 0 -160 48.5t-69 162.5q-178 -43 -283 -133.5t-105 -215.5q0 -91 58.5 -145.5t157.5 -54.5q131 0 229 44l2 -4q-100 -44 -231 -44q-101 0 -160.5 55.5t-59.5 148.5q0 126 105.5 217.5t285.5 135.5q0 6 -1 12l4 1q0 -7 1 -13q41 10 84 17
q-39 22 -99 60t-94 58.5t-77.5 37.5t-77.5 17q-59 0 -109 -36l-2 4q52 36 111 36q45 0 94 -22t135 -77t125 -76l-1 -5l-7 -1q-42 -7 -82 -16q12 -113 68 -160.5t158 -47.5zM352 -94l-11 10l8 11l11 -9z" />
    <glyph glyph-name="uniFE9F" unicode="&#x62c;" horiz-adv-x="696" arabic-form="initial" 
d="M220 411q22 0 42 -4t47 -16t46 -22t57 -35t60 -40.5t76 -53.5t86 -60l-2 -5l-9 -1q-72 -9 -160 -38.5t-155.5 -59t-152 -53t-155.5 -23.5l-2 2l2 2q70 0 154.5 23.5t152.5 53t157.5 59.5t163.5 39q-28 19 -75 52.5t-67.5 48t-55 38t-51.5 33t-42.5 23.5t-42 19t-36 9.5
t-38.5 4.5q-58 0 -113 -33l-3 3q57 34 116 34zM291 -126l8 12l11 -9l-8 -12z" />
    <glyph glyph-name="uniFEA0" unicode="&#x62c;" horiz-adv-x="772" arabic-form="medial" 
d="M772 4l2 -2l-2 -2q-101 0 -169 44t-99 147q-52 -17 -121.5 -52.5t-121.5 -64.5t-123 -51.5t-138 -22.5l-2 2l2 2q61 0 124 18.5t118 46.5t108 57t114 54t116 33q-60 33 -153 91t-142 80.5t-94 22.5q-58 0 -114 -33l-2 3q57 34 116 34q45 0 95.5 -23.5t144 -81.5
t155.5 -92l-1 -4l-8 -2q-34 -5 -69 -16q31 -102 98 -145t166 -43zM362 -76l8 12l11 -10l-9 -11z" />
    <glyph glyph-name="uniFEA2" unicode="&#x62d;" horiz-adv-x="712" arabic-form="final" 
d="M712 4l2 -2l-2 -2q-103 0 -160 48.5t-69 162.5q-178 -43 -283 -133.5t-105 -215.5q0 -91 58.5 -145.5t157.5 -54.5q131 0 229 44l2 -4q-100 -44 -231 -44q-101 0 -160.5 55.5t-59.5 148.5q0 126 105.5 217.5t285.5 135.5q0 6 -1 12l4 1q0 -7 1 -13q41 10 84 17
q-39 22 -99 60t-94 58.5t-77.5 37.5t-77.5 17q-59 0 -109 -36l-2 4q52 36 111 36q45 0 94 -22t135 -77t125 -76l-1 -5l-7 -1q-42 -7 -82 -16q12 -113 68 -160.5t158 -47.5z" />
    <glyph glyph-name="uniFEA3" unicode="&#x62d;" horiz-adv-x="696" arabic-form="initial" 
d="M220 411q22 0 42 -4t47 -16t46 -22t57 -35t60 -40.5t76 -53.5t86 -60l-2 -5l-9 -1q-72 -9 -160 -38.5t-155.5 -59t-152 -53t-155.5 -23.5l-2 2l2 2q70 0 154.5 23.5t152.5 53t157.5 59.5t163.5 39q-28 19 -75 52.5t-67.5 48t-55 38t-51.5 33t-42.5 23.5t-42 19t-36 9.5
t-38.5 4.5q-58 0 -113 -33l-3 3q57 34 116 34z" />
    <glyph glyph-name="uniFEA4" unicode="&#x62d;" horiz-adv-x="772" arabic-form="medial" 
d="M772 4l2 -2l-2 -2q-101 0 -169 44t-99 147q-52 -17 -121.5 -52.5t-121.5 -64.5t-123 -51.5t-138 -22.5l-2 2l2 2q61 0 124 18.5t118 46.5t108 57t114 54t116 33q-60 33 -153 91t-142 80.5t-94 22.5q-58 0 -114 -33l-2 3q57 34 116 34q45 0 95.5 -23.5t144 -81.5
t155.5 -92l-1 -4l-8 -2q-34 -5 -69 -16q31 -102 98 -145t166 -43z" />
    <glyph glyph-name="uniFEA6" unicode="&#x62e;" horiz-adv-x="712" arabic-form="final" 
d="M219 551l-9 -11l-10 9l8 12zM712 4l2 -2l-2 -2q-103 0 -160 48.5t-69 162.5q-178 -43 -283 -133.5t-105 -215.5q0 -91 58.5 -145.5t157.5 -54.5q131 0 229 44l2 -4q-100 -44 -231 -44q-101 0 -160.5 55.5t-59.5 148.5q0 126 105.5 217.5t285.5 135.5q0 6 -1 12l4 1
q0 -7 1 -13q41 10 84 17q-39 22 -99 60t-94 58.5t-77.5 37.5t-77.5 17q-59 0 -109 -36l-2 4q52 36 111 36q45 0 94 -22t135 -77t125 -76l-1 -5l-7 -1q-42 -7 -82 -16q12 -113 68 -160.5t158 -47.5z" />
    <glyph glyph-name="uniFEA7" unicode="&#x62e;" horiz-adv-x="696" arabic-form="initial" 
d="M216 551l-8 -11l-11 9l9 12zM220 411q22 0 42 -4t47 -16t46 -22t57 -35t60 -40.5t76 -53.5t86 -60l-1 -5l-10 -1q-72 -9 -160 -38.5t-155.5 -59t-152 -53t-155.5 -23.5l-2 2l2 2q70 0 154.5 23.5t152.5 53t157.5 59.5t163.5 39q-28 19 -75 52.5t-67.5 48t-55 38t-51.5 33
t-42.5 23.5t-42 19t-36 9.5t-38.5 4.5q-58 0 -113 -33l-2 3q56 34 115 34z" />
    <glyph glyph-name="uniFEA8" unicode="&#x62e;" horiz-adv-x="772" arabic-form="medial" 
d="M216 564l-8 -12l-11 9l9 12zM772 4l2 -2l-2 -2q-101 0 -169 44t-99 147q-52 -17 -121.5 -52.5t-121.5 -64.5t-123 -51.5t-138 -22.5l-2 2l2 2q61 0 124 18.5t118 46.5t108 57t114 54t116 33q-60 33 -153 91t-142 80.5t-94 22.5q-58 0 -114 -33l-2 3q57 34 116 34
q45 0 95.5 -23.5t144 -81.5t155.5 -92l-1 -4l-8 -2q-34 -5 -69 -16q31 -102 98 -145t166 -43z" />
    <glyph glyph-name="uniFEAA" unicode="&#x62f;" horiz-adv-x="503" arabic-form="final" 
d="M503 4l3 -2l-3 -2q-35 0 -56.5 5.5t-35.5 19.5t-24 39q-82 -76 -199 -76q-78 0 -158 33l2 4q75 -33 156 -33q116 0 197 76l-153 397l4 2l152 -396q15 -41 39.5 -54t75.5 -13z" />
    <glyph glyph-name="uniFEAC" unicode="&#x630;" horiz-adv-x="503" arabic-form="final" 
d="M160 644l-8 -11l-11 9l8 12zM503 4l3 -2l-3 -2q-35 0 -56.5 5.5t-35.5 19.5t-24 39q-82 -76 -199 -76q-78 0 -158 33l2 4q75 -33 156 -33q116 0 197 76l-153 397l4 2l152 -396q15 -41 39.5 -54t75.5 -13z" />
    <glyph glyph-name="uniFEAE" unicode="&#x631;" horiz-adv-x="401" arabic-form="final" 
d="M401 4l2 -2l-2 -2q-40 0 -60.5 9.5t-29.5 29.5q-50 -87 -123 -151t-208 -137l-1 4q132 71 206 135t124 152q-20 115 -53 209l4 2q31 -92 52 -208q5 -14 14 -22.5t27.5 -13.5t47.5 -5z" />
    <glyph glyph-name="uniFEB0" unicode="&#x632;" horiz-adv-x="401" arabic-form="final" 
d="M260 430l-9 -12l-10 9l8 12zM401 4l2 -2l-2 -2q-40 0 -60.5 9.5t-29.5 29.5q-50 -87 -123 -151t-208 -137l-1 4q132 71 206 135t124 152q-20 115 -53 209l4 2q31 -92 52 -208q5 -14 14 -22.5t27.5 -13.5t47.5 -5z" />
    <glyph glyph-name="uniFEB2" unicode="&#x633;" horiz-adv-x="1201" arabic-form="final" 
d="M1201 4l2 -2l-2 -2q-68 0 -108.5 17.5t-69.5 47.5q-16 -28 -51.5 -46.5t-74.5 -18.5q-33 0 -62 12t-41 22.5t-16 17.5q-3 -7 -15.5 -18t-41.5 -22.5t-63 -11.5v0q-38 0 -63 19.5t-35 47.5q10 -56 10 -136q-15 -60 -92 -113t-180 -53q-119 0 -174 53t-55 141q0 91 34 172
l3 -1q-33 -81 -33 -171q0 -86 54 -138t171 -52q52 0 99.5 15.5t81.5 39.5t56.5 51.5t30.5 53.5q0 57 -4 101.5t-15.5 84t-16.5 55.5t-24.5 56t-21.5 45l4 2q4 -10 15 -32.5t15 -32t12 -27.5t11.5 -30t8 -28t7.5 -32q6 -38 32.5 -62.5t69.5 -24.5q34 0 62.5 12t39.5 22t15 17
l-20 249h4l20 -249q45 -51 117 -51q38 0 73.5 18.5t50.5 44.5q-1 36 -16.5 131t-32.5 170l4 2q17 -75 32.5 -170t16.5 -132q20 -19 38 -31t54.5 -22.5t83.5 -10.5z" />
    <glyph glyph-name="uniFEB3" unicode="&#x633;" horiz-adv-x="724" arabic-form="initial" 
d="M575 370q20 -46 30.5 -78.5t20 -92t9.5 -131.5q-14 -28 -51 -48t-76 -20q-34 0 -62.5 12t-40.5 22.5t-16 17.5q-3 -7 -15.5 -18t-41.5 -22.5t-63 -11.5q-26 0 -49 6.5t-37 16.5t-22.5 17.5t-10.5 11.5q-2 -5 -11 -12.5t-26 -17t-47 -16t-66 -6.5l-2 2l2 2q30 0 55.5 4.5
t41 11t27.5 14.5t17 13t7 8l-20 249h4l20 -249q44 -51 117 -51q34 0 62.5 12t40 22t15.5 17l-20 249h4l20 -249q44 -51 117 -51q37 0 72.5 18.5t50.5 44.5q0 72 -9.5 131.5t-20 91t-30.5 78.5z" />
    <glyph glyph-name="uniFEB4" unicode="&#x633;" horiz-adv-x="811" arabic-form="medial" 
d="M811 4l2 -2l-2 -2q-47 0 -84 10.5t-56 23t-37 31.5q-16 -28 -52 -46.5t-74 -18.5q-34 0 -62.5 12t-40.5 22.5t-16 17.5q-3 -7 -15.5 -18t-41.5 -22.5t-63 -11.5t-62.5 12t-40.5 22.5t-16 17.5q-2 -5 -11 -12.5t-26 -17t-47 -16t-66 -6.5l-2 2l2 2q30 0 55.5 4.5t41 11
t27.5 14.5t17 13t7 8l-20 249h4l20 -249q44 -51 117 -51q34 0 62.5 12t40 22t15.5 17l-20 249h4l20 -249q44 -51 117 -51q38 0 73 18.5t50 44.5q0 36 -16 131t-33 170l5 2q16 -75 31.5 -170t16.5 -132q32 -30 70.5 -47t105.5 -17z" />
    <glyph glyph-name="uniFEB6" unicode="&#x634;" horiz-adv-x="1201" arabic-form="final" 
d="M734 548l-8 -12l-10 9l8 12zM794 451l-8 -11l-11 9l9 11zM677 447l-8 -12l-10 9l8 12zM1201 4l2 -2l-2 -2q-68 0 -108.5 17.5t-69.5 47.5q-16 -28 -51.5 -46.5t-74.5 -18.5q-33 0 -62 12t-41 22.5t-16 17.5q-3 -7 -15.5 -18t-41.5 -22.5t-63 -11.5v0q-38 0 -63 19.5
t-35 47.5q10 -56 10 -136q-7 -27 -30 -56t-57.5 -53.5t-83 -40.5t-101.5 -16q-61 0 -106 15t-71.5 41.5t-39 61t-12.5 76.5q0 91 34 172l3 -1q-33 -81 -33 -171q0 -86 54 -138t171 -52q52 0 99.5 15.5t81.5 39.5t56.5 51.5t30.5 53.5q0 57 -4 101.5t-15.5 84t-16.5 55.5
t-24.5 56t-21.5 45l4 2q4 -10 15 -32.5t15 -32t12 -27.5t11.5 -30t8 -28t7.5 -32q4 -25 16.5 -44t34.5 -31t51 -12q34 0 62.5 12t39.5 22t15 17l-20 249h4l20 -249q45 -51 117 -51q38 0 73.5 18.5t50.5 44.5q-1 36 -16.5 131t-32.5 170l4 2q17 -75 32.5 -170t16.5 -132
q14 -14 27.5 -23.5t34.5 -20t49.5 -15.5t64.5 -5z" />
    <glyph glyph-name="uniFEB7" unicode="&#x634;" horiz-adv-x="724" arabic-form="initial" 
d="M372 548l-8 -12l-10 9l8 12zM432 451l-8 -11l-10 9l8 11zM315 447l-8 -12l-10 9l8 12zM575 370q20 -46 30.5 -78.5t20 -92t9.5 -131.5q-14 -28 -51 -48t-76 -20q-34 0 -62.5 12t-40.5 22.5t-16 17.5q-3 -7 -15.5 -18t-41.5 -22.5t-63 -11.5t-62.5 12t-40.5 22.5t-16 17.5
q-2 -5 -11 -12.5t-26 -17t-47 -16t-66 -6.5l-2 2l2 2q30 0 55.5 4.5t41 11t27.5 14.5t17 13t7 8l-20 249h4l20 -249q44 -51 117 -51q34 0 62.5 12t40 22t15.5 17l-20 249h4l20 -249q44 -51 117 -51q37 0 72.5 18.5t50.5 44.5q0 72 -9.5 131.5t-20 91t-30.5 78.5z" />
    <glyph glyph-name="uniFEB8" unicode="&#x634;" horiz-adv-x="811" arabic-form="medial" 
d="M344 548l-8 -12l-10 9l8 12zM404 451l-8 -11l-10 9l8 11zM288 447l-9 -12l-10 9l8 12zM811 4l2 -2l-2 -2q-47 0 -84 10.5t-56 23t-37 31.5q-16 -28 -52 -46.5t-74 -18.5q-34 0 -62.5 12t-40.5 22.5t-16 17.5q-3 -7 -15.5 -18t-41.5 -22.5t-63 -11.5t-62.5 12t-40.5 22.5
t-16 17.5q-2 -5 -11 -12.5t-26 -17t-47 -16t-66 -6.5l-2 2l2 2q30 0 55.5 4.5t41 11t27.5 14.5t17 13t7 8l-20 249h4l20 -249q44 -51 117 -51q34 0 62.5 12t40 22t15.5 17l-20 249h4l20 -249q44 -51 117 -51q38 0 73 18.5t50 44.5q0 36 -16 131t-33 170l5 2
q16 -75 31.5 -170t16.5 -132q32 -30 70.5 -47t105.5 -17z" />
    <glyph glyph-name="uniFEBA" unicode="&#x635;" horiz-adv-x="1309" arabic-form="final" 
d="M1309 4l3 -2l-3 -2q-90 0 -128 86q-49 -46 -131 -66t-220 -20h-172q-38 0 -63 19.5t-35 47.5q10 -56 10 -136q-15 -60 -92 -113t-180 -53q-61 0 -106 15t-71.5 41.5t-39 61t-12.5 76.5q0 91 34 172l3 -1q-33 -81 -33 -171q0 -86 54 -138t171 -52q100 0 175.5 51.5
t92.5 108.5q0 57 -4 101.5t-15.5 84t-16.5 55.5t-24.5 56t-21.5 45l4 2q4 -10 15 -32.5t15 -32t12 -27.5t11.5 -30t8 -28t7.5 -32q6 -38 32 -62.5t69 -24.5q36 93 95 171.5t135 128t151 49.5q77 0 115 -67t31 -197h-1q36 -85 125 -85zM662 4h168q138 0 219 19.5t132 64.5
q5 85 -10.5 144t-48.5 88t-83 29q-74 0 -149 -49t-133.5 -126.5t-94.5 -169.5z" />
    <glyph glyph-name="uniFEBB" unicode="&#x635;" horiz-adv-x="889" arabic-form="initial" 
d="M653 353q77 0 115.5 -67t30.5 -197q-49 -47 -131.5 -68t-222.5 -21h-172q-31 0 -58 6.5t-42.5 16t-24 17.5t-11.5 13q-7 -13 -48 -33t-89 -20l-2 2l2 2q48 0 87.5 19.5t48.5 33.5l-18 306h4l17 -306q7 -10 19 -20t43 -21.5t71 -11.5q36 93 95 171.5t135.5 128t150.5 49.5
zM795 88q8 128 -29 194.5t-112 66.5q-74 0 -149.5 -49t-134 -126.5t-94.5 -169.5h169q137 0 218 19.5t132 64.5z" />
    <glyph glyph-name="uniFEBC" unicode="&#x635;" horiz-adv-x="924" arabic-form="medial" 
d="M924 4l2 -2l-2 -2q-90 0 -129 86q-33 -31 -79 -49.5t-112.5 -27.5t-158.5 -9h-172q-31 0 -58 6.5t-42.5 16t-24 17.5t-11.5 13q-7 -13 -48 -33t-89 -20l-2 2l2 2q48 0 87.5 19.5t48.5 33.5l-18 306h4l17 -306q7 -10 19 -20t43 -21.5t71 -11.5q36 93 95 171.5t135.5 128
t150.5 49.5q77 0 115.5 -67t30.5 -197h-1q37 -85 126 -85zM276 4h169q137 0 218 19.5t132 64.5q4 64 -4 113.5t-26 82t-46 49t-65 16.5q-74 0 -149.5 -49t-134 -126.5t-94.5 -169.5z" />
    <glyph glyph-name="uniFEBE" unicode="&#x636;" horiz-adv-x="1309" arabic-form="final" 
d="M966 493l-8 -12l-11 10l8 11zM1309 4l3 -2l-3 -2q-90 0 -128 86q-49 -46 -131 -66t-220 -20h-172q-38 0 -63 19.5t-35 47.5q10 -56 10 -136q-15 -60 -92 -113t-180 -53q-61 0 -106 15t-71.5 41.5t-39 61t-12.5 76.5q0 91 34 172l3 -1q-33 -81 -33 -171q0 -86 54 -138
t171 -52q52 0 99.5 15.5t81.5 39.5t56.5 51.5t30.5 53.5q0 57 -4 101.5t-15.5 84t-16.5 55.5t-24.5 56t-21.5 45l4 2q5 -10 13.5 -28t12.5 -27.5t10.5 -24.5t10.5 -25.5t8.5 -23.5t7.5 -26t6 -27q6 -38 32 -62.5t69 -24.5q36 93 95 171.5t135 128t151 49.5q77 0 115 -67
t31 -197h-1q36 -85 125 -85zM662 4h168q138 0 219 19.5t132 64.5q5 85 -10.5 144t-48.5 88t-83 29q-74 0 -149 -49t-133.5 -126.5t-94.5 -169.5z" />
    <glyph glyph-name="uniFEBF" unicode="&#x636;" horiz-adv-x="889" arabic-form="initial" 
d="M580 493l-8 -12l-11 10l9 11zM653 353q77 0 115.5 -67t30.5 -197q-49 -47 -131.5 -68t-222.5 -21h-172q-31 0 -58 6.5t-42.5 16t-24 17.5t-11.5 13q-7 -13 -48 -33t-89 -20l-2 2l2 2q48 0 87.5 19.5t48.5 33.5l-18 306h4l17 -306q7 -10 19 -20t43 -21.5t71 -11.5
q36 93 95 171.5t135.5 128t150.5 49.5zM795 88q8 128 -29 194.5t-112 66.5q-74 0 -149.5 -49t-134 -126.5t-94.5 -169.5h169q137 0 218 19.5t132 64.5z" />
    <glyph glyph-name="uniFEC0" unicode="&#x636;" horiz-adv-x="924" arabic-form="medial" 
d="M580 493l-8 -12l-11 10l9 11zM924 4l2 -2l-2 -2q-90 0 -129 86q-49 -46 -130.5 -66t-219.5 -20h-172q-31 0 -58 6.5t-42.5 16t-24 17.5t-11.5 13q-7 -13 -48 -33t-89 -20l-2 2l2 2q48 0 87.5 19.5t48.5 33.5l-18 306h4l17 -306q7 -10 19 -20t43 -21.5t71 -11.5
q36 93 95 171.5t135.5 128t150.5 49.5q77 0 115.5 -67t30.5 -197h-1q37 -85 126 -85zM276 4h169q137 0 218 19.5t132 64.5q4 64 -4 113.5t-26 82t-46 49t-65 16.5q-74 0 -149.5 -49t-134 -126.5t-94.5 -169.5z" />
    <glyph glyph-name="uniFEC2" unicode="&#x637;" horiz-adv-x="858" arabic-form="final" 
d="M858 4l2 -2l-2 -2q-50 0 -80 22.5t-49 64.5q-49 -46 -130.5 -66.5t-219.5 -20.5h-309l1 4h135q24 60 58 115l-11 611h4l10 -605q42 66 92.5 116.5t110.5 81t118 30.5q77 0 115 -66.5t30 -195.5l-4 -4l3 2q37 -85 126 -85zM210 4h169q93 0 159 9t112 27.5t80 49.5
q7 127 -30 193t-112 66q-74 0 -149.5 -49t-133.5 -126.5t-95 -169.5z" />
    <glyph glyph-name="uniFEC3" unicode="&#x637;" horiz-adv-x="776" arabic-form="initial" 
d="M541 353q77 0 115 -66.5t31 -195.5q-49 -49 -131.5 -70t-223.5 -21h-332l-2 2l2 2h160q23 60 57 115l-10 611h4l10 -605q41 66 91.5 116.5t110.5 81t118 30.5zM683 90q3 51 -1.5 92.5t-16 72.5t-29 52t-41.5 31.5t-54 10.5q-74 0 -149 -49t-133.5 -126.5t-94.5 -169.5
h168q139 0 220 20t131 66z" />
    <glyph glyph-name="uniFEC4" unicode="&#x637;" horiz-adv-x="812" arabic-form="medial" 
d="M812 4l2 -2l-3 -2q-49 0 -79.5 22.5t-48.5 64.5q-49 -46 -131 -66.5t-220 -20.5h-332l-2 2l2 2h160q23 60 57 115l-10 611h4l10 -605q41 66 91.5 116.5t110.5 81t118 30.5q77 0 115 -66.5t31 -195.5l-4 -4l3 2q36 -85 126 -85zM164 4h168q139 0 220 20t131 66
q7 127 -30 193t-112 66q-74 0 -149 -49t-133.5 -126.5t-94.5 -169.5z" />
    <glyph glyph-name="uniFEC6" unicode="&#x638;" horiz-adv-x="858" arabic-form="final" 
d="M858 4l2 -2l-2 -2q-50 0 -80 22.5t-49 64.5q-49 -46 -130.5 -66.5t-219.5 -20.5h-309l1 4h135q24 60 58 115l-11 611h4l10 -605q42 66 92.5 116.5t110.5 81t118 30.5q77 0 115 -66.5t30 -195.5l-4 -4l3 2q37 -85 126 -85zM486 549l-9 -12l-11 9l9 12zM210 4h169
q93 0 159 9t112 27.5t80 49.5q7 127 -30 193t-112 66q-74 0 -149.5 -49t-133.5 -126.5t-95 -169.5z" />
    <glyph glyph-name="uniFEC7" unicode="&#x638;" horiz-adv-x="776" arabic-form="initial" 
d="M541 353q77 0 115 -66.5t31 -195.5q-49 -49 -131.5 -70t-223.5 -21h-332l-2 2l2 2h160q23 60 57 115l-10 611h4l10 -605q41 66 91.5 116.5t110.5 81t118 30.5zM439 549l-8 -12l-11 9l8 12zM683 90q3 51 -1.5 92.5t-16 72.5t-29 52t-41.5 31.5t-54 10.5q-74 0 -149 -49
t-133.5 -126.5t-94.5 -169.5h168q139 0 220 20t131 66z" />
    <glyph glyph-name="uniFEC8" unicode="&#x638;" horiz-adv-x="812" arabic-form="medial" 
d="M812 4l2 -2l-3 -2q-49 0 -79.5 22.5t-48.5 64.5q-49 -46 -131 -66.5t-220 -20.5h-332l-2 2l2 2h160q23 60 57 115l-10 611h4l10 -605q41 66 91.5 116.5t110.5 81t118 30.5q77 0 115 -66.5t31 -195.5l-4 -4l3 2q36 -85 126 -85zM439 549l-8 -12l-11 9l8 12zM164 4h168
q139 0 220 20t131 66q7 127 -30 193t-112 66q-74 0 -149 -49t-133.5 -126.5t-94.5 -169.5z" />
    <glyph glyph-name="uniFECA" unicode="&#x639;" horiz-adv-x="552" arabic-form="final" 
d="M552 4l3 -2l-3 -2h-18q-121 0 -227 89q-13 11 -27 25q-46 -28 -81 -55t-67.5 -61t-50.5 -73.5t-18 -80.5q0 -57 27 -97.5t80 -62.5t128 -22q131 0 229 44l2 -4q-100 -44 -231 -44q-114 0 -176.5 49.5t-62.5 135.5q0 42 18 82t51 74.5t68 61.5t81 55q-17 15 -43 41.5
t-47 47t-53.5 49.5t-66.5 56v4q116 51 226 51q56 0 100.5 -12t65.5 -32q0 -34 -10 -60t-36 -51.5t-52.5 -44t-77.5 -49.5q15 -14 28 -25q105 -87 224 -87h17zM71 312q43 -34 80 -68t75 -72l54 -54q51 31 77.5 50t52 43.5t35.5 50t10 58.5q-45 41 -162 41q-108 0 -222 -49z
" />
    <glyph glyph-name="uniFECB" unicode="&#x639;" horiz-adv-x="514" arabic-form="initial" 
d="M484 55v-4q-133 -31 -213.5 -41t-215.5 -10h-55l-2 2l2 2h54q114 0 186 7q-84 48 -127 102.5t-43 123.5q0 64 42.5 105.5t120.5 41.5q68 0 130 -33l-2 -4q-60 33 -128 33q-77 0 -118 -40t-41 -103q0 -129 172 -226q87 9 238 44z" />
    <glyph glyph-name="uniFECC" unicode="&#x639;" horiz-adv-x="529" arabic-form="medial" 
d="M530 4l2 -2l-3 -2h-17q-115 0 -229 100q-67 -45 -139.5 -72.5t-130.5 -27.5h-13l-2 2l2 2h13q58 0 129.5 27t137.5 71q-24 22 -58 57.5t-74 72.5t-95 78l1 4q116 51 226 51q56 0 101 -12t65 -32q0 -36 -21.5 -75.5t-56.5 -75.5t-82 -68q54 -47 108 -72.5t119 -25.5h17z
M57 312q73 -55 142.5 -124.5t83.5 -82.5q71 49 115.5 106t44.5 109q-47 41 -163 41q-108 0 -223 -49z" />
    <glyph glyph-name="uniFECE" unicode="&#x63a;" horiz-adv-x="552" arabic-form="final" 
d="M280 516l-8 -12l-11 10l9 11zM552 4l3 -2l-3 -2h-18q-121 0 -227 89q-13 11 -27 25q-46 -28 -81 -55t-67.5 -61t-50.5 -73.5t-18 -80.5q0 -57 27 -97.5t80 -62.5t128 -22q131 0 229 44l2 -4q-100 -44 -231 -44q-114 0 -176.5 49.5t-62.5 135.5q0 42 18 82t51 74.5
t68 61.5t81 55q-17 15 -43 41.5t-47 47t-53.5 49.5t-66.5 56v4q116 51 226 51q56 0 100.5 -12t65.5 -32q0 -34 -10 -60t-36 -51.5t-52.5 -44t-77.5 -49.5q15 -14 28 -25q105 -87 224 -87h17zM71 312q43 -34 80 -68t75 -72l54 -54q51 31 77.5 50t52 43.5t35.5 50t10 58.5
q-45 41 -162 41q-108 0 -222 -49z" />
    <glyph glyph-name="uniFECF" unicode="&#x63a;" horiz-adv-x="514" arabic-form="initial" 
d="M230 526l-8 -12l-11 10l8 11zM484 55v-4q-133 -31 -213.5 -41t-215.5 -10h-55l-2 2l2 2h54q114 0 186 7q-56 31 -93 65t-57 74.5t-20 86.5q0 64 42.5 105.5t120.5 41.5q68 0 130 -33l-2 -4q-60 33 -128 33q-39 0 -69.5 -11t-50 -30.5t-29.5 -45.5t-10 -56
q0 -129 172 -226q87 9 238 44z" />
    <glyph glyph-name="uniFED0" unicode="&#x63a;" horiz-adv-x="529" arabic-form="medial" 
d="M276 507l-8 -12l-11 9l9 12zM530 4l2 -2l-3 -2h-17q-115 0 -229 100q-67 -45 -139.5 -72.5t-130.5 -27.5h-13l-2 2l2 2h13q58 0 129.5 27t137.5 71q-24 22 -58 57.5t-74 72.5t-95 78l1 4q116 51 226 51q56 0 101 -12t65 -32q0 -36 -21.5 -75.5t-56.5 -75.5t-82 -68
q54 -47 108 -72.5t119 -25.5h17zM57 312q73 -55 142.5 -124.5t83.5 -82.5q71 49 115.5 106t44.5 109q-47 41 -163 41q-108 0 -223 -49z" />
    <glyph glyph-name="uniFED2" unicode="&#x641;" horiz-adv-x="928" arabic-form="final" 
d="M700 577l-8 -11l-11 9l8 12zM928 4l2 -2l-2 -2h-14q-113 0 -210 46q-136 -58 -362 -58h-10q-263 0 -263 167q0 71 35 144l4 -2q-35 -72 -35 -142q0 -163 259 -163h10q223 0 358 56q-44 22 -76.5 50t-51.5 63.5t-19 74.5q0 63 50 124t100 61q60 0 110 -62t50 -127
q0 -51 -37.5 -100t-116.5 -84q95 -44 205 -44h14zM557 235q0 -56 40 -104.5t107 -80.5q80 34 117.5 82.5t37.5 98.5q0 65 -49 125.5t-107 60.5q-49 0 -97.5 -60t-48.5 -122z" />
    <glyph glyph-name="uniFED3" unicode="&#x641;" horiz-adv-x="459" arabic-form="initial" 
d="M207 671l-8 -12l-11 10l9 11zM200 525q27 0 52.5 -13t49 -43.5t40 -75t24 -113.5t1.5 -153q-37 -52 -137 -89.5t-230 -37.5l-2 2l2 2q127 0 225 35.5t139 86.5q4 69 0 128q-55 -53 -140 -53q-70 0 -120.5 42.5t-50.5 105.5q0 69 47 122.5t100 53.5zM225 205q83 0 139 52
q-9 134 -56.5 199t-107.5 65q-24 0 -50 -14t-46.5 -36.5t-34 -55t-13.5 -66.5q0 -61 50 -102.5t119 -41.5z" />
    <glyph glyph-name="uniFED4" unicode="&#x641;" horiz-adv-x="449" arabic-form="medial" 
d="M221 574l-8 -11l-11 9l8 12zM449 4l2 -2l-2 -2h-14q-109 0 -203 43q-95 -43 -222 -43h-10l-2 2l2 2h10q125 0 217 41q-45 22 -79 50.5t-54 65t-20 75.5q0 63 50 124t100 61q60 0 110 -62t50 -127q0 -51 -38.5 -102t-109.5 -85q93 -41 199 -41h14zM78 235q0 -57 42 -106.5
t112 -81.5q71 33 109.5 83.5t38.5 100.5q0 65 -49 125.5t-106 60.5q-50 0 -98.5 -60t-48.5 -122z" />
    <glyph glyph-name="uniFED6" unicode="&#x642;" horiz-adv-x="755" arabic-form="final" 
d="M518 452l-9 -12l-10 9l8 12zM401 448l-8 -12l-11 9l9 12zM757 2l-2 -2h-112q0 -38 -3 -79q-33 -75 -113.5 -115.5t-171.5 -40.5q-148 0 -217 50.5t-69 153.5q0 82 36 167l3 -1q-35 -85 -35 -166q0 -67 29 -111t92 -66.5t161 -22.5q57 0 110.5 15.5t100.5 50.5t71 85
q2 42 2 80h-113q-90 0 -145 42t-55 106q0 70 47 123.5t101 53.5q24 0 46.5 -9.5t45 -33t39 -58.5t27 -91.5t11.5 -128.5h112zM630 4h9q-1 71 -11 127t-26 91t-38 57.5t-44 32t-46 9.5q-52 0 -98 -52.5t-46 -120.5q0 -63 54 -103.5t142 -40.5h104z" />
    <glyph glyph-name="uniFED7" unicode="&#x642;" horiz-adv-x="459" arabic-form="initial" 
d="M255 655l-8 -12l-11 9l8 12zM138 650l-8 -11l-10 9l8 11zM201 525q26 0 51.5 -13t49 -43.5t40 -75t24 -113.5t1.5 -153q-37 -52 -137 -89.5t-230 -37.5l-2 2l2 2q127 0 225 35.5t139 86.5q4 69 0 128q-55 -53 -140 -53q-45 0 -84.5 19t-63 53.5t-23.5 75.5q0 69 47 122.5
t101 53.5zM225 205q83 0 139 52q-9 134 -56.5 199t-107.5 65q-24 0 -50 -14t-46.5 -36.5t-34 -55t-13.5 -66.5q0 -61 50 -102.5t119 -41.5z" />
    <glyph glyph-name="uniFED8" unicode="&#x642;" horiz-adv-x="449" arabic-form="medial" 
d="M268 558l-8 -11l-10 9l8 11zM152 554l-8 -12l-11 9l9 12zM449 4l2 -2l-2 -2h-14q-109 0 -203 43q-95 -43 -222 -43h-10l-2 2l2 2h10q125 0 217 41q-45 22 -79 50.5t-54 65t-20 75.5q0 63 50 124t100 61q60 0 110 -62t50 -127q0 -51 -38.5 -102t-109.5 -85q93 -41 199 -41
h14zM78 235q0 -57 42 -106.5t112 -81.5q71 33 109.5 83.5t38.5 100.5q0 65 -49 125.5t-106 60.5q-50 0 -98.5 -60t-48.5 -122z" />
    <glyph glyph-name="uniFEDA" unicode="&#x643;" horiz-adv-x="826" arabic-form="final" 
d="M826 4l2 -2l-3 -2q-34 0 -61 12.5t-40.5 30t-20 31t-7.5 21.5q-127 -107 -364 -107q-263 0 -263 167q0 71 35 144l4 -2q-35 -72 -35 -142q0 -163 259 -163q236 0 363 107l-1 631h4v-627q0 -8 6.5 -22t19.5 -32.5t40 -31.5t62 -13zM308 288l-1 4q114 0 170 46q0 25 -40 54
t-95 52l2 4l145 82v-4l-142 -80q35 -15 64 -32t49 -37.5t20 -37.5q-50 -51 -172 -51z" />
    <glyph glyph-name="uniFEDB" unicode="&#x643;" horiz-adv-x="455" arabic-form="initial" 
d="M386 738l-1 -5l-374 -274q151 -93 226.5 -183t85.5 -187q-56 -44 -131 -66.5t-192 -22.5l-2 2l2 2q116 0 189.5 21.5t129.5 64.5q-10 96 -85 184.5t-227 182.5v4z" />
    <glyph glyph-name="uniFEDC" unicode="&#x643;" horiz-adv-x="530" arabic-form="medial" 
d="M530 4l2 -2l-2 -2q-30 0 -52.5 5.5t-41 15t-43 35t-45.5 50.5t-62 77q-44 -98 -109.5 -140.5t-176.5 -42.5l-2 2l2 2q110 0 174.5 42.5t108.5 139.5l-215 271l1 4l378 277l-1 -5l-374 -274l211 -266q36 -46 54.5 -69t42 -48.5t37.5 -36t33.5 -20.5t37.5 -12.5t42 -2.5z
" />
    <glyph glyph-name="uniFEDE" unicode="&#x644;" horiz-adv-x="702" arabic-form="final" 
d="M703 4l2 -2l-3 -2q-94 0 -147 64q-4 -120 -66.5 -178.5t-190.5 -58.5q-119 0 -174 53t-55 141q0 91 34 173l3 -2q-33 -81 -33 -170q0 -87 54 -139t171 -52q129 0 190 59.5t63 180.5l-10 659h4l10 -659v-2q56 -65 148 -65z" />
    <glyph glyph-name="uniFEDF" unicode="&#x644;" horiz-adv-x="216" arabic-form="initial" 
d="M0 0l-2 2l2 2q39 0 69 16t44 45l-11 665h4l10 -666q-13 -29 -44 -46.5t-72 -17.5z" />
    <glyph glyph-name="uniFEE0" unicode="&#x644;" horiz-adv-x="231" arabic-form="medial" 
d="M231 4l2 -2l-3 -2q-31 0 -56.5 9.5t-39 23t-19.5 29.5q-12 -26 -40.5 -44t-74.5 -18l-2 2l2 2q46 0 74 18t39 43v665h4v-662q7 -26 37 -45t77 -19z" />
    <glyph glyph-name="uniFEE2" unicode="&#x645;" horiz-adv-x="661" arabic-form="final" 
d="M662 4l2 -2l-3 -2q-102 0 -159 66q-15 -26 -50.5 -52t-85.5 -26q-33 0 -69.5 13t-62.5 28.5t-55 28.5t-49 13q-57 0 -57 -107q0 -88 51 -291l-4 -2q-51 198 -51 293q0 112 61 112q16 0 37 -8q62 152 103 211t95 59q61 0 100 -73.5t39 -195.5q27 -30 63 -47.5t95 -17.5z
M366 -8q83 0 134 76q0 121 -38 193.5t-97 72.5q-52 0 -92 -58t-103 -210q16 -6 54.5 -27t73 -34t68.5 -13z" />
    <glyph glyph-name="uniFEE3" unicode="&#x645;" horiz-adv-x="573" arabic-form="initial" 
d="M344 338q45 0 77.5 -39t47.5 -98.5t15 -131.5q-18 -31 -54.5 -56t-84.5 -25q-36 0 -68.5 14t-110.5 57q-6 3 -9 5t-7.5 4.5t-9.5 4.5q-28 -41 -58 -57t-79 -16h-3l-2 2l2 2h4q34 0 57 6.5t45 27.5t39 49t46 81q22 42 35.5 65t29 46.5t28 34t28 17.5t32.5 7zM345 -8
q47 0 81 23t54 53q0 26 -2 51t-6 48.5t-10.5 45t-15 40t-19 33.5t-23.5 25.5t-28 16.5t-32 6q-40 0 -69 -35t-81 -133q-32 -61 -51 -89q7 -5 22 -13q80 -44 112 -58t68 -14z" />
    <glyph glyph-name="uniFEE4" unicode="&#x645;" horiz-adv-x="641" arabic-form="medial" 
d="M642 4l2 -2l-3 -2q-102 0 -159 66q-19 -31 -54.5 -54.5t-82.5 -23.5q-36 0 -68.5 14t-110.5 57q-6 3 -9 5t-7.5 4.5t-9.5 4.5q-28 -41 -58 -57t-79 -16h-3l-2 2l2 2h4q34 0 57 6.5t45 27.5t39 49t46 81q22 42 35.5 65t29 46.5t28 34t28 17.5t32.5 7q45 0 77.5 -39
t47.5 -98.5t15 -131.5q27 -30 63 -47.5t95 -17.5zM345 -8q47 0 81 23t54 53q0 26 -2 51t-6 48.5t-10.5 45t-15 40t-19 33.5t-23.5 25.5t-28 16.5t-32 6q-40 0 -69 -35t-81 -133q-32 -61 -51 -89q7 -5 22 -13q80 -44 112 -58t68 -14z" />
    <glyph glyph-name="uniFEE6" unicode="&#x646;" horiz-adv-x="658" arabic-form="final" 
d="M305 384l-8 -12l-11 10l8 12zM659 4l2 -2l-3 -2q-38 0 -63 19.5t-35 47.5q10 -56 10 -136q-7 -27 -30 -56t-57.5 -53.5t-83 -40.5t-101.5 -16q-61 0 -106 15t-71.5 41.5t-39 61t-12.5 76.5q0 91 34 172l3 -1q-33 -81 -33 -171q0 -86 54 -138t171 -52q100 0 175.5 51.5
t92.5 108.5q0 57 -4 101.5t-15.5 84t-16.5 55.5t-24.5 56t-21.5 45l4 2q4 -10 15 -32.5t15 -32t12 -27.5t11.5 -30t8 -28t7.5 -32q6 -38 32.5 -62.5t69.5 -24.5z" />
    <glyph glyph-name="uniFEE7" unicode="&#x646;" horiz-adv-x="273" arabic-form="initial" 
d="M116 525l-10 9l8 12l11 -9zM0 0l-2 2l2 2q118 0 180 72q2 143 -50 293l4 2q52 -148 50 -295q-61 -76 -184 -76z" />
    <glyph glyph-name="uniFEE8" unicode="&#x646;" horiz-adv-x="280" arabic-form="medial" 
d="M117 458l-8 -12l-11 10l8 11zM280 4l2 -2l-2 -2q-42 0 -76 12t-46.5 22.5t-16.5 17.5q-4 -6 -21.5 -17.5t-51.5 -23t-68 -11.5l-2 2l2 2q34 0 67.5 11.5t50.5 22.5t21 17l-20 249h4l19 -249q46 -51 138 -51z" />
    <glyph glyph-name="uniFEEA" unicode="&#x647;" horiz-adv-x="475" arabic-form="final" 
d="M475 4l2 -2l-2 -2h-3q-62 0 -95.5 27t-36.5 77q-26 -22 -70.5 -41.5t-99.5 -19.5t-93 24t-47 49q0 61 40.5 110.5t107 82t155.5 51.5l-3 118l4 1l10 -370q1 -51 33.5 -78t94.5 -27h3zM34 116q10 -23 46.5 -46t90.5 -23t98 19t71 42l-7 248q-135 -28 -217 -90t-82 -150z
" />
    <glyph glyph-name="uniFEEB" unicode="&#x647;" horiz-adv-x="642" arabic-form="initial" 
d="M128 488q110 -55 204.5 -125.5t158 -152.5t63.5 -151q-14 -31 -56.5 -51t-93.5 -20q-96 0 -184 50q-87 -38 -209 -38h-11l-2 2l2 2h10q120 0 206 37q-60 35 -96.5 87t-36.5 113q0 45 19 82t54 58.5t77 21.5q26 0 49 -10q-75 51 -156 91zM86 241q0 -60 37 -111.5t98 -86.5
q72 32 110 84t38 110q0 33 -10.5 63t-28 52t-43 35t-54.5 13q-63 0 -105 -46t-42 -113zM404 -8q49 0 90.5 18.5t55.5 48.5q0 68 -61 147.5t-163 155.5q46 -50 46 -125q0 -58 -37.5 -111t-109.5 -86q86 -48 179 -48z" />
    <glyph glyph-name="uniFEEC" unicode="&#x647;" horiz-adv-x="466" arabic-form="medial" 
d="M468 2l-2 -2h-227q31 -5 58.5 -16.5t52 -31.5t38.5 -53t14 -76q-3 -11 -13 -22t-24.5 -20.5t-36 -16t-45.5 -6.5q-80 0 -132 69t-52 173h-99l-2 2l2 2h99q0 53 18 109.5t46 101t65.5 73t73.5 28.5q40 0 68 -36t28 -93q0 -64 -48.5 -118.5t-120.5 -64.5h237zM301 312
q-47 0 -93.5 -47t-75.5 -119t-29 -142h94q84 0 141 57t57 125q0 56 -27.5 91t-66.5 35zM399 -178q0 47 -17.5 82.5t-47 55.5t-63.5 30t-72 10h-8h-88q0 -103 51 -170.5t129 -67.5q45 0 76 19t40 41z" />
    <glyph glyph-name="uniFEEE" unicode="&#x648;" horiz-adv-x="507" arabic-form="final" 
d="M510 2l-3 -2h-105q-18 -95 -99 -156.5t-232 -79.5l-2 4q151 18 231.5 78.5t97.5 153.5h-98q-95 0 -152 41.5t-57 106.5q0 69 47.5 122.5t100.5 53.5q65 0 116.5 -75.5t51.5 -193.5q0 -26 -4 -51h104zM399 4q4 24 4 50q0 60 -14.5 111t-38 84.5t-52.5 52t-59 18.5
q-51 0 -97.5 -52t-46.5 -120q0 -63 56 -103.5t150 -40.5h98z" />
    <glyph glyph-name="uniFEF0" unicode="&#x649;" horiz-adv-x="697" arabic-form="final" 
d="M700 2l-3 -2q-43 0 -81 10.5t-103 39.5q50 -27 68 -52.5t18 -77.5q-12 -15 -36.5 -31.5t-61 -33t-90.5 -27.5t-113 -11q-61 0 -106 15t-71.5 42t-39 61t-12.5 77q0 90 34 172l3 -2q-33 -81 -33 -170q0 -87 54 -139t171 -52q110 0 189 32.5t108 67.5q0 33 -5.5 52t-27 40
t-61 39.5t-110.5 44.5l2 3q49 -18 104.5 -41t79 -32t55.5 -16t65 -7z" />
    <glyph glyph-name="uniFEF2" unicode="&#x64a;" horiz-adv-x="697" arabic-form="final" 
d="M700 2l-3 -2q-43 0 -81 10.5t-103 39.5q50 -27 68 -52.5t18 -77.5q-12 -15 -36.5 -31.5t-61 -33t-90.5 -27.5t-113 -11q-61 0 -106 15t-71.5 42t-39 61t-12.5 77q0 90 34 172l3 -2q-33 -81 -33 -170q0 -87 54 -139t171 -52q110 0 189 32.5t108 67.5q0 33 -5.5 52t-27 40
t-61 39.5t-110.5 44.5l2 3q49 -18 104.5 -41t79 -32t55.5 -16t65 -7zM359 -322l8 11l11 -9l-9 -11zM242 -326l9 11l10 -9l-8 -11z" />
    <glyph glyph-name="uniFEF3" unicode="&#x64a;" horiz-adv-x="273" arabic-form="initial" 
d="M0 0l-2 2l2 2q118 0 180 72q2 143 -50 293l4 2q52 -148 50 -295q-61 -76 -184 -76zM181 -151l-10 9l8 11l10 -9zM64 -155l-10 9l8 11l11 -9z" />
    <glyph glyph-name="uniFEF4" unicode="&#x64a;" horiz-adv-x="280" arabic-form="medial" 
d="M280 4l2 -2l-2 -2q-42 0 -76 12t-46.5 22.5t-16.5 17.5q-4 -6 -21.5 -17.5t-51.5 -23t-68 -11.5l-2 2l2 2q34 0 67.5 11.5t50.5 22.5t21 17l-20 249h4l19 -249q46 -51 138 -51zM196 -142l9 11l10 -9l-8 -11zM80 -146l8 11l10 -9l-8 -11z" />
    <glyph glyph-name=".notdef" horiz-adv-x="666" 
d="M654 1050l-197 -1400h-420l197 1400h420zM648 1044h-409l-196 -1388h409zM351 451q110 0 95 -115q-8 -53 -34.5 -82t-76.5 -36l-7 -45q-2 -11 -10.5 -17.5t-17.5 -6.5q-7 0 -12.5 3t-8 8.5t-1.5 12.5l12 84q53 3 74.5 20t27.5 57q4 33 -6.5 51t-45.5 18q-28 0 -53 -11
q-8 -3 -13 -3q-11 0 -17 6.5t-5 16.5q3 19 34 29t65 10zM295 120q15 0 24 -10t7 -25q-2 -10 -7.5 -18.5t-14 -13.5t-18.5 -5q-15 0 -23.5 10.5t-6.5 26.5q2 15 13 25t26 10z" />
    <glyph glyph-name=".null" 
 />
    <glyph glyph-name="nonmarkingreturn" horiz-adv-x="333" 
 />
    <glyph glyph-name="CR" unicode="&#xd;" horiz-adv-x="309" 
 />
    <glyph glyph-name="space" unicode=" " horiz-adv-x="309" 
 />
    <glyph glyph-name="exclam" unicode="!" horiz-adv-x="234" 
d="M106 189l68 491h4l-68 -491h-4zM84 -4q-8 0 -8 8q0 9 9 9q8 0 8 -9q0 -8 -9 -8z" />
    <glyph glyph-name="quotedbl" unicode="&#x22;" horiz-adv-x="317" 
d="M116 446l32 234h4l-32 -234h-4zM251 446l32 234h4l-33 -234h-3z" />
    <glyph glyph-name="numbersign" unicode="#" horiz-adv-x="480" 
d="M494 465h-87l-67 -249h83l-2 -3h-82l-58 -213h-4l58 213h-230l-58 -213h-4l58 213h-93l2 3h92l67 249h-88v4h89l52 193h4l-52 -193h230l52 193h4l-52 -193h86v-4zM106 216h230l67 249h-230z" />
    <glyph glyph-name="dollar" unicode="$" horiz-adv-x="528" 
d="M313 665q-50 0 -87.5 -13.5t-58.5 -37.5t-31.5 -51.5t-10.5 -58.5q0 -51 35 -83.5t119 -60.5q81 -28 120.5 -69t39.5 -102q0 -24 -5 -47.5t-15.5 -46t-28 -41t-41 -32.5t-56.5 -22.5t-73 -8.5l-19 -135h-4l19 135q-109 0 -179 76l2 3q70 -75 178 -75q58 0 102 17
t68.5 45.5t36 61.5t11.5 70q0 60 -39 99.5t-118 67.5q-58 19 -91.5 40t-49.5 47t-16 61q0 32 11 60t32.5 52.5t60 38.5t88.5 14h2l19 137h4l-19 -137q50 -1 85 -16.5t70 -46.5l-4 -3q-34 31 -70 46.5t-87 15.5z" />
    <glyph glyph-name="percent" unicode="%" horiz-adv-x="747" 
d="M662 690l-554 -698l4 -2l553 699zM209 366q-33 0 -57 14.5t-36.5 41t-12.5 63.5q0 30 8 60t24 59.5t46 47.5t70 18q25 0 45 -7.5t33.5 -22.5t20.5 -37t7 -50q0 -29 -7.5 -59.5t-23.5 -60.5t-46.5 -48.5t-70.5 -18.5zM209 369q40 0 69.5 18.5t45 48t22.5 59.5t7 59
q0 54 -26.5 83.5t-75.5 29.5q-39 0 -68.5 -18.5t-45 -47.5t-23 -58t-7.5 -58q0 -54 26.5 -85t75.5 -31zM515 -9q-51 0 -78.5 32t-27.5 88q0 29 7.5 59.5t24 59.5t46.5 47.5t70 18.5q51 0 78.5 -30.5t27.5 -86.5q0 -30 -7.5 -60.5t-23.5 -60.5t-46.5 -48.5t-70.5 -18.5z
M515 -5q32 0 57.5 12.5t41.5 32t26.5 44.5t14.5 48.5t4 46.5q0 55 -26 84t-76 29q-39 0 -69 -18t-45 -47t-22.5 -58.5t-7.5 -58.5q0 -54 26.5 -84.5t75.5 -30.5z" />
    <glyph glyph-name="ampersand" unicode="&#x26;" horiz-adv-x="724" 
d="M357 691q56 0 93.5 -34t37.5 -88q0 -62 -40.5 -105t-157.5 -103l221 -243q19 25 34 51t27 56t20 52t19 57l4 -1q-23 -72 -45 -121t-56 -96l105 -115l-4 -3l-104 115q-94 -122 -228 -122q-79 0 -126 44t-47 110q0 65 36.5 116.5t136.5 100.5q-44 47 -63.5 88t-19.5 85
q0 37 15.5 71.5t52.5 59.5t89 25zM357 687q-51 0 -87 -24.5t-51 -58t-15 -69.5q0 -43 19 -83.5t64 -88.5q117 61 157 103t40 103q0 53 -36 85.5t-91 32.5zM286 359q-100 -49 -136 -99.5t-36 -114.5t45.5 -107t123.5 -43q69 0 124 30t102 91z" />
    <glyph glyph-name="quotesingle" unicode="'" horiz-adv-x="183" 
d="M116 446l32 234h4l-32 -234h-4z" />
    <glyph glyph-name="parenleft" unicode="(" horiz-adv-x="329" 
d="M326 826l3 -2q-64 -78 -105 -139.5t-74 -133t-48 -149t-15 -169.5q0 -55 8 -103t26.5 -95.5t32.5 -76.5t43 -82l-4 -1q-28 52 -42.5 82t-33 77t-26.5 95.5t-8 103.5q0 93 15 171t48.5 149.5t75 133.5t104.5 139z" />
    <glyph glyph-name="parenright" unicode=")" horiz-adv-x="327" 
d="M160 825q28 -51 43 -82t32.5 -77.5t25.5 -95t8 -104.5q0 -93 -15 -171t-48 -149.5t-74 -132.5t-105 -139l-3 2q64 78 105 139.5t74 132.5t47.5 148.5t14.5 169.5q0 56 -8 104t-25.5 94.5t-32.5 77.5t-42 82z" />
    <glyph glyph-name="asterisk" unicode="*" horiz-adv-x="428" 
d="M418 613l-158 -49l76 -129l-4 -2l-75 129l-112 -129l-3 2l112 129l-146 49l2 4l145 -50l22 160h4l-22 -159l159 49v-4z" />
    <glyph glyph-name="plus" unicode="+" horiz-adv-x="480" 
d="M274 489l-22 -156h154l-2 -4h-153l-22 -156h-4l22 156h-153l1 4h153l22 156h4z" />
    <glyph glyph-name="comma" unicode="," horiz-adv-x="123" 
d="M25 13q9 0 9 -9q0 -3 -4 -11l-51 -104h-5l49 107q-6 2 -6 8q0 9 8 9z" />
    <glyph glyph-name="hyphen" unicode="-" horiz-adv-x="400" 
d="M92 310v4h232l-1 -4h-231z" />
    <glyph glyph-name="period" unicode="." horiz-adv-x="124" 
d="M26 -4q-8 0 -8 8q0 9 8 9q9 0 9 -9q0 -8 -9 -8z" />
    <glyph glyph-name="slash" unicode="/" horiz-adv-x="520" 
d="M449 794l4 -1l-356 -885l-4 1z" />
    <glyph glyph-name="zero" unicode="0" horiz-adv-x="537" 
d="M329 670q-63 0 -112.5 -41.5t-78 -110.5t-43 -148.5t-14.5 -163.5q0 -215 147 -215q62 0 112 41.5t78.5 110t43.5 147.5t15 162q0 218 -148 218zM329 666q144 0 144 -213q0 -46 -4.5 -92t-14 -91.5t-23.5 -85.5t-34.5 -75t-45 -60t-56 -39.5t-67.5 -14.5q-143 0 -143 211
q0 84 14 163t42.5 147t77 109t110.5 41z" />
    <glyph glyph-name="one" unicode="1" horiz-adv-x="386" 
d="M302 660l-92 -660h-4l92 656l-197 -117l-2 4l200 117h3z" />
    <glyph glyph-name="two" unicode="2" horiz-adv-x="463" 
d="M278 670q66 0 106 -40t40 -102q0 -24 -2 -43t-13 -43.5t-21 -43t-37.5 -52t-50.5 -59t-72 -76.5t-90.5 -91.5t-117.5 -115.5h339v-4h-344v4q66 65 106.5 105t85 85.5t69 72.5t51.5 57.5t39.5 50t25.5 41t17.5 39t7.5 35t3 38.5q0 39 -17 70.5t-49.5 49.5t-75.5 18
q-53 0 -94 -20t-84 -60l-4 2q44 41 86 61.5t96 20.5z" />
    <glyph glyph-name="three" unicode="3" horiz-adv-x="470" 
d="M273 670q45 0 77 -17t48 -47t16 -70q0 -44 -17.5 -83t-57 -67.5t-93.5 -32.5q64 -4 102 -40.5t38 -101.5q0 -39 -12.5 -76t-36.5 -70t-66.5 -53.5t-95.5 -20.5q-58 0 -97 19t-71 62l4 2q31 -42 69 -60.5t95 -18.5q53 0 94.5 20t65 53t35.5 69.5t12 73.5q0 45 -19.5 76.5
t-54.5 47.5t-83 16h-35l1 4h37q45 0 81 16.5t57.5 43t32.5 57.5t11 64q0 59 -36.5 95t-100.5 36q-91 0 -169 -70l-3 2q79 71 172 71z" />
    <glyph glyph-name="four" unicode="4" horiz-adv-x="494" 
d="M446 199l-1 -4h-94l-28 -195h-4l28 195h-301l1 5l273 470l4 -1l-273 -470h296l31 219h4l-31 -219h95z" />
    <glyph glyph-name="five" unicode="5" horiz-adv-x="470" 
d="M436 660v-4h-286l-40 -293q65 47 139 47q35 0 63 -10.5t46.5 -30.5t28.5 -49t10 -66q0 -36 -7 -71t-23.5 -70.5t-41.5 -62t-63.5 -43t-86.5 -16.5q-100 0 -154 72l4 3q50 -71 150 -71q47 0 85 16t62.5 42.5t41 61t23 69.5t6.5 70q0 73 -37.5 112.5t-106.5 39.5
q-73 0 -140 -47h-3l41 301h289z" />
    <glyph glyph-name="six" unicode="6" horiz-adv-x="506" 
d="M357 666q-69 0 -127 -52t-93.5 -136t-49.5 -187q98 132 214 132q42 0 73 -16.5t48 -51.5t17 -86q0 -34 -6 -69t-21 -73.5t-37.5 -68t-59 -48.5t-81.5 -19q-80 0 -118 57t-38 153q0 82 19 164t53 150.5t88.5 111.5t118.5 43q58 0 96 -36l-3 -2q-37 34 -93 34zM300 420
q-115 0 -214 -135q-4 -37 -4 -84q0 -95 36.5 -150.5t115.5 -55.5q45 0 81 19t58 48.5t36.5 67.5t20 72.5t5.5 66.5q0 74 -35.5 112.5t-99.5 38.5z" />
    <glyph glyph-name="seven" unicode="7" horiz-adv-x="435" 
d="M441 660v-4l-376 -661l-4 2l376 659h-337v4h341z" />
    <glyph glyph-name="eight" unicode="8" horiz-adv-x="523" 
d="M309 340q73 -31 103.5 -65.5t30.5 -90.5q0 -82 -61 -137.5t-155 -55.5q-54 0 -93 18t-59 51t-20 78q0 71 41 128t145 99q-58 24 -83 56.5t-25 82.5q0 70 56.5 118t129.5 48q41 0 73.5 -14.5t52 -45t19.5 -72.5q0 -61 -32.5 -108t-122.5 -90zM137 504q0 -28 7 -48.5
t21.5 -37.5t35.5 -29.5t52 -25.5l53 -22q89 43 121.5 90.5t32.5 106.5q0 41 -19 70.5t-50.5 43.5t-71.5 14q-72 0 -127 -46.5t-55 -115.5zM227 -5q92 0 152 54.5t60 134.5q0 61 -35.5 94.5t-120.5 68.5l-38 16q-55 -23 -93.5 -50t-57.5 -56.5t-27 -57.5t-8 -61
q0 -67 44.5 -105t123.5 -38z" />
    <glyph glyph-name="nine" unicode="9" horiz-adv-x="500" 
d="M301 670q150 0 150 -186q0 -61 -8.5 -115t-33.5 -113.5t-64 -108t-105 -91t-152 -67.5l-2 3q310 91 355 392q-80 -124 -208 -124q-65 0 -104 43.5t-39 118.5q0 32 7 65.5t24 66.5t40.5 58.5t60 41.5t79.5 16zM233 264q129 0 208 128q6 48 6 91q0 183 -146 183
q-43 0 -78.5 -15.5t-59 -41t-39.5 -58t-23 -65t-7 -64.5q0 -73 38 -115.5t101 -42.5z" />
    <glyph glyph-name="colon" unicode=":" horiz-adv-x="124" 
d="M86 423q-8 0 -8 9q0 8 8 8q9 0 9 -8q0 -9 -9 -9zM26 -4q-8 0 -8 8q0 9 8 9q9 0 9 -9q0 -8 -9 -8z" />
    <glyph glyph-name="semicolon" unicode=";" horiz-adv-x="124" 
d="M86 423q-8 0 -8 9q0 8 8 8q9 0 9 -8q0 -9 -9 -9zM25 13q9 0 9 -9q0 -3 -4 -11l-51 -104h-5l49 107q-6 2 -6 8q0 9 8 9z" />
    <glyph glyph-name="less" unicode="&#x3c;" horiz-adv-x="494" 
d="M436 489l2 -4l-335 -152l291 -156l-2 -4l-293 158v4z" />
    <glyph glyph-name="equal" unicode="=" horiz-adv-x="480" 
d="M106 404v4h311l-1 -4h-310zM84 254v4h310v-4h-310z" />
    <glyph glyph-name="greater" unicode="&#x3e;" horiz-adv-x="496" 
d="M123 489l295 -154v-4l-340 -158l-1 4l337 156l-293 152z" />
    <glyph glyph-name="question" unicode="?" horiz-adv-x="447" 
d="M296 690q56 0 88.5 -32.5t32.5 -77.5q0 -36 -12.5 -65.5t-32.5 -49.5t-44 -37t-48 -32.5t-43.5 -32.5t-32 -41.5t-11.5 -54.5q0 -26 10 -57l-4 -1q-10 32 -10 58q-1 31 11.5 55.5t32 41.5t43.5 33t48 33t44 36.5t32.5 48.5t12.5 65q0 44 -31 75t-86 31q-35 0 -64 -8.5
t-54 -25t-53 -43.5l-4 3q29 27 54.5 43.5t55.5 25.5t65 9zM189 -5q-8 0 -8 8q0 9 9 9q8 0 8 -9q0 -8 -9 -8z" />
    <glyph glyph-name="at" unicode="@" horiz-adv-x="1020" 
d="M585 691q84 0 150 -25.5t107 -70.5t62 -104t21 -128q0 -59 -12.5 -118t-36 -112t-64 -86t-92.5 -33q-50 0 -74.5 38t-19.5 107q-64 -143 -170 -143q-59 0 -95 42t-36 120q0 39 7.5 78.5t25.5 79t43.5 70t65.5 49.5t89 19q61 0 113 -32l-37 -266q-10 -75 13.5 -116.5
t74.5 -41.5t91 32.5t63 85t35 111t12 116.5q0 68 -21 126.5t-61.5 103t-105.5 69.5t-148 25q-98 0 -181 -33.5t-137.5 -87t-92.5 -122t-55 -136t-17 -131.5q0 -112 48.5 -195.5t132.5 -127t190 -43.5q100 0 183 31l1 -3q-85 -31 -184 -31q-107 0 -191.5 43.5t-134 128
t-49.5 197.5q0 64 17 132.5t55.5 137.5t93.5 123t138.5 87.5t182.5 33.5zM456 20q105 0 171 147l38 273q-49 30 -109 30q-48 0 -87.5 -18.5t-64.5 -49t-42.5 -69.5t-25 -78t-7.5 -77q0 -51 16.5 -87.5t45 -53.5t65.5 -17z" />
    <glyph glyph-name="A" unicode="A" horiz-adv-x="556" 
d="M482 0l-46 212h-329l-105 -212h-4l337 680h3l148 -680h-4zM109 216h326l-99 459z" />
    <glyph glyph-name="B" unicode="B" horiz-adv-x="582" 
d="M353 360q68 -4 111.5 -42.5t43.5 -105.5q0 -34 -8 -64.5t-27 -58t-48 -47t-73 -31t-100 -11.5h-159l95 680h136q94 0 143.5 -36t49.5 -104q0 -49 -23 -88.5t-60 -62.5t-81 -29zM192 676l-44 -314h187q29 0 59.5 11.5t57.5 32.5t44 56.5t17 77.5q0 44 -21 74.5t-63.5 46
t-103.5 15.5h-133zM253 4q68 0 118 16.5t78 46.5t41.5 66t13.5 79q0 45 -21.5 78.5t-60.5 50.5t-90 17h-185l-49 -354h155z" />
    <glyph glyph-name="C" unicode="C" horiz-adv-x="531" 
d="M403 690q89 0 145 -57l-2 -3q-29 28 -60.5 42t-82.5 14q-84 0 -147 -42.5t-96.5 -110.5t-49.5 -139t-16 -140q0 -125 56.5 -192t154.5 -67q90 0 169 59l2 -4q-79 -59 -171 -59q-100 0 -157.5 68t-57.5 194q0 57 9.5 114t33 116t58 104.5t89.5 74t123 28.5z" />
    <glyph glyph-name="D" unicode="D" horiz-adv-x="614" 
d="M294 680q42 0 76 -5.5t68.5 -22t57.5 -43t37.5 -71t14.5 -102.5q0 -64 -10.5 -124t-36 -117.5t-64 -100t-98 -68.5t-133.5 -26h-113l95 680h106zM294 676h-102l-94 -672h108q73 0 132 26t96.5 68t63 99t36 116t10.5 123q0 57 -14 101t-37 70t-57 42t-67.5 21.5t-74.5 5.5
z" />
    <glyph glyph-name="E" unicode="E" horiz-adv-x="495" 
d="M495 680l-1 -4h-302l-44 -313h260v-4h-260l-50 -355h312l-1 -4h-316l95 680h307z" />
    <glyph glyph-name="F" unicode="F" horiz-adv-x="470" 
d="M490 680l-1 -4h-297l-47 -328h258l-1 -4h-257l-48 -344h-4l95 680h302z" />
    <glyph glyph-name="G" unicode="G" horiz-adv-x="601" 
d="M404 690q84 0 151 -55l-2 -4q-67 55 -149 55q-62 0 -114.5 -26.5t-87.5 -70.5t-60 -100.5t-36.5 -115.5t-11.5 -117q0 -127 58.5 -194t164.5 -67q82 0 169 46l43 298h-150v4h154l-43 -304q-88 -48 -173 -48q-107 0 -167 68.5t-60 196.5q0 60 12 120t37 117t61 100.5
t89 70t115 26.5z" />
    <glyph glyph-name="H" unicode="H" horiz-adv-x="655" 
d="M97 0h-4l95 680h4l-44 -312h388l44 312h4l-95 -680h-4l51 364h-388z" />
    <glyph glyph-name="I" unicode="I" horiz-adv-x="263" 
d="M192 680l-95 -680h-4l95 680h4z" />
    <glyph glyph-name="J" unicode="J" horiz-adv-x="274" 
d="M210 680l-83 -595q-10 -73 -39 -110t-106 -67l-2 4q76 29 104.5 65.5t38.5 108.5l83 594h4z" />
    <glyph glyph-name="K" unicode="K" horiz-adv-x="505" 
d="M93 1l95 679h4l-95 -679h-4zM449 0l-298 366l377 314h6l-377 -314l298 -366h-6z" />
    <glyph glyph-name="L" unicode="L" horiz-adv-x="446" 
d="M192 680l-94 -676h288l-1 -4h-292l95 680h4z" />
    <glyph glyph-name="M" unicode="M" horiz-adv-x="758" 
d="M653 680l-16 -680h-4l7 353q2 42 3.5 113.5t3 125t2.5 84.5l-293 -591h-5l-126 591q-10 -39 -80 -316l-93 -360h-4l174 680h7l125 -590l292 590h7z" />
    <glyph glyph-name="N" unicode="N" horiz-adv-x="655" 
d="M584 680l-95 -680h-5l-292 675q-5 -34 -16 -113l-79 -562h-4l95 680h6l292 -675q1 8 8.5 60t10.5 78l75 537h4z" />
    <glyph glyph-name="O" unicode="O" horiz-adv-x="687" 
d="M403 690q52 0 92.5 -17.5t68.5 -50.5t43 -82t15 -111q0 -33 -3.5 -67.5t-11 -72t-21 -73t-30.5 -69.5t-42 -62t-55 -49t-69 -33t-84 -12q-103 0 -160 68t-57 193q0 53 10 109.5t33.5 116.5t58.5 106.5t90 76t122 29.5zM403 686q-66 0 -120.5 -29.5t-89 -75.5t-57.5 -105
t-33 -115.5t-10 -108.5q0 -123 56 -190t157 -67q59 0 107.5 20.5t81.5 55.5t57.5 78.5t38.5 93.5t20.5 96t6.5 90q0 123 -56.5 190t-158.5 67z" />
    <glyph glyph-name="P" unicode="P" horiz-adv-x="553" 
d="M312 680q107 0 159 -37.5t52 -118.5q0 -46 -13 -85t-42.5 -74t-84 -55t-129.5 -20h-116l-41 -290h-4l95 680h124zM255 294q74 0 127.5 19.5t82 54t41.5 73t13 83.5q0 80 -50.5 116t-156.5 36h-120l-54 -382h117z" />
    <glyph glyph-name="Q" unicode="Q" horiz-adv-x="674" 
d="M622 429q0 -42 -6 -86t-18.5 -92t-34.5 -90.5t-51.5 -78t-73 -59t-95.5 -29.5q54 -1 93 -6.5t73.5 -20t61.5 -38.5l-4 -3q-40 37 -96.5 51.5t-157.5 13.5h-7q-103 0 -160 68t-57 193q0 53 10 109.5t33.5 116.5t58.5 106.5t90 76t122 29.5q104 0 161.5 -68t57.5 -193z
M93 253q0 -123 56 -190.5t157 -67.5q59 0 107.5 20.5t81.5 56t57.5 79t38.5 93.5t20.5 95.5t6.5 89.5q0 123 -56.5 190t-158.5 67q-66 0 -120.5 -29.5t-89 -76t-57.5 -105.5t-33 -114.5t-10 -107.5z" />
    <glyph glyph-name="R" unicode="R" horiz-adv-x="562" 
d="M520 533q0 -80 -51 -138t-143 -62l146 -333h-5l-145 333h-4h-174l-47 -333h-4l95 680h139q193 0 193 -147zM316 337q94 0 147 57.5t53 138.5q0 69 -44.5 106t-144.5 37h-135l-47 -339h171z" />
    <glyph glyph-name="S" unicode="S" horiz-adv-x="540" 
d="M324 690q101 0 166 -65l-4 -2q-63 63 -162 63q-41 0 -75 -10.5t-56 -27t-37 -38.5t-21.5 -43.5t-6.5 -42.5q0 -41 16 -68t48.5 -46t93.5 -39q88 -30 127 -67t39 -106q0 -32 -13 -66.5t-38.5 -67t-72 -53t-105.5 -20.5q-65 0 -107.5 20t-78.5 58l2 4q36 -39 78 -58.5
t106 -19.5q47 0 86 14t64 35.5t42.5 49t25 53.5t7.5 50q0 68 -38.5 104.5t-124.5 65.5q-91 30 -126 62.5t-35 94.5q0 27 11 55t33.5 53.5t63 41.5t92.5 16z" />
    <glyph glyph-name="T" unicode="T" horiz-adv-x="472" 
d="M512 680l-1 -4h-214l-95 -676h-4l95 676h-215l1 4h433z" />
    <glyph glyph-name="U" unicode="U" horiz-adv-x="636" 
d="M575 680l-67 -474q-13 -99 -68.5 -157t-158.5 -58q-104 0 -143 58t-26 157l67 474h4l-67 -474q-13 -98 25.5 -154.5t139.5 -56.5q102 0 156 57t67 154l67 474h4z" />
    <glyph glyph-name="V" unicode="V" horiz-adv-x="524" 
d="M549 680l-319 -680h-5l-132 680h4l131 -676l317 676h4z" />
    <glyph glyph-name="W" unicode="W" horiz-adv-x="777" 
d="M792 680l-255 -680h-4l-86 676l-274 -676h-5l-65 680h4l64 -676l274 676h5l85 -675l253 675h4z" />
    <glyph glyph-name="X" unicode="X" horiz-adv-x="469" 
d="M477 680l-224 -310l160 -370h-4l-160 367l-261 -367h-4l262 370l-137 310h4l137 -308l223 308h4z" />
    <glyph glyph-name="Y" unicode="Y" horiz-adv-x="481" 
d="M515 680l-271 -409l-37 -271h-4l37 271l-156 409h4l154 -405l268 405h5z" />
    <glyph glyph-name="Z" unicode="Z" horiz-adv-x="505" 
d="M9 0v4l499 672h-368l1 4h372v-4l-499 -672h388v-4h-393z" />
    <glyph glyph-name="bracketleft" unicode="[" horiz-adv-x="310" 
d="M296 791v-4h-108l-126 -884h108v-4h-112l126 892h112z" />
    <glyph glyph-name="backslash" unicode="\" horiz-adv-x="520" 
d="M221 794l108 -885l-4 -1l-108 885z" />
    <glyph glyph-name="bracketright" unicode="]" horiz-adv-x="309" 
d="M276 791l-125 -892h-113v4h109l124 884h-108v4h113z" />
    <glyph glyph-name="asciicircum" unicode="^" horiz-adv-x="528" 
d="M339 818l128 -291h-5l-125 287l-207 -287h-4l210 291h3z" />
    <glyph glyph-name="underscore" unicode="_" horiz-adv-x="520" 
d="M4 -88v4h416v-4h-416z" />
    <glyph glyph-name="grave" unicode="`" horiz-adv-x="229" 
d="M100 748l156 -84l-2 -3l-156 82z" />
    <glyph glyph-name="a" unicode="a" horiz-adv-x="540" 
d="M336 527q69 0 127 -40l-51 -367q-10 -46 -3 -79.5t39 -46.5l-1 -3q-24 9 -34.5 30.5t-9 44.5t3.5 48q-33 -60 -80 -91.5t-98 -31.5q-49 0 -84.5 25t-53.5 68t-18 100q0 37 6 75t18.5 77t34 73t49.5 60.5t68 42t87 15.5zM336 523q-55 0 -100.5 -21.5t-74 -56.5t-48 -81
t-28 -91t-8.5 -89q0 -85 40 -137t112 -52q51 0 98 32t81 95l51 363q-55 38 -123 38z" />
    <glyph glyph-name="b" unicode="b" horiz-adv-x="562" 
d="M341 527q73 0 111 -48.5t38 -139.5q0 -42 -8 -87t-26 -92.5t-45 -84.5t-68.5 -60.5t-92.5 -23.5q-44 0 -78.5 8t-78.5 28l97 703l4 1l-42 -309q86 105 189 105zM341 523q-56 0 -101 -27t-89 -79l-54 -388q43 -19 76.5 -26.5t76.5 -7.5q50 0 91 23.5t67.5 60t44.5 83
t25.5 91.5t7.5 86q0 89 -36.5 136.5t-108.5 47.5z" />
    <glyph glyph-name="c" unicode="c" horiz-adv-x="469" 
d="M319 527q75 0 123 -50l-3 -2q-46 48 -120 48q-76 0 -132 -48.5t-82 -121.5t-26 -159q0 -96 44.5 -147.5t119.5 -51.5t140 51l2 -2q-65 -53 -142 -53t-122.5 53t-45.5 150q0 64 16 123t45.5 106.5t77 75.5t105.5 28z" />
    <glyph glyph-name="d" unicode="d" horiz-adv-x="566" 
d="M504 731l4 -1l-102 -730h-4l21 147q-41 -73 -87 -114.5t-111 -41.5q-70 0 -111 50.5t-41 141.5q0 42 8 87t26 91.5t44.5 83t68 59.5t92.5 23q59 0 96 -29.5t53 -71.5zM312 523q-50 0 -91 -22.5t-67 -58.5t-44 -82.5t-25.5 -90.5t-7.5 -86q0 -89 40 -138.5t108 -49.5
q27 0 52 8.5t44.5 22.5t38.5 35.5t33.5 43t29.5 49.5l38 266q-17 44 -54 73.5t-95 29.5z" />
    <glyph glyph-name="e" unicode="e" horiz-adv-x="508" 
d="M465 414q0 -85 -95.5 -136t-291.5 -60q-1 -14 -1 -27q0 -95 43 -145.5t119 -50.5q46 0 82 14t78 45l2 -4q-41 -30 -78.5 -44.5t-83.5 -14.5q-78 0 -122 51.5t-44 147.5q0 40 8 82.5t27 89t47 82.5t73 59.5t99 23.5q61 0 99.5 -29.5t38.5 -83.5zM327 523
q-49 0 -90.5 -19.5t-68.5 -50.5t-47 -72t-29.5 -80.5t-12.5 -79.5q194 10 288 60.5t94 132.5q0 52 -37 80.5t-97 28.5z" />
    <glyph glyph-name="f" unicode="f" horiz-adv-x="300" 
d="M305 730q-49 0 -82.5 -29t-41.5 -83l-14 -101h150l-1 -4h-149l-73 -512q-12 -86 -39 -124.5t-87 -67.5l-2 2q59 30 86 68t38 123l73 511h-93l1 4h92l14 101q6 37 24 63.5t44.5 39.5t59.5 13q62 0 111 -37l-3 -3q-48 36 -108 36z" />
    <glyph glyph-name="g" unicode="g" horiz-adv-x="550" 
d="M327 527q78 0 136 -40l-74 -497q-7 -52 -23.5 -88t-41 -56t-52 -29t-61.5 -9q-91 0 -160 46l2 4q68 -46 158 -46q70 0 115 40t60 137l20 141q-34 -64 -81 -97t-97 -33q-72 0 -112.5 54.5t-40.5 141.5q0 44 8 88.5t27.5 89t47.5 78t71.5 54.5t97.5 21zM327 523
q-53 0 -96 -20.5t-70.5 -54t-46.5 -77t-27 -87.5t-8 -88q0 -85 39.5 -138.5t109.5 -53.5q52 0 98.5 34.5t80.5 100.5l52 346q-55 38 -132 38z" />
    <glyph glyph-name="h" unicode="h" horiz-adv-x="580" 
d="M365 527q133 0 112 -159l-52 -368h-4l52 368q20 155 -108 155q-66 0 -120.5 -46t-106.5 -149l-46 -328h-4l102 730l4 1l-54 -394q49 100 104.5 145t120.5 45z" />
    <glyph glyph-name="i" unicode="i" horiz-adv-x="253" 
d="M188 693q-7 0 -7 7q0 8 8 8q7 0 7 -7q0 -8 -8 -8zM164 517l-72 -517h-4l72 517h4z" />
    <glyph glyph-name="j" unicode="j" horiz-adv-x="253" 
d="M188 693q-7 0 -7 7q0 8 8 8q7 0 7 -7q0 -8 -8 -8zM-34 -191l-2 3q59 29 86 67t38 123l72 515h4l-72 -516q-12 -86 -39 -124.5t-87 -67.5z" />
    <glyph glyph-name="k" unicode="k" horiz-adv-x="509" 
d="M194 731l-58 -419q46 104 105.5 159.5t125.5 55.5q50 0 77.5 -27.5t27.5 -74.5q0 -65 -48.5 -108.5t-140.5 -73.5l128 -243h-5l-128 245q93 30 141.5 73t48.5 106q0 46 -26.5 72.5t-74.5 26.5q-66 0 -125.5 -57t-107.5 -164l-42 -302h-4l102 730z" />
    <glyph glyph-name="l" unicode="l" horiz-adv-x="274" 
d="M188 731l-93 -666q-9 -70 50 -70q21 0 42 8v-4q-21 -8 -42 -8q-63 0 -53 74l92 665z" />
    <glyph glyph-name="m" unicode="m" horiz-adv-x="843" 
d="M644 527q57 0 81.5 -41.5t13.5 -117.5l-51 -368h-4l51 368q11 74 -12.5 115t-79.5 41q-120 0 -207 -192l-46 -332h-4l51 368q11 74 -12.5 114.5t-79.5 40.5q-118 0 -207 -195l-46 -328h-4l72 517h4l-25 -180q86 190 207 190q57 0 81.5 -41.5t13.5 -117.5l-3 -26
q84 185 206 185z" />
    <glyph glyph-name="n" unicode="n" horiz-adv-x="580" 
d="M368 527q64 0 91.5 -41.5t17.5 -117.5l-52 -368h-4l52 368q10 75 -16 115.5t-89 40.5q-68 0 -123 -46.5t-107 -149.5l-46 -328h-4l72 517h4l-24 -180q50 100 105.5 145t122.5 45z" />
    <glyph glyph-name="o" unicode="o" horiz-adv-x="559" 
d="M242 -9q-53 0 -90.5 23.5t-57.5 69t-20 108.5q0 43 7.5 86.5t26 89t45.5 80.5t70 57t95 22q79 0 123 -52t44 -147q0 -42 -7.5 -85.5t-25.5 -89.5t-44.5 -81.5t-69.5 -58t-96 -22.5zM242 -5q52 0 94.5 22.5t68.5 57.5t44 80.5t25 88.5t7 84q0 94 -42.5 144.5t-120.5 50.5
q-52 0 -94 -22t-68.5 -56.5t-44.5 -79.5t-25.5 -88t-7.5 -85q0 -94 43 -145.5t121 -51.5z" />
    <glyph glyph-name="p" unicode="p" horiz-adv-x="562" 
d="M62 -192l98 709h4l-13 -95q85 105 192 105q72 0 109.5 -48.5t37.5 -139.5q0 -42 -8 -87t-26.5 -92.5t-45 -84.5t-68 -60.5t-92.5 -23.5q-86 0 -154 34l-30 -216zM250 -5q50 0 91 23.5t67.5 60t44.5 83t25.5 91.5t7.5 86q0 89 -36.5 136.5t-106.5 47.5q-58 0 -103 -27
t-89 -79l-55 -388q68 -34 154 -34z" />
    <glyph glyph-name="q" unicode="q" horiz-adv-x="550" 
d="M364 -192l43 307q-71 -124 -179 -124q-73 0 -114 53t-41 140q0 45 8.5 90.5t28 91.5t48.5 81.5t75 57.5t103 22q72 0 127 -40l-95 -678zM228 -5q107 0 180 127l51 363q-52 39 -123 39q-56 0 -101 -22t-74 -57t-48.5 -81t-27.5 -91t-8 -89q0 -85 40 -137t111 -52z" />
    <glyph glyph-name="r" unicode="r" horiz-adv-x="361" 
d="M328 527q23 0 46 -7l-2 -3q-20 6 -44 6q-64 0 -107.5 -39.5t-79.5 -137.5l-49 -346h-4l72 517h4l-22 -159q35 93 78.5 131t107.5 38z" />
    <glyph glyph-name="s" unicode="s" horiz-adv-x="446" 
d="M254 527q89 0 144 -52l-3 -2q-54 50 -141 50q-67 0 -113 -33.5t-46 -90.5q0 -43 29 -69.5t105 -51.5q77 -25 107.5 -55t30.5 -82q0 -69 -50.5 -109.5t-128.5 -40.5q-56 0 -94.5 17t-70.5 49l2 3q33 -32 70 -48.5t93 -16.5q75 0 125 39t50 107q0 51 -29.5 79.5
t-105.5 53.5q-78 25 -108 53t-30 72q0 58 47.5 93t116.5 35z" />
    <glyph glyph-name="t" unicode="t" horiz-adv-x="322" 
d="M156 513l-55 -399q-9 -57 13 -88t69.5 -31t96.5 28l2 -4q-50 -28 -99 -28t-72 32t-14 90l55 400h-87l1 4h87l19 134h4l-19 -134h145v-4h-146z" />
    <glyph glyph-name="u" unicode="u" horiz-adv-x="574" 
d="M222 -9q-66 0 -97.5 41t-21.5 118l51 367h4l-51 -367q-10 -75 20.5 -115t94.5 -40q66 0 120.5 46t91.5 133l48 343h4l-72 -517h-4l24 167q-37 -85 -92 -130.5t-120 -45.5z" />
    <glyph glyph-name="v" unicode="v" horiz-adv-x="436" 
d="M443 517l-253 -517h-5l-120 517h5l118 -513l251 513h4z" />
    <glyph glyph-name="w" unicode="w" horiz-adv-x="673" 
d="M670 517l-213 -517h-5l-80 512l-223 -512h-5l-69 517h4l68 -513l223 513h5l80 -513l211 513h4z" />
    <glyph glyph-name="x" unicode="x" horiz-adv-x="425" 
d="M410 517l-194 -239l149 -278h-5l-147 276l-220 -276h-5l223 278l-124 239h4l123 -237l191 237h5z" />
    <glyph glyph-name="y" unicode="y" horiz-adv-x="435" 
d="M442 517l-250 -517q-24 -48 -39.5 -74t-37.5 -51t-49.5 -39t-67.5 -26v4q31 9 55 21t41.5 25t33.5 35.5t28.5 44.5t31.5 60h-3l-120 517h5l118 -515l250 515h4z" />
    <glyph glyph-name="z" unicode="z" horiz-adv-x="400" 
d="M401 517v-3l-401 -510h319l-1 -4h-324v4l402 509h-300v4h305z" />
    <glyph glyph-name="braceleft" unicode="{" horiz-adv-x="326" 
d="M309 809v-4q-78 0 -91 -92l-40 -285q-5 -37 -28 -57.5t-59 -21.5q36 -1 52.5 -21.5t11.5 -57.5l-40 -285q-12 -93 65 -93v-3q-81 0 -69 95l40 287q6 37 -12 56.5t-53 19.5l1 4q35 0 58.5 19.5t28.5 57.5l40 286q13 95 95 95z" />
    <glyph glyph-name="bar" unicode="|" horiz-adv-x="419" 
d="M288 800l-125 -897h-4l125 897h4z" />
    <glyph glyph-name="braceright" unicode="}" horiz-adv-x="325" 
d="M42 -111v3q79 0 91 93l40 285q5 37 28 57.5t59 21.5q-35 1 -52 21.5t-12 57.5l40 285q13 93 -65 93v3q82 0 69 -95l-40 -287q-6 -37 12 -56.5t53 -19.5l-1 -4q-35 0 -58 -19.5t-29 -57.5l-40 -286q-13 -95 -95 -95z" />
    <glyph glyph-name="asciitilde" unicode="~" horiz-adv-x="454" 
d="M304 290q-24 0 -67.5 27.5t-67.5 27.5q-40 0 -75 -44l-3 2q35 46 78 46q25 0 68.5 -27.5t66.5 -27.5q39 0 74 44l4 -2q-36 -46 -78 -46z" />
    <glyph glyph-name="uni00A0" unicode="&#xa0;" horiz-adv-x="309" 
 />
    <glyph glyph-name="exclamdown" unicode="&#xa1;" horiz-adv-x="234" 
d="M144 422q-8 0 -8 9q0 8 8 8q9 0 9 -8q0 -9 -9 -9zM120 254l-63 -442h-4l63 442h4z" />
    <glyph glyph-name="cent" unicode="&#xa2;" horiz-adv-x="469" 
d="M319 527q76 0 123 -50l-3 -2q-46 48 -120 48q-76 0 -132 -48.5t-82 -121.5t-26 -159q0 -96 44.5 -147.5t119.5 -51.5t140 51l2 -2q-65 -53 -142 -53h-7l-19 -135h-4l19 135q-72 4 -114.5 57t-42.5 146q0 85 26 158.5t81 123t130 51.5l20 145h4l-20 -145h3z" />
    <glyph glyph-name="sterling" unicode="&#xa3;" horiz-adv-x="493" 
d="M352 670q83 0 126 -61l-4 -3q-41 60 -122 60q-69 0 -111.5 -44t-52.5 -116l-21 -149h209v-4h-210l-32 -233q-7 -48 -28 -74t-65 -42h347v-4h-355v4q46 17 68 42t29 74l32 233h-57v4h58l21 149q6 48 26.5 84t57 58t84.5 22z" />
    <glyph glyph-name="currency" unicode="&#xa4;" horiz-adv-x="560" 
d="M445 339q0 -77 -52 -126l79 -77l-4 -3l-78 77q-46 -41 -111 -41q-64 0 -109 40l-78 -76l-4 3l79 76q-54 49 -54 127q0 75 50 125l-75 76l4 3l73 -77q47 45 114 45q69 0 115 -45l74 77l4 -3l-75 -77q48 -49 48 -124zM117 339q0 -73 47 -119.5t115 -46.5q69 0 115.5 46.5
t46.5 119.5q0 72 -45.5 120t-116.5 48q-70 0 -116 -48t-46 -120z" />
    <glyph glyph-name="yen" unicode="&#xa5;" horiz-adv-x="471" 
d="M502 660l-255 -340h131v-4h-132l-18 -130h131v-4h-132l-25 -182h-4l25 182h-129l1 4h129l17 130h-128l1 4h127l-160 340h5l158 -338l253 338h5z" />
    <glyph glyph-name="brokenbar" unicode="&#xa6;" horiz-adv-x="420" 
d="M289 800l-51 -357h-4l51 357h4zM213 262l-49 -359h-4l49 359h4z" />
    <glyph glyph-name="section" unicode="&#xa7;" horiz-adv-x="530" 
d="M329 666q-72 0 -111.5 -35t-39.5 -83q0 -43 27.5 -69.5t99.5 -52.5q65 -24 93.5 -54t28.5 -74q0 -45 -23.5 -79t-81.5 -64q50 -31 50 -87q0 -55 -40.5 -91.5t-114.5 -36.5q-86 0 -142 42l2 3q53 -41 140 -41q73 0 112 35.5t39 88.5q0 28 -11.5 48t-38 37t-73.5 32
q-47 17 -74 33t-41 38.5t-14 52.5q0 41 24.5 75t89.5 72q-30 18 -43 39.5t-13 52.5q0 49 41 85.5t114 36.5q74 0 134 -40l-2 -4q-58 40 -132 40zM423 298q0 42 -27.5 71.5t-92.5 53.5q-43 15 -69 30q-66 -38 -90 -70.5t-24 -73.5q0 -43 29.5 -70t98.5 -51q44 -15 71 -31
q58 31 81 64t23 77z" />
    <glyph glyph-name="dieresis" unicode="&#xa8;" horiz-adv-x="225" 
d="M97 678q-7 0 -7 8q0 7 8 7q7 0 7 -7q0 -8 -8 -8zM248 678q-7 0 -7 8q0 7 7 7q8 0 8 -7q0 -8 -8 -8z" />
    <glyph glyph-name="copyright" unicode="&#xa9;" horiz-adv-x="810" 
d="M430 712q77 0 138 -34.5t95.5 -98t34.5 -144.5q0 -60 -20 -111.5t-55.5 -88t-85 -57t-107.5 -20.5q-77 0 -138 34.5t-95.5 98t-34.5 144.5q0 121 75.5 199t192.5 78zM430 708q-115 0 -189.5 -76.5t-74.5 -196.5q0 -121 74 -197t190 -76q115 0 189.5 76.5t74.5 196.5
q0 121 -74 197t-190 76zM428 602q46 0 78 -26l-2 -3q-32 26 -76 26q-47 0 -84.5 -40.5t-37.5 -121.5q0 -80 33.5 -121.5t86.5 -41.5t89 30l2 -3q-35 -31 -91 -31q-54 0 -89 43t-35 124q0 83 38.5 124t87.5 41z" />
    <glyph glyph-name="ordfeminine" unicode="&#xaa;" horiz-adv-x="495" 
d="M221 278q-34 0 -58 12.5t-36 34.5t-12 51q0 64 47 100.5t128 36.5h101l7 51q8 57 -14 84.5t-80 27.5q-53 0 -121 -25v4q66 25 121 25q60 0 83 -29t15 -87l-27 -196v-5q-3 -19 -3.5 -28.5t1 -22t9.5 -20t23 -11.5l-2 -3q-15 4 -23.5 12t-10.5 21.5t-1.5 22.5t2.5 28
q-56 -84 -149 -84zM221 282q50 0 85.5 21.5t64.5 65.5l20 141h-101q-53 0 -91.5 -16t-59 -46t-20.5 -72q0 -43 26.5 -68.5t75.5 -25.5zM56 0l1 4h310v-4h-311z" />
    <glyph glyph-name="guillemotleft" unicode="&#xab;" horiz-adv-x="520" 
d="M276 495l3 -2l-172 -205l116 -204l-3 -2l-117 204v4zM450 495l4 -2l-172 -205l115 -204l-3 -2l-117 204l1 4z" />
    <glyph glyph-name="logicalnot" unicode="&#xac;" horiz-adv-x="490" 
d="M414 323l-16 -110h-4l15 106h-316l1 4h320z" />
    <glyph glyph-name="uni00AD" unicode="&#xad;" horiz-adv-x="400" 
d="M92 310v4h232l-1 -4h-231z" />
    <glyph glyph-name="registered" unicode="&#xae;" horiz-adv-x="634" 
d="M351 710q93 0 151 -59t58 -147q0 -91 -55.5 -151.5t-153.5 -60.5q-93 0 -150.5 59t-57.5 148q0 91 55 151t153 60zM351 296q97 0 151 59.5t54 148.5q0 87 -56.5 145t-148.5 58q-97 0 -151 -59.5t-54 -148.5q0 -87 56.5 -145t148.5 -58zM432 565q0 -33 -19 -51.5
t-46 -19.5l74 -123h-4l-74 123h-75v-122h-4v267h56q92 0 92 -74zM288 635v-137h75q27 0 46 17.5t19 49.5q0 70 -88 70h-52z" />
    <glyph glyph-name="macron" unicode="&#xaf;" horiz-adv-x="252" 
d="M283 689h-192v3h192v-3z" />
    <glyph glyph-name="degree" unicode="&#xb0;" horiz-adv-x="521" 
d="M243 420q-49 0 -79 31t-30 83q0 64 42.5 110t103.5 46q34 0 59 -14t37.5 -39t12.5 -58q0 -67 -40 -113t-106 -46zM243 424q64 0 103 44.5t39 110.5q0 49 -27.5 78t-77.5 29q-60 0 -101 -44.5t-41 -107.5q0 -51 28.5 -80.5t76.5 -29.5z" />
    <glyph glyph-name="plusminus" unicode="&#xb1;" horiz-adv-x="482" 
d="M275 489l-21 -156h153l-1 -4h-153l-22 -156h-4l22 156h-153l1 4h153l21 156h4zM48 0l1 4h310l-1 -4h-310z" />
    <glyph glyph-name="uni00B2" unicode="&#xb2;" horiz-adv-x="400" 
d="M265 734q45 0 68 -23.5t23 -62.5q0 -23 -6.5 -45t-23 -47.5t-31 -44.5t-45.5 -50t-51 -49.5t-61 -56.5q-24 -21 -36 -33h220l-1 -4h-225l1 4q13 12 38 35q42 39 62 57.5t50.5 49.5t45 50t30.5 43.5t22 46.5t6 44q0 25 -9 43t-28.5 29t-49.5 11q-60 0 -113 -53l-3 2
q54 54 117 54z" />
    <glyph glyph-name="uni00B3" unicode="&#xb3;" horiz-adv-x="400" 
d="M269 735q43 0 67 -23t24 -61q0 -35 -17 -61t-40.5 -38t-50.5 -15q42 -2 66.5 -23.5t24.5 -62.5q0 -59 -37.5 -99t-100.5 -40q-37 0 -62 12t-45 40l3 1q10 -13 20.5 -22.5t23.5 -15.5t27.5 -8.5t32.5 -2.5q62 0 98 39t36 96q0 28 -12 46.5t-34.5 28t-54.5 9.5h-23l1 4h23
q46 0 81.5 30t35.5 82q0 37 -23 58.5t-64 21.5q-61 0 -111 -44l-2 4q51 44 113 44z" />
    <glyph glyph-name="acute" unicode="&#xb4;" horiz-adv-x="230" 
d="M266 748l2 -5l-180 -82l-1 3z" />
    <glyph glyph-name="uni00B5" unicode="&#xb5;" horiz-adv-x="581" 
d="M437 161q-12 -78 4 -161h-4q-15 74 -6 145q-38 -70 -93 -112t-120 -42q-54 0 -82.5 26.5t-29.5 77.5q-5 -30 -11.5 -79.5t-10.5 -73.5l-19 -132h-4l99 707h4l-53 -382q-5 -38 1 -65.5t21.5 -43.5t36.5 -23.5t48 -7.5q65 0 119.5 42.5t93.5 114.5l51 365h4z" />
    <glyph glyph-name="paragraph" unicode="&#xb6;" horiz-adv-x="683" 
d="M400 680h154l-122 -870l-4 -1l122 867h-147l-122 -866l-4 -1l70 502q-96 1 -141.5 44t-45.5 113q0 97 66.5 154.5t173.5 57.5z" />
    <glyph glyph-name="periodcentered" unicode="&#xb7;" horiz-adv-x="124" 
d="M72 320q-9 0 -9 9q0 8 9 8t9 -8q0 -9 -9 -9z" />
    <glyph glyph-name="cedilla" unicode="&#xb8;" horiz-adv-x="194" 
d="M39 -5l-16 -77q43 -1 63.5 -14t20.5 -43q0 -27 -20 -45.5t-58 -18.5q-37 0 -61 16l2 4q22 -16 58.5 -16t55.5 17t19 43q0 28 -20 40.5t-64 12.5l17 81h3z" />
    <glyph glyph-name="uni00B9" unicode="&#xb9;" horiz-adv-x="400" 
d="M297 728l-57 -410h-4l57 405l-127 -71l-2 3l129 73h4z" />
    <glyph glyph-name="ordmasculine" unicode="&#xba;" horiz-adv-x="500" 
d="M310 680q64 0 100 -39.5t36 -111.5q0 -67 -22 -123.5t-67 -92t-105 -35.5q-65 0 -100.5 40t-35.5 113q0 67 21.5 122.5t66.5 91t106 35.5zM310 676q-60 0 -104 -35t-65 -89.5t-21 -120.5q0 -71 34.5 -110t97.5 -39q45 0 81.5 20t60 55t36 79t12.5 93q0 47 -15.5 80
t-45.5 50t-71 17zM59 0v4h310v-4h-310z" />
    <glyph glyph-name="guillemotright" unicode="&#xbb;" horiz-adv-x="519" 
d="M135 495l115 -205v-4l-173 -204l-3 2l172 204l-114 205zM310 495l115 -205v-4l-173 -204l-3 2l171 204l-113 205z" />
    <glyph glyph-name="onequarter" unicode="&#xbc;" horiz-adv-x="874" 
d="M704 734l4 -1l-516 -800l-4 1zM229 271l57 405l-127 -72l-2 4l130 72h3l-57 -409h-4zM785 124l-1 -4h-60l-17 -120h-4l17 120h-196v5l178 291l4 -1l-177 -291h191l19 135h4l-19 -135h61z" />
    <glyph glyph-name="onehalf" unicode="&#xbd;" horiz-adv-x="874" 
d="M704 734l4 -1l-516 -800l-4 1zM290 680l-57 -409h-4l57 405l-127 -72l-2 4l130 72h3zM694 416q45 0 68 -23.5t23 -62.5q0 -23 -6.5 -45.5t-23 -47.5t-31 -44t-45.5 -50t-50.5 -49.5t-61.5 -56.5q-23 -22 -36 -33h220l-1 -4h-224v4q13 12 38 35q42 39 62 57.5t51 49
t45 49.5t30.5 44t22.5 46.5t6 44.5q0 38 -22 60t-65 22q-61 0 -114 -52l-3 2q55 54 117 54z" />
    <glyph glyph-name="threequarters" unicode="&#xbe;" horiz-adv-x="874" 
d="M704 734l4 -1l-516 -800l-4 1zM337 404q0 -59 -37.5 -99t-100.5 -40q-38 0 -63 12t-45 39l4 2q19 -27 43 -38t61 -11q61 0 97.5 38.5t36.5 96.5q0 41 -27 62.5t-75 21.5h-23l1 4h24q46 0 81 30t35 82q0 24 -10 42t-29.5 27.5t-47.5 9.5q-61 0 -111 -43l-2 3q52 44 113 44
q43 0 67 -22.5t24 -60.5q0 -27 -9.5 -48.5t-25.5 -35t-34.5 -21t-37.5 -9.5q41 -2 66 -24t25 -62zM785 124l-1 -4h-60l-17 -120h-4l17 120h-196v5l178 291l3 -1l-176 -291h191l19 135h4l-19 -135h61z" />
    <glyph glyph-name="questiondown" unicode="&#xbf;" horiz-adv-x="447" 
d="M253 501q8 0 8 -8q0 -9 -8 -9q-9 0 -9 8q0 9 9 9zM147 -194q-38 0 -66.5 16t-42 40t-13.5 53q0 37 12.5 66.5t32.5 49.5t44 37t48 32.5t44 32.5t32 41.5t12 53.5q0 27 -10 58h4q10 -31 10 -58q0 -30 -12 -54.5t-32 -41.5t-44 -33t-48 -33t-44 -36.5t-32.5 -48.5
t-12.5 -66q0 -44 31.5 -75t86.5 -31q34 0 63 9t54 25t54 43l3 -2q-43 -41 -83 -59.5t-91 -18.5z" />
    <glyph glyph-name="Agrave" unicode="&#xc0;" horiz-adv-x="556" 
d="M435 774l-2 -4l-158 70l2 4zM482 0l-46 212h-329l-105 -212h-4l337 680h3l148 -680h-4zM109 216h326l-99 459z" />
    <glyph glyph-name="Aacute" unicode="&#xc1;" horiz-adv-x="556" 
d="M443 840l-176 -70l-2 4l176 70zM482 0l-46 212h-329l-105 -212h-4l337 680h3l148 -680h-4zM109 216h326l-99 459z" />
    <glyph glyph-name="Acircumflex" unicode="&#xc2;" horiz-adv-x="556" 
d="M358 848l-118 -78l-3 2l120 80h3l98 -80l-2 -2zM482 0l-46 212h-329l-105 -212h-4l337 680h3l148 -680h-4zM109 216h326l-99 459z" />
    <glyph glyph-name="Atilde" unicode="&#xc3;" horiz-adv-x="556" 
d="M304 855q-31 0 -67 -35l-3 2q21 20 36.5 28.5t33.5 8.5q19 0 53 -22t56 -22q19 0 33.5 8.5t33.5 28.5l3 -1q-35 -40 -70 -40q-23 0 -57 22t-52 22zM482 0l-46 212h-329l-105 -212h-4l337 680h3l148 -680h-4zM109 216h326l-99 459z" />
    <glyph glyph-name="Adieresis" unicode="&#xc4;" horiz-adv-x="556" 
d="M280 804q-7 0 -7 8q0 7 7 7q8 0 8 -7q0 -8 -8 -8zM431 804q-7 0 -7 8q0 7 7 7t7 -7q0 -8 -7 -8zM482 0l-46 212h-329l-105 -212h-4l337 680h3l148 -680h-4zM109 216h326l-99 459z" />
    <glyph glyph-name="Aring" unicode="&#xc5;" horiz-adv-x="556" 
d="M353 780q-30 0 -45 17.5t-12 46.5q3 19 12.5 34t25.5 23.5t36 8.5q31 0 45 -17.5t11 -46.5q-4 -30 -23.5 -48t-49.5 -18zM300 844q-3 -28 11 -44.5t42 -16.5q19 0 34 8.5t24 22.5t11 32q3 28 -10 44t-42 16q-28 0 -47 -17t-23 -45zM482 0l-46 212h-329l-105 -212h-4
l337 680h3l148 -680h-4zM109 216h326l-99 459z" />
    <glyph glyph-name="AE" unicode="&#xc6;" horiz-adv-x="751" 
d="M705 676h-357l39 -313h265l-1 -4h-264l44 -355h235l-1 -4h-238l-25 204h-306l-108 -204h-4l358 680h363v-4zM402 208l-58 468l-246 -468h304z" />
    <glyph glyph-name="Ccedilla" unicode="&#xc7;" horiz-adv-x="531" 
d="M403 686q-68 0 -122.5 -29t-88.5 -74t-56.5 -104t-32 -115t-9.5 -110q0 -125 56.5 -192t154.5 -67q90 0 169 59l2 -4q-79 -59 -170 -59l-15 -73q42 -1 63 -14t21 -43q0 -18 -8.5 -32t-26.5 -23t-44 -9q-36 0 -61 16l2 4q22 -16 59 -16t56 17t19 43q0 28 -20.5 40.5
t-63.5 12.5l15 77q-99 1 -155.5 69t-56.5 193q0 57 9.5 114t33 116t58 104.5t89.5 74t123 28.5q89 0 145 -57l-2 -3q-29 28 -60.5 42t-82.5 14z" />
    <glyph glyph-name="Egrave" unicode="&#xc8;" horiz-adv-x="495" 
d="M284 844l157 -70l-2 -4l-157 70zM495 680l-1 -4h-302l-44 -313h260v-4h-260l-50 -355h312l-1 -4h-316l95 680h307z" />
    <glyph glyph-name="Eacute" unicode="&#xc9;" horiz-adv-x="495" 
d="M447 844l2 -4l-176 -70l-2 4zM495 680l-1 -4h-302l-44 -313h260v-4h-260l-50 -355h312l-1 -4h-316l95 680h307z" />
    <glyph glyph-name="Ecircumflex" unicode="&#xca;" horiz-adv-x="495" 
d="M246 770l-3 2l120 80h3l99 -80l-3 -2l-98 78zM495 680l-1 -4h-302l-44 -313h260v-4h-260l-50 -355h312v-4h-317l95 680h307z" />
    </font>
</defs>
</svg>
