<svg width="31" height="31" viewBox="0 0 31 31" fill="none" xmlns="http://www.w3.org/2000/svg">
<path fill-rule="evenodd" clip-rule="evenodd" d="M12.7608 5.41992C14.1468 5.41992 15.2703 6.53466 15.2703 7.9098C15.2703 9.28494 14.1468 10.3997 12.7608 10.3997C11.3749 10.3997 10.2514 9.28494 10.2514 7.9098C10.2514 6.53466 11.3749 5.41992 12.7608 5.41992ZM18.5042 18.2683L22.2891 26.4049H22.418L19.2179 17.9561L18.5042 18.2683ZM12.7608 21.1328L9.9398 26.012C9.71571 26.3988 9.21843 26.5344 8.82858 26.312C8.4372 26.0912 8.30213 25.5963 8.52621 25.208L11.9474 19.2932V13.8916L10.4402 15.02V18.4861C10.4402 18.9323 10.0749 19.2962 9.62362 19.2962C9.17391 19.2962 8.80862 18.9338 8.80862 18.4861V14.7444C8.80862 14.4292 8.82858 14.2023 9.13401 13.9738L12.2328 11.6545C12.5536 11.4139 12.968 11.3895 13.2857 11.653L18.6853 16.1241C19.0306 16.4104 19.0751 16.9206 18.7866 17.2632C18.498 17.6058 17.9839 17.65 17.6385 17.3637L13.5774 14.0012V19.2947L16.9985 25.2095C17.2226 25.5963 17.086 26.0912 16.6961 26.3136C16.3063 26.5344 15.8075 26.4004 15.5834 26.0136L12.7608 21.1328Z" fill="#686B6F"/>
</svg>
