<svg width="31" height="30" viewBox="0 0 31 30" fill="none" xmlns="http://www.w3.org/2000/svg">
<path fill-rule="evenodd" clip-rule="evenodd" d="M14.5418 17.1726V23.8201C14.5418 24.8804 13.0341 24.8804 13.0341 23.8201C13.0341 21.1469 13.0273 18.2518 13.0219 15.7106L14.6863 15.7077C15.9609 15.7062 15.9554 13.6524 14.6822 13.6538L13.0191 13.6567L13.0178 12.5732L12.6552 14.0454H13.0205V15.3233L11.9054 15.3262C11.3261 15.3277 10.9812 14.9853 11.2238 14.3689C11.6328 13.3347 12.0431 11.745 12.452 10.7108C12.5666 10.4207 12.7928 10.3076 13.0164 10.3207L17.3132 10.3192C17.6022 10.3192 17.8162 10.3917 17.9321 10.7108C18.3328 11.8175 19.0962 14.3733 19.4247 15.4524C19.7396 16.2487 18.5905 16.7549 18.2947 15.8774L17.3691 12.579V18.8711H15.8614V17.1726H14.5418ZM16.971 23.1979C16.971 22.0665 17.2218 21.2499 17.3254 20.1881H15.9036C16.0072 21.2513 16.2581 22.0752 16.2581 23.1979V24.2393C16.2581 24.7411 16.971 24.7397 16.971 24.2393V23.1979ZM15.8723 19.7487H17.3582C17.365 19.608 17.3691 19.4629 17.3691 19.3121H15.8614C15.8614 19.4629 15.8641 19.608 15.8723 19.7487ZM13.2918 14.044V14.9128L14.0892 14.0425L13.2918 14.044ZM14.4709 14.0425L13.2972 15.3233L13.9134 15.3219L15.0053 14.1296C14.918 14.0745 14.8117 14.0411 14.6836 14.0425H14.4709ZM15.1948 14.3355L14.2923 15.3204H14.6849C15.2329 15.319 15.402 14.7127 15.1948 14.3355Z" fill="#686B6F"/>
<path fill-rule="evenodd" clip-rule="evenodd" d="M15.19 9.38737C16.425 9.38737 17.4324 8.31548 17.4324 7.00136C17.4324 5.68725 16.425 4.61536 15.19 4.61536C13.9549 4.61536 12.9475 5.68725 12.9475 7.00136C12.9475 8.31548 13.9549 9.38737 15.19 9.38737Z" fill="#686B6F"/>
</svg>
