<svg width="30" height="31" viewBox="0 0 30 31" fill="none" xmlns="http://www.w3.org/2000/svg">
<path fill-rule="evenodd" clip-rule="evenodd" d="M17.1478 24.4215C16.2554 24.1636 16.6596 22.8434 17.552 23.1013C18.9683 23.5129 20.3901 23.1587 20.8521 21.6581C21.1148 20.8029 20.9236 20.2737 20.8961 19.4719C20.8728 18.7784 21.002 18.0514 21.7995 17.5704C21.893 17.5143 22.4623 17.1789 22.4596 17.1735C21.9948 16.4025 21.5465 15.6341 21.0543 14.8778C20.8178 14.5143 20.8838 14.1816 20.9731 13.7326C21.156 12.8212 20.9319 12.0154 20.4754 11.3206C19.0041 9.0863 16.0904 8.00524 13.4324 8.32728C8.65418 8.90723 5.41871 14.3967 8.86456 19.814C9.65658 21.0594 10.483 22.357 10.8652 24.0607C11.0619 24.9467 9.67721 25.2367 9.4792 24.352C9.14644 22.8714 8.38879 21.6795 7.6614 20.5356C3.63803 14.211 7.49364 7.75669 13.1272 6.9763C16.4754 6.51261 19.7947 7.89433 21.6868 10.6417C22.4266 11.7161 22.7703 12.9642 22.3262 14.2751C22.8267 15.0435 23.2076 15.6942 23.6792 16.476C24.3901 17.6546 23.8429 17.9753 22.7882 18.5926C22.3413 18.8546 22.2932 18.9428 22.3179 19.5133C22.3578 20.4447 22.5297 21.0087 22.2107 22.0483C21.5218 24.2906 19.319 25.0523 17.1478 24.4215ZM18.1983 17.7094C18.472 17.4434 18.472 17.0091 18.1983 16.7432L13.6648 12.3375C13.3912 12.0716 12.9443 12.0716 12.6707 12.3375L11.4936 13.4813C11.22 13.7473 11.22 14.1816 11.4936 14.4475L16.0271 18.8532C16.3008 19.1191 16.7477 19.1191 17.0213 18.8532L18.1983 17.7094ZM12.6707 18.8546C12.9443 19.1205 13.3912 19.1205 13.6648 18.8546L14.4252 18.1156L12.254 16.0056L11.4936 16.7446C11.22 17.0105 11.22 17.4448 11.4936 17.7107L12.6707 18.8546ZM15.2654 13.0765L17.4366 15.1864L18.1969 14.4475C18.4706 14.1816 18.4706 13.7473 18.1969 13.4813L17.0199 12.3375C16.7463 12.0716 16.2994 12.0716 16.0258 12.3375L15.2654 13.0765Z" fill="#686B6F"/>
</svg>
