<svg width="30" height="31" viewBox="0 0 30 31" fill="none" xmlns="http://www.w3.org/2000/svg">
<path fill-rule="evenodd" clip-rule="evenodd" d="M15.9731 20.8788C16.1276 20.504 16.5449 20.3315 16.9026 20.4927C17.2617 20.6539 17.427 21.0895 17.2712 21.4629C16.8362 22.5109 16.1249 23.375 15.2482 23.9747C14.3689 24.5771 13.3269 24.918 12.2362 24.918C10.7213 24.918 9.34879 24.2759 8.35561 23.2392C7.36515 22.2054 6.75 20.7727 6.75 19.1902C6.75 18.0503 7.07654 16.9613 7.65646 16.0434C8.23502 15.1255 9.06425 14.3802 10.0683 13.9291C10.4287 13.7678 10.846 13.9418 11.0018 14.318C11.1563 14.6942 10.9896 15.1298 10.6292 15.2924C9.88128 15.629 9.26613 16.1792 8.83933 16.8552C8.41252 17.5312 8.17269 18.3388 8.17269 19.1902C8.17269 20.3626 8.62796 21.4233 9.36369 22.1913C10.0994 22.9592 11.117 23.4344 12.2389 23.4344C13.0532 23.4344 13.8255 23.1841 14.4732 22.74C15.1236 22.2959 15.652 21.6552 15.9731 20.8788ZM12.6196 5.41797C13.8269 5.41797 14.8065 6.43908 14.8065 7.70061C14.8065 8.96073 13.8282 9.98324 12.6196 9.98324C11.4124 9.98324 10.4327 8.96214 10.4327 7.70061C10.4341 6.43908 11.4124 5.41797 12.6196 5.41797ZM13.331 13.1413V11.6988C13.331 11.2886 13.0126 10.9563 12.6196 10.9563C12.2267 10.9563 11.9083 11.2886 11.9083 11.6988V13.8838V18.3317C11.9083 18.7418 12.2267 19.0742 12.6196 19.0742H18.7914L21.6788 24.2943C21.8739 24.6478 22.3061 24.7695 22.6449 24.5672C22.9836 24.3636 23.1001 23.9124 22.9064 23.5589L19.8456 18.0262C19.7331 17.7702 19.4865 17.592 19.1979 17.592H13.331V14.6277H18.3389C18.5353 14.6277 18.7128 14.5443 18.8415 14.4099L20.336 12.85C20.6138 12.5601 20.6138 12.0905 20.336 11.8006C20.0583 11.5107 19.6084 11.5107 19.3307 11.8006L18.0435 13.1441H13.331V13.1413Z" fill="#686B6F"/>
</svg>
