<svg width="31" height="30" viewBox="0 0 31 30" fill="none" xmlns="http://www.w3.org/2000/svg">
<path fill-rule="evenodd" clip-rule="evenodd" d="M13.4625 15.3301C14.3424 15.3301 15.0543 16.0229 15.0543 16.8762C15.0543 17.065 15.0192 17.2453 14.9549 17.4128C15.256 17.6954 15.6726 17.7564 15.984 17.4554C16.1082 17.3347 16.1842 17.1686 16.1842 16.9841C16.1842 15.8596 16.6008 15.1796 17.0423 14.4598C17.4121 13.855 17.7907 13.2303 17.7907 12.5077C17.7907 11.2768 16.766 10.2815 15.4987 10.2815C14.2328 10.2815 13.2067 11.2753 13.2067 12.5077C13.2067 12.7817 13.252 13.0315 13.3499 13.2885C13.4742 13.6108 13.3046 13.9714 12.9713 14.0921C12.6395 14.2128 12.2682 14.0481 12.1454 13.7244C11.9978 13.341 11.9159 12.9165 11.9159 12.5077C11.9159 10.5882 13.5224 9.02932 15.4972 9.02932C17.4735 9.02932 19.0785 10.5882 19.0785 12.5077C19.0785 13.483 18.6487 14.2781 18.1488 15.0958C17.8009 15.6637 17.4735 16.2004 17.4735 16.9841C17.4735 17.5136 17.2528 17.9935 16.8946 18.3413C16.5365 18.6892 16.0424 18.9035 15.4972 18.9035C15.0251 18.9035 14.3658 18.6764 14.072 18.303C13.8835 18.3797 13.6773 18.4223 13.4595 18.4223C12.5796 18.4223 11.8677 17.7294 11.8677 16.8762C11.8692 16.0229 12.5825 15.3301 13.4625 15.3301ZM10.2466 14.0481C10.1282 13.7428 10.0391 13.4276 9.9806 13.1082C9.92359 12.7973 9.8929 12.4722 9.8929 12.1357C9.8929 10.6294 10.5214 9.265 11.5374 8.27829C12.5533 7.29157 13.958 6.68109 15.5089 6.68109C17.0598 6.68109 18.4646 7.29157 19.4805 8.27829C20.4964 9.265 21.1249 10.6294 21.1249 12.1357C21.1249 13.8607 20.3005 15.2577 19.4775 16.6547C18.849 17.7209 18.2204 18.7857 17.8828 20.0564C17.8112 20.3247 17.7688 20.4993 17.7264 20.6754C17.4209 21.946 17.0905 23.3175 15.5074 23.3175C15.0733 23.3175 14.6713 23.194 14.3381 22.9824C13.9931 22.7638 13.7154 22.4486 13.5458 22.0766C13.3821 21.7146 12.9479 21.5513 12.5752 21.7104C12.2024 21.8694 12.0343 22.291 12.1981 22.6531C12.4816 23.2777 12.9509 23.8087 13.537 24.1807C14.1056 24.5413 14.7839 24.75 15.5074 24.75C18.2584 24.75 18.7262 22.8021 19.1603 20.9991C19.2159 20.7677 19.2714 20.5362 19.3051 20.4141C19.5901 19.3422 20.1733 18.3541 20.7566 17.3646C21.6775 15.8029 22.5998 14.2383 22.5998 12.1357C22.5998 10.2347 21.8061 8.51254 20.5227 7.26602C19.2393 6.02091 17.4662 5.25 15.5089 5.25C13.5516 5.25 11.7785 6.02091 10.4951 7.26744C9.21173 8.51396 8.418 10.2361 8.418 12.1371C8.418 12.5375 8.45747 12.9478 8.53348 13.3609C8.60803 13.7641 8.72058 14.1616 8.86968 14.5464C9.01147 14.9155 9.43391 15.1029 9.81396 14.9652C10.194 14.8289 10.387 14.4172 10.2466 14.0481Z" fill="#686B6F"/>
</svg>
