<svg width="31" height="30" viewBox="0 0 31 30" fill="none" xmlns="http://www.w3.org/2000/svg">
<g clip-path="url(#clip0)">
<path fill-rule="evenodd" clip-rule="evenodd" d="M14.4815 11.8837L17.2595 7.93725C17.8869 7.04523 18.8868 7.7298 18.2582 8.62183L15.881 11.9996C15.615 12.3779 16.2114 12.8696 16.5171 12.4352L19.3731 8.37778C20.0005 7.48575 21.0004 8.17033 20.373 9.06235C19.4201 10.4144 18.4685 11.7665 17.5169 13.1186C17.2509 13.4969 17.8473 13.9886 18.153 13.5542C18.9462 12.4279 19.7382 11.3028 20.5301 10.1765C21.1575 9.28445 22.1574 9.96903 21.53 10.8611C20.7368 11.9874 19.8137 13.3004 19.0204 14.4267C18.9338 14.55 18.9388 14.6854 18.9957 14.7965H14.3738C14.2266 14.7965 13.8194 14.7806 13.7291 14.6256C13.5658 14.3474 13.8541 13.5713 13.9654 13.3028C14.01 13.1967 14.0558 13.0917 14.1053 12.9868C14.2859 12.5939 14.4208 12.2266 14.4815 11.8837ZM19.7035 14.7952H20.1428C20.5041 14.7952 20.7999 14.8782 21.0313 15.0137L22.5299 12.8855C23.1572 11.9935 22.1586 11.3101 21.53 12.2021L19.7035 14.7952ZM9.98209 13.3431C9.73584 12.4352 9.44875 11.5615 9.02678 10.8025C10.0786 10.3315 10.5464 10.7402 11.1552 11.7543C11.1849 11.8043 11.2158 11.8544 11.2468 11.9032C10.8471 12.3925 10.4115 12.8696 9.98209 13.3431Z" fill="#686B6F"/>
<path fill-rule="evenodd" clip-rule="evenodd" d="M14.3741 15.4715H20.1419C21.2432 15.4715 21.2432 16.6711 20.1419 16.6711H15.9729C15.5064 16.6711 15.4358 17.435 15.9729 17.435H20.9808C22.0822 17.435 22.0822 18.6345 20.9808 18.6345C19.3115 18.6345 17.6422 18.6345 15.9729 18.6345C15.5064 18.6345 15.4358 19.3984 15.9729 19.3984C17.3625 19.3984 18.7522 19.3984 20.1419 19.3984C21.2432 19.3984 21.2432 20.5979 20.1419 20.5979C18.7522 20.5979 17.1311 20.5979 15.7415 20.5979C15.275 20.5979 15.2044 21.3618 15.7415 21.3618C16.7587 21.3618 18.0072 21.3618 19.0244 21.3618C20.1258 21.3618 20.1258 22.5614 19.0244 22.5614C16.375 22.5614 14.3617 22.5614 11.8163 22.5614C9.64702 22.5614 7.70546 21.2069 7.68813 18.9445C7.67823 17.7034 8.28211 16.499 9.04067 15.5008C10.3152 13.8217 12.1504 12.239 13.0612 10.4366C14.0536 11.0199 13.9793 11.6325 13.4806 12.7039C12.9089 13.9328 12.4882 15.4715 14.3741 15.4715Z" fill="#686B6F"/>
</g>
<defs>
<clipPath id="clip0">
<rect width="15.04" height="15.04" fill="white" transform="translate(7.688 7.52002)"/>
</clipPath>
</defs>
</svg>
