<svg width="31" height="30" viewBox="0 0 31 30" fill="none" xmlns="http://www.w3.org/2000/svg">
<path fill-rule="evenodd" clip-rule="evenodd" d="M13.5882 5.25C14.9132 5.25 15.9871 6.27807 15.9871 7.54655C15.9871 8.81502 14.9132 9.84309 13.5882 9.84309C12.2632 9.84309 11.1893 8.81502 11.1893 7.54655C11.1908 6.27807 12.2647 5.25 13.5882 5.25ZM18.6385 16.4301L17.9059 17.3733L18.6887 18.0153L20.5278 24.0862C20.5869 24.2828 20.4687 24.4892 20.2634 24.5472C20.0566 24.6038 19.8424 24.4906 19.7818 24.2941L18.0078 18.4368C16.9945 17.6052 15.9767 16.7879 14.9516 15.9677L16.0949 14.5437L13.8748 12.7689L12.0978 16.5206L15.5853 19.3545C15.8497 19.5681 15.9265 19.9159 15.8024 20.2058L14.3991 24.2389C14.2647 24.6292 13.826 24.8399 13.4183 24.7112C13.0106 24.5826 12.7905 24.1626 12.925 23.7723L14.1805 20.1662L11.6975 18.1497L10.7122 24.1201C10.6472 24.526 10.2499 24.8046 9.82592 24.7409C9.40198 24.6787 9.11099 24.2983 9.17746 23.8925L10.3695 16.6606C10.3769 16.58 10.3976 16.498 10.436 16.4188L12.8747 11.2714C13.0786 10.8203 13.6886 10.6774 14.0875 10.997L19.2486 15.1206C19.8498 15.6028 19.4052 16.5333 18.6385 16.4301ZM16.6917 15.0188L16.0225 15.8517L17.315 16.8869L17.9709 16.0412L16.6917 15.0188Z" fill="#686B6F"/>
</svg>
