<svg width="30" height="30" viewBox="0 0 30 30" fill="none" xmlns="http://www.w3.org/2000/svg">
<path fill-rule="evenodd" clip-rule="evenodd" d="M8.40425 11.9616L10.4395 9H14.886C15.6779 9 15.6779 10.2307 14.886 10.2307H11.063L9.5736 12.3979C10.8348 13.0842 11.707 14.3475 11.9034 15.7983H14.6093C14.9664 13.1845 17.4186 11.4354 19.9294 11.9538L21.9595 9H26.4061C27.198 9 27.198 10.2307 26.4061 10.2307H22.5831L21.1064 12.3796C22.5818 13.1663 23.5127 14.7226 23.5127 16.4313C23.5127 18.9514 21.5068 21 19.0406 21C16.7963 21 14.8962 19.2978 14.6055 17.0291H11.9085C11.619 19.2926 9.71769 21 7.47336 21C5.00332 21 3 18.954 3 16.4313C3 13.9125 5.00587 11.8626 7.47336 11.8626C7.79343 11.8626 8.1033 11.8978 8.40425 11.9616ZM19.1133 13.8708C18.2308 13.8474 17.3994 14.2824 16.9212 15.0456C16.4647 15.7736 16.4277 16.6058 16.6904 17.3182C16.7236 16.7855 16.8855 16.2451 17.203 15.7397C17.8508 14.707 18.9526 14.1821 20.0493 14.2108C20.1462 14.2134 20.2405 14.2199 20.3349 14.2316C19.9766 14.0128 19.5596 13.8826 19.1133 13.8708ZM7.47336 13.863C6.08086 13.863 4.95869 15.0091 4.95869 16.4313C4.95869 16.7569 5.01862 17.0682 5.12701 17.356C5.2201 15.5952 6.64194 14.2016 8.39022 14.2016C8.51392 14.2016 8.63633 14.2082 8.75492 14.2212C8.38129 13.9946 7.94518 13.863 7.47336 13.863ZM7.47336 13.0933C5.66514 13.0933 4.20505 14.5845 4.20505 16.4313C4.20505 18.2741 5.66769 19.7693 7.47336 19.7693C9.23185 19.7693 10.72 18.3236 10.7455 16.516C10.771 14.776 9.44098 13.0933 7.47336 13.0933ZM19.1324 13.1025C18.0357 13.0738 16.934 13.5987 16.2862 14.6314C14.886 16.8637 16.4877 19.7693 19.0393 19.7693C20.8463 19.7693 22.3076 18.2781 22.3076 16.4313C22.3089 14.621 20.9036 13.1493 19.1324 13.1025Z" fill="#686B6F"/>
</svg>
