<svg width="16" height="16" viewBox="0 0 16 16" fill="none" xmlns="http://www.w3.org/2000/svg">
<path d="M6.00065 14.6693H10.0007C13.334 14.6693 14.6673 13.3359 14.6673 10.0026V6.0026C14.6673 2.66927 13.334 1.33594 10.0007 1.33594H6.00065C2.66732 1.33594 1.33398 2.66927 1.33398 6.0026V10.0026C1.33398 13.3359 2.66732 14.6693 6.00065 14.6693Z" stroke="black" stroke-linecap="round" stroke-linejoin="round"/>
<path d="M11.9331 6.04031C10.4797 5.89365 9.01307 5.82031 7.55307 5.82031C6.6864 5.82031 5.81974 5.86698 4.95974 5.95364L4.06641 6.04031" stroke="black" stroke-linecap="round" stroke-linejoin="round"/>
<path d="M6.47266 5.59687L6.56599 5.02354C6.63266 4.61021 6.68598 4.29688 7.42598 4.29688H8.57265C9.31265 4.29688 9.36598 4.62354 9.43265 5.02354L9.52598 5.59021" stroke="black" stroke-linecap="round" stroke-linejoin="round"/>
<path d="M10.9933 6.08594L10.7067 10.4859C10.66 11.1726 10.62 11.7059 9.4 11.7059H6.59333C5.37333 11.7059 5.33333 11.1726 5.28666 10.4859L5 6.08594" stroke="black" stroke-linecap="round" stroke-linejoin="round"/>
</svg>
