<svg width="16" height="16" viewBox="0 0 16 16" fill="none" xmlns="http://www.w3.org/2000/svg">
<path d="M4.50613 14.6693H11.4928C13.3328 14.6693 14.0661 13.5426 14.1528 12.1693L14.4995 6.6626C14.5928 5.2226 13.4461 4.0026 11.9995 4.0026C11.5928 4.0026 11.2195 3.76927 11.0328 3.40927L10.5528 2.4426C10.2461 1.83594 9.44613 1.33594 8.76613 1.33594H7.23946C6.55279 1.33594 5.75279 1.83594 5.44613 2.4426L4.96613 3.40927C4.77946 3.76927 4.40613 4.0026 3.99946 4.0026C2.55279 4.0026 1.40613 5.2226 1.49946 6.6626L1.84613 12.1693C1.92613 13.5426 2.66613 14.6693 4.50613 14.6693Z" stroke="black" stroke-linecap="round" stroke-linejoin="round"/>
<path d="M7 5.33594H9" stroke="black" stroke-linecap="round" stroke-linejoin="round"/>
<path d="M8.00065 11.9974C9.19398 11.9974 10.1673 11.0241 10.1673 9.83073C10.1673 8.6374 9.19398 7.66406 8.00065 7.66406C6.80732 7.66406 5.83398 8.6374 5.83398 9.83073C5.83398 11.0241 6.80732 11.9974 8.00065 11.9974Z" stroke="black" stroke-linecap="round" stroke-linejoin="round"/>
</svg>
