<svg width="28" height="28" viewBox="0 0 28 28" fill="none" xmlns="http://www.w3.org/2000/svg">
<path d="M3.73411 0.799805H24.2674C25.0454 0.799805 25.7915 1.10885 26.3416 1.65896C26.8917 2.20906 27.2008 2.95517 27.2008 3.73314V24.2665C27.2008 25.0444 26.8917 25.7905 26.3416 26.3407C25.7915 26.8908 25.0454 27.1998 24.2674 27.1998H3.73411C2.95615 27.1998 2.21004 26.8908 1.65993 26.3407C1.10983 25.7905 0.800781 25.0444 0.800781 24.2665V3.73314C0.800781 2.95517 1.10983 2.20906 1.65993 1.65896C2.21004 1.10885 2.95615 0.799805 3.73411 0.799805ZM15.4674 15.4665V6.66647H12.5341V15.4665H15.4674ZM15.4674 21.3331V18.3998H12.5341V21.3331H15.4674Z" fill="#F36E7F"/>
</svg>
