<svg width="70" height="70" viewBox="0 0 70 70" fill="none" xmlns="http://www.w3.org/2000/svg">
<rect width="70" height="70" rx="7.58475" fill="#E6E7F0"/>
<path d="M35 23C36.5913 23 38.1174 23.6321 39.2426 24.7574C40.3679 25.8826 41 27.4087 41 29C41 30.5913 40.3679 32.1174 39.2426 33.2426C38.1174 34.3679 36.5913 35 35 35C33.4087 35 31.8826 34.3679 30.7574 33.2426C29.6321 32.1174 29 30.5913 29 29C29 27.4087 29.6321 25.8826 30.7574 24.7574C31.8826 23.6321 33.4087 23 35 23ZM35 38C41.63 38 47 40.685 47 44V47H23V44C23 40.685 28.37 38 35 38Z" fill="white"/>
</svg>
