<svg width="16" height="18" viewBox="0 0 16 18" fill="none" xmlns="http://www.w3.org/2000/svg">
<path d="M9.55815 15.6495C9.55815 16.0944 9.3811 16.5211 9.06594 16.8357C8.75079 17.1503 8.32335 17.327 7.87766 17.327C7.43196 17.327 7.00452 17.1503 6.68937 16.8357C6.37421 16.5211 6.19716 16.0944 6.19716 15.6495H9.55815ZM14.3812 16.9664L12.2217 14.8107H0.31543L2.83617 12.2944V7.26173C2.83617 6.71652 2.9202 6.18809 3.08825 5.69322L0.710346 3.31948L1.9035 2.1368L3.92009 4.14987L15.5659 15.7753L14.3812 16.9664ZM7.03741 2.29617V1.39029C7.03741 1.16783 7.12593 0.954487 7.28351 0.797186C7.44109 0.639885 7.65481 0.551514 7.87766 0.551514C8.1005 0.551514 8.31422 0.639885 8.4718 0.797186C8.62938 0.954487 8.7179 1.16783 8.7179 1.39029V2.29617C11.1042 2.69878 12.9191 4.77056 12.9191 7.26173V10.7594L5.16366 3.01752C5.72662 2.64846 6.35681 2.4136 7.03741 2.29617Z" fill="white"/>
</svg>