<svg width="11" height="11" viewBox="0 0 11 11" fill="none" xmlns="http://www.w3.org/2000/svg">
<g clip-path="url(#clip0)">
<path d="M7.02051 10.0078C6.76229 10.5916 6.17792 11.0001 5.49961 11.0001C4.82131 11.0001 4.23696 10.5916 3.97872 10.0078H7.02051Z" fill="#FFC20E"/>
<path d="M5.50033 1.05094C5.05271 1.05094 4.62292 1.12992 4.22407 1.27451V1.22538C4.22407 0.549703 4.77377 0 5.44943 0H5.55098C6.22666 0 6.77637 0.549703 6.77637 1.22538V1.27389C6.37773 1.12973 5.94807 1.05094 5.50033 1.05094Z" fill="#FFC20E"/>
<path d="M1.47237 9.36281H9.52807C9.68047 9.36281 9.82007 9.26003 9.85177 9.11094C9.88314 8.96334 9.81587 8.81765 9.67939 8.75459C9.64701 8.73359 9.40323 8.56313 9.15917 8.04741C8.71094 7.10032 8.61685 5.7662 8.61685 4.81377C8.61685 3.0953 7.21877 1.69727 5.50032 1.69727C3.78595 1.69727 2.39045 3.08857 2.38382 4.8014C2.38367 4.80551 2.38358 4.80964 2.38358 4.81377C2.38358 5.7662 2.2895 7.10032 1.84126 8.04741C1.59721 8.56313 1.35345 8.73361 1.32104 8.75459C1.18456 8.81765 1.11727 8.96331 1.14867 9.11094C1.18037 9.26001 1.31994 9.36281 1.47237 9.36281ZM1.31743 8.75687H1.31721H1.31743Z" fill="#FFC20E"/>
</g>
<defs>
<clipPath id="clip0">
<rect width="11" height="11" transform="matrix(-1 0 0 1 11 0)" fill="white"/>
</clipPath>
</defs>
</svg>
