<svg width="13" height="13" viewBox="0 0 13 13" fill="none" xmlns="http://www.w3.org/2000/svg">
<g clip-path="url(#clip0)">
<path d="M4.70117 11.8281C5.00634 12.518 5.69696 13.0009 6.49859 13.0009C7.30023 13.0009 7.99083 12.518 8.29602 11.8281H4.70117Z" fill="#EE3048"/>
<path d="M6.50024 1.24202C7.02923 1.24202 7.53717 1.33536 8.00854 1.50624V1.44818C8.00854 0.649649 7.35889 0 6.56038 0H6.44037C5.64184 0 4.99219 0.649649 4.99219 1.44818V1.50551C5.4633 1.33513 5.97109 1.24202 6.50024 1.24202Z" fill="#EE3048"/>
<path d="M11.2596 11.0651H1.7392C1.55909 11.0651 1.39411 10.9437 1.35665 10.7675C1.31957 10.593 1.39907 10.4209 1.56036 10.3463C1.59864 10.3215 1.88674 10.1201 2.17517 9.51057C2.7049 8.39129 2.81609 6.8146 2.81609 5.689C2.81609 3.65809 4.46837 2.00586 6.49926 2.00586C8.52535 2.00586 10.1746 3.65012 10.1824 5.67438C10.1826 5.67924 10.1827 5.68412 10.1827 5.689C10.1827 6.8146 10.2939 8.39129 10.8236 9.51057C11.112 10.1201 11.4001 10.3215 11.4384 10.3463C11.5997 10.4209 11.6792 10.593 11.6421 10.7675C11.6047 10.9436 11.4397 11.0651 11.2596 11.0651ZM11.4427 10.349H11.4429H11.4427Z" fill="#EE3048"/>
</g>
<defs>
<clipPath id="clip0">
<rect width="13" height="13" fill="white"/>
</clipPath>
</defs>
</svg>
