<?xml version="1.0" encoding="utf-8"?>
<!-- Generator: Adobe Illustrator 23.0.1, SVG Export Plug-In . SVG Version: 6.00 Build 0)  -->
<svg version="1.1" id="Layer_1" xmlns="http://www.w3.org/2000/svg" xmlns:xlink="http://www.w3.org/1999/xlink" x="0px" y="0px"
	 viewBox="0 0 11 12" style="enable-background:new 0 0 11 12;" xml:space="preserve">
<style type="text/css">
	.st0{fill:#FFC20E;}
</style>
<path class="st0" d="M6.9,10.2c0,0.3-0.1,0.6-0.3,0.8c-0.2,0.2-0.5,0.3-0.8,0.3c-0.3,0-0.6-0.1-0.8-0.3c-0.2-0.2-0.3-0.5-0.3-0.8
	H6.9z M5.8,0.3c0.1,0,0.3,0.1,0.4,0.2c0.1,0.1,0.2,0.2,0.2,0.4v0.6c1.6,0.3,2.8,1.6,2.8,3.3V8l1.7,1.6h-10L2.5,8V4.7
	c0-1.6,1.2-3,2.8-3.3V0.8c0-0.1,0.1-0.3,0.2-0.4C5.5,0.4,5.6,0.3,5.8,0.3z"/>
</svg>
