<svg width="15" height="17" viewBox="0 0 15 17" fill="none" xmlns="http://www.w3.org/2000/svg">
<path d="M9.16668 14.85C9.16668 15.2876 8.99108 15.7073 8.67852 16.0167C8.36596 16.3262 7.94204 16.5 7.50001 16.5C7.05798 16.5 6.63406 16.3262 6.3215 16.0167C6.00893 15.7073 5.83334 15.2876 5.83334 14.85H9.16668ZM7.50001 0C7.72102 0 7.93298 0.0869195 8.08926 0.241637C8.24554 0.396355 8.33334 0.606197 8.33334 0.825001V1.716C10.7 2.112 12.5 4.14975 12.5 6.60001V11.55L15 14.025H0L2.5 11.55V6.60001C2.5 4.14975 4.3 2.112 6.66667 1.716V0.825001C6.66667 0.606197 6.75447 0.396355 6.91075 0.241637C7.06703 0.0869195 7.27899 0 7.50001 0V0Z" fill="white"/>
</svg>
