<svg width="20" height="20" viewBox="0 0 20 20" fill="none" xmlns="http://www.w3.org/2000/svg">
<path d="M18.3084 15.2743C18.3084 15.5743 18.2417 15.8827 18.1001 16.1827C17.9584 16.4827 17.7751 16.766 17.5334 17.0327C17.1251 17.4827 16.6751 17.8077 16.1667 18.016C15.6667 18.2243 15.1251 18.3327 14.5417 18.3327C13.6917 18.3327 12.7834 18.1327 11.8251 17.7243C10.8667 17.316 9.90838 16.766 8.95838 16.0743C8.00005 15.3743 7.09172 14.5993 6.22505 13.741C5.36672 12.8743 4.59172 11.966 3.90005 11.016C3.21672 10.066 2.66672 9.11602 2.26672 8.17435C1.86672 7.22435 1.66672 6.31602 1.66672 5.44935C1.66672 4.88268 1.76672 4.34102 1.96672 3.84102C2.16672 3.33268 2.48338 2.86602 2.92505 2.44935C3.45838 1.92435 4.04172 1.66602 4.65838 1.66602C4.89172 1.66602 5.12505 1.71602 5.33338 1.81602C5.55005 1.91602 5.74172 2.06602 5.89172 2.28268L7.82505 5.00768C7.97505 5.21602 8.08338 5.40768 8.15838 5.59102C8.23338 5.76602 8.27505 5.94102 8.27505 6.09935C8.27505 6.29935 8.21672 6.49935 8.10005 6.69102C7.99172 6.88268 7.83338 7.08268 7.63338 7.28268L7.00005 7.94102C6.90838 8.03268 6.86672 8.14102 6.86672 8.27435C6.86672 8.34102 6.87505 8.39935 6.89172 8.46602C6.91672 8.53268 6.94172 8.58268 6.95838 8.63268C7.10838 8.90768 7.36672 9.26602 7.73338 9.69935C8.10838 10.1327 8.50838 10.5743 8.94172 11.016C9.39172 11.4577 9.82505 11.866 10.2667 12.241C10.7001 12.6077 11.0584 12.8577 11.3417 13.0077C11.3834 13.0243 11.4334 13.0493 11.4917 13.0743C11.5584 13.0993 11.6251 13.1077 11.7001 13.1077C11.8417 13.1077 11.9501 13.0577 12.0417 12.966L12.6751 12.341C12.8834 12.1327 13.0834 11.9743 13.2751 11.8743C13.4667 11.7577 13.6584 11.6993 13.8667 11.6993C14.0251 11.6993 14.1917 11.7327 14.3751 11.8077C14.5584 11.8827 14.7501 11.991 14.9584 12.1327L17.7167 14.091C17.9334 14.241 18.0834 14.416 18.1751 14.6243C18.2584 14.8327 18.3084 15.041 18.3084 15.2743Z" stroke="#292D32" stroke-width="1.25" stroke-miterlimit="10"/>
<path d="M15.4167 7.4987C15.4167 6.9987 15.0251 6.23203 14.4417 5.60703C13.9084 5.03203 13.2001 4.58203 12.5001 4.58203" stroke="#292D32" stroke-width="1.25" stroke-linecap="round" stroke-linejoin="round"/>
<path d="M18.3334 7.49935C18.3334 4.27435 15.7251 1.66602 12.5001 1.66602" stroke="#292D32" stroke-width="1.25" stroke-linecap="round" stroke-linejoin="round"/>
</svg>
