<svg width="14" height="12" viewBox="0 0 14 12" fill="none" xmlns="http://www.w3.org/2000/svg">
<path d="M1.72039 1.33333H3.70039L5.02039 0H8.98039L10.3004 1.33333H12.2804C12.6305 1.33333 12.9662 1.47381 13.2138 1.72386C13.4613 1.97391 13.6004 2.31304 13.6004 2.66667V10.6667C13.6004 11.0203 13.4613 11.3594 13.2138 11.6095C12.9662 11.8595 12.6305 12 12.2804 12H1.72039C1.3703 12 1.03456 11.8595 0.78701 11.6095C0.539462 11.3594 0.400391 11.0203 0.400391 10.6667V2.66667C0.400391 2.31304 0.539462 1.97391 0.78701 1.72386C1.03456 1.47381 1.3703 1.33333 1.72039 1.33333ZM7.00039 3.33333C6.12518 3.33333 5.28581 3.68452 4.66694 4.30964C4.04807 4.93477 3.70039 5.78261 3.70039 6.66667C3.70039 7.55072 4.04807 8.39857 4.66694 9.02369C5.28581 9.64881 6.12518 10 7.00039 10C7.8756 10 8.71497 9.64881 9.33384 9.02369C9.95271 8.39857 10.3004 7.55072 10.3004 6.66667C10.3004 5.78261 9.95271 4.93477 9.33384 4.30964C8.71497 3.68452 7.8756 3.33333 7.00039 3.33333ZM7.00039 4.66667C7.52552 4.66667 8.02914 4.87738 8.40046 5.25245C8.77178 5.62753 8.98039 6.13623 8.98039 6.66667C8.98039 7.1971 8.77178 7.70581 8.40046 8.08088C8.02914 8.45595 7.52552 8.66667 7.00039 8.66667C6.47526 8.66667 5.97164 8.45595 5.60032 8.08088C5.229 7.70581 5.02039 7.1971 5.02039 6.66667C5.02039 6.13623 5.229 5.62753 5.60032 5.25245C5.97164 4.87738 6.47526 4.66667 7.00039 4.66667Z" fill="white"/>
</svg>
