<svg width="30" height="30" viewBox="0 0 30 30" fill="none" xmlns="http://www.w3.org/2000/svg">
<path d="M8.90217 9.64286V7.5H10.337V9.64286H12.4891V11.0714H10.337V13.2143H8.90217V11.0714H6.75V9.64286H8.90217ZM11.0543 13.9286V11.7857H13.2065V9.64286H18.2283L19.5411 11.0714H21.8152C22.6043 11.0714 23.25 11.7143 23.25 12.5V21.0714C23.25 21.8571 22.6043 22.5 21.8152 22.5H10.337C9.54783 22.5 8.90217 21.8571 8.90217 21.0714V13.9286H11.0543ZM16.0761 20.3571C18.0561 20.3571 19.663 18.7571 19.663 16.7857C19.663 14.8143 18.0561 13.2143 16.0761 13.2143C14.0961 13.2143 12.4891 14.8143 12.4891 16.7857C12.4891 18.7571 14.0961 20.3571 16.0761 20.3571ZM13.7804 16.7857C13.7804 18.05 14.8063 19.0714 16.0761 19.0714C17.3459 19.0714 18.3717 18.05 18.3717 16.7857C18.3717 15.5214 17.3459 14.5 16.0761 14.5C14.8063 14.5 13.7804 15.5214 13.7804 16.7857Z" fill="white"/>
</svg>
