<svg width="9" height="13" viewBox="0 0 9 13" fill="none" xmlns="http://www.w3.org/2000/svg">
<path d="M4.36675 0.666016C2.04475 0.666016 0.166748 2.54402 0.166748 4.86602C0.166748 8.01602 4.36675 12.666 4.36675 12.666C4.36675 12.666 8.56675 8.01602 8.56675 4.86602C8.56675 2.54402 6.68875 0.666016 4.36675 0.666016ZM4.36675 6.36602C3.96892 6.36602 3.58739 6.20798 3.30609 5.92668C3.02478 5.64537 2.86675 5.26384 2.86675 4.86602C2.86675 4.46819 3.02478 4.08666 3.30609 3.80536C3.58739 3.52405 3.96892 3.36602 4.36675 3.36602C4.76457 3.36602 5.1461 3.52405 5.42741 3.80536C5.70871 4.08666 5.86675 4.46819 5.86675 4.86602C5.86675 5.26384 5.70871 5.64537 5.42741 5.92668C5.1461 6.20798 4.76457 6.36602 4.36675 6.36602Z" fill="white"/>
</svg>
