<svg width="9" height="12" viewBox="0 0 9 12" fill="none" xmlns="http://www.w3.org/2000/svg">
<path d="M2.09347 8.84634C2.09347 8.54228 2.32767 8.29628 2.61659 8.29628H6.88291C7.17183 8.29628 7.40603 8.54228 7.40603 8.84634C7.40603 9.1504 7.17183 9.39639 6.88291 9.39639H2.61659C2.32767 9.39639 2.09347 9.1504 2.09347 8.84634Z" fill="white"/>
<path d="M2.61659 6.64824C2.32767 6.64824 2.09347 6.89423 2.09347 7.19829C2.09347 7.50235 2.32767 7.74834 2.61659 7.74834H4.75778C5.0467 7.74834 5.28091 7.50235 5.28091 7.19829C5.28091 6.89423 5.0467 6.64824 4.75778 6.64824H2.61659Z" fill="white"/>
<path fill-rule="evenodd" clip-rule="evenodd" d="M5.44206 0.597656H1.56005C0.975932 0.597656 0.5 1.08964 0.5 1.69776V10.4976C0.5 11.1036 0.976183 11.5977 1.56357 11.5977H7.93643C8.52482 11.5977 9 11.1057 9 10.4976V4.28227C9 4.13341 8.91641 3.9212 8.81349 3.81457L5.89389 0.790861C5.79223 0.685285 5.58865 0.597656 5.44206 0.597656ZM1.56306 10.4954H7.93668L7.93794 5.54496H4.75025C4.45706 5.54496 4.2191 5.29897 4.2191 4.99491V1.69565H1.56055C1.56306 1.69565 1.56306 10.4954 1.56306 10.4954ZM7.93794 4.44591L5.28166 1.69565V4.44486L7.93794 4.44591Z" fill="white"/>
</svg>
