<svg width="17" height="5" viewBox="0 0 17 5" fill="none" xmlns="http://www.w3.org/2000/svg">
<path d="M2.88 0.0639999C1.656 0.0639999 0.696 1.048 0.696 2.224C0.696 3.424 1.656 4.408 2.88 4.408C4.08 4.408 5.04 3.424 5.04 2.224C5.04 1.048 4.08 0.0639999 2.88 0.0639999ZM8.64563 0.0639999C7.42163 0.0639999 6.46163 1.048 6.46163 2.224C6.46163 3.424 7.42163 4.408 8.64563 4.408C9.84563 4.408 10.8056 3.424 10.8056 2.224C10.8056 1.048 9.84563 0.0639999 8.64563 0.0639999ZM14.4113 0.0639999C13.1873 0.0639999 12.2273 1.048 12.2273 2.224C12.2273 3.424 13.1873 4.408 14.4113 4.408C15.6113 4.408 16.5713 3.424 16.5713 2.224C16.5713 1.048 15.6113 0.0639999 14.4113 0.0639999Z" fill="#0AB1B1"/>
</svg>
