<svg width="22" height="22" viewBox="0 0 22 22" fill="none" xmlns="http://www.w3.org/2000/svg">
<path d="M12.1179 9.88211H17.7073L16.0305 8.20529L17.6179 6.61789L22 11L17.6179 15.3821L16.0305 13.7947L17.7073 12.1179H12.1179V17.7073L13.7947 16.0305L15.3821 17.6179L11 22L6.61789 17.6179L8.20529 16.0305L9.88211 17.7073V12.1179H4.29268L5.96951 13.7947L4.38211 15.3821L9.59489e-08 11L4.38211 6.61789L5.96951 8.20529L4.29268 9.88211H9.88211V4.29268L8.20529 5.96951L6.61789 4.38211L11 9.59489e-08L15.3821 4.38211L13.7947 5.96951L12.1179 4.29268V9.88211Z" fill="#686B6F"/>
</svg>
