<svg width="12" height="12" viewBox="0 0 12 12" fill="none" xmlns="http://www.w3.org/2000/svg">
<path d="M10.5938 0H1.40625C0.630844 0 0 0.630844 0 1.40625V3.28125H0.9375V1.40625C0.9375 1.14778 1.14778 0.9375 1.40625 0.9375H10.5938C10.8522 0.9375 11.0625 1.14778 11.0625 1.40625V10.5938C11.0625 10.8522 10.8522 11.0625 10.5938 11.0625H1.40625C1.14778 11.0625 0.9375 10.8522 0.9375 10.5938V8.71875H0V10.5938C0 11.3692 0.630844 12 1.40625 12H10.5938C11.3692 12 12 11.3692 12 10.5938V1.40625C12 0.630844 11.3692 0 10.5938 0Z" fill="white"/>
<path d="M5.625 3.08702L4.96209 3.74993L6.74334 5.53118H0V6.46868H6.74334L4.96209 8.24993L5.625 8.91283L8.53791 5.99993L5.625 3.08702Z" fill="white"/>
</svg>
