<svg width="15" height="15" viewBox="0 0 15 15" fill="none" xmlns="http://www.w3.org/2000/svg">
<mask id="path-2-inside-1" fill="white">
<path d="M14.9047 7.20819C14.7707 7.02488 11.5778 2.71973 7.49993 2.71973C3.42206 2.71973 0.229043 7.02488 0.0951857 7.20802C-0.0317286 7.38192 -0.0317286 7.61779 0.0951857 7.7917C0.229043 7.97501 3.42206 12.2802 7.49993 12.2802C11.5778 12.2802 14.7707 7.97498 14.9047 7.79185C15.0318 7.61797 15.0318 7.38192 14.9047 7.20819ZM7.49993 11.2912C4.49614 11.2912 1.89454 8.43374 1.12442 7.49961C1.89355 6.56466 4.4897 3.70873 7.49993 3.70873C10.5036 3.70873 13.105 6.56565 13.8754 7.50028C13.1063 8.43521 10.5102 11.2912 7.49993 11.2912Z"/>
</mask>
<path d="M14.9047 7.20819C14.7707 7.02488 11.5778 2.71973 7.49993 2.71973C3.42206 2.71973 0.229043 7.02488 0.0951857 7.20802C-0.0317286 7.38192 -0.0317286 7.61779 0.0951857 7.7917C0.229043 7.97501 3.42206 12.2802 7.49993 12.2802C11.5778 12.2802 14.7707 7.97498 14.9047 7.79185C15.0318 7.61797 15.0318 7.38192 14.9047 7.20819ZM7.49993 11.2912C4.49614 11.2912 1.89454 8.43374 1.12442 7.49961C1.89355 6.56466 4.4897 3.70873 7.49993 3.70873C10.5036 3.70873 13.105 6.56565 13.8754 7.50028C13.1063 8.43521 10.5102 11.2912 7.49993 11.2912Z" fill="white"/>
<path d="M14.9047 7.20819L14.0974 7.79834L14.0976 7.79861L14.9047 7.20819ZM0.0951857 7.20802L-0.712146 6.61792L-0.712584 6.61852L0.0951857 7.20802ZM0.0951857 7.7917L-0.712584 8.3812L-0.712416 8.38143L0.0951857 7.7917ZM14.9047 7.79185L15.7117 8.38236L15.712 8.38194L14.9047 7.79185ZM1.12442 7.49961L0.35215 6.86431L-0.171042 7.5003L0.352828 8.13573L1.12442 7.49961ZM13.8754 7.50028L14.6477 8.13559L15.1709 7.49964L14.6471 6.8642L13.8754 7.50028ZM15.712 6.61804C15.6208 6.49336 14.7334 5.29864 13.3198 4.12565C11.924 2.96748 9.88211 1.71973 7.49993 1.71973V3.71973C9.19561 3.71973 10.7891 4.62455 12.0427 5.66478C13.2785 6.6902 14.0545 7.73971 14.0974 7.79834L15.712 6.61804ZM7.49993 1.71973C5.11775 1.71973 3.07578 2.96747 1.68 4.12562C0.266365 5.29857 -0.621016 6.49324 -0.712146 6.61792L0.902518 7.79811C0.945245 7.73966 1.7213 6.69018 2.95711 5.66477C4.21076 4.62456 5.80424 3.71973 7.49993 3.71973V1.71973ZM-0.712584 6.61852C-1.09581 7.14363 -1.09581 7.85608 -0.712584 8.3812L0.902956 7.2022C1.03235 7.3795 1.03235 7.62021 0.902956 7.79751L-0.712584 6.61852ZM-0.712416 8.38143C-0.62101 8.5066 0.266401 9.7013 1.67999 10.8742C3.07578 12.0324 5.11775 13.2802 7.49993 13.2802V11.2802C5.80424 11.2802 4.21076 10.3753 2.95711 9.3351C1.72126 8.30964 0.945239 7.26011 0.902787 7.20197L-0.712416 8.38143ZM7.49993 13.2802C9.88211 13.2802 11.924 12.0324 13.3198 10.8743C14.7335 9.70124 15.6208 8.50655 15.7117 8.38236L14.0976 7.20133C14.0545 7.26028 13.2784 8.30974 12.0427 9.33511C10.789 10.3753 9.19561 11.2802 7.49993 11.2802V13.2802ZM15.712 8.38194C16.0959 7.85675 16.0962 7.14325 15.7118 6.61777L14.0976 7.79861C13.9673 7.6206 13.9676 7.37918 14.0973 7.20175L15.712 8.38194ZM7.49993 10.2912C6.3065 10.2912 5.11496 9.71625 4.06974 8.94209C3.03818 8.17807 2.254 7.29772 1.896 6.86349L0.352828 8.13573C0.76496 8.63563 1.66664 9.65106 2.87937 10.5493C4.07841 11.4374 5.68957 12.2912 7.49993 12.2912V10.2912ZM1.89668 8.13491C2.25407 7.70047 3.03649 6.82058 4.06705 6.05707C5.11098 5.28366 6.30287 4.70873 7.49993 4.70873V2.70873C5.68675 2.70873 4.07545 3.56177 2.87647 4.45005C1.66412 5.34824 0.763895 6.3638 0.35215 6.86431L1.89668 8.13491ZM7.49993 4.70873C8.69331 4.70873 9.88478 5.28354 10.93 6.05763C11.9615 6.82159 12.7457 7.70193 13.1038 8.13636L14.6471 6.8642C14.2347 6.36401 13.333 5.34857 12.1203 4.45042C10.9212 3.56238 9.31018 2.70873 7.49993 2.70873V4.70873ZM13.1032 6.86497C12.7458 7.29941 11.9634 8.17929 10.9328 8.94281C9.88887 9.71623 8.69698 10.2912 7.49993 10.2912V12.2912C9.3131 12.2912 10.9244 11.4381 12.1234 10.5498C13.3357 9.65163 14.236 8.63608 14.6477 8.13559L13.1032 6.86497Z" fill="white" mask="url(#path-2-inside-1)"/>
<path d="M7.50001 4.5332C5.86401 4.5332 4.53296 5.86425 4.53296 7.50025C4.53296 9.13625 5.86401 10.4673 7.50001 10.4673C9.13601 10.4673 10.4671 9.13625 10.4671 7.50025C10.4671 5.86425 9.13601 4.5332 7.50001 4.5332ZM7.50001 9.47826C6.40928 9.47826 5.52199 8.59094 5.52199 7.50025C5.52199 6.40955 6.40931 5.52224 7.50001 5.52224C8.5907 5.52224 9.47802 6.40955 9.47802 7.50025C9.47802 8.59094 8.59073 9.47826 7.50001 9.47826Z" fill="white"/>
</svg>
