<?xml version="1.0" encoding="utf-8"?>
<!-- Generator: Adobe Illustrator 23.0.1, SVG Export Plug-In . SVG Version: 6.00 Build 0)  -->
<svg version="1.1" id="Layer_1" xmlns="http://www.w3.org/2000/svg" xmlns:xlink="http://www.w3.org/1999/xlink" x="0px" y="0px"
	 viewBox="0 0 15 15" style="enable-background:new 0 0 15 15;" xml:space="preserve">
<style type="text/css">
	.st0{fill:#211F54;}
	.st1{fill:#FFFFFF;filter:url(#Adobe_OpacityMaskFilter);}
	.st2{mask:url(#path-2-inside-1_1_);fill:#211F54;}
</style>
<path class="st0" d="M14.9,7.2C14.8,7,11.6,2.7,7.5,2.7S0.2,7,0.1,7.2C0,7.4,0,7.6,0.1,7.8c0.1,0.2,3.3,4.5,7.4,4.5s7.3-4.3,7.4-4.5
	C15,7.6,15,7.4,14.9,7.2z M7.5,11.3c-3,0-5.6-2.9-6.4-3.8c0.8-0.9,3.4-3.8,6.4-3.8c3,0,5.6,2.9,6.4,3.8C13.1,8.4,10.5,11.3,7.5,11.3
	z"/>
<defs>
	<filter id="Adobe_OpacityMaskFilter" filterUnits="userSpaceOnUse" x="-1" y="1.7" width="17" height="11.6">
		<feColorMatrix  type="matrix" values="1 0 0 0 0  0 1 0 0 0  0 0 1 0 0  0 0 0 1 0"/>
	</filter>
</defs>
<mask maskUnits="userSpaceOnUse" x="-1" y="1.7" width="17" height="11.6" id="path-2-inside-1_1_">
	<path class="st1" d="M14.9,7.2C14.8,7,11.6,2.7,7.5,2.7S0.2,7,0.1,7.2C0,7.4,0,7.6,0.1,7.8c0.1,0.2,3.3,4.5,7.4,4.5
		s7.3-4.3,7.4-4.5C15,7.6,15,7.4,14.9,7.2z M7.5,11.3c-3,0-5.6-2.9-6.4-3.8c0.8-0.9,3.4-3.8,6.4-3.8c3,0,5.6,2.9,6.4,3.8
		C13.1,8.4,10.5,11.3,7.5,11.3z"/>
</mask>
<path class="st2" d="M14.9,7.2l-0.8,0.6l0,0L14.9,7.2z M0.1,7.2l-0.8-0.6l0,0L0.1,7.2z M0.1,7.8l-0.8,0.6l0,0L0.1,7.8z M14.9,7.8
	l0.8,0.6l0,0L14.9,7.8z M1.1,7.5L0.4,6.9l-0.5,0.6l0.5,0.6L1.1,7.5z M13.9,7.5l0.8,0.6l0.5-0.6l-0.5-0.6L13.9,7.5z M15.7,6.6
	c-0.1-0.1-1-1.3-2.4-2.5C11.9,3,9.9,1.7,7.5,1.7v2c1.7,0,3.3,0.9,4.5,1.9c1.2,1,2,2.1,2.1,2.1L15.7,6.6z M7.5,1.7
	C5.1,1.7,3.1,3,1.7,4.1C0.3,5.3-0.6,6.5-0.7,6.6l1.6,1.2c0-0.1,0.8-1.1,2.1-2.1c1.3-1,2.8-1.9,4.5-1.9V1.7z M-0.7,6.6
	c-0.4,0.5-0.4,1.2,0,1.8l1.6-1.2C1,7.4,1,7.6,0.9,7.8L-0.7,6.6z M-0.7,8.4c0.1,0.1,1,1.3,2.4,2.5c1.4,1.2,3.4,2.4,5.8,2.4v-2
	c-1.7,0-3.3-0.9-4.5-1.9c-1.2-1-2-2.1-2.1-2.1L-0.7,8.4z M7.5,13.3c2.4,0,4.4-1.2,5.8-2.4c1.4-1.2,2.3-2.4,2.4-2.5l-1.6-1.2
	c0,0.1-0.8,1.1-2.1,2.1c-1.3,1-2.8,1.9-4.5,1.9V13.3z M15.7,8.4c0.4-0.5,0.4-1.2,0-1.8l-1.6,1.2c-0.1-0.2-0.1-0.4,0-0.6L15.7,8.4z
	 M7.5,10.3c-1.2,0-2.4-0.6-3.4-1.3C3,8.2,2.3,7.3,1.9,6.9L0.4,8.1c0.4,0.5,1.3,1.5,2.5,2.4c1.2,0.9,2.8,1.7,4.6,1.7V10.3z M1.9,8.1
	C2.3,7.7,3,6.8,4.1,6.1c1-0.8,2.2-1.3,3.4-1.3v-2c-1.8,0-3.4,0.9-4.6,1.7C1.7,5.3,0.8,6.4,0.4,6.9L1.9,8.1z M7.5,4.7
	c1.2,0,2.4,0.6,3.4,1.3c1,0.8,1.8,1.6,2.2,2.1l1.5-1.3c-0.4-0.5-1.3-1.5-2.5-2.4c-1.2-0.9-2.8-1.7-4.6-1.7V4.7z M13.1,6.9
	c-0.4,0.4-1.1,1.3-2.2,2.1c-1,0.8-2.2,1.3-3.4,1.3v2c1.8,0,3.4-0.9,4.6-1.7c1.2-0.9,2.1-1.9,2.5-2.4L13.1,6.9z"/>
<path class="st0" d="M7.5,4.5c-1.6,0-3,1.3-3,3s1.3,3,3,3s3-1.3,3-3S9.1,4.5,7.5,4.5z M7.5,9.5c-1.1,0-2-0.9-2-2c0-1.1,0.9-2,2-2
	c1.1,0,2,0.9,2,2C9.5,8.6,8.6,9.5,7.5,9.5z"/>
</svg>
