<svg width="31" height="31" viewBox="0 0 31 31" fill="none" xmlns="http://www.w3.org/2000/svg">
<path d="M15.0013 12.9013C14.4588 12.9013 13.9385 13.1226 13.5548 13.5164C13.1712 13.9103 12.9557 14.4445 12.9557 15.0015C12.9557 15.5585 13.1712 16.0927 13.5548 16.4866C13.9385 16.8804 14.4588 17.1017 15.0013 17.1017C15.5439 17.1017 16.0642 16.8804 16.4478 16.4866C16.8315 16.0927 17.047 15.5585 17.047 15.0015C17.047 14.4445 16.8315 13.9103 16.4478 13.5164C16.0642 13.1226 15.5439 12.9013 15.0013 12.9013ZM15.0013 18.5018C14.0971 18.5018 13.2299 18.1331 12.5905 17.4766C11.9511 16.8202 11.5919 15.9298 11.5919 15.0015C11.5919 14.0731 11.9511 13.1828 12.5905 12.5264C13.2299 11.8699 14.0971 11.5011 15.0013 11.5011C15.9056 11.5011 16.7728 11.8699 17.4121 12.5264C18.0515 13.1828 18.4107 14.0731 18.4107 15.0015C18.4107 15.9298 18.0515 16.8202 17.4121 17.4766C16.7728 18.1331 15.9056 18.5018 15.0013 18.5018V18.5018ZM15.0013 9.75098C11.5919 9.75098 8.68024 11.9282 7.50058 15.0015C8.68024 18.0748 11.5919 20.252 15.0013 20.252C18.4107 20.252 21.3224 18.0748 22.5021 15.0015C21.3224 11.9282 18.4107 9.75098 15.0013 9.75098Z" fill="#EE3048"/>
</svg>
