<svg width="18" height="18" viewBox="0 0 18 18" fill="none" xmlns="http://www.w3.org/2000/svg">
<path d="M16.6862 0.359375H1.31375C1.06079 0.359375 0.8182 0.45986 0.639335 0.638725C0.46047 0.817589 0.359985 1.06018 0.359985 1.31314V16.6859C0.360049 16.9388 0.460562 17.1813 0.63942 17.3601C0.818278 17.5389 1.06083 17.6394 1.31375 17.6394H9.58966V10.9477H7.33775V8.33985H9.58966V6.41649C9.58966 4.18449 10.9529 2.96937 12.9439 2.96937C13.8977 2.96937 14.7173 3.04017 14.9563 3.07209V5.40465L13.5753 5.40538C12.4925 5.40538 12.2829 5.91993 12.2829 6.67497V8.34009H14.8653L14.5291 10.9479H12.2829V17.6394H16.6865C16.9394 17.6393 17.1819 17.5388 17.3607 17.3599C17.5395 17.1811 17.64 16.9385 17.64 16.6856V1.31314C17.64 1.06018 17.5395 0.817589 17.3606 0.638725C17.1818 0.45986 16.9392 0.359375 16.6862 0.359375Z" fill="white"/>
</svg>
