<svg width="30" height="30" viewBox="0 0 30 30" fill="none" xmlns="http://www.w3.org/2000/svg">
<path d="M19.4857 6H10.5C8.02857 6 6 8.02857 6 10.5143V19.5C6 21.9714 8.02857 24 10.5 24H19.4857C21.9714 24 24 21.9714 24 19.4857V10.5143C24 8.02857 21.9714 6 19.4857 6ZM17.4143 15H15.7143V20.5714H13.5714V15H12.4286V12.7143H13.4286V11.7429C13.4286 10.8286 13.8857 9.38571 15.8143 9.38571H17.5714V11.2857H16.3286C16.1286 11.2857 15.8571 11.4143 15.8571 11.8571V12.7143H17.6143L17.4143 15Z" fill="white"/>
</svg>
