<svg width="15" height="15" viewBox="0 0 15 15" fill="none" xmlns="http://www.w3.org/2000/svg">
<path d="M11.2381 0H3.75C1.69048 0 0 1.69048 0 3.7619V11.25C0 13.3095 1.69048 15 3.75 15H11.2381C13.3095 15 15 13.3095 15 11.2381V3.7619C15 1.69048 13.3095 0 11.2381 0ZM9.5119 7.5H8.09524V12.1429H6.30952V7.5H5.35714V5.59524H6.19048V4.78571C6.19048 4.02381 6.57143 2.82143 8.17857 2.82143H9.64286V4.40476H8.60714C8.44048 4.40476 8.21429 4.5119 8.21429 4.88095V5.59524H9.67857L9.5119 7.5Z" fill="#0AB1B1"/>
</svg>
