<svg width="30" height="30" viewBox="0 0 30 30" fill="none" xmlns="http://www.w3.org/2000/svg">
<g clip-path="url(#clip0)">
<path d="M20.2329 4.47766H9.74959C6.86625 4.47766 4.49959 6.83255 4.49959 9.71813V20.1493C4.49959 23.0183 6.86625 25.3732 9.74959 25.3732H20.2329C23.1329 25.3732 25.4996 23.0183 25.4996 20.1327V9.71813C25.4996 6.83255 23.1329 4.47766 20.2329 4.47766ZM17.8163 14.9254H15.8329V21.3931H13.3329V14.9254H11.9996V12.272H13.1663V11.1443C13.1663 10.083 13.6996 8.40801 15.9496 8.40801H17.9996V10.6136H16.5496C16.3163 10.6136 15.9996 10.7629 15.9996 11.277V12.272H18.0496L17.8163 14.9254Z" fill="#525252"/>
</g>
<defs>
<clipPath id="clip0">
<rect width="21" height="20.8955" fill="white" transform="translate(4.49959 4.47766)"/>
</clipPath>
</defs>
</svg>
