<svg width="20" height="20" viewBox="0 0 20 20" fill="none" xmlns="http://www.w3.org/2000/svg">
<path d="M19.1665 13.8395C19.1665 17.1762 17.1773 19.1654 13.8406 19.1654H12.7498C12.2456 19.1654 11.8331 18.7529 11.8331 18.2487V12.9595C11.8331 12.712 12.0348 12.5012 12.2823 12.5012L13.8956 12.4737C14.024 12.4645 14.134 12.3729 14.1615 12.2445L14.4823 10.4937C14.5098 10.3287 14.3815 10.1729 14.2073 10.1729L12.2548 10.2004C11.9981 10.2004 11.7965 9.99871 11.7873 9.75121L11.7506 7.50536C11.7506 7.3587 11.8698 7.23037 12.0256 7.23037L14.2256 7.1937C14.3814 7.1937 14.5006 7.07454 14.5006 6.91871L14.464 4.71869C14.464 4.56286 14.3448 4.4437 14.189 4.4437L11.714 4.48037C10.1923 4.50787 8.98231 5.75453 9.00981 7.2762L9.05563 9.79703C9.0648 10.0537 8.86314 10.2554 8.60647 10.2645L7.50646 10.2829C7.35063 10.2829 7.23147 10.402 7.23147 10.5579L7.25897 12.2995C7.25897 12.4554 7.37813 12.5745 7.53396 12.5745L8.63397 12.5562C8.89064 12.5562 9.09229 12.7579 9.10145 13.0054L9.18395 18.2304C9.19312 18.7437 8.78062 19.1654 8.26728 19.1654H6.15896C2.82229 19.1654 0.83313 17.1762 0.83313 13.8304V6.15786C0.83313 2.8212 2.82229 0.832031 6.15896 0.832031H13.8406C17.1773 0.832031 19.1665 2.8212 19.1665 6.15786V13.8395Z" fill="white"/>
</svg>
