<svg width="302" height="302" viewBox="0 0 302 302" fill="none" xmlns="http://www.w3.org/2000/svg">
<path d="M42.7375 217.025C53.9396 217.025 64.6829 221.475 72.6039 229.396C80.525 237.317 84.975 248.06 84.975 259.263C84.975 282.125 65.9875 301.5 42.7375 301.5C19.875 301.5 0.5 282.125 0.5 259.263C0.5 248.06 4.95001 237.317 12.8711 229.396C20.7922 221.475 31.5354 217.025 42.7375 217.025ZM0.5 0.0250244C80.4561 0.0250244 157.138 31.7875 213.675 88.325C270.213 144.863 301.975 221.544 301.975 301.5H247.144C247.144 236.086 221.158 173.351 174.903 127.097C128.649 80.8419 65.914 54.8563 0.5 54.8563V0.0250244ZM0.5 109.688C51.3718 109.688 100.16 129.896 136.132 165.868C172.104 201.84 192.313 250.628 192.313 301.5H137.481C137.481 265.17 123.049 230.329 97.3604 204.64C71.6714 178.951 36.8297 164.519 0.5 164.519V109.688Z" fill="#334194" fill-opacity="0.03"/>
</svg>
