<svg width="245" height="245" viewBox="0 0 245 245" fill="none" xmlns="http://www.w3.org/2000/svg">
<g clip-path="url(#clip0)">
<path d="M80.6656 209.888C78.4668 209.888 76.6848 208.105 76.6848 205.907C76.6848 203.709 74.9043 201.926 72.704 201.926C70.5038 201.926 68.7233 203.709 68.7233 205.907C68.7233 208.106 66.9408 209.888 64.7425 209.888C62.5423 209.888 60.7617 211.67 60.7617 213.869C60.7617 216.067 62.5423 217.849 64.7425 217.849C66.9413 217.849 68.7233 219.632 68.7233 221.83C68.7233 224.029 70.5038 225.811 72.704 225.811C74.9043 225.811 76.6848 224.029 76.6848 221.83C76.6848 219.631 78.4673 217.849 80.6656 217.849C82.8658 217.849 84.6464 216.067 84.6464 213.869C84.6464 211.67 82.8658 209.888 80.6656 209.888Z" fill="#FF8086"/>
<path d="M49.0629 153.631L38.2508 147.012L30.8673 151.467L29.2777 157.188C28.3259 160.612 29.76 164.253 32.7914 166.11L48.8557 175.944L52.5771 162.553C53.5288 159.128 52.0947 155.487 49.0629 153.631Z" fill="#A4CCFF"/>
<path d="M105.806 22.3132L114.1 27.3912L124.001 24.4766L125.591 18.7564C126.543 15.3316 125.108 11.6906 122.077 9.83445L106.013 0L102.291 13.3913C101.34 16.816 102.774 20.457 105.806 22.3132Z" fill="#A4CCFF"/>
<path d="M62.6349 58.7163L98.615 80.7433L109.078 78.1737L110.668 72.453C111.62 69.0283 110.185 65.3872 107.154 63.5311L69.6633 40.5796L60.7098 44.0742L59.1202 49.7943C58.1689 53.2191 59.603 56.8601 62.6349 58.7163Z" fill="#A4CCFF"/>
<path d="M112.666 43.6975L60.7109 44.0741L64.4324 30.6829C65.3841 27.2581 68.4911 24.879 72.0455 24.8531L124 24.4765L120.279 37.8678C119.327 41.2925 116.22 43.6717 112.666 43.6975Z" fill="#C3DDFF"/>
<path d="M47.714 112.413L84.1381 134.712L94.1573 131.87L95.7469 126.149C96.6987 122.724 95.2646 119.083 92.2327 117.227L52.6839 93.0153L45.7889 97.7703L44.1993 103.491C43.248 106.916 44.6821 110.557 47.714 112.413Z" fill="#A4CCFF"/>
<path d="M97.7439 97.3942L45.7891 97.7708L49.5105 84.3796C50.4622 80.9548 53.5692 78.5756 57.1237 78.5498L109.078 78.1732L105.357 91.5645C104.405 94.9897 101.299 97.3684 97.7439 97.3942Z" fill="#C3DDFF"/>
<path d="M82.823 151.091L30.8682 151.468L34.5896 138.077C35.5413 134.652 38.6483 132.273 42.2028 132.247L94.1576 131.87L90.4362 145.262C89.4844 148.686 86.3774 151.065 82.823 151.091Z" fill="#C3DDFF"/>
<path d="M175.088 225.13L163.147 224.321L157.96 231.643L159.201 237.449C159.944 240.925 162.902 243.487 166.449 243.727L185.241 245L182.335 231.409C181.592 227.933 178.634 225.37 175.088 225.13Z" fill="#95D6A4"/>
<path d="M164.534 82.4674L176.074 83.2488L181.662 75.9548L180.42 70.1489C179.677 66.673 176.719 64.1106 173.173 63.8703L154.381 62.5975L157.287 76.1888C158.03 79.6647 160.988 82.2272 164.534 82.4674Z" fill="#95D6A4"/>
<path d="M143.142 134.728L185.021 137.565L193.315 130.454L192.073 124.648C191.33 121.172 188.372 118.609 184.826 118.369L143.548 115.573L134.653 122.644L135.895 128.449C136.638 131.926 139.596 134.488 143.142 134.728Z" fill="#95D6A4"/>
<path d="M180.521 98.2397L134.653 122.644L131.747 109.053C131.004 105.577 132.655 102.029 135.793 100.359L181.661 75.9548L184.567 89.5461C185.31 93.022 183.659 96.5697 180.521 98.2397Z" fill="#B3E59F"/>
<path d="M154.796 189.228L196.292 192.038L204.969 184.954L203.727 179.148C202.984 175.672 200.026 173.109 196.479 172.869L154.669 170.037L146.307 177.144L147.548 182.949C148.292 186.425 151.249 188.987 154.796 189.228Z" fill="#95D6A4"/>
<path d="M192.175 152.739L146.307 177.144L143.401 163.552C142.658 160.076 144.309 156.529 147.447 154.859L193.315 130.454L196.221 144.046C196.965 147.522 195.313 151.069 192.175 152.739Z" fill="#B3E59F"/>
<path d="M203.83 207.239L157.961 231.643L155.055 218.052C154.312 214.576 155.963 211.028 159.101 209.358L204.969 184.954L207.875 198.545C208.619 202.021 206.968 205.569 203.83 207.239Z" fill="#B3E59F"/>
<path d="M212.033 42.6932C209.834 42.6932 208.052 40.9107 208.052 38.7124C208.052 36.5141 206.271 34.7316 204.071 34.7316C201.871 34.7316 200.09 36.5141 200.09 38.7124C200.09 40.9112 198.308 42.6932 196.11 42.6932C193.909 42.6932 192.129 44.4756 192.129 46.6739C192.129 48.8722 193.909 50.6547 196.11 50.6547C198.308 50.6547 200.09 52.4372 200.09 54.6355C200.09 56.8338 201.871 58.6162 204.071 58.6162C206.271 58.6162 208.052 56.8338 208.052 54.6355C208.052 52.4367 209.834 50.6547 212.033 50.6547C214.233 50.6547 216.014 48.8722 216.014 46.6739C216.014 44.4756 214.233 42.6932 212.033 42.6932Z" fill="#FF8086"/>
<path d="M120.474 178.041C113.879 178.041 108.532 172.694 108.532 166.099C108.532 163.9 106.75 162.118 104.551 162.118C102.353 162.118 100.571 163.9 100.571 166.099C100.571 172.695 95.2236 178.041 88.6282 178.041C86.4295 178.041 84.6475 179.823 84.6475 182.022C84.6475 184.22 86.4295 186.003 88.6282 186.003C95.2241 186.003 100.571 191.35 100.571 197.945C100.571 200.143 102.353 201.926 104.551 201.926C106.75 201.926 108.532 200.143 108.532 197.945C108.532 191.349 113.879 186.003 120.474 186.003C122.673 186.003 124.455 184.22 124.455 182.022C124.455 179.824 122.673 178.041 120.474 178.041Z" fill="#FFE07D"/>
<path d="M180.186 18.8081C173.59 18.8081 168.244 13.4611 168.244 6.86575C168.244 4.66697 166.462 2.88498 164.263 2.88498C162.064 2.88498 160.282 4.66697 160.282 6.86575C160.282 13.4616 154.936 18.8081 148.34 18.8081C146.141 18.8081 144.359 20.5901 144.359 22.7888C144.359 24.9871 146.141 26.7696 148.34 26.7696C154.936 26.7696 160.282 32.1165 160.282 38.7119C160.282 40.9102 162.064 42.6927 164.263 42.6927C166.462 42.6927 168.244 40.9102 168.244 38.7119C168.244 32.1161 173.591 26.7696 180.186 26.7696C182.385 26.7696 184.167 24.9871 184.167 22.7888C184.167 20.5905 182.385 18.8081 180.186 18.8081Z" fill="#FFE07D"/>
</g>
<defs>
<clipPath id="clip0">
<rect width="245" height="245" fill="white"/>
</clipPath>
</defs>
</svg>
