<svg width="16" height="16" viewBox="0 0 16 16" fill="none" xmlns="http://www.w3.org/2000/svg">
<path d="M10.4415 9.11999C10.4863 8.75039 10.5199 8.38079 10.5199 7.99999C10.5199 7.61919 10.4863 7.24959 10.4415 6.87999H12.3343C12.4239 7.23839 12.4799 7.61359 12.4799 7.99999C12.4799 8.38639 12.4239 8.76159 12.3343 9.11999H10.4415ZM9.4503 12.2336C9.7863 11.612 10.0439 10.94 10.2231 10.24H11.8751C11.3326 11.1742 10.4718 11.8819 9.4503 12.2336ZM9.3103 9.11999H6.6895C6.6335 8.75039 6.5999 8.38079 6.5999 7.99999C6.5999 7.61919 6.6335 7.24399 6.6895 6.87999H9.3103C9.3607 7.24399 9.3999 7.61919 9.3999 7.99999C9.3999 8.38079 9.3607 8.75039 9.3103 9.11999ZM7.9999 12.4576C7.5351 11.7856 7.1599 11.0408 6.9303 10.24H9.0695C8.8399 11.0408 8.4647 11.7856 7.9999 12.4576ZM5.7599 5.75999H4.1247C4.66166 4.82323 5.52179 4.11443 6.5439 3.76639C6.2079 4.38799 5.9559 5.05999 5.7599 5.75999ZM4.1247 10.24H5.7599C5.9559 10.94 6.2079 11.612 6.5439 12.2336C5.52393 11.8817 4.66502 11.1739 4.1247 10.24ZM3.6655 9.11999C3.5759 8.76159 3.5199 8.38639 3.5199 7.99999C3.5199 7.61359 3.5759 7.23839 3.6655 6.87999H5.5583C5.5135 7.24959 5.4799 7.61919 5.4799 7.99999C5.4799 8.38079 5.5135 8.75039 5.5583 9.11999H3.6655ZM7.9999 3.53679C8.4647 4.20879 8.8399 4.95919 9.0695 5.75999H6.9303C7.1599 4.95919 7.5351 4.20879 7.9999 3.53679ZM11.8751 5.75999H10.2231C10.0478 5.06641 9.7883 4.3969 9.4503 3.76639C10.4807 4.11919 11.3375 4.83039 11.8751 5.75999ZM7.9999 2.39999C4.9031 2.39999 2.3999 4.91999 2.3999 7.99999C2.3999 9.48521 2.9899 10.9096 4.0401 11.9598C4.56011 12.4798 5.17745 12.8923 5.85688 13.1737C6.5363 13.4551 7.2645 13.6 7.9999 13.6C9.48512 13.6 10.9095 13.01 11.9597 11.9598C13.0099 10.9096 13.5999 9.48521 13.5999 7.99999C13.5999 7.26459 13.4551 6.53639 13.1736 5.85697C12.8922 5.17754 12.4797 4.5602 11.9597 4.0402C11.4397 3.52019 10.8224 3.10769 10.1429 2.82627C9.46351 2.54484 8.73531 2.39999 7.9999 2.39999Z" fill="white"/>
</svg>
