<svg width="30" height="30" viewBox="0 0 30 30" fill="none" xmlns="http://www.w3.org/2000/svg">
<path d="M19.578 17.0149C19.662 16.3253 19.725 15.6357 19.725 14.9253C19.725 14.2149 19.662 13.5253 19.578 12.8357H23.127C23.295 13.5044 23.4 14.2044 23.4 14.9253C23.4 15.6462 23.295 16.3462 23.127 17.0149H19.578ZM17.7195 22.8238C18.3495 21.6641 18.8325 20.4104 19.1685 19.1044H22.266C21.2488 20.8474 19.6348 22.1677 17.7195 22.8238V22.8238ZM17.457 17.0149H12.543C12.438 16.3253 12.375 15.6357 12.375 14.9253C12.375 14.2149 12.438 13.5149 12.543 12.8357H17.457C17.5515 13.5149 17.625 14.2149 17.625 14.9253C17.625 15.6357 17.5515 16.3253 17.457 17.0149ZM15 23.2417C14.1285 21.988 13.425 20.5984 12.9945 19.1044H17.0055C16.575 20.5984 15.8715 21.988 15 23.2417ZM10.8 10.7462H7.73403C8.74083 8.99851 10.3536 7.67611 12.27 7.02679C11.64 8.18649 11.1675 9.44023 10.8 10.7462ZM7.73403 19.1044H10.8C11.1675 20.4104 11.64 21.6641 12.27 22.8238C10.3576 22.1673 8.74712 20.8468 7.73403 19.1044V19.1044ZM6.87303 17.0149C6.70503 16.3462 6.60003 15.6462 6.60003 14.9253C6.60003 14.2044 6.70503 13.5044 6.87303 12.8357H10.422C10.338 13.5253 10.275 14.2149 10.275 14.9253C10.275 15.6357 10.338 16.3253 10.422 17.0149H6.87303ZM15 6.59843C15.8715 7.85217 16.575 9.25217 17.0055 10.7462H12.9945C13.425 9.25217 14.1285 7.85217 15 6.59843V6.59843ZM22.266 10.7462H19.1685C18.8399 9.4522 18.3533 8.2031 17.7195 7.02679C19.6515 7.685 21.258 9.01187 22.266 10.7462ZM15 4.47754C9.19353 4.47754 4.50003 9.17903 4.50003 14.9253C4.50003 17.6962 5.60628 20.3536 7.57541 22.313C8.55042 23.2831 9.70793 24.0527 10.9819 24.5778C12.2558 25.1028 13.6211 25.3731 15 25.3731C17.7848 25.3731 20.4555 24.2723 22.4246 22.313C24.3938 20.3536 25.5 17.6962 25.5 14.9253C25.5 13.5533 25.2284 12.1947 24.7008 10.9271C24.1731 9.65953 23.3997 8.50778 22.4246 7.53762C21.4496 6.56745 20.2921 5.79788 19.0182 5.27283C17.7443 4.74778 16.3789 4.47754 15 4.47754V4.47754Z" fill="#686B6F"/>
</svg>
