<?xml version="1.0" encoding="utf-8"?>
<!-- Generator: Adobe Illustrator 23.0.1, SVG Export Plug-In . SVG Version: 6.00 Build 0)  -->
<svg version="1.1" id="Layer_1" xmlns="http://www.w3.org/2000/svg" xmlns:xlink="http://www.w3.org/1999/xlink" x="0px" y="0px"
	 viewBox="0 0 12 12" style="enable-background:new 0 0 12 12;" xml:space="preserve">
<style type="text/css">
	.st0{fill:#FFC20E;}
</style>
<path class="st0" d="M11.5,6.3L10.9,7L9.6,5.7l0.6-0.6c0.1-0.1,0.3-0.1,0.5,0l0.8,0.8C11.6,6,11.6,6.2,11.5,6.3z M5.5,9.8l3.7-3.7
	l1.3,1.3l-3.7,3.7H5.5V9.8z M5.5,6.7c-2.7,0-4.9,1.1-4.9,2.5v1.2h3.7V9.3l2.5-2.5C6.3,6.8,5.9,6.7,5.5,6.7z M5.5,0.6
	c-0.7,0-1.3,0.3-1.7,0.7C3.3,1.8,3,2.4,3,3s0.3,1.3,0.7,1.7c0.5,0.5,1.1,0.7,1.7,0.7s1.3-0.3,1.7-0.7C7.7,4.3,8,3.7,8,3
	S7.7,1.8,7.2,1.3C6.8,0.8,6.1,0.6,5.5,0.6z"/>
</svg>
