<svg width="12" height="12" viewBox="0 0 12 12" fill="none" xmlns="http://www.w3.org/2000/svg">
<path d="M11.4713 6.34238L10.8554 6.96003L9.59258 5.69385L10.2086 5.07621C10.3379 4.9465 10.5535 4.9465 10.6829 5.07621L11.4713 5.86679C11.6007 5.9965 11.6007 6.21268 11.4713 6.34238ZM5.49626 9.79503L9.22915 6.05209L10.4919 7.31827L6.7652 11.0674H5.49626V9.79503ZM5.49626 6.74385C2.7736 6.74385 0.568359 7.84944 0.568359 9.21444V10.4497H4.26429V9.28238L6.72824 6.81179C6.32168 6.76238 5.90897 6.74385 5.49626 6.74385ZM5.49626 0.567383C4.84278 0.567383 4.21606 0.827676 3.75398 1.291C3.2919 1.75433 3.03231 2.38273 3.03231 3.03797C3.03231 3.69321 3.2919 4.32162 3.75398 4.78494C4.21606 5.24827 4.84278 5.50856 5.49626 5.50856C6.14974 5.50856 6.77646 5.24827 7.23854 4.78494C7.70062 4.32162 7.96021 3.69321 7.96021 3.03797C7.96021 2.38273 7.70062 1.75433 7.23854 1.291C6.77646 0.827676 6.14974 0.567383 5.49626 0.567383Z" fill="white"/>
</svg>
