<svg width="10" height="13" viewBox="0 0 10 13" fill="none" xmlns="http://www.w3.org/2000/svg">
<path fill-rule="evenodd" clip-rule="evenodd" d="M3.36298 6.72006C3.94963 6.72006 4.42421 7.18194 4.42421 7.75078C4.42421 7.87667 4.40082 7.99687 4.35794 8.10855C4.55869 8.29691 4.83642 8.3376 5.04398 8.13695C5.12682 8.0565 5.17749 7.94576 5.17749 7.82272C5.17749 7.0731 5.45522 6.61973 5.74952 6.13986C5.99607 5.73666 6.24846 5.3202 6.24846 4.83844C6.24846 4.01784 5.56534 3.35435 4.72045 3.35435C3.87654 3.35435 3.19244 4.01689 3.19244 4.83844C3.19244 5.02111 3.22265 5.1877 3.28795 5.35901C3.37078 5.57386 3.25774 5.81427 3.03555 5.89472C2.81434 5.97517 2.56682 5.86538 2.48496 5.64958C2.38654 5.39403 2.33197 5.11103 2.33197 4.83844C2.33197 3.55879 3.40294 2.51955 4.71948 2.51955C6.03699 2.51955 7.10699 3.55879 7.10699 4.83844C7.10699 5.48868 6.82049 6.01871 6.48721 6.56389C6.25528 6.94248 6.03699 7.30025 6.03699 7.82272C6.03699 8.17576 5.88984 8.49567 5.65109 8.72756C5.41234 8.95945 5.08296 9.10237 4.71948 9.10237C4.40472 9.10237 3.96522 8.95093 3.76935 8.702C3.64364 8.75311 3.50623 8.78151 3.36103 8.78151C2.77439 8.78151 2.29981 8.31962 2.29981 7.75078C2.30078 7.18194 2.77634 6.72006 3.36298 6.72006ZM1.21909 5.86538C1.14016 5.66189 1.08071 5.45177 1.04173 5.23881C1.00373 5.03153 0.983265 4.81478 0.983265 4.59046C0.983265 3.58624 1.4023 2.67667 2.07957 2.01886C2.75685 1.36105 3.69333 0.954059 4.72727 0.954059C5.76121 0.954059 6.6977 1.36105 7.37498 2.01886C8.05225 2.67667 8.47128 3.58624 8.47128 4.59046C8.47128 5.74044 7.92167 6.67179 7.37303 7.60313C6.95399 8.31394 6.53496 9.02381 6.30985 9.87091C6.2621 10.0498 6.23384 10.1662 6.20558 10.2836C6.00191 11.1307 5.78168 12.045 4.7263 12.045C4.43687 12.045 4.16889 11.9627 3.9467 11.8216C3.71672 11.6759 3.53157 11.4657 3.41853 11.2178C3.30938 10.9764 3.01996 10.8676 2.77146 10.9736C2.52297 11.0796 2.4109 11.3607 2.52004 11.602C2.7091 12.0185 3.02191 12.3725 3.41268 12.6205C3.79176 12.8609 4.24392 13 4.7263 13C6.5603 13 6.87214 11.7014 7.16156 10.4994C7.19859 10.3451 7.23562 10.1908 7.25804 10.1094C7.44806 9.39483 7.83689 8.73608 8.22571 8.07637C8.83964 7.03524 9.45455 5.99221 9.45455 4.59046C9.45455 3.32312 8.9254 2.17503 8.06979 1.34401C7.21418 0.513942 6.03212 0 4.72727 0C3.42243 0 2.24036 0.513942 1.38476 1.34496C0.529151 2.17597 0 3.32406 0 4.59141C0 4.85832 0.0263114 5.13185 0.0769851 5.40728C0.126684 5.67608 0.20172 5.9411 0.301119 6.1976C0.395645 6.44368 0.677274 6.56862 0.930642 6.47681C1.18401 6.38595 1.31264 6.11147 1.21909 5.86538Z" fill="white"/>
</svg>
