<svg width="15" height="20" viewBox="0 0 15 20" fill="none" xmlns="http://www.w3.org/2000/svg">
<path fill-rule="evenodd" clip-rule="evenodd" d="M5.54445 10.5801C6.42441 10.5801 7.13628 11.2729 7.13628 12.1262C7.13628 12.315 7.1012 12.4953 7.03688 12.6628C7.338 12.9454 7.7546 13.0064 8.06595 12.7054C8.1902 12.5847 8.26621 12.4186 8.26621 12.2341C8.26621 11.1096 8.68281 10.4296 9.12425 9.70979C9.49407 9.10499 9.87266 8.4803 9.87266 7.75766C9.87266 6.52676 8.84798 5.53152 7.58065 5.53152C6.31478 5.53152 5.28864 6.52534 5.28864 7.75766C5.28864 8.03167 5.33395 8.28154 5.43189 8.53851C5.55614 8.86079 5.38658 9.2214 5.0533 9.34208C4.72148 9.46276 4.3502 9.29807 4.22742 8.97437C4.07978 8.59104 3.99792 8.16654 3.99792 7.75766C3.99792 5.83819 5.60438 4.27932 7.57919 4.27932C9.55546 4.27932 11.1605 5.83819 11.1605 7.75766C11.1605 8.73302 10.7307 9.52807 10.2308 10.3458C9.88289 10.9137 9.55546 11.4504 9.55546 12.2341C9.55546 12.7636 9.33474 13.2435 8.97661 13.5913C8.61849 13.9392 8.12442 14.1535 7.57919 14.1535C7.10705 14.1535 6.4478 13.9264 6.15399 13.553C5.96543 13.6297 5.75932 13.6723 5.54152 13.6723C4.66155 13.6723 3.94968 12.9794 3.94968 12.1262C3.95115 11.2729 4.66448 10.5801 5.54445 10.5801ZM2.32861 9.29807C2.21021 8.99283 2.12105 8.67765 2.06258 8.35821C2.00557 8.04729 1.97487 7.72217 1.97487 7.38569C1.97487 5.87936 2.60342 4.515 3.61933 3.52829C4.63524 2.54157 6.03998 1.93109 7.59088 1.93109C9.14179 1.93109 10.5465 2.54157 11.5624 3.52829C12.5783 4.515 13.2069 5.87936 13.2069 7.38569C13.2069 9.11067 12.3825 10.5077 11.5595 11.9047C10.931 12.9709 10.3024 14.0357 9.96475 15.3064C9.89313 15.5747 9.85074 15.7493 9.80835 15.9254C9.50284 17.196 9.17249 18.5675 7.58942 18.5675C7.15528 18.5675 6.75331 18.444 6.42003 18.2324C6.07506 18.0138 5.79733 17.6986 5.62776 17.3266C5.46405 16.9646 5.02991 16.8013 4.65717 16.9604C4.28442 17.1194 4.11632 17.541 4.28004 17.9031C4.56362 18.5277 5.03284 19.0587 5.61899 19.4307C6.18761 19.7913 6.86586 20 7.58942 20C10.3404 20 10.8082 18.0521 11.2423 16.2491C11.2979 16.0177 11.3534 15.7862 11.387 15.6641C11.6721 14.5922 12.2553 13.6041 12.8385 12.6146C13.7594 11.0529 14.6818 9.48831 14.6818 7.38569C14.6818 5.48467 13.8881 3.76254 12.6047 2.51602C11.3212 1.27091 9.54816 0.5 7.59088 0.5C5.63361 0.5 3.86052 1.27091 2.57711 2.51744C1.2937 3.76396 0.499973 5.48609 0.499973 7.38711C0.499973 7.78748 0.53944 8.19778 0.615451 8.61092C0.69 9.01412 0.802554 9.41165 0.951652 9.7964C1.09344 10.1655 1.51588 10.3529 1.89594 10.2152C2.27599 10.0789 2.46894 9.6672 2.32861 9.29807Z" fill="white"/>
</svg>
