<svg width="5" height="12" viewBox="0 0 5 12" fill="none" xmlns="http://www.w3.org/2000/svg">
<path d="M3.94968 0.5C3.67112 0.5 3.40397 0.608619 3.207 0.801964C3.01003 0.995308 2.89937 1.25754 2.89937 1.53097C2.89937 1.8044 3.01003 2.06663 3.207 2.25997C3.40397 2.45332 3.67112 2.56194 3.94968 2.56194C4.22825 2.56194 4.4954 2.45332 4.69237 2.25997C4.88934 2.06663 5 1.8044 5 1.53097C5 1.25754 4.88934 0.995308 4.69237 0.801964C4.4954 0.608619 4.22825 0.5 3.94968 0.5ZM3.69761 3.77848C2.86436 3.84721 0.588675 5.62735 0.588675 5.62735C0.448633 5.73045 0.490646 5.72357 0.602679 5.91602C0.714713 6.1016 0.700709 6.11534 0.833749 6.02599C0.973791 5.93664 1.20486 5.7923 1.58998 5.55862C3.07442 4.62387 1.82805 6.78203 1.19086 10.4179C0.93878 12.2187 2.59128 11.2908 3.0184 11.0159C3.43853 10.7478 4.56587 9.98491 4.6779 9.90931C4.83195 9.80621 4.71992 9.72373 4.60088 9.5519C4.51686 9.43506 4.43283 9.51754 4.43283 9.51754C3.97769 9.81308 3.14444 10.4317 3.03241 10.0399C2.89937 9.64813 3.75363 6.96074 4.22277 5.11187C4.29979 4.67199 4.50985 3.70975 3.69761 3.77848Z" fill="white"/>
</svg>
