<svg width="8" height="18" viewBox="0 0 8 18" fill="none" xmlns="http://www.w3.org/2000/svg">
<path d="M6.13277 0C5.63755 0 5.16262 0.177741 4.81244 0.494122C4.46227 0.810503 4.26554 1.23961 4.26554 1.68704C4.26554 2.13447 4.46227 2.56358 4.81244 2.87996C5.16262 3.19634 5.63755 3.37408 6.13277 3.37408C6.62799 3.37408 7.10293 3.19634 7.4531 2.87996C7.80328 2.56358 8 2.13447 8 1.68704C8 1.23961 7.80328 0.810503 7.4531 0.494122C7.10293 0.177741 6.62799 0 6.13277 0ZM5.68464 5.36479C4.2033 5.47725 0.157644 8.39021 0.157644 8.39021C-0.0913199 8.55891 -0.0166302 8.54767 0.182541 8.86258C0.381712 9.16625 0.356815 9.18874 0.593331 9.04253C0.842294 8.89632 1.25308 8.66013 1.93773 8.27774C4.57675 6.74816 2.36097 10.2797 1.22819 16.2293C0.780054 19.176 3.71782 17.6577 4.47716 17.2078C5.22406 16.7692 7.22821 15.5208 7.42738 15.397C7.70124 15.2283 7.50207 15.0934 7.29045 14.8122C7.14108 14.621 6.9917 14.756 6.9917 14.756C6.18256 15.2396 4.70123 16.2518 4.50206 15.6107C4.26554 14.9697 5.78422 10.5721 6.61825 7.54669C6.75518 6.82689 7.12863 5.25232 5.68464 5.36479Z" fill="#211F54"/>
</svg>
