<svg width="5" height="12" viewBox="0 0 5 12" fill="none" xmlns="http://www.w3.org/2000/svg">
<path d="M3.94968 0.57666C3.67112 0.57666 3.40397 0.68528 3.207 0.878624C3.01003 1.07197 2.89937 1.3342 2.89937 1.60763C2.89937 1.88106 3.01003 2.14329 3.207 2.33663C3.40397 2.52998 3.67112 2.6386 3.94968 2.6386C4.22825 2.6386 4.4954 2.52998 4.69237 2.33663C4.88934 2.14329 5 1.88106 5 1.60763C5 1.3342 4.88934 1.07197 4.69237 0.878624C4.4954 0.68528 4.22825 0.57666 3.94968 0.57666ZM3.69761 3.85514C2.86436 3.92387 0.588675 5.70401 0.588675 5.70401C0.448633 5.80711 0.490646 5.80023 0.602679 5.99268C0.714713 6.17826 0.700709 6.192 0.833749 6.10265C0.973791 6.0133 1.20486 5.86896 1.58998 5.63528C3.07442 4.70053 1.82805 6.8587 1.19086 10.4946C0.93878 12.2953 2.59128 11.3675 3.0184 11.0925C3.43853 10.8245 4.56587 10.0616 4.6779 9.98597C4.83195 9.88287 4.71992 9.80039 4.60088 9.62856C4.51686 9.51172 4.43283 9.5942 4.43283 9.5942C3.97769 9.88974 3.14444 10.5083 3.03241 10.1166C2.89937 9.72479 3.75363 7.0374 4.22277 5.18853C4.29979 4.74865 4.50985 3.78641 3.69761 3.85514Z" fill="#EE3048"/>
</svg>
