<?xml version="1.0" encoding="utf-8"?>
<!-- Generator: Adobe Illustrator 23.0.1, SVG Export Plug-In . SVG Version: 6.00 Build 0)  -->
<svg version="1.1" id="Layer_1" xmlns="http://www.w3.org/2000/svg" xmlns:xlink="http://www.w3.org/1999/xlink" x="0px" y="0px"
	 viewBox="0 0 18 18" style="enable-background:new 0 0 18 18;" xml:space="preserve">
<style type="text/css">
	.st0{fill:#0AB1B1;}
</style>
<path class="st0" d="M15,0H3C1.3,0,0,1.3,0,3v12c0,1.7,1.3,3,3,3h12c1.7,0,3-1.3,3-3V3C18,1.3,16.7,0,15,0z M9,6c1.7,0,3,1.3,3,3
	s-1.3,3-3,3s-3-1.3-3-3S7.3,6,9,6z M12.8,4c0-0.7,0.6-1.2,1.2-1.2s1.2,0.6,1.2,1.2S14.7,5.2,14,5.2S12.8,4.7,12.8,4z M15,16H3
	c-0.6,0-1-0.4-1-1V9h2c0,2.8,2.2,5,5,5s5-2.2,5-5h2v6C16,15.6,15.6,16,15,16z"/>
</svg>
