<svg width="18" height="18" viewBox="0 0 18 18" fill="none" xmlns="http://www.w3.org/2000/svg">
<path d="M16.3604 0.360352H1.63595C0.931792 0.360352 0.360352 0.918352 0.360352 1.60547V16.3936C0.360352 17.0816 0.931792 17.6404 1.63595 17.6404H16.3604C17.0651 17.6404 17.6404 17.0816 17.6404 16.3936V1.60547C17.6404 0.918352 17.0651 0.360352 16.3604 0.360352ZM5.48531 15.0853H2.92115V6.83915H5.48531V15.0853ZM4.20323 5.71163C4.00806 5.71163 3.8148 5.67317 3.6345 5.59846C3.45419 5.52374 3.29038 5.41422 3.15241 5.27617C3.01445 5.13812 2.90504 4.97423 2.83044 4.79388C2.75584 4.61353 2.71751 4.42024 2.71763 4.22507C2.71763 3.8311 2.87414 3.45326 3.15272 3.17468C3.4313 2.8961 3.80914 2.73959 4.20311 2.73959C4.59709 2.73959 4.97492 2.8961 5.2535 3.17468C5.53209 3.45326 5.68859 3.8311 5.68859 4.22507C5.68859 4.61912 5.53214 4.99705 5.25361 5.2758C4.97509 5.55455 4.59728 5.71131 4.20323 5.71163ZM15.0844 15.0853H12.5243V11.0754C12.5243 10.1188 12.5056 8.88875 11.192 8.88875C9.85811 8.88875 9.65483 9.93059 9.65483 11.006V15.0856H7.09283V6.83915H9.55163V7.96523H9.58667C9.92891 7.31723 10.7651 6.63347 12.0121 6.63347C14.6056 6.63347 15.0846 8.34083 15.0846 10.562L15.0844 15.0853Z" fill="#0AB1B1"/>
</svg>
