<svg width="30" height="30" viewBox="0 0 30 30" fill="none" xmlns="http://www.w3.org/2000/svg">
<g clip-path="url(#clip0)">
<path d="M20.2209 4.48608H9.76249C6.86479 4.48608 4.5 6.83911 4.5 9.72239V20.1453C4.5 23.012 6.86479 25.365 9.76249 25.365H20.2375C23.1352 25.365 25.5 23.012 25.5 20.1287V9.72239C25.4833 6.83911 23.1186 4.48608 20.2209 4.48608ZM11.4944 21.3881H8.49683V12.7714H11.4944V21.3881ZM9.97898 11.4457C9.12966 11.4457 8.44687 10.7663 8.44687 9.92124C8.44687 9.07614 9.12966 8.39675 9.97898 8.39675C10.8283 8.39675 11.5111 9.07614 11.5111 9.92124C11.4944 10.7663 10.8117 11.4457 9.97898 11.4457ZM21.5032 21.3881H21.4865H18.9885V17.2123C18.9885 16.2015 18.8553 14.909 17.473 14.909C16.0575 14.909 15.8243 16.0026 15.8243 17.146V21.3881H13.3263V12.7714H15.6578V13.9313H15.7244C16.0908 13.2685 16.9401 12.7548 18.2724 12.7548C21.0202 12.7548 21.5032 14.329 21.5032 16.6655V21.3881Z" fill="#525252"/>
</g>
<defs>
<clipPath id="clip0">
<rect width="21" height="20.8955" fill="white" transform="translate(4.49959 4.47766)"/>
</clipPath>
</defs>
</svg>
