<svg width="9" height="9" viewBox="0 0 9 9" fill="none" xmlns="http://www.w3.org/2000/svg">
<g clip-path="url(#clip0)">
<path d="M5.62494 4.87492C5.41758 4.87492 5.24997 5.04294 5.24997 5.2499V6.74992C5.24997 6.95653 5.08195 7.1249 4.87493 7.1249H3.74994V1.49996C3.74994 1.17971 3.54594 0.893591 3.23922 0.787093L3.12819 0.749946H4.87493C5.08195 0.749946 5.24997 0.91831 5.24997 1.12499V2.24997C5.24997 2.45693 5.41758 2.62495 5.62494 2.62495C5.83231 2.62495 5.99991 2.45693 5.99991 2.24997V1.12499C5.99991 0.504748 5.49517 0 4.87493 0H0.843741C0.829459 0 0.817512 0.00638574 0.803641 0.00823965C0.785583 0.00672906 0.768348 0 0.750015 0C0.336384 0 0 0.336315 0 0.749946V7.49987C0 7.82012 0.204 8.10624 0.510722 8.21274L2.7675 8.96502C2.84399 8.98864 2.92007 8.9999 2.99999 8.9999C3.41362 8.9999 3.74994 8.66352 3.74994 8.24989V7.87491H4.87493C5.49517 7.87491 5.99991 7.37016 5.99991 6.74992V5.2499C5.99991 5.04294 5.83231 4.87492 5.62494 4.87492Z" fill="white"/>
<path d="M8.89012 3.48494L7.39009 1.98498C7.2829 1.87772 7.12161 1.84545 6.9814 1.90354C6.84153 1.9617 6.75 2.09855 6.75 2.25009V3.37507H5.25004C5.04302 3.37507 4.875 3.54303 4.875 3.75005C4.875 3.95707 5.04302 4.12502 5.25004 4.12502H6.75V5.25001C6.75 5.40155 6.84153 5.5384 6.9814 5.59656C7.12161 5.65465 7.2829 5.62237 7.39009 5.51519L8.89012 4.01516C9.03672 3.86856 9.03672 3.63153 8.89012 3.48494Z" fill="white"/>
</g>
<defs>
<clipPath id="clip0">
<rect width="9" height="9" fill="white"/>
</clipPath>
</defs>
</svg>
