<svg width="30" height="30" viewBox="0 0 30 30" fill="none" xmlns="http://www.w3.org/2000/svg">
<mask id="mask0" mask-type="alpha" maskUnits="userSpaceOnUse" x="4" y="6" width="21" height="17">
<rect x="4" y="6.79999" width="21" height="15.4" rx="3" fill="#0AB1B1"/>
</mask>
<g mask="url(#mask0)">
<path d="M22.375 6.79999H6.625C5.92904 6.80068 5.26179 7.05903 4.76967 7.51834C4.27755 7.97766 4.00074 8.60042 4 9.24999V19.75C4.00074 20.3996 4.27755 21.0223 4.76967 21.4816C5.26179 21.9409 5.92904 22.1993 6.625 22.2H22.375C23.071 22.1993 23.7382 21.9409 24.2303 21.4816C24.7225 21.0223 24.9993 20.3996 25 19.75V9.24999C24.9993 8.60042 24.7225 7.97766 24.2303 7.51834C23.7382 7.05903 23.071 6.80068 22.375 6.79999ZM21.7103 10.8526L14.9603 15.7526C14.8287 15.8481 14.6667 15.8999 14.5 15.8999C14.3333 15.8999 14.1713 15.8481 14.0397 15.7526L7.28969 10.8526C7.21038 10.7967 7.14377 10.7266 7.09372 10.6465C7.04367 10.5663 7.01118 10.4777 6.99815 10.3858C6.98511 10.2938 6.99179 10.2004 7.01778 10.1108C7.04378 10.0213 7.08858 9.9375 7.14958 9.86427C7.21058 9.79105 7.28656 9.72987 7.37311 9.68429C7.45967 9.63871 7.55506 9.60964 7.65376 9.59877C7.75245 9.58789 7.85248 9.59544 7.94802 9.62096C8.04357 9.64648 8.13272 9.68947 8.21031 9.74743L14.5 14.3132L20.7897 9.74743C20.947 9.63657 21.1447 9.58795 21.3401 9.61208C21.5354 9.63621 21.7128 9.73115 21.8338 9.87637C21.9547 10.0216 22.0096 10.2054 21.9865 10.3881C21.9634 10.5708 21.8642 10.7376 21.7103 10.8526Z" fill="white"/>
</g>
</svg>
