<svg width="20" height="20" viewBox="0 0 20 20" fill="none" xmlns="http://www.w3.org/2000/svg">
<path d="M10.3665 3.66602C8.0445 3.66602 6.1665 5.54402 6.1665 7.86601C6.1665 11.016 10.3665 15.666 10.3665 15.666C10.3665 15.666 14.5665 11.016 14.5665 7.86601C14.5665 5.54402 12.6885 3.66602 10.3665 3.66602ZM10.3665 9.36601C9.96868 9.36601 9.58715 9.20798 9.30584 8.92667C9.02454 8.64537 8.8665 8.26384 8.8665 7.86601C8.8665 7.46819 9.02454 7.08666 9.30584 6.80536C9.58715 6.52405 9.96868 6.36602 10.3665 6.36602C10.7643 6.36602 11.1459 6.52405 11.4272 6.80536C11.7085 7.08666 11.8665 7.46819 11.8665 7.86601C11.8665 8.26384 11.7085 8.64537 11.4272 8.92667C11.1459 9.20798 10.7643 9.36601 10.3665 9.36601Z" fill="white"/>
</svg>
