<svg width="12" height="12" viewBox="0 0 12 12" fill="none" xmlns="http://www.w3.org/2000/svg">
<path fill-rule="evenodd" clip-rule="evenodd" d="M7.43186 11.6891C6.83693 11.5171 7.10643 10.637 7.70137 10.8089C8.64556 11.0833 9.59342 10.8472 9.90143 9.84677C10.0765 9.27662 9.9491 8.92384 9.93076 8.38932C9.91518 7.92697 10.0013 7.44234 10.533 7.12163C10.5954 7.08421 10.9749 6.86061 10.973 6.85705C10.6632 6.34302 10.3644 5.83078 10.0362 5.32655C9.87851 5.08424 9.92251 4.86241 9.9821 4.56309C10.104 3.95552 9.9546 3.41833 9.65026 2.95509C8.66939 1.46557 6.72693 0.744866 4.95496 0.959563C1.76945 1.3462 -0.387528 5.00584 1.9097 8.61738C2.43772 9.44766 2.98865 10.3127 3.24349 11.4485C3.37458 12.0392 2.45147 12.2325 2.31947 11.6427C2.09763 10.6557 1.59253 9.86102 1.1076 9.09844C-1.57464 4.88201 0.995761 0.579167 4.75145 0.0589055C6.9836 -0.250222 9.19649 0.670925 10.4579 2.50253C10.951 3.21878 11.1802 4.05084 10.8841 4.92477C11.2178 5.43702 11.4717 5.87086 11.7861 6.39202C12.2601 7.17775 11.8952 7.39156 11.1921 7.80314C10.8942 7.97775 10.8621 8.03654 10.8786 8.41694C10.9052 9.03787 11.0198 9.41381 10.8071 10.1069C10.3479 11.6018 8.87932 12.1095 7.43186 11.6891ZM8.13221 7.21428C8.31464 7.037 8.31464 6.74747 8.13221 6.57019L5.10988 3.63303C4.92746 3.45575 4.62953 3.45575 4.44711 3.63303L3.66242 4.3956C3.48 4.57289 3.48 4.86241 3.66242 5.03969L6.68476 7.97685C6.86718 8.15413 7.1651 8.15413 7.34752 7.97685L8.13221 7.21428ZM4.44711 7.97775C4.62953 8.15503 4.92746 8.15503 5.10988 7.97775L5.61681 7.4851L4.16935 6.07844L3.66242 6.57108C3.48 6.74836 3.48 7.03789 3.66242 7.21517L4.44711 7.97775ZM6.17691 4.12567L7.62437 5.53234L8.1313 5.03969C8.31372 4.86241 8.31372 4.57289 8.1313 4.3956L7.34661 3.63303C7.16419 3.45575 6.86626 3.45575 6.68384 3.63303L6.17691 4.12567Z" fill="white"/>
</svg>
