<svg width="11" height="14" viewBox="0 0 11 14" fill="none" xmlns="http://www.w3.org/2000/svg">
<path d="M2.38319 10.3461C2.38319 9.98675 2.65997 9.69603 3.00143 9.69603H8.04344C8.38489 9.69603 8.66167 9.98675 8.66167 10.3461C8.66167 10.7054 8.38489 10.9962 8.04344 10.9962H3.00143C2.65997 10.9962 2.38319 10.7054 2.38319 10.3461Z" fill="white"/>
<path d="M3.00143 7.74834C2.65997 7.74834 2.38319 8.03906 2.38319 8.39841C2.38319 8.75775 2.65997 9.04847 3.00143 9.04847H5.53192C5.87338 9.04847 6.15016 8.75775 6.15016 8.39841C6.15016 8.03906 5.87338 7.74834 5.53192 7.74834H3.00143Z" fill="white"/>
<path fill-rule="evenodd" clip-rule="evenodd" d="M6.34061 0.597656H1.75279C1.06246 0.597656 0.5 1.17909 0.5 1.89778V12.2975C0.5 13.0137 1.06276 13.5977 1.75694 13.5977H9.28851C9.98388 13.5977 10.5455 13.0162 10.5455 12.2975V4.9522C10.5455 4.77627 10.4467 4.52548 10.325 4.39946L6.8746 0.825989C6.75445 0.701217 6.51386 0.597656 6.34061 0.597656ZM1.75635 12.295H9.28881L9.29029 6.44447H5.52302C5.17653 6.44447 4.89529 6.15376 4.89529 5.79441V1.89529H1.75338C1.75635 1.89529 1.75635 12.295 1.75635 12.295ZM9.29029 5.1456L6.15105 1.89529V5.14435L9.29029 5.1456Z" fill="white"/>
</svg>
