<svg width="14" height="14" viewBox="0 0 14 14" fill="none" xmlns="http://www.w3.org/2000/svg">
<path d="M11.545 2.4625C9.81836 0.741667 7.01836 0.741667 5.30336 2.4625C4.09586 3.65833 3.73419 5.37917 4.20086 6.89583L1.45919 9.6375C1.26669 9.83583 1.13253 10.2267 1.17336 10.5067L1.34836 11.7783C1.41253 12.1983 1.80336 12.595 2.22336 12.6533L3.49502 12.8283C3.77502 12.8692 4.16586 12.7408 4.36419 12.5367L4.84253 12.0583C4.95919 11.9475 4.95919 11.7608 4.84253 11.6442L3.71086 10.5125C3.54169 10.3433 3.54169 10.0633 3.71086 9.89417C3.88003 9.725 4.16003 9.725 4.32919 9.89417L5.46669 11.0317C5.57753 11.1425 5.76419 11.1425 5.87502 11.0317L7.11169 9.80083C8.62252 10.2733 10.3434 9.90583 11.545 8.71C13.2659 6.98917 13.2659 4.18333 11.545 2.4625ZM8.45919 7.00083C7.65419 7.00083 7.00086 6.3475 7.00086 5.5425C7.00086 4.7375 7.65419 4.08417 8.45919 4.08417C9.26419 4.08417 9.91752 4.7375 9.91752 5.5425C9.91752 6.3475 9.26419 7.00083 8.45919 7.00083Z" fill="#fff"/>
</svg>
