<svg width="12" height="12" viewBox="0 0 12 12" fill="none" xmlns="http://www.w3.org/2000/svg">
<path d="M9.89532 7.46516C8.86532 8.49016 7.39032 8.80516 6.09532 8.40016L3.74032 10.7502C3.57032 10.9252 3.23532 11.0302 2.99532 10.9952L1.90532 10.8452C1.54532 10.7952 1.21032 10.4552 1.15532 10.0952L1.00532 9.00516C0.970317 8.76516 1.08532 8.43016 1.25032 8.26016L3.60032 5.91016C3.20032 4.61016 3.51032 3.13516 4.54032 2.11016C6.01532 0.635156 8.41032 0.635156 9.89032 2.11016C11.3703 3.58516 11.3703 5.99016 9.89532 7.46516Z" stroke="black" stroke-width="0.75" stroke-miterlimit="10" stroke-linecap="round" stroke-linejoin="round"/>
<path d="M3.44531 8.74609L4.59531 9.89609" stroke="black" stroke-width="0.75" stroke-miterlimit="10" stroke-linecap="round" stroke-linejoin="round"/>
<path d="M7.25 5.5C7.66421 5.5 8 5.16421 8 4.75C8 4.33579 7.66421 4 7.25 4C6.83579 4 6.5 4.33579 6.5 4.75C6.5 5.16421 6.83579 5.5 7.25 5.5Z" stroke="black" stroke-width="0.75" stroke-linecap="round" stroke-linejoin="round"/>
</svg>
