<?xml version="1.0" encoding="utf-8"?>
<!-- Generator: Adobe Illustrator 23.0.1, SVG Export Plug-In . SVG Version: 6.00 Build 0)  -->
<svg version="1.1" id="Layer_1" xmlns="http://www.w3.org/2000/svg" xmlns:xlink="http://www.w3.org/1999/xlink" x="0px" y="0px"
	 viewBox="0 0 18 18" style="enable-background:new 0 0 18 18;" xml:space="preserve">
<style type="text/css">
	.st0{fill-rule:evenodd;clip-rule:evenodd;fill:#211F54;}
</style>
<path class="st0" d="M15.2,0v2.5h2.5v1.7h-2.5v2.5c0,0-1.7,0-1.7,0V4.2h-2.5c0,0,0-1.7,0-1.7h2.5V0H15.2z M13.6,15.8H1.9V4.2h7.5
	V2.5H1.9C1,2.5,0.2,3.2,0.2,4.2v11.7c0,0.9,0.8,1.7,1.7,1.7h11.7c0.9,0,1.7-0.8,1.7-1.7V8.3h-1.7V15.8z M7.1,13.2l-1.6-2l-2.3,2.9
	h9.2l-2.9-3.9L7.1,13.2z"/>
</svg>
