<svg width="18" height="18" viewBox="0 0 18 18" fill="none" xmlns="http://www.w3.org/2000/svg">
<path fill-rule="evenodd" clip-rule="evenodd" d="M15.25 0V2.5H17.75V4.16667H15.25V6.65833C15.25 6.65833 13.5917 6.66667 13.5833 6.65833V4.16667H11.0833C11.0833 4.16667 11.0917 2.50833 11.0833 2.5H13.5833V0H15.25ZM13.5833 15.8333H1.91667V4.16667H9.41667V2.5H1.91667C1 2.5 0.25 3.25 0.25 4.16667V15.8333C0.25 16.75 1 17.5 1.91667 17.5H13.5833C14.5 17.5 15.25 16.75 15.25 15.8333V8.33333H13.5833V15.8333ZM7.09167 13.1917L5.45833 11.225L3.16667 14.1667H12.3333L9.38333 10.2417L7.09167 13.1917Z" fill="white"/>
</svg>
