<svg width="30" height="30" viewBox="0 0 30 30" fill="none" xmlns="http://www.w3.org/2000/svg">
<path d="M21.4167 21.4167V8.58333H8.58333V21.4167H21.4167ZM21.4167 6.75C21.9029 6.75 22.3692 6.94315 22.713 7.28697C23.0568 7.63079 23.25 8.0971 23.25 8.58333V21.4167C23.25 21.9029 23.0568 22.3692 22.713 22.713C22.3692 23.0568 21.9029 23.25 21.4167 23.25H8.58333C8.0971 23.25 7.63079 23.0568 7.28697 22.713C6.94315 22.3692 6.75 21.9029 6.75 21.4167V8.58333C6.75 7.56583 7.575 6.75 8.58333 6.75H21.4167ZM14.0833 10.4167H15.9167V14.0833H19.5833V15.9167H15.9167V19.5833H14.0833V15.9167H10.4167V14.0833H14.0833V10.4167Z" fill="#686B6F"/>
</svg>
