<svg width="12" height="12" viewBox="0 0 12 12" fill="none" xmlns="http://www.w3.org/2000/svg">
<path d="M9.85 5.45H7.65V7.65H6.55V5.45H4.35V4.35H6.55V2.15H7.65V4.35H9.85V5.45ZM10.4 0.5H3.8C3.50826 0.5 3.22847 0.615892 3.02218 0.822183C2.81589 1.02847 2.7 1.30826 2.7 1.6V8.2C2.7 8.49174 2.81589 8.77153 3.02218 8.97782C3.22847 9.18411 3.50826 9.3 3.8 9.3H10.4C10.6917 9.3 10.9715 9.18411 11.1778 8.97782C11.3841 8.77153 11.5 8.49174 11.5 8.2V1.6C11.5 1.30826 11.3841 1.02847 11.1778 0.822183C10.9715 0.615892 10.6917 0.5 10.4 0.5ZM1.6 2.7H0.5V10.4C0.5 10.6917 0.615892 10.9715 0.822183 11.1778C1.02847 11.3841 1.30826 11.5 1.6 11.5H9.3V10.4H1.6V2.7Z" fill="white"/>
</svg>
