<svg width="12" height="12" viewBox="0 0 12 12" fill="none" xmlns="http://www.w3.org/2000/svg">
<path d="M2.5 5H3.5C4.5 5 5 4.5 5 3.5V2.5C5 1.5 4.5 1 3.5 1H2.5C1.5 1 1 1.5 1 2.5V3.5C1 4.5 1.5 5 2.5 5Z" stroke="black" stroke-width="0.875" stroke-miterlimit="10" stroke-linecap="round" stroke-linejoin="round"/>
<path d="M8.5 5H9.5C10.5 5 11 4.5 11 3.5V2.5C11 1.5 10.5 1 9.5 1H8.5C7.5 1 7 1.5 7 2.5V3.5C7 4.5 7.5 5 8.5 5Z" stroke="black" stroke-width="0.875" stroke-miterlimit="10" stroke-linecap="round" stroke-linejoin="round"/>
<path d="M8.5 11H9.5C10.5 11 11 10.5 11 9.5V8.5C11 7.5 10.5 7 9.5 7H8.5C7.5 7 7 7.5 7 8.5V9.5C7 10.5 7.5 11 8.5 11Z" stroke="black" stroke-width="0.875" stroke-miterlimit="10" stroke-linecap="round" stroke-linejoin="round"/>
<path d="M2.5 11H3.5C4.5 11 5 10.5 5 9.5V8.5C5 7.5 4.5 7 3.5 7H2.5C1.5 7 1 7.5 1 8.5V9.5C1 10.5 1.5 11 2.5 11Z" stroke="black" stroke-width="0.875" stroke-miterlimit="10" stroke-linecap="round" stroke-linejoin="round"/>
</svg>
