<svg width="12" height="12" viewBox="0 0 12 12" fill="none" xmlns="http://www.w3.org/2000/svg">
<path d="M6 6C7.38071 6 8.5 4.88071 8.5 3.5C8.5 2.11929 7.38071 1 6 1C4.61929 1 3.5 2.11929 3.5 3.5C3.5 4.88071 4.61929 6 6 6Z" stroke="black" stroke-width="0.875" stroke-linecap="round" stroke-linejoin="round"/>
<path d="M9.60503 7.86855L7.83501 9.63856C7.76501 9.70856 7.70002 9.83855 7.68502 9.93355L7.59002 10.6085C7.55502 10.8535 7.72502 11.0235 7.97002 10.9885L8.64501 10.8935C8.74001 10.8785 8.87502 10.8135 8.94002 10.7435L10.71 8.97356C11.015 8.66856 11.16 8.31354 10.71 7.86354C10.265 7.41854 9.91003 7.56354 9.60503 7.86855Z" stroke="black" stroke-width="0.875" stroke-miterlimit="10" stroke-linecap="round" stroke-linejoin="round"/>
<path d="M9.3501 8.125C9.5001 8.665 9.92008 9.08499 10.4601 9.23499" stroke="black" stroke-width="0.875" stroke-miterlimit="10" stroke-linecap="round" stroke-linejoin="round"/>
<path d="M1.70508 11C1.70508 9.065 3.63009 7.5 6.00009 7.5C6.52009 7.5 7.02008 7.575 7.48508 7.715" stroke="black" stroke-width="0.875" stroke-linecap="round" stroke-linejoin="round"/>
</svg>
