<svg width="12" height="12" viewBox="0 0 12 12" fill="none" xmlns="http://www.w3.org/2000/svg">
<path d="M6.01004 1.45703C4.35504 1.45703 3.01004 2.80203 3.01004 4.45703V5.90203C3.01004 6.20703 2.88004 6.67203 2.72504 6.93203L2.15004 7.88703C1.79504 8.47703 2.04004 9.13203 2.69004 9.35203C4.84504 10.072 7.17004 10.072 9.32504 9.35203C9.93004 9.15203 10.195 8.43703 9.86504 7.88703L9.29004 6.93203C9.14004 6.67203 9.01004 6.20703 9.01004 5.90203V4.45703C9.01004 2.80703 7.66004 1.45703 6.01004 1.45703Z" stroke="black" stroke-width="0.875" stroke-miterlimit="10" stroke-linecap="round"/>
<path d="M6.93496 1.59875C6.77996 1.55375 6.61996 1.51875 6.45496 1.49875C5.97496 1.43875 5.51496 1.47375 5.08496 1.59875C5.22996 1.22875 5.58996 0.96875 6.00996 0.96875C6.42996 0.96875 6.78996 1.22875 6.93496 1.59875Z" stroke="black" stroke-width="0.875" stroke-miterlimit="10" stroke-linecap="round" stroke-linejoin="round"/>
<path d="M7.51001 9.53125C7.51001 10.3562 6.83501 11.0312 6.01001 11.0312C5.60001 11.0312 5.22001 10.8613 4.95001 10.5913C4.68001 10.3213 4.51001 9.94125 4.51001 9.53125" stroke="black" stroke-width="0.875" stroke-miterlimit="10"/>
</svg>
