<svg width="12" height="12" viewBox="0 0 12 12" fill="none" xmlns="http://www.w3.org/2000/svg">
<path d="M11.4713 6.34141L10.8554 6.95905L9.59258 5.69288L10.2086 5.07523C10.3379 4.94552 10.5535 4.94552 10.6829 5.07523L11.4713 5.86582C11.6007 5.99552 11.6007 6.2117 11.4713 6.34141ZM5.49626 9.79405L9.22915 6.05111L10.4919 7.31729L6.7652 11.0664H5.49626V9.79405ZM5.49626 6.74288C2.7736 6.74288 0.568359 7.84846 0.568359 9.21346V10.4488H4.26429V9.28141L6.72824 6.81082C6.32168 6.76141 5.90897 6.74288 5.49626 6.74288ZM5.49626 0.566406C4.84278 0.566406 4.21606 0.8267 3.75398 1.29002C3.2919 1.75335 3.03231 2.38175 3.03231 3.03699C3.03231 3.69224 3.2919 4.32064 3.75398 4.78396C4.21606 5.24729 4.84278 5.50758 5.49626 5.50758C6.14974 5.50758 6.77646 5.24729 7.23854 4.78396C7.70062 4.32064 7.96021 3.69224 7.96021 3.03699C7.96021 2.38175 7.70062 1.75335 7.23854 1.29002C6.77646 0.8267 6.14974 0.566406 5.49626 0.566406Z" fill="white"/>
</svg>
