<svg width="12" height="12" viewBox="0 0 12 12" fill="none" xmlns="http://www.w3.org/2000/svg">
<path fill-rule="evenodd" clip-rule="evenodd" d="M7.67874 7.2381H8.16778L11.2568 10.3333L10.3344 11.2557L7.23921 8.16667V7.67762L7.07207 7.50429C6.36635 8.11096 5.45016 8.47619 4.4535 8.47619C2.23112 8.47619 0.429688 6.67476 0.429688 4.45238C0.429688 2.23 2.23112 0.428574 4.4535 0.428574C6.67588 0.428574 8.47731 2.23 8.47731 4.45238C8.47731 5.44905 8.11207 6.36524 7.5054 7.07095L7.67874 7.2381ZM1.66772 4.45239C1.66772 5.99381 2.91201 7.2381 4.45344 7.2381C5.99487 7.2381 7.23915 5.99381 7.23915 4.45239C7.23915 2.91096 5.99487 1.66667 4.45344 1.66667C2.91201 1.66667 1.66772 2.91096 1.66772 4.45239Z" fill="white"/>
</svg>
