<svg width="8" height="8" viewBox="0 0 8 8" fill="none" xmlns="http://www.w3.org/2000/svg">
<path d="M7.91599 3.53294C7.83379 3.3632 7.69674 3.22616 7.52703 3.14397L1.2035 0.0840462C0.786936 -0.117771 0.28566 0.056333 0.083843 0.472898C-0.0189723 0.685142 -0.0276153 0.930894 0.0600585 1.14983L1.15965 3.89826L0.0600585 6.64698C-0.111213 7.07816 0.0994921 7.56655 0.530675 7.73781C0.62817 7.77654 0.732066 7.79665 0.836976 7.79713C0.963904 7.79713 1.08919 7.76848 1.2035 7.71332L7.52701 4.65256C7.94361 4.45079 8.11776 3.94952 7.91599 3.53294ZM0.960172 7.20962C0.821295 7.27685 0.654214 7.21877 0.586985 7.07989C0.552724 7.00915 0.549876 6.92723 0.579111 6.85426L1.64964 4.17762H7.22613L0.960172 7.20962ZM1.64966 3.61889L0.579128 0.942254C0.534571 0.835559 0.562235 0.712348 0.648124 0.634954C0.731264 0.553942 0.8568 0.534938 0.960172 0.587745L7.22613 3.61889H1.64966Z" fill="white"/>
</svg>
