<svg width="11" height="13" viewBox="0 0 11 13" fill="none" xmlns="http://www.w3.org/2000/svg">
<path d="M9.16691 9.05697C8.70247 9.05697 8.28691 9.23929 7.96913 9.52492L3.61191 7.00282C3.64247 6.86304 3.66691 6.72327 3.66691 6.57741C3.66691 6.43155 3.64247 6.29177 3.61191 6.152L7.92024 3.65421C8.25024 3.95807 8.68413 4.14647 9.16691 4.14647C9.65314 4.14647 10.1195 3.95438 10.4633 3.61247C10.8071 3.27055 11.0002 2.80681 11.0002 2.32327C11.0002 1.83972 10.8071 1.37598 10.4633 1.03407C10.1195 0.692148 9.65314 0.500061 9.16691 0.500061C8.68068 0.500061 8.21437 0.692148 7.87055 1.03407C7.52673 1.37598 7.33358 1.83972 7.33358 2.32327C7.33358 2.46912 7.35802 2.6089 7.38858 2.74868L3.08024 5.24647C2.75024 4.9426 2.31636 4.75421 1.83358 4.75421C1.34735 4.75421 0.881032 4.94629 0.537215 5.28821C0.193398 5.63013 0.000244141 6.09387 0.000244141 6.57741C0.000244141 7.06095 0.193398 7.52469 0.537215 7.86661C0.881032 8.20853 1.34735 8.40061 1.83358 8.40061C2.31636 8.40061 2.75024 8.21222 3.08024 7.90835L7.43135 10.4304C7.4008 10.5581 7.38247 10.6918 7.38247 10.8316C7.38247 11.81 8.18302 12.6001 9.16691 12.6001C10.1508 12.6001 10.9514 11.81 10.9514 10.8316C10.9514 10.3609 10.7634 9.90953 10.4287 9.57673C10.0941 9.24393 9.64017 9.05697 9.16691 9.05697Z" fill="white"/>
</svg>
