<svg width="57" height="57" viewBox="0 0 57 57" fill="none" xmlns="http://www.w3.org/2000/svg">
<circle cx="28.5" cy="28.5" r="28.5" fill="#EE3048"/>
<path d="M32.6667 33.5612C31.8222 33.5612 31.0611 33.887 30.4833 34.4116L22.5667 29.8228C22.6278 29.5743 22.6667 29.3148 22.6667 29.0497C22.6667 28.7846 22.6278 28.5251 22.5667 28.2766L30.4 23.7319C30.9944 24.2841 31.7889 24.6265 32.6667 24.6265C34.5056 24.6265 36 23.1411 36 21.3133C36 19.4854 34.5056 18 32.6667 18C30.8278 18 29.3333 19.4854 29.3333 21.3133C29.3333 21.5783 29.3722 21.8379 29.4333 22.0863L21.6 26.631C21.0056 26.0788 20.2111 25.7364 19.3333 25.7364C17.4944 25.7364 16 27.2219 16 29.0497C16 30.8775 17.4944 32.363 19.3333 32.363C20.2111 32.363 21.0056 32.0206 21.6 31.4684L29.5167 36.0572C29.4611 36.2892 29.4278 36.5321 29.4278 36.7806C29.4278 38.5587 30.8778 40 32.6667 40C34.4556 40 35.9056 38.5587 35.9056 36.7806C35.9056 35.0025 34.4556 33.5612 32.6667 33.5612Z" fill="white"/>
</svg>
