<svg width="18" height="20" viewBox="0 0 18 20" fill="none" xmlns="http://www.w3.org/2000/svg">
<path d="M15.0671 14.2911C14.3239 14.2911 13.6591 14.5829 13.1506 15.0399L6.17906 11.0045C6.22795 10.7809 6.26706 10.5572 6.26706 10.3239C6.26706 10.0905 6.22795 9.86684 6.17906 9.64319L13.0724 5.64673C13.6004 6.13292 14.2946 6.43435 15.0671 6.43435C15.845 6.43435 16.5911 6.12701 17.1412 5.57995C17.6913 5.03288 18.0004 4.2909 18.0004 3.51722C18.0004 2.74355 17.6913 2.00157 17.1412 1.4545C16.5911 0.907437 15.845 0.600098 15.0671 0.600098C14.2891 0.600098 13.543 0.907437 12.9929 1.4545C12.4428 2.00157 12.1337 2.74355 12.1337 3.51722C12.1337 3.7506 12.1728 3.97424 12.2217 4.19789L5.32839 8.19435C4.80039 7.70816 4.10617 7.40673 3.33372 7.40673C2.55576 7.40673 1.80965 7.71407 1.25954 8.26113C0.709437 8.8082 0.400391 9.55019 0.400391 10.3239C0.400391 11.0975 0.709437 11.8395 1.25954 12.3866C1.80965 12.9336 2.55576 13.241 3.33372 13.241C4.10617 13.241 4.80039 12.9395 5.32839 12.4534L12.2902 16.4887C12.2413 16.6929 12.2119 16.9068 12.2119 17.1305C12.2119 18.696 13.4928 19.9601 15.0671 19.9601C16.6413 19.9601 17.9222 18.696 17.9222 17.1305C17.9222 16.3774 17.6214 15.6552 17.0859 15.1228C16.5505 14.5903 15.8243 14.2911 15.0671 14.2911Z" fill="white"/>
</svg>
