<svg width="16" height="16" viewBox="0 0 16 16" fill="none" xmlns="http://www.w3.org/2000/svg">
<g clip-path="url(#clip0)">
<path fill-rule="evenodd" clip-rule="evenodd" d="M7.27555 4.85203L10.0462 0.916124C10.672 0.0264687 11.6692 0.709227 11.0422 1.59888L8.67139 4.96764C8.40604 5.34493 9.00091 5.83539 9.30575 5.40213L12.1542 1.35547C12.7799 0.46582 13.7771 1.14858 13.1514 2.03823C12.2011 3.38671 11.252 4.73519 10.3029 6.08367C10.0376 6.46095 10.6325 6.95142 10.9373 6.51815C11.7284 5.39483 12.5183 4.27272 13.3081 3.14939C13.9339 2.25973 14.9311 2.94249 14.3053 3.83215C13.5142 4.95547 12.5936 6.26501 11.8025 7.38833C11.7161 7.51126 11.721 7.64635 11.7778 7.7571H7.16818C7.02131 7.7571 6.61528 7.74128 6.52518 7.58671C6.36227 7.30923 6.64983 6.53519 6.76091 6.26744C6.80534 6.16156 6.851 6.05689 6.90037 5.95223C7.08055 5.56034 7.21508 5.19401 7.27555 4.85203ZM12.4837 7.75588H12.9218C13.2822 7.75588 13.5772 7.83864 13.808 7.97373L15.3025 5.85122C15.9283 4.96156 14.9323 4.28002 14.3053 5.16967L12.4837 7.75588ZM2.78814 6.3076C2.54254 5.40213 2.25622 4.53073 1.83537 3.77373C2.8844 3.30395 3.35092 3.71166 3.95813 4.72302C3.98775 4.77292 4.0186 4.82282 4.04945 4.8715C3.65082 5.35953 3.21639 5.83539 2.78814 6.3076Z" fill="white"/>
<path fill-rule="evenodd" clip-rule="evenodd" d="M7.16835 8.43068H12.9208C14.0192 8.43068 14.0192 9.62703 12.9208 9.62703H8.76288C8.29761 9.62703 8.22726 10.3889 8.76288 10.3889H13.7575C14.8559 10.3889 14.8559 11.5852 13.7575 11.5852C12.0927 11.5852 10.4278 11.5852 8.76288 11.5852C8.29761 11.5852 8.22726 12.3471 8.76288 12.3471C10.1488 12.3471 11.5348 12.3471 12.9208 12.3471C14.0192 12.3471 14.0192 13.5435 12.9208 13.5435C11.5348 13.5435 9.91806 13.5435 8.5321 13.5435C8.06682 13.5435 7.99647 14.3053 8.5321 14.3053C9.54658 14.3053 10.7918 14.3053 11.8063 14.3053C12.9047 14.3053 12.9047 15.5017 11.8063 15.5017C9.16399 15.5017 7.15601 15.5017 4.61734 15.5017C2.45385 15.5017 0.517451 14.1508 0.500173 11.8944C0.4903 10.6566 1.09257 9.45543 1.84911 8.45989C3.1203 6.78524 4.95056 5.20675 5.8589 3.40918C6.8487 3.99092 6.77465 4.60188 6.27728 5.67044C5.7071 6.89599 5.28749 8.43068 7.16835 8.43068Z" fill="white"/>
</g>
<defs>
<clipPath id="clip0">
<rect width="15" height="15" fill="white" transform="translate(0.500027 0.5)"/>
</clipPath>
</defs>
</svg>
