<svg width="12" height="12" viewBox="0 0 12 12" fill="none" xmlns="http://www.w3.org/2000/svg">
<path d="M2.9509 7.23151L2.09458 10.9396C2.06806 11.0519 2.07602 11.1695 2.11742 11.2772C2.15882 11.3849 2.23173 11.4776 2.32663 11.5432C2.42153 11.6088 2.53401 11.6443 2.64938 11.645C2.76475 11.6457 2.87764 11.6115 2.97332 11.5471L6.10265 9.46084L9.23198 11.5471C9.32988 11.6121 9.44533 11.6455 9.56281 11.6429C9.68029 11.6404 9.79416 11.6019 9.88911 11.5326C9.98406 11.4634 10.0555 11.3668 10.0939 11.2557C10.1323 11.1447 10.1358 11.0245 10.1038 10.9114L9.05267 7.23324L11.6596 4.88724C11.7431 4.81206 11.8027 4.71406 11.8311 4.60535C11.8595 4.49664 11.8554 4.382 11.8193 4.2756C11.7832 4.16919 11.7167 4.0757 11.6281 4.00668C11.5394 3.93765 11.4325 3.89613 11.3205 3.88724L8.04404 3.62632L6.62622 0.487789C6.58101 0.386728 6.50752 0.300911 6.41461 0.240695C6.32171 0.180479 6.21336 0.148438 6.10265 0.148438C5.99194 0.148438 5.88359 0.180479 5.79069 0.240695C5.69778 0.300911 5.62429 0.386728 5.57908 0.487789L4.16126 3.62632L0.884798 3.88666C0.774714 3.89538 0.669473 3.93563 0.581666 4.0026C0.493859 4.06957 0.427204 4.16041 0.389676 4.26427C0.352147 4.36812 0.345333 4.48059 0.37005 4.58822C0.394767 4.69585 0.449968 4.79408 0.529048 4.87115L2.9509 7.23151ZM4.59057 4.74529C4.69315 4.73721 4.79167 4.70168 4.8758 4.64242C4.95993 4.58317 5.02657 4.50237 5.06873 4.40851L6.10265 2.12056L7.13656 4.40851C7.17873 4.50237 7.24537 4.58317 7.3295 4.64242C7.41362 4.70168 7.51215 4.73721 7.61473 4.74529L9.8975 4.92632L8.01761 6.61829C7.85439 6.76542 7.78944 6.99186 7.84921 7.20335L8.56933 9.72348L6.42219 8.29186C6.32795 8.22861 6.21701 8.19483 6.10351 8.19483C5.99001 8.19483 5.87907 8.22861 5.78483 8.29186L3.54114 9.78785L4.14459 7.17519C4.16672 7.0791 4.16375 6.97893 4.13597 6.88432C4.10819 6.78971 4.05653 6.70383 3.98597 6.63496L2.23998 4.93265L4.59057 4.74529Z" fill="#FFC850"/>
</svg>
