<svg width="386" height="369" viewBox="0 0 386 369" fill="none" xmlns="http://www.w3.org/2000/svg">
<path d="M207.765 9.18454L254.65 104.256C255.831 106.651 257.577 108.724 259.736 110.294C261.896 111.864 264.405 112.885 267.047 113.269L371.885 128.515C385.39 130.478 390.782 147.087 381.01 156.62L305.148 230.622C303.236 232.487 301.806 234.789 300.982 237.33C300.157 239.871 299.962 242.574 300.413 245.207L318.322 349.701C320.629 363.161 306.511 373.426 294.432 367.071L200.662 317.736C198.299 316.492 195.67 315.843 193 315.843C190.331 315.843 187.702 316.492 185.339 317.736L91.5688 367.071C79.4895 373.426 65.3724 363.161 67.6789 349.701L85.5877 245.207C86.0388 242.574 85.8435 239.871 85.0187 237.33C84.1938 234.789 82.7642 232.487 80.8528 230.622L4.99097 156.62C-4.78252 147.088 0.610585 130.479 14.1148 128.515L118.953 113.27C121.595 112.886 124.103 111.865 126.263 110.294C128.422 108.724 130.168 106.652 131.35 104.257L178.235 9.18532C184.275 -3.06165 201.725 -3.06164 207.765 9.18454Z" fill="#334194"/>
</svg>
