<svg width="9" height="9" viewBox="0 0 9 9" fill="none" xmlns="http://www.w3.org/2000/svg">
<path d="M3.80764 0H0.346182C0.154968 0 0 0.154968 0 0.346182V3.80764C0 3.99885 0.154968 4.15382 0.346182 4.15382H3.80764C3.99885 4.15382 4.15382 3.99885 4.15382 3.80764V0.346182C4.15382 0.154968 3.99885 0 3.80764 0Z" fill="#FFC20E"/>
<path d="M8.65432 0H5.19286C5.00165 0 4.84668 0.154968 4.84668 0.346182V3.80764C4.84668 3.99885 5.00165 4.15382 5.19286 4.15382H8.65432C8.84553 4.15382 9.0005 3.99885 9.0005 3.80764V0.346182C9.0005 0.154968 8.84553 0 8.65432 0ZM8.30813 3.46145H5.53904V0.692365H8.30813V3.46145Z" fill="#FFC20E"/>
<path d="M3.80764 4.84668H0.346182C0.154968 4.84668 0 5.00165 0 5.19286V8.65432C0 8.84553 0.154968 9.0005 0.346182 9.0005H3.80764C3.99885 9.0005 4.15382 8.84553 4.15382 8.65432V5.19286C4.15382 5.00128 3.99885 4.84668 3.80764 4.84668ZM1.63475 8.30813C1.6943 8.20605 1.73091 8.08881 1.73091 7.96195C1.73091 7.57952 1.42097 7.26959 1.03855 7.26959C0.911687 7.26959 0.794444 7.3062 0.692365 7.36575V6.48143C0.794444 6.54098 0.911687 6.57759 1.03855 6.57759C1.42097 6.57759 1.73091 6.26765 1.73091 5.88523C1.73091 5.75837 1.6943 5.64112 1.63475 5.53904H2.51907C2.45952 5.64112 2.42291 5.75837 2.42291 5.88523C2.42291 6.26765 2.73284 6.57759 3.11527 6.57759C3.24213 6.57759 3.35937 6.54098 3.46145 6.48143V7.36575C3.35937 7.3062 3.24213 7.26959 3.11527 7.26959C2.73284 7.26959 2.42291 7.57952 2.42291 7.96195C2.42291 8.08881 2.45952 8.20605 2.51907 8.30813H1.63475Z" fill="#FFC20E"/>
<path d="M8.65432 4.84668H5.19286C5.00165 4.84668 4.84668 5.00165 4.84668 5.19286V6.9234V8.65395C4.84668 8.84516 5.00165 9.00013 5.19286 9.00013H6.9234H8.65395C8.84516 9.00013 9.00013 8.84516 9.00013 8.65395V5.19249C9.0005 5.00128 8.84553 4.84668 8.65432 4.84668ZM5.53904 7.06691L7.06691 5.53904H7.81882L5.53904 7.81882V7.06691ZM5.53904 5.53904H6.08791L5.53904 6.08791V5.53904ZM8.30813 6.02836V6.7799L6.78027 8.30813H6.02836L8.30813 6.02836ZM8.30813 8.30813H7.7589L8.30813 7.7589V8.30813Z" fill="#FFC20E"/>
<path d="M2.07713 7.6152C2.45951 7.6152 2.76949 7.30522 2.76949 6.92283C2.76949 6.54045 2.45951 6.23047 2.07713 6.23047C1.69475 6.23047 1.38477 6.54045 1.38477 6.92283C1.38477 7.30522 1.69475 7.6152 2.07713 7.6152Z" fill="#FFC20E"/>
</svg>
