<svg width="9" height="9" viewBox="0 0 9 9" fill="none" xmlns="http://www.w3.org/2000/svg">
<path d="M1.16467 6.66992C0.522484 6.66992 0 7.19241 0 7.8346C0 8.4768 0.522484 8.99919 1.16467 8.99919C1.80686 8.99919 2.32934 8.4768 2.32934 7.8346C2.32934 7.19241 1.80676 6.66992 1.16467 6.66992Z" fill="#FFC20E"/>
<path d="M0.193309 3.35259C0.143088 3.3514 0.0950785 3.36955 0.0590483 3.40438C0.0231103 3.43912 0.00292969 3.48695 0.00292969 3.53689V5.03129C0.00292969 5.12971 0.0804269 5.2108 0.178842 5.2154C2.14475 5.30507 3.69487 6.85521 3.78453 8.82114C3.78905 8.91946 3.87014 8.99696 3.96865 8.99696H5.46312C5.51306 8.99696 5.56098 8.97669 5.59563 8.94093C5.63028 8.90518 5.64889 8.85652 5.64742 8.80667C5.59977 7.37392 5.01269 6.02402 3.99445 5.00567C2.97602 3.98732 1.62613 3.40033 0.193309 3.35259Z" fill="#FFC20E"/>
<path d="M6.36384 2.63715C4.71124 0.98472 2.51948 0.0481091 0.191982 0.000191147C0.142222 -0.00220475 0.0944886 0.0180682 0.0592878 0.0528087C0.0239026 0.0875492 0.00390625 0.134914 0.00390625 0.184399V1.67796C0.00390625 1.77795 0.0836151 1.85968 0.183597 1.86226C3.92494 1.95626 7.04482 5.07626 7.13863 8.81727C7.14093 8.91725 7.22285 8.99687 7.32283 8.99687H8.81638C8.86587 8.99687 8.91342 8.97697 8.94816 8.94149C8.98271 8.9061 9.00179 8.85828 9.00068 8.8087C8.95258 6.48109 8.01598 4.28921 6.36384 2.63715Z" fill="#FFC20E"/>
</svg>
