<svg width="10" height="10" viewBox="0 0 10 10" fill="none" xmlns="http://www.w3.org/2000/svg">
<path d="M1.29408 7.4118C0.580538 7.4118 0 7.99235 0 8.7059C0 9.41944 0.580538 9.99988 1.29408 9.99988C2.00762 9.99988 2.58816 9.41944 2.58816 8.7059C2.58816 7.99235 2.00752 7.4118 1.29408 7.4118Z" fill="white"/>
<path d="M0.215317 3.72531C0.159516 3.72398 0.106172 3.74415 0.0661382 3.78285C0.0262071 3.82146 0.00378418 3.87459 0.00378418 3.93009V5.59053C0.00378418 5.69988 0.0898922 5.78998 0.199242 5.7951C2.38358 5.89473 4.10594 7.61711 4.20557 9.80147C4.21058 9.91072 4.30068 9.99683 4.41014 9.99683H6.07066C6.12615 9.99683 6.1794 9.9743 6.21789 9.93458C6.25639 9.89485 6.27707 9.84079 6.27544 9.7854C6.2225 8.19346 5.57019 6.69356 4.43881 5.56206C3.30722 4.43057 1.80734 3.77835 0.215317 3.72531Z" fill="white"/>
<path d="M7.06989 2.93035C5.23367 1.09432 2.79838 0.0536376 0.212269 0.000395491C0.15698 -0.00226662 0.103943 0.0202589 0.0648309 0.0588594C0.025514 0.09746 0.0032959 0.150088 0.0032959 0.205071V1.86459C0.0032959 1.97568 0.0918612 2.0665 0.202952 2.06936C4.35999 2.1738 7.82653 5.64048 7.93076 9.79715C7.93332 9.90824 8.02435 9.99671 8.13544 9.99671H9.79494C9.84992 9.99671 9.90275 9.97459 9.94135 9.93517C9.97975 9.89585 10.0009 9.84272 9.99971 9.78763C9.94627 7.20139 8.9056 4.76598 7.06989 2.93035Z" fill="white"/>
</svg>
