<svg width="10" height="10" viewBox="0 0 10 10" fill="none" xmlns="http://www.w3.org/2000/svg">
<path d="M4.23071 0H0.384647C0.172187 0 0 0.172187 0 0.384647V4.23071C0 4.44317 0.172187 4.61535 0.384647 4.61535H4.23071C4.44317 4.61535 4.61535 4.44317 4.61535 4.23071V0.384647C4.61535 0.172187 4.44317 0 4.23071 0Z" fill="white"/>
<path d="M9.61535 0H5.76929C5.55683 0 5.38464 0.172187 5.38464 0.384647V4.23071C5.38464 4.44317 5.55683 4.61535 5.76929 4.61535H9.61535C9.82781 4.61535 10 4.44317 10 4.23071V0.384647C10 0.172187 9.82781 0 9.61535 0ZM9.2307 3.84606H6.15394V0.769294H9.2307V3.84606Z" fill="white"/>
<path d="M4.23071 5.38464H0.384647C0.172187 5.38464 0 5.55683 0 5.76929V9.61535C0 9.82781 0.172187 10 0.384647 10H4.23071C4.44317 10 4.61535 9.82781 4.61535 9.61535V5.76929C4.61535 5.55642 4.44317 5.38464 4.23071 5.38464ZM1.81639 9.2307C1.88255 9.11728 1.92323 8.98701 1.92323 8.84606C1.92323 8.42114 1.57886 8.07676 1.15394 8.07676C1.01299 8.07676 0.882716 8.11745 0.769294 8.18361V7.20103C0.882716 7.2672 1.01299 7.30788 1.15394 7.30788C1.57886 7.30788 1.92323 6.9635 1.92323 6.53858C1.92323 6.39763 1.88255 6.26736 1.81639 6.15394H2.79896C2.7328 6.26736 2.69212 6.39763 2.69212 6.53858C2.69212 6.9635 3.03649 7.30788 3.46141 7.30788C3.60237 7.30788 3.73264 7.2672 3.84606 7.20103V8.18361C3.73264 8.11745 3.60237 8.07676 3.46141 8.07676C3.03649 8.07676 2.69212 8.42114 2.69212 8.84606C2.69212 8.98701 2.7328 9.11728 2.79896 9.2307H1.81639Z" fill="white"/>
<path d="M9.61535 5.38464H5.76929C5.55683 5.38464 5.38464 5.55683 5.38464 5.76929V7.69212V9.61494C5.38464 9.8274 5.55683 9.99959 5.76929 9.99959H7.69212H9.61494C9.8274 9.99959 9.99959 9.8274 9.99959 9.61494V5.76888C10 5.55642 9.82781 5.38464 9.61535 5.38464ZM6.15394 7.85156L7.85156 6.15394H8.68702L6.15394 8.68702V7.85156ZM6.15394 6.15394H6.76378L6.15394 6.76378V6.15394ZM9.2307 6.69762V7.53267L7.53308 9.2307H6.69762L9.2307 6.69762ZM9.2307 9.2307H8.62045L9.2307 8.62045V9.2307Z" fill="white"/>
<path d="M2.30787 8.46141C2.73274 8.46141 3.07716 8.11698 3.07716 7.69211C3.07716 7.26725 2.73274 6.92282 2.30787 6.92282C1.883 6.92282 1.53857 7.26725 1.53857 7.69211C1.53857 8.11698 1.883 8.46141 2.30787 8.46141Z" fill="white"/>
</svg>
