<svg width="11" height="12" viewBox="0 0 11 12" fill="none" xmlns="http://www.w3.org/2000/svg">
<path d="M8.31205 8.80664H3.17786V5.15716C3.17786 3.75352 4.31879 2.6306 5.74495 2.6306C7.17112 2.6306 8.31205 3.75352 8.31205 5.15716V8.80664ZM9.45298 8.24518V5.15716C9.45298 3.43348 8.23218 1.99054 6.60065 1.60874V1.22695C6.60065 1.00359 6.5105 0.789377 6.35002 0.631437C6.18955 0.473496 5.9719 0.384766 5.74495 0.384766C5.51801 0.384766 5.30036 0.473496 5.13988 0.631437C4.97941 0.789377 4.88926 1.00359 4.88926 1.22695V1.60874C3.25202 1.99054 2.03693 3.43348 2.03693 5.15716V8.24518L0.895996 9.3681V9.92956H10.5939V9.3681L9.45298 8.24518ZM5.74495 11.6139C6.04755 11.6139 6.33775 11.4956 6.55171 11.285C6.76568 11.0744 6.88589 10.7888 6.88589 10.491H4.60402C4.60402 10.7888 4.72423 11.0744 4.93819 11.285C5.15216 11.4956 5.44236 11.6139 5.74495 11.6139Z" fill="white"/>
</svg>
