<svg width="30" height="30" viewBox="0 0 30 30" fill="none" xmlns="http://www.w3.org/2000/svg">
<path d="M23.4863 18.6262L19.5488 16.9471C19.3806 16.8758 19.1936 16.8608 19.0161 16.9043C18.8386 16.9478 18.68 17.0476 18.5644 17.1885L16.8206 19.3084C14.0839 18.0245 11.8815 15.833 10.5912 13.1099L12.7217 11.3748C12.8636 11.26 12.964 11.1022 13.0078 10.9255C13.0516 10.7488 13.0363 10.5627 12.9643 10.3953L11.2767 6.47736C11.1977 6.297 11.0578 6.14974 10.8813 6.06097C10.7048 5.97221 10.5027 5.9475 10.3099 5.99111L6.6536 6.83068C6.46768 6.8734 6.3018 6.97756 6.18303 7.12617C6.06427 7.27477 5.99964 7.45905 5.99968 7.64891C5.99968 16.6218 13.3088 23.8805 22.3125 23.8805C22.5033 23.8807 22.6886 23.8164 22.838 23.6982C22.9874 23.58 23.0922 23.4149 23.1351 23.2299L23.9789 19.5918C24.0224 19.3989 23.9971 19.197 23.9072 19.0208C23.8173 18.8446 23.6685 18.7051 23.4863 18.6262V18.6262Z" fill="#525252"/>
</svg>
