<svg width="20" height="20" viewBox="0 0 20 20" fill="none" xmlns="http://www.w3.org/2000/svg">
<path d="M15.6578 12.4796L13.0327 11.3546C12.9206 11.3068 12.796 11.2967 12.6776 11.3259C12.5592 11.3551 12.4536 11.4219 12.3765 11.5163L11.214 12.9367C9.38949 12.0764 7.92121 10.6082 7.06099 8.7837L8.48133 7.62118C8.57594 7.54423 8.64291 7.43855 8.67209 7.32013C8.70127 7.20172 8.69107 7.07702 8.64305 6.96492L7.51803 4.33987C7.46532 4.21903 7.3721 4.12036 7.25444 4.06089C7.13677 4.00142 7.00205 3.98486 6.87349 4.01408L4.43595 4.57659C4.312 4.60522 4.20141 4.67501 4.12224 4.77457C4.04306 4.87414 3.99997 4.9976 4 5.12481C4 11.1366 8.87274 16 14.8752 16C15.0024 16.0001 15.126 15.957 15.2256 15.8778C15.3252 15.7987 15.395 15.688 15.4236 15.5641L15.9861 13.1265C16.0152 12.9973 15.9983 12.8621 15.9383 12.744C15.8784 12.6259 15.7792 12.5324 15.6578 12.4796Z" fill="white"/>
</svg>
