<svg width="16" height="16" viewBox="0 0 16 16" fill="none" xmlns="http://www.w3.org/2000/svg">
<path d="M15.1111 11.1111C14.0044 11.1111 12.9378 10.9333 11.9378 10.6044C11.6311 10.5067 11.28 10.5778 11.0356 10.8222L9.08 12.7822C6.56 11.5022 4.50667 9.44444 3.22222 6.92889L5.17778 4.96889C5.42222 4.72444 5.49333 4.37333 5.39556 4.06667C5.06667 3.06667 4.88889 1.99556 4.88889 0.888889C4.88889 0.395556 4.49333 0 4 0H0.888889C0.395556 0 0 0.395556 0 0.888889C0 9.23556 6.76444 16 15.1111 16C15.6044 16 16 15.6044 16 15.1111V12C16 11.5067 15.6044 11.1111 15.1111 11.1111Z" fill="#0AB1B1"/>
</svg>
