<svg width="20" height="16" viewBox="0 0 20 16" fill="none" xmlns="http://www.w3.org/2000/svg">
<path d="M19.2401 2.26816C18.5481 2.5747 17.8141 2.77581 17.0625 2.8648C17.8542 2.39113 18.4466 1.64579 18.7293 0.767677C17.9852 1.20941 17.171 1.52046 16.3219 1.68736C15.9671 1.30898 15.5385 1.00749 15.0624 0.801563C14.5864 0.595641 14.0731 0.489677 13.5545 0.490237C11.4607 0.490237 9.76294 2.18752 9.76294 4.28176C9.76294 4.57864 9.79654 4.86832 9.86134 5.146C6.71014 4.98784 3.91654 3.47824 2.04646 1.18408C1.70928 1.76273 1.5321 2.42067 1.5331 3.0904C1.5326 3.71464 1.68631 4.32934 1.98057 4.87988C2.27482 5.43041 2.70052 5.89974 3.21982 6.24616C2.61783 6.22703 2.0291 6.06445 1.50262 5.77192C1.50214 5.78776 1.50214 5.80336 1.50214 5.81968C1.50214 7.65616 2.80894 9.18856 4.54318 9.53728C3.98476 9.68845 3.39927 9.71061 2.83102 9.60208C3.31342 11.1081 4.71358 12.2046 6.3727 12.2354C5.02964 13.2893 3.37114 13.861 1.6639 13.8585C1.3579 13.8585 1.05622 13.8407 0.759338 13.8054C2.49294 14.9193 4.51057 15.5105 6.57118 15.5085C13.5451 15.5085 17.3587 9.73144 17.3587 4.72168C17.3587 4.55752 17.3549 4.3936 17.3477 4.23064C18.0903 3.69445 18.7312 3.02984 19.2401 2.26816Z" fill="white"/>
</svg>
