<?xml version="1.0" encoding="utf-8"?>
<!-- Generator: Adobe Illustrator 23.0.1, SVG Export Plug-In . SVG Version: 6.00 Build 0)  -->
<svg version="1.1" id="Layer_1" xmlns="http://www.w3.org/2000/svg" xmlns:xlink="http://www.w3.org/1999/xlink" x="0px" y="0px"
	 viewBox="0 0 20 16" style="enable-background:new 0 0 20 16;" xml:space="preserve">
<style type="text/css">
	.st0{fill:#0AB1B1;}
</style>
<path class="st0" d="M19.2,2.3c-0.7,0.3-1.4,0.5-2.2,0.6c0.8-0.5,1.4-1.2,1.7-2.1c-0.7,0.4-1.6,0.8-2.4,0.9C16,1.3,15.5,1,15.1,0.8
	c-0.5-0.2-1-0.3-1.5-0.3c-2.1,0-3.8,1.7-3.8,3.8c0,0.3,0,0.6,0.1,0.9C6.7,5,3.9,3.5,2,1.2C1.7,1.8,1.5,2.4,1.5,3.1
	c0,0.6,0.2,1.2,0.4,1.8c0.3,0.6,0.7,1,1.2,1.4C2.6,6.2,2,6.1,1.5,5.8c0,0,0,0,0,0c0,1.8,1.3,3.4,3,3.7C4,9.7,3.4,9.7,2.8,9.6
	c0.5,1.5,1.9,2.6,3.5,2.6c-1.3,1.1-3,1.6-4.7,1.6c-0.3,0-0.6,0-0.9-0.1c1.7,1.1,3.8,1.7,5.8,1.7c7,0,10.8-5.8,10.8-10.8
	c0-0.2,0-0.3,0-0.5C18.1,3.7,18.7,3,19.2,2.3z"/>
</svg>
