<svg width="12" height="12" viewBox="0 0 12 12" fill="none" xmlns="http://www.w3.org/2000/svg">
<path d="M7.03828 10.4335C7.03828 10.7301 6.92024 11.0146 6.71014 11.2243C6.50004 11.434 6.21508 11.5519 5.91795 11.5519C5.62082 11.5519 5.33586 11.434 5.12576 11.2243C4.91565 11.0146 4.79762 10.7301 4.79762 10.4335H7.03828ZM10.2536 11.3114L8.814 9.8743H0.876465L2.55696 8.19675V4.84164C2.55696 4.47817 2.61298 4.12588 2.72501 3.79597L1.13974 2.21347L1.93518 1.42502L3.27957 2.76707L11.0435 10.5174L10.2536 11.3114ZM5.35778 1.53127V0.927349C5.35778 0.779044 5.4168 0.636813 5.52185 0.531945C5.6269 0.427078 5.76938 0.368164 5.91795 0.368164C6.06651 0.368164 6.20899 0.427078 6.31404 0.531945C6.4191 0.636813 6.47811 0.779044 6.47811 0.927349V1.53127C8.06898 1.79968 9.27894 3.18086 9.27894 4.84164V7.17344L4.10862 2.01217C4.48393 1.76613 4.90405 1.60955 5.35778 1.53127Z" fill="white"/>
</svg>
