<svg width="12" height="12" viewBox="0 0 12 12" fill="none" xmlns="http://www.w3.org/2000/svg">
<path d="M3.84003 3.84032L5.45443 2.22602V8.90915C5.45443 9.21039 5.69865 9.45461 5.99989 9.45461C6.30112 9.45461 6.54534 9.21039 6.54534 8.90915V2.22606L8.15959 3.84032C8.2661 3.94682 8.4057 4.0001 8.54527 4.0001C8.68487 4.0001 8.82447 3.94686 8.93098 3.84032C9.14399 3.6273 9.14399 3.28195 8.93098 3.06893L6.3857 0.523624C6.3729 0.51086 6.35949 0.498788 6.34556 0.487333C6.33952 0.482388 6.33316 0.478097 6.32701 0.473479C6.31894 0.467406 6.31105 0.461224 6.30265 0.455588C6.29512 0.450533 6.2873 0.44617 6.27956 0.441551C6.27203 0.437006 6.26465 0.432315 6.25687 0.428133C6.24898 0.423915 6.2409 0.420388 6.23283 0.41657C6.22472 0.412751 6.21679 0.408715 6.20847 0.40526C6.20069 0.40206 6.19276 0.399442 6.18487 0.396606C6.17599 0.393406 6.16723 0.389988 6.1581 0.387224C6.15025 0.38486 6.14229 0.383151 6.13439 0.381151C6.12509 0.378788 6.11585 0.37617 6.10639 0.374279C6.0973 0.372497 6.0881 0.371442 6.07894 0.370097C6.07054 0.36886 6.06221 0.367297 6.05367 0.36646C6.03687 0.364824 6.02003 0.364024 6.00316 0.363915C6.00207 0.363915 6.00101 0.36377 5.99992 0.36377C5.99887 0.36377 5.99778 0.363915 5.99672 0.363915C5.97985 0.363988 5.96298 0.364824 5.94614 0.36646C5.93781 0.367297 5.92967 0.368824 5.92141 0.370024C5.91203 0.37137 5.90265 0.37246 5.89338 0.374315C5.88414 0.376133 5.8752 0.378679 5.86614 0.38097C5.85792 0.383042 5.8497 0.38486 5.84156 0.387297C5.83279 0.389951 5.82425 0.39326 5.81567 0.396351C5.80749 0.399297 5.79923 0.401988 5.79116 0.405333C5.78316 0.408642 5.77552 0.412533 5.76774 0.416206C5.75938 0.420133 5.75094 0.423879 5.74272 0.428242C5.7353 0.432206 5.72832 0.436715 5.72109 0.441006C5.71298 0.445806 5.70483 0.450388 5.69694 0.45566C5.68905 0.460933 5.68167 0.466824 5.67407 0.47246C5.66738 0.477442 5.66058 0.48206 5.6541 0.487406C5.64083 0.498279 5.62814 0.509806 5.61596 0.521842C5.61538 0.522424 5.61476 0.522897 5.61414 0.523479L3.06869 3.0689C2.8557 3.28191 2.85567 3.62726 3.06869 3.84028C3.28167 4.05333 3.62705 4.05326 3.84003 3.84032Z" fill="white"/>
<path d="M11.4545 5.81836C11.1533 5.81836 10.9091 6.06258 10.9091 6.36381V10.5456H1.09091V6.36381C1.09091 6.06258 0.846691 5.81836 0.545455 5.81836C0.244218 5.81836 0 6.06258 0 6.36381V11.0911C0 11.3923 0.244218 11.6365 0.545455 11.6365H11.4545C11.7558 11.6365 12 11.3923 12 11.0911V6.36381C12 6.06258 11.7558 5.81836 11.4545 5.81836Z" fill="white"/>
</svg>
