<svg width="30" height="30" viewBox="0 0 30 30" fill="none" xmlns="http://www.w3.org/2000/svg">
<path d="M11.7064 18.5198C11.7064 18.1467 11.9938 17.8448 12.3484 17.8448H17.5843C17.9389 17.8448 18.2263 18.1467 18.2263 18.5198C18.2263 18.893 17.9389 19.1949 17.5843 19.1949H12.3484C11.9938 19.1949 11.7064 18.893 11.7064 18.5198Z" fill="#686B6F"/>
<path d="M12.3484 15.8222C11.9938 15.8222 11.7064 16.1241 11.7064 16.4972C11.7064 16.8704 11.9938 17.1723 12.3484 17.1723H14.9762C15.3308 17.1723 15.6182 16.8704 15.6182 16.4972C15.6182 16.1241 15.3308 15.8222 14.9762 15.8222H12.3484Z" fill="#686B6F"/>
<path fill-rule="evenodd" clip-rule="evenodd" d="M15.816 8.39647H11.0517C10.3348 8.39647 9.75073 9.00027 9.75073 9.7466V20.5463C9.75073 21.2901 10.3351 21.8965 11.056 21.8965H18.8773C19.5994 21.8965 20.1826 21.2927 20.1826 20.5463V12.9185C20.1826 12.7358 20.08 12.4754 19.9537 12.3445L16.3705 8.63358C16.2457 8.50401 15.9959 8.39647 15.816 8.39647ZM11.0554 20.5437H18.8776L18.8791 14.4682H14.9669C14.6071 14.4682 14.3151 14.1663 14.3151 13.7931V9.74401H11.0523C11.0554 9.74401 11.0554 20.5437 11.0554 20.5437ZM18.8791 13.1193L15.6191 9.74401V13.118L18.8791 13.1193Z" fill="#686B6F"/>
</svg>
