<svg width="24" height="12" viewBox="0 0 24 12" fill="none" xmlns="http://www.w3.org/2000/svg">
<path fill-rule="evenodd" clip-rule="evenodd" d="M5.40422 2.96158L7.43942 0H11.886C12.6779 0 12.6779 1.23074 11.886 1.23074H8.06298L6.57357 3.39787C7.83473 4.08422 8.70695 5.34751 8.90333 6.79835H11.6093C11.9663 4.1845 14.4185 2.43542 16.9294 2.95377L18.9595 0H23.4061C24.1979 0 24.1979 1.23074 23.4061 1.23074H19.583L18.1064 3.37964C19.5818 4.16627 20.5126 5.7226 20.5126 7.4313C20.5126 9.95138 18.5068 12 16.0406 12C13.7962 12 11.8962 10.2978 11.6055 8.02909H8.90843C8.61897 10.2926 6.71766 12 4.47333 12C2.00329 12 -3.05176e-05 9.95398 -3.05176e-05 7.4313C-3.05176e-05 4.91252 2.00584 2.8626 4.47333 2.8626C4.7934 2.8626 5.10327 2.89776 5.40422 2.96158ZM16.1132 4.87085C15.2308 4.84741 14.3994 5.2824 13.9212 6.04558C13.4647 6.77361 13.4277 7.60582 13.6904 8.31821C13.7235 7.78554 13.8855 7.24506 14.203 6.73974C14.8508 5.70697 15.9526 5.18211 17.0492 5.21077C17.1462 5.21337 17.2405 5.21988 17.3349 5.2316C16.9765 5.01281 16.5596 4.88257 16.1132 4.87085ZM4.47333 4.86303C3.08082 4.86303 1.95866 6.00912 1.95866 7.4313C1.95866 7.75689 2.01859 8.06816 2.12698 8.35598C2.22007 6.59518 3.64191 5.20165 5.39019 5.20165C5.51388 5.20165 5.6363 5.20816 5.75489 5.22119C5.38126 4.99457 4.94515 4.86303 4.47333 4.86303ZM4.47333 4.09334C2.66511 4.09334 1.20502 5.58454 1.20502 7.4313C1.20502 9.27415 2.66766 10.7693 4.47333 10.7693C6.23181 10.7693 7.71996 9.32364 7.74546 7.51595C7.77097 5.77599 6.44095 4.09334 4.47333 4.09334ZM16.1324 4.10245C15.0357 4.0738 13.934 4.59865 13.2862 5.63143C11.886 7.86369 13.4876 10.7693 16.0393 10.7693C17.8462 10.7693 19.3076 9.27806 19.3076 7.4313C19.3089 5.62101 17.9036 4.14934 16.1324 4.10245Z" fill="white"/>
</svg>
