<svg width="16" height="8" viewBox="0 0 16 8" fill="none" xmlns="http://www.w3.org/2000/svg">
<path fill-rule="evenodd" clip-rule="evenodd" d="M3.60283 1.97439L4.95963 0H7.92402C8.45195 0 8.45195 0.820491 7.92402 0.820491H5.37534L4.3824 2.26525C5.22317 2.72281 5.80466 3.56501 5.93558 4.53223H7.73954C7.97758 2.78967 9.61237 1.62362 11.2863 1.96918L12.6397 0H15.6041C16.132 0 16.132 0.820491 15.6041 0.820491H13.0554L12.0709 2.25309C13.0545 2.77751 13.6751 3.81506 13.6751 4.9542C13.6751 6.63425 12.3379 8 10.6937 8C9.19751 8 7.93082 6.8652 7.73699 5.35272H5.93898C5.746 6.86173 4.47846 8 2.98224 8C1.33555 8 0 6.63599 0 4.9542C0 3.27502 1.33725 1.9084 2.98224 1.9084C3.19562 1.9084 3.4022 1.93184 3.60283 1.97439ZM10.7422 3.24723C10.1539 3.2316 9.59962 3.5216 9.28082 4.03039C8.97647 4.51574 8.95182 5.07054 9.12695 5.54547C9.14905 5.19036 9.25702 4.83004 9.4687 4.49316C9.90056 3.80465 10.6351 3.45474 11.3662 3.47384C11.4308 3.47558 11.4937 3.47992 11.5566 3.48774C11.3177 3.34187 11.0397 3.25505 10.7422 3.24723ZM2.98224 3.24202C2.0539 3.24202 1.30579 4.00608 1.30579 4.9542C1.30579 5.17126 1.34575 5.37877 1.41801 5.57065C1.48007 4.39679 2.42796 3.46777 3.59348 3.46777C3.67594 3.46777 3.75755 3.47211 3.83662 3.48079C3.58753 3.32972 3.29679 3.24202 2.98224 3.24202ZM2.98224 2.72889C1.77676 2.72889 0.803368 3.72303 0.803368 4.9542C0.803368 6.18277 1.77846 7.17951 2.98224 7.17951C4.15456 7.17951 5.14666 6.21576 5.16366 5.01064C5.18067 3.85066 4.29398 2.72889 2.98224 2.72889ZM10.7549 2.73497C10.0238 2.71587 9.28932 3.06577 8.85746 3.75429C7.92402 5.24246 8.99178 7.17951 10.6929 7.17951C11.8975 7.17951 12.8717 6.18537 12.8717 4.9542C12.8726 3.74734 11.9358 2.76623 10.7549 2.73497Z" fill="white"/>
</svg>
