<svg width="8" height="18" viewBox="0 0 8 18" fill="none" xmlns="http://www.w3.org/2000/svg">
<path d="M5.46294 0.765625C5.04412 0.765625 4.64246 0.928933 4.34632 1.21962C4.05017 1.51032 3.8838 1.90458 3.8838 2.31568C3.8838 2.72678 4.05017 3.12104 4.34632 3.41173C4.64246 3.70242 5.04412 3.86573 5.46294 3.86573C5.88175 3.86573 6.28341 3.70242 6.57956 3.41173C6.8757 3.12104 7.04208 2.72678 7.04208 2.31568C7.04208 1.90458 6.8757 1.51032 6.57956 1.21962C6.28341 0.928933 5.88175 0.765625 5.46294 0.765625ZM5.08394 5.69479C3.83116 5.79813 0.409689 8.47455 0.409689 8.47455C0.199137 8.62955 0.262303 8.61922 0.430744 8.90856C0.599186 9.18757 0.578131 9.20824 0.778155 9.0739C0.988707 8.93956 1.33612 8.72256 1.91514 8.37121C4.14699 6.96583 2.27307 10.2106 1.31506 15.6771C0.936069 18.3845 3.42058 16.9895 4.06277 16.5761C4.69442 16.1731 6.38936 15.0261 6.55781 14.9124C6.78941 14.7574 6.62097 14.6334 6.442 14.3751C6.31567 14.1994 6.18934 14.3234 6.18934 14.3234C5.50505 14.7678 4.25226 15.6978 4.08382 15.1088C3.8838 14.5197 5.16816 10.4793 5.87351 7.69952C5.98932 7.03817 6.30514 5.59145 5.08394 5.69479Z" fill="#334194"/>
</svg>
