<svg width="10" height="10" viewBox="0 0 10 10" fill="none" xmlns="http://www.w3.org/2000/svg">
<path d="M9.88626 7.14027C9.80628 6.93991 9.57905 6.84232 9.3787 6.9223C9.17835 7.00228 9.08075 7.22951 9.16073 7.42986C9.26241 7.6846 9.22907 7.97546 9.07153 8.20796C8.91391 8.44058 8.66155 8.574 8.37916 8.574H1.62243C1.3144 8.574 1.04087 8.41328 0.890692 8.14402C0.740282 7.87431 0.747352 7.55648 0.909599 7.29376L4.28796 1.82397C4.44179 1.5749 4.70826 1.42621 5.0008 1.42621C5.29334 1.42621 5.55978 1.5749 5.71363 1.82397L8.21221 5.86937C8.32557 6.0529 8.56627 6.10984 8.74977 5.99642C8.93329 5.88308 8.9902 5.64239 8.87682 5.45886L6.37822 1.41346C6.08103 0.932286 5.56611 0.64502 5.00078 0.64502C4.43545 0.64502 3.92052 0.932305 3.62333 1.41346L0.244969 6.88327C-0.0682352 7.39042 -0.081868 8.00398 0.208465 8.52455C0.498563 9.04467 1.02714 9.35517 1.62243 9.35517H8.37916C8.92483 9.35517 9.4129 9.09672 9.71823 8.64613C10.0213 8.1989 10.0841 7.63595 9.88626 7.14027Z" fill="#EE3048"/>
<path d="M5.00098 7.81242C5.2167 7.81242 5.39156 7.63756 5.39156 7.42184C5.39156 7.20611 5.2167 7.03125 5.00098 7.03125H5.00078C4.78506 7.03125 4.61029 7.20611 4.61029 7.42184C4.61029 7.63756 4.78525 7.81242 5.00098 7.81242Z" fill="#EE3048"/>
<path d="M5.39137 6.05488V3.18404C5.39137 2.96832 5.21651 2.79346 5.00079 2.79346C4.78506 2.79346 4.6102 2.96832 4.6102 3.18404V6.05488C4.6102 6.2706 4.78506 6.44546 5.00079 6.44546C5.21651 6.44546 5.39137 6.2706 5.39137 6.05488Z" fill="#EE3048"/>
</svg>
