<svg width="30" height="30" viewBox="0 0 30 30" fill="none" xmlns="http://www.w3.org/2000/svg">
<path d="M21.4167 6.75H8.58333C8.0971 6.75 7.63079 6.94315 7.28697 7.28697C6.94315 7.63079 6.75 8.0971 6.75 8.58333V21.4167C6.75 21.9029 6.94315 22.3692 7.28697 22.713C7.63079 23.0568 8.0971 23.25 8.58333 23.25H21.4167C21.9029 23.25 22.3692 23.0568 22.713 22.713C23.0568 22.3692 23.25 21.9029 23.25 21.4167V8.58333C23.25 8.0971 23.0568 7.63079 22.713 7.28697C22.3692 6.94315 21.9029 6.75 21.4167 6.75ZM21.4167 21.4167H8.58333V8.58333H21.4167V21.4167ZM19.5833 11.7L16.2833 15L19.5833 18.3L18.3 19.5833L15 16.2833L11.7 19.5833L10.4167 18.3L13.7167 15L10.4167 11.7L11.7 10.4167L15 13.7167L18.3 10.4167L19.5833 11.7Z" fill="white"/>
</svg>
