<svg id="Layer_1" data-name="Layer 1" xmlns="http://www.w3.org/2000/svg" viewBox="0 0 267.2 74.56"><defs><style>.cls-1{fill:#ffc20e;}.cls-2{fill:#0ab1b1;}.cls-3{fill:#ee3048;}.cls-4{fill:#fff;}</style></defs><title>Logo_White</title><polygon class="cls-1" points="21.43 24.85 43.05 37.12 42.86 12.26 21.24 0 21.43 24.85"/><polygon class="cls-2" points="43.23 61.97 21.8 74.56 21.62 49.71 43.05 37.12 43.23 61.97"/><polygon class="cls-3" points="21.62 49.71 0.19 62.3 0 37.44 21.43 24.85 21.62 49.71"/><path class="cls-4" d="M69,24c0,3.15-2.36,5.27-6,5.29s-5.91-2.25-5.94-5.15a5.74,5.74,0,0,1,.73-2.88l3.43.87a7,7,0,0,0-.26,2c0,1.43.72,2.3,2,2.29s2-1,2-2.22c0-3.35-4.08-4.09-4.12-8.56l3.95,0C65,18.32,69,19.77,69,24Z"/><path class="cls-4" d="M83.5,22c0,4.68-2.23,7.19-6.25,7.23s-6.16-2.28-6.2-6.71L71,10.26l4-.48,0,6.59a4.58,4.58,0,0,1,3.29-1.32C81.54,15,83.46,18,83.5,22Zm-4.08,0c0-3-.85-4.09-2.1-4.08A3.08,3.08,0,0,0,75,19.12l0,3.13c0,2.9.7,4,2.23,4C78.6,26.27,79.45,25.29,79.42,22Z"/><path class="cls-4" d="M97,23.81c0,3.15-2.36,5.26-6,5.29-3.78,0-5.92-2.25-5.94-5.15a5.64,5.64,0,0,1,.73-2.88l3.43.87A6.29,6.29,0,0,0,89,23.89c0,1.43.71,2.3,2,2.29s2-1,2-2.22c0-3.35-4.08-4.09-4.11-8.56l4,0C93,18.11,97,19.56,97,23.81Z"/><path class="cls-4" d="M122.76,20.69a13.66,13.66,0,0,1-1.25,6.36L118.05,26a15.57,15.57,0,0,0,.69-5.08c0-2.43-.73-3.27-1.65-3.26s-1.35.56-1.34,1.81l0,4.45-3.64.42,0-4.82c0-1.3-.54-1.82-1.36-1.82s-1.4.54-1.39,1.84l0,4.4-3.67.45,0-4.85c0-1.25-.51-1.79-1.31-1.79-1.1,0-1.65,1.09-1.63,3.71,0,4.23,3.24,5.45,6.38,6.38,2.93.83,5.56,1.86,7.3,4.07l-2.51,2.14a7.73,7.73,0,0,0-6.19-2.8,9.15,9.15,0,0,0-4.94,1.59l-1-2.8a8.26,8.26,0,0,1,3.67-.8c-3.55-.87-6.75-3.25-6.78-8,0-4.45,2-6.39,5-6.41a3.5,3.5,0,0,1,3.77,2.74,3.29,3.29,0,0,1,6.5,0,3.44,3.44,0,0,1,3.68-2.81C120.59,14.73,122.73,16.69,122.76,20.69Z"/><path class="cls-4" d="M136.21,27.51c0,3.95-2.45,6.39-6.35,6.42s-6.41-2.4-6.44-6.42c0-3.3,1.43-5.14,5.09-6.81,2.17-1,2.47-1.45,2.46-2.22s-.46-1.12-1.36-1.12-1.47.51-1.46,1.21a1.93,1.93,0,0,0,.08.58l-3.4.92a4,4,0,0,1-.36-1.57c0-2.15,2.2-3.81,5.25-3.84s5,1.64,5.05,3.86c0,1.33-.38,2.36-2.32,3.49C134.86,23.2,136.19,24.89,136.21,27.51Zm-4.05,0a5.5,5.5,0,0,0-1.8-4.48c-2.39,1.24-2.89,2.37-2.87,4.54,0,2.33.85,3.44,2.33,3.43S132.18,29.82,132.16,27.54Z"/><path class="cls-4" d="M148.93,23.42c0,3.14-2.36,5.26-6,5.29S137,26.45,137,23.55a5.7,5.7,0,0,1,.73-2.88l3.43.88a6.29,6.29,0,0,0-.26,1.95c0,1.42.72,2.29,2,2.29s2-1,1.95-2.22c0-3.35-4.07-4.09-4.11-8.57l3.95,0C144.94,17.72,148.9,19.17,148.93,23.42Z"/><path class="cls-4" d="M163.8,21.8c0,4.08-2.45,6.75-6.33,6.77s-6.41-2.42-6.45-6.65a6.45,6.45,0,0,1,.95-3.45c-1.53-.87-3.24-2.28-3.26-4.65,0-2.6,2-4.61,5.24-4.64s5.11,1.76,5.13,4a4.38,4.38,0,0,1-.66,2.35l.43,0C161.57,15.5,163.77,18,163.8,21.8Zm-8.27-8.36A1.45,1.45,0,0,0,154,11.83a1.62,1.62,0,0,0-1.66,1.86,3.1,3.1,0,0,0,1.47,2.64C155.17,15.09,155.54,14.44,155.53,13.44Zm4.19,8.42c0-2.52-.78-3.74-2.33-3.73a3.77,3.77,0,0,0-1.29.23,5,5,0,0,0-1,3.53c0,2.6.78,3.8,2.33,3.78S159.74,24.43,159.72,21.86Z"/><path class="cls-4" d="M165.51,20.52c0-5.5,1.54-8.54,5.6-9.77,2.5-.74,4.72-.76,6.42-1.72L179,11.49c-1.61,1.21-4.06,1.41-6.13,1.9s-3.37,1-3.93,2.45a2.63,2.63,0,0,1,2.22-1.07c1.34,0,2.65.83,3.12,2.93a3.51,3.51,0,0,1,3.77-3c2.83,0,4.94,1.94,5,5.91A16.08,16.08,0,0,1,181.49,28l-3.6,0a20.74,20.74,0,0,0,1.27-7.14c0-2.4-.74-3.24-1.67-3.23s-1.4.51-1.38,2l0,3.93-3.68.42,0-4.32c0-1.6-.56-2-1.36-2-1.1,0-1.69,1.07-1.68,3.64a21,21,0,0,0,1.33,6.74l-3.57,0A17.71,17.71,0,0,1,165.51,20.52Z"/><path class="cls-4" d="M192.09,20.74a8.47,8.47,0,0,1,.48-3,2.36,2.36,0,0,0-1.63-.69c-1.1,0-2.07.87-2.05,3.86,0,3.73,2,5.56,4.75,6.57,2.51.9,4.51,1.89,6,3.78l-2.58,2.16a6.3,6.3,0,0,0-5.12-2.68,8.16,8.16,0,0,0-4.26,1.36l-1-2.8a8.52,8.52,0,0,1,3.34-.7c-2.6-1.2-5.17-3.08-5.2-7.88,0-4.43,2.35-6.49,5.25-6.51a5.15,5.15,0,0,1,3.76,1.49A5.72,5.72,0,0,1,198,14.15c3.88,0,6,2.7,6.05,6.45s-2.1,6.49-5.92,6.52S192.12,24.41,192.09,20.74Zm3.92,0c0,2.42.68,3.61,2.1,3.6s2-1.21,2-3.66S199.43,17,198,17,196,18.14,196,20.69Z"/><path class="cls-4" d="M205.94,20.56c0-4.55,2.15-6.49,5-6.51a3.55,3.55,0,0,1,3.85,2.84,3.57,3.57,0,0,1,3.8-2.9c2.83,0,5,1.94,5.08,6.44a18,18,0,0,1-1.42,7.23l-3.78,0a23.2,23.2,0,0,0,1.25-7c0-2.93-.76-3.77-1.73-3.77-.8,0-1.35.52-1.33,2l0,4.35-3.67.43L213,19c0-1.65-.56-2-1.34-2-1.12,0-1.72,1.06-1.69,3.77a23,23,0,0,0,1.32,7l-3.77,0A17.93,17.93,0,0,1,205.94,20.56Z"/><path class="cls-4" d="M238.42,20.92c0,4.25-2.4,7.06-6.45,7.09s-6.52-2.55-6.55-7c0-3.65,1.78-6.26,4.85-6.94a2.91,2.91,0,0,0,.09-.85c0-1.5-2.19-1.61-2.21-4.13l3.75-.43c.14,1.73,2.19,2,2.21,4.14a3.22,3.22,0,0,1-.29,1.3C236.69,14.73,238.39,17.17,238.42,20.92Zm-4.1,0c0-3-.83-4.25-2.43-4.23S229.5,18,229.52,21s.83,4.17,2.43,4.15S234.34,23.82,234.32,21Z"/><path class="cls-4" d="M246.34,13.78c3.85,0,6.24,2.33,6.27,6.55a18.9,18.9,0,0,1-1.42,7.11l-3.8,0a23.22,23.22,0,0,0,1.2-7.08c0-2.65-.78-3.72-2.23-3.71s-2.22,1.09-2.2,3.74a24,24,0,0,0,1.31,7.07l-3.78,0a18.41,18.41,0,0,1-1.55-7.08C240.11,16.23,242.49,13.81,246.34,13.78Z"/><path class="cls-4" d="M254.68,8.87l3.94-.48.1,13.12c0,2.23.63,3.42,2.25,3.41,1.4,0,2.2-1,2.18-3.12,0-3.57-2.26-4.43-2.28-7.7l3.92,0c.17,2.67,2.38,3.83,2.41,7.7,0,3.53-2.21,6-6.23,6.05s-6.17-2.15-6.2-6.35Z"/><path class="cls-4" d="M69.48,53.47c0,3.29-2.13,5.81-6.18,5.84-3.82,0-5.94-2.2-6-5.2a5.56,5.56,0,0,1,.75-2.91l3.43.88a6.46,6.46,0,0,0-.28,2c0,1.43.69,2.35,2,2.34,1.53,0,2.12-1.17,2.1-3,0-2.1-.7-3.35-2.55-3.33h-1.4l.21-2.8,1.57,0c1.2,0,1.8-.66,1.79-1.51,0-2.12-4.06-1.74-4.41-5.36l3.59-.43c.47,2,4.69,2.34,4.72,5.49,0,1.67-1.16,2.68-3.2,3.2A4.65,4.65,0,0,1,69.48,53.47Z"/><path class="cls-4" d="M95.36,50.9a13.59,13.59,0,0,1-1.25,6.35l-3.46-1a15.57,15.57,0,0,0,.69-5.08c0-2.43-.73-3.27-1.65-3.27-.77,0-1.35.56-1.34,1.81l0,4.45-3.65.43,0-4.82c0-1.3-.53-1.82-1.36-1.82S82,48.45,82,49.75l0,4.4-3.67.45,0-4.85c0-1.25-.51-1.8-1.31-1.79-1.1,0-1.64,1.09-1.62,3.71,0,4.23,3.24,5.45,6.37,6.38,2.93.83,5.56,1.86,7.3,4.07l-2.51,2.14a7.73,7.73,0,0,0-6.19-2.8A9.15,9.15,0,0,0,75.38,63l-.94-2.79a8.18,8.18,0,0,1,3.66-.8c-3.55-.87-6.74-3.25-6.78-8,0-4.45,2-6.39,5-6.41a3.51,3.51,0,0,1,3.77,2.74,3.28,3.28,0,0,1,6.49-.05A3.45,3.45,0,0,1,90.24,45C93.19,44.94,95.33,46.9,95.36,50.9Z"/><path class="cls-4" d="M108.89,53.72c0,3.15-2.36,5.27-6,5.29S97,56.76,97,53.86A5.74,5.74,0,0,1,97.69,51l3.43.87a7,7,0,0,0-.26,1.95c0,1.43.72,2.3,2,2.29s2-1,2-2.22c0-3.35-4.08-4.09-4.12-8.56l4,0C104.89,48,108.85,49.47,108.89,53.72Z"/><path class="cls-4" d="M117.17,45.21c-.1-1-.19-2.1-.2-3l3.6,0a17.8,17.8,0,0,1-.2,3c4.16.7,6.73,3.9,6.77,9.4,0,5.8-3,9.4-8.2,9.43s-8.27-3.38-8.32-9.3C110.58,49.36,113,46,117.17,45.21Zm1.75,16c2.65,0,4.18-1.86,4.15-6.56,0-4.12-1-5.82-2.73-6.68a8.8,8.8,0,0,1,.29,2.25l0,3.82-3.59.43,0-4.15a9.26,9.26,0,0,1,.25-2.32c-1.79.91-2.63,2.61-2.6,6.71C114.73,59.37,116.32,61.19,118.92,61.17Z"/><path class="cls-4" d="M147.09,58.25c0,3.5-2.85,5.57-7.2,5.61-4.15,0-7.11-1.75-7.14-5a3.81,3.81,0,0,1,.07-.75l4,.42v.15c0,1.55,1.24,2.24,3.07,2.23,2.1,0,3.14-1.08,3.12-2.87,0-1.5-.79-2.37-2.16-2.36h-.38l.38-2.68h.43c1.45,0,2.16-1.07,2.15-3s-.77-2.65-1.87-2.64a3.22,3.22,0,0,0-1.87.64,7.25,7.25,0,0,1,.44,2.55c0,3.35-1.9,6-5.65,6s-5.84-2.41-5.87-6c0-3.35,2.08-6,5.8-6A5.65,5.65,0,0,1,138.28,46a5.75,5.75,0,0,1,3.91-1.4,4.91,4.91,0,0,1,5.09,5.06,4.45,4.45,0,0,1-3.44,4.75A3.82,3.82,0,0,1,147.09,58.25Zm-10.7-7.61c0-2.15-.7-3.22-2-3.21s-1.94,1.14-1.92,3.21.7,3.22,1.95,3.21S136.4,52.76,136.39,50.64Z"/><path class="cls-4" d="M149,51c0-4.55,2.15-6.49,5-6.51a3.56,3.56,0,0,1,3.85,2.84,3.57,3.57,0,0,1,3.8-2.9c2.83,0,5,1.94,5.07,6.44a17.79,17.79,0,0,1-1.42,7.23l-3.77,0a23.51,23.51,0,0,0,1.25-7c0-2.93-.76-3.77-1.73-3.76-.8,0-1.35.51-1.34,2l0,4.35-3.67.43,0-4.75c0-1.65-.57-2-1.34-2-1.12,0-1.72,1.07-1.7,3.77a23,23,0,0,0,1.33,7l-3.77,0A17.93,17.93,0,0,1,149,51Z"/><path class="cls-4" d="M168.62,50.49c-.05-5.5,1.53-8.53,5.59-9.76,2.5-.74,4.72-.76,6.42-1.73l1.46,2.47c-1.61,1.21-4.06,1.4-6.13,1.89s-3.37,1-3.93,2.46a2.61,2.61,0,0,1,2.22-1.07c1.35,0,2.65.83,3.12,2.93a3.49,3.49,0,0,1,3.77-3c2.83,0,4.94,1.94,5,5.91A16.08,16.08,0,0,1,184.59,58L181,58a20.68,20.68,0,0,0,1.27-7.13c0-2.4-.74-3.24-1.67-3.24s-1.4.51-1.38,2l0,3.92-3.67.43,0-4.32c0-1.6-.56-2-1.36-2-1.1,0-1.69,1.06-1.67,3.64A20.85,20.85,0,0,0,173.82,58l-3.57,0A17.5,17.5,0,0,1,168.62,50.49Z"/><path class="cls-4" d="M200.36,44.15l.06,7.33c0,4.42-2.12,6.81-6.07,6.84S188,55.92,188,51.5c0-3.78,2-6.87,5.3-6.89a4.38,4.38,0,0,1,3.16,1.22l0-2c0-1.32-.56-2.22-2.14-2.21-1.32,0-2,.64-2,1.42a.56.56,0,0,0,0,.17l-3.77.4a1.76,1.76,0,0,1-.1-.62c0-2.27,2.29-4.12,5.84-4.14S200.34,40.81,200.36,44.15Zm-3.89,7.43,0-3a2.77,2.77,0,0,0-2.23-1.13c-1.28,0-2.17,1.24-2.15,4,0,3,.88,3.95,2.26,3.94S196.49,54.18,196.47,51.58Z"/><path class="cls-4" d="M214,52.92c0,3.15-2.36,5.27-6,5.3-3.78,0-5.92-2.26-5.94-5.16a5.63,5.63,0,0,1,.73-2.87l3.43.87A6.29,6.29,0,0,0,206,53c0,1.42.72,2.29,2,2.28s2-1,2-2.21c0-3.35-4.08-4.09-4.11-8.57l4,0C210,47.23,214,48.68,214,52.92Z"/></svg>